G75*
G70*
%OFA0B0*%
%FSLAX25Y25*%
%IPPOS*%
%LPD*%
%AMOC8*
5,1,8,0,0,1.08239X$1,22.5*
%
%AMM122*
21,1,0.023620,0.018900,-0.000000,0.000000,270.000000*
21,1,0.018900,0.023620,-0.000000,0.000000,270.000000*
1,1,0.004720,-0.009450,-0.009450*
1,1,0.004720,-0.009450,0.009450*
1,1,0.004720,0.009450,0.009450*
1,1,0.004720,0.009450,-0.009450*
%
%AMM142*
21,1,0.033470,0.026770,-0.000000,0.000000,0.000000*
21,1,0.026770,0.033470,-0.000000,0.000000,0.000000*
1,1,0.006690,0.013390,-0.013390*
1,1,0.006690,-0.013390,-0.013390*
1,1,0.006690,-0.013390,0.013390*
1,1,0.006690,0.013390,0.013390*
%
%AMM316*
21,1,0.019680,0.019680,-0.000000,0.000000,0.000000*
21,1,0.015750,0.023620,-0.000000,0.000000,0.000000*
1,1,0.003940,0.007870,-0.009840*
1,1,0.003940,-0.007870,-0.009840*
1,1,0.003940,-0.007870,0.009840*
1,1,0.003940,0.007870,0.009840*
%
%AMM317*
21,1,0.019680,0.019680,-0.000000,0.000000,90.000000*
21,1,0.015750,0.023620,-0.000000,0.000000,90.000000*
1,1,0.003940,0.009840,0.007870*
1,1,0.003940,0.009840,-0.007870*
1,1,0.003940,-0.009840,-0.007870*
1,1,0.003940,-0.009840,0.007870*
%
%ADD264M122*%
%ADD288M142*%
%ADD481M316*%
%ADD482M317*%
X0098031Y0185827D02*
%LPD*%
G01*
G36*
G01*
X0128625Y0168898D02*
X0127444Y0168898D01*
G75*
G02*
X0126853Y0169488I0000000J0000591D01*
G01*
X0126853Y0173524D01*
G75*
G02*
X0127444Y0174114I0000591J0000000D01*
G01*
X0128625Y0174114D01*
G75*
G02*
X0129215Y0173524I0000000J-000591D01*
G01*
X0129215Y0169488D01*
G75*
G02*
X0128625Y0168898I-000591J0000000D01*
G01*
G37*
G36*
G01*
X0124884Y0168898D02*
X0123703Y0168898D01*
G75*
G02*
X0123113Y0169488I0000000J0000591D01*
G01*
X0123113Y0173524D01*
G75*
G02*
X0123703Y0174114I0000591J0000000D01*
G01*
X0124884Y0174114D01*
G75*
G02*
X0125475Y0173524I0000000J-000591D01*
G01*
X0125475Y0169488D01*
G75*
G02*
X0124884Y0168898I-000591J0000000D01*
G01*
G37*
G36*
G01*
X0121144Y0168898D02*
X0119963Y0168898D01*
G75*
G02*
X0119373Y0169488I0000000J0000591D01*
G01*
X0119373Y0173524D01*
G75*
G02*
X0119963Y0174114I0000591J0000000D01*
G01*
X0121144Y0174114D01*
G75*
G02*
X0121735Y0173524I0000000J-000591D01*
G01*
X0121735Y0169488D01*
G75*
G02*
X0121144Y0168898I-000591J0000000D01*
G01*
G37*
G36*
G01*
X0121144Y0177855D02*
X0119963Y0177855D01*
G75*
G02*
X0119373Y0178445I0000000J0000591D01*
G01*
X0119373Y0182481D01*
G75*
G02*
X0119963Y0183071I0000591J0000000D01*
G01*
X0121144Y0183071D01*
G75*
G02*
X0121735Y0182481I0000000J-000591D01*
G01*
X0121735Y0178445D01*
G75*
G02*
X0121144Y0177855I-000591J0000000D01*
G01*
G37*
G36*
G01*
X0128625Y0177855D02*
X0127444Y0177855D01*
G75*
G02*
X0126853Y0178445I0000000J0000591D01*
G01*
X0126853Y0182481D01*
G75*
G02*
X0127444Y0183071I0000591J0000000D01*
G01*
X0128625Y0183071D01*
G75*
G02*
X0129215Y0182481I0000000J-000591D01*
G01*
X0129215Y0178445D01*
G75*
G02*
X0128625Y0177855I-000591J0000000D01*
G01*
G37*
G36*
G01*
X0106338Y0169173D02*
X0106338Y0167835D01*
G75*
G02*
X0105787Y0167284I-000551J0000000D01*
G01*
X0104685Y0167284D01*
G75*
G02*
X0104133Y0167835I0000000J0000551D01*
G01*
X0104133Y0169173D01*
G75*
G02*
X0104685Y0169725I0000551J0000000D01*
G01*
X0105787Y0169725D01*
G75*
G02*
X0106338Y0169173I0000000J-000551D01*
G01*
G37*
G36*
G01*
X0102559Y0169173D02*
X0102559Y0167835D01*
G75*
G02*
X0102007Y0167284I-000551J0000000D01*
G01*
X0100905Y0167284D01*
G75*
G02*
X0100354Y0167835I0000000J0000551D01*
G01*
X0100354Y0169173D01*
G75*
G02*
X0100905Y0169725I0000551J0000000D01*
G01*
X0102007Y0169725D01*
G75*
G02*
X0102559Y0169173I0000000J-000551D01*
G01*
G37*
G36*
G01*
X0129055Y0142658D02*
X0130393Y0142658D01*
G75*
G02*
X0130944Y0142107I0000000J-000551D01*
G01*
X0130944Y0141004D01*
G75*
G02*
X0130393Y0140453I-000551J0000000D01*
G01*
X0129055Y0140453D01*
G75*
G02*
X0128503Y0141004I0000000J0000551D01*
G01*
X0128503Y0142107D01*
G75*
G02*
X0129055Y0142658I0000551J0000000D01*
G01*
G37*
G36*
G01*
X0129055Y0138878D02*
X0130393Y0138878D01*
G75*
G02*
X0130944Y0138327I0000000J-000551D01*
G01*
X0130944Y0137225D01*
G75*
G02*
X0130393Y0136673I-000551J0000000D01*
G01*
X0129055Y0136673D01*
G75*
G02*
X0128503Y0137225I0000000J0000551D01*
G01*
X0128503Y0138327D01*
G75*
G02*
X0129055Y0138878I0000551J0000000D01*
G01*
G37*
G36*
G01*
X0134055Y0129311D02*
X0132716Y0129311D01*
G75*
G02*
X0132165Y0129862I0000000J0000551D01*
G01*
X0132165Y0130965D01*
G75*
G02*
X0132716Y0131516I0000551J0000000D01*
G01*
X0134055Y0131516D01*
G75*
G02*
X0134606Y0130965I0000000J-000551D01*
G01*
X0134606Y0129862D01*
G75*
G02*
X0134055Y0129311I-000551J0000000D01*
G01*
G37*
G36*
G01*
X0134055Y0133091D02*
X0132716Y0133091D01*
G75*
G02*
X0132165Y0133642I0000000J0000551D01*
G01*
X0132165Y0134744D01*
G75*
G02*
X0132716Y0135296I0000551J0000000D01*
G01*
X0134055Y0135296D01*
G75*
G02*
X0134606Y0134744I0000000J-000551D01*
G01*
X0134606Y0133642D01*
G75*
G02*
X0134055Y0133091I-000551J0000000D01*
G01*
G37*
G36*
G01*
X0125314Y0151063D02*
X0126653Y0151063D01*
G75*
G02*
X0127204Y0150512I0000000J-000551D01*
G01*
X0127204Y0149410D01*
G75*
G02*
X0126653Y0148858I-000551J0000000D01*
G01*
X0125314Y0148858D01*
G75*
G02*
X0124763Y0149410I0000000J0000551D01*
G01*
X0124763Y0150512D01*
G75*
G02*
X0125314Y0151063I0000551J0000000D01*
G01*
G37*
G36*
G01*
X0125314Y0147284D02*
X0126653Y0147284D01*
G75*
G02*
X0127204Y0146733I0000000J-000551D01*
G01*
X0127204Y0145630D01*
G75*
G02*
X0126653Y0145079I-000551J0000000D01*
G01*
X0125314Y0145079D01*
G75*
G02*
X0124763Y0145630I0000000J0000551D01*
G01*
X0124763Y0146733D01*
G75*
G02*
X0125314Y0147284I0000551J0000000D01*
G01*
G37*
G36*
G01*
X0130393Y0129508D02*
X0129055Y0129508D01*
G75*
G02*
X0128503Y0130059I0000000J0000551D01*
G01*
X0128503Y0131162D01*
G75*
G02*
X0129055Y0131713I0000551J0000000D01*
G01*
X0130393Y0131713D01*
G75*
G02*
X0130944Y0131162I0000000J-000551D01*
G01*
X0130944Y0130059D01*
G75*
G02*
X0130393Y0129508I-000551J0000000D01*
G01*
G37*
G36*
G01*
X0130393Y0133288D02*
X0129055Y0133288D01*
G75*
G02*
X0128503Y0133839I0000000J0000551D01*
G01*
X0128503Y0134941D01*
G75*
G02*
X0129055Y0135492I0000551J0000000D01*
G01*
X0130393Y0135492D01*
G75*
G02*
X0130944Y0134941I0000000J-000551D01*
G01*
X0130944Y0133839D01*
G75*
G02*
X0130393Y0133288I-000551J0000000D01*
G01*
G37*
G36*
G01*
X0108877Y0134784D02*
X0110216Y0134784D01*
G75*
G02*
X0110767Y0134233I0000000J-000551D01*
G01*
X0110767Y0133130D01*
G75*
G02*
X0110216Y0132579I-000551J0000000D01*
G01*
X0108877Y0132579D01*
G75*
G02*
X0108326Y0133130I0000000J0000551D01*
G01*
X0108326Y0134233D01*
G75*
G02*
X0108877Y0134784I0000551J0000000D01*
G01*
G37*
G36*
G01*
X0108877Y0131004D02*
X0110216Y0131004D01*
G75*
G02*
X0110767Y0130453I0000000J-000551D01*
G01*
X0110767Y0129351D01*
G75*
G02*
X0110216Y0128799I-000551J0000000D01*
G01*
X0108877Y0128799D01*
G75*
G02*
X0108326Y0129351I0000000J0000551D01*
G01*
X0108326Y0130453D01*
G75*
G02*
X0108877Y0131004I0000551J0000000D01*
G01*
G37*
G36*
G01*
X0101377Y0165293D02*
X0102165Y0165293D01*
G75*
G02*
X0102559Y0164899I0000000J-000394D01*
G01*
X0102559Y0159879D01*
G75*
G02*
X0102165Y0159486I-000394J0000000D01*
G01*
X0101377Y0159486D01*
G75*
G02*
X0100984Y0159879I0000000J0000394D01*
G01*
X0100984Y0164899D01*
G75*
G02*
X0101377Y0165293I0000394J0000000D01*
G01*
G37*
G36*
G01*
X0103937Y0165293D02*
X0104724Y0165293D01*
G75*
G02*
X0105118Y0164899I0000000J-000394D01*
G01*
X0105118Y0159879D01*
G75*
G02*
X0104724Y0159486I-000394J0000000D01*
G01*
X0103937Y0159486D01*
G75*
G02*
X0103543Y0159879I0000000J0000394D01*
G01*
X0103543Y0164899D01*
G75*
G02*
X0103937Y0165293I0000394J0000000D01*
G01*
G37*
G36*
G01*
X0106496Y0165293D02*
X0107283Y0165293D01*
G75*
G02*
X0107677Y0164899I0000000J-000394D01*
G01*
X0107677Y0159879D01*
G75*
G02*
X0107283Y0159486I-000394J0000000D01*
G01*
X0106496Y0159486D01*
G75*
G02*
X0106102Y0159879I0000000J0000394D01*
G01*
X0106102Y0164899D01*
G75*
G02*
X0106496Y0165293I0000394J0000000D01*
G01*
G37*
G36*
G01*
X0109055Y0165293D02*
X0109842Y0165293D01*
G75*
G02*
X0110236Y0164899I0000000J-000394D01*
G01*
X0110236Y0159879D01*
G75*
G02*
X0109842Y0159486I-000394J0000000D01*
G01*
X0109055Y0159486D01*
G75*
G02*
X0108661Y0159879I0000000J0000394D01*
G01*
X0108661Y0164899D01*
G75*
G02*
X0109055Y0165293I0000394J0000000D01*
G01*
G37*
G36*
G01*
X0111614Y0165293D02*
X0112401Y0165293D01*
G75*
G02*
X0112795Y0164899I0000000J-000394D01*
G01*
X0112795Y0159879D01*
G75*
G02*
X0112401Y0159486I-000394J0000000D01*
G01*
X0111614Y0159486D01*
G75*
G02*
X0111220Y0159879I0000000J0000394D01*
G01*
X0111220Y0164899D01*
G75*
G02*
X0111614Y0165293I0000394J0000000D01*
G01*
G37*
G36*
G01*
X0114173Y0165293D02*
X0114960Y0165293D01*
G75*
G02*
X0115354Y0164899I0000000J-000394D01*
G01*
X0115354Y0159879D01*
G75*
G02*
X0114960Y0159486I-000394J0000000D01*
G01*
X0114173Y0159486D01*
G75*
G02*
X0113779Y0159879I0000000J0000394D01*
G01*
X0113779Y0164899D01*
G75*
G02*
X0114173Y0165293I0000394J0000000D01*
G01*
G37*
G36*
G01*
X0116732Y0165293D02*
X0117519Y0165293D01*
G75*
G02*
X0117913Y0164899I0000000J-000394D01*
G01*
X0117913Y0159879D01*
G75*
G02*
X0117519Y0159486I-000394J0000000D01*
G01*
X0116732Y0159486D01*
G75*
G02*
X0116338Y0159879I0000000J0000394D01*
G01*
X0116338Y0164899D01*
G75*
G02*
X0116732Y0165293I0000394J0000000D01*
G01*
G37*
G36*
G01*
X0116732Y0142753D02*
X0117519Y0142753D01*
G75*
G02*
X0117913Y0142360I0000000J-000394D01*
G01*
X0117913Y0137340D01*
G75*
G02*
X0117519Y0136946I-000394J0000000D01*
G01*
X0116732Y0136946D01*
G75*
G02*
X0116338Y0137340I0000000J0000394D01*
G01*
X0116338Y0142360D01*
G75*
G02*
X0116732Y0142753I0000394J0000000D01*
G01*
G37*
G36*
G01*
X0114173Y0142753D02*
X0114960Y0142753D01*
G75*
G02*
X0115354Y0142360I0000000J-000394D01*
G01*
X0115354Y0137340D01*
G75*
G02*
X0114960Y0136946I-000394J0000000D01*
G01*
X0114173Y0136946D01*
G75*
G02*
X0113779Y0137340I0000000J0000394D01*
G01*
X0113779Y0142360D01*
G75*
G02*
X0114173Y0142753I0000394J0000000D01*
G01*
G37*
G36*
G01*
X0111614Y0142753D02*
X0112401Y0142753D01*
G75*
G02*
X0112795Y0142360I0000000J-000394D01*
G01*
X0112795Y0137340D01*
G75*
G02*
X0112401Y0136946I-000394J0000000D01*
G01*
X0111614Y0136946D01*
G75*
G02*
X0111220Y0137340I0000000J0000394D01*
G01*
X0111220Y0142360D01*
G75*
G02*
X0111614Y0142753I0000394J0000000D01*
G01*
G37*
G36*
G01*
X0109055Y0142753D02*
X0109842Y0142753D01*
G75*
G02*
X0110236Y0142360I0000000J-000394D01*
G01*
X0110236Y0137340D01*
G75*
G02*
X0109842Y0136946I-000394J0000000D01*
G01*
X0109055Y0136946D01*
G75*
G02*
X0108661Y0137340I0000000J0000394D01*
G01*
X0108661Y0142360D01*
G75*
G02*
X0109055Y0142753I0000394J0000000D01*
G01*
G37*
G36*
G01*
X0106496Y0142753D02*
X0107283Y0142753D01*
G75*
G02*
X0107677Y0142360I0000000J-000394D01*
G01*
X0107677Y0137340D01*
G75*
G02*
X0107283Y0136946I-000394J0000000D01*
G01*
X0106496Y0136946D01*
G75*
G02*
X0106102Y0137340I0000000J0000394D01*
G01*
X0106102Y0142360D01*
G75*
G02*
X0106496Y0142753I0000394J0000000D01*
G01*
G37*
G36*
G01*
X0103937Y0142753D02*
X0104724Y0142753D01*
G75*
G02*
X0105118Y0142360I0000000J-000394D01*
G01*
X0105118Y0137340D01*
G75*
G02*
X0104724Y0136946I-000394J0000000D01*
G01*
X0103937Y0136946D01*
G75*
G02*
X0103543Y0137340I0000000J0000394D01*
G01*
X0103543Y0142360D01*
G75*
G02*
X0103937Y0142753I0000394J0000000D01*
G01*
G37*
G36*
G01*
X0101377Y0142753D02*
X0102165Y0142753D01*
G75*
G02*
X0102559Y0142360I0000000J-000394D01*
G01*
X0102559Y0137340D01*
G75*
G02*
X0102165Y0136946I-000394J0000000D01*
G01*
X0101377Y0136946D01*
G75*
G02*
X0100984Y0137340I0000000J0000394D01*
G01*
X0100984Y0142360D01*
G75*
G02*
X0101377Y0142753I0000394J0000000D01*
G01*
G37*
G36*
G01*
X0109248Y0182936D02*
X0112791Y0182936D01*
G75*
G02*
X0113775Y0181952I0000000J-000984D01*
G01*
X0113775Y0179885D01*
G75*
G02*
X0112791Y0178901I-000984J0000000D01*
G01*
X0109248Y0178901D01*
G75*
G02*
X0108263Y0179885I0000000J0000984D01*
G01*
X0108263Y0181952D01*
G75*
G02*
X0109248Y0182936I0000984J0000000D01*
G01*
G37*
G36*
G01*
X0109248Y0175751D02*
X0112791Y0175751D01*
G75*
G02*
X0113775Y0174767I0000000J-000984D01*
G01*
X0113775Y0172700D01*
G75*
G02*
X0112791Y0171716I-000984J0000000D01*
G01*
X0109248Y0171716D01*
G75*
G02*
X0108263Y0172700I0000000J0000984D01*
G01*
X0108263Y0174767D01*
G75*
G02*
X0109248Y0175751I0000984J0000000D01*
G01*
G37*
G36*
G01*
X0122972Y0136693D02*
X0121515Y0136693D01*
G75*
G02*
X0120984Y0137225I0000000J0000531D01*
G01*
X0120984Y0138288D01*
G75*
G02*
X0121515Y0138819I0000531J0000000D01*
G01*
X0122972Y0138819D01*
G75*
G02*
X0123503Y0138288I0000000J-000531D01*
G01*
X0123503Y0137225D01*
G75*
G02*
X0122972Y0136693I-000531J0000000D01*
G01*
G37*
G36*
G01*
X0122972Y0140709D02*
X0121515Y0140709D01*
G75*
G02*
X0120984Y0141240I0000000J0000531D01*
G01*
X0120984Y0142303D01*
G75*
G02*
X0121515Y0142835I0000531J0000000D01*
G01*
X0122972Y0142835D01*
G75*
G02*
X0123503Y0142303I0000000J-000531D01*
G01*
X0123503Y0141240D01*
G75*
G02*
X0122972Y0140709I-000531J0000000D01*
G01*
G37*
G36*
G01*
X0133897Y0177126D02*
X0132559Y0177126D01*
G75*
G02*
X0132007Y0177677I0000000J0000551D01*
G01*
X0132007Y0178780D01*
G75*
G02*
X0132559Y0179331I0000551J0000000D01*
G01*
X0133897Y0179331D01*
G75*
G02*
X0134448Y0178780I0000000J-000551D01*
G01*
X0134448Y0177677D01*
G75*
G02*
X0133897Y0177126I-000551J0000000D01*
G01*
G37*
G36*
G01*
X0133897Y0180906D02*
X0132559Y0180906D01*
G75*
G02*
X0132007Y0181457I0000000J0000551D01*
G01*
X0132007Y0182559D01*
G75*
G02*
X0132559Y0183110I0000551J0000000D01*
G01*
X0133897Y0183110D01*
G75*
G02*
X0134448Y0182559I0000000J-000551D01*
G01*
X0134448Y0181457D01*
G75*
G02*
X0133897Y0180906I-000551J0000000D01*
G01*
G37*
G36*
G01*
X0126712Y0129016D02*
X0125255Y0129016D01*
G75*
G02*
X0124724Y0129547I0000000J0000531D01*
G01*
X0124724Y0130610D01*
G75*
G02*
X0125255Y0131142I0000531J0000000D01*
G01*
X0126712Y0131142D01*
G75*
G02*
X0127244Y0130610I0000000J-000531D01*
G01*
X0127244Y0129547D01*
G75*
G02*
X0126712Y0129016I-000531J0000000D01*
G01*
G37*
G36*
G01*
X0126712Y0133032D02*
X0125255Y0133032D01*
G75*
G02*
X0124724Y0133563I0000000J0000531D01*
G01*
X0124724Y0134626D01*
G75*
G02*
X0125255Y0135158I0000531J0000000D01*
G01*
X0126712Y0135158D01*
G75*
G02*
X0127244Y0134626I0000000J-000531D01*
G01*
X0127244Y0133563D01*
G75*
G02*
X0126712Y0133032I-000531J0000000D01*
G01*
G37*
G36*
G01*
X0122972Y0144949D02*
X0121516Y0144949D01*
G75*
G02*
X0120984Y0145481I0000000J0000531D01*
G01*
X0120984Y0146544D01*
G75*
G02*
X0121516Y0147075I0000531J0000000D01*
G01*
X0122972Y0147075D01*
G75*
G02*
X0123504Y0146544I0000000J-000531D01*
G01*
X0123504Y0145481D01*
G75*
G02*
X0122972Y0144949I-000531J0000000D01*
G01*
G37*
G36*
G01*
X0122972Y0148965D02*
X0121516Y0148965D01*
G75*
G02*
X0120984Y0149497I0000000J0000531D01*
G01*
X0120984Y0150560D01*
G75*
G02*
X0121516Y0151091I0000531J0000000D01*
G01*
X0122972Y0151091D01*
G75*
G02*
X0123504Y0150560I0000000J-000531D01*
G01*
X0123504Y0149497D01*
G75*
G02*
X0122972Y0148965I-000531J0000000D01*
G01*
G37*
G36*
G01*
X0105216Y0171716D02*
X0101673Y0171716D01*
G75*
G02*
X0100688Y0172700I0000000J0000984D01*
G01*
X0100688Y0174767D01*
G75*
G02*
X0101673Y0175751I0000984J0000000D01*
G01*
X0105216Y0175751D01*
G75*
G02*
X0106200Y0174767I0000000J-000984D01*
G01*
X0106200Y0172700D01*
G75*
G02*
X0105216Y0171716I-000984J0000000D01*
G01*
G37*
G36*
G01*
X0105216Y0178901D02*
X0101673Y0178901D01*
G75*
G02*
X0100688Y0179885I0000000J0000984D01*
G01*
X0100688Y0181952D01*
G75*
G02*
X0101673Y0182936I0000984J0000000D01*
G01*
X0105216Y0182936D01*
G75*
G02*
X0106200Y0181952I0000000J-000984D01*
G01*
X0106200Y0179885D01*
G75*
G02*
X0105216Y0178901I-000984J0000000D01*
G01*
G37*
G36*
G01*
X0134114Y0145000D02*
X0132657Y0145000D01*
G75*
G02*
X0132125Y0145532I0000000J0000531D01*
G01*
X0132125Y0146595D01*
G75*
G02*
X0132657Y0147126I0000531J0000000D01*
G01*
X0134114Y0147126D01*
G75*
G02*
X0134645Y0146595I0000000J-000531D01*
G01*
X0134645Y0145532D01*
G75*
G02*
X0134114Y0145000I-000531J0000000D01*
G01*
G37*
G36*
G01*
X0134114Y0149016D02*
X0132657Y0149016D01*
G75*
G02*
X0132125Y0149547I0000000J0000531D01*
G01*
X0132125Y0150610D01*
G75*
G02*
X0132657Y0151142I0000531J0000000D01*
G01*
X0134114Y0151142D01*
G75*
G02*
X0134645Y0150610I0000000J-000531D01*
G01*
X0134645Y0149547D01*
G75*
G02*
X0134114Y0149016I-000531J0000000D01*
G01*
G37*
G36*
G01*
X0100610Y0135315D02*
X0102066Y0135315D01*
G75*
G02*
X0102598Y0134784I0000000J-000531D01*
G01*
X0102598Y0133721D01*
G75*
G02*
X0102066Y0133189I-000531J0000000D01*
G01*
X0100610Y0133189D01*
G75*
G02*
X0100078Y0133721I0000000J0000531D01*
G01*
X0100078Y0134784D01*
G75*
G02*
X0100610Y0135315I0000531J0000000D01*
G01*
G37*
G36*
G01*
X0100610Y0131299D02*
X0102066Y0131299D01*
G75*
G02*
X0102598Y0130768I0000000J-000531D01*
G01*
X0102598Y0129705D01*
G75*
G02*
X0102066Y0129173I-000531J0000000D01*
G01*
X0100610Y0129173D01*
G75*
G02*
X0100078Y0129705I0000000J0000531D01*
G01*
X0100078Y0130768D01*
G75*
G02*
X0100610Y0131299I0000531J0000000D01*
G01*
G37*
G36*
G01*
X0112559Y0134862D02*
X0114015Y0134862D01*
G75*
G02*
X0114547Y0134331I0000000J-000531D01*
G01*
X0114547Y0133268D01*
G75*
G02*
X0114015Y0132736I-000531J0000000D01*
G01*
X0112559Y0132736D01*
G75*
G02*
X0112027Y0133268I0000000J0000531D01*
G01*
X0112027Y0134331D01*
G75*
G02*
X0112559Y0134862I0000531J0000000D01*
G01*
G37*
G36*
G01*
X0112559Y0130847D02*
X0114015Y0130847D01*
G75*
G02*
X0114547Y0130315I0000000J-000531D01*
G01*
X0114547Y0129252D01*
G75*
G02*
X0114015Y0128721I-000531J0000000D01*
G01*
X0112559Y0128721D01*
G75*
G02*
X0112027Y0129252I0000000J0000531D01*
G01*
X0112027Y0130315D01*
G75*
G02*
X0112559Y0130847I0000531J0000000D01*
G01*
G37*
G36*
G01*
X0126712Y0136398D02*
X0125255Y0136398D01*
G75*
G02*
X0124724Y0136929I0000000J0000531D01*
G01*
X0124724Y0137992D01*
G75*
G02*
X0125255Y0138524I0000531J0000000D01*
G01*
X0126712Y0138524D01*
G75*
G02*
X0127244Y0137992I0000000J-000531D01*
G01*
X0127244Y0136929D01*
G75*
G02*
X0126712Y0136398I-000531J0000000D01*
G01*
G37*
G36*
G01*
X0126712Y0140414D02*
X0125255Y0140414D01*
G75*
G02*
X0124724Y0140945I0000000J0000531D01*
G01*
X0124724Y0142008D01*
G75*
G02*
X0125255Y0142540I0000531J0000000D01*
G01*
X0126712Y0142540D01*
G75*
G02*
X0127244Y0142008I0000000J-000531D01*
G01*
X0127244Y0140945D01*
G75*
G02*
X0126712Y0140414I-000531J0000000D01*
G01*
G37*
G36*
G01*
X0117795Y0128701D02*
X0116456Y0128701D01*
G75*
G02*
X0115905Y0129252I0000000J0000551D01*
G01*
X0115905Y0130355D01*
G75*
G02*
X0116456Y0130906I0000551J0000000D01*
G01*
X0117795Y0130906D01*
G75*
G02*
X0118346Y0130355I0000000J-000551D01*
G01*
X0118346Y0129252D01*
G75*
G02*
X0117795Y0128701I-000551J0000000D01*
G01*
G37*
G36*
G01*
X0117795Y0132481D02*
X0116456Y0132481D01*
G75*
G02*
X0115905Y0133032I0000000J0000551D01*
G01*
X0115905Y0134134D01*
G75*
G02*
X0116456Y0134685I0000551J0000000D01*
G01*
X0117795Y0134685D01*
G75*
G02*
X0118346Y0134134I0000000J-000551D01*
G01*
X0118346Y0133032D01*
G75*
G02*
X0117795Y0132481I-000551J0000000D01*
G01*
G37*
G36*
G01*
X0107580Y0167849D02*
X0107580Y0169187D01*
G75*
G02*
X0108131Y0169739I0000551J0000000D01*
G01*
X0109233Y0169739D01*
G75*
G02*
X0109785Y0169187I0000000J-000551D01*
G01*
X0109785Y0167849D01*
G75*
G02*
X0109233Y0167298I-000551J0000000D01*
G01*
X0108131Y0167298D01*
G75*
G02*
X0107580Y0167849I0000000J0000551D01*
G01*
G37*
G36*
G01*
X0111359Y0167849D02*
X0111359Y0169187D01*
G75*
G02*
X0111910Y0169739I0000551J0000000D01*
G01*
X0113013Y0169739D01*
G75*
G02*
X0113564Y0169187I0000000J-000551D01*
G01*
X0113564Y0167849D01*
G75*
G02*
X0113013Y0167298I-000551J0000000D01*
G01*
X0111910Y0167298D01*
G75*
G02*
X0111359Y0167849I0000000J0000551D01*
G01*
G37*
G36*
G01*
X0121515Y0135355D02*
X0122972Y0135355D01*
G75*
G02*
X0123503Y0134823I0000000J-000531D01*
G01*
X0123503Y0133760D01*
G75*
G02*
X0122972Y0133229I-000531J0000000D01*
G01*
X0121515Y0133229D01*
G75*
G02*
X0120984Y0133760I0000000J0000531D01*
G01*
X0120984Y0134823D01*
G75*
G02*
X0121515Y0135355I0000531J0000000D01*
G01*
G37*
G36*
G01*
X0121515Y0131339D02*
X0122972Y0131339D01*
G75*
G02*
X0123503Y0130807I0000000J-000531D01*
G01*
X0123503Y0129744D01*
G75*
G02*
X0122972Y0129213I-000531J0000000D01*
G01*
X0121515Y0129213D01*
G75*
G02*
X0120984Y0129744I0000000J0000531D01*
G01*
X0120984Y0130807D01*
G75*
G02*
X0121515Y0131339I0000531J0000000D01*
G01*
G37*
G36*
G01*
X0132874Y0152756D02*
X0131692Y0152756D01*
G75*
G02*
X0131102Y0153347I0000000J0000591D01*
G01*
X0131102Y0157382D01*
G75*
G02*
X0131692Y0157973I0000591J0000000D01*
G01*
X0132874Y0157973D01*
G75*
G02*
X0133464Y0157382I0000000J-000591D01*
G01*
X0133464Y0153347D01*
G75*
G02*
X0132874Y0152756I-000591J0000000D01*
G01*
G37*
G36*
G01*
X0129133Y0152756D02*
X0127952Y0152756D01*
G75*
G02*
X0127362Y0153347I0000000J0000591D01*
G01*
X0127362Y0157382D01*
G75*
G02*
X0127952Y0157973I0000591J0000000D01*
G01*
X0129133Y0157973D01*
G75*
G02*
X0129724Y0157382I0000000J-000591D01*
G01*
X0129724Y0153347D01*
G75*
G02*
X0129133Y0152756I-000591J0000000D01*
G01*
G37*
G36*
G01*
X0125393Y0152756D02*
X0124212Y0152756D01*
G75*
G02*
X0123622Y0153347I0000000J0000591D01*
G01*
X0123622Y0157382D01*
G75*
G02*
X0124212Y0157973I0000591J0000000D01*
G01*
X0125393Y0157973D01*
G75*
G02*
X0125984Y0157382I0000000J-000591D01*
G01*
X0125984Y0153347D01*
G75*
G02*
X0125393Y0152756I-000591J0000000D01*
G01*
G37*
G36*
G01*
X0125393Y0161713D02*
X0124212Y0161713D01*
G75*
G02*
X0123622Y0162303I0000000J0000591D01*
G01*
X0123622Y0166339D01*
G75*
G02*
X0124212Y0166929I0000591J0000000D01*
G01*
X0125393Y0166929D01*
G75*
G02*
X0125984Y0166339I0000000J-000591D01*
G01*
X0125984Y0162303D01*
G75*
G02*
X0125393Y0161713I-000591J0000000D01*
G01*
G37*
G36*
G01*
X0132874Y0161713D02*
X0131692Y0161713D01*
G75*
G02*
X0131102Y0162303I0000000J0000591D01*
G01*
X0131102Y0166339D01*
G75*
G02*
X0131692Y0166929I0000591J0000000D01*
G01*
X0132874Y0166929D01*
G75*
G02*
X0133464Y0166339I0000000J-000591D01*
G01*
X0133464Y0162303D01*
G75*
G02*
X0132874Y0161713I-000591J0000000D01*
G01*
G37*
G36*
G01*
X0129055Y0151063D02*
X0130393Y0151063D01*
G75*
G02*
X0130944Y0150512I0000000J-000551D01*
G01*
X0130944Y0149410D01*
G75*
G02*
X0130393Y0148858I-000551J0000000D01*
G01*
X0129055Y0148858D01*
G75*
G02*
X0128503Y0149410I0000000J0000551D01*
G01*
X0128503Y0150512D01*
G75*
G02*
X0129055Y0151063I0000551J0000000D01*
G01*
G37*
G36*
G01*
X0129055Y0147284D02*
X0130393Y0147284D01*
G75*
G02*
X0130944Y0146733I0000000J-000551D01*
G01*
X0130944Y0145630D01*
G75*
G02*
X0130393Y0145079I-000551J0000000D01*
G01*
X0129055Y0145079D01*
G75*
G02*
X0128503Y0145630I0000000J0000551D01*
G01*
X0128503Y0146733D01*
G75*
G02*
X0129055Y0147284I0000551J0000000D01*
G01*
G37*
X0030709Y0284055D02*
%LPD*%
G01*
G36*
G01*
X0061303Y0267126D02*
X0060122Y0267126D01*
G75*
G02*
X0059531Y0267716I0000000J0000591D01*
G01*
X0059531Y0271752D01*
G75*
G02*
X0060122Y0272342I0000591J0000000D01*
G01*
X0061303Y0272342D01*
G75*
G02*
X0061893Y0271752I0000000J-000591D01*
G01*
X0061893Y0267716D01*
G75*
G02*
X0061303Y0267126I-000591J0000000D01*
G01*
G37*
G36*
G01*
X0057562Y0267126D02*
X0056381Y0267126D01*
G75*
G02*
X0055791Y0267716I0000000J0000591D01*
G01*
X0055791Y0271752D01*
G75*
G02*
X0056381Y0272342I0000591J0000000D01*
G01*
X0057562Y0272342D01*
G75*
G02*
X0058153Y0271752I0000000J-000591D01*
G01*
X0058153Y0267716D01*
G75*
G02*
X0057562Y0267126I-000591J0000000D01*
G01*
G37*
G36*
G01*
X0053822Y0267126D02*
X0052641Y0267126D01*
G75*
G02*
X0052051Y0267716I0000000J0000591D01*
G01*
X0052051Y0271752D01*
G75*
G02*
X0052641Y0272342I0000591J0000000D01*
G01*
X0053822Y0272342D01*
G75*
G02*
X0054413Y0271752I0000000J-000591D01*
G01*
X0054413Y0267716D01*
G75*
G02*
X0053822Y0267126I-000591J0000000D01*
G01*
G37*
G36*
G01*
X0053822Y0276083D02*
X0052641Y0276083D01*
G75*
G02*
X0052051Y0276673I0000000J0000591D01*
G01*
X0052051Y0280709D01*
G75*
G02*
X0052641Y0281299I0000591J0000000D01*
G01*
X0053822Y0281299D01*
G75*
G02*
X0054413Y0280709I0000000J-000591D01*
G01*
X0054413Y0276673D01*
G75*
G02*
X0053822Y0276083I-000591J0000000D01*
G01*
G37*
G36*
G01*
X0061303Y0276083D02*
X0060122Y0276083D01*
G75*
G02*
X0059531Y0276673I0000000J0000591D01*
G01*
X0059531Y0280709D01*
G75*
G02*
X0060122Y0281299I0000591J0000000D01*
G01*
X0061303Y0281299D01*
G75*
G02*
X0061893Y0280709I0000000J-000591D01*
G01*
X0061893Y0276673D01*
G75*
G02*
X0061303Y0276083I-000591J0000000D01*
G01*
G37*
G36*
G01*
X0039016Y0267401D02*
X0039016Y0266063D01*
G75*
G02*
X0038465Y0265512I-000551J0000000D01*
G01*
X0037363Y0265512D01*
G75*
G02*
X0036811Y0266063I0000000J0000551D01*
G01*
X0036811Y0267401D01*
G75*
G02*
X0037363Y0267953I0000551J0000000D01*
G01*
X0038465Y0267953D01*
G75*
G02*
X0039016Y0267401I0000000J-000551D01*
G01*
G37*
G36*
G01*
X0035237Y0267401D02*
X0035237Y0266063D01*
G75*
G02*
X0034685Y0265512I-000551J0000000D01*
G01*
X0033583Y0265512D01*
G75*
G02*
X0033032Y0266063I0000000J0000551D01*
G01*
X0033032Y0267401D01*
G75*
G02*
X0033583Y0267953I0000551J0000000D01*
G01*
X0034685Y0267953D01*
G75*
G02*
X0035237Y0267401I0000000J-000551D01*
G01*
G37*
G36*
G01*
X0061733Y0240886D02*
X0063071Y0240886D01*
G75*
G02*
X0063622Y0240335I0000000J-000551D01*
G01*
X0063622Y0239232D01*
G75*
G02*
X0063071Y0238681I-000551J0000000D01*
G01*
X0061733Y0238681D01*
G75*
G02*
X0061181Y0239232I0000000J0000551D01*
G01*
X0061181Y0240335D01*
G75*
G02*
X0061733Y0240886I0000551J0000000D01*
G01*
G37*
G36*
G01*
X0061733Y0237106D02*
X0063071Y0237106D01*
G75*
G02*
X0063622Y0236555I0000000J-000551D01*
G01*
X0063622Y0235453D01*
G75*
G02*
X0063071Y0234901I-000551J0000000D01*
G01*
X0061733Y0234901D01*
G75*
G02*
X0061181Y0235453I0000000J0000551D01*
G01*
X0061181Y0236555D01*
G75*
G02*
X0061733Y0237106I0000551J0000000D01*
G01*
G37*
G36*
G01*
X0066733Y0227539D02*
X0065394Y0227539D01*
G75*
G02*
X0064843Y0228090I0000000J0000551D01*
G01*
X0064843Y0229193D01*
G75*
G02*
X0065394Y0229744I0000551J0000000D01*
G01*
X0066733Y0229744D01*
G75*
G02*
X0067284Y0229193I0000000J-000551D01*
G01*
X0067284Y0228090D01*
G75*
G02*
X0066733Y0227539I-000551J0000000D01*
G01*
G37*
G36*
G01*
X0066733Y0231319D02*
X0065394Y0231319D01*
G75*
G02*
X0064843Y0231870I0000000J0000551D01*
G01*
X0064843Y0232972D01*
G75*
G02*
X0065394Y0233524I0000551J0000000D01*
G01*
X0066733Y0233524D01*
G75*
G02*
X0067284Y0232972I0000000J-000551D01*
G01*
X0067284Y0231870D01*
G75*
G02*
X0066733Y0231319I-000551J0000000D01*
G01*
G37*
G36*
G01*
X0057992Y0249291D02*
X0059331Y0249291D01*
G75*
G02*
X0059882Y0248740I0000000J-000551D01*
G01*
X0059882Y0247638D01*
G75*
G02*
X0059331Y0247086I-000551J0000000D01*
G01*
X0057992Y0247086D01*
G75*
G02*
X0057441Y0247638I0000000J0000551D01*
G01*
X0057441Y0248740D01*
G75*
G02*
X0057992Y0249291I0000551J0000000D01*
G01*
G37*
G36*
G01*
X0057992Y0245512D02*
X0059331Y0245512D01*
G75*
G02*
X0059882Y0244961I0000000J-000551D01*
G01*
X0059882Y0243858D01*
G75*
G02*
X0059331Y0243307I-000551J0000000D01*
G01*
X0057992Y0243307D01*
G75*
G02*
X0057441Y0243858I0000000J0000551D01*
G01*
X0057441Y0244961D01*
G75*
G02*
X0057992Y0245512I0000551J0000000D01*
G01*
G37*
G36*
G01*
X0063071Y0227736D02*
X0061733Y0227736D01*
G75*
G02*
X0061181Y0228287I0000000J0000551D01*
G01*
X0061181Y0229390D01*
G75*
G02*
X0061733Y0229941I0000551J0000000D01*
G01*
X0063071Y0229941D01*
G75*
G02*
X0063622Y0229390I0000000J-000551D01*
G01*
X0063622Y0228287D01*
G75*
G02*
X0063071Y0227736I-000551J0000000D01*
G01*
G37*
G36*
G01*
X0063071Y0231516D02*
X0061733Y0231516D01*
G75*
G02*
X0061181Y0232067I0000000J0000551D01*
G01*
X0061181Y0233169D01*
G75*
G02*
X0061733Y0233720I0000551J0000000D01*
G01*
X0063071Y0233720D01*
G75*
G02*
X0063622Y0233169I0000000J-000551D01*
G01*
X0063622Y0232067D01*
G75*
G02*
X0063071Y0231516I-000551J0000000D01*
G01*
G37*
G36*
G01*
X0041555Y0233012D02*
X0042894Y0233012D01*
G75*
G02*
X0043445Y0232461I0000000J-000551D01*
G01*
X0043445Y0231358D01*
G75*
G02*
X0042894Y0230807I-000551J0000000D01*
G01*
X0041555Y0230807D01*
G75*
G02*
X0041004Y0231358I0000000J0000551D01*
G01*
X0041004Y0232461D01*
G75*
G02*
X0041555Y0233012I0000551J0000000D01*
G01*
G37*
G36*
G01*
X0041555Y0229232D02*
X0042894Y0229232D01*
G75*
G02*
X0043445Y0228681I0000000J-000551D01*
G01*
X0043445Y0227579D01*
G75*
G02*
X0042894Y0227027I-000551J0000000D01*
G01*
X0041555Y0227027D01*
G75*
G02*
X0041004Y0227579I0000000J0000551D01*
G01*
X0041004Y0228681D01*
G75*
G02*
X0041555Y0229232I0000551J0000000D01*
G01*
G37*
G36*
G01*
X0034055Y0263521D02*
X0034843Y0263521D01*
G75*
G02*
X0035237Y0263127I0000000J-000394D01*
G01*
X0035237Y0258107D01*
G75*
G02*
X0034843Y0257714I-000394J0000000D01*
G01*
X0034055Y0257714D01*
G75*
G02*
X0033662Y0258107I0000000J0000394D01*
G01*
X0033662Y0263127D01*
G75*
G02*
X0034055Y0263521I0000394J0000000D01*
G01*
G37*
G36*
G01*
X0036615Y0263521D02*
X0037402Y0263521D01*
G75*
G02*
X0037796Y0263127I0000000J-000394D01*
G01*
X0037796Y0258107D01*
G75*
G02*
X0037402Y0257714I-000394J0000000D01*
G01*
X0036615Y0257714D01*
G75*
G02*
X0036221Y0258107I0000000J0000394D01*
G01*
X0036221Y0263127D01*
G75*
G02*
X0036615Y0263521I0000394J0000000D01*
G01*
G37*
G36*
G01*
X0039174Y0263521D02*
X0039961Y0263521D01*
G75*
G02*
X0040355Y0263127I0000000J-000394D01*
G01*
X0040355Y0258107D01*
G75*
G02*
X0039961Y0257714I-000394J0000000D01*
G01*
X0039174Y0257714D01*
G75*
G02*
X0038780Y0258107I0000000J0000394D01*
G01*
X0038780Y0263127D01*
G75*
G02*
X0039174Y0263521I0000394J0000000D01*
G01*
G37*
G36*
G01*
X0041733Y0263521D02*
X0042520Y0263521D01*
G75*
G02*
X0042914Y0263127I0000000J-000394D01*
G01*
X0042914Y0258107D01*
G75*
G02*
X0042520Y0257714I-000394J0000000D01*
G01*
X0041733Y0257714D01*
G75*
G02*
X0041339Y0258107I0000000J0000394D01*
G01*
X0041339Y0263127D01*
G75*
G02*
X0041733Y0263521I0000394J0000000D01*
G01*
G37*
G36*
G01*
X0044292Y0263521D02*
X0045079Y0263521D01*
G75*
G02*
X0045473Y0263127I0000000J-000394D01*
G01*
X0045473Y0258107D01*
G75*
G02*
X0045079Y0257714I-000394J0000000D01*
G01*
X0044292Y0257714D01*
G75*
G02*
X0043898Y0258107I0000000J0000394D01*
G01*
X0043898Y0263127D01*
G75*
G02*
X0044292Y0263521I0000394J0000000D01*
G01*
G37*
G36*
G01*
X0046851Y0263521D02*
X0047638Y0263521D01*
G75*
G02*
X0048032Y0263127I0000000J-000394D01*
G01*
X0048032Y0258107D01*
G75*
G02*
X0047638Y0257714I-000394J0000000D01*
G01*
X0046851Y0257714D01*
G75*
G02*
X0046457Y0258107I0000000J0000394D01*
G01*
X0046457Y0263127D01*
G75*
G02*
X0046851Y0263521I0000394J0000000D01*
G01*
G37*
G36*
G01*
X0049410Y0263521D02*
X0050197Y0263521D01*
G75*
G02*
X0050591Y0263127I0000000J-000394D01*
G01*
X0050591Y0258107D01*
G75*
G02*
X0050197Y0257714I-000394J0000000D01*
G01*
X0049410Y0257714D01*
G75*
G02*
X0049016Y0258107I0000000J0000394D01*
G01*
X0049016Y0263127D01*
G75*
G02*
X0049410Y0263521I0000394J0000000D01*
G01*
G37*
G36*
G01*
X0049410Y0240981D02*
X0050197Y0240981D01*
G75*
G02*
X0050591Y0240588I0000000J-000394D01*
G01*
X0050591Y0235568D01*
G75*
G02*
X0050197Y0235174I-000394J0000000D01*
G01*
X0049410Y0235174D01*
G75*
G02*
X0049016Y0235568I0000000J0000394D01*
G01*
X0049016Y0240588D01*
G75*
G02*
X0049410Y0240981I0000394J0000000D01*
G01*
G37*
G36*
G01*
X0046851Y0240981D02*
X0047638Y0240981D01*
G75*
G02*
X0048032Y0240588I0000000J-000394D01*
G01*
X0048032Y0235568D01*
G75*
G02*
X0047638Y0235174I-000394J0000000D01*
G01*
X0046851Y0235174D01*
G75*
G02*
X0046457Y0235568I0000000J0000394D01*
G01*
X0046457Y0240588D01*
G75*
G02*
X0046851Y0240981I0000394J0000000D01*
G01*
G37*
G36*
G01*
X0044292Y0240981D02*
X0045079Y0240981D01*
G75*
G02*
X0045473Y0240588I0000000J-000394D01*
G01*
X0045473Y0235568D01*
G75*
G02*
X0045079Y0235174I-000394J0000000D01*
G01*
X0044292Y0235174D01*
G75*
G02*
X0043898Y0235568I0000000J0000394D01*
G01*
X0043898Y0240588D01*
G75*
G02*
X0044292Y0240981I0000394J0000000D01*
G01*
G37*
G36*
G01*
X0041733Y0240981D02*
X0042520Y0240981D01*
G75*
G02*
X0042914Y0240588I0000000J-000394D01*
G01*
X0042914Y0235568D01*
G75*
G02*
X0042520Y0235174I-000394J0000000D01*
G01*
X0041733Y0235174D01*
G75*
G02*
X0041339Y0235568I0000000J0000394D01*
G01*
X0041339Y0240588D01*
G75*
G02*
X0041733Y0240981I0000394J0000000D01*
G01*
G37*
G36*
G01*
X0039174Y0240981D02*
X0039961Y0240981D01*
G75*
G02*
X0040355Y0240588I0000000J-000394D01*
G01*
X0040355Y0235568D01*
G75*
G02*
X0039961Y0235174I-000394J0000000D01*
G01*
X0039174Y0235174D01*
G75*
G02*
X0038780Y0235568I0000000J0000394D01*
G01*
X0038780Y0240588D01*
G75*
G02*
X0039174Y0240981I0000394J0000000D01*
G01*
G37*
G36*
G01*
X0036615Y0240981D02*
X0037402Y0240981D01*
G75*
G02*
X0037796Y0240588I0000000J-000394D01*
G01*
X0037796Y0235568D01*
G75*
G02*
X0037402Y0235174I-000394J0000000D01*
G01*
X0036615Y0235174D01*
G75*
G02*
X0036221Y0235568I0000000J0000394D01*
G01*
X0036221Y0240588D01*
G75*
G02*
X0036615Y0240981I0000394J0000000D01*
G01*
G37*
G36*
G01*
X0034055Y0240981D02*
X0034843Y0240981D01*
G75*
G02*
X0035237Y0240588I0000000J-000394D01*
G01*
X0035237Y0235568D01*
G75*
G02*
X0034843Y0235174I-000394J0000000D01*
G01*
X0034055Y0235174D01*
G75*
G02*
X0033662Y0235568I0000000J0000394D01*
G01*
X0033662Y0240588D01*
G75*
G02*
X0034055Y0240981I0000394J0000000D01*
G01*
G37*
G36*
G01*
X0041926Y0281164D02*
X0045469Y0281164D01*
G75*
G02*
X0046453Y0280180I0000000J-000984D01*
G01*
X0046453Y0278113D01*
G75*
G02*
X0045469Y0277129I-000984J0000000D01*
G01*
X0041926Y0277129D01*
G75*
G02*
X0040941Y0278113I0000000J0000984D01*
G01*
X0040941Y0280180D01*
G75*
G02*
X0041926Y0281164I0000984J0000000D01*
G01*
G37*
G36*
G01*
X0041926Y0273979D02*
X0045469Y0273979D01*
G75*
G02*
X0046453Y0272995I0000000J-000984D01*
G01*
X0046453Y0270928D01*
G75*
G02*
X0045469Y0269944I-000984J0000000D01*
G01*
X0041926Y0269944D01*
G75*
G02*
X0040941Y0270928I0000000J0000984D01*
G01*
X0040941Y0272995D01*
G75*
G02*
X0041926Y0273979I0000984J0000000D01*
G01*
G37*
G36*
G01*
X0055650Y0234921D02*
X0054193Y0234921D01*
G75*
G02*
X0053662Y0235453I0000000J0000531D01*
G01*
X0053662Y0236516D01*
G75*
G02*
X0054193Y0237047I0000531J0000000D01*
G01*
X0055650Y0237047D01*
G75*
G02*
X0056181Y0236516I0000000J-000531D01*
G01*
X0056181Y0235453D01*
G75*
G02*
X0055650Y0234921I-000531J0000000D01*
G01*
G37*
G36*
G01*
X0055650Y0238937D02*
X0054193Y0238937D01*
G75*
G02*
X0053662Y0239468I0000000J0000531D01*
G01*
X0053662Y0240531D01*
G75*
G02*
X0054193Y0241063I0000531J0000000D01*
G01*
X0055650Y0241063D01*
G75*
G02*
X0056181Y0240531I0000000J-000531D01*
G01*
X0056181Y0239468D01*
G75*
G02*
X0055650Y0238937I-000531J0000000D01*
G01*
G37*
G36*
G01*
X0066575Y0275354D02*
X0065237Y0275354D01*
G75*
G02*
X0064685Y0275905I0000000J0000551D01*
G01*
X0064685Y0277008D01*
G75*
G02*
X0065237Y0277559I0000551J0000000D01*
G01*
X0066575Y0277559D01*
G75*
G02*
X0067126Y0277008I0000000J-000551D01*
G01*
X0067126Y0275905D01*
G75*
G02*
X0066575Y0275354I-000551J0000000D01*
G01*
G37*
G36*
G01*
X0066575Y0279134D02*
X0065237Y0279134D01*
G75*
G02*
X0064685Y0279685I0000000J0000551D01*
G01*
X0064685Y0280787D01*
G75*
G02*
X0065237Y0281338I0000551J0000000D01*
G01*
X0066575Y0281338D01*
G75*
G02*
X0067126Y0280787I0000000J-000551D01*
G01*
X0067126Y0279685D01*
G75*
G02*
X0066575Y0279134I-000551J0000000D01*
G01*
G37*
G36*
G01*
X0059390Y0227244D02*
X0057933Y0227244D01*
G75*
G02*
X0057402Y0227775I0000000J0000531D01*
G01*
X0057402Y0228838D01*
G75*
G02*
X0057933Y0229370I0000531J0000000D01*
G01*
X0059390Y0229370D01*
G75*
G02*
X0059922Y0228838I0000000J-000531D01*
G01*
X0059922Y0227775D01*
G75*
G02*
X0059390Y0227244I-000531J0000000D01*
G01*
G37*
G36*
G01*
X0059390Y0231260D02*
X0057933Y0231260D01*
G75*
G02*
X0057402Y0231791I0000000J0000531D01*
G01*
X0057402Y0232854D01*
G75*
G02*
X0057933Y0233386I0000531J0000000D01*
G01*
X0059390Y0233386D01*
G75*
G02*
X0059922Y0232854I0000000J-000531D01*
G01*
X0059922Y0231791D01*
G75*
G02*
X0059390Y0231260I-000531J0000000D01*
G01*
G37*
G36*
G01*
X0055650Y0243177D02*
X0054194Y0243177D01*
G75*
G02*
X0053662Y0243709I0000000J0000531D01*
G01*
X0053662Y0244772D01*
G75*
G02*
X0054194Y0245303I0000531J0000000D01*
G01*
X0055650Y0245303D01*
G75*
G02*
X0056182Y0244772I0000000J-000531D01*
G01*
X0056182Y0243709D01*
G75*
G02*
X0055650Y0243177I-000531J0000000D01*
G01*
G37*
G36*
G01*
X0055650Y0247193D02*
X0054194Y0247193D01*
G75*
G02*
X0053662Y0247725I0000000J0000531D01*
G01*
X0053662Y0248788D01*
G75*
G02*
X0054194Y0249319I0000531J0000000D01*
G01*
X0055650Y0249319D01*
G75*
G02*
X0056182Y0248788I0000000J-000531D01*
G01*
X0056182Y0247725D01*
G75*
G02*
X0055650Y0247193I-000531J0000000D01*
G01*
G37*
G36*
G01*
X0037894Y0269944D02*
X0034351Y0269944D01*
G75*
G02*
X0033366Y0270928I0000000J0000984D01*
G01*
X0033366Y0272995D01*
G75*
G02*
X0034351Y0273979I0000984J0000000D01*
G01*
X0037894Y0273979D01*
G75*
G02*
X0038878Y0272995I0000000J-000984D01*
G01*
X0038878Y0270928D01*
G75*
G02*
X0037894Y0269944I-000984J0000000D01*
G01*
G37*
G36*
G01*
X0037894Y0277129D02*
X0034351Y0277129D01*
G75*
G02*
X0033366Y0278113I0000000J0000984D01*
G01*
X0033366Y0280180D01*
G75*
G02*
X0034351Y0281164I0000984J0000000D01*
G01*
X0037894Y0281164D01*
G75*
G02*
X0038878Y0280180I0000000J-000984D01*
G01*
X0038878Y0278113D01*
G75*
G02*
X0037894Y0277129I-000984J0000000D01*
G01*
G37*
G36*
G01*
X0066792Y0243228D02*
X0065335Y0243228D01*
G75*
G02*
X0064803Y0243760I0000000J0000531D01*
G01*
X0064803Y0244823D01*
G75*
G02*
X0065335Y0245354I0000531J0000000D01*
G01*
X0066792Y0245354D01*
G75*
G02*
X0067323Y0244823I0000000J-000531D01*
G01*
X0067323Y0243760D01*
G75*
G02*
X0066792Y0243228I-000531J0000000D01*
G01*
G37*
G36*
G01*
X0066792Y0247244D02*
X0065335Y0247244D01*
G75*
G02*
X0064803Y0247775I0000000J0000531D01*
G01*
X0064803Y0248838D01*
G75*
G02*
X0065335Y0249370I0000531J0000000D01*
G01*
X0066792Y0249370D01*
G75*
G02*
X0067323Y0248838I0000000J-000531D01*
G01*
X0067323Y0247775D01*
G75*
G02*
X0066792Y0247244I-000531J0000000D01*
G01*
G37*
G36*
G01*
X0033288Y0233543D02*
X0034744Y0233543D01*
G75*
G02*
X0035276Y0233012I0000000J-000531D01*
G01*
X0035276Y0231949D01*
G75*
G02*
X0034744Y0231417I-000531J0000000D01*
G01*
X0033288Y0231417D01*
G75*
G02*
X0032756Y0231949I0000000J0000531D01*
G01*
X0032756Y0233012D01*
G75*
G02*
X0033288Y0233543I0000531J0000000D01*
G01*
G37*
G36*
G01*
X0033288Y0229527D02*
X0034744Y0229527D01*
G75*
G02*
X0035276Y0228996I0000000J-000531D01*
G01*
X0035276Y0227933D01*
G75*
G02*
X0034744Y0227401I-000531J0000000D01*
G01*
X0033288Y0227401D01*
G75*
G02*
X0032756Y0227933I0000000J0000531D01*
G01*
X0032756Y0228996D01*
G75*
G02*
X0033288Y0229527I0000531J0000000D01*
G01*
G37*
G36*
G01*
X0045237Y0233090D02*
X0046693Y0233090D01*
G75*
G02*
X0047225Y0232559I0000000J-000531D01*
G01*
X0047225Y0231496D01*
G75*
G02*
X0046693Y0230964I-000531J0000000D01*
G01*
X0045237Y0230964D01*
G75*
G02*
X0044705Y0231496I0000000J0000531D01*
G01*
X0044705Y0232559D01*
G75*
G02*
X0045237Y0233090I0000531J0000000D01*
G01*
G37*
G36*
G01*
X0045237Y0229075D02*
X0046693Y0229075D01*
G75*
G02*
X0047225Y0228543I0000000J-000531D01*
G01*
X0047225Y0227480D01*
G75*
G02*
X0046693Y0226949I-000531J0000000D01*
G01*
X0045237Y0226949D01*
G75*
G02*
X0044705Y0227480I0000000J0000531D01*
G01*
X0044705Y0228543D01*
G75*
G02*
X0045237Y0229075I0000531J0000000D01*
G01*
G37*
G36*
G01*
X0059390Y0234626D02*
X0057933Y0234626D01*
G75*
G02*
X0057402Y0235157I0000000J0000531D01*
G01*
X0057402Y0236220D01*
G75*
G02*
X0057933Y0236752I0000531J0000000D01*
G01*
X0059390Y0236752D01*
G75*
G02*
X0059922Y0236220I0000000J-000531D01*
G01*
X0059922Y0235157D01*
G75*
G02*
X0059390Y0234626I-000531J0000000D01*
G01*
G37*
G36*
G01*
X0059390Y0238642D02*
X0057933Y0238642D01*
G75*
G02*
X0057402Y0239173I0000000J0000531D01*
G01*
X0057402Y0240236D01*
G75*
G02*
X0057933Y0240768I0000531J0000000D01*
G01*
X0059390Y0240768D01*
G75*
G02*
X0059922Y0240236I0000000J-000531D01*
G01*
X0059922Y0239173D01*
G75*
G02*
X0059390Y0238642I-000531J0000000D01*
G01*
G37*
G36*
G01*
X0050473Y0226929D02*
X0049134Y0226929D01*
G75*
G02*
X0048583Y0227480I0000000J0000551D01*
G01*
X0048583Y0228583D01*
G75*
G02*
X0049134Y0229134I0000551J0000000D01*
G01*
X0050473Y0229134D01*
G75*
G02*
X0051024Y0228583I0000000J-000551D01*
G01*
X0051024Y0227480D01*
G75*
G02*
X0050473Y0226929I-000551J0000000D01*
G01*
G37*
G36*
G01*
X0050473Y0230709D02*
X0049134Y0230709D01*
G75*
G02*
X0048583Y0231260I0000000J0000551D01*
G01*
X0048583Y0232362D01*
G75*
G02*
X0049134Y0232913I0000551J0000000D01*
G01*
X0050473Y0232913D01*
G75*
G02*
X0051024Y0232362I0000000J-000551D01*
G01*
X0051024Y0231260D01*
G75*
G02*
X0050473Y0230709I-000551J0000000D01*
G01*
G37*
G36*
G01*
X0040258Y0266077D02*
X0040258Y0267415D01*
G75*
G02*
X0040809Y0267967I0000551J0000000D01*
G01*
X0041911Y0267967D01*
G75*
G02*
X0042463Y0267415I0000000J-000551D01*
G01*
X0042463Y0266077D01*
G75*
G02*
X0041911Y0265526I-000551J0000000D01*
G01*
X0040809Y0265526D01*
G75*
G02*
X0040258Y0266077I0000000J0000551D01*
G01*
G37*
G36*
G01*
X0044037Y0266077D02*
X0044037Y0267415D01*
G75*
G02*
X0044588Y0267967I0000551J0000000D01*
G01*
X0045691Y0267967D01*
G75*
G02*
X0046242Y0267415I0000000J-000551D01*
G01*
X0046242Y0266077D01*
G75*
G02*
X0045691Y0265526I-000551J0000000D01*
G01*
X0044588Y0265526D01*
G75*
G02*
X0044037Y0266077I0000000J0000551D01*
G01*
G37*
G36*
G01*
X0054193Y0233583D02*
X0055650Y0233583D01*
G75*
G02*
X0056181Y0233051I0000000J-000531D01*
G01*
X0056181Y0231988D01*
G75*
G02*
X0055650Y0231457I-000531J0000000D01*
G01*
X0054193Y0231457D01*
G75*
G02*
X0053662Y0231988I0000000J0000531D01*
G01*
X0053662Y0233051D01*
G75*
G02*
X0054193Y0233583I0000531J0000000D01*
G01*
G37*
G36*
G01*
X0054193Y0229567D02*
X0055650Y0229567D01*
G75*
G02*
X0056181Y0229035I0000000J-000531D01*
G01*
X0056181Y0227972D01*
G75*
G02*
X0055650Y0227441I-000531J0000000D01*
G01*
X0054193Y0227441D01*
G75*
G02*
X0053662Y0227972I0000000J0000531D01*
G01*
X0053662Y0229035D01*
G75*
G02*
X0054193Y0229567I0000531J0000000D01*
G01*
G37*
G36*
G01*
X0065552Y0250984D02*
X0064370Y0250984D01*
G75*
G02*
X0063780Y0251575I0000000J0000591D01*
G01*
X0063780Y0255610D01*
G75*
G02*
X0064370Y0256201I0000591J0000000D01*
G01*
X0065552Y0256201D01*
G75*
G02*
X0066142Y0255610I0000000J-000591D01*
G01*
X0066142Y0251575D01*
G75*
G02*
X0065552Y0250984I-000591J0000000D01*
G01*
G37*
G36*
G01*
X0061811Y0250984D02*
X0060630Y0250984D01*
G75*
G02*
X0060040Y0251575I0000000J0000591D01*
G01*
X0060040Y0255610D01*
G75*
G02*
X0060630Y0256201I0000591J0000000D01*
G01*
X0061811Y0256201D01*
G75*
G02*
X0062402Y0255610I0000000J-000591D01*
G01*
X0062402Y0251575D01*
G75*
G02*
X0061811Y0250984I-000591J0000000D01*
G01*
G37*
G36*
G01*
X0058071Y0250984D02*
X0056890Y0250984D01*
G75*
G02*
X0056300Y0251575I0000000J0000591D01*
G01*
X0056300Y0255610D01*
G75*
G02*
X0056890Y0256201I0000591J0000000D01*
G01*
X0058071Y0256201D01*
G75*
G02*
X0058662Y0255610I0000000J-000591D01*
G01*
X0058662Y0251575D01*
G75*
G02*
X0058071Y0250984I-000591J0000000D01*
G01*
G37*
G36*
G01*
X0058071Y0259941D02*
X0056890Y0259941D01*
G75*
G02*
X0056300Y0260531I0000000J0000591D01*
G01*
X0056300Y0264567D01*
G75*
G02*
X0056890Y0265157I0000591J0000000D01*
G01*
X0058071Y0265157D01*
G75*
G02*
X0058662Y0264567I0000000J-000591D01*
G01*
X0058662Y0260531D01*
G75*
G02*
X0058071Y0259941I-000591J0000000D01*
G01*
G37*
G36*
G01*
X0065552Y0259941D02*
X0064370Y0259941D01*
G75*
G02*
X0063780Y0260531I0000000J0000591D01*
G01*
X0063780Y0264567D01*
G75*
G02*
X0064370Y0265157I0000591J0000000D01*
G01*
X0065552Y0265157D01*
G75*
G02*
X0066142Y0264567I0000000J-000591D01*
G01*
X0066142Y0260531D01*
G75*
G02*
X0065552Y0259941I-000591J0000000D01*
G01*
G37*
G36*
G01*
X0061733Y0249291D02*
X0063071Y0249291D01*
G75*
G02*
X0063622Y0248740I0000000J-000551D01*
G01*
X0063622Y0247638D01*
G75*
G02*
X0063071Y0247086I-000551J0000000D01*
G01*
X0061733Y0247086D01*
G75*
G02*
X0061181Y0247638I0000000J0000551D01*
G01*
X0061181Y0248740D01*
G75*
G02*
X0061733Y0249291I0000551J0000000D01*
G01*
G37*
G36*
G01*
X0061733Y0245512D02*
X0063071Y0245512D01*
G75*
G02*
X0063622Y0244961I0000000J-000551D01*
G01*
X0063622Y0243858D01*
G75*
G02*
X0063071Y0243307I-000551J0000000D01*
G01*
X0061733Y0243307D01*
G75*
G02*
X0061181Y0243858I0000000J0000551D01*
G01*
X0061181Y0244961D01*
G75*
G02*
X0061733Y0245512I0000551J0000000D01*
G01*
G37*
X0378819Y0298622D02*
G01*
G75*
D264*
X0368583Y0326575D02*
D03*
X0368583Y0330512D02*
D03*
X0368583Y0315452D02*
D03*
X0368583Y0311515D02*
D03*
X0368583Y0307086D02*
D03*
X0368583Y0303149D02*
D03*
X0375866Y0326575D02*
D03*
X0375866Y0330512D02*
D03*
D481*
X0376063Y0323190D02*
D03*
X0372520Y0323190D02*
D03*
D288*
X0369350Y0319305D02*
D03*
X0375571Y0319305D02*
D03*
D482*
X0372520Y0306693D02*
D03*
X0372520Y0303150D02*
D03*
X0376063Y0315059D02*
D03*
X0376063Y0311516D02*
D03*
X0372462Y0329921D02*
D03*
X0372462Y0326378D02*
D03*
X0376063Y0303150D02*
D03*
X0376063Y0306693D02*
D03*
M02*
