G75*
G70*
%OFA0B0*%
%FSLAX25Y25*%
%IPPOS*%
%LPD*%
%AMOC8*
5,1,8,0,0,1.08239X$1,22.5*
%
%AMM134*
21,1,0.029130,0.018900,-0.000000,0.000000,270.000000*
21,1,0.018900,0.029130,-0.000000,0.000000,270.000000*
1,1,0.010240,-0.009450,-0.009450*
1,1,0.010240,-0.009450,0.009450*
1,1,0.010240,0.009450,0.009450*
1,1,0.010240,0.009450,-0.009450*
%
%AMM152*
21,1,0.038980,0.026770,-0.000000,0.000000,0.000000*
21,1,0.026770,0.038980,-0.000000,0.000000,0.000000*
1,1,0.012210,0.013390,-0.013390*
1,1,0.012210,-0.013390,-0.013390*
1,1,0.012210,-0.013390,0.013390*
1,1,0.012210,0.013390,0.013390*
%
%AMM218*
21,1,0.015350,0.009840,-0.000000,-0.000000,270.000000*
21,1,0.000000,0.025200,-0.000000,-0.000000,270.000000*
1,1,0.015350,-0.004920,-0.000000*
1,1,0.015350,-0.004920,-0.000000*
1,1,0.015350,0.004920,-0.000000*
1,1,0.015350,0.004920,-0.000000*
%
%AMM219*
21,1,0.015350,0.009840,-0.000000,-0.000000,180.000000*
21,1,0.000000,0.025200,-0.000000,-0.000000,180.000000*
1,1,0.015350,-0.000000,0.004920*
1,1,0.015350,-0.000000,0.004920*
1,1,0.015350,-0.000000,-0.004920*
1,1,0.015350,-0.000000,-0.004920*
%
%AMM309*
21,1,0.015350,0.009840,-0.000000,-0.000000,90.000000*
21,1,0.000000,0.025200,-0.000000,-0.000000,90.000000*
1,1,0.015350,0.004920,-0.000000*
1,1,0.015350,0.004920,-0.000000*
1,1,0.015350,-0.004920,-0.000000*
1,1,0.015350,-0.004920,-0.000000*
%
%AMM318*
21,1,0.025200,0.019680,-0.000000,0.000000,0.000000*
21,1,0.015750,0.029130,-0.000000,0.000000,0.000000*
1,1,0.009450,0.007870,-0.009840*
1,1,0.009450,-0.007870,-0.009840*
1,1,0.009450,-0.007870,0.009840*
1,1,0.009450,0.007870,0.009840*
%
%AMM319*
21,1,0.025200,0.019680,-0.000000,0.000000,90.000000*
21,1,0.015750,0.029130,-0.000000,0.000000,90.000000*
1,1,0.009450,0.009840,0.007870*
1,1,0.009450,0.009840,-0.007870*
1,1,0.009450,-0.009840,-0.007870*
1,1,0.009450,-0.009840,0.007870*
%
%ADD123C,0.02913*%
%ADD13C,0.02362*%
%ADD14C,0.06000*%
%ADD15C,0.23622*%
%ADD16C,0.07874*%
%ADD238C,0.04451*%
%ADD282M134*%
%ADD307M152*%
%ADD374M218*%
%ADD375M219*%
%ADD469M309*%
%ADD485M318*%
%ADD486M319*%
%ADD56C,0.03937*%
%ADD68C,0.00472*%
%ADD69O,0.11417X0.23228*%
%ADD70O,0.09449X0.11417*%
%ADD85R,0.05906X0.03150*%
%ADD86R,0.07874X0.05709*%
X0000000Y0000000D02*
%LPD*%
G01*
G36*
X0089961Y0000787D02*
G01*
X0038780Y0000787D01*
X0038780Y0028346D01*
X0089961Y0028346D01*
X0089961Y0000787D01*
G37*
D68*
X0089961Y0000787D02*
X0038780Y0000787D01*
X0038780Y0028346D01*
X0089961Y0028346D01*
X0089961Y0000787D01*
D13*
X0334232Y0045177D03*
X0341456Y0043504D03*
X0333385Y0041339D03*
X0334232Y0037894D03*
X0334527Y0034547D03*
X0341456Y0033268D03*
X0336299Y0028150D03*
X0341456Y0025591D03*
X0318129Y0053839D03*
X0334173Y0052657D03*
D14*
X0302165Y0367106D03*
X0302165Y0382106D03*
D15*
X0018909Y0033933D03*
D14*
X0177953Y0383878D03*
X0177953Y0368878D03*
X0294488Y0367106D03*
X0294488Y0382106D03*
X0095276Y0368878D03*
X0095276Y0383878D03*
X0251772Y0381890D03*
X0251772Y0362598D03*
X0372362Y0344429D03*
X0372362Y0359429D03*
G36*
G01*
X0241339Y0251758D02*
X0242323Y0251758D01*
G75*
G02*
X0242815Y0251266I0000000J-000492D01*
G01*
X0242815Y0251266D01*
G75*
G02*
X0242323Y0250774I-000492J0000000D01*
G01*
X0241339Y0250774D01*
G75*
G02*
X0240846Y0251266I0000000J0000492D01*
G01*
X0240846Y0251266D01*
G75*
G02*
X0241339Y0251758I0000492J0000000D01*
G01*
G37*
G36*
G01*
X0241339Y0254356D02*
X0242323Y0254356D01*
G75*
G02*
X0242815Y0253864I0000000J-000492D01*
G01*
X0242815Y0253864D01*
G75*
G02*
X0242323Y0253372I-000492J0000000D01*
G01*
X0241339Y0253372D01*
G75*
G02*
X0240846Y0253864I0000000J0000492D01*
G01*
X0240846Y0253864D01*
G75*
G02*
X0241339Y0254356I0000492J0000000D01*
G01*
G37*
G36*
G01*
X0241339Y0256955D02*
X0242323Y0256955D01*
G75*
G02*
X0242815Y0256463I0000000J-000492D01*
G01*
X0242815Y0256463D01*
G75*
G02*
X0242323Y0255970I-000492J0000000D01*
G01*
X0241339Y0255970D01*
G75*
G02*
X0240846Y0256463I0000000J0000492D01*
G01*
X0240846Y0256463D01*
G75*
G02*
X0241339Y0256955I0000492J0000000D01*
G01*
G37*
G36*
G01*
X0241339Y0259553D02*
X0242323Y0259553D01*
G75*
G02*
X0242815Y0259061I0000000J-000492D01*
G01*
X0242815Y0259061D01*
G75*
G02*
X0242323Y0258569I-000492J0000000D01*
G01*
X0241339Y0258569D01*
G75*
G02*
X0240846Y0259061I0000000J0000492D01*
G01*
X0240846Y0259061D01*
G75*
G02*
X0241339Y0259553I0000492J0000000D01*
G01*
G37*
G36*
G01*
X0241339Y0272545D02*
X0242323Y0272545D01*
G75*
G02*
X0242815Y0272053I0000000J-000492D01*
G01*
X0242815Y0272053D01*
G75*
G02*
X0242323Y0271561I-000492J0000000D01*
G01*
X0241339Y0271561D01*
G75*
G02*
X0240846Y0272053I0000000J0000492D01*
G01*
X0240846Y0272053D01*
G75*
G02*
X0241339Y0272545I0000492J0000000D01*
G01*
G37*
G36*
G01*
X0354606Y0219400D02*
X0354606Y0220385D01*
G75*
G02*
X0355098Y0220877I0000492J0000000D01*
G01*
X0355098Y0220877D01*
G75*
G02*
X0355591Y0220385I0000000J-000492D01*
G01*
X0355591Y0219400D01*
G75*
G02*
X0355098Y0218908I-000492J0000000D01*
G01*
X0355098Y0218908D01*
G75*
G02*
X0354606Y0219400I0000000J0000492D01*
G01*
G37*
G36*
G01*
X0351260Y0220385D02*
X0351260Y0219400D01*
G75*
G02*
X0350768Y0218908I-000492J0000000D01*
G01*
X0350768Y0218908D01*
G75*
G02*
X0350276Y0219400I0000000J0000492D01*
G01*
X0350276Y0220385D01*
G75*
G02*
X0350768Y0220877I0000492J0000000D01*
G01*
X0350768Y0220877D01*
G75*
G02*
X0351260Y0220385I0000000J-000492D01*
G01*
G37*
G36*
G01*
X0346929Y0220385D02*
X0346929Y0219400D01*
G75*
G02*
X0346437Y0218908I-000492J0000000D01*
G01*
X0346437Y0218908D01*
G75*
G02*
X0345945Y0219400I0000000J0000492D01*
G01*
X0345945Y0220385D01*
G75*
G02*
X0346437Y0220877I0000492J0000000D01*
G01*
X0346437Y0220877D01*
G75*
G02*
X0346929Y0220385I0000000J-000492D01*
G01*
G37*
G36*
G01*
X0342598Y0220385D02*
X0342598Y0219400D01*
G75*
G02*
X0342106Y0218908I-000492J0000000D01*
G01*
X0342106Y0218908D01*
G75*
G02*
X0341614Y0219400I0000000J0000492D01*
G01*
X0341614Y0220385D01*
G75*
G02*
X0342106Y0220877I0000492J0000000D01*
G01*
X0342106Y0220877D01*
G75*
G02*
X0342598Y0220385I0000000J-000492D01*
G01*
G37*
G36*
G01*
X0338268Y0220385D02*
X0338268Y0219400D01*
G75*
G02*
X0337776Y0218908I-000492J0000000D01*
G01*
X0337776Y0218908D01*
G75*
G02*
X0337283Y0219400I0000000J0000492D01*
G01*
X0337283Y0220385D01*
G75*
G02*
X0337776Y0220877I0000492J0000000D01*
G01*
X0337776Y0220877D01*
G75*
G02*
X0338268Y0220385I0000000J-000492D01*
G01*
G37*
G36*
G01*
X0333937Y0220385D02*
X0333937Y0219400D01*
G75*
G02*
X0333445Y0218908I-000492J0000000D01*
G01*
X0333445Y0218908D01*
G75*
G02*
X0332953Y0219400I0000000J0000492D01*
G01*
X0332953Y0220385D01*
G75*
G02*
X0333445Y0220877I0000492J0000000D01*
G01*
X0333445Y0220877D01*
G75*
G02*
X0333937Y0220385I0000000J-000492D01*
G01*
G37*
G36*
G01*
X0329606Y0220385D02*
X0329606Y0219400D01*
G75*
G02*
X0329114Y0218908I-000492J0000000D01*
G01*
X0329114Y0218908D01*
G75*
G02*
X0328622Y0219400I0000000J0000492D01*
G01*
X0328622Y0220385D01*
G75*
G02*
X0329114Y0220877I0000492J0000000D01*
G01*
X0329114Y0220877D01*
G75*
G02*
X0329606Y0220385I0000000J-000492D01*
G01*
G37*
G36*
G01*
X0325276Y0220385D02*
X0325276Y0219400D01*
G75*
G02*
X0324783Y0218908I-000492J0000000D01*
G01*
X0324783Y0218908D01*
G75*
G02*
X0324291Y0219400I0000000J0000492D01*
G01*
X0324291Y0220385D01*
G75*
G02*
X0324783Y0220877I0000492J0000000D01*
G01*
X0324783Y0220877D01*
G75*
G02*
X0325276Y0220385I0000000J-000492D01*
G01*
G37*
G36*
G01*
X0320945Y0220385D02*
X0320945Y0219400D01*
G75*
G02*
X0320453Y0218908I-000492J0000000D01*
G01*
X0320453Y0218908D01*
G75*
G02*
X0319961Y0219400I0000000J0000492D01*
G01*
X0319961Y0220385D01*
G75*
G02*
X0320453Y0220877I0000492J0000000D01*
G01*
X0320453Y0220877D01*
G75*
G02*
X0320945Y0220385I0000000J-000492D01*
G01*
G37*
G36*
G01*
X0316614Y0220385D02*
X0316614Y0219400D01*
G75*
G02*
X0316122Y0218908I-000492J0000000D01*
G01*
X0316122Y0218908D01*
G75*
G02*
X0315630Y0219400I0000000J0000492D01*
G01*
X0315630Y0220385D01*
G75*
G02*
X0316122Y0220877I0000492J0000000D01*
G01*
X0316122Y0220877D01*
G75*
G02*
X0316614Y0220385I0000000J-000492D01*
G01*
G37*
G36*
G01*
X0312284Y0220385D02*
X0312284Y0219400D01*
G75*
G02*
X0311791Y0218908I-000492J0000000D01*
G01*
X0311791Y0218908D01*
G75*
G02*
X0311299Y0219400I0000000J0000492D01*
G01*
X0311299Y0220385D01*
G75*
G02*
X0311791Y0220877I0000492J0000000D01*
G01*
X0311791Y0220877D01*
G75*
G02*
X0312284Y0220385I0000000J-000492D01*
G01*
G37*
G36*
G01*
X0307953Y0220385D02*
X0307953Y0219400D01*
G75*
G02*
X0307461Y0218908I-000492J0000000D01*
G01*
X0307461Y0218908D01*
G75*
G02*
X0306969Y0219400I0000000J0000492D01*
G01*
X0306969Y0220385D01*
G75*
G02*
X0307461Y0220877I0000492J0000000D01*
G01*
X0307461Y0220877D01*
G75*
G02*
X0307953Y0220385I0000000J-000492D01*
G01*
G37*
G36*
G01*
X0303622Y0220385D02*
X0303622Y0219400D01*
G75*
G02*
X0303130Y0218908I-000492J0000000D01*
G01*
X0303130Y0218908D01*
G75*
G02*
X0302638Y0219400I0000000J0000492D01*
G01*
X0302638Y0220385D01*
G75*
G02*
X0303130Y0220877I0000492J0000000D01*
G01*
X0303130Y0220877D01*
G75*
G02*
X0303622Y0220385I0000000J-000492D01*
G01*
G37*
G36*
G01*
X0299291Y0220385D02*
X0299291Y0219400D01*
G75*
G02*
X0298799Y0218908I-000492J0000000D01*
G01*
X0298799Y0218908D01*
G75*
G02*
X0298307Y0219400I0000000J0000492D01*
G01*
X0298307Y0220385D01*
G75*
G02*
X0298799Y0220877I0000492J0000000D01*
G01*
X0298799Y0220877D01*
G75*
G02*
X0299291Y0220385I0000000J-000492D01*
G01*
G37*
G36*
G01*
X0294961Y0220385D02*
X0294961Y0219400D01*
G75*
G02*
X0294469Y0218908I-000492J0000000D01*
G01*
X0294469Y0218908D01*
G75*
G02*
X0293976Y0219400I0000000J0000492D01*
G01*
X0293976Y0220385D01*
G75*
G02*
X0294469Y0220877I0000492J0000000D01*
G01*
X0294469Y0220877D01*
G75*
G02*
X0294961Y0220385I0000000J-000492D01*
G01*
G37*
G36*
G01*
X0290630Y0220385D02*
X0290630Y0219400D01*
G75*
G02*
X0290138Y0218908I-000492J0000000D01*
G01*
X0290138Y0218908D01*
G75*
G02*
X0289646Y0219400I0000000J0000492D01*
G01*
X0289646Y0220385D01*
G75*
G02*
X0290138Y0220877I0000492J0000000D01*
G01*
X0290138Y0220877D01*
G75*
G02*
X0290630Y0220385I0000000J-000492D01*
G01*
G37*
G36*
G01*
X0286299Y0220385D02*
X0286299Y0219400D01*
G75*
G02*
X0285807Y0218908I-000492J0000000D01*
G01*
X0285807Y0218908D01*
G75*
G02*
X0285315Y0219400I0000000J0000492D01*
G01*
X0285315Y0220385D01*
G75*
G02*
X0285807Y0220877I0000492J0000000D01*
G01*
X0285807Y0220877D01*
G75*
G02*
X0286299Y0220385I0000000J-000492D01*
G01*
G37*
G36*
G01*
X0281969Y0220385D02*
X0281969Y0219400D01*
G75*
G02*
X0281476Y0218908I-000492J0000000D01*
G01*
X0281476Y0218908D01*
G75*
G02*
X0280984Y0219400I0000000J0000492D01*
G01*
X0280984Y0220385D01*
G75*
G02*
X0281476Y0220877I0000492J0000000D01*
G01*
X0281476Y0220877D01*
G75*
G02*
X0281969Y0220385I0000000J-000492D01*
G01*
G37*
G36*
G01*
X0277638Y0220385D02*
X0277638Y0219400D01*
G75*
G02*
X0277146Y0218908I-000492J0000000D01*
G01*
X0277146Y0218908D01*
G75*
G02*
X0276654Y0219400I0000000J0000492D01*
G01*
X0276654Y0220385D01*
G75*
G02*
X0277146Y0220877I0000492J0000000D01*
G01*
X0277146Y0220877D01*
G75*
G02*
X0277638Y0220385I0000000J-000492D01*
G01*
G37*
G36*
G01*
X0273307Y0220385D02*
X0273307Y0219400D01*
G75*
G02*
X0272815Y0218908I-000492J0000000D01*
G01*
X0272815Y0218908D01*
G75*
G02*
X0272323Y0219400I0000000J0000492D01*
G01*
X0272323Y0220385D01*
G75*
G02*
X0272815Y0220877I0000492J0000000D01*
G01*
X0272815Y0220877D01*
G75*
G02*
X0273307Y0220385I0000000J-000492D01*
G01*
G37*
G36*
G01*
X0268977Y0220385D02*
X0268977Y0219400D01*
G75*
G02*
X0268484Y0218908I-000492J0000000D01*
G01*
X0268484Y0218908D01*
G75*
G02*
X0267992Y0219400I0000000J0000492D01*
G01*
X0267992Y0220385D01*
G75*
G02*
X0268484Y0220877I0000492J0000000D01*
G01*
X0268484Y0220877D01*
G75*
G02*
X0268977Y0220385I0000000J-000492D01*
G01*
G37*
G36*
G01*
X0264646Y0220385D02*
X0264646Y0219400D01*
G75*
G02*
X0264154Y0218908I-000492J0000000D01*
G01*
X0264154Y0218908D01*
G75*
G02*
X0263662Y0219400I0000000J0000492D01*
G01*
X0263662Y0220385D01*
G75*
G02*
X0264154Y0220877I0000492J0000000D01*
G01*
X0264154Y0220877D01*
G75*
G02*
X0264646Y0220385I0000000J-000492D01*
G01*
G37*
G36*
G01*
X0260315Y0220385D02*
X0260315Y0219400D01*
G75*
G02*
X0259823Y0218908I-000492J0000000D01*
G01*
X0259823Y0218908D01*
G75*
G02*
X0259331Y0219400I0000000J0000492D01*
G01*
X0259331Y0220385D01*
G75*
G02*
X0259823Y0220877I0000492J0000000D01*
G01*
X0259823Y0220877D01*
G75*
G02*
X0260315Y0220385I0000000J-000492D01*
G01*
G37*
G36*
G01*
X0255984Y0220385D02*
X0255984Y0219400D01*
G75*
G02*
X0255492Y0218908I-000492J0000000D01*
G01*
X0255492Y0218908D01*
G75*
G02*
X0255000Y0219400I0000000J0000492D01*
G01*
X0255000Y0220385D01*
G75*
G02*
X0255492Y0220877I0000492J0000000D01*
G01*
X0255492Y0220877D01*
G75*
G02*
X0255984Y0220385I0000000J-000492D01*
G01*
G37*
G36*
G01*
X0251654Y0220385D02*
X0251654Y0219400D01*
G75*
G02*
X0251162Y0218908I-000492J0000000D01*
G01*
X0251162Y0218908D01*
G75*
G02*
X0250669Y0219400I0000000J0000492D01*
G01*
X0250669Y0220385D01*
G75*
G02*
X0251162Y0220877I0000492J0000000D01*
G01*
X0251162Y0220877D01*
G75*
G02*
X0251654Y0220385I0000000J-000492D01*
G01*
G37*
G36*
G01*
X0247323Y0220385D02*
X0247323Y0219400D01*
G75*
G02*
X0246831Y0218908I-000492J0000000D01*
G01*
X0246831Y0218908D01*
G75*
G02*
X0246339Y0219400I0000000J0000492D01*
G01*
X0246339Y0220385D01*
G75*
G02*
X0246831Y0220877I0000492J0000000D01*
G01*
X0246831Y0220877D01*
G75*
G02*
X0247323Y0220385I0000000J-000492D01*
G01*
G37*
G36*
G01*
X0248311Y0275353D02*
X0248311Y0274369D01*
G75*
G02*
X0247819Y0273877I-000492J0000000D01*
G01*
X0247819Y0273877D01*
G75*
G02*
X0247327Y0274369I0000000J0000492D01*
G01*
X0247327Y0275353D01*
G75*
G02*
X0247819Y0275845I0000492J0000000D01*
G01*
X0247819Y0275845D01*
G75*
G02*
X0248311Y0275353I0000000J-000492D01*
G01*
G37*
G36*
G01*
X0250909Y0275353D02*
X0250909Y0274369D01*
G75*
G02*
X0250417Y0273877I-000492J0000000D01*
G01*
X0250417Y0273877D01*
G75*
G02*
X0249925Y0274369I0000000J0000492D01*
G01*
X0249925Y0275353D01*
G75*
G02*
X0250417Y0275845I0000492J0000000D01*
G01*
X0250417Y0275845D01*
G75*
G02*
X0250909Y0275353I0000000J-000492D01*
G01*
G37*
G36*
G01*
X0253508Y0275353D02*
X0253508Y0274369D01*
G75*
G02*
X0253016Y0273877I-000492J0000000D01*
G01*
X0253016Y0273877D01*
G75*
G02*
X0252524Y0274369I0000000J0000492D01*
G01*
X0252524Y0275353D01*
G75*
G02*
X0253016Y0275845I0000492J0000000D01*
G01*
X0253016Y0275845D01*
G75*
G02*
X0253508Y0275353I0000000J-000492D01*
G01*
G37*
G36*
G01*
X0256106Y0275353D02*
X0256106Y0274369D01*
G75*
G02*
X0255614Y0273877I-000492J0000000D01*
G01*
X0255614Y0273877D01*
G75*
G02*
X0255122Y0274369I0000000J0000492D01*
G01*
X0255122Y0275353D01*
G75*
G02*
X0255614Y0275845I0000492J0000000D01*
G01*
X0255614Y0275845D01*
G75*
G02*
X0256106Y0275353I0000000J-000492D01*
G01*
G37*
G36*
G01*
X0258705Y0275353D02*
X0258705Y0274369D01*
G75*
G02*
X0258213Y0273877I-000492J0000000D01*
G01*
X0258213Y0273877D01*
G75*
G02*
X0257720Y0274369I0000000J0000492D01*
G01*
X0257720Y0275353D01*
G75*
G02*
X0258213Y0275845I0000492J0000000D01*
G01*
X0258213Y0275845D01*
G75*
G02*
X0258705Y0275353I0000000J-000492D01*
G01*
G37*
G36*
G01*
X0261303Y0275353D02*
X0261303Y0274369D01*
G75*
G02*
X0260811Y0273877I-000492J0000000D01*
G01*
X0260811Y0273877D01*
G75*
G02*
X0260319Y0274369I0000000J0000492D01*
G01*
X0260319Y0275353D01*
G75*
G02*
X0260811Y0275845I0000492J0000000D01*
G01*
X0260811Y0275845D01*
G75*
G02*
X0261303Y0275353I0000000J-000492D01*
G01*
G37*
G36*
G01*
X0267606Y0275353D02*
X0267606Y0274369D01*
G75*
G02*
X0267114Y0273877I-000492J0000000D01*
G01*
X0267114Y0273877D01*
G75*
G02*
X0266622Y0274369I0000000J0000492D01*
G01*
X0266622Y0275353D01*
G75*
G02*
X0267114Y0275845I0000492J0000000D01*
G01*
X0267114Y0275845D01*
G75*
G02*
X0267606Y0275353I0000000J-000492D01*
G01*
G37*
G36*
G01*
X0270205Y0275353D02*
X0270205Y0274369D01*
G75*
G02*
X0269713Y0273877I-000492J0000000D01*
G01*
X0269713Y0273877D01*
G75*
G02*
X0269220Y0274369I0000000J0000492D01*
G01*
X0269220Y0275353D01*
G75*
G02*
X0269713Y0275845I0000492J0000000D01*
G01*
X0269713Y0275845D01*
G75*
G02*
X0270205Y0275353I0000000J-000492D01*
G01*
G37*
G36*
G01*
X0272803Y0275353D02*
X0272803Y0274369D01*
G75*
G02*
X0272311Y0273877I-000492J0000000D01*
G01*
X0272311Y0273877D01*
G75*
G02*
X0271819Y0274369I0000000J0000492D01*
G01*
X0271819Y0275353D01*
G75*
G02*
X0272311Y0275845I0000492J0000000D01*
G01*
X0272311Y0275845D01*
G75*
G02*
X0272803Y0275353I0000000J-000492D01*
G01*
G37*
G36*
G01*
X0277216Y0275353D02*
X0277216Y0274369D01*
G75*
G02*
X0276724Y0273877I-000492J0000000D01*
G01*
X0276724Y0273877D01*
G75*
G02*
X0276232Y0274369I0000000J0000492D01*
G01*
X0276232Y0275353D01*
G75*
G02*
X0276724Y0275845I0000492J0000000D01*
G01*
X0276724Y0275845D01*
G75*
G02*
X0277216Y0275353I0000000J-000492D01*
G01*
G37*
G36*
G01*
X0279815Y0275353D02*
X0279815Y0274369D01*
G75*
G02*
X0279322Y0273877I-000492J0000000D01*
G01*
X0279322Y0273877D01*
G75*
G02*
X0278830Y0274369I0000000J0000492D01*
G01*
X0278830Y0275353D01*
G75*
G02*
X0279322Y0275845I0000492J0000000D01*
G01*
X0279322Y0275845D01*
G75*
G02*
X0279815Y0275353I0000000J-000492D01*
G01*
G37*
G36*
G01*
X0282413Y0275353D02*
X0282413Y0274369D01*
G75*
G02*
X0281921Y0273877I-000492J0000000D01*
G01*
X0281921Y0273877D01*
G75*
G02*
X0281429Y0274369I0000000J0000492D01*
G01*
X0281429Y0275353D01*
G75*
G02*
X0281921Y0275845I0000492J0000000D01*
G01*
X0281921Y0275845D01*
G75*
G02*
X0282413Y0275353I0000000J-000492D01*
G01*
G37*
G36*
G01*
X0285011Y0275353D02*
X0285011Y0274369D01*
G75*
G02*
X0284519Y0273877I-000492J0000000D01*
G01*
X0284519Y0273877D01*
G75*
G02*
X0284027Y0274369I0000000J0000492D01*
G01*
X0284027Y0275353D01*
G75*
G02*
X0284519Y0275845I0000492J0000000D01*
G01*
X0284519Y0275845D01*
G75*
G02*
X0285011Y0275353I0000000J-000492D01*
G01*
G37*
G36*
G01*
X0298106Y0275353D02*
X0298106Y0274369D01*
G75*
G02*
X0297614Y0273877I-000492J0000000D01*
G01*
X0297614Y0273877D01*
G75*
G02*
X0297122Y0274369I0000000J0000492D01*
G01*
X0297122Y0275353D01*
G75*
G02*
X0297614Y0275845I0000492J0000000D01*
G01*
X0297614Y0275845D01*
G75*
G02*
X0298106Y0275353I0000000J-000492D01*
G01*
G37*
G36*
G01*
X0300705Y0275353D02*
X0300705Y0274369D01*
G75*
G02*
X0300213Y0273877I-000492J0000000D01*
G01*
X0300213Y0273877D01*
G75*
G02*
X0299720Y0274369I0000000J0000492D01*
G01*
X0299720Y0275353D01*
G75*
G02*
X0300213Y0275845I0000492J0000000D01*
G01*
X0300213Y0275845D01*
G75*
G02*
X0300705Y0275353I0000000J-000492D01*
G01*
G37*
G36*
G01*
X0303303Y0275353D02*
X0303303Y0274369D01*
G75*
G02*
X0302811Y0273877I-000492J0000000D01*
G01*
X0302811Y0273877D01*
G75*
G02*
X0302319Y0274369I0000000J0000492D01*
G01*
X0302319Y0275353D01*
G75*
G02*
X0302811Y0275845I0000492J0000000D01*
G01*
X0302811Y0275845D01*
G75*
G02*
X0303303Y0275353I0000000J-000492D01*
G01*
G37*
G36*
G01*
X0313720Y0275353D02*
X0313720Y0274369D01*
G75*
G02*
X0313228Y0273877I-000492J0000000D01*
G01*
X0313228Y0273877D01*
G75*
G02*
X0312736Y0274369I0000000J0000492D01*
G01*
X0312736Y0275353D01*
G75*
G02*
X0313228Y0275845I0000492J0000000D01*
G01*
X0313228Y0275845D01*
G75*
G02*
X0313720Y0275353I0000000J-000492D01*
G01*
G37*
G36*
G01*
X0316319Y0275353D02*
X0316319Y0274369D01*
G75*
G02*
X0315827Y0273877I-000492J0000000D01*
G01*
X0315827Y0273877D01*
G75*
G02*
X0315335Y0274369I0000000J0000492D01*
G01*
X0315335Y0275353D01*
G75*
G02*
X0315827Y0275845I0000492J0000000D01*
G01*
X0315827Y0275845D01*
G75*
G02*
X0316319Y0275353I0000000J-000492D01*
G01*
G37*
G36*
G01*
X0318917Y0275353D02*
X0318917Y0274369D01*
G75*
G02*
X0318425Y0273877I-000492J0000000D01*
G01*
X0318425Y0273877D01*
G75*
G02*
X0317933Y0274369I0000000J0000492D01*
G01*
X0317933Y0275353D01*
G75*
G02*
X0318425Y0275845I0000492J0000000D01*
G01*
X0318425Y0275845D01*
G75*
G02*
X0318917Y0275353I0000000J-000492D01*
G01*
G37*
G36*
G01*
X0321516Y0275353D02*
X0321516Y0274369D01*
G75*
G02*
X0321024Y0273877I-000492J0000000D01*
G01*
X0321024Y0273877D01*
G75*
G02*
X0320531Y0274369I0000000J0000492D01*
G01*
X0320531Y0275353D01*
G75*
G02*
X0321024Y0275845I0000492J0000000D01*
G01*
X0321024Y0275845D01*
G75*
G02*
X0321516Y0275353I0000000J-000492D01*
G01*
G37*
G36*
G01*
X0324114Y0275353D02*
X0324114Y0274369D01*
G75*
G02*
X0323622Y0273877I-000492J0000000D01*
G01*
X0323622Y0273877D01*
G75*
G02*
X0323130Y0274369I0000000J0000492D01*
G01*
X0323130Y0275353D01*
G75*
G02*
X0323622Y0275845I0000492J0000000D01*
G01*
X0323622Y0275845D01*
G75*
G02*
X0324114Y0275353I0000000J-000492D01*
G01*
G37*
G36*
G01*
X0326713Y0275353D02*
X0326713Y0274369D01*
G75*
G02*
X0326220Y0273877I-000492J0000000D01*
G01*
X0326220Y0273877D01*
G75*
G02*
X0325728Y0274369I0000000J0000492D01*
G01*
X0325728Y0275353D01*
G75*
G02*
X0326220Y0275845I0000492J0000000D01*
G01*
X0326220Y0275845D01*
G75*
G02*
X0326713Y0275353I0000000J-000492D01*
G01*
G37*
G36*
G01*
X0329311Y0275353D02*
X0329311Y0274369D01*
G75*
G02*
X0328819Y0273877I-000492J0000000D01*
G01*
X0328819Y0273877D01*
G75*
G02*
X0328327Y0274369I0000000J0000492D01*
G01*
X0328327Y0275353D01*
G75*
G02*
X0328819Y0275845I0000492J0000000D01*
G01*
X0328819Y0275845D01*
G75*
G02*
X0329311Y0275353I0000000J-000492D01*
G01*
G37*
G36*
G01*
X0331909Y0275353D02*
X0331909Y0274369D01*
G75*
G02*
X0331417Y0273877I-000492J0000000D01*
G01*
X0331417Y0273877D01*
G75*
G02*
X0330925Y0274369I0000000J0000492D01*
G01*
X0330925Y0275353D01*
G75*
G02*
X0331417Y0275845I0000492J0000000D01*
G01*
X0331417Y0275845D01*
G75*
G02*
X0331909Y0275353I0000000J-000492D01*
G01*
G37*
G36*
G01*
X0334508Y0275353D02*
X0334508Y0274369D01*
G75*
G02*
X0334016Y0273877I-000492J0000000D01*
G01*
X0334016Y0273877D01*
G75*
G02*
X0333524Y0274369I0000000J0000492D01*
G01*
X0333524Y0275353D01*
G75*
G02*
X0334016Y0275845I0000492J0000000D01*
G01*
X0334016Y0275845D01*
G75*
G02*
X0334508Y0275353I0000000J-000492D01*
G01*
G37*
G36*
G01*
X0337106Y0275353D02*
X0337106Y0274369D01*
G75*
G02*
X0336614Y0273877I-000492J0000000D01*
G01*
X0336614Y0273877D01*
G75*
G02*
X0336122Y0274369I0000000J0000492D01*
G01*
X0336122Y0275353D01*
G75*
G02*
X0336614Y0275845I0000492J0000000D01*
G01*
X0336614Y0275845D01*
G75*
G02*
X0337106Y0275353I0000000J-000492D01*
G01*
G37*
D69*
X0165354Y0421654D03*
X0008661Y0421654D03*
D70*
X0036811Y0398031D03*
X0052559Y0398031D03*
X0066339Y0398031D03*
X0080118Y0398031D03*
X0093898Y0398031D03*
X0107677Y0398031D03*
X0121457Y0398031D03*
X0137205Y0398031D03*
X0036811Y0413780D03*
X0052559Y0413780D03*
X0066339Y0413780D03*
X0080118Y0413780D03*
X0093898Y0413780D03*
X0107677Y0413780D03*
X0121457Y0413780D03*
X0137205Y0413780D03*
X0036811Y0429528D03*
X0052559Y0429528D03*
X0066339Y0429528D03*
X0080118Y0429528D03*
X0093898Y0429528D03*
X0107677Y0429528D03*
X0121457Y0429528D03*
X0137205Y0429528D03*
D14*
X0186417Y0409823D03*
X0186417Y0424823D03*
X0170079Y0368878D03*
X0170079Y0383878D03*
D56*
X0125984Y0025591D03*
X0108661Y0025591D03*
D14*
X0267913Y0366713D03*
X0267913Y0381713D03*
X0087402Y0368878D03*
X0087402Y0383878D03*
X0284843Y0366909D03*
X0284843Y0381909D03*
X0047047Y0368484D03*
X0047047Y0383484D03*
D13*
X0203740Y0023327D03*
X0207185Y0021260D03*
X0202559Y0018307D03*
X0202854Y0004331D03*
X0109992Y0102693D03*
X0115208Y0070311D03*
X0135809Y0070380D03*
X0137748Y0077791D03*
X0142177Y0048854D03*
D13*
X0125197Y0127559D03*
X0120472Y0127559D03*
X0129921Y0127559D03*
X0134646Y0127559D03*
X0109213Y0184350D03*
X0105276Y0184350D03*
D14*
X0260236Y0366713D03*
X0260236Y0381713D03*
X0112205Y0367697D03*
X0112205Y0382697D03*
X0129528Y0383464D03*
X0129528Y0364173D03*
X0055118Y0368681D03*
X0055118Y0383681D03*
X0212402Y0366713D03*
X0212402Y0381713D03*
X0103346Y0383681D03*
X0103346Y0368681D03*
X0319669Y0381870D03*
X0319669Y0362579D03*
X0063189Y0368681D03*
X0063189Y0383681D03*
X0275984Y0381890D03*
X0275984Y0362598D03*
X0120866Y0367894D03*
X0120866Y0382894D03*
D15*
X0362000Y0034933D03*
D14*
X0071063Y0368681D03*
X0071063Y0383681D03*
X0079528Y0368878D03*
X0079528Y0383878D03*
X0155906Y0383071D03*
X0155906Y0363779D03*
X0147441Y0368484D03*
X0147441Y0383484D03*
X0186614Y0368878D03*
X0186614Y0383878D03*
D13*
X0368583Y0334055D03*
X0372323Y0334055D03*
X0376063Y0334055D03*
X0372126Y0299803D03*
X0368583Y0299803D03*
G36*
G01*
X0184096Y0085841D02*
X0185081Y0085841D01*
G75*
G02*
X0185573Y0085349I0000000J-000492D01*
G01*
X0185573Y0085349D01*
G75*
G02*
X0185081Y0084857I-000492J0000000D01*
G01*
X0184096Y0084857D01*
G75*
G02*
X0183604Y0085349I0000000J0000492D01*
G01*
X0183604Y0085349D01*
G75*
G02*
X0184096Y0085841I0000492J0000000D01*
G01*
G37*
G36*
G01*
X0185081Y0087455D02*
X0184096Y0087455D01*
G75*
G02*
X0183604Y0087947I0000000J0000492D01*
G01*
X0183604Y0087947D01*
G75*
G02*
X0184096Y0088439I0000492J0000000D01*
G01*
X0185081Y0088439D01*
G75*
G02*
X0185573Y0087947I0000000J-000492D01*
G01*
X0185573Y0087947D01*
G75*
G02*
X0185081Y0087455I-000492J0000000D01*
G01*
G37*
G36*
G01*
X0185081Y0090054D02*
X0184096Y0090054D01*
G75*
G02*
X0183604Y0090546I0000000J0000492D01*
G01*
X0183604Y0090546D01*
G75*
G02*
X0184096Y0091038I0000492J0000000D01*
G01*
X0185081Y0091038D01*
G75*
G02*
X0185573Y0090546I0000000J-000492D01*
G01*
X0185573Y0090546D01*
G75*
G02*
X0185081Y0090054I-000492J0000000D01*
G01*
G37*
G36*
G01*
X0185081Y0092652D02*
X0184096Y0092652D01*
G75*
G02*
X0183604Y0093144I0000000J0000492D01*
G01*
X0183604Y0093144D01*
G75*
G02*
X0184096Y0093636I0000492J0000000D01*
G01*
X0185081Y0093636D01*
G75*
G02*
X0185573Y0093144I0000000J-000492D01*
G01*
X0185573Y0093144D01*
G75*
G02*
X0185081Y0092652I-000492J0000000D01*
G01*
G37*
G36*
G01*
X0185081Y0095250D02*
X0184096Y0095250D01*
G75*
G02*
X0183604Y0095743I0000000J0000492D01*
G01*
X0183604Y0095743D01*
G75*
G02*
X0184096Y0096235I0000492J0000000D01*
G01*
X0185081Y0096235D01*
G75*
G02*
X0185573Y0095743I0000000J-000492D01*
G01*
X0185573Y0095743D01*
G75*
G02*
X0185081Y0095250I-000492J0000000D01*
G01*
G37*
G36*
G01*
X0185081Y0108243D02*
X0184096Y0108243D01*
G75*
G02*
X0183604Y0108735I0000000J0000492D01*
G01*
X0183604Y0108735D01*
G75*
G02*
X0184096Y0109227I0000492J0000000D01*
G01*
X0185081Y0109227D01*
G75*
G02*
X0185573Y0108735I0000000J-000492D01*
G01*
X0185573Y0108735D01*
G75*
G02*
X0185081Y0108243I-000492J0000000D01*
G01*
G37*
G36*
G01*
X0185081Y0110841D02*
X0184096Y0110841D01*
G75*
G02*
X0183604Y0111333I0000000J0000492D01*
G01*
X0183604Y0111333D01*
G75*
G02*
X0184096Y0111825I0000492J0000000D01*
G01*
X0185081Y0111825D01*
G75*
G02*
X0185573Y0111333I0000000J-000492D01*
G01*
X0185573Y0111333D01*
G75*
G02*
X0185081Y0110841I-000492J0000000D01*
G01*
G37*
G36*
G01*
X0185081Y0113439D02*
X0184096Y0113439D01*
G75*
G02*
X0183604Y0113932I0000000J0000492D01*
G01*
X0183604Y0113932D01*
G75*
G02*
X0184096Y0114424I0000492J0000000D01*
G01*
X0185081Y0114424D01*
G75*
G02*
X0185573Y0113932I0000000J-000492D01*
G01*
X0185573Y0113932D01*
G75*
G02*
X0185081Y0113439I-000492J0000000D01*
G01*
G37*
G36*
G01*
X0185081Y0116038D02*
X0184096Y0116038D01*
G75*
G02*
X0183604Y0116530I0000000J0000492D01*
G01*
X0183604Y0116530D01*
G75*
G02*
X0184096Y0117022I0000492J0000000D01*
G01*
X0185081Y0117022D01*
G75*
G02*
X0185573Y0116530I0000000J-000492D01*
G01*
X0185573Y0116530D01*
G75*
G02*
X0185081Y0116038I-000492J0000000D01*
G01*
G37*
G36*
G01*
X0185081Y0118636D02*
X0184096Y0118636D01*
G75*
G02*
X0183604Y0119128I0000000J0000492D01*
G01*
X0183604Y0119128D01*
G75*
G02*
X0184096Y0119621I0000492J0000000D01*
G01*
X0185081Y0119621D01*
G75*
G02*
X0185573Y0119128I0000000J-000492D01*
G01*
X0185573Y0119128D01*
G75*
G02*
X0185081Y0118636I-000492J0000000D01*
G01*
G37*
G36*
G01*
X0185081Y0121235D02*
X0184096Y0121235D01*
G75*
G02*
X0183604Y0121727I0000000J0000492D01*
G01*
X0183604Y0121727D01*
G75*
G02*
X0184096Y0122219I0000492J0000000D01*
G01*
X0185081Y0122219D01*
G75*
G02*
X0185573Y0121727I0000000J-000492D01*
G01*
X0185573Y0121727D01*
G75*
G02*
X0185081Y0121235I-000492J0000000D01*
G01*
G37*
G36*
G01*
X0185081Y0123833D02*
X0184096Y0123833D01*
G75*
G02*
X0183604Y0124325I0000000J0000492D01*
G01*
X0183604Y0124325D01*
G75*
G02*
X0184096Y0124817I0000492J0000000D01*
G01*
X0185081Y0124817D01*
G75*
G02*
X0185573Y0124325I0000000J-000492D01*
G01*
X0185573Y0124325D01*
G75*
G02*
X0185081Y0123833I-000492J0000000D01*
G01*
G37*
G36*
G01*
X0185081Y0126432D02*
X0184096Y0126432D01*
G75*
G02*
X0183604Y0126924I0000000J0000492D01*
G01*
X0183604Y0126924D01*
G75*
G02*
X0184096Y0127416I0000492J0000000D01*
G01*
X0185081Y0127416D01*
G75*
G02*
X0185573Y0126924I0000000J-000492D01*
G01*
X0185573Y0126924D01*
G75*
G02*
X0185081Y0126432I-000492J0000000D01*
G01*
G37*
G36*
G01*
X0185081Y0129030D02*
X0184096Y0129030D01*
G75*
G02*
X0183604Y0129522I0000000J0000492D01*
G01*
X0183604Y0129522D01*
G75*
G02*
X0184096Y0130014I0000492J0000000D01*
G01*
X0185081Y0130014D01*
G75*
G02*
X0185573Y0129522I0000000J-000492D01*
G01*
X0185573Y0129522D01*
G75*
G02*
X0185081Y0129030I-000492J0000000D01*
G01*
G37*
G36*
G01*
X0185081Y0131628D02*
X0184096Y0131628D01*
G75*
G02*
X0183604Y0132121I0000000J0000492D01*
G01*
X0183604Y0132121D01*
G75*
G02*
X0184096Y0132613I0000492J0000000D01*
G01*
X0185081Y0132613D01*
G75*
G02*
X0185573Y0132121I0000000J-000492D01*
G01*
X0185573Y0132121D01*
G75*
G02*
X0185081Y0131628I-000492J0000000D01*
G01*
G37*
G36*
G01*
X0185081Y0134227D02*
X0184096Y0134227D01*
G75*
G02*
X0183604Y0134719I0000000J0000492D01*
G01*
X0183604Y0134719D01*
G75*
G02*
X0184096Y0135211I0000492J0000000D01*
G01*
X0185081Y0135211D01*
G75*
G02*
X0185573Y0134719I0000000J-000492D01*
G01*
X0185573Y0134719D01*
G75*
G02*
X0185081Y0134227I-000492J0000000D01*
G01*
G37*
G36*
G01*
X0185081Y0136825D02*
X0184096Y0136825D01*
G75*
G02*
X0183604Y0137317I0000000J0000492D01*
G01*
X0183604Y0137317D01*
G75*
G02*
X0184096Y0137810I0000492J0000000D01*
G01*
X0185081Y0137810D01*
G75*
G02*
X0185573Y0137317I0000000J-000492D01*
G01*
X0185573Y0137317D01*
G75*
G02*
X0185081Y0136825I-000492J0000000D01*
G01*
G37*
G36*
G01*
X0185081Y0139424D02*
X0184096Y0139424D01*
G75*
G02*
X0183604Y0139916I0000000J0000492D01*
G01*
X0183604Y0139916D01*
G75*
G02*
X0184096Y0140408I0000492J0000000D01*
G01*
X0185081Y0140408D01*
G75*
G02*
X0185573Y0139916I0000000J-000492D01*
G01*
X0185573Y0139916D01*
G75*
G02*
X0185081Y0139424I-000492J0000000D01*
G01*
G37*
G36*
G01*
X0185081Y0142022D02*
X0184096Y0142022D01*
G75*
G02*
X0183604Y0142514I0000000J0000492D01*
G01*
X0183604Y0142514D01*
G75*
G02*
X0184096Y0143006I0000492J0000000D01*
G01*
X0185081Y0143006D01*
G75*
G02*
X0185573Y0142514I0000000J-000492D01*
G01*
X0185573Y0142514D01*
G75*
G02*
X0185081Y0142022I-000492J0000000D01*
G01*
G37*
G36*
G01*
X0185081Y0144621D02*
X0184096Y0144621D01*
G75*
G02*
X0183604Y0145113I0000000J0000492D01*
G01*
X0183604Y0145113D01*
G75*
G02*
X0184096Y0145605I0000492J0000000D01*
G01*
X0185081Y0145605D01*
G75*
G02*
X0185573Y0145113I0000000J-000492D01*
G01*
X0185573Y0145113D01*
G75*
G02*
X0185081Y0144621I-000492J0000000D01*
G01*
G37*
G36*
G01*
X0185081Y0147219D02*
X0184096Y0147219D01*
G75*
G02*
X0183604Y0147711I0000000J0000492D01*
G01*
X0183604Y0147711D01*
G75*
G02*
X0184096Y0148203I0000492J0000000D01*
G01*
X0185081Y0148203D01*
G75*
G02*
X0185573Y0147711I0000000J-000492D01*
G01*
X0185573Y0147711D01*
G75*
G02*
X0185081Y0147219I-000492J0000000D01*
G01*
G37*
G36*
G01*
X0185081Y0149817D02*
X0184096Y0149817D01*
G75*
G02*
X0183604Y0150310I0000000J0000492D01*
G01*
X0183604Y0150310D01*
G75*
G02*
X0184096Y0150802I0000492J0000000D01*
G01*
X0185081Y0150802D01*
G75*
G02*
X0185573Y0150310I0000000J-000492D01*
G01*
X0185573Y0150310D01*
G75*
G02*
X0185081Y0149817I-000492J0000000D01*
G01*
G37*
G36*
G01*
X0185081Y0152416D02*
X0184096Y0152416D01*
G75*
G02*
X0183604Y0152908I0000000J0000492D01*
G01*
X0183604Y0152908D01*
G75*
G02*
X0184096Y0153400I0000492J0000000D01*
G01*
X0185081Y0153400D01*
G75*
G02*
X0185573Y0152908I0000000J-000492D01*
G01*
X0185573Y0152908D01*
G75*
G02*
X0185081Y0152416I-000492J0000000D01*
G01*
G37*
G36*
G01*
X0185081Y0155014D02*
X0184096Y0155014D01*
G75*
G02*
X0183604Y0155506I0000000J0000492D01*
G01*
X0183604Y0155506D01*
G75*
G02*
X0184096Y0155999I0000492J0000000D01*
G01*
X0185081Y0155999D01*
G75*
G02*
X0185573Y0155506I0000000J-000492D01*
G01*
X0185573Y0155506D01*
G75*
G02*
X0185081Y0155014I-000492J0000000D01*
G01*
G37*
G36*
G01*
X0185081Y0157613D02*
X0184096Y0157613D01*
G75*
G02*
X0183604Y0158105I0000000J0000492D01*
G01*
X0183604Y0158105D01*
G75*
G02*
X0184096Y0158597I0000492J0000000D01*
G01*
X0185081Y0158597D01*
G75*
G02*
X0185573Y0158105I0000000J-000492D01*
G01*
X0185573Y0158105D01*
G75*
G02*
X0185081Y0157613I-000492J0000000D01*
G01*
G37*
G36*
G01*
X0185081Y0160211D02*
X0184096Y0160211D01*
G75*
G02*
X0183604Y0160703I0000000J0000492D01*
G01*
X0183604Y0160703D01*
G75*
G02*
X0184096Y0161195I0000492J0000000D01*
G01*
X0185081Y0161195D01*
G75*
G02*
X0185573Y0160703I0000000J-000492D01*
G01*
X0185573Y0160703D01*
G75*
G02*
X0185081Y0160211I-000492J0000000D01*
G01*
G37*
G36*
G01*
X0185081Y0162810D02*
X0184096Y0162810D01*
G75*
G02*
X0183604Y0163302I0000000J0000492D01*
G01*
X0183604Y0163302D01*
G75*
G02*
X0184096Y0163794I0000492J0000000D01*
G01*
X0185081Y0163794D01*
G75*
G02*
X0185573Y0163302I0000000J-000492D01*
G01*
X0185573Y0163302D01*
G75*
G02*
X0185081Y0162810I-000492J0000000D01*
G01*
G37*
G36*
G01*
X0185081Y0165408D02*
X0184096Y0165408D01*
G75*
G02*
X0183604Y0165900I0000000J0000492D01*
G01*
X0183604Y0165900D01*
G75*
G02*
X0184096Y0166392I0000492J0000000D01*
G01*
X0185081Y0166392D01*
G75*
G02*
X0185573Y0165900I0000000J-000492D01*
G01*
X0185573Y0165900D01*
G75*
G02*
X0185081Y0165408I-000492J0000000D01*
G01*
G37*
G36*
G01*
X0185081Y0168006D02*
X0184096Y0168006D01*
G75*
G02*
X0183604Y0168499I0000000J0000492D01*
G01*
X0183604Y0168499D01*
G75*
G02*
X0184096Y0168991I0000492J0000000D01*
G01*
X0185081Y0168991D01*
G75*
G02*
X0185573Y0168499I0000000J-000492D01*
G01*
X0185573Y0168499D01*
G75*
G02*
X0185081Y0168006I-000492J0000000D01*
G01*
G37*
G36*
G01*
X0185081Y0170605D02*
X0184096Y0170605D01*
G75*
G02*
X0183604Y0171097I0000000J0000492D01*
G01*
X0183604Y0171097D01*
G75*
G02*
X0184096Y0171589I0000492J0000000D01*
G01*
X0185081Y0171589D01*
G75*
G02*
X0185573Y0171097I0000000J-000492D01*
G01*
X0185573Y0171097D01*
G75*
G02*
X0185081Y0170605I-000492J0000000D01*
G01*
G37*
G36*
G01*
X0185081Y0173203D02*
X0184096Y0173203D01*
G75*
G02*
X0183604Y0173695I0000000J0000492D01*
G01*
X0183604Y0173695D01*
G75*
G02*
X0184096Y0174188I0000492J0000000D01*
G01*
X0185081Y0174188D01*
G75*
G02*
X0185573Y0173695I0000000J-000492D01*
G01*
X0185573Y0173695D01*
G75*
G02*
X0185081Y0173203I-000492J0000000D01*
G01*
G37*
G36*
G01*
X0185081Y0175802D02*
X0184096Y0175802D01*
G75*
G02*
X0183604Y0176294I0000000J0000492D01*
G01*
X0183604Y0176294D01*
G75*
G02*
X0184096Y0176786I0000492J0000000D01*
G01*
X0185081Y0176786D01*
G75*
G02*
X0185573Y0176294I0000000J-000492D01*
G01*
X0185573Y0176294D01*
G75*
G02*
X0185081Y0175802I-000492J0000000D01*
G01*
G37*
G36*
G01*
X0185081Y0178400D02*
X0184096Y0178400D01*
G75*
G02*
X0183604Y0178892I0000000J0000492D01*
G01*
X0183604Y0178892D01*
G75*
G02*
X0184096Y0179384I0000492J0000000D01*
G01*
X0185081Y0179384D01*
G75*
G02*
X0185573Y0178892I0000000J-000492D01*
G01*
X0185573Y0178892D01*
G75*
G02*
X0185081Y0178400I-000492J0000000D01*
G01*
G37*
G36*
G01*
X0185081Y0180999D02*
X0184096Y0180999D01*
G75*
G02*
X0183604Y0181491I0000000J0000492D01*
G01*
X0183604Y0181491D01*
G75*
G02*
X0184096Y0181983I0000492J0000000D01*
G01*
X0185081Y0181983D01*
G75*
G02*
X0185573Y0181491I0000000J-000492D01*
G01*
X0185573Y0181491D01*
G75*
G02*
X0185081Y0180999I-000492J0000000D01*
G01*
G37*
G36*
G01*
X0317746Y0068609D02*
X0317746Y0069593D01*
G75*
G02*
X0318238Y0070085I0000492J0000000D01*
G01*
X0318238Y0070085D01*
G75*
G02*
X0318730Y0069593I0000000J-000492D01*
G01*
X0318730Y0068609D01*
G75*
G02*
X0318238Y0068117I-000492J0000000D01*
G01*
X0318238Y0068117D01*
G75*
G02*
X0317746Y0068609I0000000J0000492D01*
G01*
G37*
G36*
G01*
X0313533Y0069593D02*
X0313533Y0068609D01*
G75*
G02*
X0313041Y0068117I-000492J0000000D01*
G01*
X0313041Y0068117D01*
G75*
G02*
X0312549Y0068609I0000000J0000492D01*
G01*
X0312549Y0069593D01*
G75*
G02*
X0313041Y0070085I0000492J0000000D01*
G01*
X0313041Y0070085D01*
G75*
G02*
X0313533Y0069593I0000000J-000492D01*
G01*
G37*
G36*
G01*
X0308337Y0069593D02*
X0308337Y0068609D01*
G75*
G02*
X0307844Y0068117I-000492J0000000D01*
G01*
X0307844Y0068117D01*
G75*
G02*
X0307352Y0068609I0000000J0000492D01*
G01*
X0307352Y0069593D01*
G75*
G02*
X0307844Y0070085I0000492J0000000D01*
G01*
X0307844Y0070085D01*
G75*
G02*
X0308337Y0069593I0000000J-000492D01*
G01*
G37*
G36*
G01*
X0305344Y0069593D02*
X0305344Y0068609D01*
G75*
G02*
X0304852Y0068117I-000492J0000000D01*
G01*
X0304852Y0068117D01*
G75*
G02*
X0304360Y0068609I0000000J0000492D01*
G01*
X0304360Y0069593D01*
G75*
G02*
X0304852Y0070085I0000492J0000000D01*
G01*
X0304852Y0070085D01*
G75*
G02*
X0305344Y0069593I0000000J-000492D01*
G01*
G37*
G36*
G01*
X0302726Y0069593D02*
X0302726Y0068609D01*
G75*
G02*
X0302234Y0068117I-000492J0000000D01*
G01*
X0302234Y0068117D01*
G75*
G02*
X0301742Y0068609I0000000J0000492D01*
G01*
X0301742Y0069593D01*
G75*
G02*
X0302234Y0070085I0000492J0000000D01*
G01*
X0302234Y0070085D01*
G75*
G02*
X0302726Y0069593I0000000J-000492D01*
G01*
G37*
G36*
G01*
X0300108Y0069593D02*
X0300108Y0068609D01*
G75*
G02*
X0299616Y0068117I-000492J0000000D01*
G01*
X0299616Y0068117D01*
G75*
G02*
X0299124Y0068609I0000000J0000492D01*
G01*
X0299124Y0069593D01*
G75*
G02*
X0299616Y0070085I0000492J0000000D01*
G01*
X0299616Y0070085D01*
G75*
G02*
X0300108Y0069593I0000000J-000492D01*
G01*
G37*
G36*
G01*
X0297490Y0069593D02*
X0297490Y0068609D01*
G75*
G02*
X0296998Y0068117I-000492J0000000D01*
G01*
X0296998Y0068117D01*
G75*
G02*
X0296506Y0068609I0000000J0000492D01*
G01*
X0296506Y0069593D01*
G75*
G02*
X0296998Y0070085I0000492J0000000D01*
G01*
X0296998Y0070085D01*
G75*
G02*
X0297490Y0069593I0000000J-000492D01*
G01*
G37*
G36*
G01*
X0294439Y0069593D02*
X0294439Y0068609D01*
G75*
G02*
X0293947Y0068117I-000492J0000000D01*
G01*
X0293947Y0068117D01*
G75*
G02*
X0293455Y0068609I0000000J0000492D01*
G01*
X0293455Y0069593D01*
G75*
G02*
X0293947Y0070085I0000492J0000000D01*
G01*
X0293947Y0070085D01*
G75*
G02*
X0294439Y0069593I0000000J-000492D01*
G01*
G37*
G36*
G01*
X0290108Y0069593D02*
X0290108Y0068609D01*
G75*
G02*
X0289616Y0068117I-000492J0000000D01*
G01*
X0289616Y0068117D01*
G75*
G02*
X0289124Y0068609I0000000J0000492D01*
G01*
X0289124Y0069593D01*
G75*
G02*
X0289616Y0070085I0000492J0000000D01*
G01*
X0289616Y0070085D01*
G75*
G02*
X0290108Y0069593I0000000J-000492D01*
G01*
G37*
G36*
G01*
X0285778Y0069593D02*
X0285778Y0068609D01*
G75*
G02*
X0285285Y0068117I-000492J0000000D01*
G01*
X0285285Y0068117D01*
G75*
G02*
X0284793Y0068609I0000000J0000492D01*
G01*
X0284793Y0069593D01*
G75*
G02*
X0285285Y0070085I0000492J0000000D01*
G01*
X0285285Y0070085D01*
G75*
G02*
X0285778Y0069593I0000000J-000492D01*
G01*
G37*
G36*
G01*
X0281447Y0069593D02*
X0281447Y0068609D01*
G75*
G02*
X0280955Y0068117I-000492J0000000D01*
G01*
X0280955Y0068117D01*
G75*
G02*
X0280463Y0068609I0000000J0000492D01*
G01*
X0280463Y0069593D01*
G75*
G02*
X0280955Y0070085I0000492J0000000D01*
G01*
X0280955Y0070085D01*
G75*
G02*
X0281447Y0069593I0000000J-000492D01*
G01*
G37*
G36*
G01*
X0277116Y0069593D02*
X0277116Y0068609D01*
G75*
G02*
X0276624Y0068117I-000492J0000000D01*
G01*
X0276624Y0068117D01*
G75*
G02*
X0276132Y0068609I0000000J0000492D01*
G01*
X0276132Y0069593D01*
G75*
G02*
X0276624Y0070085I0000492J0000000D01*
G01*
X0276624Y0070085D01*
G75*
G02*
X0277116Y0069593I0000000J-000492D01*
G01*
G37*
G36*
G01*
X0272785Y0069593D02*
X0272785Y0068609D01*
G75*
G02*
X0272293Y0068117I-000492J0000000D01*
G01*
X0272293Y0068117D01*
G75*
G02*
X0271801Y0068609I0000000J0000492D01*
G01*
X0271801Y0069593D01*
G75*
G02*
X0272293Y0070085I0000492J0000000D01*
G01*
X0272293Y0070085D01*
G75*
G02*
X0272785Y0069593I0000000J-000492D01*
G01*
G37*
G36*
G01*
X0268455Y0069593D02*
X0268455Y0068609D01*
G75*
G02*
X0267963Y0068117I-000492J0000000D01*
G01*
X0267963Y0068117D01*
G75*
G02*
X0267471Y0068609I0000000J0000492D01*
G01*
X0267471Y0069593D01*
G75*
G02*
X0267963Y0070085I0000492J0000000D01*
G01*
X0267963Y0070085D01*
G75*
G02*
X0268455Y0069593I0000000J-000492D01*
G01*
G37*
G36*
G01*
X0264124Y0069593D02*
X0264124Y0068609D01*
G75*
G02*
X0263632Y0068117I-000492J0000000D01*
G01*
X0263632Y0068117D01*
G75*
G02*
X0263140Y0068609I0000000J0000492D01*
G01*
X0263140Y0069593D01*
G75*
G02*
X0263632Y0070085I0000492J0000000D01*
G01*
X0263632Y0070085D01*
G75*
G02*
X0264124Y0069593I0000000J-000492D01*
G01*
G37*
G36*
G01*
X0259793Y0069593D02*
X0259793Y0068609D01*
G75*
G02*
X0259301Y0068117I-000492J0000000D01*
G01*
X0259301Y0068117D01*
G75*
G02*
X0258809Y0068609I0000000J0000492D01*
G01*
X0258809Y0069593D01*
G75*
G02*
X0259301Y0070085I0000492J0000000D01*
G01*
X0259301Y0070085D01*
G75*
G02*
X0259793Y0069593I0000000J-000492D01*
G01*
G37*
G36*
G01*
X0255463Y0069593D02*
X0255463Y0068609D01*
G75*
G02*
X0254971Y0068117I-000492J0000000D01*
G01*
X0254971Y0068117D01*
G75*
G02*
X0254478Y0068609I0000000J0000492D01*
G01*
X0254478Y0069593D01*
G75*
G02*
X0254971Y0070085I0000492J0000000D01*
G01*
X0254971Y0070085D01*
G75*
G02*
X0255463Y0069593I0000000J-000492D01*
G01*
G37*
G36*
G01*
X0251132Y0069593D02*
X0251132Y0068609D01*
G75*
G02*
X0250640Y0068117I-000492J0000000D01*
G01*
X0250640Y0068117D01*
G75*
G02*
X0250148Y0068609I0000000J0000492D01*
G01*
X0250148Y0069593D01*
G75*
G02*
X0250640Y0070085I0000492J0000000D01*
G01*
X0250640Y0070085D01*
G75*
G02*
X0251132Y0069593I0000000J-000492D01*
G01*
G37*
G36*
G01*
X0246801Y0069593D02*
X0246801Y0068609D01*
G75*
G02*
X0246309Y0068117I-000492J0000000D01*
G01*
X0246309Y0068117D01*
G75*
G02*
X0245817Y0068609I0000000J0000492D01*
G01*
X0245817Y0069593D01*
G75*
G02*
X0246309Y0070085I0000492J0000000D01*
G01*
X0246309Y0070085D01*
G75*
G02*
X0246801Y0069593I0000000J-000492D01*
G01*
G37*
G36*
G01*
X0242471Y0069593D02*
X0242471Y0068609D01*
G75*
G02*
X0241978Y0068117I-000492J0000000D01*
G01*
X0241978Y0068117D01*
G75*
G02*
X0241486Y0068609I0000000J0000492D01*
G01*
X0241486Y0069593D01*
G75*
G02*
X0241978Y0070085I0000492J0000000D01*
G01*
X0241978Y0070085D01*
G75*
G02*
X0242471Y0069593I0000000J-000492D01*
G01*
G37*
G36*
G01*
X0238140Y0069593D02*
X0238140Y0068609D01*
G75*
G02*
X0237648Y0068117I-000492J0000000D01*
G01*
X0237648Y0068117D01*
G75*
G02*
X0237156Y0068609I0000000J0000492D01*
G01*
X0237156Y0069593D01*
G75*
G02*
X0237648Y0070085I0000492J0000000D01*
G01*
X0237648Y0070085D01*
G75*
G02*
X0238140Y0069593I0000000J-000492D01*
G01*
G37*
G36*
G01*
X0233809Y0069593D02*
X0233809Y0068609D01*
G75*
G02*
X0233317Y0068117I-000492J0000000D01*
G01*
X0233317Y0068117D01*
G75*
G02*
X0232825Y0068609I0000000J0000492D01*
G01*
X0232825Y0069593D01*
G75*
G02*
X0233317Y0070085I0000492J0000000D01*
G01*
X0233317Y0070085D01*
G75*
G02*
X0233809Y0069593I0000000J-000492D01*
G01*
G37*
G36*
G01*
X0229478Y0069593D02*
X0229478Y0068609D01*
G75*
G02*
X0228986Y0068117I-000492J0000000D01*
G01*
X0228986Y0068117D01*
G75*
G02*
X0228494Y0068609I0000000J0000492D01*
G01*
X0228494Y0069593D01*
G75*
G02*
X0228986Y0070085I0000492J0000000D01*
G01*
X0228986Y0070085D01*
G75*
G02*
X0229478Y0069593I0000000J-000492D01*
G01*
G37*
G36*
G01*
X0225148Y0069593D02*
X0225148Y0068609D01*
G75*
G02*
X0224656Y0068117I-000492J0000000D01*
G01*
X0224656Y0068117D01*
G75*
G02*
X0224164Y0068609I0000000J0000492D01*
G01*
X0224164Y0069593D01*
G75*
G02*
X0224656Y0070085I0000492J0000000D01*
G01*
X0224656Y0070085D01*
G75*
G02*
X0225148Y0069593I0000000J-000492D01*
G01*
G37*
G36*
G01*
X0220817Y0069593D02*
X0220817Y0068609D01*
G75*
G02*
X0220325Y0068117I-000492J0000000D01*
G01*
X0220325Y0068117D01*
G75*
G02*
X0219833Y0068609I0000000J0000492D01*
G01*
X0219833Y0069593D01*
G75*
G02*
X0220325Y0070085I0000492J0000000D01*
G01*
X0220325Y0070085D01*
G75*
G02*
X0220817Y0069593I0000000J-000492D01*
G01*
G37*
G36*
G01*
X0216486Y0069593D02*
X0216486Y0068609D01*
G75*
G02*
X0215994Y0068117I-000492J0000000D01*
G01*
X0215994Y0068117D01*
G75*
G02*
X0215502Y0068609I0000000J0000492D01*
G01*
X0215502Y0069593D01*
G75*
G02*
X0215994Y0070085I0000492J0000000D01*
G01*
X0215994Y0070085D01*
G75*
G02*
X0216486Y0069593I0000000J-000492D01*
G01*
G37*
G36*
G01*
X0212156Y0069593D02*
X0212156Y0068609D01*
G75*
G02*
X0211664Y0068117I-000492J0000000D01*
G01*
X0211664Y0068117D01*
G75*
G02*
X0211171Y0068609I0000000J0000492D01*
G01*
X0211171Y0069593D01*
G75*
G02*
X0211664Y0070085I0000492J0000000D01*
G01*
X0211664Y0070085D01*
G75*
G02*
X0212156Y0069593I0000000J-000492D01*
G01*
G37*
G36*
G01*
X0207825Y0069593D02*
X0207825Y0068609D01*
G75*
G02*
X0207333Y0068117I-000492J0000000D01*
G01*
X0207333Y0068117D01*
G75*
G02*
X0206841Y0068609I0000000J0000492D01*
G01*
X0206841Y0069593D01*
G75*
G02*
X0207333Y0070085I0000492J0000000D01*
G01*
X0207333Y0070085D01*
G75*
G02*
X0207825Y0069593I0000000J-000492D01*
G01*
G37*
G36*
G01*
X0203494Y0069593D02*
X0203494Y0068609D01*
G75*
G02*
X0203002Y0068117I-000492J0000000D01*
G01*
X0203002Y0068117D01*
G75*
G02*
X0202510Y0068609I0000000J0000492D01*
G01*
X0202510Y0069593D01*
G75*
G02*
X0203002Y0070085I0000492J0000000D01*
G01*
X0203002Y0070085D01*
G75*
G02*
X0203494Y0069593I0000000J-000492D01*
G01*
G37*
G36*
G01*
X0199164Y0069593D02*
X0199164Y0068609D01*
G75*
G02*
X0198671Y0068117I-000492J0000000D01*
G01*
X0198671Y0068117D01*
G75*
G02*
X0198179Y0068609I0000000J0000492D01*
G01*
X0198179Y0069593D01*
G75*
G02*
X0198671Y0070085I0000492J0000000D01*
G01*
X0198671Y0070085D01*
G75*
G02*
X0199164Y0069593I0000000J-000492D01*
G01*
G37*
G36*
G01*
X0194833Y0069593D02*
X0194833Y0068609D01*
G75*
G02*
X0194341Y0068117I-000492J0000000D01*
G01*
X0194341Y0068117D01*
G75*
G02*
X0193849Y0068609I0000000J0000492D01*
G01*
X0193849Y0069593D01*
G75*
G02*
X0194341Y0070085I0000492J0000000D01*
G01*
X0194341Y0070085D01*
G75*
G02*
X0194833Y0069593I0000000J-000492D01*
G01*
G37*
G36*
G01*
X0190502Y0069593D02*
X0190502Y0068609D01*
G75*
G02*
X0190010Y0068117I-000492J0000000D01*
G01*
X0190010Y0068117D01*
G75*
G02*
X0189518Y0068609I0000000J0000492D01*
G01*
X0189518Y0069593D01*
G75*
G02*
X0190010Y0070085I0000492J0000000D01*
G01*
X0190010Y0070085D01*
G75*
G02*
X0190502Y0069593I0000000J-000492D01*
G01*
G37*
G36*
G01*
X0218061Y0211046D02*
X0218061Y0210062D01*
G75*
G02*
X0217569Y0209569I-000492J0000000D01*
G01*
X0217569Y0209569D01*
G75*
G02*
X0217077Y0210062I0000000J0000492D01*
G01*
X0217077Y0211046D01*
G75*
G02*
X0217569Y0211538I0000492J0000000D01*
G01*
X0217569Y0211538D01*
G75*
G02*
X0218061Y0211046I0000000J-000492D01*
G01*
G37*
G36*
G01*
X0222274Y0210062D02*
X0222274Y0211046D01*
G75*
G02*
X0222766Y0211538I0000492J0000000D01*
G01*
X0222766Y0211538D01*
G75*
G02*
X0223258Y0211046I0000000J-000492D01*
G01*
X0223258Y0210062D01*
G75*
G02*
X0222766Y0209569I-000492J0000000D01*
G01*
X0222766Y0209569D01*
G75*
G02*
X0222274Y0210062I0000000J0000492D01*
G01*
G37*
G36*
G01*
X0227470Y0210062D02*
X0227470Y0211046D01*
G75*
G02*
X0227963Y0211538I0000492J0000000D01*
G01*
X0227963Y0211538D01*
G75*
G02*
X0228455Y0211046I0000000J-000492D01*
G01*
X0228455Y0210062D01*
G75*
G02*
X0227963Y0209569I-000492J0000000D01*
G01*
X0227963Y0209569D01*
G75*
G02*
X0227470Y0210062I0000000J0000492D01*
G01*
G37*
G36*
G01*
X0231801Y0210062D02*
X0231801Y0211046D01*
G75*
G02*
X0232293Y0211538I0000492J0000000D01*
G01*
X0232293Y0211538D01*
G75*
G02*
X0232785Y0211046I0000000J-000492D01*
G01*
X0232785Y0210062D01*
G75*
G02*
X0232293Y0209569I-000492J0000000D01*
G01*
X0232293Y0209569D01*
G75*
G02*
X0231801Y0210062I0000000J0000492D01*
G01*
G37*
G36*
G01*
X0236132Y0210062D02*
X0236132Y0211046D01*
G75*
G02*
X0236624Y0211538I0000492J0000000D01*
G01*
X0236624Y0211538D01*
G75*
G02*
X0237116Y0211046I0000000J-000492D01*
G01*
X0237116Y0210062D01*
G75*
G02*
X0236624Y0209569I-000492J0000000D01*
G01*
X0236624Y0209569D01*
G75*
G02*
X0236132Y0210062I0000000J0000492D01*
G01*
G37*
G36*
G01*
X0240463Y0210062D02*
X0240463Y0211046D01*
G75*
G02*
X0240955Y0211538I0000492J0000000D01*
G01*
X0240955Y0211538D01*
G75*
G02*
X0241447Y0211046I0000000J-000492D01*
G01*
X0241447Y0210062D01*
G75*
G02*
X0240955Y0209569I-000492J0000000D01*
G01*
X0240955Y0209569D01*
G75*
G02*
X0240463Y0210062I0000000J0000492D01*
G01*
G37*
G36*
G01*
X0244793Y0210062D02*
X0244793Y0211046D01*
G75*
G02*
X0245285Y0211538I0000492J0000000D01*
G01*
X0245285Y0211538D01*
G75*
G02*
X0245778Y0211046I0000000J-000492D01*
G01*
X0245778Y0210062D01*
G75*
G02*
X0245285Y0209569I-000492J0000000D01*
G01*
X0245285Y0209569D01*
G75*
G02*
X0244793Y0210062I0000000J0000492D01*
G01*
G37*
G36*
G01*
X0249124Y0210062D02*
X0249124Y0211046D01*
G75*
G02*
X0249616Y0211538I0000492J0000000D01*
G01*
X0249616Y0211538D01*
G75*
G02*
X0250108Y0211046I0000000J-000492D01*
G01*
X0250108Y0210062D01*
G75*
G02*
X0249616Y0209569I-000492J0000000D01*
G01*
X0249616Y0209569D01*
G75*
G02*
X0249124Y0210062I0000000J0000492D01*
G01*
G37*
G36*
G01*
X0253455Y0210062D02*
X0253455Y0211046D01*
G75*
G02*
X0253947Y0211538I0000492J0000000D01*
G01*
X0253947Y0211538D01*
G75*
G02*
X0254439Y0211046I0000000J-000492D01*
G01*
X0254439Y0210062D01*
G75*
G02*
X0253947Y0209569I-000492J0000000D01*
G01*
X0253947Y0209569D01*
G75*
G02*
X0253455Y0210062I0000000J0000492D01*
G01*
G37*
G36*
G01*
X0257785Y0210062D02*
X0257785Y0211046D01*
G75*
G02*
X0258278Y0211538I0000492J0000000D01*
G01*
X0258278Y0211538D01*
G75*
G02*
X0258770Y0211046I0000000J-000492D01*
G01*
X0258770Y0210062D01*
G75*
G02*
X0258278Y0209569I-000492J0000000D01*
G01*
X0258278Y0209569D01*
G75*
G02*
X0257785Y0210062I0000000J0000492D01*
G01*
G37*
G36*
G01*
X0262116Y0210062D02*
X0262116Y0211046D01*
G75*
G02*
X0262608Y0211538I0000492J0000000D01*
G01*
X0262608Y0211538D01*
G75*
G02*
X0263100Y0211046I0000000J-000492D01*
G01*
X0263100Y0210062D01*
G75*
G02*
X0262608Y0209569I-000492J0000000D01*
G01*
X0262608Y0209569D01*
G75*
G02*
X0262116Y0210062I0000000J0000492D01*
G01*
G37*
G36*
G01*
X0266447Y0210062D02*
X0266447Y0211046D01*
G75*
G02*
X0266939Y0211538I0000492J0000000D01*
G01*
X0266939Y0211538D01*
G75*
G02*
X0267431Y0211046I0000000J-000492D01*
G01*
X0267431Y0210062D01*
G75*
G02*
X0266939Y0209569I-000492J0000000D01*
G01*
X0266939Y0209569D01*
G75*
G02*
X0266447Y0210062I0000000J0000492D01*
G01*
G37*
G36*
G01*
X0270777Y0210062D02*
X0270777Y0211046D01*
G75*
G02*
X0271270Y0211538I0000492J0000000D01*
G01*
X0271270Y0211538D01*
G75*
G02*
X0271762Y0211046I0000000J-000492D01*
G01*
X0271762Y0210062D01*
G75*
G02*
X0271270Y0209569I-000492J0000000D01*
G01*
X0271270Y0209569D01*
G75*
G02*
X0270777Y0210062I0000000J0000492D01*
G01*
G37*
G36*
G01*
X0275108Y0210062D02*
X0275108Y0211046D01*
G75*
G02*
X0275600Y0211538I0000492J0000000D01*
G01*
X0275600Y0211538D01*
G75*
G02*
X0276092Y0211046I0000000J-000492D01*
G01*
X0276092Y0210062D01*
G75*
G02*
X0275600Y0209569I-000492J0000000D01*
G01*
X0275600Y0209569D01*
G75*
G02*
X0275108Y0210062I0000000J0000492D01*
G01*
G37*
G36*
G01*
X0279439Y0210062D02*
X0279439Y0211046D01*
G75*
G02*
X0279931Y0211538I0000492J0000000D01*
G01*
X0279931Y0211538D01*
G75*
G02*
X0280423Y0211046I0000000J-000492D01*
G01*
X0280423Y0210062D01*
G75*
G02*
X0279931Y0209569I-000492J0000000D01*
G01*
X0279931Y0209569D01*
G75*
G02*
X0279439Y0210062I0000000J0000492D01*
G01*
G37*
G36*
G01*
X0283770Y0210062D02*
X0283770Y0211046D01*
G75*
G02*
X0284262Y0211538I0000492J0000000D01*
G01*
X0284262Y0211538D01*
G75*
G02*
X0284754Y0211046I0000000J-000492D01*
G01*
X0284754Y0210062D01*
G75*
G02*
X0284262Y0209569I-000492J0000000D01*
G01*
X0284262Y0209569D01*
G75*
G02*
X0283770Y0210062I0000000J0000492D01*
G01*
G37*
G36*
G01*
X0288100Y0210062D02*
X0288100Y0211046D01*
G75*
G02*
X0288592Y0211538I0000492J0000000D01*
G01*
X0288592Y0211538D01*
G75*
G02*
X0289085Y0211046I0000000J-000492D01*
G01*
X0289085Y0210062D01*
G75*
G02*
X0288592Y0209569I-000492J0000000D01*
G01*
X0288592Y0209569D01*
G75*
G02*
X0288100Y0210062I0000000J0000492D01*
G01*
G37*
G36*
G01*
X0292431Y0210062D02*
X0292431Y0211046D01*
G75*
G02*
X0292923Y0211538I0000492J0000000D01*
G01*
X0292923Y0211538D01*
G75*
G02*
X0293415Y0211046I0000000J-000492D01*
G01*
X0293415Y0210062D01*
G75*
G02*
X0292923Y0209569I-000492J0000000D01*
G01*
X0292923Y0209569D01*
G75*
G02*
X0292431Y0210062I0000000J0000492D01*
G01*
G37*
G36*
G01*
X0296762Y0210062D02*
X0296762Y0211046D01*
G75*
G02*
X0297254Y0211538I0000492J0000000D01*
G01*
X0297254Y0211538D01*
G75*
G02*
X0297746Y0211046I0000000J-000492D01*
G01*
X0297746Y0210062D01*
G75*
G02*
X0297254Y0209569I-000492J0000000D01*
G01*
X0297254Y0209569D01*
G75*
G02*
X0296762Y0210062I0000000J0000492D01*
G01*
G37*
G36*
G01*
X0301092Y0210062D02*
X0301092Y0211046D01*
G75*
G02*
X0301585Y0211538I0000492J0000000D01*
G01*
X0301585Y0211538D01*
G75*
G02*
X0302077Y0211046I0000000J-000492D01*
G01*
X0302077Y0210062D01*
G75*
G02*
X0301585Y0209569I-000492J0000000D01*
G01*
X0301585Y0209569D01*
G75*
G02*
X0301092Y0210062I0000000J0000492D01*
G01*
G37*
G36*
G01*
X0305423Y0210062D02*
X0305423Y0211046D01*
G75*
G02*
X0305915Y0211538I0000492J0000000D01*
G01*
X0305915Y0211538D01*
G75*
G02*
X0306407Y0211046I0000000J-000492D01*
G01*
X0306407Y0210062D01*
G75*
G02*
X0305915Y0209569I-000492J0000000D01*
G01*
X0305915Y0209569D01*
G75*
G02*
X0305423Y0210062I0000000J0000492D01*
G01*
G37*
G36*
G01*
X0309754Y0210062D02*
X0309754Y0211046D01*
G75*
G02*
X0310246Y0211538I0000492J0000000D01*
G01*
X0310246Y0211538D01*
G75*
G02*
X0310738Y0211046I0000000J-000492D01*
G01*
X0310738Y0210062D01*
G75*
G02*
X0310246Y0209569I-000492J0000000D01*
G01*
X0310246Y0209569D01*
G75*
G02*
X0309754Y0210062I0000000J0000492D01*
G01*
G37*
G36*
G01*
X0314084Y0210062D02*
X0314084Y0211046D01*
G75*
G02*
X0314577Y0211538I0000492J0000000D01*
G01*
X0314577Y0211538D01*
G75*
G02*
X0315069Y0211046I0000000J-000492D01*
G01*
X0315069Y0210062D01*
G75*
G02*
X0314577Y0209569I-000492J0000000D01*
G01*
X0314577Y0209569D01*
G75*
G02*
X0314084Y0210062I0000000J0000492D01*
G01*
G37*
G36*
G01*
X0318415Y0210062D02*
X0318415Y0211046D01*
G75*
G02*
X0318907Y0211538I0000492J0000000D01*
G01*
X0318907Y0211538D01*
G75*
G02*
X0319399Y0211046I0000000J-000492D01*
G01*
X0319399Y0210062D01*
G75*
G02*
X0318907Y0209569I-000492J0000000D01*
G01*
X0318907Y0209569D01*
G75*
G02*
X0318415Y0210062I0000000J0000492D01*
G01*
G37*
G36*
G01*
X0322746Y0210062D02*
X0322746Y0211046D01*
G75*
G02*
X0323238Y0211538I0000492J0000000D01*
G01*
X0323238Y0211538D01*
G75*
G02*
X0323730Y0211046I0000000J-000492D01*
G01*
X0323730Y0210062D01*
G75*
G02*
X0323238Y0209569I-000492J0000000D01*
G01*
X0323238Y0209569D01*
G75*
G02*
X0322746Y0210062I0000000J0000492D01*
G01*
G37*
G36*
G01*
X0327077Y0210062D02*
X0327077Y0211046D01*
G75*
G02*
X0327569Y0211538I0000492J0000000D01*
G01*
X0327569Y0211538D01*
G75*
G02*
X0328061Y0211046I0000000J-000492D01*
G01*
X0328061Y0210062D01*
G75*
G02*
X0327569Y0209569I-000492J0000000D01*
G01*
X0327569Y0209569D01*
G75*
G02*
X0327077Y0210062I0000000J0000492D01*
G01*
G37*
G36*
G01*
X0331407Y0210062D02*
X0331407Y0211046D01*
G75*
G02*
X0331899Y0211538I0000492J0000000D01*
G01*
X0331899Y0211538D01*
G75*
G02*
X0332392Y0211046I0000000J-000492D01*
G01*
X0332392Y0210062D01*
G75*
G02*
X0331899Y0209569I-000492J0000000D01*
G01*
X0331899Y0209569D01*
G75*
G02*
X0331407Y0210062I0000000J0000492D01*
G01*
G37*
G36*
G01*
X0335738Y0210062D02*
X0335738Y0211046D01*
G75*
G02*
X0336230Y0211538I0000492J0000000D01*
G01*
X0336230Y0211538D01*
G75*
G02*
X0336722Y0211046I0000000J-000492D01*
G01*
X0336722Y0210062D01*
G75*
G02*
X0336230Y0209569I-000492J0000000D01*
G01*
X0336230Y0209569D01*
G75*
G02*
X0335738Y0210062I0000000J0000492D01*
G01*
G37*
G36*
G01*
X0340069Y0210062D02*
X0340069Y0211046D01*
G75*
G02*
X0340561Y0211538I0000492J0000000D01*
G01*
X0340561Y0211538D01*
G75*
G02*
X0341053Y0211046I0000000J-000492D01*
G01*
X0341053Y0210062D01*
G75*
G02*
X0340561Y0209569I-000492J0000000D01*
G01*
X0340561Y0209569D01*
G75*
G02*
X0340069Y0210062I0000000J0000492D01*
G01*
G37*
G36*
G01*
X0344399Y0210062D02*
X0344399Y0211046D01*
G75*
G02*
X0344892Y0211538I0000492J0000000D01*
G01*
X0344892Y0211538D01*
G75*
G02*
X0345384Y0211046I0000000J-000492D01*
G01*
X0345384Y0210062D01*
G75*
G02*
X0344892Y0209569I-000492J0000000D01*
G01*
X0344892Y0209569D01*
G75*
G02*
X0344399Y0210062I0000000J0000492D01*
G01*
G37*
G36*
G01*
X0348730Y0210062D02*
X0348730Y0211046D01*
G75*
G02*
X0349222Y0211538I0000492J0000000D01*
G01*
X0349222Y0211538D01*
G75*
G02*
X0349714Y0211046I0000000J-000492D01*
G01*
X0349714Y0210062D01*
G75*
G02*
X0349222Y0209569I-000492J0000000D01*
G01*
X0349222Y0209569D01*
G75*
G02*
X0348730Y0210062I0000000J0000492D01*
G01*
G37*
G36*
G01*
X0353061Y0210062D02*
X0353061Y0211046D01*
G75*
G02*
X0353553Y0211538I0000492J0000000D01*
G01*
X0353553Y0211538D01*
G75*
G02*
X0354045Y0211046I0000000J-000492D01*
G01*
X0354045Y0210062D01*
G75*
G02*
X0353553Y0209569I-000492J0000000D01*
G01*
X0353553Y0209569D01*
G75*
G02*
X0353061Y0210062I0000000J0000492D01*
G01*
G37*
G36*
G01*
X0357391Y0210062D02*
X0357391Y0211046D01*
G75*
G02*
X0357884Y0211538I0000492J0000000D01*
G01*
X0357884Y0211538D01*
G75*
G02*
X0358376Y0211046I0000000J-000492D01*
G01*
X0358376Y0210062D01*
G75*
G02*
X0357884Y0209569I-000492J0000000D01*
G01*
X0357884Y0209569D01*
G75*
G02*
X0357391Y0210062I0000000J0000492D01*
G01*
G37*
G36*
G01*
X0363337Y0092711D02*
X0364321Y0092711D01*
G75*
G02*
X0364813Y0092219I0000000J-000492D01*
G01*
X0364813Y0092219D01*
G75*
G02*
X0364321Y0091727I-000492J0000000D01*
G01*
X0363337Y0091727D01*
G75*
G02*
X0362844Y0092219I0000000J0000492D01*
G01*
X0362844Y0092219D01*
G75*
G02*
X0363337Y0092711I0000492J0000000D01*
G01*
G37*
G36*
G01*
X0363337Y0090113D02*
X0364321Y0090113D01*
G75*
G02*
X0364813Y0089621I0000000J-000492D01*
G01*
X0364813Y0089621D01*
G75*
G02*
X0364321Y0089128I-000492J0000000D01*
G01*
X0363337Y0089128D01*
G75*
G02*
X0362844Y0089621I0000000J0000492D01*
G01*
X0362844Y0089621D01*
G75*
G02*
X0363337Y0090113I0000492J0000000D01*
G01*
G37*
G36*
G01*
X0363337Y0087514D02*
X0364321Y0087514D01*
G75*
G02*
X0364813Y0087022I0000000J-000492D01*
G01*
X0364813Y0087022D01*
G75*
G02*
X0364321Y0086530I-000492J0000000D01*
G01*
X0363337Y0086530D01*
G75*
G02*
X0362844Y0087022I0000000J0000492D01*
G01*
X0362844Y0087022D01*
G75*
G02*
X0363337Y0087514I0000492J0000000D01*
G01*
G37*
G36*
G01*
X0363337Y0084916D02*
X0364321Y0084916D01*
G75*
G02*
X0364813Y0084424I0000000J-000492D01*
G01*
X0364813Y0084424D01*
G75*
G02*
X0364321Y0083932I-000492J0000000D01*
G01*
X0363337Y0083932D01*
G75*
G02*
X0362844Y0084424I0000000J0000492D01*
G01*
X0362844Y0084424D01*
G75*
G02*
X0363337Y0084916I0000492J0000000D01*
G01*
G37*
G36*
G01*
X0363337Y0082317D02*
X0364321Y0082317D01*
G75*
G02*
X0364813Y0081825I0000000J-000492D01*
G01*
X0364813Y0081825D01*
G75*
G02*
X0364321Y0081333I-000492J0000000D01*
G01*
X0363337Y0081333D01*
G75*
G02*
X0362844Y0081825I0000000J0000492D01*
G01*
X0362844Y0081825D01*
G75*
G02*
X0363337Y0082317I0000492J0000000D01*
G01*
G37*
G36*
G01*
X0363337Y0079719D02*
X0364321Y0079719D01*
G75*
G02*
X0364813Y0079227I0000000J-000492D01*
G01*
X0364813Y0079227D01*
G75*
G02*
X0364321Y0078735I-000492J0000000D01*
G01*
X0363337Y0078735D01*
G75*
G02*
X0362844Y0079227I0000000J0000492D01*
G01*
X0362844Y0079227D01*
G75*
G02*
X0363337Y0079719I0000492J0000000D01*
G01*
G37*
G36*
G01*
X0363337Y0077121D02*
X0364321Y0077121D01*
G75*
G02*
X0364813Y0076628I0000000J-000492D01*
G01*
X0364813Y0076628D01*
G75*
G02*
X0364321Y0076136I-000492J0000000D01*
G01*
X0363337Y0076136D01*
G75*
G02*
X0362844Y0076628I0000000J0000492D01*
G01*
X0362844Y0076628D01*
G75*
G02*
X0363337Y0077121I0000492J0000000D01*
G01*
G37*
G36*
G01*
X0363337Y0074522D02*
X0364321Y0074522D01*
G75*
G02*
X0364813Y0074030I0000000J-000492D01*
G01*
X0364813Y0074030D01*
G75*
G02*
X0364321Y0073538I-000492J0000000D01*
G01*
X0363337Y0073538D01*
G75*
G02*
X0362844Y0074030I0000000J0000492D01*
G01*
X0362844Y0074030D01*
G75*
G02*
X0363337Y0074522I0000492J0000000D01*
G01*
G37*
G36*
G01*
X0363337Y0071924D02*
X0364321Y0071924D01*
G75*
G02*
X0364813Y0071432I0000000J-000492D01*
G01*
X0364813Y0071432D01*
G75*
G02*
X0364321Y0070939I-000492J0000000D01*
G01*
X0363337Y0070939D01*
G75*
G02*
X0362844Y0071432I0000000J0000492D01*
G01*
X0362844Y0071432D01*
G75*
G02*
X0363337Y0071924I0000492J0000000D01*
G01*
G37*
G36*
G01*
X0363337Y0069325D02*
X0364321Y0069325D01*
G75*
G02*
X0364813Y0068833I0000000J-000492D01*
G01*
X0364813Y0068833D01*
G75*
G02*
X0364321Y0068341I-000492J0000000D01*
G01*
X0363337Y0068341D01*
G75*
G02*
X0362844Y0068833I0000000J0000492D01*
G01*
X0362844Y0068833D01*
G75*
G02*
X0363337Y0069325I0000492J0000000D01*
G01*
G37*
D14*
X0328669Y0366890D03*
X0328669Y0381890D03*
X0194488Y0368878D03*
X0194488Y0383878D03*
D13*
X0057874Y0225787D03*
X0053150Y0225787D03*
X0062598Y0225787D03*
X0067323Y0225787D03*
X0041890Y0282579D03*
X0037953Y0282579D03*
D14*
X0139173Y0383268D03*
X0139173Y0363976D03*
D69*
X0371260Y0421654D03*
X0214567Y0421654D03*
D70*
X0242717Y0398031D03*
X0258465Y0398031D03*
X0272244Y0398031D03*
X0286024Y0398031D03*
X0299803Y0398031D03*
X0313583Y0398031D03*
X0327362Y0398031D03*
X0343110Y0398031D03*
X0242717Y0413780D03*
X0258465Y0413780D03*
X0272244Y0413780D03*
X0286024Y0413780D03*
X0299803Y0413780D03*
X0313583Y0413780D03*
X0327362Y0413780D03*
X0343110Y0413780D03*
X0242717Y0429528D03*
X0258465Y0429528D03*
X0272244Y0429528D03*
X0286024Y0429528D03*
X0299803Y0429528D03*
X0313583Y0429528D03*
X0327362Y0429528D03*
X0343110Y0429528D03*
D14*
X0221654Y0381496D03*
X0221654Y0362205D03*
D13*
X0158071Y0034449D03*
X0305170Y0034449D03*
X0256890Y0034449D03*
X0200984Y0034449D03*
X0299705Y0049409D03*
D14*
X0196260Y0409626D03*
X0196260Y0424626D03*
X0243504Y0364941D03*
X0243504Y0379941D03*
X0230906Y0381673D03*
X0230906Y0362382D03*
X0310236Y0382067D03*
X0310236Y0362776D03*
D16*
X0105630Y0227205D03*
G36*
G01*
X0239291Y0051772D02*
X0236220Y0051772D01*
G75*
G02*
X0235945Y0052047I0000000J0000276D01*
G01*
X0235945Y0054252D01*
G75*
G02*
X0236220Y0054528I0000276J0000000D01*
G01*
X0239291Y0054528D01*
G75*
G02*
X0239567Y0054252I0000000J-000276D01*
G01*
X0239567Y0052047D01*
G75*
G02*
X0239291Y0051772I-000276J0000000D01*
G01*
G37*
G36*
G01*
X0239291Y0058071D02*
X0236220Y0058071D01*
G75*
G02*
X0235945Y0058346I0000000J0000276D01*
G01*
X0235945Y0060551D01*
G75*
G02*
X0236220Y0060827I0000276J0000000D01*
G01*
X0239291Y0060827D01*
G75*
G02*
X0239567Y0060551I0000000J-000276D01*
G01*
X0239567Y0058346D01*
G75*
G02*
X0239291Y0058071I-000276J0000000D01*
G01*
G37*
X0117717Y0225157D03*
G36*
G01*
X0003110Y0198917D02*
X0004291Y0198917D01*
G75*
G02*
X0004882Y0198327I0000000J-000591D01*
G01*
X0004882Y0193701D01*
G75*
G02*
X0004291Y0193110I-000591J0000000D01*
G01*
X0003110Y0193110D01*
G75*
G02*
X0002520Y0193701I0000000J0000591D01*
G01*
X0002520Y0198327D01*
G75*
G02*
X0003110Y0198917I0000591J0000000D01*
G01*
G37*
G36*
G01*
X0010591Y0198917D02*
X0011772Y0198917D01*
G75*
G02*
X0012362Y0198327I0000000J-000591D01*
G01*
X0012362Y0193701D01*
G75*
G02*
X0011772Y0193110I-000591J0000000D01*
G01*
X0010591Y0193110D01*
G75*
G02*
X0010000Y0193701I0000000J0000591D01*
G01*
X0010000Y0198327D01*
G75*
G02*
X0010591Y0198917I0000591J0000000D01*
G01*
G37*
G36*
G01*
X0006850Y0191535D02*
X0008031Y0191535D01*
G75*
G02*
X0008622Y0190945I0000000J-000591D01*
G01*
X0008622Y0186319D01*
G75*
G02*
X0008031Y0185728I-000591J0000000D01*
G01*
X0006850Y0185728D01*
G75*
G02*
X0006260Y0186319I0000000J0000591D01*
G01*
X0006260Y0190945D01*
G75*
G02*
X0006850Y0191535I0000591J0000000D01*
G01*
G37*
D85*
X0278622Y0044528D03*
X0278622Y0040197D03*
X0278622Y0035866D03*
X0278622Y0031535D03*
X0278622Y0027205D03*
X0278622Y0022874D03*
X0278622Y0018543D03*
X0278622Y0014213D03*
D86*
X0268386Y0058996D03*
X0268386Y0004862D03*
X0301063Y0004862D03*
X0301063Y0058996D03*
G36*
G01*
X0003110Y0183169D02*
X0004291Y0183169D01*
G75*
G02*
X0004882Y0182579I0000000J-000591D01*
G01*
X0004882Y0177953D01*
G75*
G02*
X0004291Y0177362I-000591J0000000D01*
G01*
X0003110Y0177362D01*
G75*
G02*
X0002520Y0177953I0000000J0000591D01*
G01*
X0002520Y0182579D01*
G75*
G02*
X0003110Y0183169I0000591J0000000D01*
G01*
G37*
G36*
G01*
X0010591Y0183169D02*
X0011772Y0183169D01*
G75*
G02*
X0012362Y0182579I0000000J-000591D01*
G01*
X0012362Y0177953D01*
G75*
G02*
X0011772Y0177362I-000591J0000000D01*
G01*
X0010591Y0177362D01*
G75*
G02*
X0010000Y0177953I0000000J0000591D01*
G01*
X0010000Y0182579D01*
G75*
G02*
X0010591Y0183169I0000591J0000000D01*
G01*
G37*
G36*
G01*
X0006850Y0175787D02*
X0008031Y0175787D01*
G75*
G02*
X0008622Y0175197I0000000J-000591D01*
G01*
X0008622Y0170571D01*
G75*
G02*
X0008031Y0169980I-000591J0000000D01*
G01*
X0006850Y0169980D01*
G75*
G02*
X0006260Y0170571I0000000J0000591D01*
G01*
X0006260Y0175197D01*
G75*
G02*
X0006850Y0175787I0000591J0000000D01*
G01*
G37*
D16*
X0018504Y0010236D03*
G36*
G01*
X0072953Y0163642D02*
X0071772Y0163642D01*
G75*
G02*
X0071181Y0164232I0000000J0000591D01*
G01*
X0071181Y0168858D01*
G75*
G02*
X0071772Y0169449I0000591J0000000D01*
G01*
X0072953Y0169449D01*
G75*
G02*
X0073543Y0168858I0000000J-000591D01*
G01*
X0073543Y0164232D01*
G75*
G02*
X0072953Y0163642I-000591J0000000D01*
G01*
G37*
G36*
G01*
X0065472Y0163642D02*
X0064291Y0163642D01*
G75*
G02*
X0063701Y0164232I0000000J0000591D01*
G01*
X0063701Y0168858D01*
G75*
G02*
X0064291Y0169449I0000591J0000000D01*
G01*
X0065472Y0169449D01*
G75*
G02*
X0066063Y0168858I0000000J-000591D01*
G01*
X0066063Y0164232D01*
G75*
G02*
X0065472Y0163642I-000591J0000000D01*
G01*
G37*
G36*
G01*
X0069213Y0171024D02*
X0068031Y0171024D01*
G75*
G02*
X0067441Y0171614I0000000J0000591D01*
G01*
X0067441Y0176240D01*
G75*
G02*
X0068031Y0176831I0000591J0000000D01*
G01*
X0069213Y0176831D01*
G75*
G02*
X0069803Y0176240I0000000J-000591D01*
G01*
X0069803Y0171614D01*
G75*
G02*
X0069213Y0171024I-000591J0000000D01*
G01*
G37*
X0169834Y0045409D02*
G01*
G75*
D123*
X0135808Y0070380D02*
D03*
X0109992Y0102693D02*
D03*
X0137747Y0077791D02*
D03*
X0142177Y0048854D02*
D03*
X0115208Y0070311D02*
D03*
X0307677Y0061614D02*
G01*
G75*
D123*
X0200984Y0034449D02*
D03*
X0158071Y0034449D02*
D03*
X0299705Y0049409D02*
D03*
X0256890Y0034449D02*
D03*
X0305170Y0034449D02*
D03*
X0098031Y0185827D02*
%LPD*%
G01*
D13*
X0125196Y0127559D03*
X0120472Y0127559D03*
X0129921Y0127559D03*
X0134645Y0127559D03*
X0109212Y0184351D03*
X0105275Y0184351D03*
G36*
G01*
X0128625Y0168898D02*
X0127444Y0168898D01*
G75*
G02*
X0126853Y0169488I0000000J0000591D01*
G01*
X0126853Y0173524D01*
G75*
G02*
X0127444Y0174114I0000591J0000000D01*
G01*
X0128625Y0174114D01*
G75*
G02*
X0129215Y0173524I0000000J-000591D01*
G01*
X0129215Y0169488D01*
G75*
G02*
X0128625Y0168898I-000591J0000000D01*
G01*
G37*
G36*
G01*
X0124884Y0168898D02*
X0123703Y0168898D01*
G75*
G02*
X0123113Y0169488I0000000J0000591D01*
G01*
X0123113Y0173524D01*
G75*
G02*
X0123703Y0174114I0000591J0000000D01*
G01*
X0124884Y0174114D01*
G75*
G02*
X0125475Y0173524I0000000J-000591D01*
G01*
X0125475Y0169488D01*
G75*
G02*
X0124884Y0168898I-000591J0000000D01*
G01*
G37*
G36*
G01*
X0121144Y0168898D02*
X0119963Y0168898D01*
G75*
G02*
X0119373Y0169488I0000000J0000591D01*
G01*
X0119373Y0173524D01*
G75*
G02*
X0119963Y0174114I0000591J0000000D01*
G01*
X0121144Y0174114D01*
G75*
G02*
X0121735Y0173524I0000000J-000591D01*
G01*
X0121735Y0169488D01*
G75*
G02*
X0121144Y0168898I-000591J0000000D01*
G01*
G37*
G36*
G01*
X0121144Y0177855D02*
X0119963Y0177855D01*
G75*
G02*
X0119373Y0178445I0000000J0000591D01*
G01*
X0119373Y0182481D01*
G75*
G02*
X0119963Y0183071I0000591J0000000D01*
G01*
X0121144Y0183071D01*
G75*
G02*
X0121735Y0182481I0000000J-000591D01*
G01*
X0121735Y0178445D01*
G75*
G02*
X0121144Y0177855I-000591J0000000D01*
G01*
G37*
G36*
G01*
X0128625Y0177855D02*
X0127444Y0177855D01*
G75*
G02*
X0126853Y0178445I0000000J0000591D01*
G01*
X0126853Y0182481D01*
G75*
G02*
X0127444Y0183071I0000591J0000000D01*
G01*
X0128625Y0183071D01*
G75*
G02*
X0129215Y0182481I0000000J-000591D01*
G01*
X0129215Y0178445D01*
G75*
G02*
X0128625Y0177855I-000591J0000000D01*
G01*
G37*
G36*
G01*
X0106338Y0169173D02*
X0106338Y0167835D01*
G75*
G02*
X0105787Y0167284I-000551J0000000D01*
G01*
X0104685Y0167284D01*
G75*
G02*
X0104133Y0167835I0000000J0000551D01*
G01*
X0104133Y0169173D01*
G75*
G02*
X0104685Y0169725I0000551J0000000D01*
G01*
X0105787Y0169725D01*
G75*
G02*
X0106338Y0169173I0000000J-000551D01*
G01*
G37*
G36*
G01*
X0102559Y0169173D02*
X0102559Y0167835D01*
G75*
G02*
X0102007Y0167284I-000551J0000000D01*
G01*
X0100905Y0167284D01*
G75*
G02*
X0100354Y0167835I0000000J0000551D01*
G01*
X0100354Y0169173D01*
G75*
G02*
X0100905Y0169725I0000551J0000000D01*
G01*
X0102007Y0169725D01*
G75*
G02*
X0102559Y0169173I0000000J-000551D01*
G01*
G37*
G36*
G01*
X0129055Y0142658D02*
X0130393Y0142658D01*
G75*
G02*
X0130944Y0142107I0000000J-000551D01*
G01*
X0130944Y0141004D01*
G75*
G02*
X0130393Y0140453I-000551J0000000D01*
G01*
X0129055Y0140453D01*
G75*
G02*
X0128503Y0141004I0000000J0000551D01*
G01*
X0128503Y0142107D01*
G75*
G02*
X0129055Y0142658I0000551J0000000D01*
G01*
G37*
G36*
G01*
X0129055Y0138878D02*
X0130393Y0138878D01*
G75*
G02*
X0130944Y0138327I0000000J-000551D01*
G01*
X0130944Y0137225D01*
G75*
G02*
X0130393Y0136673I-000551J0000000D01*
G01*
X0129055Y0136673D01*
G75*
G02*
X0128503Y0137225I0000000J0000551D01*
G01*
X0128503Y0138327D01*
G75*
G02*
X0129055Y0138878I0000551J0000000D01*
G01*
G37*
G36*
G01*
X0134055Y0129311D02*
X0132716Y0129311D01*
G75*
G02*
X0132165Y0129862I0000000J0000551D01*
G01*
X0132165Y0130965D01*
G75*
G02*
X0132716Y0131516I0000551J0000000D01*
G01*
X0134055Y0131516D01*
G75*
G02*
X0134606Y0130965I0000000J-000551D01*
G01*
X0134606Y0129862D01*
G75*
G02*
X0134055Y0129311I-000551J0000000D01*
G01*
G37*
G36*
G01*
X0134055Y0133091D02*
X0132716Y0133091D01*
G75*
G02*
X0132165Y0133642I0000000J0000551D01*
G01*
X0132165Y0134744D01*
G75*
G02*
X0132716Y0135296I0000551J0000000D01*
G01*
X0134055Y0135296D01*
G75*
G02*
X0134606Y0134744I0000000J-000551D01*
G01*
X0134606Y0133642D01*
G75*
G02*
X0134055Y0133091I-000551J0000000D01*
G01*
G37*
G36*
G01*
X0125314Y0151063D02*
X0126653Y0151063D01*
G75*
G02*
X0127204Y0150512I0000000J-000551D01*
G01*
X0127204Y0149410D01*
G75*
G02*
X0126653Y0148858I-000551J0000000D01*
G01*
X0125314Y0148858D01*
G75*
G02*
X0124763Y0149410I0000000J0000551D01*
G01*
X0124763Y0150512D01*
G75*
G02*
X0125314Y0151063I0000551J0000000D01*
G01*
G37*
G36*
G01*
X0125314Y0147284D02*
X0126653Y0147284D01*
G75*
G02*
X0127204Y0146733I0000000J-000551D01*
G01*
X0127204Y0145630D01*
G75*
G02*
X0126653Y0145079I-000551J0000000D01*
G01*
X0125314Y0145079D01*
G75*
G02*
X0124763Y0145630I0000000J0000551D01*
G01*
X0124763Y0146733D01*
G75*
G02*
X0125314Y0147284I0000551J0000000D01*
G01*
G37*
G36*
G01*
X0130393Y0129508D02*
X0129055Y0129508D01*
G75*
G02*
X0128503Y0130059I0000000J0000551D01*
G01*
X0128503Y0131162D01*
G75*
G02*
X0129055Y0131713I0000551J0000000D01*
G01*
X0130393Y0131713D01*
G75*
G02*
X0130944Y0131162I0000000J-000551D01*
G01*
X0130944Y0130059D01*
G75*
G02*
X0130393Y0129508I-000551J0000000D01*
G01*
G37*
G36*
G01*
X0130393Y0133288D02*
X0129055Y0133288D01*
G75*
G02*
X0128503Y0133839I0000000J0000551D01*
G01*
X0128503Y0134941D01*
G75*
G02*
X0129055Y0135492I0000551J0000000D01*
G01*
X0130393Y0135492D01*
G75*
G02*
X0130944Y0134941I0000000J-000551D01*
G01*
X0130944Y0133839D01*
G75*
G02*
X0130393Y0133288I-000551J0000000D01*
G01*
G37*
G36*
G01*
X0108877Y0134784D02*
X0110216Y0134784D01*
G75*
G02*
X0110767Y0134233I0000000J-000551D01*
G01*
X0110767Y0133130D01*
G75*
G02*
X0110216Y0132579I-000551J0000000D01*
G01*
X0108877Y0132579D01*
G75*
G02*
X0108326Y0133130I0000000J0000551D01*
G01*
X0108326Y0134233D01*
G75*
G02*
X0108877Y0134784I0000551J0000000D01*
G01*
G37*
G36*
G01*
X0108877Y0131004D02*
X0110216Y0131004D01*
G75*
G02*
X0110767Y0130453I0000000J-000551D01*
G01*
X0110767Y0129351D01*
G75*
G02*
X0110216Y0128799I-000551J0000000D01*
G01*
X0108877Y0128799D01*
G75*
G02*
X0108326Y0129351I0000000J0000551D01*
G01*
X0108326Y0130453D01*
G75*
G02*
X0108877Y0131004I0000551J0000000D01*
G01*
G37*
G36*
G01*
X0101377Y0165293D02*
X0102165Y0165293D01*
G75*
G02*
X0102559Y0164899I0000000J-000394D01*
G01*
X0102559Y0159879D01*
G75*
G02*
X0102165Y0159486I-000394J0000000D01*
G01*
X0101377Y0159486D01*
G75*
G02*
X0100984Y0159879I0000000J0000394D01*
G01*
X0100984Y0164899D01*
G75*
G02*
X0101377Y0165293I0000394J0000000D01*
G01*
G37*
G36*
G01*
X0103937Y0165293D02*
X0104724Y0165293D01*
G75*
G02*
X0105118Y0164899I0000000J-000394D01*
G01*
X0105118Y0159879D01*
G75*
G02*
X0104724Y0159486I-000394J0000000D01*
G01*
X0103937Y0159486D01*
G75*
G02*
X0103543Y0159879I0000000J0000394D01*
G01*
X0103543Y0164899D01*
G75*
G02*
X0103937Y0165293I0000394J0000000D01*
G01*
G37*
G36*
G01*
X0106496Y0165293D02*
X0107283Y0165293D01*
G75*
G02*
X0107677Y0164899I0000000J-000394D01*
G01*
X0107677Y0159879D01*
G75*
G02*
X0107283Y0159486I-000394J0000000D01*
G01*
X0106496Y0159486D01*
G75*
G02*
X0106102Y0159879I0000000J0000394D01*
G01*
X0106102Y0164899D01*
G75*
G02*
X0106496Y0165293I0000394J0000000D01*
G01*
G37*
G36*
G01*
X0109055Y0165293D02*
X0109842Y0165293D01*
G75*
G02*
X0110236Y0164899I0000000J-000394D01*
G01*
X0110236Y0159879D01*
G75*
G02*
X0109842Y0159486I-000394J0000000D01*
G01*
X0109055Y0159486D01*
G75*
G02*
X0108661Y0159879I0000000J0000394D01*
G01*
X0108661Y0164899D01*
G75*
G02*
X0109055Y0165293I0000394J0000000D01*
G01*
G37*
G36*
G01*
X0111614Y0165293D02*
X0112401Y0165293D01*
G75*
G02*
X0112795Y0164899I0000000J-000394D01*
G01*
X0112795Y0159879D01*
G75*
G02*
X0112401Y0159486I-000394J0000000D01*
G01*
X0111614Y0159486D01*
G75*
G02*
X0111220Y0159879I0000000J0000394D01*
G01*
X0111220Y0164899D01*
G75*
G02*
X0111614Y0165293I0000394J0000000D01*
G01*
G37*
G36*
G01*
X0114173Y0165293D02*
X0114960Y0165293D01*
G75*
G02*
X0115354Y0164899I0000000J-000394D01*
G01*
X0115354Y0159879D01*
G75*
G02*
X0114960Y0159486I-000394J0000000D01*
G01*
X0114173Y0159486D01*
G75*
G02*
X0113779Y0159879I0000000J0000394D01*
G01*
X0113779Y0164899D01*
G75*
G02*
X0114173Y0165293I0000394J0000000D01*
G01*
G37*
G36*
G01*
X0116732Y0165293D02*
X0117519Y0165293D01*
G75*
G02*
X0117913Y0164899I0000000J-000394D01*
G01*
X0117913Y0159879D01*
G75*
G02*
X0117519Y0159486I-000394J0000000D01*
G01*
X0116732Y0159486D01*
G75*
G02*
X0116338Y0159879I0000000J0000394D01*
G01*
X0116338Y0164899D01*
G75*
G02*
X0116732Y0165293I0000394J0000000D01*
G01*
G37*
G36*
G01*
X0116732Y0142753D02*
X0117519Y0142753D01*
G75*
G02*
X0117913Y0142360I0000000J-000394D01*
G01*
X0117913Y0137340D01*
G75*
G02*
X0117519Y0136946I-000394J0000000D01*
G01*
X0116732Y0136946D01*
G75*
G02*
X0116338Y0137340I0000000J0000394D01*
G01*
X0116338Y0142360D01*
G75*
G02*
X0116732Y0142753I0000394J0000000D01*
G01*
G37*
G36*
G01*
X0114173Y0142753D02*
X0114960Y0142753D01*
G75*
G02*
X0115354Y0142360I0000000J-000394D01*
G01*
X0115354Y0137340D01*
G75*
G02*
X0114960Y0136946I-000394J0000000D01*
G01*
X0114173Y0136946D01*
G75*
G02*
X0113779Y0137340I0000000J0000394D01*
G01*
X0113779Y0142360D01*
G75*
G02*
X0114173Y0142753I0000394J0000000D01*
G01*
G37*
G36*
G01*
X0111614Y0142753D02*
X0112401Y0142753D01*
G75*
G02*
X0112795Y0142360I0000000J-000394D01*
G01*
X0112795Y0137340D01*
G75*
G02*
X0112401Y0136946I-000394J0000000D01*
G01*
X0111614Y0136946D01*
G75*
G02*
X0111220Y0137340I0000000J0000394D01*
G01*
X0111220Y0142360D01*
G75*
G02*
X0111614Y0142753I0000394J0000000D01*
G01*
G37*
G36*
G01*
X0109055Y0142753D02*
X0109842Y0142753D01*
G75*
G02*
X0110236Y0142360I0000000J-000394D01*
G01*
X0110236Y0137340D01*
G75*
G02*
X0109842Y0136946I-000394J0000000D01*
G01*
X0109055Y0136946D01*
G75*
G02*
X0108661Y0137340I0000000J0000394D01*
G01*
X0108661Y0142360D01*
G75*
G02*
X0109055Y0142753I0000394J0000000D01*
G01*
G37*
G36*
G01*
X0106496Y0142753D02*
X0107283Y0142753D01*
G75*
G02*
X0107677Y0142360I0000000J-000394D01*
G01*
X0107677Y0137340D01*
G75*
G02*
X0107283Y0136946I-000394J0000000D01*
G01*
X0106496Y0136946D01*
G75*
G02*
X0106102Y0137340I0000000J0000394D01*
G01*
X0106102Y0142360D01*
G75*
G02*
X0106496Y0142753I0000394J0000000D01*
G01*
G37*
G36*
G01*
X0103937Y0142753D02*
X0104724Y0142753D01*
G75*
G02*
X0105118Y0142360I0000000J-000394D01*
G01*
X0105118Y0137340D01*
G75*
G02*
X0104724Y0136946I-000394J0000000D01*
G01*
X0103937Y0136946D01*
G75*
G02*
X0103543Y0137340I0000000J0000394D01*
G01*
X0103543Y0142360D01*
G75*
G02*
X0103937Y0142753I0000394J0000000D01*
G01*
G37*
G36*
G01*
X0101377Y0142753D02*
X0102165Y0142753D01*
G75*
G02*
X0102559Y0142360I0000000J-000394D01*
G01*
X0102559Y0137340D01*
G75*
G02*
X0102165Y0136946I-000394J0000000D01*
G01*
X0101377Y0136946D01*
G75*
G02*
X0100984Y0137340I0000000J0000394D01*
G01*
X0100984Y0142360D01*
G75*
G02*
X0101377Y0142753I0000394J0000000D01*
G01*
G37*
G36*
G01*
X0109248Y0182936D02*
X0112791Y0182936D01*
G75*
G02*
X0113775Y0181952I0000000J-000984D01*
G01*
X0113775Y0179885D01*
G75*
G02*
X0112791Y0178901I-000984J0000000D01*
G01*
X0109248Y0178901D01*
G75*
G02*
X0108263Y0179885I0000000J0000984D01*
G01*
X0108263Y0181952D01*
G75*
G02*
X0109248Y0182936I0000984J0000000D01*
G01*
G37*
G36*
G01*
X0109248Y0175751D02*
X0112791Y0175751D01*
G75*
G02*
X0113775Y0174767I0000000J-000984D01*
G01*
X0113775Y0172700D01*
G75*
G02*
X0112791Y0171716I-000984J0000000D01*
G01*
X0109248Y0171716D01*
G75*
G02*
X0108263Y0172700I0000000J0000984D01*
G01*
X0108263Y0174767D01*
G75*
G02*
X0109248Y0175751I0000984J0000000D01*
G01*
G37*
G36*
G01*
X0122972Y0136693D02*
X0121515Y0136693D01*
G75*
G02*
X0120984Y0137225I0000000J0000531D01*
G01*
X0120984Y0138288D01*
G75*
G02*
X0121515Y0138819I0000531J0000000D01*
G01*
X0122972Y0138819D01*
G75*
G02*
X0123503Y0138288I0000000J-000531D01*
G01*
X0123503Y0137225D01*
G75*
G02*
X0122972Y0136693I-000531J0000000D01*
G01*
G37*
G36*
G01*
X0122972Y0140709D02*
X0121515Y0140709D01*
G75*
G02*
X0120984Y0141240I0000000J0000531D01*
G01*
X0120984Y0142303D01*
G75*
G02*
X0121515Y0142835I0000531J0000000D01*
G01*
X0122972Y0142835D01*
G75*
G02*
X0123503Y0142303I0000000J-000531D01*
G01*
X0123503Y0141240D01*
G75*
G02*
X0122972Y0140709I-000531J0000000D01*
G01*
G37*
G36*
G01*
X0133897Y0177126D02*
X0132559Y0177126D01*
G75*
G02*
X0132007Y0177677I0000000J0000551D01*
G01*
X0132007Y0178780D01*
G75*
G02*
X0132559Y0179331I0000551J0000000D01*
G01*
X0133897Y0179331D01*
G75*
G02*
X0134448Y0178780I0000000J-000551D01*
G01*
X0134448Y0177677D01*
G75*
G02*
X0133897Y0177126I-000551J0000000D01*
G01*
G37*
G36*
G01*
X0133897Y0180906D02*
X0132559Y0180906D01*
G75*
G02*
X0132007Y0181457I0000000J0000551D01*
G01*
X0132007Y0182559D01*
G75*
G02*
X0132559Y0183110I0000551J0000000D01*
G01*
X0133897Y0183110D01*
G75*
G02*
X0134448Y0182559I0000000J-000551D01*
G01*
X0134448Y0181457D01*
G75*
G02*
X0133897Y0180906I-000551J0000000D01*
G01*
G37*
G36*
G01*
X0126712Y0129016D02*
X0125255Y0129016D01*
G75*
G02*
X0124724Y0129547I0000000J0000531D01*
G01*
X0124724Y0130610D01*
G75*
G02*
X0125255Y0131142I0000531J0000000D01*
G01*
X0126712Y0131142D01*
G75*
G02*
X0127244Y0130610I0000000J-000531D01*
G01*
X0127244Y0129547D01*
G75*
G02*
X0126712Y0129016I-000531J0000000D01*
G01*
G37*
G36*
G01*
X0126712Y0133032D02*
X0125255Y0133032D01*
G75*
G02*
X0124724Y0133563I0000000J0000531D01*
G01*
X0124724Y0134626D01*
G75*
G02*
X0125255Y0135158I0000531J0000000D01*
G01*
X0126712Y0135158D01*
G75*
G02*
X0127244Y0134626I0000000J-000531D01*
G01*
X0127244Y0133563D01*
G75*
G02*
X0126712Y0133032I-000531J0000000D01*
G01*
G37*
G36*
G01*
X0122972Y0144949D02*
X0121516Y0144949D01*
G75*
G02*
X0120984Y0145481I0000000J0000531D01*
G01*
X0120984Y0146544D01*
G75*
G02*
X0121516Y0147075I0000531J0000000D01*
G01*
X0122972Y0147075D01*
G75*
G02*
X0123504Y0146544I0000000J-000531D01*
G01*
X0123504Y0145481D01*
G75*
G02*
X0122972Y0144949I-000531J0000000D01*
G01*
G37*
G36*
G01*
X0122972Y0148965D02*
X0121516Y0148965D01*
G75*
G02*
X0120984Y0149497I0000000J0000531D01*
G01*
X0120984Y0150560D01*
G75*
G02*
X0121516Y0151091I0000531J0000000D01*
G01*
X0122972Y0151091D01*
G75*
G02*
X0123504Y0150560I0000000J-000531D01*
G01*
X0123504Y0149497D01*
G75*
G02*
X0122972Y0148965I-000531J0000000D01*
G01*
G37*
G36*
G01*
X0105216Y0171716D02*
X0101673Y0171716D01*
G75*
G02*
X0100688Y0172700I0000000J0000984D01*
G01*
X0100688Y0174767D01*
G75*
G02*
X0101673Y0175751I0000984J0000000D01*
G01*
X0105216Y0175751D01*
G75*
G02*
X0106200Y0174767I0000000J-000984D01*
G01*
X0106200Y0172700D01*
G75*
G02*
X0105216Y0171716I-000984J0000000D01*
G01*
G37*
G36*
G01*
X0105216Y0178901D02*
X0101673Y0178901D01*
G75*
G02*
X0100688Y0179885I0000000J0000984D01*
G01*
X0100688Y0181952D01*
G75*
G02*
X0101673Y0182936I0000984J0000000D01*
G01*
X0105216Y0182936D01*
G75*
G02*
X0106200Y0181952I0000000J-000984D01*
G01*
X0106200Y0179885D01*
G75*
G02*
X0105216Y0178901I-000984J0000000D01*
G01*
G37*
G36*
G01*
X0134114Y0145000D02*
X0132657Y0145000D01*
G75*
G02*
X0132125Y0145532I0000000J0000531D01*
G01*
X0132125Y0146595D01*
G75*
G02*
X0132657Y0147126I0000531J0000000D01*
G01*
X0134114Y0147126D01*
G75*
G02*
X0134645Y0146595I0000000J-000531D01*
G01*
X0134645Y0145532D01*
G75*
G02*
X0134114Y0145000I-000531J0000000D01*
G01*
G37*
G36*
G01*
X0134114Y0149016D02*
X0132657Y0149016D01*
G75*
G02*
X0132125Y0149547I0000000J0000531D01*
G01*
X0132125Y0150610D01*
G75*
G02*
X0132657Y0151142I0000531J0000000D01*
G01*
X0134114Y0151142D01*
G75*
G02*
X0134645Y0150610I0000000J-000531D01*
G01*
X0134645Y0149547D01*
G75*
G02*
X0134114Y0149016I-000531J0000000D01*
G01*
G37*
G36*
G01*
X0100610Y0135315D02*
X0102066Y0135315D01*
G75*
G02*
X0102598Y0134784I0000000J-000531D01*
G01*
X0102598Y0133721D01*
G75*
G02*
X0102066Y0133189I-000531J0000000D01*
G01*
X0100610Y0133189D01*
G75*
G02*
X0100078Y0133721I0000000J0000531D01*
G01*
X0100078Y0134784D01*
G75*
G02*
X0100610Y0135315I0000531J0000000D01*
G01*
G37*
G36*
G01*
X0100610Y0131299D02*
X0102066Y0131299D01*
G75*
G02*
X0102598Y0130768I0000000J-000531D01*
G01*
X0102598Y0129705D01*
G75*
G02*
X0102066Y0129173I-000531J0000000D01*
G01*
X0100610Y0129173D01*
G75*
G02*
X0100078Y0129705I0000000J0000531D01*
G01*
X0100078Y0130768D01*
G75*
G02*
X0100610Y0131299I0000531J0000000D01*
G01*
G37*
G36*
G01*
X0112559Y0134862D02*
X0114015Y0134862D01*
G75*
G02*
X0114547Y0134331I0000000J-000531D01*
G01*
X0114547Y0133268D01*
G75*
G02*
X0114015Y0132736I-000531J0000000D01*
G01*
X0112559Y0132736D01*
G75*
G02*
X0112027Y0133268I0000000J0000531D01*
G01*
X0112027Y0134331D01*
G75*
G02*
X0112559Y0134862I0000531J0000000D01*
G01*
G37*
G36*
G01*
X0112559Y0130847D02*
X0114015Y0130847D01*
G75*
G02*
X0114547Y0130315I0000000J-000531D01*
G01*
X0114547Y0129252D01*
G75*
G02*
X0114015Y0128721I-000531J0000000D01*
G01*
X0112559Y0128721D01*
G75*
G02*
X0112027Y0129252I0000000J0000531D01*
G01*
X0112027Y0130315D01*
G75*
G02*
X0112559Y0130847I0000531J0000000D01*
G01*
G37*
G36*
G01*
X0126712Y0136398D02*
X0125255Y0136398D01*
G75*
G02*
X0124724Y0136929I0000000J0000531D01*
G01*
X0124724Y0137992D01*
G75*
G02*
X0125255Y0138524I0000531J0000000D01*
G01*
X0126712Y0138524D01*
G75*
G02*
X0127244Y0137992I0000000J-000531D01*
G01*
X0127244Y0136929D01*
G75*
G02*
X0126712Y0136398I-000531J0000000D01*
G01*
G37*
G36*
G01*
X0126712Y0140414D02*
X0125255Y0140414D01*
G75*
G02*
X0124724Y0140945I0000000J0000531D01*
G01*
X0124724Y0142008D01*
G75*
G02*
X0125255Y0142540I0000531J0000000D01*
G01*
X0126712Y0142540D01*
G75*
G02*
X0127244Y0142008I0000000J-000531D01*
G01*
X0127244Y0140945D01*
G75*
G02*
X0126712Y0140414I-000531J0000000D01*
G01*
G37*
G36*
G01*
X0117795Y0128701D02*
X0116456Y0128701D01*
G75*
G02*
X0115905Y0129252I0000000J0000551D01*
G01*
X0115905Y0130355D01*
G75*
G02*
X0116456Y0130906I0000551J0000000D01*
G01*
X0117795Y0130906D01*
G75*
G02*
X0118346Y0130355I0000000J-000551D01*
G01*
X0118346Y0129252D01*
G75*
G02*
X0117795Y0128701I-000551J0000000D01*
G01*
G37*
G36*
G01*
X0117795Y0132481D02*
X0116456Y0132481D01*
G75*
G02*
X0115905Y0133032I0000000J0000551D01*
G01*
X0115905Y0134134D01*
G75*
G02*
X0116456Y0134685I0000551J0000000D01*
G01*
X0117795Y0134685D01*
G75*
G02*
X0118346Y0134134I0000000J-000551D01*
G01*
X0118346Y0133032D01*
G75*
G02*
X0117795Y0132481I-000551J0000000D01*
G01*
G37*
G36*
G01*
X0107580Y0167849D02*
X0107580Y0169187D01*
G75*
G02*
X0108131Y0169739I0000551J0000000D01*
G01*
X0109233Y0169739D01*
G75*
G02*
X0109785Y0169187I0000000J-000551D01*
G01*
X0109785Y0167849D01*
G75*
G02*
X0109233Y0167298I-000551J0000000D01*
G01*
X0108131Y0167298D01*
G75*
G02*
X0107580Y0167849I0000000J0000551D01*
G01*
G37*
G36*
G01*
X0111359Y0167849D02*
X0111359Y0169187D01*
G75*
G02*
X0111910Y0169739I0000551J0000000D01*
G01*
X0113013Y0169739D01*
G75*
G02*
X0113564Y0169187I0000000J-000551D01*
G01*
X0113564Y0167849D01*
G75*
G02*
X0113013Y0167298I-000551J0000000D01*
G01*
X0111910Y0167298D01*
G75*
G02*
X0111359Y0167849I0000000J0000551D01*
G01*
G37*
G36*
G01*
X0121515Y0135355D02*
X0122972Y0135355D01*
G75*
G02*
X0123503Y0134823I0000000J-000531D01*
G01*
X0123503Y0133760D01*
G75*
G02*
X0122972Y0133229I-000531J0000000D01*
G01*
X0121515Y0133229D01*
G75*
G02*
X0120984Y0133760I0000000J0000531D01*
G01*
X0120984Y0134823D01*
G75*
G02*
X0121515Y0135355I0000531J0000000D01*
G01*
G37*
G36*
G01*
X0121515Y0131339D02*
X0122972Y0131339D01*
G75*
G02*
X0123503Y0130807I0000000J-000531D01*
G01*
X0123503Y0129744D01*
G75*
G02*
X0122972Y0129213I-000531J0000000D01*
G01*
X0121515Y0129213D01*
G75*
G02*
X0120984Y0129744I0000000J0000531D01*
G01*
X0120984Y0130807D01*
G75*
G02*
X0121515Y0131339I0000531J0000000D01*
G01*
G37*
G36*
G01*
X0132874Y0152756D02*
X0131692Y0152756D01*
G75*
G02*
X0131102Y0153347I0000000J0000591D01*
G01*
X0131102Y0157382D01*
G75*
G02*
X0131692Y0157973I0000591J0000000D01*
G01*
X0132874Y0157973D01*
G75*
G02*
X0133464Y0157382I0000000J-000591D01*
G01*
X0133464Y0153347D01*
G75*
G02*
X0132874Y0152756I-000591J0000000D01*
G01*
G37*
G36*
G01*
X0129133Y0152756D02*
X0127952Y0152756D01*
G75*
G02*
X0127362Y0153347I0000000J0000591D01*
G01*
X0127362Y0157382D01*
G75*
G02*
X0127952Y0157973I0000591J0000000D01*
G01*
X0129133Y0157973D01*
G75*
G02*
X0129724Y0157382I0000000J-000591D01*
G01*
X0129724Y0153347D01*
G75*
G02*
X0129133Y0152756I-000591J0000000D01*
G01*
G37*
G36*
G01*
X0125393Y0152756D02*
X0124212Y0152756D01*
G75*
G02*
X0123622Y0153347I0000000J0000591D01*
G01*
X0123622Y0157382D01*
G75*
G02*
X0124212Y0157973I0000591J0000000D01*
G01*
X0125393Y0157973D01*
G75*
G02*
X0125984Y0157382I0000000J-000591D01*
G01*
X0125984Y0153347D01*
G75*
G02*
X0125393Y0152756I-000591J0000000D01*
G01*
G37*
G36*
G01*
X0125393Y0161713D02*
X0124212Y0161713D01*
G75*
G02*
X0123622Y0162303I0000000J0000591D01*
G01*
X0123622Y0166339D01*
G75*
G02*
X0124212Y0166929I0000591J0000000D01*
G01*
X0125393Y0166929D01*
G75*
G02*
X0125984Y0166339I0000000J-000591D01*
G01*
X0125984Y0162303D01*
G75*
G02*
X0125393Y0161713I-000591J0000000D01*
G01*
G37*
G36*
G01*
X0132874Y0161713D02*
X0131692Y0161713D01*
G75*
G02*
X0131102Y0162303I0000000J0000591D01*
G01*
X0131102Y0166339D01*
G75*
G02*
X0131692Y0166929I0000591J0000000D01*
G01*
X0132874Y0166929D01*
G75*
G02*
X0133464Y0166339I0000000J-000591D01*
G01*
X0133464Y0162303D01*
G75*
G02*
X0132874Y0161713I-000591J0000000D01*
G01*
G37*
G36*
G01*
X0129055Y0151063D02*
X0130393Y0151063D01*
G75*
G02*
X0130944Y0150512I0000000J-000551D01*
G01*
X0130944Y0149410D01*
G75*
G02*
X0130393Y0148858I-000551J0000000D01*
G01*
X0129055Y0148858D01*
G75*
G02*
X0128503Y0149410I0000000J0000551D01*
G01*
X0128503Y0150512D01*
G75*
G02*
X0129055Y0151063I0000551J0000000D01*
G01*
G37*
G36*
G01*
X0129055Y0147284D02*
X0130393Y0147284D01*
G75*
G02*
X0130944Y0146733I0000000J-000551D01*
G01*
X0130944Y0145630D01*
G75*
G02*
X0130393Y0145079I-000551J0000000D01*
G01*
X0129055Y0145079D01*
G75*
G02*
X0128503Y0145630I0000000J0000551D01*
G01*
X0128503Y0146733D01*
G75*
G02*
X0129055Y0147284I0000551J0000000D01*
G01*
G37*
X0311535Y0004331D02*
G01*
G75*
D123*
X0318129Y0053839D02*
D03*
X0334173Y0052658D02*
D03*
X0341456Y0025591D02*
D03*
X0336299Y0028150D02*
D03*
X0334527Y0034548D02*
D03*
X0341456Y0033268D02*
D03*
X0334232Y0037894D02*
D03*
X0333385Y0041339D02*
D03*
X0341456Y0043504D02*
D03*
X0334232Y0045177D02*
D03*
X0362500Y0276298D02*
G01*
G75*
D374*
X0241831Y0272053D02*
D03*
X0241831Y0251266D02*
D03*
X0241831Y0253864D02*
D03*
X0241831Y0256463D02*
D03*
X0241831Y0259061D02*
D03*
D375*
X0342106Y0219892D02*
D03*
X0346437Y0219892D02*
D03*
X0350768Y0219892D02*
D03*
X0355098Y0219892D02*
D03*
X0247819Y0274861D02*
D03*
X0250417Y0274861D02*
D03*
X0253016Y0274861D02*
D03*
X0255614Y0274861D02*
D03*
X0258213Y0274861D02*
D03*
X0260811Y0274861D02*
D03*
X0267114Y0274861D02*
D03*
X0269713Y0274861D02*
D03*
X0272311Y0274861D02*
D03*
X0276724Y0274861D02*
D03*
X0279322Y0274861D02*
D03*
X0281921Y0274861D02*
D03*
X0284519Y0274861D02*
D03*
X0297614Y0274861D02*
D03*
X0300213Y0274861D02*
D03*
X0302811Y0274861D02*
D03*
X0313228Y0274861D02*
D03*
X0315827Y0274861D02*
D03*
X0318425Y0274861D02*
D03*
X0321024Y0274861D02*
D03*
X0323622Y0274861D02*
D03*
X0326220Y0274861D02*
D03*
X0328819Y0274861D02*
D03*
X0331417Y0274861D02*
D03*
X0334016Y0274861D02*
D03*
X0336614Y0274861D02*
D03*
X0337776Y0219892D02*
D03*
X0333445Y0219892D02*
D03*
X0329114Y0219892D02*
D03*
X0324784Y0219892D02*
D03*
X0320453Y0219892D02*
D03*
X0316122Y0219892D02*
D03*
X0311791Y0219892D02*
D03*
X0307461Y0219892D02*
D03*
X0303130Y0219892D02*
D03*
X0298799Y0219892D02*
D03*
X0294469Y0219892D02*
D03*
X0290138Y0219892D02*
D03*
X0285807Y0219892D02*
D03*
X0281476Y0219892D02*
D03*
X0277146Y0219892D02*
D03*
X0272815Y0219892D02*
D03*
X0268484Y0219892D02*
D03*
X0264154Y0219892D02*
D03*
X0259823Y0219892D02*
D03*
X0255492Y0219892D02*
D03*
X0251162Y0219892D02*
D03*
X0246831Y0219892D02*
D03*
X0365699Y0212613D02*
G01*
G75*
D238*
X0192274Y0097692D02*
D03*
X0188274Y0117692D02*
D03*
X0196274Y0117692D02*
D03*
D375*
X0299616Y0069101D02*
D03*
X0304852Y0069101D02*
D03*
X0203002Y0069101D02*
D03*
X0198672Y0069101D02*
D03*
X0194341Y0069101D02*
D03*
X0340561Y0210554D02*
D03*
X0344892Y0210554D02*
D03*
X0349222Y0210554D02*
D03*
X0353553Y0210554D02*
D03*
X0232294Y0210554D02*
D03*
X0227963Y0210554D02*
D03*
X0222766Y0210554D02*
D03*
X0217569Y0210554D02*
D03*
X0236624Y0210554D02*
D03*
X0240955Y0210554D02*
D03*
X0245286Y0210554D02*
D03*
X0249616Y0210554D02*
D03*
X0253947Y0210554D02*
D03*
X0258278Y0210554D02*
D03*
X0262608Y0210554D02*
D03*
X0266939Y0210554D02*
D03*
X0271270Y0210554D02*
D03*
X0275600Y0210554D02*
D03*
X0279931Y0210554D02*
D03*
X0284262Y0210554D02*
D03*
X0288593Y0210554D02*
D03*
X0292923Y0210554D02*
D03*
X0297254Y0210554D02*
D03*
X0301585Y0210554D02*
D03*
X0305915Y0210554D02*
D03*
X0310246Y0210554D02*
D03*
X0314577Y0210554D02*
D03*
X0318908Y0210554D02*
D03*
X0323238Y0210554D02*
D03*
X0327569Y0210554D02*
D03*
X0302234Y0069101D02*
D03*
X0307845Y0069101D02*
D03*
X0313041Y0069101D02*
D03*
X0318238Y0069101D02*
D03*
X0296998Y0069101D02*
D03*
X0293947Y0069101D02*
D03*
X0289616Y0069101D02*
D03*
X0285286Y0069101D02*
D03*
X0280955Y0069101D02*
D03*
X0276624Y0069101D02*
D03*
X0272294Y0069101D02*
D03*
X0267963Y0069101D02*
D03*
X0263632Y0069101D02*
D03*
X0259301Y0069101D02*
D03*
X0254971Y0069101D02*
D03*
X0250640Y0069101D02*
D03*
X0246309Y0069101D02*
D03*
X0241979Y0069101D02*
D03*
X0237648Y0069101D02*
D03*
X0233317Y0069101D02*
D03*
X0228986Y0069101D02*
D03*
X0224656Y0069101D02*
D03*
X0220325Y0069101D02*
D03*
X0215994Y0069101D02*
D03*
X0211664Y0069101D02*
D03*
X0207333Y0069101D02*
D03*
X0331900Y0210554D02*
D03*
X0336230Y0210554D02*
D03*
X0357884Y0210554D02*
D03*
X0190010Y0069101D02*
D03*
D469*
X0184589Y0163302D02*
D03*
X0184589Y0165900D02*
D03*
X0184589Y0168499D02*
D03*
X0184589Y0171097D02*
D03*
X0184589Y0173696D02*
D03*
X0184589Y0176294D02*
D03*
X0184589Y0178893D02*
D03*
X0184589Y0181491D02*
D03*
X0184589Y0093145D02*
D03*
X0184589Y0090546D02*
D03*
X0184589Y0087948D02*
D03*
X0184589Y0085349D02*
D03*
X0184589Y0095743D02*
D03*
X0184589Y0108735D02*
D03*
X0184589Y0111334D02*
D03*
X0184589Y0113932D02*
D03*
X0184589Y0116530D02*
D03*
X0184589Y0119129D02*
D03*
X0184589Y0121727D02*
D03*
X0184589Y0124326D02*
D03*
X0184589Y0126924D02*
D03*
X0184589Y0129522D02*
D03*
X0184589Y0132121D02*
D03*
X0184589Y0134719D02*
D03*
X0184589Y0137318D02*
D03*
X0184589Y0139916D02*
D03*
X0184589Y0142515D02*
D03*
X0184589Y0145113D02*
D03*
X0184589Y0147711D02*
D03*
X0184589Y0150310D02*
D03*
X0184589Y0152908D02*
D03*
X0184589Y0155507D02*
D03*
X0184589Y0158105D02*
D03*
X0184589Y0160704D02*
D03*
X0363829Y0074030D02*
D03*
X0363829Y0076629D02*
D03*
X0363829Y0079227D02*
D03*
X0363829Y0081826D02*
D03*
X0363829Y0084424D02*
D03*
X0363829Y0087022D02*
D03*
X0363829Y0089621D02*
D03*
X0363829Y0092219D02*
D03*
X0363829Y0068833D02*
D03*
X0363829Y0071432D02*
D03*
X0234055Y0028740D02*
G01*
G75*
D123*
X0202854Y0004331D02*
D03*
X0202559Y0018307D02*
D03*
X0203740Y0023327D02*
D03*
X0207185Y0021260D02*
D03*
X0030709Y0284055D02*
%LPD*%
G01*
D13*
X0057874Y0225787D03*
X0053150Y0225787D03*
X0062599Y0225787D03*
X0067323Y0225787D03*
X0041890Y0282579D03*
X0037953Y0282579D03*
G36*
G01*
X0061303Y0267126D02*
X0060122Y0267126D01*
G75*
G02*
X0059531Y0267716I0000000J0000591D01*
G01*
X0059531Y0271752D01*
G75*
G02*
X0060122Y0272342I0000591J0000000D01*
G01*
X0061303Y0272342D01*
G75*
G02*
X0061893Y0271752I0000000J-000591D01*
G01*
X0061893Y0267716D01*
G75*
G02*
X0061303Y0267126I-000591J0000000D01*
G01*
G37*
G36*
G01*
X0057562Y0267126D02*
X0056381Y0267126D01*
G75*
G02*
X0055791Y0267716I0000000J0000591D01*
G01*
X0055791Y0271752D01*
G75*
G02*
X0056381Y0272342I0000591J0000000D01*
G01*
X0057562Y0272342D01*
G75*
G02*
X0058153Y0271752I0000000J-000591D01*
G01*
X0058153Y0267716D01*
G75*
G02*
X0057562Y0267126I-000591J0000000D01*
G01*
G37*
G36*
G01*
X0053822Y0267126D02*
X0052641Y0267126D01*
G75*
G02*
X0052051Y0267716I0000000J0000591D01*
G01*
X0052051Y0271752D01*
G75*
G02*
X0052641Y0272342I0000591J0000000D01*
G01*
X0053822Y0272342D01*
G75*
G02*
X0054413Y0271752I0000000J-000591D01*
G01*
X0054413Y0267716D01*
G75*
G02*
X0053822Y0267126I-000591J0000000D01*
G01*
G37*
G36*
G01*
X0053822Y0276083D02*
X0052641Y0276083D01*
G75*
G02*
X0052051Y0276673I0000000J0000591D01*
G01*
X0052051Y0280709D01*
G75*
G02*
X0052641Y0281299I0000591J0000000D01*
G01*
X0053822Y0281299D01*
G75*
G02*
X0054413Y0280709I0000000J-000591D01*
G01*
X0054413Y0276673D01*
G75*
G02*
X0053822Y0276083I-000591J0000000D01*
G01*
G37*
G36*
G01*
X0061303Y0276083D02*
X0060122Y0276083D01*
G75*
G02*
X0059531Y0276673I0000000J0000591D01*
G01*
X0059531Y0280709D01*
G75*
G02*
X0060122Y0281299I0000591J0000000D01*
G01*
X0061303Y0281299D01*
G75*
G02*
X0061893Y0280709I0000000J-000591D01*
G01*
X0061893Y0276673D01*
G75*
G02*
X0061303Y0276083I-000591J0000000D01*
G01*
G37*
G36*
G01*
X0039016Y0267401D02*
X0039016Y0266063D01*
G75*
G02*
X0038465Y0265512I-000551J0000000D01*
G01*
X0037363Y0265512D01*
G75*
G02*
X0036811Y0266063I0000000J0000551D01*
G01*
X0036811Y0267401D01*
G75*
G02*
X0037363Y0267953I0000551J0000000D01*
G01*
X0038465Y0267953D01*
G75*
G02*
X0039016Y0267401I0000000J-000551D01*
G01*
G37*
G36*
G01*
X0035237Y0267401D02*
X0035237Y0266063D01*
G75*
G02*
X0034685Y0265512I-000551J0000000D01*
G01*
X0033583Y0265512D01*
G75*
G02*
X0033032Y0266063I0000000J0000551D01*
G01*
X0033032Y0267401D01*
G75*
G02*
X0033583Y0267953I0000551J0000000D01*
G01*
X0034685Y0267953D01*
G75*
G02*
X0035237Y0267401I0000000J-000551D01*
G01*
G37*
G36*
G01*
X0061733Y0240886D02*
X0063071Y0240886D01*
G75*
G02*
X0063622Y0240335I0000000J-000551D01*
G01*
X0063622Y0239232D01*
G75*
G02*
X0063071Y0238681I-000551J0000000D01*
G01*
X0061733Y0238681D01*
G75*
G02*
X0061181Y0239232I0000000J0000551D01*
G01*
X0061181Y0240335D01*
G75*
G02*
X0061733Y0240886I0000551J0000000D01*
G01*
G37*
G36*
G01*
X0061733Y0237106D02*
X0063071Y0237106D01*
G75*
G02*
X0063622Y0236555I0000000J-000551D01*
G01*
X0063622Y0235453D01*
G75*
G02*
X0063071Y0234901I-000551J0000000D01*
G01*
X0061733Y0234901D01*
G75*
G02*
X0061181Y0235453I0000000J0000551D01*
G01*
X0061181Y0236555D01*
G75*
G02*
X0061733Y0237106I0000551J0000000D01*
G01*
G37*
G36*
G01*
X0066733Y0227539D02*
X0065394Y0227539D01*
G75*
G02*
X0064843Y0228090I0000000J0000551D01*
G01*
X0064843Y0229193D01*
G75*
G02*
X0065394Y0229744I0000551J0000000D01*
G01*
X0066733Y0229744D01*
G75*
G02*
X0067284Y0229193I0000000J-000551D01*
G01*
X0067284Y0228090D01*
G75*
G02*
X0066733Y0227539I-000551J0000000D01*
G01*
G37*
G36*
G01*
X0066733Y0231319D02*
X0065394Y0231319D01*
G75*
G02*
X0064843Y0231870I0000000J0000551D01*
G01*
X0064843Y0232972D01*
G75*
G02*
X0065394Y0233524I0000551J0000000D01*
G01*
X0066733Y0233524D01*
G75*
G02*
X0067284Y0232972I0000000J-000551D01*
G01*
X0067284Y0231870D01*
G75*
G02*
X0066733Y0231319I-000551J0000000D01*
G01*
G37*
G36*
G01*
X0057992Y0249291D02*
X0059331Y0249291D01*
G75*
G02*
X0059882Y0248740I0000000J-000551D01*
G01*
X0059882Y0247638D01*
G75*
G02*
X0059331Y0247086I-000551J0000000D01*
G01*
X0057992Y0247086D01*
G75*
G02*
X0057441Y0247638I0000000J0000551D01*
G01*
X0057441Y0248740D01*
G75*
G02*
X0057992Y0249291I0000551J0000000D01*
G01*
G37*
G36*
G01*
X0057992Y0245512D02*
X0059331Y0245512D01*
G75*
G02*
X0059882Y0244961I0000000J-000551D01*
G01*
X0059882Y0243858D01*
G75*
G02*
X0059331Y0243307I-000551J0000000D01*
G01*
X0057992Y0243307D01*
G75*
G02*
X0057441Y0243858I0000000J0000551D01*
G01*
X0057441Y0244961D01*
G75*
G02*
X0057992Y0245512I0000551J0000000D01*
G01*
G37*
G36*
G01*
X0063071Y0227736D02*
X0061733Y0227736D01*
G75*
G02*
X0061181Y0228287I0000000J0000551D01*
G01*
X0061181Y0229390D01*
G75*
G02*
X0061733Y0229941I0000551J0000000D01*
G01*
X0063071Y0229941D01*
G75*
G02*
X0063622Y0229390I0000000J-000551D01*
G01*
X0063622Y0228287D01*
G75*
G02*
X0063071Y0227736I-000551J0000000D01*
G01*
G37*
G36*
G01*
X0063071Y0231516D02*
X0061733Y0231516D01*
G75*
G02*
X0061181Y0232067I0000000J0000551D01*
G01*
X0061181Y0233169D01*
G75*
G02*
X0061733Y0233720I0000551J0000000D01*
G01*
X0063071Y0233720D01*
G75*
G02*
X0063622Y0233169I0000000J-000551D01*
G01*
X0063622Y0232067D01*
G75*
G02*
X0063071Y0231516I-000551J0000000D01*
G01*
G37*
G36*
G01*
X0041555Y0233012D02*
X0042894Y0233012D01*
G75*
G02*
X0043445Y0232461I0000000J-000551D01*
G01*
X0043445Y0231358D01*
G75*
G02*
X0042894Y0230807I-000551J0000000D01*
G01*
X0041555Y0230807D01*
G75*
G02*
X0041004Y0231358I0000000J0000551D01*
G01*
X0041004Y0232461D01*
G75*
G02*
X0041555Y0233012I0000551J0000000D01*
G01*
G37*
G36*
G01*
X0041555Y0229232D02*
X0042894Y0229232D01*
G75*
G02*
X0043445Y0228681I0000000J-000551D01*
G01*
X0043445Y0227579D01*
G75*
G02*
X0042894Y0227027I-000551J0000000D01*
G01*
X0041555Y0227027D01*
G75*
G02*
X0041004Y0227579I0000000J0000551D01*
G01*
X0041004Y0228681D01*
G75*
G02*
X0041555Y0229232I0000551J0000000D01*
G01*
G37*
G36*
G01*
X0034055Y0263521D02*
X0034843Y0263521D01*
G75*
G02*
X0035237Y0263127I0000000J-000394D01*
G01*
X0035237Y0258107D01*
G75*
G02*
X0034843Y0257714I-000394J0000000D01*
G01*
X0034055Y0257714D01*
G75*
G02*
X0033662Y0258107I0000000J0000394D01*
G01*
X0033662Y0263127D01*
G75*
G02*
X0034055Y0263521I0000394J0000000D01*
G01*
G37*
G36*
G01*
X0036615Y0263521D02*
X0037402Y0263521D01*
G75*
G02*
X0037796Y0263127I0000000J-000394D01*
G01*
X0037796Y0258107D01*
G75*
G02*
X0037402Y0257714I-000394J0000000D01*
G01*
X0036615Y0257714D01*
G75*
G02*
X0036221Y0258107I0000000J0000394D01*
G01*
X0036221Y0263127D01*
G75*
G02*
X0036615Y0263521I0000394J0000000D01*
G01*
G37*
G36*
G01*
X0039174Y0263521D02*
X0039961Y0263521D01*
G75*
G02*
X0040355Y0263127I0000000J-000394D01*
G01*
X0040355Y0258107D01*
G75*
G02*
X0039961Y0257714I-000394J0000000D01*
G01*
X0039174Y0257714D01*
G75*
G02*
X0038780Y0258107I0000000J0000394D01*
G01*
X0038780Y0263127D01*
G75*
G02*
X0039174Y0263521I0000394J0000000D01*
G01*
G37*
G36*
G01*
X0041733Y0263521D02*
X0042520Y0263521D01*
G75*
G02*
X0042914Y0263127I0000000J-000394D01*
G01*
X0042914Y0258107D01*
G75*
G02*
X0042520Y0257714I-000394J0000000D01*
G01*
X0041733Y0257714D01*
G75*
G02*
X0041339Y0258107I0000000J0000394D01*
G01*
X0041339Y0263127D01*
G75*
G02*
X0041733Y0263521I0000394J0000000D01*
G01*
G37*
G36*
G01*
X0044292Y0263521D02*
X0045079Y0263521D01*
G75*
G02*
X0045473Y0263127I0000000J-000394D01*
G01*
X0045473Y0258107D01*
G75*
G02*
X0045079Y0257714I-000394J0000000D01*
G01*
X0044292Y0257714D01*
G75*
G02*
X0043898Y0258107I0000000J0000394D01*
G01*
X0043898Y0263127D01*
G75*
G02*
X0044292Y0263521I0000394J0000000D01*
G01*
G37*
G36*
G01*
X0046851Y0263521D02*
X0047638Y0263521D01*
G75*
G02*
X0048032Y0263127I0000000J-000394D01*
G01*
X0048032Y0258107D01*
G75*
G02*
X0047638Y0257714I-000394J0000000D01*
G01*
X0046851Y0257714D01*
G75*
G02*
X0046457Y0258107I0000000J0000394D01*
G01*
X0046457Y0263127D01*
G75*
G02*
X0046851Y0263521I0000394J0000000D01*
G01*
G37*
G36*
G01*
X0049410Y0263521D02*
X0050197Y0263521D01*
G75*
G02*
X0050591Y0263127I0000000J-000394D01*
G01*
X0050591Y0258107D01*
G75*
G02*
X0050197Y0257714I-000394J0000000D01*
G01*
X0049410Y0257714D01*
G75*
G02*
X0049016Y0258107I0000000J0000394D01*
G01*
X0049016Y0263127D01*
G75*
G02*
X0049410Y0263521I0000394J0000000D01*
G01*
G37*
G36*
G01*
X0049410Y0240981D02*
X0050197Y0240981D01*
G75*
G02*
X0050591Y0240588I0000000J-000394D01*
G01*
X0050591Y0235568D01*
G75*
G02*
X0050197Y0235174I-000394J0000000D01*
G01*
X0049410Y0235174D01*
G75*
G02*
X0049016Y0235568I0000000J0000394D01*
G01*
X0049016Y0240588D01*
G75*
G02*
X0049410Y0240981I0000394J0000000D01*
G01*
G37*
G36*
G01*
X0046851Y0240981D02*
X0047638Y0240981D01*
G75*
G02*
X0048032Y0240588I0000000J-000394D01*
G01*
X0048032Y0235568D01*
G75*
G02*
X0047638Y0235174I-000394J0000000D01*
G01*
X0046851Y0235174D01*
G75*
G02*
X0046457Y0235568I0000000J0000394D01*
G01*
X0046457Y0240588D01*
G75*
G02*
X0046851Y0240981I0000394J0000000D01*
G01*
G37*
G36*
G01*
X0044292Y0240981D02*
X0045079Y0240981D01*
G75*
G02*
X0045473Y0240588I0000000J-000394D01*
G01*
X0045473Y0235568D01*
G75*
G02*
X0045079Y0235174I-000394J0000000D01*
G01*
X0044292Y0235174D01*
G75*
G02*
X0043898Y0235568I0000000J0000394D01*
G01*
X0043898Y0240588D01*
G75*
G02*
X0044292Y0240981I0000394J0000000D01*
G01*
G37*
G36*
G01*
X0041733Y0240981D02*
X0042520Y0240981D01*
G75*
G02*
X0042914Y0240588I0000000J-000394D01*
G01*
X0042914Y0235568D01*
G75*
G02*
X0042520Y0235174I-000394J0000000D01*
G01*
X0041733Y0235174D01*
G75*
G02*
X0041339Y0235568I0000000J0000394D01*
G01*
X0041339Y0240588D01*
G75*
G02*
X0041733Y0240981I0000394J0000000D01*
G01*
G37*
G36*
G01*
X0039174Y0240981D02*
X0039961Y0240981D01*
G75*
G02*
X0040355Y0240588I0000000J-000394D01*
G01*
X0040355Y0235568D01*
G75*
G02*
X0039961Y0235174I-000394J0000000D01*
G01*
X0039174Y0235174D01*
G75*
G02*
X0038780Y0235568I0000000J0000394D01*
G01*
X0038780Y0240588D01*
G75*
G02*
X0039174Y0240981I0000394J0000000D01*
G01*
G37*
G36*
G01*
X0036615Y0240981D02*
X0037402Y0240981D01*
G75*
G02*
X0037796Y0240588I0000000J-000394D01*
G01*
X0037796Y0235568D01*
G75*
G02*
X0037402Y0235174I-000394J0000000D01*
G01*
X0036615Y0235174D01*
G75*
G02*
X0036221Y0235568I0000000J0000394D01*
G01*
X0036221Y0240588D01*
G75*
G02*
X0036615Y0240981I0000394J0000000D01*
G01*
G37*
G36*
G01*
X0034055Y0240981D02*
X0034843Y0240981D01*
G75*
G02*
X0035237Y0240588I0000000J-000394D01*
G01*
X0035237Y0235568D01*
G75*
G02*
X0034843Y0235174I-000394J0000000D01*
G01*
X0034055Y0235174D01*
G75*
G02*
X0033662Y0235568I0000000J0000394D01*
G01*
X0033662Y0240588D01*
G75*
G02*
X0034055Y0240981I0000394J0000000D01*
G01*
G37*
G36*
G01*
X0041926Y0281164D02*
X0045469Y0281164D01*
G75*
G02*
X0046453Y0280180I0000000J-000984D01*
G01*
X0046453Y0278113D01*
G75*
G02*
X0045469Y0277129I-000984J0000000D01*
G01*
X0041926Y0277129D01*
G75*
G02*
X0040941Y0278113I0000000J0000984D01*
G01*
X0040941Y0280180D01*
G75*
G02*
X0041926Y0281164I0000984J0000000D01*
G01*
G37*
G36*
G01*
X0041926Y0273979D02*
X0045469Y0273979D01*
G75*
G02*
X0046453Y0272995I0000000J-000984D01*
G01*
X0046453Y0270928D01*
G75*
G02*
X0045469Y0269944I-000984J0000000D01*
G01*
X0041926Y0269944D01*
G75*
G02*
X0040941Y0270928I0000000J0000984D01*
G01*
X0040941Y0272995D01*
G75*
G02*
X0041926Y0273979I0000984J0000000D01*
G01*
G37*
G36*
G01*
X0055650Y0234921D02*
X0054193Y0234921D01*
G75*
G02*
X0053662Y0235453I0000000J0000531D01*
G01*
X0053662Y0236516D01*
G75*
G02*
X0054193Y0237047I0000531J0000000D01*
G01*
X0055650Y0237047D01*
G75*
G02*
X0056181Y0236516I0000000J-000531D01*
G01*
X0056181Y0235453D01*
G75*
G02*
X0055650Y0234921I-000531J0000000D01*
G01*
G37*
G36*
G01*
X0055650Y0238937D02*
X0054193Y0238937D01*
G75*
G02*
X0053662Y0239468I0000000J0000531D01*
G01*
X0053662Y0240531D01*
G75*
G02*
X0054193Y0241063I0000531J0000000D01*
G01*
X0055650Y0241063D01*
G75*
G02*
X0056181Y0240531I0000000J-000531D01*
G01*
X0056181Y0239468D01*
G75*
G02*
X0055650Y0238937I-000531J0000000D01*
G01*
G37*
G36*
G01*
X0066575Y0275354D02*
X0065237Y0275354D01*
G75*
G02*
X0064685Y0275905I0000000J0000551D01*
G01*
X0064685Y0277008D01*
G75*
G02*
X0065237Y0277559I0000551J0000000D01*
G01*
X0066575Y0277559D01*
G75*
G02*
X0067126Y0277008I0000000J-000551D01*
G01*
X0067126Y0275905D01*
G75*
G02*
X0066575Y0275354I-000551J0000000D01*
G01*
G37*
G36*
G01*
X0066575Y0279134D02*
X0065237Y0279134D01*
G75*
G02*
X0064685Y0279685I0000000J0000551D01*
G01*
X0064685Y0280787D01*
G75*
G02*
X0065237Y0281338I0000551J0000000D01*
G01*
X0066575Y0281338D01*
G75*
G02*
X0067126Y0280787I0000000J-000551D01*
G01*
X0067126Y0279685D01*
G75*
G02*
X0066575Y0279134I-000551J0000000D01*
G01*
G37*
G36*
G01*
X0059390Y0227244D02*
X0057933Y0227244D01*
G75*
G02*
X0057402Y0227775I0000000J0000531D01*
G01*
X0057402Y0228838D01*
G75*
G02*
X0057933Y0229370I0000531J0000000D01*
G01*
X0059390Y0229370D01*
G75*
G02*
X0059922Y0228838I0000000J-000531D01*
G01*
X0059922Y0227775D01*
G75*
G02*
X0059390Y0227244I-000531J0000000D01*
G01*
G37*
G36*
G01*
X0059390Y0231260D02*
X0057933Y0231260D01*
G75*
G02*
X0057402Y0231791I0000000J0000531D01*
G01*
X0057402Y0232854D01*
G75*
G02*
X0057933Y0233386I0000531J0000000D01*
G01*
X0059390Y0233386D01*
G75*
G02*
X0059922Y0232854I0000000J-000531D01*
G01*
X0059922Y0231791D01*
G75*
G02*
X0059390Y0231260I-000531J0000000D01*
G01*
G37*
G36*
G01*
X0055650Y0243177D02*
X0054194Y0243177D01*
G75*
G02*
X0053662Y0243709I0000000J0000531D01*
G01*
X0053662Y0244772D01*
G75*
G02*
X0054194Y0245303I0000531J0000000D01*
G01*
X0055650Y0245303D01*
G75*
G02*
X0056182Y0244772I0000000J-000531D01*
G01*
X0056182Y0243709D01*
G75*
G02*
X0055650Y0243177I-000531J0000000D01*
G01*
G37*
G36*
G01*
X0055650Y0247193D02*
X0054194Y0247193D01*
G75*
G02*
X0053662Y0247725I0000000J0000531D01*
G01*
X0053662Y0248788D01*
G75*
G02*
X0054194Y0249319I0000531J0000000D01*
G01*
X0055650Y0249319D01*
G75*
G02*
X0056182Y0248788I0000000J-000531D01*
G01*
X0056182Y0247725D01*
G75*
G02*
X0055650Y0247193I-000531J0000000D01*
G01*
G37*
G36*
G01*
X0037894Y0269944D02*
X0034351Y0269944D01*
G75*
G02*
X0033366Y0270928I0000000J0000984D01*
G01*
X0033366Y0272995D01*
G75*
G02*
X0034351Y0273979I0000984J0000000D01*
G01*
X0037894Y0273979D01*
G75*
G02*
X0038878Y0272995I0000000J-000984D01*
G01*
X0038878Y0270928D01*
G75*
G02*
X0037894Y0269944I-000984J0000000D01*
G01*
G37*
G36*
G01*
X0037894Y0277129D02*
X0034351Y0277129D01*
G75*
G02*
X0033366Y0278113I0000000J0000984D01*
G01*
X0033366Y0280180D01*
G75*
G02*
X0034351Y0281164I0000984J0000000D01*
G01*
X0037894Y0281164D01*
G75*
G02*
X0038878Y0280180I0000000J-000984D01*
G01*
X0038878Y0278113D01*
G75*
G02*
X0037894Y0277129I-000984J0000000D01*
G01*
G37*
G36*
G01*
X0066792Y0243228D02*
X0065335Y0243228D01*
G75*
G02*
X0064803Y0243760I0000000J0000531D01*
G01*
X0064803Y0244823D01*
G75*
G02*
X0065335Y0245354I0000531J0000000D01*
G01*
X0066792Y0245354D01*
G75*
G02*
X0067323Y0244823I0000000J-000531D01*
G01*
X0067323Y0243760D01*
G75*
G02*
X0066792Y0243228I-000531J0000000D01*
G01*
G37*
G36*
G01*
X0066792Y0247244D02*
X0065335Y0247244D01*
G75*
G02*
X0064803Y0247775I0000000J0000531D01*
G01*
X0064803Y0248838D01*
G75*
G02*
X0065335Y0249370I0000531J0000000D01*
G01*
X0066792Y0249370D01*
G75*
G02*
X0067323Y0248838I0000000J-000531D01*
G01*
X0067323Y0247775D01*
G75*
G02*
X0066792Y0247244I-000531J0000000D01*
G01*
G37*
G36*
G01*
X0033288Y0233543D02*
X0034744Y0233543D01*
G75*
G02*
X0035276Y0233012I0000000J-000531D01*
G01*
X0035276Y0231949D01*
G75*
G02*
X0034744Y0231417I-000531J0000000D01*
G01*
X0033288Y0231417D01*
G75*
G02*
X0032756Y0231949I0000000J0000531D01*
G01*
X0032756Y0233012D01*
G75*
G02*
X0033288Y0233543I0000531J0000000D01*
G01*
G37*
G36*
G01*
X0033288Y0229527D02*
X0034744Y0229527D01*
G75*
G02*
X0035276Y0228996I0000000J-000531D01*
G01*
X0035276Y0227933D01*
G75*
G02*
X0034744Y0227401I-000531J0000000D01*
G01*
X0033288Y0227401D01*
G75*
G02*
X0032756Y0227933I0000000J0000531D01*
G01*
X0032756Y0228996D01*
G75*
G02*
X0033288Y0229527I0000531J0000000D01*
G01*
G37*
G36*
G01*
X0045237Y0233090D02*
X0046693Y0233090D01*
G75*
G02*
X0047225Y0232559I0000000J-000531D01*
G01*
X0047225Y0231496D01*
G75*
G02*
X0046693Y0230964I-000531J0000000D01*
G01*
X0045237Y0230964D01*
G75*
G02*
X0044705Y0231496I0000000J0000531D01*
G01*
X0044705Y0232559D01*
G75*
G02*
X0045237Y0233090I0000531J0000000D01*
G01*
G37*
G36*
G01*
X0045237Y0229075D02*
X0046693Y0229075D01*
G75*
G02*
X0047225Y0228543I0000000J-000531D01*
G01*
X0047225Y0227480D01*
G75*
G02*
X0046693Y0226949I-000531J0000000D01*
G01*
X0045237Y0226949D01*
G75*
G02*
X0044705Y0227480I0000000J0000531D01*
G01*
X0044705Y0228543D01*
G75*
G02*
X0045237Y0229075I0000531J0000000D01*
G01*
G37*
G36*
G01*
X0059390Y0234626D02*
X0057933Y0234626D01*
G75*
G02*
X0057402Y0235157I0000000J0000531D01*
G01*
X0057402Y0236220D01*
G75*
G02*
X0057933Y0236752I0000531J0000000D01*
G01*
X0059390Y0236752D01*
G75*
G02*
X0059922Y0236220I0000000J-000531D01*
G01*
X0059922Y0235157D01*
G75*
G02*
X0059390Y0234626I-000531J0000000D01*
G01*
G37*
G36*
G01*
X0059390Y0238642D02*
X0057933Y0238642D01*
G75*
G02*
X0057402Y0239173I0000000J0000531D01*
G01*
X0057402Y0240236D01*
G75*
G02*
X0057933Y0240768I0000531J0000000D01*
G01*
X0059390Y0240768D01*
G75*
G02*
X0059922Y0240236I0000000J-000531D01*
G01*
X0059922Y0239173D01*
G75*
G02*
X0059390Y0238642I-000531J0000000D01*
G01*
G37*
G36*
G01*
X0050473Y0226929D02*
X0049134Y0226929D01*
G75*
G02*
X0048583Y0227480I0000000J0000551D01*
G01*
X0048583Y0228583D01*
G75*
G02*
X0049134Y0229134I0000551J0000000D01*
G01*
X0050473Y0229134D01*
G75*
G02*
X0051024Y0228583I0000000J-000551D01*
G01*
X0051024Y0227480D01*
G75*
G02*
X0050473Y0226929I-000551J0000000D01*
G01*
G37*
G36*
G01*
X0050473Y0230709D02*
X0049134Y0230709D01*
G75*
G02*
X0048583Y0231260I0000000J0000551D01*
G01*
X0048583Y0232362D01*
G75*
G02*
X0049134Y0232913I0000551J0000000D01*
G01*
X0050473Y0232913D01*
G75*
G02*
X0051024Y0232362I0000000J-000551D01*
G01*
X0051024Y0231260D01*
G75*
G02*
X0050473Y0230709I-000551J0000000D01*
G01*
G37*
G36*
G01*
X0040258Y0266077D02*
X0040258Y0267415D01*
G75*
G02*
X0040809Y0267967I0000551J0000000D01*
G01*
X0041911Y0267967D01*
G75*
G02*
X0042463Y0267415I0000000J-000551D01*
G01*
X0042463Y0266077D01*
G75*
G02*
X0041911Y0265526I-000551J0000000D01*
G01*
X0040809Y0265526D01*
G75*
G02*
X0040258Y0266077I0000000J0000551D01*
G01*
G37*
G36*
G01*
X0044037Y0266077D02*
X0044037Y0267415D01*
G75*
G02*
X0044588Y0267967I0000551J0000000D01*
G01*
X0045691Y0267967D01*
G75*
G02*
X0046242Y0267415I0000000J-000551D01*
G01*
X0046242Y0266077D01*
G75*
G02*
X0045691Y0265526I-000551J0000000D01*
G01*
X0044588Y0265526D01*
G75*
G02*
X0044037Y0266077I0000000J0000551D01*
G01*
G37*
G36*
G01*
X0054193Y0233583D02*
X0055650Y0233583D01*
G75*
G02*
X0056181Y0233051I0000000J-000531D01*
G01*
X0056181Y0231988D01*
G75*
G02*
X0055650Y0231457I-000531J0000000D01*
G01*
X0054193Y0231457D01*
G75*
G02*
X0053662Y0231988I0000000J0000531D01*
G01*
X0053662Y0233051D01*
G75*
G02*
X0054193Y0233583I0000531J0000000D01*
G01*
G37*
G36*
G01*
X0054193Y0229567D02*
X0055650Y0229567D01*
G75*
G02*
X0056181Y0229035I0000000J-000531D01*
G01*
X0056181Y0227972D01*
G75*
G02*
X0055650Y0227441I-000531J0000000D01*
G01*
X0054193Y0227441D01*
G75*
G02*
X0053662Y0227972I0000000J0000531D01*
G01*
X0053662Y0229035D01*
G75*
G02*
X0054193Y0229567I0000531J0000000D01*
G01*
G37*
G36*
G01*
X0065552Y0250984D02*
X0064370Y0250984D01*
G75*
G02*
X0063780Y0251575I0000000J0000591D01*
G01*
X0063780Y0255610D01*
G75*
G02*
X0064370Y0256201I0000591J0000000D01*
G01*
X0065552Y0256201D01*
G75*
G02*
X0066142Y0255610I0000000J-000591D01*
G01*
X0066142Y0251575D01*
G75*
G02*
X0065552Y0250984I-000591J0000000D01*
G01*
G37*
G36*
G01*
X0061811Y0250984D02*
X0060630Y0250984D01*
G75*
G02*
X0060040Y0251575I0000000J0000591D01*
G01*
X0060040Y0255610D01*
G75*
G02*
X0060630Y0256201I0000591J0000000D01*
G01*
X0061811Y0256201D01*
G75*
G02*
X0062402Y0255610I0000000J-000591D01*
G01*
X0062402Y0251575D01*
G75*
G02*
X0061811Y0250984I-000591J0000000D01*
G01*
G37*
G36*
G01*
X0058071Y0250984D02*
X0056890Y0250984D01*
G75*
G02*
X0056300Y0251575I0000000J0000591D01*
G01*
X0056300Y0255610D01*
G75*
G02*
X0056890Y0256201I0000591J0000000D01*
G01*
X0058071Y0256201D01*
G75*
G02*
X0058662Y0255610I0000000J-000591D01*
G01*
X0058662Y0251575D01*
G75*
G02*
X0058071Y0250984I-000591J0000000D01*
G01*
G37*
G36*
G01*
X0058071Y0259941D02*
X0056890Y0259941D01*
G75*
G02*
X0056300Y0260531I0000000J0000591D01*
G01*
X0056300Y0264567D01*
G75*
G02*
X0056890Y0265157I0000591J0000000D01*
G01*
X0058071Y0265157D01*
G75*
G02*
X0058662Y0264567I0000000J-000591D01*
G01*
X0058662Y0260531D01*
G75*
G02*
X0058071Y0259941I-000591J0000000D01*
G01*
G37*
G36*
G01*
X0065552Y0259941D02*
X0064370Y0259941D01*
G75*
G02*
X0063780Y0260531I0000000J0000591D01*
G01*
X0063780Y0264567D01*
G75*
G02*
X0064370Y0265157I0000591J0000000D01*
G01*
X0065552Y0265157D01*
G75*
G02*
X0066142Y0264567I0000000J-000591D01*
G01*
X0066142Y0260531D01*
G75*
G02*
X0065552Y0259941I-000591J0000000D01*
G01*
G37*
G36*
G01*
X0061733Y0249291D02*
X0063071Y0249291D01*
G75*
G02*
X0063622Y0248740I0000000J-000551D01*
G01*
X0063622Y0247638D01*
G75*
G02*
X0063071Y0247086I-000551J0000000D01*
G01*
X0061733Y0247086D01*
G75*
G02*
X0061181Y0247638I0000000J0000551D01*
G01*
X0061181Y0248740D01*
G75*
G02*
X0061733Y0249291I0000551J0000000D01*
G01*
G37*
G36*
G01*
X0061733Y0245512D02*
X0063071Y0245512D01*
G75*
G02*
X0063622Y0244961I0000000J-000551D01*
G01*
X0063622Y0243858D01*
G75*
G02*
X0063071Y0243307I-000551J0000000D01*
G01*
X0061733Y0243307D01*
G75*
G02*
X0061181Y0243858I0000000J0000551D01*
G01*
X0061181Y0244961D01*
G75*
G02*
X0061733Y0245512I0000551J0000000D01*
G01*
G37*
X0378819Y0298622D02*
G01*
G75*
D123*
X0372323Y0334055D02*
D03*
X0368583Y0334055D02*
D03*
X0376063Y0334055D02*
D03*
X0372126Y0299803D02*
D03*
X0368583Y0299803D02*
D03*
D282*
X0368583Y0326575D02*
D03*
X0368583Y0330512D02*
D03*
X0368583Y0315452D02*
D03*
X0368583Y0311515D02*
D03*
X0368583Y0307086D02*
D03*
X0368583Y0303149D02*
D03*
X0375866Y0326575D02*
D03*
X0375866Y0330512D02*
D03*
D485*
X0376063Y0323190D02*
D03*
X0372520Y0323190D02*
D03*
D307*
X0369350Y0319305D02*
D03*
X0375571Y0319305D02*
D03*
D486*
X0372520Y0306693D02*
D03*
X0372520Y0303150D02*
D03*
X0376063Y0315059D02*
D03*
X0376063Y0311516D02*
D03*
X0372462Y0329921D02*
D03*
X0372462Y0326378D02*
D03*
X0376063Y0303150D02*
D03*
X0376063Y0306693D02*
D03*
M02*
