M48
INCH,TZ
T01C0.011800
T02C0.024600
T03C0.032500
T04C0.039200
T05C0.074800
T06C0.098400
T07C0.137800
%
T01
X10461Y9611
X10461Y8843
X10461Y7820
X10976Y9355
X11154Y8715
X11183Y7652
X11183Y8381
X11189Y6904
X11268Y8036
X12793Y6786
X13957Y9596
X13957Y8829
X13957Y7805
X14472Y9341
X14650Y8701
X14679Y7638
X14679Y8366
X14685Y6890
X14764Y8022
X16289Y6772
X197Y34528
X197Y11772
X276Y30276
X354Y40669
X488Y11536
X512Y11102
X531Y44587
X591Y12559
X827Y38189
X827Y28386
X976Y35735
X984Y18701
X984Y18346
X1102Y29606
X1142Y32205
X1142Y29291
X1181Y11339
X1220Y31220
X1299Y23133
X1378Y30472
X1488Y27961
X1496Y5118
X1614Y22758
X1614Y22443
X1614Y6299
X1654Y12520
X1810Y11554
X1811Y35315
X1850Y16378
X1850Y5472
X1949Y42264
X1957Y12884
X1969Y12441
X1969Y31929
X2008Y26855
X2008Y31142
X2008Y7677
X2087Y30669
X2165Y19724
X2205Y6772
X2207Y28235
X2210Y26607
X2283Y31929
X2322Y27085
X2441Y12362
X2441Y12047
X2551Y28444
X2562Y27290
X2568Y12844
X2598Y30669
X2677Y5866
X2776Y19508
X2795Y20000
X2799Y27496
X2807Y10269
X2850Y19094
X2874Y17913
X2874Y16732
X2908Y21443
X2910Y31901
X2953Y7520
X2977Y20605
X3031Y21732
X3113Y27520
X3150Y6772
X3189Y28425
X3189Y32047
X3189Y22506
X3307Y13110
X3404Y12642
X3425Y22244
X3425Y15787
X3426Y21204
X3465Y12165
X3491Y29264
X3534Y20009
X3552Y26434
X3613Y26024
X3659Y20655
X3701Y30433
X3780Y28740
X3858Y18228
X4016Y29873
X4213Y19291
X4291Y30551
X4409Y16181
X4449Y25118
X4487Y21497
X4527Y20868
X4801Y28152
X4843Y30394
X4882Y31024
X4882Y19055
X4891Y29882
X4982Y20864
X5276Y30630
X5276Y28543
X5355Y29321
X5394Y11969
X5465Y18324
X5512Y32323
X5817Y19134
X5945Y34724
X6043Y44547
X6110Y12207
X6120Y34446
X6124Y28207
X6142Y29945
X6142Y18898
X6247Y29264
X6278Y32374
X6546Y30247
X6766Y30662
X6818Y27592
X6850Y32323
X6968Y29841
X6969Y28110
X7165Y30394
X7166Y27606
X7244Y14291
X7424Y30573
X7532Y28167
X7559Y35315
X7606Y31064
X7662Y27625
X7795Y32166
X7834Y29980
X7835Y11890
X7911Y27207
X8124Y30211
X8228Y29291
X8228Y28110
X8306Y29905
X8346Y30434
X8346Y27520
X8386Y32165
X8386Y14016
X8504Y27244
X8543Y26929
X8740Y11850
X8781Y30209
X8839Y42264
X8839Y40551
X8890Y34409
X8897Y30907
X8937Y14646
X8976Y28228
X9000Y34704
X9016Y32244
X9016Y13031
X9212Y35069
X9331Y29055
X9370Y29528
X9466Y13668
X9483Y5468
X9488Y3661
X9488Y3071
X9528Y30897
X9567Y14252
X9646Y16260
X9702Y28165
X9724Y5669
X10000Y30394
X10000Y9173
X10007Y32267
X10010Y19842
X10023Y28195
X10039Y10984
X10118Y35433
X10118Y28740
X10118Y26457
X10118Y10157
X10157Y13740
X10236Y15748
X10269Y15039
X10310Y14033
X10315Y20079
X10335Y19280
X10363Y14559
X10394Y18494
X10411Y11959
X10512Y27201
X10669Y20551
X10709Y35354
X10748Y21338
X10748Y20039
X10801Y12093
X10844Y28543
X10984Y20354
X11024Y22480
X11079Y26051
X11102Y23071
X11125Y44567
X11161Y29823
X11260Y26851
X11299Y28031
X11299Y2323
X11339Y25118
X11339Y24252
X11339Y827
X11350Y16496
X11368Y26260
X11378Y28583
X11417Y5787
X11418Y27481
X11575Y14803
X11575Y14094
X11771Y35754
X11922Y27539
X11936Y5788
X11969Y12008
X12008Y33110
X12087Y34134
X12094Y32808
X12119Y31025
X12120Y20380
X12165Y35076
X12166Y20013
X12244Y12165
X12283Y20669
X12362Y27598
X12382Y2324
X12441Y12442
X12441Y827
X12480Y27914
X12480Y22242
X12520Y20157
X12520Y18150
X12545Y20495
X12677Y16614
X12677Y16024
X12795Y12442
X12835Y42520
X12875Y20157
X12913Y35236
X12953Y31220
X12953Y28386
X12962Y32205
X13071Y4409
X13110Y29449
X13165Y28774
X13228Y20119
X13259Y18336
X13268Y40630
X13307Y13150
X13543Y32165
X13581Y17991
X13583Y8150
X13603Y27086
X13618Y13100
X13622Y10551
X13627Y11736
X13640Y10236
X13640Y8740
X13640Y7205
X13642Y7581
X13680Y27412
X13835Y11973
X13858Y31299
X13898Y32165
X13927Y13155
X13937Y30394
X14016Y29094
X14076Y4948
X14146Y12016
X14156Y13371
X14169Y906
X14291Y30395
X14291Y28346
X14291Y26654
X14400Y16880
X14409Y1732
X14449Y20748
X14455Y13227
X14469Y39272
X14620Y20368
X14685Y35354
X14685Y16102
X14774Y30443
X14801Y32207
X14803Y39272
X14815Y13324
X14921Y14567
X14921Y4173
X14924Y27580
X14961Y35591
X15000Y30197
X15000Y16693
X15149Y13212
X15264Y30699
X15276Y35630
X15456Y13142
X15512Y32008
X15551Y26791
X15577Y28202
X15669Y42082
X15669Y17126
X15669Y3189
X15748Y30669
X15771Y13150
X15852Y20368
X15866Y37244
X15866Y34780
X15925Y34335
X15945Y33205
X15963Y33992
X15963Y33598
X15984Y26260
X15984Y3346
X16024Y38583
X16031Y44095
X16179Y12441
X16260Y22165
X16339Y35669
X16357Y28738
X16417Y5551
X16428Y30236
X16442Y29415
X16457Y31142
X16457Y30827
X16457Y14528
X16535Y16890
X16644Y3258
X16654Y12283
X16687Y27939
X16693Y20067
X16772Y13937
X16850Y28386
X16850Y26772
X16851Y27543
X16890Y2436
X16947Y33992
X16947Y33598
X16947Y33205
X16969Y3268
X17008Y22131
X17047Y29921
X17087Y35827
X17156Y20584
X17205Y2126
X17205Y29094
X17275Y16614
X17283Y17087
X17284Y13583
X17323Y15591
X17323Y14291
X17441Y31654
X17441Y30039
X17463Y27107
X17644Y21943
X17708Y20065
X17795Y35276
X17835Y29055
X17874Y31969
X17874Y31181
X17874Y29921
X17897Y27364
X17913Y41181
X18071Y33150
X18097Y21060
X18189Y34843
X18189Y32166
X18189Y27480
X18195Y22162
X18307Y43307
X18543Y31969
X18543Y31181
X18602Y18070
X18780Y33898
X18898Y35551
X18922Y31954
X19083Y18158
X19186Y22476
X19213Y31181
X19252Y20199
X19409Y18150
X19528Y29803
X19567Y22323
X19664Y34004
X19703Y33598
X19703Y33205
X19724Y35157
X19803Y22087
X19882Y43228
X19882Y31181
X20000Y20514
X20157Y30354
X20157Y22165
X20236Y31417
X20315Y20514
X20335Y44724
X20394Y43740
X20423Y29922
X20472Y40866
X20687Y33205
X20709Y39823
X20736Y18976
X20748Y33598
X20748Y22244
X20750Y32108
X20770Y33992
X20799Y20669
X20945Y35748
X20945Y29921
X21063Y31850
X21063Y20000
X21102Y34094
X21142Y33189
X21201Y31023
X21220Y31378
X21273Y32338
X21320Y34310
X21417Y29960
X21476Y18937
X21575Y20140
X21776Y22087
X21813Y30479
X21850Y39843
X21929Y22717
X22047Y35315
X22087Y32283
X22106Y38944
X22126Y40669
X22224Y18898
X22244Y20236
X22255Y22152
X22402Y35709
X22559Y43307
X22579Y41398
X22751Y22166
X22835Y17835
X22874Y30079
X22913Y39724
X22919Y38944
X22972Y18898
X22992Y31575
X22992Y30906
X22992Y20236
X23189Y30079
X23306Y32322
X23504Y18583
X23583Y42323
X23614Y22127
X23701Y35296
X23720Y18898
X23740Y37638
X23760Y30416
X23817Y20396
X23976Y18268
X24086Y30433
X24173Y35354
X24409Y33898
X24449Y32520
X24449Y31890
X24457Y18167
X24469Y18898
X24488Y29606
X24510Y20132
X24565Y31530
X24593Y21023
X24645Y33385
X24646Y36063
X24764Y34961
X24888Y33921
X24950Y18259
X24958Y30759
X25000Y1417
X25079Y40335
X25175Y21023
X25321Y35675
X25433Y18828
X25588Y31696
X25604Y21706
X25709Y34134
X25709Y32638
X25878Y31065
X25906Y18543
X25945Y22493
X25965Y18898
X25997Y20197
X26077Y20999
X26160Y33732
X26217Y18588
X26339Y31850
X26339Y20197
X26395Y30970
X26634Y35118
X26693Y31575
X26710Y29516
X26713Y18898
X26732Y20197
X26772Y26299
X26772Y24094
X26790Y21141
X26811Y44724
X26850Y31260
X26969Y34582
X27047Y34094
X27092Y20201
X27182Y29489
X27283Y34331
X27340Y22205
X27461Y18898
X27480Y20236
X27649Y21237
X27698Y22181
X27795Y22481
X27812Y29646
X27835Y551
X27865Y18071
X27913Y24488
X28031Y32087
X28113Y22181
X28134Y34450
X28209Y21299
X28209Y20236
X28209Y18898
X28221Y30905
X28249Y30276
X28346Y34685
X28371Y32900
X28465Y30022
X28484Y35866
X28518Y22424
X28538Y33788
X28543Y32126
X28543Y21952
X28590Y18425
X28661Y31614
X28668Y31285
X28780Y22638
X28816Y18644
X28921Y18941
X28950Y20197
X28976Y24685
X29203Y18735
X29309Y25060
X29437Y25438
X29528Y32402
X29528Y1417
X29593Y25711
X29621Y20197
X29646Y28583
X29646Y27283
X29685Y18910
X30031Y20186
X30066Y32140
X30249Y21023
X30315Y29764
X30367Y18189
X30381Y36066
X30394Y20512
X30551Y43543
X30551Y21950
X30807Y32341
X30890Y24814
X30954Y29843
X31024Y31378
X31039Y18504
X31101Y18196
X31121Y32321
X31161Y21654
X31181Y24606
X31339Y23307
X31378Y27520
X31452Y32395
X31496Y30556
X31496Y21942
X31732Y20512
X31850Y32362
X31909Y20236
X31909Y18898
X31949Y44724
X31969Y42205
X31986Y26817
X31986Y31396
X31988Y28504
X32008Y28150
X32047Y40472
X32047Y27126
X32122Y23318
X32123Y29455
X32283Y18071
X32362Y20630
X32416Y29843
X32651Y21383
X32657Y20236
X32657Y18898
X32677Y27835
X32835Y1378
X32874Y35630
X33075Y29830
X33229Y21693
X33346Y17362
X33406Y18898
X33425Y43071
X33425Y36969
X33425Y20236
X33543Y30197
X33543Y26535
X33661Y20748
X33740Y24094
X33780Y31343
X33819Y37992
X33917Y30320
X33976Y32323
X34094Y315
X34134Y26142
X34134Y23504
X34141Y18910
X34154Y20236
X34291Y16772
X34311Y30535
X34331Y15000
X34370Y35630
X34370Y7205
X34409Y12244
X34409Y4843
X34449Y5669
X34449Y315
X34685Y26638
X34724Y472
X34747Y25120
X34764Y18149
X34764Y25945
X34843Y17657
X34882Y29919
X34960Y24166
X34961Y21654
X34961Y11772
X34999Y24478
X35000Y25748
X35004Y26178
X35014Y596
X35039Y14016
X35078Y18129
X35138Y24771
X35197Y1693
X35322Y25027
X35329Y12537
X35354Y630
X35433Y15157
X35440Y10873
X35472Y6457
X35591Y12362
X35630Y35748
X35663Y11096
X35748Y354
X35845Y29859
X35866Y36969
X35984Y23504
X35984Y37283
X36024Y23875
X36299Y28583
X36299Y748
X36339Y44331
X36339Y10157
X36339Y8976
X36378Y7126
X36378Y10591
X36382Y8577
X36419Y15157
X36457Y13858
X36457Y11693
X36457Y9567
X36496Y28110
X36535Y30197
X36556Y8315
X36575Y236
X36636Y923
X36654Y17756
X36700Y24014
X36929Y31339
X36929Y2087
X37008Y22402
X37027Y21797
X37027Y21419
X37042Y23189
X37087Y5000
X37126Y35276
X37185Y44665
X37322Y17421
X37323Y5866
X37401Y24016
X37402Y30748
X37480Y18679
X37480Y32008
X37647Y18413
X37677Y35709
X37697Y40531
X37770Y18085
X37795Y29429
X37795Y197
X37815Y31969
X37815Y28228
X37815Y1339
X4715Y23917
X4715Y23445
X4715Y22972
X4715Y22500
X10394Y25437
X10394Y25043
X11762Y23436
X11762Y23042
X17441Y25979
X17441Y25507
X17441Y25034
X17441Y24562
X17598Y16260
X17598Y13307
X17598Y12992
X17598Y12677
X17598Y12362
X17598Y12047
X17598Y11417
X17598Y11102
X17598Y10787
X17598Y10472
X17598Y10157
X17598Y9843
X17598Y9528
X17598Y9213
X17598Y8898
X17598Y8583
X17598Y7638
X17598Y7323
X17598Y7008
X17598Y5748
X17598Y5433
X17598Y5118
X17598Y4803
X17598Y3858
X17598Y3543
X17598Y3228
X17598Y2913
X17598Y2598
X17598Y1575
X17598Y15945
X17598Y11732
X17598Y8268
X17598Y7953
X17598Y6693
X17598Y6378
X17598Y6063
X17598Y4488
X17598Y4173
X17835Y17126
X17913Y1575
X18228Y1575
X18307Y17126
X18543Y1575
X18780Y17126
X18858Y1575
X19173Y1575
X19252Y17126
X19488Y1575
X19724Y17126
X19803Y1575
X19803Y22982
X20118Y1575
X20157Y17126
X20197Y22982
X20433Y1575
X20630Y17126
X20748Y1575
X21063Y1575
X21102Y17126
X21378Y1575
X21575Y17126
X21693Y1575
X22008Y1575
X22047Y17126
X22323Y1575
X22520Y17126
X22638Y1575
X22953Y1575
X22992Y17126
X23268Y1575
X23465Y17126
X23583Y1575
X23898Y1575
X23937Y17126
X24213Y1575
X24409Y17126
X24528Y1575
X24882Y17126
X25354Y17126
X25827Y17126
X26299Y17126
X26693Y1575
X26772Y17126
X27008Y1575
X27244Y17126
X27323Y1575
X27638Y1575
X27717Y17126
X27953Y1575
X28189Y17126
X28661Y17126
X29134Y17126
X29606Y17126
X30079Y17126
X30551Y17126
X31024Y17126
X31024Y1575
X31339Y1575
X31496Y17126
X31654Y1575
X31969Y17126
X32441Y17126
X32913Y17126
X33858Y17126
X34016Y13228
X34016Y10472
X34016Y10079
X34016Y9685
X34016Y9291
X34016Y8898
X34016Y8504
X34016Y8110
X34016Y7717
X34016Y6496
X34016Y6181
X34016Y1575
X34016Y16142
X34016Y15748
X36447Y24498
X36821Y24498
X36841Y27923
X37195Y27923
X37195Y24498
X18569Y28464
X19205Y28736
X19590Y28522
X20019Y29163
X20355Y29203
X20945Y29006
X21201Y28730
X21732Y28612
X22028Y29006
X21536Y29203
X22717Y29203
X24292Y29203
X24272Y28730
X24564Y27619
X24539Y26572
X24251Y26250
X24176Y25197
X24292Y24085
X24292Y23297
X23282Y24415
X22036Y24355
X22126Y23888
X21646Y23720
X21929Y23297
X20761Y23719
X20589Y23023
X20197Y22982
X19803Y22982
X19897Y23664
X19408Y23974
X19091Y23587
X18661Y23984
X19040Y24373
X19764Y24448
X20197Y24400
X19212Y25716
X18583Y25716
X18569Y26635
X18569Y27490
X19211Y27267
X20236Y26683
X21683Y26290
X21732Y27037
X22242Y26604
X23240Y26015
X25197Y25069
X25264Y24137
X25669Y24085
X25473Y23297
X24882Y23691
X26022Y26165
X26428Y26123
X26012Y26952
X25668Y27019
X25945Y27313
X25686Y28654
X25051Y28245
X24818Y29085
X10977Y9355
X10461Y9611
X10461Y8843
X11154Y8715
X11183Y8381
X11268Y8036
X11183Y7652
X11189Y6904
X10461Y7820
X12794Y6786
X10403Y24291
X10376Y22645
X10354Y23474
X9632Y25998
X9623Y25241
X9586Y24439
X9549Y22633
X9517Y24133
X9201Y22661
X9149Y24483
X9114Y25870
X8986Y24173
X8809Y26004
X8753Y22470
X8665Y25263
X8661Y24370
X8511Y22942
X8465Y23991
X8100Y23976
X7852Y23575
X7720Y24381
X7667Y24055
X7657Y24773
X7637Y25856
X7587Y25484
X7547Y25134
X7326Y24476
X7017Y26004
X6948Y24429
X6634Y24005
X6515Y24291
X6417Y24795
X6395Y23332
X6352Y25844
X6329Y24035
X6260Y22661
X5964Y22720
X5781Y23990
X5769Y22491
X5442Y25364
X4966Y25372
X4724Y25541
X4714Y25128
X4698Y26023
X10393Y25043
X10393Y25437
X4714Y22500
X4714Y22972
X4714Y23444
X4714Y23917
X33858Y17126
X33935Y16727
X34016Y16142
X34016Y15748
X33258Y15488
X32544Y15472
X32260Y15449
X31654Y15630
X31339Y15630
X30773Y15442
X30347Y15442
X29764Y15630
X29449Y15630
X28880Y15460
X28595Y15451
X27907Y15652
X27523Y15652
X27012Y15426
X26570Y15442
X25984Y15630
X25669Y15630
X25079Y15524
X24652Y15426
X24095Y15630
X23780Y15630
X23150Y15472
X22835Y15472
X22205Y15630
X21890Y15630
X21260Y15472
X20945Y15472
X20315Y15630
X20079Y15394
X19803Y14527
X19488Y14646
X19291Y14921
X18937Y14921
X18849Y13996
X19351Y13976
X19288Y13698
X19390Y12854
X19016Y12716
X18912Y12441
X18809Y12953
X19088Y11627
X19096Y11130
X19410Y11102
X19370Y10709
X19488Y9921
X20083Y9845
X20473Y9803
X20807Y9792
X20551Y10079
X20299Y10239
X20136Y9375
X20120Y8988
X20365Y8828
X19979Y8583
X20069Y7875
X20000Y7598
X20118Y6732
X20315Y6378
X20088Y5817
X20067Y5433
X19266Y5729
X18943Y5950
X18560Y5974
X18981Y4514
X19030Y3864
X18811Y3681
X19373Y3266
X20097Y3073
X20473Y3386
X20717Y3238
X20866Y2559
X21142Y2677
X19920Y2470
X19642Y2596
X19498Y2077
X19183Y1976
X18560Y2532
X22469Y2542
X22767Y2492
X22713Y3131
X22374Y3341
X21777Y4016
X21969Y4252
X22205Y4488
X23032Y4724
X23651Y4828
X23622Y4488
X23932Y4916
X24134Y5118
X23977Y6063
X23543Y6087
X22717Y5827
X22402Y5827
X22258Y6243
X21614Y6142
X21575Y5433
X21347Y5262
X21024Y5905
X21024Y6850
X21969Y7165
X22284Y7165
X22205Y7732
X22284Y8701
X21890Y8701
X21612Y8224
X20898Y8115
X21034Y8872
X21020Y9249
X22087Y9331
X22008Y10050
X21693Y10039
X22581Y10124
X22362Y10905
X22047Y10984
X21417Y10866
X21171Y11011
X20877Y11259
X21240Y11732
X21634Y11732
X22284Y12047
X22599Y12044
X22914Y12047
X23543Y11911
X23810Y11722
X23701Y11181
X23488Y10945
X23338Y11350
X24331Y11181
X24252Y10905
X25118Y10866
X25197Y11220
X25197Y12047
X24882Y12044
X24567Y12008
X24291Y12441
X24291Y12756
X24282Y13041
X24055Y13583
X23465Y13583
X23091Y13346
X23091Y12716
X23524Y12854
X22067Y12992
X22072Y12702
X21240Y12854
X20807Y12716
X20807Y13346
X21181Y13583
X21772Y13583
X22343Y14331
X22850Y14429
X23135Y14429
X24739Y14429
X25025Y14429
X25298Y14345
X25374Y13346
X25748Y13583
X26299Y13583
X26634Y12992
X26639Y12702
X26830Y12032
X27165Y12044
X27480Y12047
X27658Y12716
X28091Y12854
X27992Y13583
X27658Y13346
X27420Y14313
X26915Y14468
X26629Y14429
X28162Y14073
X28519Y14429
X28804Y14429
X28819Y13779
X28869Y13078
X28888Y12401
X28875Y12106
X28888Y11747
X28898Y11260
X28858Y10827
X29238Y10699
X29523Y10679
X29685Y11181
X29547Y11614
X30079Y11614
X30538Y11351
X30700Y11110
X31116Y10976
X31358Y11181
X31720Y10936
X31539Y10702
X31644Y10000
X31644Y9291
X31644Y8583
X31644Y7874
X32450Y7848
X33465Y7323
X33977Y6890
X34016Y6496
X34016Y6181
X33740Y5315
X33344Y5302
X33032Y4724
X32864Y4489
X32545Y4134
X32725Y3546
X33134Y3637
X33071Y3071
X33917Y2992
X33937Y3386
X33347Y2106
X33307Y1653
X32225Y1653
X31585Y2450
X31170Y2857
X31189Y3152
X30801Y3012
X30845Y2353
X30049Y2705
X30169Y3223
X29869Y3210
X29579Y3049
X29311Y2933
X29378Y2549
X28819Y1929
X29825Y1811
X30118Y3504
X29882Y4134
X29507Y4399
X29122Y4361
X28918Y4160
X28475Y4232
X28425Y4646
X28425Y4931
X29134Y5039
X29155Y5324
X29949Y5354
X30061Y5084
X30119Y4587
X31269Y4803
X31229Y5235
X31818Y5303
X31974Y5787
X32362Y5866
X32756Y5870
X32060Y6442
X30724Y6467
X30773Y5893
X30915Y6924
X30669Y7126
X29990Y7087
X30000Y7598
X30012Y8169
X29990Y8583
X29949Y9188
X29347Y9011
X28937Y9075
X28622Y9134
X28386Y8543
X27451Y8695
X27362Y9094
X27560Y9439
X27835Y10354
X28364Y10370
X28507Y10114
X28543Y11112
X28189Y11405
X28109Y11715
X27441Y11181
X26956Y11167
X26969Y10882
X26808Y9901
X26400Y9858
X26339Y10137
X26063Y9842
X25414Y9818
X25423Y10103
X25000Y9823
X24749Y9960
X24262Y9427
X25155Y9134
X25638Y9130
X25374Y8770
X25040Y8268
X24567Y7795
X25473Y7756
X25945Y6575
X26260Y6614
X26539Y7112
X27362Y7126
X27241Y7384
X27524Y7493
X27599Y7913
X27008Y7549
X27611Y6809
X28465Y6693
X28543Y7047
X28430Y7500
X29134Y7027
X28962Y6427
X28962Y6142
X28676Y6417
X28425Y6112
X28465Y5709
X27628Y5541
X26851Y5630
X26693Y5118
X25965Y5197
X25945Y5709
X25590Y5797
X25315Y6063
X25512Y4921
X24803Y4488
X25276Y4016
X25276Y3078
X24882Y2874
X24542Y2475
X23593Y2557
X25512Y2598
X26132Y2569
X26418Y2569
X26703Y2559
X26558Y3564
X26496Y3858
X26841Y4370
X27677Y4488
X27669Y4203
X27537Y3729
X27609Y3452
X27480Y2953
X27933Y2368
X27165Y1813
X26369Y1700
X26044Y1745
X25756Y1703
X25437Y1706
X25123Y1712
X24410Y3819
X24095Y7272
X23583Y7154
X23361Y7335
X23141Y7154
X22963Y7377
X23110Y8543
X23622Y8740
X23740Y8031
X26536Y8740
X25825Y10954
X26063Y11299
X26201Y11732
X25906Y11732
X25807Y12854
X25374Y12716
X29193Y12638
X29823Y12638
X29685Y13031
X30000Y13346
X30059Y13779
X30000Y14370
X29646Y14409
X30409Y14429
X30694Y14429
X31063Y14360
X31536Y14360
X31299Y13779
X31063Y13346
X30523Y12749
X30482Y12466
X30551Y11890
X31683Y11821
X31670Y12106
X31683Y12401
X31654Y12756
X32135Y12613
X32637Y12606
X32480Y13031
X32597Y13357
X32209Y13385
X32540Y13779
X32579Y14331
X32298Y14429
X33026Y14234
X33425Y14567
X33662Y15049
X33977Y14370
X33780Y13779
X34016Y13228
X33603Y13071
X33150Y13445
X33278Y12401
X33888Y11850
X33937Y11102
X33542Y10940
X33361Y11199
X32835Y11575
X32520Y11378
X32343Y11614
X32764Y10828
X32394Y10153
X32079Y10384
X30906Y10504
X30839Y10021
X30873Y9685
X30827Y9301
X30827Y9016
X30827Y8464
X30866Y7716
X29990Y6378
X31890Y4409
X31862Y3344
X31368Y3543
X31039Y3556
X28919Y3383
X28670Y3524
X28595Y3248
X28346Y3855
X20865Y4442
X20906Y4724
X18612Y9085
X19714Y12102
X20000Y12047
X20315Y12044
X20630Y12047
X20354Y14370
X20960Y14429
X21245Y14429
X21339Y16929
X21102Y17126
X20866Y16929
X20630Y17126
X20394Y16929
X20158Y17126
X19725Y17126
X19488Y16929
X19252Y17126
X19016Y16929
X18780Y17126
X18543Y16929
X18847Y16222
X19320Y16222
X21575Y17126
X21811Y16929
X22047Y17126
X22284Y16929
X22520Y17126
X22756Y16929
X22992Y17126
X23228Y16929
X23465Y17126
X23701Y16929
X23937Y17126
X24173Y16929
X24410Y17126
X24646Y16929
X24882Y17126
X25118Y16929
X25354Y17126
X25591Y16929
X25827Y17126
X26063Y16929
X26299Y17126
X26536Y16929
X26772Y17126
X27008Y16929
X27244Y17126
X27480Y16929
X27717Y17126
X27953Y16929
X28189Y17126
X28425Y16929
X28662Y17126
X28898Y16929
X29134Y17126
X29370Y16929
X29606Y17126
X29843Y16929
X30079Y17126
X30315Y16929
X30551Y17126
X30788Y16929
X31024Y17126
X31260Y16929
X31496Y17126
X31732Y16929
X31969Y17126
X32205Y16929
X32441Y17126
X32677Y16929
X32914Y17126
X33150Y16929
X33382Y17095
X33425Y16535
X34016Y10472
X34016Y10079
X34016Y9685
X34016Y9291
X34016Y8898
X34016Y8504
X34016Y8110
X34016Y7716
X30394Y10689
X29994Y10373
X29319Y13471
X18427Y13432
X18425Y14134
X18110Y14291
X17965Y14045
X17992Y14606
X17874Y14921
X17795Y15197
X17795Y15590
X17599Y15945
X17599Y16260
X17943Y16230
X18405Y16229
X18307Y17126
X18071Y16929
X17835Y17126
X17638Y16811
X17599Y13307
X17599Y12992
X17599Y12677
X17599Y12362
X17599Y12047
X17599Y11732
X17599Y11417
X17599Y11102
X17599Y10787
X17599Y10472
X17599Y10157
X17599Y9842
X17599Y9527
X17599Y9213
X17599Y8898
X17599Y8583
X17599Y8268
X17599Y7953
X17599Y7638
X17599Y7323
X17599Y7008
X17599Y6693
X17599Y6378
X17599Y6063
X17599Y5748
X17599Y5433
X17599Y5118
X17599Y4803
X17599Y4488
X17599Y4173
X17599Y3858
X17599Y3543
X17599Y3228
X17599Y2913
X17599Y2598
X17677Y2283
X18000Y2598
X17872Y3428
X17837Y4646
X17837Y5590
X18454Y5248
X18278Y6182
X18465Y6398
X18427Y7163
X18504Y8218
X18209Y8218
X17882Y9807
X18110Y12756
X18450Y12701
X18228Y1575
X17914Y1575
X17599Y1575
X18543Y1575
X18858Y1575
X19173Y1575
X19488Y1575
X19803Y1575
X20118Y1575
X20433Y1575
X20748Y1575
X21063Y1575
X21378Y1575
X21693Y1575
X22008Y1575
X22323Y1575
X22638Y1575
X22953Y1575
X23268Y1575
X23583Y1575
X23898Y1575
X24213Y1575
X24528Y1575
X26693Y1575
X27008Y1575
X27323Y1575
X27638Y1575
X27953Y1575
X30089Y1601
X31024Y1575
X31339Y1575
X31654Y1575
X34016Y1575
X14473Y9340
X13957Y9596
X13957Y8828
X14650Y8700
X14679Y8366
X14764Y8021
X14679Y7637
X14685Y6889
X13957Y7805
X16290Y6771
X11752Y24188
X11779Y25834
X11801Y25005
X12523Y22481
X12532Y23238
X12569Y24040
X12606Y25846
X12638Y24346
X12954Y25818
X13006Y23996
X13041Y22609
X13169Y24306
X13346Y22475
X13402Y26009
X13490Y23216
X13494Y24109
X13644Y25537
X13690Y24488
X14055Y24503
X14303Y24904
X14435Y24098
X14488Y24424
X14498Y23706
X14518Y22623
X14568Y22995
X14608Y23345
X14829Y24003
X15138Y22475
X15207Y24050
X15521Y24474
X15640Y24188
X15738Y23684
X15760Y25147
X15803Y22635
X15826Y24444
X15895Y25818
X16191Y25759
X16374Y24489
X16386Y25988
X16713Y23115
X17189Y23107
X17431Y22938
X17441Y23351
X17457Y22456
X11762Y23436
X11762Y23042
X17441Y25979
X17441Y25507
X17441Y25035
X17441Y24562
X36300Y27917
X36553Y27765
X36840Y27923
X37195Y27923
X36861Y26921
X36756Y26647
X36969Y26404
X36456Y26954
X37196Y25475
X37195Y24498
X36821Y24498
X36447Y24498
T02
X10071Y2941G85X10071Y2508
X10071Y1197G85X10071Y961
X13472Y2941G85X13472Y2508
X13472Y1197G85X13472Y961
X10634Y2528
X12909Y2528
T03
X4705Y38348
X4705Y36848
X5512Y38368
X5512Y36868
X6319Y38368
X6319Y36868
X7106Y38368
X7106Y36868
X7953Y38388
X7953Y36888
X8205Y18287
X8205Y16358
X8205Y15020
X8205Y13091
X8740Y38388
X8740Y36888
X9528Y38388
X9528Y36888
X10335Y38368
X10335Y36868
X11220Y38270
X11220Y36770
X12087Y38289
X12087Y36789
X12953Y38346
X12953Y36417
X13917Y38327
X13917Y36398
X14744Y38348
X14744Y36848
X15591Y38307
X15591Y36378
X17008Y38388
X17008Y36888
X17795Y38388
X17795Y36888
X18642Y42482
X18642Y40982
X18661Y38388
X18661Y36888
X19449Y38388
X19449Y36888
X19626Y42463
X19626Y40963
X21240Y38171
X21240Y36671
X22165Y38150
X22165Y36220
X23091Y38167
X23091Y36238
X24350Y37994
X24350Y36494
X25177Y38189
X25177Y36260
X26024Y38171
X26024Y36671
X26791Y38171
X26791Y36671
X27598Y38189
X27598Y36260
X28484Y38191
X28484Y36691
X29449Y38211
X29449Y36711
X30217Y38211
X30217Y36711
X31024Y38207
X31024Y36278
X31967Y38187
X31967Y36258
X32867Y38189
X32867Y36689
X37165Y30159
X37165Y28659
X10630Y4685
X11614Y4685
X12598Y4685
X13583Y4685
X14567Y4685
X28150Y11024
X26457Y11142
X24725Y11102
X22835Y11142
X21693Y11142
X20512Y11142
X20000Y10669
T04
X14016Y20236
X18268Y35315
X18543Y33307
X5512Y17835
X5512Y16654
X5512Y15472
X5512Y14291
X5512Y13110
X6693Y17835
X6693Y16654
X6693Y15472
X6693Y14291
X6693Y13110
X16496Y4409
X18465Y394
X18681Y23159
X18858Y29262
X20039Y394
X21142Y23159
X21811Y394
X22835Y23159
X23583Y394
X23583Y23159
X23602Y29262
X25354Y394
X25551Y29262
X26102Y23159
X26280Y29262
X27126Y394
X28898Y394
X29409Y23898
X30551Y23150
X30630Y394
X35079Y16811
X35079Y15630
X35079Y10157
X35079Y8976
X7063Y19016
X7063Y11929
X18858Y29262
X23603Y29262
X23583Y23159
X22835Y23159
X21142Y23159
X18681Y23159
X26103Y23159
X26280Y29262
X25551Y29262
X33701Y1890
X30559Y2650
X30559Y1850
X28559Y2250
T05
X3681Y43031G85X3681Y43031
X3681Y41437G85X3681Y41437
X3681Y39803G85X3681Y39803
X5295Y43031G85X5295Y43031
X5295Y41437G85X5295Y41437
X5295Y39803G85X5295Y39803
X6634Y43031G85X6634Y43031
X6634Y41437G85X6634Y41437
X6634Y39803G85X6634Y39803
X7972Y43031G85X7972Y43031
X7972Y41437G85X7972Y41437
X7972Y39803G85X7972Y39803
X9311Y43031G85X9311Y43031
X9311Y41437G85X9311Y41437
X9311Y39803G85X9311Y39803
X10650Y43031G85X10650Y43031
X10650Y41437G85X10650Y41437
X10650Y39803G85X10650Y39803
X12008Y43031G85X12008Y43031
X12008Y41437G85X12008Y41437
X12008Y39803G85X12008Y39803
X13622Y43031G85X13622Y43031
X13622Y41437G85X13622Y41437
X13622Y39803G85X13622Y39803
X24272Y43031G85X24272Y43031
X24272Y41437G85X24272Y41437
X24272Y39803G85X24272Y39803
X25886Y43031G85X25886Y43031
X25886Y41437G85X25886Y41437
X25886Y39803G85X25886Y39803
X27224Y43031G85X27224Y43031
X27224Y41437G85X27224Y41437
X27224Y39803G85X27224Y39803
X28563Y43031G85X28563Y43031
X28563Y41437G85X28563Y41437
X28563Y39803G85X28563Y39803
X29902Y43031G85X29902Y43031
X29902Y41437G85X29902Y41437
X29902Y39803G85X29902Y39803
X31240Y43031G85X31240Y43031
X31240Y41437G85X31240Y41437
X31240Y39803G85X31240Y39803
X32598Y43031G85X32598Y43031
X32598Y41437G85X32598Y41437
X32598Y39803G85X32598Y39803
X34213Y43031G85X34213Y43031
X34213Y41437G85X34213Y41437
X34213Y39803G85X34213Y39803
T06
X807Y42756G85X807Y41575
X16476Y42756G85X16476Y41575
X21398Y42756G85X21398Y41575
X37067Y42756G85X37067Y41575
T07
X1891Y3393
X36200Y3493
M30
