G75*
G70*
%OFA0B0*%
%FSLAX25Y25*%
%IPPOS*%
%LPD*%
%AMOC8*
5,1,8,0,0,1.08239X$1,22.5*
%
%AMM186*
21,1,0.041340,0.026770,0.000000,-0.000000,270.000000*
21,1,0.029130,0.038980,0.000000,-0.000000,270.000000*
1,1,0.012210,-0.013390,-0.014570*
1,1,0.012210,-0.013390,0.014570*
1,1,0.012210,0.013390,0.014570*
1,1,0.012210,0.013390,-0.014570*
%
%AMM187*
21,1,0.076380,0.036220,0.000000,-0.000000,0.000000*
21,1,0.061810,0.050790,0.000000,-0.000000,0.000000*
1,1,0.014570,0.030910,-0.018110*
1,1,0.014570,-0.030910,-0.018110*
1,1,0.014570,-0.030910,0.018110*
1,1,0.014570,0.030910,0.018110*
%
%AMM190*
21,1,0.029130,0.018900,0.000000,-0.000000,0.000000*
21,1,0.018900,0.029130,0.000000,-0.000000,0.000000*
1,1,0.010240,0.009450,-0.009450*
1,1,0.010240,-0.009450,-0.009450*
1,1,0.010240,-0.009450,0.009450*
1,1,0.010240,0.009450,0.009450*
%
%AMM191*
21,1,0.025200,0.019680,0.000000,-0.000000,270.000000*
21,1,0.015750,0.029130,0.000000,-0.000000,270.000000*
1,1,0.009450,-0.009840,-0.007870*
1,1,0.009450,-0.009840,0.007870*
1,1,0.009450,0.009840,0.007870*
1,1,0.009450,0.009840,-0.007870*
%
%AMM192*
21,1,0.025200,0.019680,0.000000,-0.000000,180.000000*
21,1,0.015750,0.029130,0.000000,-0.000000,180.000000*
1,1,0.009450,-0.007870,0.009840*
1,1,0.009450,0.007870,0.009840*
1,1,0.009450,0.007870,-0.009840*
1,1,0.009450,-0.007870,-0.009840*
%
%AMM198*
21,1,0.111810,0.050390,0.000000,-0.000000,0.000000*
21,1,0.093700,0.068500,0.000000,-0.000000,0.000000*
1,1,0.018110,0.046850,-0.025200*
1,1,0.018110,-0.046850,-0.025200*
1,1,0.018110,-0.046850,0.025200*
1,1,0.018110,0.046850,0.025200*
%
%AMM199*
21,1,0.038980,0.026770,0.000000,-0.000000,180.000000*
21,1,0.026770,0.038980,0.000000,-0.000000,180.000000*
1,1,0.012210,-0.013390,0.013390*
1,1,0.012210,0.013390,0.013390*
1,1,0.012210,0.013390,-0.013390*
1,1,0.012210,-0.013390,-0.013390*
%
%AMM200*
21,1,0.029130,0.018900,0.000000,-0.000000,90.000000*
21,1,0.018900,0.029130,0.000000,-0.000000,90.000000*
1,1,0.010240,0.009450,0.009450*
1,1,0.010240,0.009450,-0.009450*
1,1,0.010240,-0.009450,-0.009450*
1,1,0.010240,-0.009450,0.009450*
%
%AMM201*
21,1,0.127560,0.075590,0.000000,-0.000000,90.000000*
21,1,0.103150,0.100000,0.000000,-0.000000,90.000000*
1,1,0.024410,0.037800,0.051580*
1,1,0.024410,0.037800,-0.051580*
1,1,0.024410,-0.037800,-0.051580*
1,1,0.024410,-0.037800,0.051580*
%
%AMM202*
21,1,0.123620,0.083460,0.000000,-0.000000,270.000000*
21,1,0.097240,0.109840,0.000000,-0.000000,270.000000*
1,1,0.026380,-0.041730,-0.048620*
1,1,0.026380,-0.041730,0.048620*
1,1,0.026380,0.041730,0.048620*
1,1,0.026380,0.041730,-0.048620*
%
%AMM281*
21,1,0.039370,0.030320,-0.000000,-0.000000,270.000000*
21,1,0.028350,0.041340,-0.000000,-0.000000,270.000000*
1,1,0.011020,-0.015160,-0.014170*
1,1,0.011020,-0.015160,0.014170*
1,1,0.011020,0.015160,0.014170*
1,1,0.011020,0.015160,-0.014170*
%
%AMM287*
21,1,0.031500,0.018900,-0.000000,-0.000000,0.000000*
21,1,0.022840,0.027560,-0.000000,-0.000000,0.000000*
1,1,0.008660,0.011420,-0.009450*
1,1,0.008660,-0.011420,-0.009450*
1,1,0.008660,-0.011420,0.009450*
1,1,0.008660,0.011420,0.009450*
%
%AMM290*
21,1,0.029530,0.026380,-0.000000,-0.000000,270.000000*
21,1,0.020470,0.035430,-0.000000,-0.000000,270.000000*
1,1,0.009060,-0.013190,-0.010240*
1,1,0.009060,-0.013190,0.010240*
1,1,0.009060,0.013190,0.010240*
1,1,0.009060,0.013190,-0.010240*
%
%AMM291*
21,1,0.021650,0.027950,-0.000000,-0.000000,270.000000*
21,1,0.014170,0.035430,-0.000000,-0.000000,270.000000*
1,1,0.007480,-0.013980,-0.007090*
1,1,0.007480,-0.013980,0.007090*
1,1,0.007480,0.013980,0.007090*
1,1,0.007480,0.013980,-0.007090*
%
%AMM293*
21,1,0.016540,0.028980,-0.000000,-0.000000,270.000000*
21,1,0.010080,0.035430,-0.000000,-0.000000,270.000000*
1,1,0.006460,-0.014490,-0.005040*
1,1,0.006460,-0.014490,0.005040*
1,1,0.006460,0.014490,0.005040*
1,1,0.006460,0.014490,-0.005040*
%
%AMM296*
21,1,0.031500,0.018900,-0.000000,-0.000000,270.000000*
21,1,0.022840,0.027560,-0.000000,-0.000000,270.000000*
1,1,0.008660,-0.009450,-0.011420*
1,1,0.008660,-0.009450,0.011420*
1,1,0.008660,0.009450,0.011420*
1,1,0.008660,0.009450,-0.011420*
%
%AMM306*
21,1,0.037400,0.026770,-0.000000,-0.000000,0.000000*
21,1,0.026770,0.037400,-0.000000,-0.000000,0.000000*
1,1,0.010630,0.013390,-0.013390*
1,1,0.010630,-0.013390,-0.013390*
1,1,0.010630,-0.013390,0.013390*
1,1,0.010630,0.013390,0.013390*
%
%AMM307*
21,1,0.039370,0.030320,-0.000000,-0.000000,0.000000*
21,1,0.028350,0.041340,-0.000000,-0.000000,0.000000*
1,1,0.011020,0.014170,-0.015160*
1,1,0.011020,-0.014170,-0.015160*
1,1,0.011020,-0.014170,0.015160*
1,1,0.011020,0.014170,0.015160*
%
%AMM308*
21,1,0.039760,0.026770,-0.000000,-0.000000,180.000000*
21,1,0.029130,0.037400,-0.000000,-0.000000,180.000000*
1,1,0.010630,-0.014570,0.013390*
1,1,0.010630,0.014570,0.013390*
1,1,0.010630,0.014570,-0.013390*
1,1,0.010630,-0.014570,-0.013390*
%
%AMM309*
21,1,0.074800,0.036220,-0.000000,-0.000000,180.000000*
21,1,0.061810,0.049210,-0.000000,-0.000000,180.000000*
1,1,0.012990,-0.030910,0.018110*
1,1,0.012990,0.030910,0.018110*
1,1,0.012990,0.030910,-0.018110*
1,1,0.012990,-0.030910,-0.018110*
%
%AMM310*
21,1,0.062990,0.020470,-0.000000,-0.000000,270.000000*
21,1,0.053940,0.029530,-0.000000,-0.000000,270.000000*
1,1,0.009060,-0.010240,-0.026970*
1,1,0.009060,-0.010240,0.026970*
1,1,0.009060,0.010240,0.026970*
1,1,0.009060,0.010240,-0.026970*
%
%AMM311*
21,1,0.082680,0.045670,-0.000000,-0.000000,270.000000*
21,1,0.067320,0.061020,-0.000000,-0.000000,270.000000*
1,1,0.015350,-0.022840,-0.033660*
1,1,0.015350,-0.022840,0.033660*
1,1,0.015350,0.022840,0.033660*
1,1,0.015350,0.022840,-0.033660*
%
%AMM312*
21,1,0.029530,0.026380,-0.000000,-0.000000,180.000000*
21,1,0.020470,0.035430,-0.000000,-0.000000,180.000000*
1,1,0.009060,-0.010240,0.013190*
1,1,0.009060,0.010240,0.013190*
1,1,0.009060,0.010240,-0.013190*
1,1,0.009060,-0.010240,-0.013190*
%
%AMM313*
21,1,0.021650,0.027950,-0.000000,-0.000000,180.000000*
21,1,0.014170,0.035430,-0.000000,-0.000000,180.000000*
1,1,0.007480,-0.007090,0.013980*
1,1,0.007480,0.007090,0.013980*
1,1,0.007480,0.007090,-0.013980*
1,1,0.007480,-0.007090,-0.013980*
%
%AMM314*
21,1,0.031500,0.030710,-0.000000,-0.000000,270.000000*
21,1,0.022050,0.040160,-0.000000,-0.000000,270.000000*
1,1,0.009450,-0.015350,-0.011020*
1,1,0.009450,-0.015350,0.011020*
1,1,0.009450,0.015350,0.011020*
1,1,0.009450,0.015350,-0.011020*
%
%AMM315*
21,1,0.031500,0.049610,-0.000000,-0.000000,90.000000*
21,1,0.022050,0.059060,-0.000000,-0.000000,90.000000*
1,1,0.009450,0.024800,0.011020*
1,1,0.009450,0.024800,-0.011020*
1,1,0.009450,-0.024800,-0.011020*
1,1,0.009450,-0.024800,0.011020*
%
%AMM316*
21,1,0.031500,0.030710,-0.000000,-0.000000,180.000000*
21,1,0.022050,0.040160,-0.000000,-0.000000,180.000000*
1,1,0.009450,-0.011020,0.015350*
1,1,0.009450,0.011020,0.015350*
1,1,0.009450,0.011020,-0.015350*
1,1,0.009450,-0.011020,-0.015350*
%
%AMM317*
21,1,0.074800,0.036220,-0.000000,-0.000000,270.000000*
21,1,0.061810,0.049210,-0.000000,-0.000000,270.000000*
1,1,0.012990,-0.018110,-0.030910*
1,1,0.012990,-0.018110,0.030910*
1,1,0.012990,0.018110,0.030910*
1,1,0.012990,0.018110,-0.030910*
%
%AMM318*
21,1,0.037400,0.026770,-0.000000,-0.000000,90.000000*
21,1,0.026770,0.037400,-0.000000,-0.000000,90.000000*
1,1,0.010630,0.013390,0.013390*
1,1,0.010630,0.013390,-0.013390*
1,1,0.010630,-0.013390,-0.013390*
1,1,0.010630,-0.013390,0.013390*
%
%ADD10C,0.06693*%
%ADD11C,0.06000*%
%ADD12C,0.23622*%
%ADD120C,0.02913*%
%ADD121C,0.06457*%
%ADD14O,0.06693X0.07283*%
%ADD18O,0.03937X0.08268*%
%ADD19O,0.03937X0.06299*%
%ADD20C,0.05906*%
%ADD200C,0.04294*%
%ADD201C,0.04724*%
%ADD21C,0.02362*%
%ADD221R,0.04331X0.04724*%
%ADD225R,0.09843X0.07087*%
%ADD233O,0.05354X0.01378*%
%ADD234R,0.01378X0.01772*%
%ADD235R,0.01772X0.01378*%
%ADD275O,0.09213X0.02520*%
%ADD333M186*%
%ADD334M187*%
%ADD337M190*%
%ADD338M191*%
%ADD339M192*%
%ADD345M198*%
%ADD346M199*%
%ADD347M200*%
%ADD348M201*%
%ADD349M202*%
%ADD459M281*%
%ADD465M287*%
%ADD468M290*%
%ADD469M291*%
%ADD471M293*%
%ADD474M296*%
%ADD484M306*%
%ADD485M307*%
%ADD486M308*%
%ADD487M309*%
%ADD488M310*%
%ADD489M311*%
%ADD49C,0.07874*%
%ADD490M312*%
%ADD491M313*%
%ADD492M314*%
%ADD493M315*%
%ADD494M316*%
%ADD495M317*%
%ADD496M318*%
%ADD65C,0.00472*%
%ADD66O,0.11417X0.23228*%
%ADD67O,0.11024X0.12992*%
%ADD68C,0.02559*%
%ADD69C,0.04016*%
%ADD77R,0.07874X0.02559*%
%ADD78R,0.17717X0.31890*%
%ADD79R,0.05512X0.01181*%
X0000000Y0000000D02*
%LPD*%
G01*
D65*
X0089961Y0000787D02*
X0038780Y0000787D01*
X0038780Y0028346D01*
X0089961Y0028346D01*
X0089961Y0000787D01*
G36*
X0089961Y0000787D02*
G01*
X0038780Y0000787D01*
X0038780Y0028346D01*
X0089961Y0028346D01*
X0089961Y0000787D01*
G37*
D10*
X0350787Y0156299D03*
D11*
X0082047Y0130906D03*
X0082047Y0150197D03*
D10*
X0235827Y0003937D03*
D12*
X0018909Y0033933D03*
G36*
G01*
X0102953Y0044193D02*
X0102953Y0049508D01*
G75*
G02*
X0103937Y0050492I0000984J0000000D01*
G01*
X0108661Y0050492D01*
G75*
G02*
X0109646Y0049508I0000000J-000984D01*
G01*
X0109646Y0044193D01*
G75*
G02*
X0108661Y0043209I-000984J0000000D01*
G01*
X0103937Y0043209D01*
G75*
G02*
X0102953Y0044193I0000000J0000984D01*
G01*
G37*
D14*
X0116142Y0046850D03*
X0125984Y0046850D03*
X0135827Y0046850D03*
X0145669Y0046850D03*
D11*
X0251772Y0381890D03*
X0251772Y0362598D03*
X0371654Y0286594D03*
X0371654Y0301594D03*
D66*
X0008071Y0421654D03*
X0164764Y0421654D03*
D67*
X0036811Y0398031D03*
X0052953Y0398031D03*
X0066339Y0398031D03*
X0079724Y0398031D03*
X0093110Y0398031D03*
X0106496Y0398031D03*
X0120079Y0398031D03*
X0136220Y0398031D03*
X0036811Y0414370D03*
X0052953Y0414370D03*
X0066339Y0414370D03*
X0079724Y0414370D03*
X0093110Y0414370D03*
X0106496Y0414370D03*
X0120079Y0414370D03*
X0136220Y0414370D03*
X0036811Y0430315D03*
X0052953Y0430315D03*
X0066339Y0430315D03*
X0079724Y0430315D03*
X0093110Y0430315D03*
X0106496Y0430315D03*
X0120079Y0430315D03*
X0136220Y0430315D03*
D10*
X0164961Y0044094D03*
X0253543Y0003937D03*
D68*
X0106339Y0025276D03*
X0129094Y0025276D03*
D18*
X0100709Y0027244D03*
D19*
X0100709Y0010787D03*
D18*
X0134724Y0027244D03*
D19*
X0134724Y0010787D03*
D10*
X0350787Y0089764D03*
X0200394Y0003937D03*
X0184646Y0003937D03*
X0306299Y0003937D03*
D69*
X0070630Y0119291D03*
X0070630Y0190157D03*
G36*
G01*
X0057087Y0128150D02*
X0053150Y0128150D01*
G75*
G02*
X0052165Y0129134I0000000J0000984D01*
G01*
X0052165Y0133071D01*
G75*
G02*
X0053150Y0134055I0000984J0000000D01*
G01*
X0057087Y0134055D01*
G75*
G02*
X0058071Y0133071I0000000J-000984D01*
G01*
X0058071Y0129134D01*
G75*
G02*
X0057087Y0128150I-000984J0000000D01*
G01*
G37*
D20*
X0055118Y0142913D03*
X0055118Y0154724D03*
X0055118Y0166535D03*
X0055118Y0178346D03*
X0066929Y0131102D03*
X0066929Y0142913D03*
X0066929Y0154724D03*
X0066929Y0166535D03*
X0066929Y0178346D03*
D10*
X0288976Y0003937D03*
D20*
X0261024Y0231595D03*
X0235827Y0231595D03*
X0228346Y0231595D03*
X0211417Y0231595D03*
D21*
X0201969Y0229823D03*
X0198032Y0229823D03*
D20*
X0186811Y0231595D03*
X0262795Y0292618D03*
X0255512Y0292618D03*
X0236024Y0292618D03*
X0188583Y0292618D03*
D21*
X0047146Y0234449D03*
X0047146Y0239173D03*
X0047146Y0229724D03*
X0047146Y0225000D03*
X0103937Y0250433D03*
X0103937Y0254370D03*
D11*
X0129528Y0383464D03*
X0129528Y0364173D03*
X0055118Y0368681D03*
X0055118Y0383681D03*
X0319669Y0381870D03*
X0319669Y0362579D03*
X0275984Y0381890D03*
X0275984Y0362598D03*
D10*
X0218110Y0003937D03*
D12*
X0362000Y0034933D03*
D10*
X0350787Y0168110D03*
D11*
X0155906Y0383071D03*
X0155906Y0363779D03*
D10*
X0271260Y0003937D03*
D21*
X0371949Y0244980D03*
X0368209Y0244980D03*
X0364469Y0244980D03*
X0368406Y0279232D03*
X0371949Y0279232D03*
D21*
X0146791Y0076378D03*
X0139567Y0078051D03*
X0147638Y0080217D03*
X0146791Y0083661D03*
X0146496Y0087008D03*
X0139567Y0088287D03*
X0144724Y0093405D03*
X0139567Y0095965D03*
X0162894Y0067717D03*
X0146850Y0068898D03*
D21*
X0174409Y0250344D03*
X0174409Y0245620D03*
X0174409Y0255069D03*
X0174409Y0259793D03*
X0117618Y0234360D03*
X0117618Y0230423D03*
D11*
X0139173Y0383268D03*
X0139173Y0363976D03*
D10*
X0350787Y0101575D03*
D66*
X0213976Y0421654D03*
X0370669Y0421654D03*
D67*
X0242717Y0398031D03*
X0258858Y0398031D03*
X0272244Y0398031D03*
X0285630Y0398031D03*
X0299016Y0398031D03*
X0312402Y0398031D03*
X0325984Y0398031D03*
X0342126Y0398031D03*
X0242717Y0414370D03*
X0258858Y0414370D03*
X0272244Y0414370D03*
X0285630Y0414370D03*
X0299016Y0414370D03*
X0312402Y0414370D03*
X0325984Y0414370D03*
X0342126Y0414370D03*
X0242717Y0430315D03*
X0258858Y0430315D03*
X0272244Y0430315D03*
X0285630Y0430315D03*
X0299016Y0430315D03*
X0312402Y0430315D03*
X0325984Y0430315D03*
X0342126Y0430315D03*
D11*
X0221654Y0381496D03*
X0221654Y0362205D03*
D21*
X0111831Y0076523D03*
X0104607Y0078196D03*
X0112678Y0080362D03*
X0111831Y0083806D03*
X0111536Y0087153D03*
X0104607Y0088433D03*
X0109764Y0093551D03*
X0104607Y0096110D03*
X0127934Y0067862D03*
X0111890Y0069043D03*
D10*
X0283858Y0238976D03*
D11*
X0230906Y0381673D03*
X0230906Y0362382D03*
X0082047Y0163583D03*
X0082047Y0182874D03*
X0310236Y0382067D03*
X0310236Y0362776D03*
G36*
G01*
X0303543Y0359154D02*
X0302362Y0359154D01*
G75*
G02*
X0301772Y0359744I0000000J0000591D01*
G01*
X0301772Y0364370D01*
G75*
G02*
X0302362Y0364961I0000591J0000000D01*
G01*
X0303543Y0364961D01*
G75*
G02*
X0304134Y0364370I0000000J-000591D01*
G01*
X0304134Y0359744D01*
G75*
G02*
X0303543Y0359154I-000591J0000000D01*
G01*
G37*
G36*
G01*
X0299803Y0366535D02*
X0298622Y0366535D01*
G75*
G02*
X0298031Y0367126I0000000J0000591D01*
G01*
X0298031Y0371752D01*
G75*
G02*
X0298622Y0372343I0000591J0000000D01*
G01*
X0299803Y0372343D01*
G75*
G02*
X0300394Y0371752I0000000J-000591D01*
G01*
X0300394Y0367126D01*
G75*
G02*
X0299803Y0366535I-000591J0000000D01*
G01*
G37*
G36*
G01*
X0296063Y0359154D02*
X0294882Y0359154D01*
G75*
G02*
X0294291Y0359744I0000000J0000591D01*
G01*
X0294291Y0364370D01*
G75*
G02*
X0294882Y0364961I0000591J0000000D01*
G01*
X0296063Y0364961D01*
G75*
G02*
X0296654Y0364370I0000000J-000591D01*
G01*
X0296654Y0359744D01*
G75*
G02*
X0296063Y0359154I-000591J0000000D01*
G01*
G37*
G36*
G01*
X0285236Y0267677D02*
X0285236Y0264606D01*
G75*
G02*
X0284961Y0264331I-000276J0000000D01*
G01*
X0282756Y0264331D01*
G75*
G02*
X0282480Y0264606I0000000J0000276D01*
G01*
X0282480Y0267677D01*
G75*
G02*
X0282756Y0267953I0000276J0000000D01*
G01*
X0284961Y0267953D01*
G75*
G02*
X0285236Y0267677I0000000J-000276D01*
G01*
G37*
G36*
G01*
X0278937Y0267677D02*
X0278937Y0264606D01*
G75*
G02*
X0278661Y0264331I-000276J0000000D01*
G01*
X0276457Y0264331D01*
G75*
G02*
X0276181Y0264606I0000000J0000276D01*
G01*
X0276181Y0267677D01*
G75*
G02*
X0276457Y0267953I0000276J0000000D01*
G01*
X0278661Y0267953D01*
G75*
G02*
X0278937Y0267677I0000000J-000276D01*
G01*
G37*
G36*
G01*
X0088780Y0293100D02*
X0088780Y0296171D01*
G75*
G02*
X0089055Y0296447I0000276J0000000D01*
G01*
X0091260Y0296447D01*
G75*
G02*
X0091535Y0296171I0000000J-000276D01*
G01*
X0091535Y0293100D01*
G75*
G02*
X0091260Y0292825I-000276J0000000D01*
G01*
X0089055Y0292825D01*
G75*
G02*
X0088780Y0293100I0000000J0000276D01*
G01*
G37*
G36*
G01*
X0095079Y0293100D02*
X0095079Y0296171D01*
G75*
G02*
X0095354Y0296447I0000276J0000000D01*
G01*
X0097559Y0296447D01*
G75*
G02*
X0097835Y0296171I0000000J-000276D01*
G01*
X0097835Y0293100D01*
G75*
G02*
X0097559Y0292825I-000276J0000000D01*
G01*
X0095354Y0292825D01*
G75*
G02*
X0095079Y0293100I0000000J0000276D01*
G01*
G37*
G36*
G01*
X0153289Y0343268D02*
X0150218Y0343268D01*
G75*
G02*
X0149942Y0343543I0000000J0000276D01*
G01*
X0149942Y0345748D01*
G75*
G02*
X0150218Y0346024I0000276J0000000D01*
G01*
X0153289Y0346024D01*
G75*
G02*
X0153564Y0345748I0000000J-000276D01*
G01*
X0153564Y0343543D01*
G75*
G02*
X0153289Y0343268I-000276J0000000D01*
G01*
G37*
G36*
G01*
X0153289Y0349567D02*
X0150218Y0349567D01*
G75*
G02*
X0149942Y0349843I0000000J0000276D01*
G01*
X0149942Y0352047D01*
G75*
G02*
X0150218Y0352323I0000276J0000000D01*
G01*
X0153289Y0352323D01*
G75*
G02*
X0153564Y0352047I0000000J-000276D01*
G01*
X0153564Y0349843D01*
G75*
G02*
X0153289Y0349567I-000276J0000000D01*
G01*
G37*
G36*
G01*
X0112697Y0287953D02*
X0112697Y0285276D01*
G75*
G02*
X0112362Y0284941I-000335J0000000D01*
G01*
X0109685Y0284941D01*
G75*
G02*
X0109350Y0285276I0000000J0000335D01*
G01*
X0109350Y0287953D01*
G75*
G02*
X0109685Y0288287I0000335J0000000D01*
G01*
X0112362Y0288287D01*
G75*
G02*
X0112697Y0287953I0000000J-000335D01*
G01*
G37*
G36*
G01*
X0106476Y0287953D02*
X0106476Y0285276D01*
G75*
G02*
X0106142Y0284941I-000335J0000000D01*
G01*
X0103465Y0284941D01*
G75*
G02*
X0103130Y0285276I0000000J0000335D01*
G01*
X0103130Y0287953D01*
G75*
G02*
X0103465Y0288287I0000335J0000000D01*
G01*
X0106142Y0288287D01*
G75*
G02*
X0106476Y0287953I0000000J-000335D01*
G01*
G37*
G36*
G01*
X0226163Y0317972D02*
X0226163Y0313839D01*
G75*
G02*
X0225769Y0313445I-000394J0000000D01*
G01*
X0222619Y0313445D01*
G75*
G02*
X0222226Y0313839I0000000J0000394D01*
G01*
X0222226Y0317972D01*
G75*
G02*
X0222619Y0318366I0000394J0000000D01*
G01*
X0225769Y0318366D01*
G75*
G02*
X0226163Y0317972I0000000J-000394D01*
G01*
G37*
G36*
G01*
X0218289Y0317972D02*
X0218289Y0313839D01*
G75*
G02*
X0217895Y0313445I-000394J0000000D01*
G01*
X0214745Y0313445D01*
G75*
G02*
X0214352Y0313839I0000000J0000394D01*
G01*
X0214352Y0317972D01*
G75*
G02*
X0214745Y0318366I0000394J0000000D01*
G01*
X0217895Y0318366D01*
G75*
G02*
X0218289Y0317972I0000000J-000394D01*
G01*
G37*
G36*
G01*
X0315551Y0276811D02*
X0315551Y0279882D01*
G75*
G02*
X0315827Y0280157I0000276J0000000D01*
G01*
X0318031Y0280157D01*
G75*
G02*
X0318307Y0279882I0000000J-000276D01*
G01*
X0318307Y0276811D01*
G75*
G02*
X0318031Y0276535I-000276J0000000D01*
G01*
X0315827Y0276535D01*
G75*
G02*
X0315551Y0276811I0000000J0000276D01*
G01*
G37*
G36*
G01*
X0321850Y0276811D02*
X0321850Y0279882D01*
G75*
G02*
X0322126Y0280157I0000276J0000000D01*
G01*
X0324331Y0280157D01*
G75*
G02*
X0324606Y0279882I0000000J-000276D01*
G01*
X0324606Y0276811D01*
G75*
G02*
X0324331Y0276535I-000276J0000000D01*
G01*
X0322126Y0276535D01*
G75*
G02*
X0321850Y0276811I0000000J0000276D01*
G01*
G37*
G36*
G01*
X0150415Y0338799D02*
X0153092Y0338799D01*
G75*
G02*
X0153426Y0338465I0000000J-000335D01*
G01*
X0153426Y0335787D01*
G75*
G02*
X0153092Y0335453I-000335J0000000D01*
G01*
X0150415Y0335453D01*
G75*
G02*
X0150080Y0335787I0000000J0000335D01*
G01*
X0150080Y0338465D01*
G75*
G02*
X0150415Y0338799I0000335J0000000D01*
G01*
G37*
G36*
G01*
X0150415Y0332579D02*
X0153092Y0332579D01*
G75*
G02*
X0153426Y0332244I0000000J-000335D01*
G01*
X0153426Y0329567D01*
G75*
G02*
X0153092Y0329232I-000335J0000000D01*
G01*
X0150415Y0329232D01*
G75*
G02*
X0150080Y0329567I0000000J0000335D01*
G01*
X0150080Y0332244D01*
G75*
G02*
X0150415Y0332579I0000335J0000000D01*
G01*
G37*
G36*
G01*
X0223622Y0192283D02*
X0223622Y0190394D01*
G75*
G02*
X0223386Y0190157I-000236J0000000D01*
G01*
X0221496Y0190157D01*
G75*
G02*
X0221260Y0190394I0000000J0000236D01*
G01*
X0221260Y0192283D01*
G75*
G02*
X0221496Y0192520I0000236J0000000D01*
G01*
X0223386Y0192520D01*
G75*
G02*
X0223622Y0192283I0000000J-000236D01*
G01*
G37*
G36*
G01*
X0223622Y0200945D02*
X0223622Y0199055D01*
G75*
G02*
X0223386Y0198819I-000236J0000000D01*
G01*
X0221496Y0198819D01*
G75*
G02*
X0221260Y0199055I0000000J0000236D01*
G01*
X0221260Y0200945D01*
G75*
G02*
X0221496Y0201181I0000236J0000000D01*
G01*
X0223386Y0201181D01*
G75*
G02*
X0223622Y0200945I0000000J-000236D01*
G01*
G37*
G36*
G01*
X0047047Y0283110D02*
X0047047Y0286181D01*
G75*
G02*
X0047323Y0286457I0000276J0000000D01*
G01*
X0049528Y0286457D01*
G75*
G02*
X0049803Y0286181I0000000J-000276D01*
G01*
X0049803Y0283110D01*
G75*
G02*
X0049528Y0282835I-000276J0000000D01*
G01*
X0047323Y0282835D01*
G75*
G02*
X0047047Y0283110I0000000J0000276D01*
G01*
G37*
G36*
G01*
X0053346Y0283110D02*
X0053346Y0286181D01*
G75*
G02*
X0053622Y0286457I0000276J0000000D01*
G01*
X0055827Y0286457D01*
G75*
G02*
X0056102Y0286181I0000000J-000276D01*
G01*
X0056102Y0283110D01*
G75*
G02*
X0055827Y0282835I-000276J0000000D01*
G01*
X0053622Y0282835D01*
G75*
G02*
X0053346Y0283110I0000000J0000276D01*
G01*
G37*
G36*
G01*
X0047047Y0294134D02*
X0047047Y0297205D01*
G75*
G02*
X0047323Y0297480I0000276J0000000D01*
G01*
X0049528Y0297480D01*
G75*
G02*
X0049803Y0297205I0000000J-000276D01*
G01*
X0049803Y0294134D01*
G75*
G02*
X0049528Y0293858I-000276J0000000D01*
G01*
X0047323Y0293858D01*
G75*
G02*
X0047047Y0294134I0000000J0000276D01*
G01*
G37*
G36*
G01*
X0053346Y0294134D02*
X0053346Y0297205D01*
G75*
G02*
X0053622Y0297480I0000276J0000000D01*
G01*
X0055827Y0297480D01*
G75*
G02*
X0056102Y0297205I0000000J-000276D01*
G01*
X0056102Y0294134D01*
G75*
G02*
X0055827Y0293858I-000276J0000000D01*
G01*
X0053622Y0293858D01*
G75*
G02*
X0053346Y0294134I0000000J0000276D01*
G01*
G37*
G36*
G01*
X0299547Y0249843D02*
X0299547Y0252520D01*
G75*
G02*
X0299882Y0252854I0000335J0000000D01*
G01*
X0302559Y0252854D01*
G75*
G02*
X0302894Y0252520I0000000J-000335D01*
G01*
X0302894Y0249843D01*
G75*
G02*
X0302559Y0249508I-000335J0000000D01*
G01*
X0299882Y0249508D01*
G75*
G02*
X0299547Y0249843I0000000J0000335D01*
G01*
G37*
G36*
G01*
X0305768Y0249843D02*
X0305768Y0252520D01*
G75*
G02*
X0306102Y0252854I0000335J0000000D01*
G01*
X0308780Y0252854D01*
G75*
G02*
X0309114Y0252520I0000000J-000335D01*
G01*
X0309114Y0249843D01*
G75*
G02*
X0308780Y0249508I-000335J0000000D01*
G01*
X0306102Y0249508D01*
G75*
G02*
X0305768Y0249843I0000000J0000335D01*
G01*
G37*
G36*
G01*
X0275197Y0314232D02*
X0275197Y0318248D01*
G75*
G02*
X0275551Y0318602I0000354J0000000D01*
G01*
X0278386Y0318602D01*
G75*
G02*
X0278740Y0318248I0000000J-000354D01*
G01*
X0278740Y0314232D01*
G75*
G02*
X0278386Y0313878I-000354J0000000D01*
G01*
X0275551Y0313878D01*
G75*
G02*
X0275197Y0314232I0000000J0000354D01*
G01*
G37*
G36*
G01*
X0288189Y0314232D02*
X0288189Y0318248D01*
G75*
G02*
X0288543Y0318602I0000354J0000000D01*
G01*
X0291378Y0318602D01*
G75*
G02*
X0291732Y0318248I0000000J-000354D01*
G01*
X0291732Y0314232D01*
G75*
G02*
X0291378Y0313878I-000354J0000000D01*
G01*
X0288543Y0313878D01*
G75*
G02*
X0288189Y0314232I0000000J0000354D01*
G01*
G37*
G36*
G01*
X0192185Y0300551D02*
X0192185Y0297874D01*
G75*
G02*
X0191850Y0297539I-000335J0000000D01*
G01*
X0189173Y0297539D01*
G75*
G02*
X0188839Y0297874I0000000J0000335D01*
G01*
X0188839Y0300551D01*
G75*
G02*
X0189173Y0300886I0000335J0000000D01*
G01*
X0191850Y0300886D01*
G75*
G02*
X0192185Y0300551I0000000J-000335D01*
G01*
G37*
G36*
G01*
X0185965Y0300551D02*
X0185965Y0297874D01*
G75*
G02*
X0185630Y0297539I-000335J0000000D01*
G01*
X0182953Y0297539D01*
G75*
G02*
X0182618Y0297874I0000000J0000335D01*
G01*
X0182618Y0300551D01*
G75*
G02*
X0182953Y0300886I0000335J0000000D01*
G01*
X0185630Y0300886D01*
G75*
G02*
X0185965Y0300551I0000000J-000335D01*
G01*
G37*
G36*
G01*
X0236220Y0190394D02*
X0236220Y0192283D01*
G75*
G02*
X0236457Y0192520I0000236J0000000D01*
G01*
X0238346Y0192520D01*
G75*
G02*
X0238583Y0192283I0000000J-000236D01*
G01*
X0238583Y0190394D01*
G75*
G02*
X0238346Y0190157I-000236J0000000D01*
G01*
X0236457Y0190157D01*
G75*
G02*
X0236220Y0190394I0000000J0000236D01*
G01*
G37*
G36*
G01*
X0236220Y0181732D02*
X0236220Y0183622D01*
G75*
G02*
X0236457Y0183858I0000236J0000000D01*
G01*
X0238346Y0183858D01*
G75*
G02*
X0238583Y0183622I0000000J-000236D01*
G01*
X0238583Y0181732D01*
G75*
G02*
X0238346Y0181496I-000236J0000000D01*
G01*
X0236457Y0181496D01*
G75*
G02*
X0236220Y0181732I0000000J0000236D01*
G01*
G37*
G36*
G01*
X0326870Y0188878D02*
X0321949Y0188878D01*
G75*
G02*
X0320965Y0189862I0000000J0000984D01*
G01*
X0320965Y0192323D01*
G75*
G02*
X0321949Y0193307I0000984J0000000D01*
G01*
X0326870Y0193307D01*
G75*
G02*
X0327854Y0192323I0000000J-000984D01*
G01*
X0327854Y0189862D01*
G75*
G02*
X0326870Y0188878I-000984J0000000D01*
G01*
G37*
G36*
G01*
X0326870Y0200394D02*
X0321949Y0200394D01*
G75*
G02*
X0320965Y0201378I0000000J0000984D01*
G01*
X0320965Y0203839D01*
G75*
G02*
X0321949Y0204823I0000984J0000000D01*
G01*
X0326870Y0204823D01*
G75*
G02*
X0327854Y0203839I0000000J-000984D01*
G01*
X0327854Y0201378D01*
G75*
G02*
X0326870Y0200394I-000984J0000000D01*
G01*
G37*
G36*
G01*
X0216084Y0329232D02*
X0213407Y0329232D01*
G75*
G02*
X0213072Y0329567I0000000J0000335D01*
G01*
X0213072Y0332244D01*
G75*
G02*
X0213407Y0332579I0000335J0000000D01*
G01*
X0216084Y0332579D01*
G75*
G02*
X0216418Y0332244I0000000J-000335D01*
G01*
X0216418Y0329567D01*
G75*
G02*
X0216084Y0329232I-000335J0000000D01*
G01*
G37*
G36*
G01*
X0216084Y0335453D02*
X0213407Y0335453D01*
G75*
G02*
X0213072Y0335787I0000000J0000335D01*
G01*
X0213072Y0338465D01*
G75*
G02*
X0213407Y0338799I0000335J0000000D01*
G01*
X0216084Y0338799D01*
G75*
G02*
X0216418Y0338465I0000000J-000335D01*
G01*
X0216418Y0335787D01*
G75*
G02*
X0216084Y0335453I-000335J0000000D01*
G01*
G37*
G36*
G01*
X0075591Y0341486D02*
X0076772Y0341486D01*
G75*
G02*
X0077362Y0340896I0000000J-000591D01*
G01*
X0077362Y0336270D01*
G75*
G02*
X0076772Y0335679I-000591J0000000D01*
G01*
X0075591Y0335679D01*
G75*
G02*
X0075000Y0336270I0000000J0000591D01*
G01*
X0075000Y0340896D01*
G75*
G02*
X0075591Y0341486I0000591J0000000D01*
G01*
G37*
G36*
G01*
X0083071Y0341486D02*
X0084252Y0341486D01*
G75*
G02*
X0084843Y0340896I0000000J-000591D01*
G01*
X0084843Y0336270D01*
G75*
G02*
X0084252Y0335679I-000591J0000000D01*
G01*
X0083071Y0335679D01*
G75*
G02*
X0082480Y0336270I0000000J0000591D01*
G01*
X0082480Y0340896D01*
G75*
G02*
X0083071Y0341486I0000591J0000000D01*
G01*
G37*
G36*
G01*
X0079331Y0334104D02*
X0080512Y0334104D01*
G75*
G02*
X0081102Y0333514I0000000J-000591D01*
G01*
X0081102Y0328888D01*
G75*
G02*
X0080512Y0328297I-000591J0000000D01*
G01*
X0079331Y0328297D01*
G75*
G02*
X0078740Y0328888I0000000J0000591D01*
G01*
X0078740Y0333514D01*
G75*
G02*
X0079331Y0334104I0000591J0000000D01*
G01*
G37*
G36*
G01*
X0339961Y0348071D02*
X0339961Y0351142D01*
G75*
G02*
X0340236Y0351417I0000276J0000000D01*
G01*
X0342441Y0351417D01*
G75*
G02*
X0342717Y0351142I0000000J-000276D01*
G01*
X0342717Y0348071D01*
G75*
G02*
X0342441Y0347795I-000276J0000000D01*
G01*
X0340236Y0347795D01*
G75*
G02*
X0339961Y0348071I0000000J0000276D01*
G01*
G37*
G36*
G01*
X0346260Y0348071D02*
X0346260Y0351142D01*
G75*
G02*
X0346535Y0351417I0000276J0000000D01*
G01*
X0348740Y0351417D01*
G75*
G02*
X0349016Y0351142I0000000J-000276D01*
G01*
X0349016Y0348071D01*
G75*
G02*
X0348740Y0347795I-000276J0000000D01*
G01*
X0346535Y0347795D01*
G75*
G02*
X0346260Y0348071I0000000J0000276D01*
G01*
G37*
G36*
G01*
X0288681Y0276280D02*
X0283760Y0276280D01*
G75*
G02*
X0282776Y0277264I0000000J0000984D01*
G01*
X0282776Y0279724D01*
G75*
G02*
X0283760Y0280709I0000984J0000000D01*
G01*
X0288681Y0280709D01*
G75*
G02*
X0289665Y0279724I0000000J-000984D01*
G01*
X0289665Y0277264D01*
G75*
G02*
X0288681Y0276280I-000984J0000000D01*
G01*
G37*
G36*
G01*
X0288681Y0287795D02*
X0283760Y0287795D01*
G75*
G02*
X0282776Y0288780I0000000J0000984D01*
G01*
X0282776Y0291240D01*
G75*
G02*
X0283760Y0292224I0000984J0000000D01*
G01*
X0288681Y0292224D01*
G75*
G02*
X0289665Y0291240I0000000J-000984D01*
G01*
X0289665Y0288780D01*
G75*
G02*
X0288681Y0287795I-000984J0000000D01*
G01*
G37*
G36*
G01*
X0342667Y0192289D02*
X0342667Y0190400D01*
G75*
G02*
X0342431Y0190163I-000236J0000000D01*
G01*
X0340541Y0190163D01*
G75*
G02*
X0340305Y0190400I0000000J0000236D01*
G01*
X0340305Y0192289D01*
G75*
G02*
X0340541Y0192526I0000236J0000000D01*
G01*
X0342431Y0192526D01*
G75*
G02*
X0342667Y0192289I0000000J-000236D01*
G01*
G37*
G36*
G01*
X0342667Y0200951D02*
X0342667Y0199061D01*
G75*
G02*
X0342431Y0198825I-000236J0000000D01*
G01*
X0340541Y0198825D01*
G75*
G02*
X0340305Y0199061I0000000J0000236D01*
G01*
X0340305Y0200951D01*
G75*
G02*
X0340541Y0201187I0000236J0000000D01*
G01*
X0342431Y0201187D01*
G75*
G02*
X0342667Y0200951I0000000J-000236D01*
G01*
G37*
G36*
G01*
X0173130Y0295276D02*
X0173130Y0294094D01*
G75*
G02*
X0172539Y0293504I-000591J0000000D01*
G01*
X0167913Y0293504D01*
G75*
G02*
X0167323Y0294094I0000000J0000591D01*
G01*
X0167323Y0295276D01*
G75*
G02*
X0167913Y0295866I0000591J0000000D01*
G01*
X0172539Y0295866D01*
G75*
G02*
X0173130Y0295276I0000000J-000591D01*
G01*
G37*
G36*
G01*
X0165748Y0291535D02*
X0165748Y0290354D01*
G75*
G02*
X0165157Y0289764I-000591J0000000D01*
G01*
X0160531Y0289764D01*
G75*
G02*
X0159941Y0290354I0000000J0000591D01*
G01*
X0159941Y0291535D01*
G75*
G02*
X0160531Y0292126I0000591J0000000D01*
G01*
X0165157Y0292126D01*
G75*
G02*
X0165748Y0291535I0000000J-000591D01*
G01*
G37*
G36*
G01*
X0173130Y0287795D02*
X0173130Y0286614D01*
G75*
G02*
X0172539Y0286024I-000591J0000000D01*
G01*
X0167913Y0286024D01*
G75*
G02*
X0167323Y0286614I0000000J0000591D01*
G01*
X0167323Y0287795D01*
G75*
G02*
X0167913Y0288386I0000591J0000000D01*
G01*
X0172539Y0288386D01*
G75*
G02*
X0173130Y0287795I0000000J-000591D01*
G01*
G37*
G36*
G01*
X0151673Y0265650D02*
X0146752Y0265650D01*
G75*
G02*
X0145768Y0266634I0000000J0000984D01*
G01*
X0145768Y0269094D01*
G75*
G02*
X0146752Y0270079I0000984J0000000D01*
G01*
X0151673Y0270079D01*
G75*
G02*
X0152657Y0269094I0000000J-000984D01*
G01*
X0152657Y0266634D01*
G75*
G02*
X0151673Y0265650I-000984J0000000D01*
G01*
G37*
G36*
G01*
X0151673Y0277165D02*
X0146752Y0277165D01*
G75*
G02*
X0145768Y0278150I0000000J0000984D01*
G01*
X0145768Y0280610D01*
G75*
G02*
X0146752Y0281594I0000984J0000000D01*
G01*
X0151673Y0281594D01*
G75*
G02*
X0152657Y0280610I0000000J-000984D01*
G01*
X0152657Y0278150D01*
G75*
G02*
X0151673Y0277165I-000984J0000000D01*
G01*
G37*
G36*
G01*
X0334646Y0357579D02*
X0333465Y0357579D01*
G75*
G02*
X0332874Y0358169I0000000J0000591D01*
G01*
X0332874Y0362795D01*
G75*
G02*
X0333465Y0363386I0000591J0000000D01*
G01*
X0334646Y0363386D01*
G75*
G02*
X0335236Y0362795I0000000J-000591D01*
G01*
X0335236Y0358169D01*
G75*
G02*
X0334646Y0357579I-000591J0000000D01*
G01*
G37*
G36*
G01*
X0330906Y0364961D02*
X0329724Y0364961D01*
G75*
G02*
X0329134Y0365551I0000000J0000591D01*
G01*
X0329134Y0370177D01*
G75*
G02*
X0329724Y0370768I0000591J0000000D01*
G01*
X0330906Y0370768D01*
G75*
G02*
X0331496Y0370177I0000000J-000591D01*
G01*
X0331496Y0365551D01*
G75*
G02*
X0330906Y0364961I-000591J0000000D01*
G01*
G37*
G36*
G01*
X0327165Y0357579D02*
X0325984Y0357579D01*
G75*
G02*
X0325394Y0358169I0000000J0000591D01*
G01*
X0325394Y0362795D01*
G75*
G02*
X0325984Y0363386I0000591J0000000D01*
G01*
X0327165Y0363386D01*
G75*
G02*
X0327756Y0362795I0000000J-000591D01*
G01*
X0327756Y0358169D01*
G75*
G02*
X0327165Y0357579I-000591J0000000D01*
G01*
G37*
G36*
G01*
X0091142Y0138061D02*
X0091142Y0141132D01*
G75*
G02*
X0091417Y0141408I0000276J0000000D01*
G01*
X0093622Y0141408D01*
G75*
G02*
X0093898Y0141132I0000000J-000276D01*
G01*
X0093898Y0138061D01*
G75*
G02*
X0093622Y0137786I-000276J0000000D01*
G01*
X0091417Y0137786D01*
G75*
G02*
X0091142Y0138061I0000000J0000276D01*
G01*
G37*
G36*
G01*
X0097441Y0138061D02*
X0097441Y0141132D01*
G75*
G02*
X0097717Y0141408I0000276J0000000D01*
G01*
X0099921Y0141408D01*
G75*
G02*
X0100197Y0141132I0000000J-000276D01*
G01*
X0100197Y0138061D01*
G75*
G02*
X0099921Y0137786I-000276J0000000D01*
G01*
X0097717Y0137786D01*
G75*
G02*
X0097441Y0138061I0000000J0000276D01*
G01*
G37*
G36*
G01*
X0026496Y0075197D02*
X0022480Y0075197D01*
G75*
G02*
X0022126Y0075551I0000000J0000354D01*
G01*
X0022126Y0078386D01*
G75*
G02*
X0022480Y0078740I0000354J0000000D01*
G01*
X0026496Y0078740D01*
G75*
G02*
X0026850Y0078386I0000000J-000354D01*
G01*
X0026850Y0075551D01*
G75*
G02*
X0026496Y0075197I-000354J0000000D01*
G01*
G37*
G36*
G01*
X0026496Y0088189D02*
X0022480Y0088189D01*
G75*
G02*
X0022126Y0088543I0000000J0000354D01*
G01*
X0022126Y0091378D01*
G75*
G02*
X0022480Y0091732I0000354J0000000D01*
G01*
X0026496Y0091732D01*
G75*
G02*
X0026850Y0091378I0000000J-000354D01*
G01*
X0026850Y0088543D01*
G75*
G02*
X0026496Y0088189I-000354J0000000D01*
G01*
G37*
G36*
G01*
X0231053Y0192289D02*
X0231053Y0190400D01*
G75*
G02*
X0230817Y0190163I-000236J0000000D01*
G01*
X0228927Y0190163D01*
G75*
G02*
X0228691Y0190400I0000000J0000236D01*
G01*
X0228691Y0192289D01*
G75*
G02*
X0228927Y0192526I0000236J0000000D01*
G01*
X0230817Y0192526D01*
G75*
G02*
X0231053Y0192289I0000000J-000236D01*
G01*
G37*
G36*
G01*
X0231053Y0200951D02*
X0231053Y0199061D01*
G75*
G02*
X0230817Y0198825I-000236J0000000D01*
G01*
X0228927Y0198825D01*
G75*
G02*
X0228691Y0199061I0000000J0000236D01*
G01*
X0228691Y0200951D01*
G75*
G02*
X0228927Y0201187I0000236J0000000D01*
G01*
X0230817Y0201187D01*
G75*
G02*
X0231053Y0200951I0000000J-000236D01*
G01*
G37*
G36*
G01*
X0278543Y0306437D02*
X0278543Y0309508D01*
G75*
G02*
X0278819Y0309783I0000276J0000000D01*
G01*
X0281024Y0309783D01*
G75*
G02*
X0281299Y0309508I0000000J-000276D01*
G01*
X0281299Y0306437D01*
G75*
G02*
X0281024Y0306161I-000276J0000000D01*
G01*
X0278819Y0306161D01*
G75*
G02*
X0278543Y0306437I0000000J0000276D01*
G01*
G37*
G36*
G01*
X0284843Y0306437D02*
X0284843Y0309508D01*
G75*
G02*
X0285118Y0309783I0000276J0000000D01*
G01*
X0287323Y0309783D01*
G75*
G02*
X0287598Y0309508I0000000J-000276D01*
G01*
X0287598Y0306437D01*
G75*
G02*
X0287323Y0306161I-000276J0000000D01*
G01*
X0285118Y0306161D01*
G75*
G02*
X0284843Y0306437I0000000J0000276D01*
G01*
G37*
G36*
G01*
X0324606Y0285787D02*
X0324606Y0282717D01*
G75*
G02*
X0324331Y0282441I-000276J0000000D01*
G01*
X0322126Y0282441D01*
G75*
G02*
X0321850Y0282717I0000000J0000276D01*
G01*
X0321850Y0285787D01*
G75*
G02*
X0322126Y0286063I0000276J0000000D01*
G01*
X0324331Y0286063D01*
G75*
G02*
X0324606Y0285787I0000000J-000276D01*
G01*
G37*
G36*
G01*
X0318307Y0285787D02*
X0318307Y0282717D01*
G75*
G02*
X0318031Y0282441I-000276J0000000D01*
G01*
X0315827Y0282441D01*
G75*
G02*
X0315551Y0282717I0000000J0000276D01*
G01*
X0315551Y0285787D01*
G75*
G02*
X0315827Y0286063I0000276J0000000D01*
G01*
X0318031Y0286063D01*
G75*
G02*
X0318307Y0285787I0000000J-000276D01*
G01*
G37*
G36*
G01*
X0299547Y0255748D02*
X0299547Y0258425D01*
G75*
G02*
X0299882Y0258760I0000335J0000000D01*
G01*
X0302559Y0258760D01*
G75*
G02*
X0302894Y0258425I0000000J-000335D01*
G01*
X0302894Y0255748D01*
G75*
G02*
X0302559Y0255413I-000335J0000000D01*
G01*
X0299882Y0255413D01*
G75*
G02*
X0299547Y0255748I0000000J0000335D01*
G01*
G37*
G36*
G01*
X0305768Y0255748D02*
X0305768Y0258425D01*
G75*
G02*
X0306102Y0258760I0000335J0000000D01*
G01*
X0308780Y0258760D01*
G75*
G02*
X0309114Y0258425I0000000J-000335D01*
G01*
X0309114Y0255748D01*
G75*
G02*
X0308780Y0255413I-000335J0000000D01*
G01*
X0306102Y0255413D01*
G75*
G02*
X0305768Y0255748I0000000J0000335D01*
G01*
G37*
G36*
G01*
X0353209Y0264075D02*
X0349193Y0264075D01*
G75*
G02*
X0348839Y0264429I0000000J0000354D01*
G01*
X0348839Y0267264D01*
G75*
G02*
X0349193Y0267618I0000354J0000000D01*
G01*
X0353209Y0267618D01*
G75*
G02*
X0353563Y0267264I0000000J-000354D01*
G01*
X0353563Y0264429D01*
G75*
G02*
X0353209Y0264075I-000354J0000000D01*
G01*
G37*
G36*
G01*
X0353209Y0277067D02*
X0349193Y0277067D01*
G75*
G02*
X0348839Y0277421I0000000J0000354D01*
G01*
X0348839Y0280256D01*
G75*
G02*
X0349193Y0280610I0000354J0000000D01*
G01*
X0353209Y0280610D01*
G75*
G02*
X0353563Y0280256I0000000J-000354D01*
G01*
X0353563Y0277421D01*
G75*
G02*
X0353209Y0277067I-000354J0000000D01*
G01*
G37*
G36*
G01*
X0283465Y0192283D02*
X0283465Y0190394D01*
G75*
G02*
X0283228Y0190157I-000236J0000000D01*
G01*
X0281339Y0190157D01*
G75*
G02*
X0281102Y0190394I0000000J0000236D01*
G01*
X0281102Y0192283D01*
G75*
G02*
X0281339Y0192520I0000236J0000000D01*
G01*
X0283228Y0192520D01*
G75*
G02*
X0283465Y0192283I0000000J-000236D01*
G01*
G37*
G36*
G01*
X0283465Y0200945D02*
X0283465Y0199055D01*
G75*
G02*
X0283228Y0198819I-000236J0000000D01*
G01*
X0281339Y0198819D01*
G75*
G02*
X0281102Y0199055I0000000J0000236D01*
G01*
X0281102Y0200945D01*
G75*
G02*
X0281339Y0201181I0000236J0000000D01*
G01*
X0283228Y0201181D01*
G75*
G02*
X0283465Y0200945I0000000J-000236D01*
G01*
G37*
G36*
G01*
X0285492Y0273386D02*
X0285492Y0270709D01*
G75*
G02*
X0285157Y0270374I-000335J0000000D01*
G01*
X0282480Y0270374D01*
G75*
G02*
X0282146Y0270709I0000000J0000335D01*
G01*
X0282146Y0273386D01*
G75*
G02*
X0282480Y0273720I0000335J0000000D01*
G01*
X0285157Y0273720D01*
G75*
G02*
X0285492Y0273386I0000000J-000335D01*
G01*
G37*
G36*
G01*
X0279272Y0273386D02*
X0279272Y0270709D01*
G75*
G02*
X0278937Y0270374I-000335J0000000D01*
G01*
X0276260Y0270374D01*
G75*
G02*
X0275925Y0270709I0000000J0000335D01*
G01*
X0275925Y0273386D01*
G75*
G02*
X0276260Y0273720I0000335J0000000D01*
G01*
X0278937Y0273720D01*
G75*
G02*
X0279272Y0273386I0000000J-000335D01*
G01*
G37*
G36*
G01*
X0060827Y0283110D02*
X0060827Y0286181D01*
G75*
G02*
X0061102Y0286457I0000276J0000000D01*
G01*
X0063307Y0286457D01*
G75*
G02*
X0063583Y0286181I0000000J-000276D01*
G01*
X0063583Y0283110D01*
G75*
G02*
X0063307Y0282835I-000276J0000000D01*
G01*
X0061102Y0282835D01*
G75*
G02*
X0060827Y0283110I0000000J0000276D01*
G01*
G37*
G36*
G01*
X0067126Y0283110D02*
X0067126Y0286181D01*
G75*
G02*
X0067402Y0286457I0000276J0000000D01*
G01*
X0069606Y0286457D01*
G75*
G02*
X0069882Y0286181I0000000J-000276D01*
G01*
X0069882Y0283110D01*
G75*
G02*
X0069606Y0282835I-000276J0000000D01*
G01*
X0067402Y0282835D01*
G75*
G02*
X0067126Y0283110I0000000J0000276D01*
G01*
G37*
G36*
G01*
X0140699Y0295276D02*
X0140699Y0294094D01*
G75*
G02*
X0140108Y0293504I-000591J0000000D01*
G01*
X0135482Y0293504D01*
G75*
G02*
X0134892Y0294094I0000000J0000591D01*
G01*
X0134892Y0295276D01*
G75*
G02*
X0135482Y0295866I0000591J0000000D01*
G01*
X0140108Y0295866D01*
G75*
G02*
X0140699Y0295276I0000000J-000591D01*
G01*
G37*
G36*
G01*
X0133317Y0291535D02*
X0133317Y0290354D01*
G75*
G02*
X0132726Y0289764I-000591J0000000D01*
G01*
X0128100Y0289764D01*
G75*
G02*
X0127510Y0290354I0000000J0000591D01*
G01*
X0127510Y0291535D01*
G75*
G02*
X0128100Y0292126I0000591J0000000D01*
G01*
X0132726Y0292126D01*
G75*
G02*
X0133317Y0291535I0000000J-000591D01*
G01*
G37*
G36*
G01*
X0140699Y0287795D02*
X0140699Y0286614D01*
G75*
G02*
X0140108Y0286024I-000591J0000000D01*
G01*
X0135482Y0286024D01*
G75*
G02*
X0134892Y0286614I0000000J0000591D01*
G01*
X0134892Y0287795D01*
G75*
G02*
X0135482Y0288386I0000591J0000000D01*
G01*
X0140108Y0288386D01*
G75*
G02*
X0140699Y0287795I0000000J-000591D01*
G01*
G37*
G36*
G01*
X0151929Y0286417D02*
X0148858Y0286417D01*
G75*
G02*
X0148583Y0286693I0000000J0000276D01*
G01*
X0148583Y0288898D01*
G75*
G02*
X0148858Y0289173I0000276J0000000D01*
G01*
X0151929Y0289173D01*
G75*
G02*
X0152205Y0288898I0000000J-000276D01*
G01*
X0152205Y0286693D01*
G75*
G02*
X0151929Y0286417I-000276J0000000D01*
G01*
G37*
G36*
G01*
X0151929Y0292717D02*
X0148858Y0292717D01*
G75*
G02*
X0148583Y0292992I0000000J0000276D01*
G01*
X0148583Y0295197D01*
G75*
G02*
X0148858Y0295472I0000276J0000000D01*
G01*
X0151929Y0295472D01*
G75*
G02*
X0152205Y0295197I0000000J-000276D01*
G01*
X0152205Y0292992D01*
G75*
G02*
X0151929Y0292717I-000276J0000000D01*
G01*
G37*
G36*
G01*
X0291437Y0370768D02*
X0286516Y0370768D01*
G75*
G02*
X0285531Y0371752I0000000J0000984D01*
G01*
X0285531Y0374213D01*
G75*
G02*
X0286516Y0375197I0000984J0000000D01*
G01*
X0291437Y0375197D01*
G75*
G02*
X0292421Y0374213I0000000J-000984D01*
G01*
X0292421Y0371752D01*
G75*
G02*
X0291437Y0370768I-000984J0000000D01*
G01*
G37*
G36*
G01*
X0291437Y0382283D02*
X0286516Y0382283D01*
G75*
G02*
X0285531Y0383268I0000000J0000984D01*
G01*
X0285531Y0385728D01*
G75*
G02*
X0286516Y0386713I0000984J0000000D01*
G01*
X0291437Y0386713D01*
G75*
G02*
X0292421Y0385728I0000000J-000984D01*
G01*
X0292421Y0383268D01*
G75*
G02*
X0291437Y0382283I-000984J0000000D01*
G01*
G37*
G36*
G01*
X0178307Y0286417D02*
X0175236Y0286417D01*
G75*
G02*
X0174961Y0286693I0000000J0000276D01*
G01*
X0174961Y0288898D01*
G75*
G02*
X0175236Y0289173I0000276J0000000D01*
G01*
X0178307Y0289173D01*
G75*
G02*
X0178583Y0288898I0000000J-000276D01*
G01*
X0178583Y0286693D01*
G75*
G02*
X0178307Y0286417I-000276J0000000D01*
G01*
G37*
G36*
G01*
X0178307Y0292717D02*
X0175236Y0292717D01*
G75*
G02*
X0174961Y0292992I0000000J0000276D01*
G01*
X0174961Y0295197D01*
G75*
G02*
X0175236Y0295472I0000276J0000000D01*
G01*
X0178307Y0295472D01*
G75*
G02*
X0178583Y0295197I0000000J-000276D01*
G01*
X0178583Y0292992D01*
G75*
G02*
X0178307Y0292717I-000276J0000000D01*
G01*
G37*
G36*
G01*
X0348819Y0354281D02*
X0347638Y0354281D01*
G75*
G02*
X0347047Y0354872I0000000J0000591D01*
G01*
X0347047Y0359498D01*
G75*
G02*
X0347638Y0360089I0000591J0000000D01*
G01*
X0348819Y0360089D01*
G75*
G02*
X0349409Y0359498I0000000J-000591D01*
G01*
X0349409Y0354872D01*
G75*
G02*
X0348819Y0354281I-000591J0000000D01*
G01*
G37*
G36*
G01*
X0345079Y0361663D02*
X0343898Y0361663D01*
G75*
G02*
X0343307Y0362254I0000000J0000591D01*
G01*
X0343307Y0366880D01*
G75*
G02*
X0343898Y0367470I0000591J0000000D01*
G01*
X0345079Y0367470D01*
G75*
G02*
X0345669Y0366880I0000000J-000591D01*
G01*
X0345669Y0362254D01*
G75*
G02*
X0345079Y0361663I-000591J0000000D01*
G01*
G37*
G36*
G01*
X0341339Y0354281D02*
X0340157Y0354281D01*
G75*
G02*
X0339567Y0354872I0000000J0000591D01*
G01*
X0339567Y0359498D01*
G75*
G02*
X0340157Y0360089I0000591J0000000D01*
G01*
X0341339Y0360089D01*
G75*
G02*
X0341929Y0359498I0000000J-000591D01*
G01*
X0341929Y0354872D01*
G75*
G02*
X0341339Y0354281I-000591J0000000D01*
G01*
G37*
G36*
G01*
X0083661Y0291693D02*
X0083661Y0288622D01*
G75*
G02*
X0083386Y0288346I-000276J0000000D01*
G01*
X0081181Y0288346D01*
G75*
G02*
X0080906Y0288622I0000000J0000276D01*
G01*
X0080906Y0291693D01*
G75*
G02*
X0081181Y0291969I0000276J0000000D01*
G01*
X0083386Y0291969D01*
G75*
G02*
X0083661Y0291693I0000000J-000276D01*
G01*
G37*
G36*
G01*
X0077362Y0291693D02*
X0077362Y0288622D01*
G75*
G02*
X0077087Y0288346I-000276J0000000D01*
G01*
X0074882Y0288346D01*
G75*
G02*
X0074606Y0288622I0000000J0000276D01*
G01*
X0074606Y0291693D01*
G75*
G02*
X0074882Y0291969I0000276J0000000D01*
G01*
X0077087Y0291969D01*
G75*
G02*
X0077362Y0291693I0000000J-000276D01*
G01*
G37*
G36*
G01*
X0226163Y0354980D02*
X0226163Y0350846D01*
G75*
G02*
X0225769Y0350453I-000394J0000000D01*
G01*
X0222619Y0350453D01*
G75*
G02*
X0222226Y0350846I0000000J0000394D01*
G01*
X0222226Y0354980D01*
G75*
G02*
X0222619Y0355374I0000394J0000000D01*
G01*
X0225769Y0355374D01*
G75*
G02*
X0226163Y0354980I0000000J-000394D01*
G01*
G37*
G36*
G01*
X0218289Y0354980D02*
X0218289Y0350846D01*
G75*
G02*
X0217895Y0350453I-000394J0000000D01*
G01*
X0214745Y0350453D01*
G75*
G02*
X0214352Y0350846I0000000J0000394D01*
G01*
X0214352Y0354980D01*
G75*
G02*
X0214745Y0355374I0000394J0000000D01*
G01*
X0217895Y0355374D01*
G75*
G02*
X0218289Y0354980I0000000J-000394D01*
G01*
G37*
G36*
G01*
X0267421Y0333415D02*
X0272343Y0333415D01*
G75*
G02*
X0272736Y0333022I0000000J-000394D01*
G01*
X0272736Y0329872D01*
G75*
G02*
X0272343Y0329478I-000394J0000000D01*
G01*
X0267421Y0329478D01*
G75*
G02*
X0267028Y0329872I0000000J0000394D01*
G01*
X0267028Y0333022D01*
G75*
G02*
X0267421Y0333415I0000394J0000000D01*
G01*
G37*
G36*
G01*
X0267421Y0325935D02*
X0272343Y0325935D01*
G75*
G02*
X0272736Y0325541I0000000J-000394D01*
G01*
X0272736Y0322392D01*
G75*
G02*
X0272343Y0321998I-000394J0000000D01*
G01*
X0267421Y0321998D01*
G75*
G02*
X0267028Y0322392I0000000J0000394D01*
G01*
X0267028Y0325541D01*
G75*
G02*
X0267421Y0325935I0000394J0000000D01*
G01*
G37*
G36*
G01*
X0069882Y0297205D02*
X0069882Y0294134D01*
G75*
G02*
X0069606Y0293858I-000276J0000000D01*
G01*
X0067402Y0293858D01*
G75*
G02*
X0067126Y0294134I0000000J0000276D01*
G01*
X0067126Y0297205D01*
G75*
G02*
X0067402Y0297480I0000276J0000000D01*
G01*
X0069606Y0297480D01*
G75*
G02*
X0069882Y0297205I0000000J-000276D01*
G01*
G37*
G36*
G01*
X0063583Y0297205D02*
X0063583Y0294134D01*
G75*
G02*
X0063307Y0293858I-000276J0000000D01*
G01*
X0061102Y0293858D01*
G75*
G02*
X0060827Y0294134I0000000J0000276D01*
G01*
X0060827Y0297205D01*
G75*
G02*
X0061102Y0297480I0000276J0000000D01*
G01*
X0063307Y0297480D01*
G75*
G02*
X0063583Y0297205I0000000J-000276D01*
G01*
G37*
G36*
G01*
X0154764Y0295472D02*
X0157835Y0295472D01*
G75*
G02*
X0158110Y0295197I0000000J-000276D01*
G01*
X0158110Y0292992D01*
G75*
G02*
X0157835Y0292717I-000276J0000000D01*
G01*
X0154764Y0292717D01*
G75*
G02*
X0154488Y0292992I0000000J0000276D01*
G01*
X0154488Y0295197D01*
G75*
G02*
X0154764Y0295472I0000276J0000000D01*
G01*
G37*
G36*
G01*
X0154764Y0289173D02*
X0157835Y0289173D01*
G75*
G02*
X0158110Y0288898I0000000J-000276D01*
G01*
X0158110Y0286693D01*
G75*
G02*
X0157835Y0286417I-000276J0000000D01*
G01*
X0154764Y0286417D01*
G75*
G02*
X0154488Y0286693I0000000J0000276D01*
G01*
X0154488Y0288898D01*
G75*
G02*
X0154764Y0289173I0000276J0000000D01*
G01*
G37*
G36*
G01*
X0134646Y0340600D02*
X0135827Y0340600D01*
G75*
G02*
X0136417Y0340010I0000000J-000591D01*
G01*
X0136417Y0335384D01*
G75*
G02*
X0135827Y0334793I-000591J0000000D01*
G01*
X0134646Y0334793D01*
G75*
G02*
X0134055Y0335384I0000000J0000591D01*
G01*
X0134055Y0340010D01*
G75*
G02*
X0134646Y0340600I0000591J0000000D01*
G01*
G37*
G36*
G01*
X0142126Y0340600D02*
X0143307Y0340600D01*
G75*
G02*
X0143898Y0340010I0000000J-000591D01*
G01*
X0143898Y0335384D01*
G75*
G02*
X0143307Y0334793I-000591J0000000D01*
G01*
X0142126Y0334793D01*
G75*
G02*
X0141535Y0335384I0000000J0000591D01*
G01*
X0141535Y0340010D01*
G75*
G02*
X0142126Y0340600I0000591J0000000D01*
G01*
G37*
G36*
G01*
X0138386Y0333219D02*
X0139567Y0333219D01*
G75*
G02*
X0140157Y0332628I0000000J-000591D01*
G01*
X0140157Y0328002D01*
G75*
G02*
X0139567Y0327411I-000591J0000000D01*
G01*
X0138386Y0327411D01*
G75*
G02*
X0137795Y0328002I0000000J0000591D01*
G01*
X0137795Y0332628D01*
G75*
G02*
X0138386Y0333219I0000591J0000000D01*
G01*
G37*
D77*
X0202147Y0351732D03*
X0202147Y0347795D03*
X0202147Y0343858D03*
X0202147Y0339921D03*
X0202147Y0335984D03*
X0202147Y0332047D03*
X0164352Y0332047D03*
X0164352Y0335984D03*
X0164352Y0339921D03*
X0164352Y0343858D03*
X0164352Y0347795D03*
X0164352Y0351732D03*
D78*
X0183249Y0341890D03*
G36*
G01*
X0097835Y0269793D02*
X0097835Y0266722D01*
G75*
G02*
X0097559Y0266447I-000276J0000000D01*
G01*
X0095354Y0266447D01*
G75*
G02*
X0095079Y0266722I0000000J0000276D01*
G01*
X0095079Y0269793D01*
G75*
G02*
X0095354Y0270069I0000276J0000000D01*
G01*
X0097559Y0270069D01*
G75*
G02*
X0097835Y0269793I0000000J-000276D01*
G01*
G37*
G36*
G01*
X0091535Y0269793D02*
X0091535Y0266722D01*
G75*
G02*
X0091260Y0266447I-000276J0000000D01*
G01*
X0089055Y0266447D01*
G75*
G02*
X0088780Y0266722I0000000J0000276D01*
G01*
X0088780Y0269793D01*
G75*
G02*
X0089055Y0270069I0000276J0000000D01*
G01*
X0091260Y0270069D01*
G75*
G02*
X0091535Y0269793I0000000J-000276D01*
G01*
G37*
G36*
G01*
X0176870Y0265650D02*
X0171949Y0265650D01*
G75*
G02*
X0170965Y0266634I0000000J0000984D01*
G01*
X0170965Y0269094D01*
G75*
G02*
X0171949Y0270079I0000984J0000000D01*
G01*
X0176870Y0270079D01*
G75*
G02*
X0177854Y0269094I0000000J-000984D01*
G01*
X0177854Y0266634D01*
G75*
G02*
X0176870Y0265650I-000984J0000000D01*
G01*
G37*
G36*
G01*
X0176870Y0277165D02*
X0171949Y0277165D01*
G75*
G02*
X0170965Y0278150I0000000J0000984D01*
G01*
X0170965Y0280610D01*
G75*
G02*
X0171949Y0281594I0000984J0000000D01*
G01*
X0176870Y0281594D01*
G75*
G02*
X0177854Y0280610I0000000J-000984D01*
G01*
X0177854Y0278150D01*
G75*
G02*
X0176870Y0277165I-000984J0000000D01*
G01*
G37*
G36*
G01*
X0272677Y0335581D02*
X0268661Y0335581D01*
G75*
G02*
X0268307Y0335935I0000000J0000354D01*
G01*
X0268307Y0338770D01*
G75*
G02*
X0268661Y0339124I0000354J0000000D01*
G01*
X0272677Y0339124D01*
G75*
G02*
X0273031Y0338770I0000000J-000354D01*
G01*
X0273031Y0335935D01*
G75*
G02*
X0272677Y0335581I-000354J0000000D01*
G01*
G37*
G36*
G01*
X0272677Y0348573D02*
X0268661Y0348573D01*
G75*
G02*
X0268307Y0348927I0000000J0000354D01*
G01*
X0268307Y0351762D01*
G75*
G02*
X0268661Y0352116I0000354J0000000D01*
G01*
X0272677Y0352116D01*
G75*
G02*
X0273031Y0351762I0000000J-000354D01*
G01*
X0273031Y0348927D01*
G75*
G02*
X0272677Y0348573I-000354J0000000D01*
G01*
G37*
G36*
G01*
X0334843Y0348386D02*
X0334843Y0345315D01*
G75*
G02*
X0334567Y0345039I-000276J0000000D01*
G01*
X0332362Y0345039D01*
G75*
G02*
X0332087Y0345315I0000000J0000276D01*
G01*
X0332087Y0348386D01*
G75*
G02*
X0332362Y0348661I0000276J0000000D01*
G01*
X0334567Y0348661D01*
G75*
G02*
X0334843Y0348386I0000000J-000276D01*
G01*
G37*
G36*
G01*
X0328543Y0348386D02*
X0328543Y0345315D01*
G75*
G02*
X0328268Y0345039I-000276J0000000D01*
G01*
X0326063Y0345039D01*
G75*
G02*
X0325787Y0345315I0000000J0000276D01*
G01*
X0325787Y0348386D01*
G75*
G02*
X0326063Y0348661I0000276J0000000D01*
G01*
X0328268Y0348661D01*
G75*
G02*
X0328543Y0348386I0000000J-000276D01*
G01*
G37*
G36*
G01*
X0340256Y0370620D02*
X0335335Y0370620D01*
G75*
G02*
X0334350Y0371604I0000000J0000984D01*
G01*
X0334350Y0374065D01*
G75*
G02*
X0335335Y0375049I0000984J0000000D01*
G01*
X0340256Y0375049D01*
G75*
G02*
X0341240Y0374065I0000000J-000984D01*
G01*
X0341240Y0371604D01*
G75*
G02*
X0340256Y0370620I-000984J0000000D01*
G01*
G37*
G36*
G01*
X0340256Y0382136D02*
X0335335Y0382136D01*
G75*
G02*
X0334350Y0383120I0000000J0000984D01*
G01*
X0334350Y0385581D01*
G75*
G02*
X0335335Y0386565I0000984J0000000D01*
G01*
X0340256Y0386565D01*
G75*
G02*
X0341240Y0385581I0000000J-000984D01*
G01*
X0341240Y0383120D01*
G75*
G02*
X0340256Y0382136I-000984J0000000D01*
G01*
G37*
G36*
G01*
X0145876Y0286417D02*
X0142805Y0286417D01*
G75*
G02*
X0142530Y0286693I0000000J0000276D01*
G01*
X0142530Y0288898D01*
G75*
G02*
X0142805Y0289173I0000276J0000000D01*
G01*
X0145876Y0289173D01*
G75*
G02*
X0146152Y0288898I0000000J-000276D01*
G01*
X0146152Y0286693D01*
G75*
G02*
X0145876Y0286417I-000276J0000000D01*
G01*
G37*
G36*
G01*
X0145876Y0292717D02*
X0142805Y0292717D01*
G75*
G02*
X0142530Y0292992I0000000J0000276D01*
G01*
X0142530Y0295197D01*
G75*
G02*
X0142805Y0295472I0000276J0000000D01*
G01*
X0145876Y0295472D01*
G75*
G02*
X0146152Y0295197I0000000J-000276D01*
G01*
X0146152Y0292992D01*
G75*
G02*
X0145876Y0292717I-000276J0000000D01*
G01*
G37*
G36*
G01*
X0268504Y0192283D02*
X0268504Y0190394D01*
G75*
G02*
X0268268Y0190157I-000236J0000000D01*
G01*
X0266378Y0190157D01*
G75*
G02*
X0266142Y0190394I0000000J0000236D01*
G01*
X0266142Y0192283D01*
G75*
G02*
X0266378Y0192520I0000236J0000000D01*
G01*
X0268268Y0192520D01*
G75*
G02*
X0268504Y0192283I0000000J-000236D01*
G01*
G37*
G36*
G01*
X0268504Y0200945D02*
X0268504Y0199055D01*
G75*
G02*
X0268268Y0198819I-000236J0000000D01*
G01*
X0266378Y0198819D01*
G75*
G02*
X0266142Y0199055I0000000J0000236D01*
G01*
X0266142Y0200945D01*
G75*
G02*
X0266378Y0201181I0000236J0000000D01*
G01*
X0268268Y0201181D01*
G75*
G02*
X0268504Y0200945I0000000J-000236D01*
G01*
G37*
G36*
G01*
X0104921Y0138061D02*
X0104921Y0141132D01*
G75*
G02*
X0105197Y0141408I0000276J0000000D01*
G01*
X0107402Y0141408D01*
G75*
G02*
X0107677Y0141132I0000000J-000276D01*
G01*
X0107677Y0138061D01*
G75*
G02*
X0107402Y0137786I-000276J0000000D01*
G01*
X0105197Y0137786D01*
G75*
G02*
X0104921Y0138061I0000000J0000276D01*
G01*
G37*
G36*
G01*
X0111220Y0138061D02*
X0111220Y0141132D01*
G75*
G02*
X0111496Y0141408I0000276J0000000D01*
G01*
X0113701Y0141408D01*
G75*
G02*
X0113976Y0141132I0000000J-000276D01*
G01*
X0113976Y0138061D01*
G75*
G02*
X0113701Y0137786I-000276J0000000D01*
G01*
X0111496Y0137786D01*
G75*
G02*
X0111220Y0138061I0000000J0000276D01*
G01*
G37*
G36*
G01*
X0279626Y0276280D02*
X0274705Y0276280D01*
G75*
G02*
X0273720Y0277264I0000000J0000984D01*
G01*
X0273720Y0279724D01*
G75*
G02*
X0274705Y0280709I0000984J0000000D01*
G01*
X0279626Y0280709D01*
G75*
G02*
X0280610Y0279724I0000000J-000984D01*
G01*
X0280610Y0277264D01*
G75*
G02*
X0279626Y0276280I-000984J0000000D01*
G01*
G37*
G36*
G01*
X0279626Y0287795D02*
X0274705Y0287795D01*
G75*
G02*
X0273720Y0288780I0000000J0000984D01*
G01*
X0273720Y0291240D01*
G75*
G02*
X0274705Y0292224I0000984J0000000D01*
G01*
X0279626Y0292224D01*
G75*
G02*
X0280610Y0291240I0000000J-000984D01*
G01*
X0280610Y0288780D01*
G75*
G02*
X0279626Y0287795I-000984J0000000D01*
G01*
G37*
G36*
G01*
X0290945Y0192283D02*
X0290945Y0190394D01*
G75*
G02*
X0290709Y0190157I-000236J0000000D01*
G01*
X0288819Y0190157D01*
G75*
G02*
X0288583Y0190394I0000000J0000236D01*
G01*
X0288583Y0192283D01*
G75*
G02*
X0288819Y0192520I0000236J0000000D01*
G01*
X0290709Y0192520D01*
G75*
G02*
X0290945Y0192283I0000000J-000236D01*
G01*
G37*
G36*
G01*
X0290945Y0200945D02*
X0290945Y0199055D01*
G75*
G02*
X0290709Y0198819I-000236J0000000D01*
G01*
X0288819Y0198819D01*
G75*
G02*
X0288583Y0199055I0000000J0000236D01*
G01*
X0288583Y0200945D01*
G75*
G02*
X0288819Y0201181I0000236J0000000D01*
G01*
X0290709Y0201181D01*
G75*
G02*
X0290945Y0200945I0000000J-000236D01*
G01*
G37*
G36*
G01*
X0303740Y0356260D02*
X0303740Y0353189D01*
G75*
G02*
X0303465Y0352913I-000276J0000000D01*
G01*
X0301260Y0352913D01*
G75*
G02*
X0300984Y0353189I0000000J0000276D01*
G01*
X0300984Y0356260D01*
G75*
G02*
X0301260Y0356535I0000276J0000000D01*
G01*
X0303465Y0356535D01*
G75*
G02*
X0303740Y0356260I0000000J-000276D01*
G01*
G37*
G36*
G01*
X0297441Y0356260D02*
X0297441Y0353189D01*
G75*
G02*
X0297165Y0352913I-000276J0000000D01*
G01*
X0294961Y0352913D01*
G75*
G02*
X0294685Y0353189I0000000J0000276D01*
G01*
X0294685Y0356260D01*
G75*
G02*
X0294961Y0356535I0000276J0000000D01*
G01*
X0297165Y0356535D01*
G75*
G02*
X0297441Y0356260I0000000J-000276D01*
G01*
G37*
G36*
G01*
X0259055Y0351614D02*
X0259055Y0347598D01*
G75*
G02*
X0258701Y0347244I-000354J0000000D01*
G01*
X0255866Y0347244D01*
G75*
G02*
X0255512Y0347598I0000000J0000354D01*
G01*
X0255512Y0351614D01*
G75*
G02*
X0255866Y0351969I0000354J0000000D01*
G01*
X0258701Y0351969D01*
G75*
G02*
X0259055Y0351614I0000000J-000354D01*
G01*
G37*
G36*
G01*
X0246063Y0351614D02*
X0246063Y0347598D01*
G75*
G02*
X0245709Y0347244I-000354J0000000D01*
G01*
X0242874Y0347244D01*
G75*
G02*
X0242520Y0347598I0000000J0000354D01*
G01*
X0242520Y0351614D01*
G75*
G02*
X0242874Y0351969I0000354J0000000D01*
G01*
X0245709Y0351969D01*
G75*
G02*
X0246063Y0351614I0000000J-000354D01*
G01*
G37*
G36*
G01*
X0334843Y0354685D02*
X0334843Y0351614D01*
G75*
G02*
X0334567Y0351339I-000276J0000000D01*
G01*
X0332362Y0351339D01*
G75*
G02*
X0332087Y0351614I0000000J0000276D01*
G01*
X0332087Y0354685D01*
G75*
G02*
X0332362Y0354961I0000276J0000000D01*
G01*
X0334567Y0354961D01*
G75*
G02*
X0334843Y0354685I0000000J-000276D01*
G01*
G37*
G36*
G01*
X0328543Y0354685D02*
X0328543Y0351614D01*
G75*
G02*
X0328268Y0351339I-000276J0000000D01*
G01*
X0326063Y0351339D01*
G75*
G02*
X0325787Y0351614I0000000J0000276D01*
G01*
X0325787Y0354685D01*
G75*
G02*
X0326063Y0354961I0000276J0000000D01*
G01*
X0328268Y0354961D01*
G75*
G02*
X0328543Y0354685I0000000J-000276D01*
G01*
G37*
D79*
X0290551Y0263780D03*
X0290551Y0265748D03*
X0290551Y0267717D03*
X0290551Y0269685D03*
X0290551Y0271654D03*
X0307874Y0271654D03*
X0307874Y0269685D03*
X0307874Y0267717D03*
X0307874Y0265748D03*
X0307874Y0263780D03*
G36*
G01*
X0139075Y0265650D02*
X0134154Y0265650D01*
G75*
G02*
X0133169Y0266634I0000000J0000984D01*
G01*
X0133169Y0269094D01*
G75*
G02*
X0134154Y0270079I0000984J0000000D01*
G01*
X0139075Y0270079D01*
G75*
G02*
X0140059Y0269094I0000000J-000984D01*
G01*
X0140059Y0266634D01*
G75*
G02*
X0139075Y0265650I-000984J0000000D01*
G01*
G37*
G36*
G01*
X0139075Y0277165D02*
X0134154Y0277165D01*
G75*
G02*
X0133169Y0278150I0000000J0000984D01*
G01*
X0133169Y0280610D01*
G75*
G02*
X0134154Y0281594I0000984J0000000D01*
G01*
X0139075Y0281594D01*
G75*
G02*
X0140059Y0280610I0000000J-000984D01*
G01*
X0140059Y0278150D01*
G75*
G02*
X0139075Y0277165I-000984J0000000D01*
G01*
G37*
G36*
G01*
X0122333Y0295472D02*
X0125404Y0295472D01*
G75*
G02*
X0125679Y0295197I0000000J-000276D01*
G01*
X0125679Y0292992D01*
G75*
G02*
X0125404Y0292717I-000276J0000000D01*
G01*
X0122333Y0292717D01*
G75*
G02*
X0122057Y0292992I0000000J0000276D01*
G01*
X0122057Y0295197D01*
G75*
G02*
X0122333Y0295472I0000276J0000000D01*
G01*
G37*
G36*
G01*
X0122333Y0289173D02*
X0125404Y0289173D01*
G75*
G02*
X0125679Y0288898I0000000J-000276D01*
G01*
X0125679Y0286693D01*
G75*
G02*
X0125404Y0286417I-000276J0000000D01*
G01*
X0122333Y0286417D01*
G75*
G02*
X0122057Y0286693I0000000J0000276D01*
G01*
X0122057Y0288898D01*
G75*
G02*
X0122333Y0289173I0000276J0000000D01*
G01*
G37*
G36*
G01*
X0152756Y0319341D02*
X0153937Y0319341D01*
G75*
G02*
X0154528Y0318750I0000000J-000591D01*
G01*
X0154528Y0314124D01*
G75*
G02*
X0153937Y0313533I-000591J0000000D01*
G01*
X0152756Y0313533D01*
G75*
G02*
X0152165Y0314124I0000000J0000591D01*
G01*
X0152165Y0318750D01*
G75*
G02*
X0152756Y0319341I0000591J0000000D01*
G01*
G37*
G36*
G01*
X0156496Y0311959D02*
X0157677Y0311959D01*
G75*
G02*
X0158268Y0311368I0000000J-000591D01*
G01*
X0158268Y0306742D01*
G75*
G02*
X0157677Y0306152I-000591J0000000D01*
G01*
X0156496Y0306152D01*
G75*
G02*
X0155906Y0306742I0000000J0000591D01*
G01*
X0155906Y0311368D01*
G75*
G02*
X0156496Y0311959I0000591J0000000D01*
G01*
G37*
G36*
G01*
X0160236Y0319341D02*
X0161417Y0319341D01*
G75*
G02*
X0162008Y0318750I0000000J-000591D01*
G01*
X0162008Y0314124D01*
G75*
G02*
X0161417Y0313533I-000591J0000000D01*
G01*
X0160236Y0313533D01*
G75*
G02*
X0159646Y0314124I0000000J0000591D01*
G01*
X0159646Y0318750D01*
G75*
G02*
X0160236Y0319341I0000591J0000000D01*
G01*
G37*
G36*
G01*
X0238307Y0321260D02*
X0234291Y0321260D01*
G75*
G02*
X0233937Y0321614I0000000J0000354D01*
G01*
X0233937Y0324449D01*
G75*
G02*
X0234291Y0324803I0000354J0000000D01*
G01*
X0238307Y0324803D01*
G75*
G02*
X0238661Y0324449I0000000J-000354D01*
G01*
X0238661Y0321614D01*
G75*
G02*
X0238307Y0321260I-000354J0000000D01*
G01*
G37*
G36*
G01*
X0238307Y0334252D02*
X0234291Y0334252D01*
G75*
G02*
X0233937Y0334606I0000000J0000354D01*
G01*
X0233937Y0337441D01*
G75*
G02*
X0234291Y0337795I0000354J0000000D01*
G01*
X0238307Y0337795D01*
G75*
G02*
X0238661Y0337441I0000000J-000354D01*
G01*
X0238661Y0334606D01*
G75*
G02*
X0238307Y0334252I-000354J0000000D01*
G01*
G37*
G36*
G01*
X0289232Y0341890D02*
X0289232Y0339213D01*
G75*
G02*
X0288898Y0338878I-000335J0000000D01*
G01*
X0286220Y0338878D01*
G75*
G02*
X0285886Y0339213I0000000J0000335D01*
G01*
X0285886Y0341890D01*
G75*
G02*
X0286220Y0342224I0000335J0000000D01*
G01*
X0288898Y0342224D01*
G75*
G02*
X0289232Y0341890I0000000J-000335D01*
G01*
G37*
G36*
G01*
X0283012Y0341890D02*
X0283012Y0339213D01*
G75*
G02*
X0282677Y0338878I-000335J0000000D01*
G01*
X0280000Y0338878D01*
G75*
G02*
X0279665Y0339213I0000000J0000335D01*
G01*
X0279665Y0341890D01*
G75*
G02*
X0280000Y0342224I0000335J0000000D01*
G01*
X0282677Y0342224D01*
G75*
G02*
X0283012Y0341890I0000000J-000335D01*
G01*
G37*
G36*
G01*
X0114921Y0010827D02*
X0111850Y0010827D01*
G75*
G02*
X0111575Y0011102I0000000J0000276D01*
G01*
X0111575Y0013307D01*
G75*
G02*
X0111850Y0013583I0000276J0000000D01*
G01*
X0114921Y0013583D01*
G75*
G02*
X0115197Y0013307I0000000J-000276D01*
G01*
X0115197Y0011102D01*
G75*
G02*
X0114921Y0010827I-000276J0000000D01*
G01*
G37*
G36*
G01*
X0114921Y0017126D02*
X0111850Y0017126D01*
G75*
G02*
X0111575Y0017402I0000000J0000276D01*
G01*
X0111575Y0019606D01*
G75*
G02*
X0111850Y0019882I0000276J0000000D01*
G01*
X0114921Y0019882D01*
G75*
G02*
X0115197Y0019606I0000000J-000276D01*
G01*
X0115197Y0017402D01*
G75*
G02*
X0114921Y0017126I-000276J0000000D01*
G01*
G37*
G36*
G01*
X0311063Y0341142D02*
X0314134Y0341142D01*
G75*
G02*
X0314409Y0340866I0000000J-000276D01*
G01*
X0314409Y0338661D01*
G75*
G02*
X0314134Y0338386I-000276J0000000D01*
G01*
X0311063Y0338386D01*
G75*
G02*
X0310787Y0338661I0000000J0000276D01*
G01*
X0310787Y0340866D01*
G75*
G02*
X0311063Y0341142I0000276J0000000D01*
G01*
G37*
G36*
G01*
X0311063Y0334843D02*
X0314134Y0334843D01*
G75*
G02*
X0314409Y0334567I0000000J-000276D01*
G01*
X0314409Y0332362D01*
G75*
G02*
X0314134Y0332087I-000276J0000000D01*
G01*
X0311063Y0332087D01*
G75*
G02*
X0310787Y0332362I0000000J0000276D01*
G01*
X0310787Y0334567D01*
G75*
G02*
X0311063Y0334843I0000276J0000000D01*
G01*
G37*
G36*
G01*
X0183366Y0318504D02*
X0187500Y0318504D01*
G75*
G02*
X0187894Y0318110I0000000J-000394D01*
G01*
X0187894Y0314961D01*
G75*
G02*
X0187500Y0314567I-000394J0000000D01*
G01*
X0183366Y0314567D01*
G75*
G02*
X0182972Y0314961I0000000J0000394D01*
G01*
X0182972Y0318110D01*
G75*
G02*
X0183366Y0318504I0000394J0000000D01*
G01*
G37*
G36*
G01*
X0183366Y0310630D02*
X0187500Y0310630D01*
G75*
G02*
X0187894Y0310236I0000000J-000394D01*
G01*
X0187894Y0307087D01*
G75*
G02*
X0187500Y0306693I-000394J0000000D01*
G01*
X0183366Y0306693D01*
G75*
G02*
X0182972Y0307087I0000000J0000394D01*
G01*
X0182972Y0310236D01*
G75*
G02*
X0183366Y0310630I0000394J0000000D01*
G01*
G37*
G36*
G01*
X0176673Y0318504D02*
X0180807Y0318504D01*
G75*
G02*
X0181201Y0318110I0000000J-000394D01*
G01*
X0181201Y0314961D01*
G75*
G02*
X0180807Y0314567I-000394J0000000D01*
G01*
X0176673Y0314567D01*
G75*
G02*
X0176280Y0314961I0000000J0000394D01*
G01*
X0176280Y0318110D01*
G75*
G02*
X0176673Y0318504I0000394J0000000D01*
G01*
G37*
G36*
G01*
X0176673Y0310630D02*
X0180807Y0310630D01*
G75*
G02*
X0181201Y0310236I0000000J-000394D01*
G01*
X0181201Y0307087D01*
G75*
G02*
X0180807Y0306693I-000394J0000000D01*
G01*
X0176673Y0306693D01*
G75*
G02*
X0176280Y0307087I0000000J0000394D01*
G01*
X0176280Y0310236D01*
G75*
G02*
X0176673Y0310630I0000394J0000000D01*
G01*
G37*
G36*
G01*
X0216093Y0192289D02*
X0216093Y0190400D01*
G75*
G02*
X0215856Y0190163I-000236J0000000D01*
G01*
X0213967Y0190163D01*
G75*
G02*
X0213730Y0190400I0000000J0000236D01*
G01*
X0213730Y0192289D01*
G75*
G02*
X0213967Y0192526I0000236J0000000D01*
G01*
X0215856Y0192526D01*
G75*
G02*
X0216093Y0192289I0000000J-000236D01*
G01*
G37*
G36*
G01*
X0216093Y0200951D02*
X0216093Y0199061D01*
G75*
G02*
X0215856Y0198825I-000236J0000000D01*
G01*
X0213967Y0198825D01*
G75*
G02*
X0213730Y0199061I0000000J0000236D01*
G01*
X0213730Y0200951D01*
G75*
G02*
X0213967Y0201187I0000236J0000000D01*
G01*
X0215856Y0201187D01*
G75*
G02*
X0216093Y0200951I0000000J-000236D01*
G01*
G37*
G36*
G01*
X0121358Y0265650D02*
X0116437Y0265650D01*
G75*
G02*
X0115453Y0266634I0000000J0000984D01*
G01*
X0115453Y0269094D01*
G75*
G02*
X0116437Y0270079I0000984J0000000D01*
G01*
X0121358Y0270079D01*
G75*
G02*
X0122343Y0269094I0000000J-000984D01*
G01*
X0122343Y0266634D01*
G75*
G02*
X0121358Y0265650I-000984J0000000D01*
G01*
G37*
G36*
G01*
X0121358Y0277165D02*
X0116437Y0277165D01*
G75*
G02*
X0115453Y0278150I0000000J0000984D01*
G01*
X0115453Y0280610D01*
G75*
G02*
X0116437Y0281594I0000984J0000000D01*
G01*
X0121358Y0281594D01*
G75*
G02*
X0122343Y0280610I0000000J-000984D01*
G01*
X0122343Y0278150D01*
G75*
G02*
X0121358Y0277165I-000984J0000000D01*
G01*
G37*
G36*
G01*
X0307185Y0276280D02*
X0302264Y0276280D01*
G75*
G02*
X0301280Y0277264I0000000J0000984D01*
G01*
X0301280Y0279724D01*
G75*
G02*
X0302264Y0280709I0000984J0000000D01*
G01*
X0307185Y0280709D01*
G75*
G02*
X0308169Y0279724I0000000J-000984D01*
G01*
X0308169Y0277264D01*
G75*
G02*
X0307185Y0276280I-000984J0000000D01*
G01*
G37*
G36*
G01*
X0307185Y0287795D02*
X0302264Y0287795D01*
G75*
G02*
X0301280Y0288780I0000000J0000984D01*
G01*
X0301280Y0291240D01*
G75*
G02*
X0302264Y0292224I0000984J0000000D01*
G01*
X0307185Y0292224D01*
G75*
G02*
X0308169Y0291240I0000000J-000984D01*
G01*
X0308169Y0288780D01*
G75*
G02*
X0307185Y0287795I-000984J0000000D01*
G01*
G37*
G36*
G01*
X0275984Y0192283D02*
X0275984Y0190394D01*
G75*
G02*
X0275748Y0190157I-000236J0000000D01*
G01*
X0273858Y0190157D01*
G75*
G02*
X0273622Y0190394I0000000J0000236D01*
G01*
X0273622Y0192283D01*
G75*
G02*
X0273858Y0192520I0000236J0000000D01*
G01*
X0275748Y0192520D01*
G75*
G02*
X0275984Y0192283I0000000J-000236D01*
G01*
G37*
G36*
G01*
X0275984Y0200945D02*
X0275984Y0199055D01*
G75*
G02*
X0275748Y0198819I-000236J0000000D01*
G01*
X0273858Y0198819D01*
G75*
G02*
X0273622Y0199055I0000000J0000236D01*
G01*
X0273622Y0200945D01*
G75*
G02*
X0273858Y0201181I0000236J0000000D01*
G01*
X0275748Y0201181D01*
G75*
G02*
X0275984Y0200945I0000000J-000236D01*
G01*
G37*
G36*
G01*
X0324606Y0292480D02*
X0324606Y0289409D01*
G75*
G02*
X0324331Y0289134I-000276J0000000D01*
G01*
X0322126Y0289134D01*
G75*
G02*
X0321850Y0289409I0000000J0000276D01*
G01*
X0321850Y0292480D01*
G75*
G02*
X0322126Y0292756I0000276J0000000D01*
G01*
X0324331Y0292756D01*
G75*
G02*
X0324606Y0292480I0000000J-000276D01*
G01*
G37*
G36*
G01*
X0318307Y0292480D02*
X0318307Y0289409D01*
G75*
G02*
X0318031Y0289134I-000276J0000000D01*
G01*
X0315827Y0289134D01*
G75*
G02*
X0315551Y0289409I0000000J0000276D01*
G01*
X0315551Y0292480D01*
G75*
G02*
X0315827Y0292756I0000276J0000000D01*
G01*
X0318031Y0292756D01*
G75*
G02*
X0318307Y0292480I0000000J-000276D01*
G01*
G37*
G36*
G01*
X0321850Y0258622D02*
X0321850Y0255551D01*
G75*
G02*
X0321575Y0255276I-000276J0000000D01*
G01*
X0319370Y0255276D01*
G75*
G02*
X0319094Y0255551I0000000J0000276D01*
G01*
X0319094Y0258622D01*
G75*
G02*
X0319370Y0258898I0000276J0000000D01*
G01*
X0321575Y0258898D01*
G75*
G02*
X0321850Y0258622I0000000J-000276D01*
G01*
G37*
G36*
G01*
X0315551Y0258622D02*
X0315551Y0255551D01*
G75*
G02*
X0315276Y0255276I-000276J0000000D01*
G01*
X0313071Y0255276D01*
G75*
G02*
X0312795Y0255551I0000000J0000276D01*
G01*
X0312795Y0258622D01*
G75*
G02*
X0313071Y0258898I0000276J0000000D01*
G01*
X0315276Y0258898D01*
G75*
G02*
X0315551Y0258622I0000000J-000276D01*
G01*
G37*
G36*
G01*
X0350591Y0192283D02*
X0350591Y0190394D01*
G75*
G02*
X0350354Y0190157I-000236J0000000D01*
G01*
X0348465Y0190157D01*
G75*
G02*
X0348228Y0190394I0000000J0000236D01*
G01*
X0348228Y0192283D01*
G75*
G02*
X0348465Y0192520I0000236J0000000D01*
G01*
X0350354Y0192520D01*
G75*
G02*
X0350591Y0192283I0000000J-000236D01*
G01*
G37*
G36*
G01*
X0350591Y0200945D02*
X0350591Y0199055D01*
G75*
G02*
X0350354Y0198819I-000236J0000000D01*
G01*
X0348465Y0198819D01*
G75*
G02*
X0348228Y0199055I0000000J0000236D01*
G01*
X0348228Y0200945D01*
G75*
G02*
X0348465Y0201181I0000236J0000000D01*
G01*
X0350354Y0201181D01*
G75*
G02*
X0350591Y0200945I0000000J-000236D01*
G01*
G37*
G36*
G01*
X0279921Y0327746D02*
X0279921Y0330817D01*
G75*
G02*
X0280197Y0331093I0000276J0000000D01*
G01*
X0282402Y0331093D01*
G75*
G02*
X0282677Y0330817I0000000J-000276D01*
G01*
X0282677Y0327746D01*
G75*
G02*
X0282402Y0327470I-000276J0000000D01*
G01*
X0280197Y0327470D01*
G75*
G02*
X0279921Y0327746I0000000J0000276D01*
G01*
G37*
G36*
G01*
X0286220Y0327746D02*
X0286220Y0330817D01*
G75*
G02*
X0286496Y0331093I0000276J0000000D01*
G01*
X0288701Y0331093D01*
G75*
G02*
X0288976Y0330817I0000000J-000276D01*
G01*
X0288976Y0327746D01*
G75*
G02*
X0288701Y0327470I-000276J0000000D01*
G01*
X0286496Y0327470D01*
G75*
G02*
X0286220Y0327746I0000000J0000276D01*
G01*
G37*
G36*
G01*
X0119498Y0286417D02*
X0116427Y0286417D01*
G75*
G02*
X0116152Y0286693I0000000J0000276D01*
G01*
X0116152Y0288898D01*
G75*
G02*
X0116427Y0289173I0000276J0000000D01*
G01*
X0119498Y0289173D01*
G75*
G02*
X0119774Y0288898I0000000J-000276D01*
G01*
X0119774Y0286693D01*
G75*
G02*
X0119498Y0286417I-000276J0000000D01*
G01*
G37*
G36*
G01*
X0119498Y0292717D02*
X0116427Y0292717D01*
G75*
G02*
X0116152Y0292992I0000000J0000276D01*
G01*
X0116152Y0295197D01*
G75*
G02*
X0116427Y0295472I0000276J0000000D01*
G01*
X0119498Y0295472D01*
G75*
G02*
X0119774Y0295197I0000000J-000276D01*
G01*
X0119774Y0292992D01*
G75*
G02*
X0119498Y0292717I-000276J0000000D01*
G01*
G37*
G36*
G01*
X0315748Y0274311D02*
X0316929Y0274311D01*
G75*
G02*
X0317520Y0273720I0000000J-000591D01*
G01*
X0317520Y0269094D01*
G75*
G02*
X0316929Y0268504I-000591J0000000D01*
G01*
X0315748Y0268504D01*
G75*
G02*
X0315157Y0269094I0000000J0000591D01*
G01*
X0315157Y0273720D01*
G75*
G02*
X0315748Y0274311I0000591J0000000D01*
G01*
G37*
G36*
G01*
X0319488Y0266929D02*
X0320669Y0266929D01*
G75*
G02*
X0321260Y0266339I0000000J-000591D01*
G01*
X0321260Y0261713D01*
G75*
G02*
X0320669Y0261122I-000591J0000000D01*
G01*
X0319488Y0261122D01*
G75*
G02*
X0318898Y0261713I0000000J0000591D01*
G01*
X0318898Y0266339D01*
G75*
G02*
X0319488Y0266929I0000591J0000000D01*
G01*
G37*
G36*
G01*
X0323228Y0274311D02*
X0324409Y0274311D01*
G75*
G02*
X0325000Y0273720I0000000J-000591D01*
G01*
X0325000Y0269094D01*
G75*
G02*
X0324409Y0268504I-000591J0000000D01*
G01*
X0323228Y0268504D01*
G75*
G02*
X0322638Y0269094I0000000J0000591D01*
G01*
X0322638Y0273720D01*
G75*
G02*
X0323228Y0274311I0000591J0000000D01*
G01*
G37*
G36*
G01*
X0125945Y0010827D02*
X0122874Y0010827D01*
G75*
G02*
X0122598Y0011102I0000000J0000276D01*
G01*
X0122598Y0013307D01*
G75*
G02*
X0122874Y0013583I0000276J0000000D01*
G01*
X0125945Y0013583D01*
G75*
G02*
X0126220Y0013307I0000000J-000276D01*
G01*
X0126220Y0011102D01*
G75*
G02*
X0125945Y0010827I-000276J0000000D01*
G01*
G37*
G36*
G01*
X0125945Y0017126D02*
X0122874Y0017126D01*
G75*
G02*
X0122598Y0017402I0000000J0000276D01*
G01*
X0122598Y0019606D01*
G75*
G02*
X0122874Y0019882I0000276J0000000D01*
G01*
X0125945Y0019882D01*
G75*
G02*
X0126220Y0019606I0000000J-000276D01*
G01*
X0126220Y0017402D01*
G75*
G02*
X0125945Y0017126I-000276J0000000D01*
G01*
G37*
G36*
G01*
X0113780Y0143632D02*
X0112598Y0143632D01*
G75*
G02*
X0112008Y0144223I0000000J0000591D01*
G01*
X0112008Y0148849D01*
G75*
G02*
X0112598Y0149439I0000591J0000000D01*
G01*
X0113780Y0149439D01*
G75*
G02*
X0114370Y0148849I0000000J-000591D01*
G01*
X0114370Y0144223D01*
G75*
G02*
X0113780Y0143632I-000591J0000000D01*
G01*
G37*
G36*
G01*
X0106299Y0143632D02*
X0105118Y0143632D01*
G75*
G02*
X0104528Y0144223I0000000J0000591D01*
G01*
X0104528Y0148849D01*
G75*
G02*
X0105118Y0149439I0000591J0000000D01*
G01*
X0106299Y0149439D01*
G75*
G02*
X0106890Y0148849I0000000J-000591D01*
G01*
X0106890Y0144223D01*
G75*
G02*
X0106299Y0143632I-000591J0000000D01*
G01*
G37*
G36*
G01*
X0110039Y0151014D02*
X0108858Y0151014D01*
G75*
G02*
X0108268Y0151605I0000000J0000591D01*
G01*
X0108268Y0156231D01*
G75*
G02*
X0108858Y0156821I0000591J0000000D01*
G01*
X0110039Y0156821D01*
G75*
G02*
X0110630Y0156231I0000000J-000591D01*
G01*
X0110630Y0151605D01*
G75*
G02*
X0110039Y0151014I-000591J0000000D01*
G01*
G37*
G36*
G01*
X0250837Y0190388D02*
X0250837Y0192278D01*
G75*
G02*
X0251073Y0192514I0000236J0000000D01*
G01*
X0252963Y0192514D01*
G75*
G02*
X0253199Y0192278I0000000J-000236D01*
G01*
X0253199Y0190388D01*
G75*
G02*
X0252963Y0190152I-000236J0000000D01*
G01*
X0251073Y0190152D01*
G75*
G02*
X0250837Y0190388I0000000J0000236D01*
G01*
G37*
G36*
G01*
X0250837Y0181726D02*
X0250837Y0183616D01*
G75*
G02*
X0251073Y0183852I0000236J0000000D01*
G01*
X0252963Y0183852D01*
G75*
G02*
X0253199Y0183616I0000000J-000236D01*
G01*
X0253199Y0181726D01*
G75*
G02*
X0252963Y0181490I-000236J0000000D01*
G01*
X0251073Y0181490D01*
G75*
G02*
X0250837Y0181726I0000000J0000236D01*
G01*
G37*
G36*
G01*
X0358022Y0192289D02*
X0358022Y0190400D01*
G75*
G02*
X0357785Y0190163I-000236J0000000D01*
G01*
X0355896Y0190163D01*
G75*
G02*
X0355659Y0190400I0000000J0000236D01*
G01*
X0355659Y0192289D01*
G75*
G02*
X0355896Y0192526I0000236J0000000D01*
G01*
X0357785Y0192526D01*
G75*
G02*
X0358022Y0192289I0000000J-000236D01*
G01*
G37*
G36*
G01*
X0358022Y0200951D02*
X0358022Y0199061D01*
G75*
G02*
X0357785Y0198825I-000236J0000000D01*
G01*
X0355896Y0198825D01*
G75*
G02*
X0355659Y0199061I0000000J0000236D01*
G01*
X0355659Y0200951D01*
G75*
G02*
X0355896Y0201187I0000236J0000000D01*
G01*
X0357785Y0201187D01*
G75*
G02*
X0358022Y0200951I0000000J-000236D01*
G01*
G37*
G36*
G01*
X0372894Y0321161D02*
X0368878Y0321161D01*
G75*
G02*
X0368524Y0321516I0000000J0000354D01*
G01*
X0368524Y0324350D01*
G75*
G02*
X0368878Y0324705I0000354J0000000D01*
G01*
X0372894Y0324705D01*
G75*
G02*
X0373248Y0324350I0000000J-000354D01*
G01*
X0373248Y0321516D01*
G75*
G02*
X0372894Y0321161I-000354J0000000D01*
G01*
G37*
G36*
G01*
X0372894Y0334154D02*
X0368878Y0334154D01*
G75*
G02*
X0368524Y0334508I0000000J0000354D01*
G01*
X0368524Y0337343D01*
G75*
G02*
X0368878Y0337697I0000354J0000000D01*
G01*
X0372894Y0337697D01*
G75*
G02*
X0373248Y0337343I0000000J-000354D01*
G01*
X0373248Y0334508D01*
G75*
G02*
X0372894Y0334154I-000354J0000000D01*
G01*
G37*
G36*
G01*
X0100000Y0143632D02*
X0098819Y0143632D01*
G75*
G02*
X0098228Y0144223I0000000J0000591D01*
G01*
X0098228Y0148849D01*
G75*
G02*
X0098819Y0149439I0000591J0000000D01*
G01*
X0100000Y0149439D01*
G75*
G02*
X0100591Y0148849I0000000J-000591D01*
G01*
X0100591Y0144223D01*
G75*
G02*
X0100000Y0143632I-000591J0000000D01*
G01*
G37*
G36*
G01*
X0092520Y0143632D02*
X0091339Y0143632D01*
G75*
G02*
X0090748Y0144223I0000000J0000591D01*
G01*
X0090748Y0148849D01*
G75*
G02*
X0091339Y0149439I0000591J0000000D01*
G01*
X0092520Y0149439D01*
G75*
G02*
X0093110Y0148849I0000000J-000591D01*
G01*
X0093110Y0144223D01*
G75*
G02*
X0092520Y0143632I-000591J0000000D01*
G01*
G37*
G36*
G01*
X0096260Y0151014D02*
X0095079Y0151014D01*
G75*
G02*
X0094488Y0151605I0000000J0000591D01*
G01*
X0094488Y0156231D01*
G75*
G02*
X0095079Y0156821I0000591J0000000D01*
G01*
X0096260Y0156821D01*
G75*
G02*
X0096850Y0156231I0000000J-000591D01*
G01*
X0096850Y0151605D01*
G75*
G02*
X0096260Y0151014I-000591J0000000D01*
G01*
G37*
G36*
G01*
X0089567Y0160424D02*
X0089567Y0164439D01*
G75*
G02*
X0089921Y0164794I0000354J0000000D01*
G01*
X0092756Y0164794D01*
G75*
G02*
X0093110Y0164439I0000000J-000354D01*
G01*
X0093110Y0160424D01*
G75*
G02*
X0092756Y0160069I-000354J0000000D01*
G01*
X0089921Y0160069D01*
G75*
G02*
X0089567Y0160424I0000000J0000354D01*
G01*
G37*
G36*
G01*
X0102559Y0160424D02*
X0102559Y0164439D01*
G75*
G02*
X0102913Y0164794I0000354J0000000D01*
G01*
X0105748Y0164794D01*
G75*
G02*
X0106102Y0164439I0000000J-000354D01*
G01*
X0106102Y0160424D01*
G75*
G02*
X0105748Y0160069I-000354J0000000D01*
G01*
X0102913Y0160069D01*
G75*
G02*
X0102559Y0160424I0000000J0000354D01*
G01*
G37*
G36*
G01*
X0335630Y0192283D02*
X0335630Y0190394D01*
G75*
G02*
X0335394Y0190157I-000236J0000000D01*
G01*
X0333504Y0190157D01*
G75*
G02*
X0333268Y0190394I0000000J0000236D01*
G01*
X0333268Y0192283D01*
G75*
G02*
X0333504Y0192520I0000236J0000000D01*
G01*
X0335394Y0192520D01*
G75*
G02*
X0335630Y0192283I0000000J-000236D01*
G01*
G37*
G36*
G01*
X0335630Y0200945D02*
X0335630Y0199055D01*
G75*
G02*
X0335394Y0198819I-000236J0000000D01*
G01*
X0333504Y0198819D01*
G75*
G02*
X0333268Y0199055I0000000J0000236D01*
G01*
X0333268Y0200945D01*
G75*
G02*
X0333504Y0201181I0000236J0000000D01*
G01*
X0335394Y0201181D01*
G75*
G02*
X0335630Y0200945I0000000J-000236D01*
G01*
G37*
G36*
G01*
X0287205Y0343799D02*
X0286024Y0343799D01*
G75*
G02*
X0285433Y0344390I0000000J0000591D01*
G01*
X0285433Y0349016D01*
G75*
G02*
X0286024Y0349606I0000591J0000000D01*
G01*
X0287205Y0349606D01*
G75*
G02*
X0287795Y0349016I0000000J-000591D01*
G01*
X0287795Y0344390D01*
G75*
G02*
X0287205Y0343799I-000591J0000000D01*
G01*
G37*
G36*
G01*
X0283465Y0351181D02*
X0282283Y0351181D01*
G75*
G02*
X0281693Y0351772I0000000J0000591D01*
G01*
X0281693Y0356398D01*
G75*
G02*
X0282283Y0356988I0000591J0000000D01*
G01*
X0283465Y0356988D01*
G75*
G02*
X0284055Y0356398I0000000J-000591D01*
G01*
X0284055Y0351772D01*
G75*
G02*
X0283465Y0351181I-000591J0000000D01*
G01*
G37*
G36*
G01*
X0279724Y0343799D02*
X0278543Y0343799D01*
G75*
G02*
X0277953Y0344390I0000000J0000591D01*
G01*
X0277953Y0349016D01*
G75*
G02*
X0278543Y0349606I0000591J0000000D01*
G01*
X0279724Y0349606D01*
G75*
G02*
X0280315Y0349016I0000000J-000591D01*
G01*
X0280315Y0344390D01*
G75*
G02*
X0279724Y0343799I-000591J0000000D01*
G01*
G37*
G36*
G01*
X0298130Y0276280D02*
X0293209Y0276280D01*
G75*
G02*
X0292224Y0277264I0000000J0000984D01*
G01*
X0292224Y0279724D01*
G75*
G02*
X0293209Y0280709I0000984J0000000D01*
G01*
X0298130Y0280709D01*
G75*
G02*
X0299114Y0279724I0000000J-000984D01*
G01*
X0299114Y0277264D01*
G75*
G02*
X0298130Y0276280I-000984J0000000D01*
G01*
G37*
G36*
G01*
X0298130Y0287795D02*
X0293209Y0287795D01*
G75*
G02*
X0292224Y0288780I0000000J0000984D01*
G01*
X0292224Y0291240D01*
G75*
G02*
X0293209Y0292224I0000984J0000000D01*
G01*
X0298130Y0292224D01*
G75*
G02*
X0299114Y0291240I0000000J-000984D01*
G01*
X0299114Y0288780D01*
G75*
G02*
X0298130Y0287795I-000984J0000000D01*
G01*
G37*
G36*
G01*
X0226163Y0311280D02*
X0226163Y0307146D01*
G75*
G02*
X0225769Y0306752I-000394J0000000D01*
G01*
X0222619Y0306752D01*
G75*
G02*
X0222226Y0307146I0000000J0000394D01*
G01*
X0222226Y0311280D01*
G75*
G02*
X0222619Y0311673I0000394J0000000D01*
G01*
X0225769Y0311673D01*
G75*
G02*
X0226163Y0311280I0000000J-000394D01*
G01*
G37*
G36*
G01*
X0218289Y0311280D02*
X0218289Y0307146D01*
G75*
G02*
X0217895Y0306752I-000394J0000000D01*
G01*
X0214745Y0306752D01*
G75*
G02*
X0214352Y0307146I0000000J0000394D01*
G01*
X0214352Y0311280D01*
G75*
G02*
X0214745Y0311673I0000394J0000000D01*
G01*
X0217895Y0311673D01*
G75*
G02*
X0218289Y0311280I0000000J-000394D01*
G01*
G37*
G36*
G01*
X0105118Y0340600D02*
X0106299Y0340600D01*
G75*
G02*
X0106890Y0340010I0000000J-000591D01*
G01*
X0106890Y0335384D01*
G75*
G02*
X0106299Y0334793I-000591J0000000D01*
G01*
X0105118Y0334793D01*
G75*
G02*
X0104528Y0335384I0000000J0000591D01*
G01*
X0104528Y0340010D01*
G75*
G02*
X0105118Y0340600I0000591J0000000D01*
G01*
G37*
G36*
G01*
X0112598Y0340600D02*
X0113780Y0340600D01*
G75*
G02*
X0114370Y0340010I0000000J-000591D01*
G01*
X0114370Y0335384D01*
G75*
G02*
X0113780Y0334793I-000591J0000000D01*
G01*
X0112598Y0334793D01*
G75*
G02*
X0112008Y0335384I0000000J0000591D01*
G01*
X0112008Y0340010D01*
G75*
G02*
X0112598Y0340600I0000591J0000000D01*
G01*
G37*
G36*
G01*
X0108858Y0333219D02*
X0110039Y0333219D01*
G75*
G02*
X0110630Y0332628I0000000J-000591D01*
G01*
X0110630Y0328002D01*
G75*
G02*
X0110039Y0327411I-000591J0000000D01*
G01*
X0108858Y0327411D01*
G75*
G02*
X0108268Y0328002I0000000J0000591D01*
G01*
X0108268Y0332628D01*
G75*
G02*
X0108858Y0333219I0000591J0000000D01*
G01*
G37*
G36*
G01*
X0203839Y0318504D02*
X0207972Y0318504D01*
G75*
G02*
X0208366Y0318110I0000000J-000394D01*
G01*
X0208366Y0314961D01*
G75*
G02*
X0207972Y0314567I-000394J0000000D01*
G01*
X0203839Y0314567D01*
G75*
G02*
X0203445Y0314961I0000000J0000394D01*
G01*
X0203445Y0318110D01*
G75*
G02*
X0203839Y0318504I0000394J0000000D01*
G01*
G37*
G36*
G01*
X0203839Y0310630D02*
X0207972Y0310630D01*
G75*
G02*
X0208366Y0310236I0000000J-000394D01*
G01*
X0208366Y0307087D01*
G75*
G02*
X0207972Y0306693I-000394J0000000D01*
G01*
X0203839Y0306693D01*
G75*
G02*
X0203445Y0307087I0000000J0000394D01*
G01*
X0203445Y0310236D01*
G75*
G02*
X0203839Y0310630I0000394J0000000D01*
G01*
G37*
G36*
G01*
X0271654Y0317136D02*
X0271654Y0314065D01*
G75*
G02*
X0271378Y0313789I-000276J0000000D01*
G01*
X0269173Y0313789D01*
G75*
G02*
X0268898Y0314065I0000000J0000276D01*
G01*
X0268898Y0317136D01*
G75*
G02*
X0269173Y0317411I0000276J0000000D01*
G01*
X0271378Y0317411D01*
G75*
G02*
X0271654Y0317136I0000000J-000276D01*
G01*
G37*
G36*
G01*
X0265354Y0317136D02*
X0265354Y0314065D01*
G75*
G02*
X0265079Y0313789I-000276J0000000D01*
G01*
X0262874Y0313789D01*
G75*
G02*
X0262598Y0314065I0000000J0000276D01*
G01*
X0262598Y0317136D01*
G75*
G02*
X0262874Y0317411I0000276J0000000D01*
G01*
X0265079Y0317411D01*
G75*
G02*
X0265354Y0317136I0000000J-000276D01*
G01*
G37*
G36*
G01*
X0196752Y0318504D02*
X0200886Y0318504D01*
G75*
G02*
X0201280Y0318110I0000000J-000394D01*
G01*
X0201280Y0314961D01*
G75*
G02*
X0200886Y0314567I-000394J0000000D01*
G01*
X0196752Y0314567D01*
G75*
G02*
X0196358Y0314961I0000000J0000394D01*
G01*
X0196358Y0318110D01*
G75*
G02*
X0196752Y0318504I0000394J0000000D01*
G01*
G37*
G36*
G01*
X0196752Y0310630D02*
X0200886Y0310630D01*
G75*
G02*
X0201280Y0310236I0000000J-000394D01*
G01*
X0201280Y0307087D01*
G75*
G02*
X0200886Y0306693I-000394J0000000D01*
G01*
X0196752Y0306693D01*
G75*
G02*
X0196358Y0307087I0000000J0000394D01*
G01*
X0196358Y0310236D01*
G75*
G02*
X0196752Y0310630I0000394J0000000D01*
G01*
G37*
G36*
G01*
X0060827Y0288622D02*
X0060827Y0291693D01*
G75*
G02*
X0061102Y0291969I0000276J0000000D01*
G01*
X0063307Y0291969D01*
G75*
G02*
X0063583Y0291693I0000000J-000276D01*
G01*
X0063583Y0288622D01*
G75*
G02*
X0063307Y0288346I-000276J0000000D01*
G01*
X0061102Y0288346D01*
G75*
G02*
X0060827Y0288622I0000000J0000276D01*
G01*
G37*
G36*
G01*
X0067126Y0288622D02*
X0067126Y0291693D01*
G75*
G02*
X0067402Y0291969I0000276J0000000D01*
G01*
X0069606Y0291969D01*
G75*
G02*
X0069882Y0291693I0000000J-000276D01*
G01*
X0069882Y0288622D01*
G75*
G02*
X0069606Y0288346I-000276J0000000D01*
G01*
X0067402Y0288346D01*
G75*
G02*
X0067126Y0288622I0000000J0000276D01*
G01*
G37*
G36*
G01*
X0102205Y0291240D02*
X0102205Y0296161D01*
G75*
G02*
X0102598Y0296555I0000394J0000000D01*
G01*
X0105748Y0296555D01*
G75*
G02*
X0106142Y0296161I0000000J-000394D01*
G01*
X0106142Y0291240D01*
G75*
G02*
X0105748Y0290846I-000394J0000000D01*
G01*
X0102598Y0290846D01*
G75*
G02*
X0102205Y0291240I0000000J0000394D01*
G01*
G37*
G36*
G01*
X0109685Y0291240D02*
X0109685Y0296161D01*
G75*
G02*
X0110079Y0296555I0000394J0000000D01*
G01*
X0113228Y0296555D01*
G75*
G02*
X0113622Y0296161I0000000J-000394D01*
G01*
X0113622Y0291240D01*
G75*
G02*
X0113228Y0290846I-000394J0000000D01*
G01*
X0110079Y0290846D01*
G75*
G02*
X0109685Y0291240I0000000J0000394D01*
G01*
G37*
G36*
G01*
X0164272Y0265650D02*
X0159350Y0265650D01*
G75*
G02*
X0158366Y0266634I0000000J0000984D01*
G01*
X0158366Y0269094D01*
G75*
G02*
X0159350Y0270079I0000984J0000000D01*
G01*
X0164272Y0270079D01*
G75*
G02*
X0165256Y0269094I0000000J-000984D01*
G01*
X0165256Y0266634D01*
G75*
G02*
X0164272Y0265650I-000984J0000000D01*
G01*
G37*
G36*
G01*
X0164272Y0277165D02*
X0159350Y0277165D01*
G75*
G02*
X0158366Y0278150I0000000J0000984D01*
G01*
X0158366Y0280610D01*
G75*
G02*
X0159350Y0281594I0000984J0000000D01*
G01*
X0164272Y0281594D01*
G75*
G02*
X0165256Y0280610I0000000J-000984D01*
G01*
X0165256Y0278150D01*
G75*
G02*
X0164272Y0277165I-000984J0000000D01*
G01*
G37*
G36*
G01*
X0317815Y0188878D02*
X0312894Y0188878D01*
G75*
G02*
X0311909Y0189862I0000000J0000984D01*
G01*
X0311909Y0192323D01*
G75*
G02*
X0312894Y0193307I0000984J0000000D01*
G01*
X0317815Y0193307D01*
G75*
G02*
X0318799Y0192323I0000000J-000984D01*
G01*
X0318799Y0189862D01*
G75*
G02*
X0317815Y0188878I-000984J0000000D01*
G01*
G37*
G36*
G01*
X0317815Y0200394D02*
X0312894Y0200394D01*
G75*
G02*
X0311909Y0201378I0000000J0000984D01*
G01*
X0311909Y0203839D01*
G75*
G02*
X0312894Y0204823I0000984J0000000D01*
G01*
X0317815Y0204823D01*
G75*
G02*
X0318799Y0203839I0000000J-000984D01*
G01*
X0318799Y0201378D01*
G75*
G02*
X0317815Y0200394I-000984J0000000D01*
G01*
G37*
G36*
G01*
X0033268Y0283110D02*
X0033268Y0286181D01*
G75*
G02*
X0033543Y0286457I0000276J0000000D01*
G01*
X0035748Y0286457D01*
G75*
G02*
X0036024Y0286181I0000000J-000276D01*
G01*
X0036024Y0283110D01*
G75*
G02*
X0035748Y0282835I-000276J0000000D01*
G01*
X0033543Y0282835D01*
G75*
G02*
X0033268Y0283110I0000000J0000276D01*
G01*
G37*
G36*
G01*
X0039567Y0283110D02*
X0039567Y0286181D01*
G75*
G02*
X0039843Y0286457I0000276J0000000D01*
G01*
X0042047Y0286457D01*
G75*
G02*
X0042323Y0286181I0000000J-000276D01*
G01*
X0042323Y0283110D01*
G75*
G02*
X0042047Y0282835I-000276J0000000D01*
G01*
X0039843Y0282835D01*
G75*
G02*
X0039567Y0283110I0000000J0000276D01*
G01*
G37*
D49*
X0373228Y0006693D03*
G36*
G01*
X0042323Y0297205D02*
X0042323Y0294134D01*
G75*
G02*
X0042047Y0293858I-000276J0000000D01*
G01*
X0039843Y0293858D01*
G75*
G02*
X0039567Y0294134I0000000J0000276D01*
G01*
X0039567Y0297205D01*
G75*
G02*
X0039843Y0297480I0000276J0000000D01*
G01*
X0042047Y0297480D01*
G75*
G02*
X0042323Y0297205I0000000J-000276D01*
G01*
G37*
G36*
G01*
X0036024Y0297205D02*
X0036024Y0294134D01*
G75*
G02*
X0035748Y0293858I-000276J0000000D01*
G01*
X0033543Y0293858D01*
G75*
G02*
X0033268Y0294134I0000000J0000276D01*
G01*
X0033268Y0297205D01*
G75*
G02*
X0033543Y0297480I0000276J0000000D01*
G01*
X0035748Y0297480D01*
G75*
G02*
X0036024Y0297205I0000000J-000276D01*
G01*
G37*
G36*
G01*
X0244291Y0339803D02*
X0244291Y0342874D01*
G75*
G02*
X0244567Y0343150I0000276J0000000D01*
G01*
X0246772Y0343150D01*
G75*
G02*
X0247047Y0342874I0000000J-000276D01*
G01*
X0247047Y0339803D01*
G75*
G02*
X0246772Y0339528I-000276J0000000D01*
G01*
X0244567Y0339528D01*
G75*
G02*
X0244291Y0339803I0000000J0000276D01*
G01*
G37*
G36*
G01*
X0250591Y0339803D02*
X0250591Y0342874D01*
G75*
G02*
X0250866Y0343150I0000276J0000000D01*
G01*
X0253071Y0343150D01*
G75*
G02*
X0253346Y0342874I0000000J-000276D01*
G01*
X0253346Y0339803D01*
G75*
G02*
X0253071Y0339528I-000276J0000000D01*
G01*
X0250866Y0339528D01*
G75*
G02*
X0250591Y0339803I0000000J0000276D01*
G01*
G37*
G36*
G01*
X0226163Y0325059D02*
X0226163Y0320925D01*
G75*
G02*
X0225769Y0320531I-000394J0000000D01*
G01*
X0222619Y0320531D01*
G75*
G02*
X0222226Y0320925I0000000J0000394D01*
G01*
X0222226Y0325059D01*
G75*
G02*
X0222619Y0325453I0000394J0000000D01*
G01*
X0225769Y0325453D01*
G75*
G02*
X0226163Y0325059I0000000J-000394D01*
G01*
G37*
G36*
G01*
X0218289Y0325059D02*
X0218289Y0320925D01*
G75*
G02*
X0217895Y0320531I-000394J0000000D01*
G01*
X0214745Y0320531D01*
G75*
G02*
X0214352Y0320925I0000000J0000394D01*
G01*
X0214352Y0325059D01*
G75*
G02*
X0214745Y0325453I0000394J0000000D01*
G01*
X0217895Y0325453D01*
G75*
G02*
X0218289Y0325059I0000000J-000394D01*
G01*
G37*
G36*
G01*
X0098445Y0320571D02*
X0094429Y0320571D01*
G75*
G02*
X0094075Y0320925I0000000J0000354D01*
G01*
X0094075Y0323760D01*
G75*
G02*
X0094429Y0324114I0000354J0000000D01*
G01*
X0098445Y0324114D01*
G75*
G02*
X0098799Y0323760I0000000J-000354D01*
G01*
X0098799Y0320925D01*
G75*
G02*
X0098445Y0320571I-000354J0000000D01*
G01*
G37*
G36*
G01*
X0098445Y0333563D02*
X0094429Y0333563D01*
G75*
G02*
X0094075Y0333917I0000000J0000354D01*
G01*
X0094075Y0336752D01*
G75*
G02*
X0094429Y0337106I0000354J0000000D01*
G01*
X0098445Y0337106D01*
G75*
G02*
X0098799Y0336752I0000000J-000354D01*
G01*
X0098799Y0333917D01*
G75*
G02*
X0098445Y0333563I-000354J0000000D01*
G01*
G37*
G36*
G01*
X0074606Y0293740D02*
X0074606Y0296811D01*
G75*
G02*
X0074882Y0297087I0000276J0000000D01*
G01*
X0077087Y0297087D01*
G75*
G02*
X0077362Y0296811I0000000J-000276D01*
G01*
X0077362Y0293740D01*
G75*
G02*
X0077087Y0293465I-000276J0000000D01*
G01*
X0074882Y0293465D01*
G75*
G02*
X0074606Y0293740I0000000J0000276D01*
G01*
G37*
G36*
G01*
X0080906Y0293740D02*
X0080906Y0296811D01*
G75*
G02*
X0081181Y0297087I0000276J0000000D01*
G01*
X0083386Y0297087D01*
G75*
G02*
X0083661Y0296811I0000000J-000276D01*
G01*
X0083661Y0293740D01*
G75*
G02*
X0083386Y0293465I-000276J0000000D01*
G01*
X0081181Y0293465D01*
G75*
G02*
X0080906Y0293740I0000000J0000276D01*
G01*
G37*
G36*
G01*
X0308169Y0340551D02*
X0308169Y0339370D01*
G75*
G02*
X0307579Y0338780I-000591J0000000D01*
G01*
X0302953Y0338780D01*
G75*
G02*
X0302362Y0339370I0000000J0000591D01*
G01*
X0302362Y0340551D01*
G75*
G02*
X0302953Y0341142I0000591J0000000D01*
G01*
X0307579Y0341142D01*
G75*
G02*
X0308169Y0340551I0000000J-000591D01*
G01*
G37*
G36*
G01*
X0300787Y0336811D02*
X0300787Y0335630D01*
G75*
G02*
X0300197Y0335039I-000591J0000000D01*
G01*
X0295571Y0335039D01*
G75*
G02*
X0294980Y0335630I0000000J0000591D01*
G01*
X0294980Y0336811D01*
G75*
G02*
X0295571Y0337402I0000591J0000000D01*
G01*
X0300197Y0337402D01*
G75*
G02*
X0300787Y0336811I0000000J-000591D01*
G01*
G37*
G36*
G01*
X0308169Y0333071D02*
X0308169Y0331890D01*
G75*
G02*
X0307579Y0331299I-000591J0000000D01*
G01*
X0302953Y0331299D01*
G75*
G02*
X0302362Y0331890I0000000J0000591D01*
G01*
X0302362Y0333071D01*
G75*
G02*
X0302953Y0333661I0000591J0000000D01*
G01*
X0307579Y0333661D01*
G75*
G02*
X0308169Y0333071I0000000J-000591D01*
G01*
G37*
G36*
G01*
X0323720Y0332677D02*
X0323720Y0333858D01*
G75*
G02*
X0324311Y0334449I0000591J0000000D01*
G01*
X0328937Y0334449D01*
G75*
G02*
X0329528Y0333858I0000000J-000591D01*
G01*
X0329528Y0332677D01*
G75*
G02*
X0328937Y0332087I-000591J0000000D01*
G01*
X0324311Y0332087D01*
G75*
G02*
X0323720Y0332677I0000000J0000591D01*
G01*
G37*
G36*
G01*
X0331102Y0336417D02*
X0331102Y0337598D01*
G75*
G02*
X0331693Y0338189I0000591J0000000D01*
G01*
X0336319Y0338189D01*
G75*
G02*
X0336909Y0337598I0000000J-000591D01*
G01*
X0336909Y0336417D01*
G75*
G02*
X0336319Y0335827I-000591J0000000D01*
G01*
X0331693Y0335827D01*
G75*
G02*
X0331102Y0336417I0000000J0000591D01*
G01*
G37*
G36*
G01*
X0323720Y0340157D02*
X0323720Y0341339D01*
G75*
G02*
X0324311Y0341929I0000591J0000000D01*
G01*
X0328937Y0341929D01*
G75*
G02*
X0329528Y0341339I0000000J-000591D01*
G01*
X0329528Y0340157D01*
G75*
G02*
X0328937Y0339567I-000591J0000000D01*
G01*
X0324311Y0339567D01*
G75*
G02*
X0323720Y0340157I0000000J0000591D01*
G01*
G37*
G36*
G01*
X0033268Y0288622D02*
X0033268Y0291693D01*
G75*
G02*
X0033543Y0291969I0000276J0000000D01*
G01*
X0035748Y0291969D01*
G75*
G02*
X0036024Y0291693I0000000J-000276D01*
G01*
X0036024Y0288622D01*
G75*
G02*
X0035748Y0288346I-000276J0000000D01*
G01*
X0033543Y0288346D01*
G75*
G02*
X0033268Y0288622I0000000J0000276D01*
G01*
G37*
G36*
G01*
X0039567Y0288622D02*
X0039567Y0291693D01*
G75*
G02*
X0039843Y0291969I0000276J0000000D01*
G01*
X0042047Y0291969D01*
G75*
G02*
X0042323Y0291693I0000000J-000276D01*
G01*
X0042323Y0288622D01*
G75*
G02*
X0042047Y0288346I-000276J0000000D01*
G01*
X0039843Y0288346D01*
G75*
G02*
X0039567Y0288622I0000000J0000276D01*
G01*
G37*
G36*
G01*
X0108760Y0265650D02*
X0103839Y0265650D01*
G75*
G02*
X0102854Y0266634I0000000J0000984D01*
G01*
X0102854Y0269094D01*
G75*
G02*
X0103839Y0270079I0000984J0000000D01*
G01*
X0108760Y0270079D01*
G75*
G02*
X0109744Y0269094I0000000J-000984D01*
G01*
X0109744Y0266634D01*
G75*
G02*
X0108760Y0265650I-000984J0000000D01*
G01*
G37*
G36*
G01*
X0108760Y0277165D02*
X0103839Y0277165D01*
G75*
G02*
X0102854Y0278150I0000000J0000984D01*
G01*
X0102854Y0280610D01*
G75*
G02*
X0103839Y0281594I0000984J0000000D01*
G01*
X0108760Y0281594D01*
G75*
G02*
X0109744Y0280610I0000000J-000984D01*
G01*
X0109744Y0278150D01*
G75*
G02*
X0108760Y0277165I-000984J0000000D01*
G01*
G37*
G36*
G01*
X0208661Y0192283D02*
X0208661Y0190394D01*
G75*
G02*
X0208425Y0190157I-000236J0000000D01*
G01*
X0206535Y0190157D01*
G75*
G02*
X0206299Y0190394I0000000J0000236D01*
G01*
X0206299Y0192283D01*
G75*
G02*
X0206535Y0192520I0000236J0000000D01*
G01*
X0208425Y0192520D01*
G75*
G02*
X0208661Y0192283I0000000J-000236D01*
G01*
G37*
G36*
G01*
X0208661Y0200945D02*
X0208661Y0199055D01*
G75*
G02*
X0208425Y0198819I-000236J0000000D01*
G01*
X0206535Y0198819D01*
G75*
G02*
X0206299Y0199055I0000000J0000236D01*
G01*
X0206299Y0200945D01*
G75*
G02*
X0206535Y0201181I0000236J0000000D01*
G01*
X0208425Y0201181D01*
G75*
G02*
X0208661Y0200945I0000000J-000236D01*
G01*
G37*
G36*
G01*
X0288976Y0335935D02*
X0288976Y0332864D01*
G75*
G02*
X0288701Y0332589I-000276J0000000D01*
G01*
X0286496Y0332589D01*
G75*
G02*
X0286220Y0332864I0000000J0000276D01*
G01*
X0286220Y0335935D01*
G75*
G02*
X0286496Y0336211I0000276J0000000D01*
G01*
X0288701Y0336211D01*
G75*
G02*
X0288976Y0335935I0000000J-000276D01*
G01*
G37*
G36*
G01*
X0282677Y0335935D02*
X0282677Y0332864D01*
G75*
G02*
X0282402Y0332589I-000276J0000000D01*
G01*
X0280197Y0332589D01*
G75*
G02*
X0279921Y0332864I0000000J0000276D01*
G01*
X0279921Y0335935D01*
G75*
G02*
X0280197Y0336211I0000276J0000000D01*
G01*
X0282402Y0336211D01*
G75*
G02*
X0282677Y0335935I0000000J-000276D01*
G01*
G37*
G36*
G01*
X0261024Y0192283D02*
X0261024Y0190394D01*
G75*
G02*
X0260787Y0190157I-000236J0000000D01*
G01*
X0258898Y0190157D01*
G75*
G02*
X0258661Y0190394I0000000J0000236D01*
G01*
X0258661Y0192283D01*
G75*
G02*
X0258898Y0192520I0000236J0000000D01*
G01*
X0260787Y0192520D01*
G75*
G02*
X0261024Y0192283I0000000J-000236D01*
G01*
G37*
G36*
G01*
X0261024Y0200945D02*
X0261024Y0199055D01*
G75*
G02*
X0260787Y0198819I-000236J0000000D01*
G01*
X0258898Y0198819D01*
G75*
G02*
X0258661Y0199055I0000000J0000236D01*
G01*
X0258661Y0200945D01*
G75*
G02*
X0258898Y0201181I0000236J0000000D01*
G01*
X0260787Y0201181D01*
G75*
G02*
X0261024Y0200945I0000000J-000236D01*
G01*
G37*
G36*
G01*
X0127205Y0320472D02*
X0123189Y0320472D01*
G75*
G02*
X0122835Y0320827I0000000J0000354D01*
G01*
X0122835Y0323661D01*
G75*
G02*
X0123189Y0324016I0000354J0000000D01*
G01*
X0127205Y0324016D01*
G75*
G02*
X0127559Y0323661I0000000J-000354D01*
G01*
X0127559Y0320827D01*
G75*
G02*
X0127205Y0320472I-000354J0000000D01*
G01*
G37*
G36*
G01*
X0127205Y0333465D02*
X0123189Y0333465D01*
G75*
G02*
X0122835Y0333819I0000000J0000354D01*
G01*
X0122835Y0336654D01*
G75*
G02*
X0123189Y0337008I0000354J0000000D01*
G01*
X0127205Y0337008D01*
G75*
G02*
X0127559Y0336654I0000000J-000354D01*
G01*
X0127559Y0333819D01*
G75*
G02*
X0127205Y0333465I-000354J0000000D01*
G01*
G37*
G36*
G01*
X0074606Y0283110D02*
X0074606Y0286181D01*
G75*
G02*
X0074882Y0286457I0000276J0000000D01*
G01*
X0077087Y0286457D01*
G75*
G02*
X0077362Y0286181I0000000J-000276D01*
G01*
X0077362Y0283110D01*
G75*
G02*
X0077087Y0282835I-000276J0000000D01*
G01*
X0074882Y0282835D01*
G75*
G02*
X0074606Y0283110I0000000J0000276D01*
G01*
G37*
G36*
G01*
X0080906Y0283110D02*
X0080906Y0286181D01*
G75*
G02*
X0081181Y0286457I0000276J0000000D01*
G01*
X0083386Y0286457D01*
G75*
G02*
X0083661Y0286181I0000000J-000276D01*
G01*
X0083661Y0283110D01*
G75*
G02*
X0083386Y0282835I-000276J0000000D01*
G01*
X0081181Y0282835D01*
G75*
G02*
X0080906Y0283110I0000000J0000276D01*
G01*
G37*
G36*
G01*
X0294685Y0347283D02*
X0294685Y0350354D01*
G75*
G02*
X0294961Y0350630I0000276J0000000D01*
G01*
X0297165Y0350630D01*
G75*
G02*
X0297441Y0350354I0000000J-000276D01*
G01*
X0297441Y0347283D01*
G75*
G02*
X0297165Y0347008I-000276J0000000D01*
G01*
X0294961Y0347008D01*
G75*
G02*
X0294685Y0347283I0000000J0000276D01*
G01*
G37*
G36*
G01*
X0300984Y0347283D02*
X0300984Y0350354D01*
G75*
G02*
X0301260Y0350630I0000276J0000000D01*
G01*
X0303465Y0350630D01*
G75*
G02*
X0303740Y0350354I0000000J-000276D01*
G01*
X0303740Y0347283D01*
G75*
G02*
X0303465Y0347008I-000276J0000000D01*
G01*
X0301260Y0347008D01*
G75*
G02*
X0300984Y0347283I0000000J0000276D01*
G01*
G37*
G36*
G01*
X0126614Y0277618D02*
X0129291Y0277618D01*
G75*
G02*
X0129626Y0277283I0000000J-000335D01*
G01*
X0129626Y0274606D01*
G75*
G02*
X0129291Y0274272I-000335J0000000D01*
G01*
X0126614Y0274272D01*
G75*
G02*
X0126280Y0274606I0000000J0000335D01*
G01*
X0126280Y0277283D01*
G75*
G02*
X0126614Y0277618I0000335J0000000D01*
G01*
G37*
G36*
G01*
X0126614Y0271398D02*
X0129291Y0271398D01*
G75*
G02*
X0129626Y0271063I0000000J-000335D01*
G01*
X0129626Y0268386D01*
G75*
G02*
X0129291Y0268051I-000335J0000000D01*
G01*
X0126614Y0268051D01*
G75*
G02*
X0126280Y0268386I0000000J0000335D01*
G01*
X0126280Y0271063D01*
G75*
G02*
X0126614Y0271398I0000335J0000000D01*
G01*
G37*
G36*
G01*
X0275000Y0309341D02*
X0275000Y0305325D01*
G75*
G02*
X0274646Y0304970I-000354J0000000D01*
G01*
X0271811Y0304970D01*
G75*
G02*
X0271457Y0305325I0000000J0000354D01*
G01*
X0271457Y0309341D01*
G75*
G02*
X0271811Y0309695I0000354J0000000D01*
G01*
X0274646Y0309695D01*
G75*
G02*
X0275000Y0309341I0000000J-000354D01*
G01*
G37*
G36*
G01*
X0262008Y0309341D02*
X0262008Y0305325D01*
G75*
G02*
X0261654Y0304970I-000354J0000000D01*
G01*
X0258819Y0304970D01*
G75*
G02*
X0258465Y0305325I0000000J0000354D01*
G01*
X0258465Y0309341D01*
G75*
G02*
X0258819Y0309695I0000354J0000000D01*
G01*
X0261654Y0309695D01*
G75*
G02*
X0262008Y0309341I0000000J-000354D01*
G01*
G37*
G36*
G01*
X0009094Y0320472D02*
X0005079Y0320472D01*
G75*
G02*
X0004724Y0320827I0000000J0000354D01*
G01*
X0004724Y0323661D01*
G75*
G02*
X0005079Y0324016I0000354J0000000D01*
G01*
X0009094Y0324016D01*
G75*
G02*
X0009449Y0323661I0000000J-000354D01*
G01*
X0009449Y0320827D01*
G75*
G02*
X0009094Y0320472I-000354J0000000D01*
G01*
G37*
G36*
G01*
X0009094Y0333465D02*
X0005079Y0333465D01*
G75*
G02*
X0004724Y0333819I0000000J0000354D01*
G01*
X0004724Y0336654D01*
G75*
G02*
X0005079Y0337008I0000354J0000000D01*
G01*
X0009094Y0337008D01*
G75*
G02*
X0009449Y0336654I0000000J-000354D01*
G01*
X0009449Y0333819D01*
G75*
G02*
X0009094Y0333465I-000354J0000000D01*
G01*
G37*
G36*
G01*
X0190059Y0318504D02*
X0194193Y0318504D01*
G75*
G02*
X0194587Y0318110I0000000J-000394D01*
G01*
X0194587Y0314961D01*
G75*
G02*
X0194193Y0314567I-000394J0000000D01*
G01*
X0190059Y0314567D01*
G75*
G02*
X0189665Y0314961I0000000J0000394D01*
G01*
X0189665Y0318110D01*
G75*
G02*
X0190059Y0318504I0000394J0000000D01*
G01*
G37*
G36*
G01*
X0190059Y0310630D02*
X0194193Y0310630D01*
G75*
G02*
X0194587Y0310236I0000000J-000394D01*
G01*
X0194587Y0307087D01*
G75*
G02*
X0194193Y0306693I-000394J0000000D01*
G01*
X0190059Y0306693D01*
G75*
G02*
X0189665Y0307087I0000000J0000394D01*
G01*
X0189665Y0310236D01*
G75*
G02*
X0190059Y0310630I0000394J0000000D01*
G01*
G37*
G36*
G01*
X0288976Y0325699D02*
X0288976Y0322628D01*
G75*
G02*
X0288701Y0322352I-000276J0000000D01*
G01*
X0286496Y0322352D01*
G75*
G02*
X0286220Y0322628I0000000J0000276D01*
G01*
X0286220Y0325699D01*
G75*
G02*
X0286496Y0325974I0000276J0000000D01*
G01*
X0288701Y0325974D01*
G75*
G02*
X0288976Y0325699I0000000J-000276D01*
G01*
G37*
G36*
G01*
X0282677Y0325699D02*
X0282677Y0322628D01*
G75*
G02*
X0282402Y0322352I-000276J0000000D01*
G01*
X0280197Y0322352D01*
G75*
G02*
X0279921Y0322628I0000000J0000276D01*
G01*
X0279921Y0325699D01*
G75*
G02*
X0280197Y0325974I0000276J0000000D01*
G01*
X0282402Y0325974D01*
G75*
G02*
X0282677Y0325699I0000000J-000276D01*
G01*
G37*
G36*
G01*
X0246014Y0192289D02*
X0246014Y0190400D01*
G75*
G02*
X0245778Y0190163I-000236J0000000D01*
G01*
X0243888Y0190163D01*
G75*
G02*
X0243652Y0190400I0000000J0000236D01*
G01*
X0243652Y0192289D01*
G75*
G02*
X0243888Y0192526I0000236J0000000D01*
G01*
X0245778Y0192526D01*
G75*
G02*
X0246014Y0192289I0000000J-000236D01*
G01*
G37*
G36*
G01*
X0246014Y0200951D02*
X0246014Y0199061D01*
G75*
G02*
X0245778Y0198825I-000236J0000000D01*
G01*
X0243888Y0198825D01*
G75*
G02*
X0243652Y0199061I0000000J0000236D01*
G01*
X0243652Y0200951D01*
G75*
G02*
X0243888Y0201187I0000236J0000000D01*
G01*
X0245778Y0201187D01*
G75*
G02*
X0246014Y0200951I0000000J-000236D01*
G01*
G37*
G36*
G01*
X0056102Y0291693D02*
X0056102Y0288622D01*
G75*
G02*
X0055827Y0288346I-000276J0000000D01*
G01*
X0053622Y0288346D01*
G75*
G02*
X0053346Y0288622I0000000J0000276D01*
G01*
X0053346Y0291693D01*
G75*
G02*
X0053622Y0291969I0000276J0000000D01*
G01*
X0055827Y0291969D01*
G75*
G02*
X0056102Y0291693I0000000J-000276D01*
G01*
G37*
G36*
G01*
X0049803Y0291693D02*
X0049803Y0288622D01*
G75*
G02*
X0049528Y0288346I-000276J0000000D01*
G01*
X0047323Y0288346D01*
G75*
G02*
X0047047Y0288622I0000000J0000276D01*
G01*
X0047047Y0291693D01*
G75*
G02*
X0047323Y0291969I0000276J0000000D01*
G01*
X0049528Y0291969D01*
G75*
G02*
X0049803Y0291693I0000000J-000276D01*
G01*
G37*
G36*
G01*
X0317717Y0344193D02*
X0316535Y0344193D01*
G75*
G02*
X0315945Y0344783I0000000J0000591D01*
G01*
X0315945Y0349409D01*
G75*
G02*
X0316535Y0350000I0000591J0000000D01*
G01*
X0317717Y0350000D01*
G75*
G02*
X0318307Y0349409I0000000J-000591D01*
G01*
X0318307Y0344783D01*
G75*
G02*
X0317717Y0344193I-000591J0000000D01*
G01*
G37*
G36*
G01*
X0313976Y0351575D02*
X0312795Y0351575D01*
G75*
G02*
X0312205Y0352165I0000000J0000591D01*
G01*
X0312205Y0356791D01*
G75*
G02*
X0312795Y0357382I0000591J0000000D01*
G01*
X0313976Y0357382D01*
G75*
G02*
X0314567Y0356791I0000000J-000591D01*
G01*
X0314567Y0352165D01*
G75*
G02*
X0313976Y0351575I-000591J0000000D01*
G01*
G37*
G36*
G01*
X0310236Y0344193D02*
X0309055Y0344193D01*
G75*
G02*
X0308465Y0344783I0000000J0000591D01*
G01*
X0308465Y0349409D01*
G75*
G02*
X0309055Y0350000I0000591J0000000D01*
G01*
X0310236Y0350000D01*
G75*
G02*
X0310827Y0349409I0000000J-000591D01*
G01*
X0310827Y0344783D01*
G75*
G02*
X0310236Y0344193I-000591J0000000D01*
G01*
G37*
G36*
G01*
X0088780Y0272628D02*
X0088780Y0275699D01*
G75*
G02*
X0089055Y0275974I0000276J0000000D01*
G01*
X0091260Y0275974D01*
G75*
G02*
X0091535Y0275699I0000000J-000276D01*
G01*
X0091535Y0272628D01*
G75*
G02*
X0091260Y0272352I-000276J0000000D01*
G01*
X0089055Y0272352D01*
G75*
G02*
X0088780Y0272628I0000000J0000276D01*
G01*
G37*
G36*
G01*
X0095079Y0272628D02*
X0095079Y0275699D01*
G75*
G02*
X0095354Y0275974I0000276J0000000D01*
G01*
X0097559Y0275974D01*
G75*
G02*
X0097835Y0275699I0000000J-000276D01*
G01*
X0097835Y0272628D01*
G75*
G02*
X0097559Y0272352I-000276J0000000D01*
G01*
X0095354Y0272352D01*
G75*
G02*
X0095079Y0272628I0000000J0000276D01*
G01*
G37*
G36*
G01*
X0031535Y0129528D02*
X0027520Y0129528D01*
G75*
G02*
X0027165Y0129882I0000000J0000354D01*
G01*
X0027165Y0132717D01*
G75*
G02*
X0027520Y0133071I0000354J0000000D01*
G01*
X0031535Y0133071D01*
G75*
G02*
X0031890Y0132717I0000000J-000354D01*
G01*
X0031890Y0129882D01*
G75*
G02*
X0031535Y0129528I-000354J0000000D01*
G01*
G37*
G36*
G01*
X0031535Y0142520D02*
X0027520Y0142520D01*
G75*
G02*
X0027165Y0142874I0000000J0000354D01*
G01*
X0027165Y0145709D01*
G75*
G02*
X0027520Y0146063I0000354J0000000D01*
G01*
X0031535Y0146063D01*
G75*
G02*
X0031890Y0145709I0000000J-000354D01*
G01*
X0031890Y0142874D01*
G75*
G02*
X0031535Y0142520I-000354J0000000D01*
G01*
G37*
G36*
G01*
X0088976Y0290994D02*
X0090157Y0290994D01*
G75*
G02*
X0090748Y0290404I0000000J-000591D01*
G01*
X0090748Y0285778D01*
G75*
G02*
X0090157Y0285187I-000591J0000000D01*
G01*
X0088976Y0285187D01*
G75*
G02*
X0088386Y0285778I0000000J0000591D01*
G01*
X0088386Y0290404D01*
G75*
G02*
X0088976Y0290994I0000591J0000000D01*
G01*
G37*
G36*
G01*
X0092717Y0283612D02*
X0093898Y0283612D01*
G75*
G02*
X0094488Y0283022I0000000J-000591D01*
G01*
X0094488Y0278396D01*
G75*
G02*
X0093898Y0277805I-000591J0000000D01*
G01*
X0092717Y0277805D01*
G75*
G02*
X0092126Y0278396I0000000J0000591D01*
G01*
X0092126Y0283022D01*
G75*
G02*
X0092717Y0283612I0000591J0000000D01*
G01*
G37*
G36*
G01*
X0096457Y0290994D02*
X0097638Y0290994D01*
G75*
G02*
X0098228Y0290404I0000000J-000591D01*
G01*
X0098228Y0285778D01*
G75*
G02*
X0097638Y0285187I-000591J0000000D01*
G01*
X0096457Y0285187D01*
G75*
G02*
X0095866Y0285778I0000000J0000591D01*
G01*
X0095866Y0290404D01*
G75*
G02*
X0096457Y0290994I0000591J0000000D01*
G01*
G37*
G36*
G01*
X0226163Y0348287D02*
X0226163Y0344154D01*
G75*
G02*
X0225769Y0343760I-000394J0000000D01*
G01*
X0222619Y0343760D01*
G75*
G02*
X0222226Y0344154I0000000J0000394D01*
G01*
X0222226Y0348287D01*
G75*
G02*
X0222619Y0348681I0000394J0000000D01*
G01*
X0225769Y0348681D01*
G75*
G02*
X0226163Y0348287I0000000J-000394D01*
G01*
G37*
G36*
G01*
X0218289Y0348287D02*
X0218289Y0344154D01*
G75*
G02*
X0217895Y0343760I-000394J0000000D01*
G01*
X0214745Y0343760D01*
G75*
G02*
X0214352Y0344154I0000000J0000394D01*
G01*
X0214352Y0348287D01*
G75*
G02*
X0214745Y0348681I0000394J0000000D01*
G01*
X0217895Y0348681D01*
G75*
G02*
X0218289Y0348287I0000000J-000394D01*
G01*
G37*
G36*
G01*
X0298031Y0192283D02*
X0298031Y0190394D01*
G75*
G02*
X0297795Y0190157I-000236J0000000D01*
G01*
X0295906Y0190157D01*
G75*
G02*
X0295669Y0190394I0000000J0000236D01*
G01*
X0295669Y0192283D01*
G75*
G02*
X0295906Y0192520I0000236J0000000D01*
G01*
X0297795Y0192520D01*
G75*
G02*
X0298031Y0192283I0000000J-000236D01*
G01*
G37*
G36*
G01*
X0298031Y0200945D02*
X0298031Y0199055D01*
G75*
G02*
X0297795Y0198819I-000236J0000000D01*
G01*
X0295906Y0198819D01*
G75*
G02*
X0295669Y0199055I0000000J0000236D01*
G01*
X0295669Y0200945D01*
G75*
G02*
X0295906Y0201181I0000236J0000000D01*
G01*
X0297795Y0201181D01*
G75*
G02*
X0298031Y0200945I0000000J-000236D01*
G01*
G37*
G36*
G01*
X0308760Y0188878D02*
X0303839Y0188878D01*
G75*
G02*
X0302854Y0189862I0000000J0000984D01*
G01*
X0302854Y0192323D01*
G75*
G02*
X0303839Y0193307I0000984J0000000D01*
G01*
X0308760Y0193307D01*
G75*
G02*
X0309744Y0192323I0000000J-000984D01*
G01*
X0309744Y0189862D01*
G75*
G02*
X0308760Y0188878I-000984J0000000D01*
G01*
G37*
G36*
G01*
X0308760Y0200394D02*
X0303839Y0200394D01*
G75*
G02*
X0302854Y0201378I0000000J0000984D01*
G01*
X0302854Y0203839D01*
G75*
G02*
X0303839Y0204823I0000984J0000000D01*
G01*
X0308760Y0204823D01*
G75*
G02*
X0309744Y0203839I0000000J-000984D01*
G01*
X0309744Y0201378D01*
G75*
G02*
X0308760Y0200394I-000984J0000000D01*
G01*
G37*
X0183858Y0295571D02*
G01*
G75*
D333*
X0260236Y0265656D02*
D03*
X0260236Y0278648D02*
D03*
D334*
X0260630Y0245796D02*
D03*
X0260630Y0257213D02*
D03*
X0252598Y0245796D02*
D03*
X0252598Y0257213D02*
D03*
D337*
X0238582Y0283169D02*
D03*
X0242519Y0283169D02*
D03*
X0253149Y0286516D02*
D03*
X0253149Y0277854D02*
D03*
X0247901Y0287303D02*
D03*
X0247901Y0278642D02*
D03*
D338*
X0195275Y0275416D02*
D03*
X0195275Y0278960D02*
D03*
X0232008Y0266025D02*
D03*
X0232008Y0262481D02*
D03*
X0247113Y0274022D02*
D03*
X0247113Y0270479D02*
D03*
X0195275Y0266798D02*
D03*
X0195275Y0270341D02*
D03*
X0199212Y0287303D02*
D03*
X0199212Y0283760D02*
D03*
D339*
X0248688Y0261818D02*
D03*
X0252232Y0261818D02*
D03*
X0261090Y0282585D02*
D03*
X0257546Y0282585D02*
D03*
X0202773Y0233821D02*
D03*
X0206317Y0233821D02*
D03*
D120*
X0201968Y0229823D02*
D03*
X0198031Y0229823D02*
D03*
D121*
X0255511Y0292618D02*
D03*
X0188582Y0292618D02*
D03*
X0236023Y0292618D02*
D03*
X0235826Y0231595D02*
D03*
X0261023Y0231595D02*
D03*
X0211417Y0231595D02*
D03*
X0228346Y0231595D02*
D03*
X0186811Y0231595D02*
D03*
X0262795Y0292618D02*
D03*
D345*
X0240157Y0246358D02*
D03*
X0240157Y0257382D02*
D03*
D346*
X0235834Y0279036D02*
D03*
X0242054Y0279036D02*
D03*
X0235834Y0264942D02*
D03*
X0242054Y0264942D02*
D03*
X0235834Y0269633D02*
D03*
X0242054Y0269633D02*
D03*
X0235834Y0274325D02*
D03*
X0242054Y0274325D02*
D03*
X0248078Y0266123D02*
D03*
X0254299Y0266123D02*
D03*
D347*
X0199212Y0275613D02*
D03*
X0199212Y0279550D02*
D03*
X0199212Y0270932D02*
D03*
X0199212Y0266995D02*
D03*
X0253149Y0274219D02*
D03*
X0253149Y0270282D02*
D03*
X0231535Y0251286D02*
D03*
X0231535Y0247349D02*
D03*
X0194094Y0243510D02*
D03*
X0194094Y0247448D02*
D03*
D275*
X0205972Y0270499D02*
D03*
X0205972Y0275499D02*
D03*
X0205972Y0280499D02*
D03*
X0205972Y0285499D02*
D03*
X0228609Y0270499D02*
D03*
X0228609Y0275499D02*
D03*
X0228609Y0280499D02*
D03*
X0228609Y0285499D02*
D03*
X0200689Y0247432D02*
D03*
X0200689Y0252432D02*
D03*
X0200689Y0257432D02*
D03*
X0200689Y0262432D02*
D03*
X0224114Y0247432D02*
D03*
X0224114Y0252432D02*
D03*
X0224114Y0257432D02*
D03*
X0224114Y0262432D02*
D03*
D348*
X0217290Y0277999D02*
D03*
D349*
X0212401Y0254932D02*
D03*
X0134528Y0117370D02*
G01*
G75*
D120*
X0127934Y0067862D02*
D03*
X0111890Y0069043D02*
D03*
X0104607Y0096110D02*
D03*
X0109764Y0093551D02*
D03*
X0111536Y0087153D02*
D03*
X0104607Y0088433D02*
D03*
X0111831Y0083807D02*
D03*
X0112678Y0080362D02*
D03*
X0104607Y0078197D02*
D03*
X0111831Y0076524D02*
D03*
X0105413Y0261614D02*
%LPD*%
G01*
D21*
X0047145Y0234449D03*
X0047145Y0239173D03*
X0047145Y0229724D03*
X0047145Y0225000D03*
X0103937Y0250433D03*
X0103937Y0254370D03*
G36*
G01*
X0088484Y0231020D02*
X0088484Y0232201D01*
G75*
G02*
X0089074Y0232792I0000591J0000000D01*
G01*
X0093110Y0232792D01*
G75*
G02*
X0093700Y0232201I0000000J-000591D01*
G01*
X0093700Y0231020D01*
G75*
G02*
X0093110Y0230430I-000591J0000000D01*
G01*
X0089074Y0230430D01*
G75*
G02*
X0088484Y0231020I0000000J0000591D01*
G01*
G37*
G36*
G01*
X0088484Y0234761D02*
X0088484Y0235942D01*
G75*
G02*
X0089074Y0236532I0000591J0000000D01*
G01*
X0093110Y0236532D01*
G75*
G02*
X0093700Y0235942I0000000J-000591D01*
G01*
X0093700Y0234761D01*
G75*
G02*
X0093110Y0234170I-000591J0000000D01*
G01*
X0089074Y0234170D01*
G75*
G02*
X0088484Y0234761I0000000J0000591D01*
G01*
G37*
G36*
G01*
X0088484Y0238501D02*
X0088484Y0239682D01*
G75*
G02*
X0089074Y0240272I0000591J0000000D01*
G01*
X0093110Y0240272D01*
G75*
G02*
X0093700Y0239682I0000000J-000591D01*
G01*
X0093700Y0238501D01*
G75*
G02*
X0093110Y0237910I-000591J0000000D01*
G01*
X0089074Y0237910D01*
G75*
G02*
X0088484Y0238501I0000000J0000591D01*
G01*
G37*
G36*
G01*
X0097441Y0238501D02*
X0097441Y0239682D01*
G75*
G02*
X0098031Y0240272I0000591J0000000D01*
G01*
X0102067Y0240272D01*
G75*
G02*
X0102657Y0239682I0000000J-000591D01*
G01*
X0102657Y0238501D01*
G75*
G02*
X0102067Y0237910I-000591J0000000D01*
G01*
X0098031Y0237910D01*
G75*
G02*
X0097441Y0238501I0000000J0000591D01*
G01*
G37*
G36*
G01*
X0097441Y0231020D02*
X0097441Y0232201D01*
G75*
G02*
X0098031Y0232792I0000591J0000000D01*
G01*
X0102067Y0232792D01*
G75*
G02*
X0102657Y0232201I0000000J-000591D01*
G01*
X0102657Y0231020D01*
G75*
G02*
X0102067Y0230430I-000591J0000000D01*
G01*
X0098031Y0230430D01*
G75*
G02*
X0097441Y0231020I0000000J0000591D01*
G01*
G37*
G36*
G01*
X0088759Y0253307D02*
X0087421Y0253307D01*
G75*
G02*
X0086870Y0253858I0000000J0000551D01*
G01*
X0086870Y0254960D01*
G75*
G02*
X0087421Y0255512I0000551J0000000D01*
G01*
X0088759Y0255512D01*
G75*
G02*
X0089311Y0254960I0000000J-000551D01*
G01*
X0089311Y0253858D01*
G75*
G02*
X0088759Y0253307I-000551J0000000D01*
G01*
G37*
G36*
G01*
X0088759Y0257086D02*
X0087421Y0257086D01*
G75*
G02*
X0086870Y0257638I0000000J0000551D01*
G01*
X0086870Y0258740D01*
G75*
G02*
X0087421Y0259291I0000551J0000000D01*
G01*
X0088759Y0259291D01*
G75*
G02*
X0089311Y0258740I0000000J-000551D01*
G01*
X0089311Y0257638D01*
G75*
G02*
X0088759Y0257086I-000551J0000000D01*
G01*
G37*
G36*
G01*
X0062244Y0230590D02*
X0062244Y0229252D01*
G75*
G02*
X0061693Y0228701I-000551J0000000D01*
G01*
X0060590Y0228701D01*
G75*
G02*
X0060039Y0229252I0000000J0000551D01*
G01*
X0060039Y0230590D01*
G75*
G02*
X0060590Y0231142I0000551J0000000D01*
G01*
X0061693Y0231142D01*
G75*
G02*
X0062244Y0230590I0000000J-000551D01*
G01*
G37*
G36*
G01*
X0058464Y0230590D02*
X0058464Y0229252D01*
G75*
G02*
X0057913Y0228701I-000551J0000000D01*
G01*
X0056811Y0228701D01*
G75*
G02*
X0056259Y0229252I0000000J0000551D01*
G01*
X0056259Y0230590D01*
G75*
G02*
X0056811Y0231142I0000551J0000000D01*
G01*
X0057913Y0231142D01*
G75*
G02*
X0058464Y0230590I0000000J-000551D01*
G01*
G37*
G36*
G01*
X0048897Y0225590D02*
X0048897Y0226929D01*
G75*
G02*
X0049448Y0227480I0000551J0000000D01*
G01*
X0050551Y0227480D01*
G75*
G02*
X0051102Y0226929I0000000J-000551D01*
G01*
X0051102Y0225590D01*
G75*
G02*
X0050551Y0225039I-000551J0000000D01*
G01*
X0049448Y0225039D01*
G75*
G02*
X0048897Y0225590I0000000J0000551D01*
G01*
G37*
G36*
G01*
X0052677Y0225590D02*
X0052677Y0226929D01*
G75*
G02*
X0053228Y0227480I0000551J0000000D01*
G01*
X0054330Y0227480D01*
G75*
G02*
X0054882Y0226929I0000000J-000551D01*
G01*
X0054882Y0225590D01*
G75*
G02*
X0054330Y0225039I-000551J0000000D01*
G01*
X0053228Y0225039D01*
G75*
G02*
X0052677Y0225590I0000000J0000551D01*
G01*
G37*
G36*
G01*
X0070649Y0234331D02*
X0070649Y0232992D01*
G75*
G02*
X0070098Y0232441I-000551J0000000D01*
G01*
X0068996Y0232441D01*
G75*
G02*
X0068444Y0232992I0000000J0000551D01*
G01*
X0068444Y0234331D01*
G75*
G02*
X0068996Y0234882I0000551J0000000D01*
G01*
X0070098Y0234882D01*
G75*
G02*
X0070649Y0234331I0000000J-000551D01*
G01*
G37*
G36*
G01*
X0066870Y0234331D02*
X0066870Y0232992D01*
G75*
G02*
X0066319Y0232441I-000551J0000000D01*
G01*
X0065216Y0232441D01*
G75*
G02*
X0064665Y0232992I0000000J0000551D01*
G01*
X0064665Y0234331D01*
G75*
G02*
X0065216Y0234882I0000551J0000000D01*
G01*
X0066319Y0234882D01*
G75*
G02*
X0066870Y0234331I0000000J-000551D01*
G01*
G37*
G36*
G01*
X0049094Y0229252D02*
X0049094Y0230590D01*
G75*
G02*
X0049645Y0231142I0000551J0000000D01*
G01*
X0050748Y0231142D01*
G75*
G02*
X0051299Y0230590I0000000J-000551D01*
G01*
X0051299Y0229252D01*
G75*
G02*
X0050748Y0228701I-000551J0000000D01*
G01*
X0049645Y0228701D01*
G75*
G02*
X0049094Y0229252I0000000J0000551D01*
G01*
G37*
G36*
G01*
X0052874Y0229252D02*
X0052874Y0230590D01*
G75*
G02*
X0053425Y0231142I0000551J0000000D01*
G01*
X0054527Y0231142D01*
G75*
G02*
X0055078Y0230590I0000000J-000551D01*
G01*
X0055078Y0229252D01*
G75*
G02*
X0054527Y0228701I-000551J0000000D01*
G01*
X0053425Y0228701D01*
G75*
G02*
X0052874Y0229252I0000000J0000551D01*
G01*
G37*
G36*
G01*
X0054370Y0250768D02*
X0054370Y0249429D01*
G75*
G02*
X0053819Y0248878I-000551J0000000D01*
G01*
X0052716Y0248878D01*
G75*
G02*
X0052165Y0249429I0000000J0000551D01*
G01*
X0052165Y0250768D01*
G75*
G02*
X0052716Y0251319I0000551J0000000D01*
G01*
X0053819Y0251319D01*
G75*
G02*
X0054370Y0250768I0000000J-000551D01*
G01*
G37*
G36*
G01*
X0050590Y0250768D02*
X0050590Y0249429D01*
G75*
G02*
X0050039Y0248878I-000551J0000000D01*
G01*
X0048937Y0248878D01*
G75*
G02*
X0048385Y0249429I0000000J0000551D01*
G01*
X0048385Y0250768D01*
G75*
G02*
X0048937Y0251319I0000551J0000000D01*
G01*
X0050039Y0251319D01*
G75*
G02*
X0050590Y0250768I0000000J-000551D01*
G01*
G37*
G36*
G01*
X0084879Y0258268D02*
X0084879Y0257480D01*
G75*
G02*
X0084485Y0257086I-000394J0000000D01*
G01*
X0079465Y0257086D01*
G75*
G02*
X0079072Y0257480I0000000J0000394D01*
G01*
X0079072Y0258268D01*
G75*
G02*
X0079465Y0258661I0000394J0000000D01*
G01*
X0084485Y0258661D01*
G75*
G02*
X0084879Y0258268I0000000J-000394D01*
G01*
G37*
G36*
G01*
X0084879Y0255708D02*
X0084879Y0254921D01*
G75*
G02*
X0084485Y0254527I-000394J0000000D01*
G01*
X0079465Y0254527D01*
G75*
G02*
X0079072Y0254921I0000000J0000394D01*
G01*
X0079072Y0255708D01*
G75*
G02*
X0079465Y0256102I0000394J0000000D01*
G01*
X0084485Y0256102D01*
G75*
G02*
X0084879Y0255708I0000000J-000394D01*
G01*
G37*
G36*
G01*
X0084879Y0253149D02*
X0084879Y0252362D01*
G75*
G02*
X0084485Y0251968I-000394J0000000D01*
G01*
X0079465Y0251968D01*
G75*
G02*
X0079072Y0252362I0000000J0000394D01*
G01*
X0079072Y0253149D01*
G75*
G02*
X0079465Y0253543I0000394J0000000D01*
G01*
X0084485Y0253543D01*
G75*
G02*
X0084879Y0253149I0000000J-000394D01*
G01*
G37*
G36*
G01*
X0084879Y0250590D02*
X0084879Y0249803D01*
G75*
G02*
X0084485Y0249409I-000394J0000000D01*
G01*
X0079465Y0249409D01*
G75*
G02*
X0079072Y0249803I0000000J0000394D01*
G01*
X0079072Y0250590D01*
G75*
G02*
X0079465Y0250984I0000394J0000000D01*
G01*
X0084485Y0250984D01*
G75*
G02*
X0084879Y0250590I0000000J-000394D01*
G01*
G37*
G36*
G01*
X0084879Y0248031D02*
X0084879Y0247244D01*
G75*
G02*
X0084485Y0246850I-000394J0000000D01*
G01*
X0079465Y0246850D01*
G75*
G02*
X0079072Y0247244I0000000J0000394D01*
G01*
X0079072Y0248031D01*
G75*
G02*
X0079465Y0248425I0000394J0000000D01*
G01*
X0084485Y0248425D01*
G75*
G02*
X0084879Y0248031I0000000J-000394D01*
G01*
G37*
G36*
G01*
X0084879Y0245472D02*
X0084879Y0244685D01*
G75*
G02*
X0084485Y0244291I-000394J0000000D01*
G01*
X0079465Y0244291D01*
G75*
G02*
X0079072Y0244685I0000000J0000394D01*
G01*
X0079072Y0245472D01*
G75*
G02*
X0079465Y0245866I0000394J0000000D01*
G01*
X0084485Y0245866D01*
G75*
G02*
X0084879Y0245472I0000000J-000394D01*
G01*
G37*
G36*
G01*
X0084879Y0242913D02*
X0084879Y0242126D01*
G75*
G02*
X0084485Y0241732I-000394J0000000D01*
G01*
X0079465Y0241732D01*
G75*
G02*
X0079072Y0242126I0000000J0000394D01*
G01*
X0079072Y0242913D01*
G75*
G02*
X0079465Y0243307I0000394J0000000D01*
G01*
X0084485Y0243307D01*
G75*
G02*
X0084879Y0242913I0000000J-000394D01*
G01*
G37*
G36*
G01*
X0062339Y0242913D02*
X0062339Y0242126D01*
G75*
G02*
X0061946Y0241732I-000394J0000000D01*
G01*
X0056926Y0241732D01*
G75*
G02*
X0056532Y0242126I0000000J0000394D01*
G01*
X0056532Y0242913D01*
G75*
G02*
X0056926Y0243307I0000394J0000000D01*
G01*
X0061946Y0243307D01*
G75*
G02*
X0062339Y0242913I0000000J-000394D01*
G01*
G37*
G36*
G01*
X0062339Y0245472D02*
X0062339Y0244685D01*
G75*
G02*
X0061946Y0244291I-000394J0000000D01*
G01*
X0056926Y0244291D01*
G75*
G02*
X0056532Y0244685I0000000J0000394D01*
G01*
X0056532Y0245472D01*
G75*
G02*
X0056926Y0245866I0000394J0000000D01*
G01*
X0061946Y0245866D01*
G75*
G02*
X0062339Y0245472I0000000J-000394D01*
G01*
G37*
G36*
G01*
X0062339Y0248031D02*
X0062339Y0247244D01*
G75*
G02*
X0061946Y0246850I-000394J0000000D01*
G01*
X0056926Y0246850D01*
G75*
G02*
X0056532Y0247244I0000000J0000394D01*
G01*
X0056532Y0248031D01*
G75*
G02*
X0056926Y0248425I0000394J0000000D01*
G01*
X0061946Y0248425D01*
G75*
G02*
X0062339Y0248031I0000000J-000394D01*
G01*
G37*
G36*
G01*
X0062339Y0250590D02*
X0062339Y0249803D01*
G75*
G02*
X0061946Y0249409I-000394J0000000D01*
G01*
X0056926Y0249409D01*
G75*
G02*
X0056532Y0249803I0000000J0000394D01*
G01*
X0056532Y0250590D01*
G75*
G02*
X0056926Y0250984I0000394J0000000D01*
G01*
X0061946Y0250984D01*
G75*
G02*
X0062339Y0250590I0000000J-000394D01*
G01*
G37*
G36*
G01*
X0062339Y0253149D02*
X0062339Y0252362D01*
G75*
G02*
X0061946Y0251968I-000394J0000000D01*
G01*
X0056926Y0251968D01*
G75*
G02*
X0056532Y0252362I0000000J0000394D01*
G01*
X0056532Y0253149D01*
G75*
G02*
X0056926Y0253543I0000394J0000000D01*
G01*
X0061946Y0253543D01*
G75*
G02*
X0062339Y0253149I0000000J-000394D01*
G01*
G37*
G36*
G01*
X0062339Y0255708D02*
X0062339Y0254921D01*
G75*
G02*
X0061946Y0254527I-000394J0000000D01*
G01*
X0056926Y0254527D01*
G75*
G02*
X0056532Y0254921I0000000J0000394D01*
G01*
X0056532Y0255708D01*
G75*
G02*
X0056926Y0256102I0000394J0000000D01*
G01*
X0061946Y0256102D01*
G75*
G02*
X0062339Y0255708I0000000J-000394D01*
G01*
G37*
G36*
G01*
X0062339Y0258268D02*
X0062339Y0257480D01*
G75*
G02*
X0061946Y0257086I-000394J0000000D01*
G01*
X0056926Y0257086D01*
G75*
G02*
X0056532Y0257480I0000000J0000394D01*
G01*
X0056532Y0258268D01*
G75*
G02*
X0056926Y0258661I0000394J0000000D01*
G01*
X0061946Y0258661D01*
G75*
G02*
X0062339Y0258268I0000000J-000394D01*
G01*
G37*
G36*
G01*
X0102522Y0250397D02*
X0102522Y0246854D01*
G75*
G02*
X0101538Y0245870I-000984J0000000D01*
G01*
X0099471Y0245870D01*
G75*
G02*
X0098487Y0246854I0000000J0000984D01*
G01*
X0098487Y0250397D01*
G75*
G02*
X0099471Y0251382I0000984J0000000D01*
G01*
X0101538Y0251382D01*
G75*
G02*
X0102522Y0250397I0000000J-000984D01*
G01*
G37*
G36*
G01*
X0095337Y0250397D02*
X0095337Y0246854D01*
G75*
G02*
X0094353Y0245870I-000984J0000000D01*
G01*
X0092286Y0245870D01*
G75*
G02*
X0091302Y0246854I0000000J0000984D01*
G01*
X0091302Y0250397D01*
G75*
G02*
X0092286Y0251382I0000984J0000000D01*
G01*
X0094353Y0251382D01*
G75*
G02*
X0095337Y0250397I0000000J-000984D01*
G01*
G37*
G36*
G01*
X0056279Y0236673D02*
X0056279Y0238130D01*
G75*
G02*
X0056811Y0238661I0000531J0000000D01*
G01*
X0057874Y0238661D01*
G75*
G02*
X0058405Y0238130I0000000J-000531D01*
G01*
X0058405Y0236673D01*
G75*
G02*
X0057874Y0236142I-000531J0000000D01*
G01*
X0056811Y0236142D01*
G75*
G02*
X0056279Y0236673I0000000J0000531D01*
G01*
G37*
G36*
G01*
X0060295Y0236673D02*
X0060295Y0238130D01*
G75*
G02*
X0060826Y0238661I0000531J0000000D01*
G01*
X0061889Y0238661D01*
G75*
G02*
X0062421Y0238130I0000000J-000531D01*
G01*
X0062421Y0236673D01*
G75*
G02*
X0061889Y0236142I-000531J0000000D01*
G01*
X0060826Y0236142D01*
G75*
G02*
X0060295Y0236673I0000000J0000531D01*
G01*
G37*
G36*
G01*
X0096712Y0225748D02*
X0096712Y0227086D01*
G75*
G02*
X0097263Y0227638I0000551J0000000D01*
G01*
X0098366Y0227638D01*
G75*
G02*
X0098917Y0227086I0000000J-000551D01*
G01*
X0098917Y0225748D01*
G75*
G02*
X0098366Y0225197I-000551J0000000D01*
G01*
X0097263Y0225197D01*
G75*
G02*
X0096712Y0225748I0000000J0000551D01*
G01*
G37*
G36*
G01*
X0100492Y0225748D02*
X0100492Y0227086D01*
G75*
G02*
X0101043Y0227638I0000551J0000000D01*
G01*
X0102145Y0227638D01*
G75*
G02*
X0102696Y0227086I0000000J-000551D01*
G01*
X0102696Y0225748D01*
G75*
G02*
X0102145Y0225197I-000551J0000000D01*
G01*
X0101043Y0225197D01*
G75*
G02*
X0100492Y0225748I0000000J0000551D01*
G01*
G37*
G36*
G01*
X0048602Y0232933D02*
X0048602Y0234390D01*
G75*
G02*
X0049133Y0234921I0000531J0000000D01*
G01*
X0050196Y0234921D01*
G75*
G02*
X0050728Y0234390I0000000J-000531D01*
G01*
X0050728Y0232933D01*
G75*
G02*
X0050196Y0232401I-000531J0000000D01*
G01*
X0049133Y0232401D01*
G75*
G02*
X0048602Y0232933I0000000J0000531D01*
G01*
G37*
G36*
G01*
X0052618Y0232933D02*
X0052618Y0234390D01*
G75*
G02*
X0053149Y0234921I0000531J0000000D01*
G01*
X0054212Y0234921D01*
G75*
G02*
X0054744Y0234390I0000000J-000531D01*
G01*
X0054744Y0232933D01*
G75*
G02*
X0054212Y0232401I-000531J0000000D01*
G01*
X0053149Y0232401D01*
G75*
G02*
X0052618Y0232933I0000000J0000531D01*
G01*
G37*
G36*
G01*
X0064535Y0236673D02*
X0064535Y0238129D01*
G75*
G02*
X0065067Y0238661I0000531J0000000D01*
G01*
X0066130Y0238661D01*
G75*
G02*
X0066661Y0238129I0000000J-000531D01*
G01*
X0066661Y0236673D01*
G75*
G02*
X0066130Y0236141I-000531J0000000D01*
G01*
X0065067Y0236141D01*
G75*
G02*
X0064535Y0236673I0000000J0000531D01*
G01*
G37*
G36*
G01*
X0068551Y0236673D02*
X0068551Y0238129D01*
G75*
G02*
X0069083Y0238661I0000531J0000000D01*
G01*
X0070146Y0238661D01*
G75*
G02*
X0070677Y0238129I0000000J-000531D01*
G01*
X0070677Y0236673D01*
G75*
G02*
X0070146Y0236141I-000531J0000000D01*
G01*
X0069083Y0236141D01*
G75*
G02*
X0068551Y0236673I0000000J0000531D01*
G01*
G37*
G36*
G01*
X0091302Y0254429D02*
X0091302Y0257972D01*
G75*
G02*
X0092286Y0258957I0000984J0000000D01*
G01*
X0094353Y0258957D01*
G75*
G02*
X0095337Y0257972I0000000J-000984D01*
G01*
X0095337Y0254429D01*
G75*
G02*
X0094353Y0253445I-000984J0000000D01*
G01*
X0092286Y0253445D01*
G75*
G02*
X0091302Y0254429I0000000J0000984D01*
G01*
G37*
G36*
G01*
X0098487Y0254429D02*
X0098487Y0257972D01*
G75*
G02*
X0099471Y0258957I0000984J0000000D01*
G01*
X0101538Y0258957D01*
G75*
G02*
X0102522Y0257972I0000000J-000984D01*
G01*
X0102522Y0254429D01*
G75*
G02*
X0101538Y0253445I-000984J0000000D01*
G01*
X0099471Y0253445D01*
G75*
G02*
X0098487Y0254429I0000000J0000984D01*
G01*
G37*
G36*
G01*
X0064586Y0225531D02*
X0064586Y0226988D01*
G75*
G02*
X0065118Y0227520I0000531J0000000D01*
G01*
X0066181Y0227520D01*
G75*
G02*
X0066712Y0226988I0000000J-000531D01*
G01*
X0066712Y0225531D01*
G75*
G02*
X0066181Y0225000I-000531J0000000D01*
G01*
X0065118Y0225000D01*
G75*
G02*
X0064586Y0225531I0000000J0000531D01*
G01*
G37*
G36*
G01*
X0068602Y0225531D02*
X0068602Y0226988D01*
G75*
G02*
X0069133Y0227520I0000531J0000000D01*
G01*
X0070196Y0227520D01*
G75*
G02*
X0070728Y0226988I0000000J-000531D01*
G01*
X0070728Y0225531D01*
G75*
G02*
X0070196Y0225000I-000531J0000000D01*
G01*
X0069133Y0225000D01*
G75*
G02*
X0068602Y0225531I0000000J0000531D01*
G01*
G37*
G36*
G01*
X0054901Y0259035D02*
X0054901Y0257579D01*
G75*
G02*
X0054370Y0257047I-000531J0000000D01*
G01*
X0053307Y0257047D01*
G75*
G02*
X0052775Y0257579I0000000J0000531D01*
G01*
X0052775Y0259035D01*
G75*
G02*
X0053307Y0259567I0000531J0000000D01*
G01*
X0054370Y0259567D01*
G75*
G02*
X0054901Y0259035I0000000J-000531D01*
G01*
G37*
G36*
G01*
X0050885Y0259035D02*
X0050885Y0257579D01*
G75*
G02*
X0050354Y0257047I-000531J0000000D01*
G01*
X0049291Y0257047D01*
G75*
G02*
X0048759Y0257579I0000000J0000531D01*
G01*
X0048759Y0259035D01*
G75*
G02*
X0049291Y0259567I0000531J0000000D01*
G01*
X0050354Y0259567D01*
G75*
G02*
X0050885Y0259035I0000000J-000531D01*
G01*
G37*
G36*
G01*
X0054448Y0247086D02*
X0054448Y0245630D01*
G75*
G02*
X0053917Y0245098I-000531J0000000D01*
G01*
X0052854Y0245098D01*
G75*
G02*
X0052322Y0245630I0000000J0000531D01*
G01*
X0052322Y0247086D01*
G75*
G02*
X0052854Y0247618I0000531J0000000D01*
G01*
X0053917Y0247618D01*
G75*
G02*
X0054448Y0247086I0000000J-000531D01*
G01*
G37*
G36*
G01*
X0050433Y0247086D02*
X0050433Y0245630D01*
G75*
G02*
X0049901Y0245098I-000531J0000000D01*
G01*
X0048838Y0245098D01*
G75*
G02*
X0048307Y0245630I0000000J0000531D01*
G01*
X0048307Y0247086D01*
G75*
G02*
X0048838Y0247618I0000531J0000000D01*
G01*
X0049901Y0247618D01*
G75*
G02*
X0050433Y0247086I0000000J-000531D01*
G01*
G37*
G36*
G01*
X0055984Y0232933D02*
X0055984Y0234390D01*
G75*
G02*
X0056515Y0234921I0000531J0000000D01*
G01*
X0057578Y0234921D01*
G75*
G02*
X0058110Y0234390I0000000J-000531D01*
G01*
X0058110Y0232933D01*
G75*
G02*
X0057578Y0232401I-000531J0000000D01*
G01*
X0056515Y0232401D01*
G75*
G02*
X0055984Y0232933I0000000J0000531D01*
G01*
G37*
G36*
G01*
X0060000Y0232933D02*
X0060000Y0234390D01*
G75*
G02*
X0060531Y0234921I0000531J0000000D01*
G01*
X0061594Y0234921D01*
G75*
G02*
X0062126Y0234390I0000000J-000531D01*
G01*
X0062126Y0232933D01*
G75*
G02*
X0061594Y0232401I-000531J0000000D01*
G01*
X0060531Y0232401D01*
G75*
G02*
X0060000Y0232933I0000000J0000531D01*
G01*
G37*
G36*
G01*
X0048287Y0241850D02*
X0048287Y0243189D01*
G75*
G02*
X0048838Y0243740I0000551J0000000D01*
G01*
X0049941Y0243740D01*
G75*
G02*
X0050492Y0243189I0000000J-000551D01*
G01*
X0050492Y0241850D01*
G75*
G02*
X0049941Y0241299I-000551J0000000D01*
G01*
X0048838Y0241299D01*
G75*
G02*
X0048287Y0241850I0000000J0000551D01*
G01*
G37*
G36*
G01*
X0052067Y0241850D02*
X0052067Y0243189D01*
G75*
G02*
X0052618Y0243740I0000551J0000000D01*
G01*
X0053720Y0243740D01*
G75*
G02*
X0054271Y0243189I0000000J-000551D01*
G01*
X0054271Y0241850D01*
G75*
G02*
X0053720Y0241299I-000551J0000000D01*
G01*
X0052618Y0241299D01*
G75*
G02*
X0052067Y0241850I0000000J0000551D01*
G01*
G37*
G36*
G01*
X0087435Y0252065D02*
X0088773Y0252065D01*
G75*
G02*
X0089325Y0251514I0000000J-000551D01*
G01*
X0089325Y0250412D01*
G75*
G02*
X0088773Y0249860I-000551J0000000D01*
G01*
X0087435Y0249860D01*
G75*
G02*
X0086884Y0250412I0000000J0000551D01*
G01*
X0086884Y0251514D01*
G75*
G02*
X0087435Y0252065I0000551J0000000D01*
G01*
G37*
G36*
G01*
X0087435Y0248286D02*
X0088773Y0248286D01*
G75*
G02*
X0089325Y0247735I0000000J-000551D01*
G01*
X0089325Y0246632D01*
G75*
G02*
X0088773Y0246081I-000551J0000000D01*
G01*
X0087435Y0246081D01*
G75*
G02*
X0086884Y0246632I0000000J0000551D01*
G01*
X0086884Y0247735D01*
G75*
G02*
X0087435Y0248286I0000551J0000000D01*
G01*
G37*
G36*
G01*
X0054941Y0238130D02*
X0054941Y0236673D01*
G75*
G02*
X0054409Y0236142I-000531J0000000D01*
G01*
X0053346Y0236142D01*
G75*
G02*
X0052815Y0236673I0000000J0000531D01*
G01*
X0052815Y0238130D01*
G75*
G02*
X0053346Y0238661I0000531J0000000D01*
G01*
X0054409Y0238661D01*
G75*
G02*
X0054941Y0238130I0000000J-000531D01*
G01*
G37*
G36*
G01*
X0050925Y0238130D02*
X0050925Y0236673D01*
G75*
G02*
X0050393Y0236142I-000531J0000000D01*
G01*
X0049330Y0236142D01*
G75*
G02*
X0048799Y0236673I0000000J0000531D01*
G01*
X0048799Y0238130D01*
G75*
G02*
X0049330Y0238661I0000531J0000000D01*
G01*
X0050393Y0238661D01*
G75*
G02*
X0050925Y0238130I0000000J-000531D01*
G01*
G37*
G36*
G01*
X0072342Y0226771D02*
X0072342Y0227953D01*
G75*
G02*
X0072933Y0228543I0000591J0000000D01*
G01*
X0076968Y0228543D01*
G75*
G02*
X0077559Y0227953I0000000J-000591D01*
G01*
X0077559Y0226771D01*
G75*
G02*
X0076968Y0226181I-000591J0000000D01*
G01*
X0072933Y0226181D01*
G75*
G02*
X0072342Y0226771I0000000J0000591D01*
G01*
G37*
G36*
G01*
X0072342Y0230512D02*
X0072342Y0231693D01*
G75*
G02*
X0072933Y0232283I0000591J0000000D01*
G01*
X0076968Y0232283D01*
G75*
G02*
X0077559Y0231693I0000000J-000591D01*
G01*
X0077559Y0230512D01*
G75*
G02*
X0076968Y0229921I-000591J0000000D01*
G01*
X0072933Y0229921D01*
G75*
G02*
X0072342Y0230512I0000000J0000591D01*
G01*
G37*
G36*
G01*
X0072342Y0234252D02*
X0072342Y0235433D01*
G75*
G02*
X0072933Y0236023I0000591J0000000D01*
G01*
X0076968Y0236023D01*
G75*
G02*
X0077559Y0235433I0000000J-000591D01*
G01*
X0077559Y0234252D01*
G75*
G02*
X0076968Y0233661I-000591J0000000D01*
G01*
X0072933Y0233661D01*
G75*
G02*
X0072342Y0234252I0000000J0000591D01*
G01*
G37*
G36*
G01*
X0081299Y0234252D02*
X0081299Y0235433D01*
G75*
G02*
X0081889Y0236023I0000591J0000000D01*
G01*
X0085925Y0236023D01*
G75*
G02*
X0086515Y0235433I0000000J-000591D01*
G01*
X0086515Y0234252D01*
G75*
G02*
X0085925Y0233661I-000591J0000000D01*
G01*
X0081889Y0233661D01*
G75*
G02*
X0081299Y0234252I0000000J0000591D01*
G01*
G37*
G36*
G01*
X0081299Y0226771D02*
X0081299Y0227953D01*
G75*
G02*
X0081889Y0228543I0000591J0000000D01*
G01*
X0085925Y0228543D01*
G75*
G02*
X0086515Y0227953I0000000J-000591D01*
G01*
X0086515Y0226771D01*
G75*
G02*
X0085925Y0226181I-000591J0000000D01*
G01*
X0081889Y0226181D01*
G75*
G02*
X0081299Y0226771I0000000J0000591D01*
G01*
G37*
G36*
G01*
X0070649Y0230590D02*
X0070649Y0229252D01*
G75*
G02*
X0070098Y0228701I-000551J0000000D01*
G01*
X0068996Y0228701D01*
G75*
G02*
X0068444Y0229252I0000000J0000551D01*
G01*
X0068444Y0230590D01*
G75*
G02*
X0068996Y0231142I0000551J0000000D01*
G01*
X0070098Y0231142D01*
G75*
G02*
X0070649Y0230590I0000000J-000551D01*
G01*
G37*
G36*
G01*
X0066870Y0230590D02*
X0066870Y0229252D01*
G75*
G02*
X0066319Y0228701I-000551J0000000D01*
G01*
X0065216Y0228701D01*
G75*
G02*
X0064665Y0229252I0000000J0000551D01*
G01*
X0064665Y0230590D01*
G75*
G02*
X0065216Y0231142I0000551J0000000D01*
G01*
X0066319Y0231142D01*
G75*
G02*
X0066870Y0230590I0000000J-000551D01*
G01*
G37*
X0341339Y0172441D02*
G01*
G75*
D459*
X0329724Y0071199D02*
D03*
X0320472Y0067459D02*
D03*
D459*
X0329724Y0063718D02*
D03*
D465*
X0309646Y0120473D02*
D03*
X0309646Y0116536D02*
D03*
X0188977Y0077559D02*
D03*
X0188977Y0081496D02*
D03*
X0312697Y0018307D02*
D03*
X0312697Y0022244D02*
D03*
X0279514Y0095669D02*
D03*
X0279514Y0099606D02*
D03*
X0262609Y0095741D02*
D03*
X0262609Y0091804D02*
D03*
X0284646Y0099213D02*
D03*
X0284646Y0095276D02*
D03*
X0335840Y0115625D02*
D03*
X0335840Y0119562D02*
D03*
X0318111Y0046457D02*
D03*
X0318111Y0050394D02*
D03*
X0338583Y0027362D02*
D03*
X0338583Y0023425D02*
D03*
X0206693Y0103150D02*
D03*
X0206693Y0107087D02*
D03*
X0280315Y0038583D02*
D03*
X0280315Y0034646D02*
D03*
X0250098Y0105020D02*
D03*
X0250098Y0101083D02*
D03*
X0261123Y0023720D02*
D03*
X0261123Y0019784D02*
D03*
X0208268Y0091339D02*
D03*
X0208268Y0095276D02*
D03*
X0204331Y0091339D02*
D03*
X0204331Y0095276D02*
D03*
X0334449Y0027362D02*
D03*
X0334449Y0023425D02*
D03*
X0197441Y0075984D02*
D03*
X0197441Y0079921D02*
D03*
X0197638Y0053543D02*
D03*
X0197638Y0057480D02*
D03*
X0245768Y0105020D02*
D03*
X0245768Y0101083D02*
D03*
X0242126Y0018504D02*
D03*
X0242126Y0022441D02*
D03*
X0280315Y0068110D02*
D03*
X0280315Y0064173D02*
D03*
X0280315Y0071654D02*
D03*
X0280315Y0075591D02*
D03*
X0293701Y0148032D02*
D03*
X0293701Y0151969D02*
D03*
X0288977Y0148032D02*
D03*
X0288977Y0151969D02*
D03*
X0284252Y0148032D02*
D03*
X0284252Y0151969D02*
D03*
X0279528Y0148032D02*
D03*
X0279528Y0151969D02*
D03*
X0194882Y0167323D02*
D03*
X0194882Y0163386D02*
D03*
X0190158Y0163386D02*
D03*
X0190158Y0167323D02*
D03*
X0185434Y0167323D02*
D03*
X0185434Y0163386D02*
D03*
X0180709Y0167323D02*
D03*
X0180709Y0163386D02*
D03*
X0313583Y0120473D02*
D03*
X0313583Y0116536D02*
D03*
X0285630Y0120473D02*
D03*
X0285630Y0116536D02*
D03*
X0317323Y0148032D02*
D03*
X0317323Y0151969D02*
D03*
X0322047Y0148032D02*
D03*
X0322047Y0151969D02*
D03*
X0326772Y0148032D02*
D03*
X0326772Y0151969D02*
D03*
X0331496Y0148032D02*
D03*
X0331496Y0151969D02*
D03*
X0298425Y0148032D02*
D03*
X0298425Y0151969D02*
D03*
X0303150Y0148032D02*
D03*
X0303150Y0151969D02*
D03*
X0307874Y0148032D02*
D03*
X0307874Y0151969D02*
D03*
X0312599Y0148032D02*
D03*
X0312599Y0151969D02*
D03*
X0260630Y0148032D02*
D03*
X0260630Y0151969D02*
D03*
X0265354Y0148032D02*
D03*
X0265354Y0151969D02*
D03*
X0270079Y0148032D02*
D03*
X0270079Y0151969D02*
D03*
X0274803Y0148032D02*
D03*
X0274803Y0151969D02*
D03*
X0241732Y0151969D02*
D03*
X0241732Y0148032D02*
D03*
X0246457Y0148032D02*
D03*
X0246457Y0151969D02*
D03*
X0251181Y0148032D02*
D03*
X0251181Y0151969D02*
D03*
X0255906Y0148032D02*
D03*
X0255906Y0151969D02*
D03*
X0222835Y0148032D02*
D03*
X0222835Y0151969D02*
D03*
X0227559Y0148032D02*
D03*
X0227559Y0151969D02*
D03*
X0232284Y0148032D02*
D03*
X0232284Y0151969D02*
D03*
X0237008Y0148032D02*
D03*
X0237008Y0151969D02*
D03*
X0208662Y0148032D02*
D03*
X0208662Y0151969D02*
D03*
X0213386Y0148032D02*
D03*
X0213386Y0151969D02*
D03*
X0218111Y0148032D02*
D03*
X0218111Y0151969D02*
D03*
X0336615Y0157284D02*
D03*
X0336615Y0153347D02*
D03*
X0199606Y0163386D02*
D03*
X0199606Y0167323D02*
D03*
X0285630Y0130709D02*
D03*
X0285630Y0126772D02*
D03*
X0198032Y0151969D02*
D03*
X0198032Y0148032D02*
D03*
X0336615Y0164961D02*
D03*
X0336615Y0161024D02*
D03*
X0198032Y0155906D02*
D03*
X0198032Y0159843D02*
D03*
X0192914Y0025591D02*
D03*
X0192914Y0029528D02*
D03*
X0203937Y0148032D02*
D03*
X0203937Y0151969D02*
D03*
D468*
X0303937Y0055610D02*
D03*
X0296851Y0055610D02*
D03*
X0296851Y0065650D02*
D03*
X0303937Y0065650D02*
D03*
X0289370Y0103839D02*
D03*
X0296457Y0103839D02*
D03*
X0296457Y0093799D02*
D03*
X0289370Y0093799D02*
D03*
X0289370Y0087697D02*
D03*
X0296457Y0087697D02*
D03*
X0296457Y0077657D02*
D03*
X0289370Y0077657D02*
D03*
X0193898Y0123524D02*
D03*
X0200985Y0123524D02*
D03*
X0200985Y0133563D02*
D03*
X0193898Y0133563D02*
D03*
X0212402Y0133563D02*
D03*
X0205315Y0133563D02*
D03*
X0205315Y0123524D02*
D03*
X0212402Y0123524D02*
D03*
X0262402Y0123524D02*
D03*
X0269488Y0123524D02*
D03*
X0269488Y0133563D02*
D03*
X0262402Y0133563D02*
D03*
X0280906Y0133563D02*
D03*
X0273819Y0133563D02*
D03*
X0273819Y0123524D02*
D03*
X0280906Y0123524D02*
D03*
X0239567Y0123524D02*
D03*
X0246654Y0123524D02*
D03*
X0246654Y0133563D02*
D03*
X0239567Y0133563D02*
D03*
X0258071Y0133563D02*
D03*
X0250984Y0133563D02*
D03*
X0250984Y0123524D02*
D03*
X0258071Y0123524D02*
D03*
X0216732Y0123524D02*
D03*
X0223819Y0123524D02*
D03*
X0223819Y0133563D02*
D03*
X0216732Y0133563D02*
D03*
X0235236Y0133563D02*
D03*
X0228150Y0133563D02*
D03*
X0228150Y0123524D02*
D03*
X0235236Y0123524D02*
D03*
D469*
X0296851Y0062205D02*
D03*
X0296851Y0059055D02*
D03*
X0303937Y0059055D02*
D03*
X0303937Y0062205D02*
D03*
X0296457Y0097244D02*
D03*
X0296457Y0100394D02*
D03*
X0289370Y0100394D02*
D03*
X0289370Y0097244D02*
D03*
X0296457Y0081102D02*
D03*
X0296457Y0084252D02*
D03*
X0289370Y0084252D02*
D03*
X0289370Y0081102D02*
D03*
X0193898Y0126969D02*
D03*
X0193898Y0130118D02*
D03*
X0200985Y0130118D02*
D03*
X0200985Y0126969D02*
D03*
X0212402Y0130118D02*
D03*
X0212402Y0126969D02*
D03*
X0205315Y0126969D02*
D03*
X0205315Y0130118D02*
D03*
X0262402Y0126969D02*
D03*
X0262402Y0130118D02*
D03*
X0269488Y0130118D02*
D03*
X0269488Y0126969D02*
D03*
X0280906Y0130118D02*
D03*
X0280906Y0126969D02*
D03*
X0273819Y0126969D02*
D03*
X0273819Y0130118D02*
D03*
X0239567Y0126969D02*
D03*
X0239567Y0130118D02*
D03*
X0246654Y0130118D02*
D03*
X0246654Y0126969D02*
D03*
X0258071Y0130118D02*
D03*
X0258071Y0126969D02*
D03*
X0250984Y0126969D02*
D03*
X0250984Y0130118D02*
D03*
X0216732Y0126969D02*
D03*
X0216732Y0130118D02*
D03*
X0223819Y0130118D02*
D03*
X0223819Y0126969D02*
D03*
X0235236Y0130118D02*
D03*
X0235236Y0126969D02*
D03*
X0228150Y0126969D02*
D03*
X0228150Y0130118D02*
D03*
D471*
X0315945Y0061614D02*
D03*
X0315945Y0059055D02*
D03*
X0315945Y0056496D02*
D03*
X0308465Y0056496D02*
D03*
X0308465Y0061614D02*
D03*
D474*
X0297638Y0021063D02*
D03*
X0301575Y0021063D02*
D03*
X0181496Y0036811D02*
D03*
X0185434Y0036811D02*
D03*
X0322596Y0041632D02*
D03*
X0318659Y0041632D02*
D03*
X0300000Y0047638D02*
D03*
X0303937Y0047638D02*
D03*
X0309056Y0051575D02*
D03*
X0305119Y0051575D02*
D03*
X0200000Y0102362D02*
D03*
X0196063Y0102362D02*
D03*
X0269292Y0020472D02*
D03*
X0265355Y0020472D02*
D03*
X0200591Y0032677D02*
D03*
X0196654Y0032677D02*
D03*
X0227953Y0021654D02*
D03*
X0224016Y0021654D02*
D03*
X0272429Y0108463D02*
D03*
X0276366Y0108463D02*
D03*
X0281693Y0085827D02*
D03*
X0277756Y0085827D02*
D03*
X0271654Y0087402D02*
D03*
X0267717Y0087402D02*
D03*
X0272441Y0059055D02*
D03*
X0268504Y0059055D02*
D03*
X0177166Y0018898D02*
D03*
X0181103Y0018898D02*
D03*
X0290355Y0019882D02*
D03*
X0294292Y0019882D02*
D03*
X0308268Y0034252D02*
D03*
X0304331Y0034252D02*
D03*
X0197244Y0096063D02*
D03*
X0193307Y0096063D02*
D03*
X0197244Y0092126D02*
D03*
X0193307Y0092126D02*
D03*
X0196654Y0028740D02*
D03*
X0200591Y0028740D02*
D03*
X0223721Y0104626D02*
D03*
X0227658Y0104626D02*
D03*
X0280315Y0059449D02*
D03*
X0276378Y0059449D02*
D03*
X0280315Y0091142D02*
D03*
X0276378Y0091142D02*
D03*
X0272048Y0035827D02*
D03*
X0268111Y0035827D02*
D03*
X0272835Y0051181D02*
D03*
X0268898Y0051181D02*
D03*
X0257973Y0105020D02*
D03*
X0254036Y0105020D02*
D03*
X0203740Y0117323D02*
D03*
X0207677Y0117323D02*
D03*
X0272244Y0117323D02*
D03*
X0276181Y0117323D02*
D03*
X0249410Y0117323D02*
D03*
X0253347Y0117323D02*
D03*
X0226575Y0117323D02*
D03*
X0230512Y0117323D02*
D03*
X0265748Y0141339D02*
D03*
X0269685Y0141339D02*
D03*
X0320800Y0137795D02*
D03*
X0316863Y0137795D02*
D03*
X0329989Y0137795D02*
D03*
X0333926Y0137795D02*
D03*
X0295996Y0137795D02*
D03*
X0292059Y0137795D02*
D03*
X0305185Y0137795D02*
D03*
X0309122Y0137795D02*
D03*
X0333465Y0055906D02*
D03*
X0337402Y0055906D02*
D03*
X0327559Y0055906D02*
D03*
X0323622Y0055906D02*
D03*
X0290551Y0144095D02*
D03*
X0294488Y0144095D02*
D03*
X0337402Y0106299D02*
D03*
X0333465Y0106299D02*
D03*
X0337402Y0093898D02*
D03*
X0333465Y0093898D02*
D03*
X0337402Y0089764D02*
D03*
X0333465Y0089764D02*
D03*
X0337402Y0081496D02*
D03*
X0333465Y0081496D02*
D03*
X0337402Y0085630D02*
D03*
X0333465Y0085630D02*
D03*
X0337402Y0077362D02*
D03*
X0333465Y0077362D02*
D03*
X0337402Y0098031D02*
D03*
X0333465Y0098031D02*
D03*
X0337402Y0102165D02*
D03*
X0333465Y0102165D02*
D03*
D200*
X0285591Y0022500D02*
D03*
X0305591Y0026500D02*
D03*
X0305591Y0018500D02*
D03*
D201*
X0247244Y0111024D02*
D03*
X0200000Y0106693D02*
D03*
X0205118Y0111417D02*
D03*
X0216930Y0111417D02*
D03*
X0228347Y0111417D02*
D03*
X0264567Y0111417D02*
D03*
X0281497Y0110236D02*
D03*
D20*
X0337008Y0018898D02*
D03*
D484*
X0287362Y0054921D02*
D03*
X0281142Y0054921D02*
D03*
D485*
X0184759Y0044570D02*
D03*
X0181019Y0053822D02*
D03*
X0267188Y0102321D02*
D03*
X0270928Y0093069D02*
D03*
X0330709Y0041457D02*
D03*
X0334449Y0032205D02*
D03*
X0325000Y0028032D02*
D03*
X0321260Y0037283D02*
D03*
X0188386Y0136417D02*
D03*
X0184646Y0145669D02*
D03*
X0184646Y0130774D02*
D03*
X0188386Y0121522D02*
D03*
X0188386Y0106627D02*
D03*
X0184646Y0115879D02*
D03*
X0189173Y0091732D02*
D03*
X0185433Y0100984D02*
D03*
D485*
X0188499Y0053822D02*
D03*
X0274668Y0102321D02*
D03*
X0338189Y0041457D02*
D03*
X0317520Y0028031D02*
D03*
X0180906Y0136417D02*
D03*
X0180906Y0121522D02*
D03*
X0180906Y0106627D02*
D03*
X0181693Y0091732D02*
D03*
D486*
X0337008Y0048819D02*
D03*
X0324016Y0048819D02*
D03*
X0299607Y0038583D02*
D03*
X0286614Y0038583D02*
D03*
D221*
X0304528Y0040158D02*
D03*
X0311221Y0040158D02*
D03*
D487*
X0182284Y0077953D02*
D03*
X0182284Y0066536D02*
D03*
D488*
X0244213Y0066917D02*
D03*
X0239882Y0066917D02*
D03*
X0235551Y0066917D02*
D03*
X0231221Y0066917D02*
D03*
X0226890Y0066917D02*
D03*
X0222559Y0066917D02*
D03*
X0218228Y0066917D02*
D03*
X0213898Y0066917D02*
D03*
D489*
X0204528Y0077153D02*
D03*
X0204528Y0044476D02*
D03*
X0258661Y0044476D02*
D03*
X0258661Y0077153D02*
D03*
D225*
X0269291Y0065945D02*
D03*
X0269291Y0080512D02*
D03*
D490*
X0222736Y0089764D02*
D03*
X0222736Y0096850D02*
D03*
X0212697Y0096850D02*
D03*
X0212697Y0089764D02*
D03*
X0291634Y0164764D02*
D03*
X0291634Y0157677D02*
D03*
X0281595Y0157677D02*
D03*
X0281595Y0164764D02*
D03*
X0319784Y0130315D02*
D03*
X0319784Y0123228D02*
D03*
X0329823Y0123228D02*
D03*
X0329823Y0130315D02*
D03*
X0329823Y0111811D02*
D03*
X0329823Y0118898D02*
D03*
X0319784Y0118898D02*
D03*
X0319784Y0111811D02*
D03*
X0291831Y0130315D02*
D03*
X0291831Y0123228D02*
D03*
X0301870Y0123228D02*
D03*
X0301870Y0130315D02*
D03*
X0301870Y0111811D02*
D03*
X0301870Y0118898D02*
D03*
X0291831Y0118898D02*
D03*
X0291831Y0111811D02*
D03*
X0329429Y0164764D02*
D03*
X0329429Y0157677D02*
D03*
X0319390Y0157677D02*
D03*
X0319390Y0164764D02*
D03*
X0310532Y0164764D02*
D03*
X0310532Y0157677D02*
D03*
X0300493Y0157677D02*
D03*
X0300493Y0164764D02*
D03*
X0272737Y0164764D02*
D03*
X0272737Y0157677D02*
D03*
X0262697Y0157677D02*
D03*
X0262697Y0164764D02*
D03*
X0253839Y0164764D02*
D03*
X0253839Y0157677D02*
D03*
X0243799Y0157677D02*
D03*
X0243799Y0164764D02*
D03*
X0234941Y0164764D02*
D03*
X0234941Y0157677D02*
D03*
X0224902Y0157677D02*
D03*
X0224902Y0164764D02*
D03*
X0216044Y0164764D02*
D03*
X0216044Y0157677D02*
D03*
X0206004Y0157677D02*
D03*
X0206004Y0164764D02*
D03*
X0182776Y0159055D02*
D03*
X0182776Y0151969D02*
D03*
X0192815Y0151969D02*
D03*
X0192815Y0159055D02*
D03*
D491*
X0219292Y0089764D02*
D03*
X0216142Y0089764D02*
D03*
X0216142Y0096850D02*
D03*
X0219292Y0096850D02*
D03*
X0285040Y0157677D02*
D03*
X0288189Y0157677D02*
D03*
X0288189Y0164764D02*
D03*
X0285040Y0164764D02*
D03*
X0323229Y0130315D02*
D03*
X0326378Y0130315D02*
D03*
X0326378Y0123228D02*
D03*
X0323229Y0123228D02*
D03*
X0326378Y0111811D02*
D03*
X0323229Y0111811D02*
D03*
X0323229Y0118898D02*
D03*
X0326378Y0118898D02*
D03*
X0295276Y0130315D02*
D03*
X0298426Y0130315D02*
D03*
X0298426Y0123228D02*
D03*
X0295276Y0123228D02*
D03*
X0298425Y0111811D02*
D03*
X0295276Y0111811D02*
D03*
X0295276Y0118898D02*
D03*
X0298425Y0118898D02*
D03*
X0322835Y0157677D02*
D03*
X0325984Y0157677D02*
D03*
X0325984Y0164764D02*
D03*
X0322835Y0164764D02*
D03*
X0303937Y0157677D02*
D03*
X0307087Y0157677D02*
D03*
X0307087Y0164764D02*
D03*
X0303937Y0164764D02*
D03*
X0266142Y0157677D02*
D03*
X0269292Y0157677D02*
D03*
X0269292Y0164764D02*
D03*
X0266142Y0164764D02*
D03*
X0247244Y0157677D02*
D03*
X0250394Y0157677D02*
D03*
X0250394Y0164764D02*
D03*
X0247244Y0164764D02*
D03*
X0228347Y0157677D02*
D03*
X0231496Y0157677D02*
D03*
X0231496Y0164764D02*
D03*
X0228347Y0164764D02*
D03*
X0209449Y0157677D02*
D03*
X0212599Y0157677D02*
D03*
X0212599Y0164764D02*
D03*
X0209449Y0164764D02*
D03*
X0186221Y0159055D02*
D03*
X0189370Y0159055D02*
D03*
X0189370Y0151969D02*
D03*
X0186221Y0151969D02*
D03*
D492*
X0197638Y0062205D02*
D03*
X0197638Y0068504D02*
D03*
X0251280Y0026476D02*
D03*
X0251280Y0020177D02*
D03*
X0336614Y0060236D02*
D03*
X0336614Y0066536D02*
D03*
X0192126Y0069685D02*
D03*
X0192126Y0063386D02*
D03*
D493*
X0272048Y0040748D02*
D03*
X0272048Y0046654D02*
D03*
D494*
X0281102Y0045669D02*
D03*
X0287402Y0045669D02*
D03*
X0281102Y0050295D02*
D03*
X0287402Y0050295D02*
D03*
D495*
X0329528Y0021063D02*
D03*
X0318111Y0021063D02*
D03*
D496*
X0193111Y0081260D02*
D03*
X0193111Y0075039D02*
D03*
X0264567Y0051614D02*
D03*
X0264567Y0057835D02*
D03*
D233*
X0327717Y0105315D02*
D03*
X0327717Y0102756D02*
D03*
X0327717Y0100197D02*
D03*
X0327717Y0097638D02*
D03*
X0327717Y0095079D02*
D03*
X0327717Y0092520D02*
D03*
X0327717Y0089961D02*
D03*
X0327717Y0087402D02*
D03*
X0327717Y0084843D02*
D03*
X0327717Y0082283D02*
D03*
X0327717Y0079725D02*
D03*
X0327717Y0077165D02*
D03*
X0304724Y0105315D02*
D03*
X0304724Y0102756D02*
D03*
X0304724Y0100197D02*
D03*
X0304724Y0097638D02*
D03*
X0304724Y0095079D02*
D03*
X0304724Y0092520D02*
D03*
X0304724Y0089961D02*
D03*
X0304724Y0087402D02*
D03*
X0304724Y0084843D02*
D03*
X0304724Y0082283D02*
D03*
X0304724Y0079725D02*
D03*
X0304724Y0077165D02*
D03*
D234*
X0184449Y0029134D02*
D03*
X0186417Y0029134D02*
D03*
X0186417Y0022835D02*
D03*
X0184449Y0022835D02*
D03*
D235*
X0188583Y0028937D02*
D03*
X0188583Y0026968D02*
D03*
X0188583Y0025000D02*
D03*
X0188583Y0023032D02*
D03*
X0182283Y0028937D02*
D03*
X0182283Y0023032D02*
D03*
X0182283Y0026968D02*
D03*
X0182283Y0025000D02*
D03*
X0169488Y0117224D02*
G01*
G75*
D120*
X0162894Y0067716D02*
D03*
X0146850Y0068897D02*
D03*
X0139567Y0095964D02*
D03*
X0144724Y0093405D02*
D03*
X0146496Y0087007D02*
D03*
X0139567Y0088287D02*
D03*
X0146791Y0083661D02*
D03*
X0147638Y0080216D02*
D03*
X0139567Y0078051D02*
D03*
X0146791Y0076378D02*
D03*
X0116142Y0223179D02*
%LPD*%
G01*
D21*
X0174410Y0250344D03*
X0174410Y0245620D03*
X0174410Y0255069D03*
X0174410Y0259793D03*
X0117618Y0234360D03*
X0117618Y0230423D03*
G36*
G01*
X0133071Y0253773D02*
X0133071Y0252592D01*
G75*
G02*
X0132481Y0252001I-000591J0000000D01*
G01*
X0128445Y0252001D01*
G75*
G02*
X0127855Y0252592I0000000J0000591D01*
G01*
X0127855Y0253773D01*
G75*
G02*
X0128445Y0254363I0000591J0000000D01*
G01*
X0132481Y0254363D01*
G75*
G02*
X0133071Y0253773I0000000J-000591D01*
G01*
G37*
G36*
G01*
X0133071Y0250032D02*
X0133071Y0248851D01*
G75*
G02*
X0132481Y0248261I-000591J0000000D01*
G01*
X0128445Y0248261D01*
G75*
G02*
X0127855Y0248851I0000000J0000591D01*
G01*
X0127855Y0250032D01*
G75*
G02*
X0128445Y0250623I0000591J0000000D01*
G01*
X0132481Y0250623D01*
G75*
G02*
X0133071Y0250032I0000000J-000591D01*
G01*
G37*
G36*
G01*
X0133071Y0246292D02*
X0133071Y0245111D01*
G75*
G02*
X0132481Y0244521I-000591J0000000D01*
G01*
X0128445Y0244521D01*
G75*
G02*
X0127855Y0245111I0000000J0000591D01*
G01*
X0127855Y0246292D01*
G75*
G02*
X0128445Y0246883I0000591J0000000D01*
G01*
X0132481Y0246883D01*
G75*
G02*
X0133071Y0246292I0000000J-000591D01*
G01*
G37*
G36*
G01*
X0124114Y0246292D02*
X0124114Y0245111D01*
G75*
G02*
X0123524Y0244521I-000591J0000000D01*
G01*
X0119488Y0244521D01*
G75*
G02*
X0118898Y0245111I0000000J0000591D01*
G01*
X0118898Y0246292D01*
G75*
G02*
X0119488Y0246883I0000591J0000000D01*
G01*
X0123524Y0246883D01*
G75*
G02*
X0124114Y0246292I0000000J-000591D01*
G01*
G37*
G36*
G01*
X0124114Y0253773D02*
X0124114Y0252592D01*
G75*
G02*
X0123524Y0252001I-000591J0000000D01*
G01*
X0119488Y0252001D01*
G75*
G02*
X0118898Y0252592I0000000J0000591D01*
G01*
X0118898Y0253773D01*
G75*
G02*
X0119488Y0254363I0000591J0000000D01*
G01*
X0123524Y0254363D01*
G75*
G02*
X0124114Y0253773I0000000J-000591D01*
G01*
G37*
G36*
G01*
X0132796Y0231486D02*
X0134134Y0231486D01*
G75*
G02*
X0134685Y0230935I0000000J-000551D01*
G01*
X0134685Y0229833D01*
G75*
G02*
X0134134Y0229281I-000551J0000000D01*
G01*
X0132796Y0229281D01*
G75*
G02*
X0132244Y0229833I0000000J0000551D01*
G01*
X0132244Y0230935D01*
G75*
G02*
X0132796Y0231486I0000551J0000000D01*
G01*
G37*
G36*
G01*
X0132796Y0227707D02*
X0134134Y0227707D01*
G75*
G02*
X0134685Y0227155I0000000J-000551D01*
G01*
X0134685Y0226053D01*
G75*
G02*
X0134134Y0225502I-000551J0000000D01*
G01*
X0132796Y0225502D01*
G75*
G02*
X0132244Y0226053I0000000J0000551D01*
G01*
X0132244Y0227155D01*
G75*
G02*
X0132796Y0227707I0000551J0000000D01*
G01*
G37*
G36*
G01*
X0159311Y0254203D02*
X0159311Y0255541D01*
G75*
G02*
X0159862Y0256092I0000551J0000000D01*
G01*
X0160965Y0256092D01*
G75*
G02*
X0161516Y0255541I0000000J-000551D01*
G01*
X0161516Y0254203D01*
G75*
G02*
X0160965Y0253651I-000551J0000000D01*
G01*
X0159862Y0253651D01*
G75*
G02*
X0159311Y0254203I0000000J0000551D01*
G01*
G37*
G36*
G01*
X0163091Y0254203D02*
X0163091Y0255541D01*
G75*
G02*
X0163642Y0256092I0000551J0000000D01*
G01*
X0164744Y0256092D01*
G75*
G02*
X0165296Y0255541I0000000J-000551D01*
G01*
X0165296Y0254203D01*
G75*
G02*
X0164744Y0253651I-000551J0000000D01*
G01*
X0163642Y0253651D01*
G75*
G02*
X0163091Y0254203I0000000J0000551D01*
G01*
G37*
G36*
G01*
X0172658Y0259203D02*
X0172658Y0257864D01*
G75*
G02*
X0172107Y0257313I-000551J0000000D01*
G01*
X0171004Y0257313D01*
G75*
G02*
X0170453Y0257864I0000000J0000551D01*
G01*
X0170453Y0259203D01*
G75*
G02*
X0171004Y0259754I0000551J0000000D01*
G01*
X0172107Y0259754D01*
G75*
G02*
X0172658Y0259203I0000000J-000551D01*
G01*
G37*
G36*
G01*
X0168878Y0259203D02*
X0168878Y0257864D01*
G75*
G02*
X0168327Y0257313I-000551J0000000D01*
G01*
X0167225Y0257313D01*
G75*
G02*
X0166673Y0257864I0000000J0000551D01*
G01*
X0166673Y0259203D01*
G75*
G02*
X0167225Y0259754I0000551J0000000D01*
G01*
X0168327Y0259754D01*
G75*
G02*
X0168878Y0259203I0000000J-000551D01*
G01*
G37*
G36*
G01*
X0150906Y0250462D02*
X0150906Y0251801D01*
G75*
G02*
X0151457Y0252352I0000551J0000000D01*
G01*
X0152559Y0252352D01*
G75*
G02*
X0153111Y0251801I0000000J-000551D01*
G01*
X0153111Y0250462D01*
G75*
G02*
X0152559Y0249911I-000551J0000000D01*
G01*
X0151457Y0249911D01*
G75*
G02*
X0150906Y0250462I0000000J0000551D01*
G01*
G37*
G36*
G01*
X0154685Y0250462D02*
X0154685Y0251801D01*
G75*
G02*
X0155236Y0252352I0000551J0000000D01*
G01*
X0156339Y0252352D01*
G75*
G02*
X0156890Y0251801I0000000J-000551D01*
G01*
X0156890Y0250462D01*
G75*
G02*
X0156339Y0249911I-000551J0000000D01*
G01*
X0155236Y0249911D01*
G75*
G02*
X0154685Y0250462I0000000J0000551D01*
G01*
G37*
G36*
G01*
X0172461Y0255541D02*
X0172461Y0254203D01*
G75*
G02*
X0171910Y0253651I-000551J0000000D01*
G01*
X0170807Y0253651D01*
G75*
G02*
X0170256Y0254203I0000000J0000551D01*
G01*
X0170256Y0255541D01*
G75*
G02*
X0170807Y0256092I0000551J0000000D01*
G01*
X0171910Y0256092D01*
G75*
G02*
X0172461Y0255541I0000000J-000551D01*
G01*
G37*
G36*
G01*
X0168681Y0255541D02*
X0168681Y0254203D01*
G75*
G02*
X0168130Y0253651I-000551J0000000D01*
G01*
X0167028Y0253651D01*
G75*
G02*
X0166477Y0254203I0000000J0000551D01*
G01*
X0166477Y0255541D01*
G75*
G02*
X0167028Y0256092I0000551J0000000D01*
G01*
X0168130Y0256092D01*
G75*
G02*
X0168681Y0255541I0000000J-000551D01*
G01*
G37*
G36*
G01*
X0167185Y0234025D02*
X0167185Y0235364D01*
G75*
G02*
X0167736Y0235915I0000551J0000000D01*
G01*
X0168839Y0235915D01*
G75*
G02*
X0169390Y0235364I0000000J-000551D01*
G01*
X0169390Y0234025D01*
G75*
G02*
X0168839Y0233474I-000551J0000000D01*
G01*
X0167736Y0233474D01*
G75*
G02*
X0167185Y0234025I0000000J0000551D01*
G01*
G37*
G36*
G01*
X0170965Y0234025D02*
X0170965Y0235364D01*
G75*
G02*
X0171516Y0235915I0000551J0000000D01*
G01*
X0172618Y0235915D01*
G75*
G02*
X0173170Y0235364I0000000J-000551D01*
G01*
X0173170Y0234025D01*
G75*
G02*
X0172618Y0233474I-000551J0000000D01*
G01*
X0171516Y0233474D01*
G75*
G02*
X0170965Y0234025I0000000J0000551D01*
G01*
G37*
G36*
G01*
X0136676Y0226525D02*
X0136676Y0227313D01*
G75*
G02*
X0137070Y0227707I0000394J0000000D01*
G01*
X0142090Y0227707D01*
G75*
G02*
X0142483Y0227313I0000000J-000394D01*
G01*
X0142483Y0226525D01*
G75*
G02*
X0142090Y0226132I-000394J0000000D01*
G01*
X0137070Y0226132D01*
G75*
G02*
X0136676Y0226525I0000000J0000394D01*
G01*
G37*
G36*
G01*
X0136676Y0229085D02*
X0136676Y0229872D01*
G75*
G02*
X0137070Y0230266I0000394J0000000D01*
G01*
X0142090Y0230266D01*
G75*
G02*
X0142483Y0229872I0000000J-000394D01*
G01*
X0142483Y0229085D01*
G75*
G02*
X0142090Y0228691I-000394J0000000D01*
G01*
X0137070Y0228691D01*
G75*
G02*
X0136676Y0229085I0000000J0000394D01*
G01*
G37*
G36*
G01*
X0136676Y0231644D02*
X0136676Y0232431D01*
G75*
G02*
X0137070Y0232825I0000394J0000000D01*
G01*
X0142090Y0232825D01*
G75*
G02*
X0142483Y0232431I0000000J-000394D01*
G01*
X0142483Y0231644D01*
G75*
G02*
X0142090Y0231250I-000394J0000000D01*
G01*
X0137070Y0231250D01*
G75*
G02*
X0136676Y0231644I0000000J0000394D01*
G01*
G37*
G36*
G01*
X0136676Y0234203D02*
X0136676Y0234990D01*
G75*
G02*
X0137070Y0235384I0000394J0000000D01*
G01*
X0142090Y0235384D01*
G75*
G02*
X0142483Y0234990I0000000J-000394D01*
G01*
X0142483Y0234203D01*
G75*
G02*
X0142090Y0233809I-000394J0000000D01*
G01*
X0137070Y0233809D01*
G75*
G02*
X0136676Y0234203I0000000J0000394D01*
G01*
G37*
G36*
G01*
X0136676Y0236762D02*
X0136676Y0237549D01*
G75*
G02*
X0137070Y0237943I0000394J0000000D01*
G01*
X0142090Y0237943D01*
G75*
G02*
X0142483Y0237549I0000000J-000394D01*
G01*
X0142483Y0236762D01*
G75*
G02*
X0142090Y0236368I-000394J0000000D01*
G01*
X0137070Y0236368D01*
G75*
G02*
X0136676Y0236762I0000000J0000394D01*
G01*
G37*
G36*
G01*
X0136676Y0239321D02*
X0136676Y0240108D01*
G75*
G02*
X0137070Y0240502I0000394J0000000D01*
G01*
X0142090Y0240502D01*
G75*
G02*
X0142483Y0240108I0000000J-000394D01*
G01*
X0142483Y0239321D01*
G75*
G02*
X0142090Y0238927I-000394J0000000D01*
G01*
X0137070Y0238927D01*
G75*
G02*
X0136676Y0239321I0000000J0000394D01*
G01*
G37*
G36*
G01*
X0136676Y0241880D02*
X0136676Y0242667D01*
G75*
G02*
X0137070Y0243061I0000394J0000000D01*
G01*
X0142090Y0243061D01*
G75*
G02*
X0142483Y0242667I0000000J-000394D01*
G01*
X0142483Y0241880D01*
G75*
G02*
X0142090Y0241486I-000394J0000000D01*
G01*
X0137070Y0241486D01*
G75*
G02*
X0136676Y0241880I0000000J0000394D01*
G01*
G37*
G36*
G01*
X0159216Y0241880D02*
X0159216Y0242667D01*
G75*
G02*
X0159609Y0243061I0000394J0000000D01*
G01*
X0164629Y0243061D01*
G75*
G02*
X0165023Y0242667I0000000J-000394D01*
G01*
X0165023Y0241880D01*
G75*
G02*
X0164629Y0241486I-000394J0000000D01*
G01*
X0159609Y0241486D01*
G75*
G02*
X0159216Y0241880I0000000J0000394D01*
G01*
G37*
G36*
G01*
X0159216Y0239321D02*
X0159216Y0240108D01*
G75*
G02*
X0159609Y0240502I0000394J0000000D01*
G01*
X0164629Y0240502D01*
G75*
G02*
X0165023Y0240108I0000000J-000394D01*
G01*
X0165023Y0239321D01*
G75*
G02*
X0164629Y0238927I-000394J0000000D01*
G01*
X0159609Y0238927D01*
G75*
G02*
X0159216Y0239321I0000000J0000394D01*
G01*
G37*
G36*
G01*
X0159216Y0236762D02*
X0159216Y0237549D01*
G75*
G02*
X0159609Y0237943I0000394J0000000D01*
G01*
X0164629Y0237943D01*
G75*
G02*
X0165023Y0237549I0000000J-000394D01*
G01*
X0165023Y0236762D01*
G75*
G02*
X0164629Y0236368I-000394J0000000D01*
G01*
X0159609Y0236368D01*
G75*
G02*
X0159216Y0236762I0000000J0000394D01*
G01*
G37*
G36*
G01*
X0159216Y0234203D02*
X0159216Y0234990D01*
G75*
G02*
X0159609Y0235384I0000394J0000000D01*
G01*
X0164629Y0235384D01*
G75*
G02*
X0165023Y0234990I0000000J-000394D01*
G01*
X0165023Y0234203D01*
G75*
G02*
X0164629Y0233809I-000394J0000000D01*
G01*
X0159609Y0233809D01*
G75*
G02*
X0159216Y0234203I0000000J0000394D01*
G01*
G37*
G36*
G01*
X0159216Y0231644D02*
X0159216Y0232431D01*
G75*
G02*
X0159609Y0232825I0000394J0000000D01*
G01*
X0164629Y0232825D01*
G75*
G02*
X0165023Y0232431I0000000J-000394D01*
G01*
X0165023Y0231644D01*
G75*
G02*
X0164629Y0231250I-000394J0000000D01*
G01*
X0159609Y0231250D01*
G75*
G02*
X0159216Y0231644I0000000J0000394D01*
G01*
G37*
G36*
G01*
X0159216Y0229085D02*
X0159216Y0229872D01*
G75*
G02*
X0159609Y0230266I0000394J0000000D01*
G01*
X0164629Y0230266D01*
G75*
G02*
X0165023Y0229872I0000000J-000394D01*
G01*
X0165023Y0229085D01*
G75*
G02*
X0164629Y0228691I-000394J0000000D01*
G01*
X0159609Y0228691D01*
G75*
G02*
X0159216Y0229085I0000000J0000394D01*
G01*
G37*
G36*
G01*
X0159216Y0226525D02*
X0159216Y0227313D01*
G75*
G02*
X0159609Y0227707I0000394J0000000D01*
G01*
X0164629Y0227707D01*
G75*
G02*
X0165023Y0227313I0000000J-000394D01*
G01*
X0165023Y0226525D01*
G75*
G02*
X0164629Y0226132I-000394J0000000D01*
G01*
X0159609Y0226132D01*
G75*
G02*
X0159216Y0226525I0000000J0000394D01*
G01*
G37*
G36*
G01*
X0119033Y0234396D02*
X0119033Y0237939D01*
G75*
G02*
X0120017Y0238923I0000984J0000000D01*
G01*
X0122084Y0238923D01*
G75*
G02*
X0123068Y0237939I0000000J-000984D01*
G01*
X0123068Y0234396D01*
G75*
G02*
X0122084Y0233411I-000984J0000000D01*
G01*
X0120017Y0233411D01*
G75*
G02*
X0119033Y0234396I0000000J0000984D01*
G01*
G37*
G36*
G01*
X0126218Y0234396D02*
X0126218Y0237939D01*
G75*
G02*
X0127202Y0238923I0000984J0000000D01*
G01*
X0129269Y0238923D01*
G75*
G02*
X0130253Y0237939I0000000J-000984D01*
G01*
X0130253Y0234396D01*
G75*
G02*
X0129269Y0233411I-000984J0000000D01*
G01*
X0127202Y0233411D01*
G75*
G02*
X0126218Y0234396I0000000J0000984D01*
G01*
G37*
G36*
G01*
X0165276Y0248120D02*
X0165276Y0246663D01*
G75*
G02*
X0164744Y0246132I-000531J0000000D01*
G01*
X0163681Y0246132D01*
G75*
G02*
X0163150Y0246663I0000000J0000531D01*
G01*
X0163150Y0248120D01*
G75*
G02*
X0163681Y0248651I0000531J0000000D01*
G01*
X0164744Y0248651D01*
G75*
G02*
X0165276Y0248120I0000000J-000531D01*
G01*
G37*
G36*
G01*
X0161260Y0248120D02*
X0161260Y0246663D01*
G75*
G02*
X0160729Y0246132I-000531J0000000D01*
G01*
X0159666Y0246132D01*
G75*
G02*
X0159134Y0246663I0000000J0000531D01*
G01*
X0159134Y0248120D01*
G75*
G02*
X0159666Y0248651I0000531J0000000D01*
G01*
X0160729Y0248651D01*
G75*
G02*
X0161260Y0248120I0000000J-000531D01*
G01*
G37*
G36*
G01*
X0124843Y0259045D02*
X0124843Y0257707D01*
G75*
G02*
X0124292Y0257155I-000551J0000000D01*
G01*
X0123189Y0257155D01*
G75*
G02*
X0122638Y0257707I0000000J0000551D01*
G01*
X0122638Y0259045D01*
G75*
G02*
X0123189Y0259596I0000551J0000000D01*
G01*
X0124292Y0259596D01*
G75*
G02*
X0124843Y0259045I0000000J-000551D01*
G01*
G37*
G36*
G01*
X0121063Y0259045D02*
X0121063Y0257707D01*
G75*
G02*
X0120512Y0257155I-000551J0000000D01*
G01*
X0119410Y0257155D01*
G75*
G02*
X0118859Y0257707I0000000J0000551D01*
G01*
X0118859Y0259045D01*
G75*
G02*
X0119410Y0259596I0000551J0000000D01*
G01*
X0120512Y0259596D01*
G75*
G02*
X0121063Y0259045I0000000J-000551D01*
G01*
G37*
G36*
G01*
X0172953Y0251860D02*
X0172953Y0250403D01*
G75*
G02*
X0172422Y0249872I-000531J0000000D01*
G01*
X0171359Y0249872D01*
G75*
G02*
X0170827Y0250403I0000000J0000531D01*
G01*
X0170827Y0251860D01*
G75*
G02*
X0171359Y0252392I0000531J0000000D01*
G01*
X0172422Y0252392D01*
G75*
G02*
X0172953Y0251860I0000000J-000531D01*
G01*
G37*
G36*
G01*
X0168937Y0251860D02*
X0168937Y0250403D01*
G75*
G02*
X0168406Y0249872I-000531J0000000D01*
G01*
X0167343Y0249872D01*
G75*
G02*
X0166811Y0250403I0000000J0000531D01*
G01*
X0166811Y0251860D01*
G75*
G02*
X0167343Y0252392I0000531J0000000D01*
G01*
X0168406Y0252392D01*
G75*
G02*
X0168937Y0251860I0000000J-000531D01*
G01*
G37*
G36*
G01*
X0157020Y0248120D02*
X0157020Y0246664D01*
G75*
G02*
X0156488Y0246132I-000531J0000000D01*
G01*
X0155425Y0246132D01*
G75*
G02*
X0154894Y0246664I0000000J0000531D01*
G01*
X0154894Y0248120D01*
G75*
G02*
X0155425Y0248652I0000531J0000000D01*
G01*
X0156488Y0248652D01*
G75*
G02*
X0157020Y0248120I0000000J-000531D01*
G01*
G37*
G36*
G01*
X0153004Y0248120D02*
X0153004Y0246664D01*
G75*
G02*
X0152472Y0246132I-000531J0000000D01*
G01*
X0151409Y0246132D01*
G75*
G02*
X0150878Y0246664I0000000J0000531D01*
G01*
X0150878Y0248120D01*
G75*
G02*
X0151409Y0248652I0000531J0000000D01*
G01*
X0152472Y0248652D01*
G75*
G02*
X0153004Y0248120I0000000J-000531D01*
G01*
G37*
G36*
G01*
X0130253Y0230364D02*
X0130253Y0226821D01*
G75*
G02*
X0129269Y0225836I-000984J0000000D01*
G01*
X0127202Y0225836D01*
G75*
G02*
X0126218Y0226821I0000000J0000984D01*
G01*
X0126218Y0230364D01*
G75*
G02*
X0127202Y0231348I0000984J0000000D01*
G01*
X0129269Y0231348D01*
G75*
G02*
X0130253Y0230364I0000000J-000984D01*
G01*
G37*
G36*
G01*
X0123068Y0230364D02*
X0123068Y0226821D01*
G75*
G02*
X0122084Y0225836I-000984J0000000D01*
G01*
X0120017Y0225836D01*
G75*
G02*
X0119033Y0226821I0000000J0000984D01*
G01*
X0119033Y0230364D01*
G75*
G02*
X0120017Y0231348I0000984J0000000D01*
G01*
X0122084Y0231348D01*
G75*
G02*
X0123068Y0230364I0000000J-000984D01*
G01*
G37*
G36*
G01*
X0156969Y0259262D02*
X0156969Y0257805D01*
G75*
G02*
X0156437Y0257273I-000531J0000000D01*
G01*
X0155374Y0257273D01*
G75*
G02*
X0154843Y0257805I0000000J0000531D01*
G01*
X0154843Y0259262D01*
G75*
G02*
X0155374Y0259793I0000531J0000000D01*
G01*
X0156437Y0259793D01*
G75*
G02*
X0156969Y0259262I0000000J-000531D01*
G01*
G37*
G36*
G01*
X0152953Y0259262D02*
X0152953Y0257805D01*
G75*
G02*
X0152422Y0257273I-000531J0000000D01*
G01*
X0151359Y0257273D01*
G75*
G02*
X0150827Y0257805I0000000J0000531D01*
G01*
X0150827Y0259262D01*
G75*
G02*
X0151359Y0259793I0000531J0000000D01*
G01*
X0152422Y0259793D01*
G75*
G02*
X0152953Y0259262I0000000J-000531D01*
G01*
G37*
G36*
G01*
X0166654Y0225758D02*
X0166654Y0227214D01*
G75*
G02*
X0167185Y0227746I0000531J0000000D01*
G01*
X0168248Y0227746D01*
G75*
G02*
X0168780Y0227214I0000000J-000531D01*
G01*
X0168780Y0225758D01*
G75*
G02*
X0168248Y0225226I-000531J0000000D01*
G01*
X0167185Y0225226D01*
G75*
G02*
X0166654Y0225758I0000000J0000531D01*
G01*
G37*
G36*
G01*
X0170670Y0225758D02*
X0170670Y0227214D01*
G75*
G02*
X0171201Y0227746I0000531J0000000D01*
G01*
X0172264Y0227746D01*
G75*
G02*
X0172796Y0227214I0000000J-000531D01*
G01*
X0172796Y0225758D01*
G75*
G02*
X0172264Y0225226I-000531J0000000D01*
G01*
X0171201Y0225226D01*
G75*
G02*
X0170670Y0225758I0000000J0000531D01*
G01*
G37*
G36*
G01*
X0167107Y0237707D02*
X0167107Y0239163D01*
G75*
G02*
X0167638Y0239695I0000531J0000000D01*
G01*
X0168701Y0239695D01*
G75*
G02*
X0169233Y0239163I0000000J-000531D01*
G01*
X0169233Y0237707D01*
G75*
G02*
X0168701Y0237175I-000531J0000000D01*
G01*
X0167638Y0237175D01*
G75*
G02*
X0167107Y0237707I0000000J0000531D01*
G01*
G37*
G36*
G01*
X0171122Y0237707D02*
X0171122Y0239163D01*
G75*
G02*
X0171654Y0239695I0000531J0000000D01*
G01*
X0172717Y0239695D01*
G75*
G02*
X0173248Y0239163I0000000J-000531D01*
G01*
X0173248Y0237707D01*
G75*
G02*
X0172717Y0237175I-000531J0000000D01*
G01*
X0171654Y0237175D01*
G75*
G02*
X0171122Y0237707I0000000J0000531D01*
G01*
G37*
G36*
G01*
X0165571Y0251860D02*
X0165571Y0250403D01*
G75*
G02*
X0165040Y0249872I-000531J0000000D01*
G01*
X0163977Y0249872D01*
G75*
G02*
X0163445Y0250403I0000000J0000531D01*
G01*
X0163445Y0251860D01*
G75*
G02*
X0163977Y0252392I0000531J0000000D01*
G01*
X0165040Y0252392D01*
G75*
G02*
X0165571Y0251860I0000000J-000531D01*
G01*
G37*
G36*
G01*
X0161555Y0251860D02*
X0161555Y0250403D01*
G75*
G02*
X0161024Y0249872I-000531J0000000D01*
G01*
X0159961Y0249872D01*
G75*
G02*
X0159429Y0250403I0000000J0000531D01*
G01*
X0159429Y0251860D01*
G75*
G02*
X0159961Y0252392I0000531J0000000D01*
G01*
X0161024Y0252392D01*
G75*
G02*
X0161555Y0251860I0000000J-000531D01*
G01*
G37*
G36*
G01*
X0173268Y0242943D02*
X0173268Y0241604D01*
G75*
G02*
X0172717Y0241053I-000551J0000000D01*
G01*
X0171614Y0241053D01*
G75*
G02*
X0171063Y0241604I0000000J0000551D01*
G01*
X0171063Y0242943D01*
G75*
G02*
X0171614Y0243494I0000551J0000000D01*
G01*
X0172717Y0243494D01*
G75*
G02*
X0173268Y0242943I0000000J-000551D01*
G01*
G37*
G36*
G01*
X0169488Y0242943D02*
X0169488Y0241604D01*
G75*
G02*
X0168937Y0241053I-000551J0000000D01*
G01*
X0167835Y0241053D01*
G75*
G02*
X0167284Y0241604I0000000J0000551D01*
G01*
X0167284Y0242943D01*
G75*
G02*
X0167835Y0243494I0000551J0000000D01*
G01*
X0168937Y0243494D01*
G75*
G02*
X0169488Y0242943I0000000J-000551D01*
G01*
G37*
G36*
G01*
X0134120Y0232728D02*
X0132782Y0232728D01*
G75*
G02*
X0132230Y0233279I0000000J0000551D01*
G01*
X0132230Y0234381D01*
G75*
G02*
X0132782Y0234933I0000551J0000000D01*
G01*
X0134120Y0234933D01*
G75*
G02*
X0134671Y0234381I0000000J-000551D01*
G01*
X0134671Y0233279D01*
G75*
G02*
X0134120Y0232728I-000551J0000000D01*
G01*
G37*
G36*
G01*
X0134120Y0236507D02*
X0132782Y0236507D01*
G75*
G02*
X0132230Y0237058I0000000J0000551D01*
G01*
X0132230Y0238161D01*
G75*
G02*
X0132782Y0238712I0000551J0000000D01*
G01*
X0134120Y0238712D01*
G75*
G02*
X0134671Y0238161I0000000J-000551D01*
G01*
X0134671Y0237058D01*
G75*
G02*
X0134120Y0236507I-000551J0000000D01*
G01*
G37*
G36*
G01*
X0166614Y0246663D02*
X0166614Y0248120D01*
G75*
G02*
X0167146Y0248651I0000531J0000000D01*
G01*
X0168209Y0248651D01*
G75*
G02*
X0168740Y0248120I0000000J-000531D01*
G01*
X0168740Y0246663D01*
G75*
G02*
X0168209Y0246132I-000531J0000000D01*
G01*
X0167146Y0246132D01*
G75*
G02*
X0166614Y0246663I0000000J0000531D01*
G01*
G37*
G36*
G01*
X0170630Y0246663D02*
X0170630Y0248120D01*
G75*
G02*
X0171162Y0248651I0000531J0000000D01*
G01*
X0172225Y0248651D01*
G75*
G02*
X0172756Y0248120I0000000J-000531D01*
G01*
X0172756Y0246663D01*
G75*
G02*
X0172225Y0246132I-000531J0000000D01*
G01*
X0171162Y0246132D01*
G75*
G02*
X0170630Y0246663I0000000J0000531D01*
G01*
G37*
G36*
G01*
X0149213Y0258022D02*
X0149213Y0256840D01*
G75*
G02*
X0148622Y0256250I-000591J0000000D01*
G01*
X0144587Y0256250D01*
G75*
G02*
X0143996Y0256840I0000000J0000591D01*
G01*
X0143996Y0258022D01*
G75*
G02*
X0144587Y0258612I0000591J0000000D01*
G01*
X0148622Y0258612D01*
G75*
G02*
X0149213Y0258022I0000000J-000591D01*
G01*
G37*
G36*
G01*
X0149213Y0254281D02*
X0149213Y0253100D01*
G75*
G02*
X0148622Y0252510I-000591J0000000D01*
G01*
X0144587Y0252510D01*
G75*
G02*
X0143996Y0253100I0000000J0000591D01*
G01*
X0143996Y0254281D01*
G75*
G02*
X0144587Y0254872I0000591J0000000D01*
G01*
X0148622Y0254872D01*
G75*
G02*
X0149213Y0254281I0000000J-000591D01*
G01*
G37*
G36*
G01*
X0149213Y0250541D02*
X0149213Y0249360D01*
G75*
G02*
X0148622Y0248770I-000591J0000000D01*
G01*
X0144587Y0248770D01*
G75*
G02*
X0143996Y0249360I0000000J0000591D01*
G01*
X0143996Y0250541D01*
G75*
G02*
X0144587Y0251132I0000591J0000000D01*
G01*
X0148622Y0251132D01*
G75*
G02*
X0149213Y0250541I0000000J-000591D01*
G01*
G37*
G36*
G01*
X0140256Y0250541D02*
X0140256Y0249360D01*
G75*
G02*
X0139666Y0248770I-000591J0000000D01*
G01*
X0135630Y0248770D01*
G75*
G02*
X0135040Y0249360I0000000J0000591D01*
G01*
X0135040Y0250541D01*
G75*
G02*
X0135630Y0251132I0000591J0000000D01*
G01*
X0139666Y0251132D01*
G75*
G02*
X0140256Y0250541I0000000J-000591D01*
G01*
G37*
G36*
G01*
X0140256Y0258022D02*
X0140256Y0256840D01*
G75*
G02*
X0139666Y0256250I-000591J0000000D01*
G01*
X0135630Y0256250D01*
G75*
G02*
X0135040Y0256840I0000000J0000591D01*
G01*
X0135040Y0258022D01*
G75*
G02*
X0135630Y0258612I0000591J0000000D01*
G01*
X0139666Y0258612D01*
G75*
G02*
X0140256Y0258022I0000000J-000591D01*
G01*
G37*
G36*
G01*
X0150906Y0254203D02*
X0150906Y0255541D01*
G75*
G02*
X0151457Y0256092I0000551J0000000D01*
G01*
X0152559Y0256092D01*
G75*
G02*
X0153111Y0255541I0000000J-000551D01*
G01*
X0153111Y0254203D01*
G75*
G02*
X0152559Y0253651I-000551J0000000D01*
G01*
X0151457Y0253651D01*
G75*
G02*
X0150906Y0254203I0000000J0000551D01*
G01*
G37*
G36*
G01*
X0154685Y0254203D02*
X0154685Y0255541D01*
G75*
G02*
X0155236Y0256092I0000551J0000000D01*
G01*
X0156339Y0256092D01*
G75*
G02*
X0156890Y0255541I0000000J-000551D01*
G01*
X0156890Y0254203D01*
G75*
G02*
X0156339Y0253651I-000551J0000000D01*
G01*
X0155236Y0253651D01*
G75*
G02*
X0154685Y0254203I0000000J0000551D01*
G01*
G37*
X0361713Y0280413D02*
G01*
G75*
D120*
X0371949Y0244980D02*
D03*
X0368209Y0244980D02*
D03*
X0364469Y0244980D02*
D03*
X0368406Y0279232D02*
D03*
X0371949Y0279232D02*
D03*
D347*
X0371949Y0252460D02*
D03*
X0371949Y0248523D02*
D03*
X0371949Y0263583D02*
D03*
X0371949Y0267520D02*
D03*
X0371949Y0271949D02*
D03*
X0371949Y0275886D02*
D03*
X0364666Y0252460D02*
D03*
X0364666Y0248523D02*
D03*
D339*
X0364469Y0255845D02*
D03*
X0368012Y0255845D02*
D03*
D346*
X0371182Y0259730D02*
D03*
X0364961Y0259730D02*
D03*
D338*
X0368012Y0272342D02*
D03*
X0368012Y0275885D02*
D03*
X0364469Y0263976D02*
D03*
X0364469Y0267519D02*
D03*
X0368070Y0249114D02*
D03*
X0368070Y0252657D02*
D03*
X0364469Y0275885D02*
D03*
X0364469Y0272342D02*
D03*
M02*
