G04 #@! TF.GenerationSoftware,KiCad,Pcbnew,(6.0.1)*
G04 #@! TF.CreationDate,2022-03-14T23:01:45+02:00*
G04 #@! TF.ProjectId,alphax_4ch,616c7068-6178-45f3-9463-682e6b696361,a*
G04 #@! TF.SameCoordinates,PX141f5e0PYa2cace0*
G04 #@! TF.FileFunction,Paste,Top*
G04 #@! TF.FilePolarity,Positive*
%FSLAX46Y46*%
G04 Gerber Fmt 4.6, Leading zero omitted, Abs format (unit mm)*
G04 Created by KiCad (PCBNEW (6.0.1)) date 2022-03-14 23:01:45*
%MOMM*%
%LPD*%
G01*
G04 APERTURE LIST*
%ADD10R,2.750000X3.050000*%
%ADD11R,0.500000X2.000000*%
%ADD12R,2.000000X1.700000*%
%ADD13R,3.050000X2.750000*%
%ADD14R,1.950000X1.160000*%
%ADD15R,2.000000X0.650000*%
%ADD16O,0.000001X0.000001*%
%ADD17R,0.650000X1.310000*%
%ADD18R,0.600000X1.310000*%
%ADD19R,0.900000X0.795000*%
%ADD20R,1.300000X1.000000*%
%ADD21R,0.740000X2.400000*%
G04 APERTURE END LIST*
G04 #@! TO.C,D53*
G36*
G01*
X25110000Y74805000D02*
X24090000Y74805000D01*
G75*
G02*
X24000000Y74895000I0J90000D01*
G01*
X24000000Y75615000D01*
G75*
G02*
X24090000Y75705000I90000J0D01*
G01*
X25110000Y75705000D01*
G75*
G02*
X25200000Y75615000I0J-90000D01*
G01*
X25200000Y74895000D01*
G75*
G02*
X25110000Y74805000I-90000J0D01*
G01*
G37*
G36*
G01*
X25110000Y78105000D02*
X24090000Y78105000D01*
G75*
G02*
X24000000Y78195000I0J90000D01*
G01*
X24000000Y78915000D01*
G75*
G02*
X24090000Y79005000I90000J0D01*
G01*
X25110000Y79005000D01*
G75*
G02*
X25200000Y78915000I0J-90000D01*
G01*
X25200000Y78195000D01*
G75*
G02*
X25110000Y78105000I-90000J0D01*
G01*
G37*
G04 #@! TD*
G04 #@! TO.C,R8*
G36*
G01*
X77375000Y93699999D02*
X76125000Y93699999D01*
G75*
G02*
X76025000Y93799999I0J100000D01*
G01*
X76025000Y94599999D01*
G75*
G02*
X76125000Y94699999I100000J0D01*
G01*
X77375000Y94699999D01*
G75*
G02*
X77475000Y94599999I0J-100000D01*
G01*
X77475000Y93799999D01*
G75*
G02*
X77375000Y93699999I-100000J0D01*
G01*
G37*
G36*
G01*
X77375000Y95600021D02*
X76125000Y95600021D01*
G75*
G02*
X76025000Y95700021I0J100000D01*
G01*
X76025000Y96500021D01*
G75*
G02*
X76125000Y96600021I100000J0D01*
G01*
X77375000Y96600021D01*
G75*
G02*
X77475000Y96500021I0J-100000D01*
G01*
X77475000Y95700021D01*
G75*
G02*
X77375000Y95600021I-100000J0D01*
G01*
G37*
G04 #@! TD*
G04 #@! TO.C,R29*
G36*
G01*
X12610000Y53200010D02*
X13390000Y53200010D01*
G75*
G02*
X13460000Y53130010I0J-70000D01*
G01*
X13460000Y52570010D01*
G75*
G02*
X13390000Y52500010I-70000J0D01*
G01*
X12610000Y52500010D01*
G75*
G02*
X12540000Y52570010I0J70000D01*
G01*
X12540000Y53130010D01*
G75*
G02*
X12610000Y53200010I70000J0D01*
G01*
G37*
G36*
G01*
X12610000Y51600010D02*
X13390000Y51600010D01*
G75*
G02*
X13460000Y51530010I0J-70000D01*
G01*
X13460000Y50970010D01*
G75*
G02*
X13390000Y50900010I-70000J0D01*
G01*
X12610000Y50900010D01*
G75*
G02*
X12540000Y50970010I0J70000D01*
G01*
X12540000Y51530010D01*
G75*
G02*
X12610000Y51600010I70000J0D01*
G01*
G37*
G04 #@! TD*
G04 #@! TO.C,R90*
G36*
G01*
X25810000Y14900000D02*
X26590000Y14900000D01*
G75*
G02*
X26660000Y14830000I0J-70000D01*
G01*
X26660000Y14270000D01*
G75*
G02*
X26590000Y14200000I-70000J0D01*
G01*
X25810000Y14200000D01*
G75*
G02*
X25740000Y14270000I0J70000D01*
G01*
X25740000Y14830000D01*
G75*
G02*
X25810000Y14900000I70000J0D01*
G01*
G37*
G36*
G01*
X25810000Y13300000D02*
X26590000Y13300000D01*
G75*
G02*
X26660000Y13230000I0J-70000D01*
G01*
X26660000Y12670000D01*
G75*
G02*
X26590000Y12600000I-70000J0D01*
G01*
X25810000Y12600000D01*
G75*
G02*
X25740000Y12670000I0J70000D01*
G01*
X25740000Y13230000D01*
G75*
G02*
X25810000Y13300000I70000J0D01*
G01*
G37*
G04 #@! TD*
G04 #@! TO.C,R2*
G36*
G01*
X34600000Y56215000D02*
X34600000Y56885000D01*
G75*
G02*
X34665000Y56950000I65000J0D01*
G01*
X35185000Y56950000D01*
G75*
G02*
X35250000Y56885000I0J-65000D01*
G01*
X35250000Y56215000D01*
G75*
G02*
X35185000Y56150000I-65000J0D01*
G01*
X34665000Y56150000D01*
G75*
G02*
X34600000Y56215000I0J65000D01*
G01*
G37*
G36*
G01*
X35575000Y56195000D02*
X35575000Y56905000D01*
G75*
G02*
X35620000Y56950000I45000J0D01*
G01*
X35980000Y56950000D01*
G75*
G02*
X36025000Y56905000I0J-45000D01*
G01*
X36025000Y56195000D01*
G75*
G02*
X35980000Y56150000I-45000J0D01*
G01*
X35620000Y56150000D01*
G75*
G02*
X35575000Y56195000I0J45000D01*
G01*
G37*
G36*
G01*
X36375000Y56195000D02*
X36375000Y56905000D01*
G75*
G02*
X36420000Y56950000I45000J0D01*
G01*
X36780000Y56950000D01*
G75*
G02*
X36825000Y56905000I0J-45000D01*
G01*
X36825000Y56195000D01*
G75*
G02*
X36780000Y56150000I-45000J0D01*
G01*
X36420000Y56150000D01*
G75*
G02*
X36375000Y56195000I0J45000D01*
G01*
G37*
G36*
G01*
X37150000Y56215000D02*
X37150000Y56885000D01*
G75*
G02*
X37215000Y56950000I65000J0D01*
G01*
X37735000Y56950000D01*
G75*
G02*
X37800000Y56885000I0J-65000D01*
G01*
X37800000Y56215000D01*
G75*
G02*
X37735000Y56150000I-65000J0D01*
G01*
X37215000Y56150000D01*
G75*
G02*
X37150000Y56215000I0J65000D01*
G01*
G37*
G36*
G01*
X37150000Y58015000D02*
X37150000Y58685000D01*
G75*
G02*
X37215000Y58750000I65000J0D01*
G01*
X37735000Y58750000D01*
G75*
G02*
X37800000Y58685000I0J-65000D01*
G01*
X37800000Y58015000D01*
G75*
G02*
X37735000Y57950000I-65000J0D01*
G01*
X37215000Y57950000D01*
G75*
G02*
X37150000Y58015000I0J65000D01*
G01*
G37*
G36*
G01*
X36375000Y57995000D02*
X36375000Y58705000D01*
G75*
G02*
X36420000Y58750000I45000J0D01*
G01*
X36780000Y58750000D01*
G75*
G02*
X36825000Y58705000I0J-45000D01*
G01*
X36825000Y57995000D01*
G75*
G02*
X36780000Y57950000I-45000J0D01*
G01*
X36420000Y57950000D01*
G75*
G02*
X36375000Y57995000I0J45000D01*
G01*
G37*
G36*
G01*
X35575000Y57995000D02*
X35575000Y58705000D01*
G75*
G02*
X35620000Y58750000I45000J0D01*
G01*
X35980000Y58750000D01*
G75*
G02*
X36025000Y58705000I0J-45000D01*
G01*
X36025000Y57995000D01*
G75*
G02*
X35980000Y57950000I-45000J0D01*
G01*
X35620000Y57950000D01*
G75*
G02*
X35575000Y57995000I0J45000D01*
G01*
G37*
G36*
G01*
X34600000Y58015000D02*
X34600000Y58685000D01*
G75*
G02*
X34665000Y58750000I65000J0D01*
G01*
X35185000Y58750000D01*
G75*
G02*
X35250000Y58685000I0J-65000D01*
G01*
X35250000Y58015000D01*
G75*
G02*
X35185000Y57950000I-65000J0D01*
G01*
X34665000Y57950000D01*
G75*
G02*
X34600000Y58015000I0J65000D01*
G01*
G37*
G04 #@! TD*
G04 #@! TO.C,D36*
G36*
G01*
X50649999Y64649998D02*
X50649999Y63749998D01*
G75*
G02*
X50549999Y63649998I-100000J0D01*
G01*
X49749999Y63649998D01*
G75*
G02*
X49649999Y63749998I0J100000D01*
G01*
X49649999Y64649998D01*
G75*
G02*
X49749999Y64749998I100000J0D01*
G01*
X50549999Y64749998D01*
G75*
G02*
X50649999Y64649998I0J-100000D01*
G01*
G37*
G36*
G01*
X48949999Y64649998D02*
X48949999Y63749998D01*
G75*
G02*
X48849999Y63649998I-100000J0D01*
G01*
X48049999Y63649998D01*
G75*
G02*
X47949999Y63749998I0J100000D01*
G01*
X47949999Y64649998D01*
G75*
G02*
X48049999Y64749998I100000J0D01*
G01*
X48849999Y64749998D01*
G75*
G02*
X48949999Y64649998I0J-100000D01*
G01*
G37*
G04 #@! TD*
G04 #@! TO.C,R4*
G36*
G01*
X54685000Y66700000D02*
X54015000Y66700000D01*
G75*
G02*
X53950000Y66765000I0J65000D01*
G01*
X53950000Y67285000D01*
G75*
G02*
X54015000Y67350000I65000J0D01*
G01*
X54685000Y67350000D01*
G75*
G02*
X54750000Y67285000I0J-65000D01*
G01*
X54750000Y66765000D01*
G75*
G02*
X54685000Y66700000I-65000J0D01*
G01*
G37*
G36*
G01*
X54705000Y67675000D02*
X53995000Y67675000D01*
G75*
G02*
X53950000Y67720000I0J45000D01*
G01*
X53950000Y68080000D01*
G75*
G02*
X53995000Y68125000I45000J0D01*
G01*
X54705000Y68125000D01*
G75*
G02*
X54750000Y68080000I0J-45000D01*
G01*
X54750000Y67720000D01*
G75*
G02*
X54705000Y67675000I-45000J0D01*
G01*
G37*
G36*
G01*
X54705000Y68475000D02*
X53995000Y68475000D01*
G75*
G02*
X53950000Y68520000I0J45000D01*
G01*
X53950000Y68880000D01*
G75*
G02*
X53995000Y68925000I45000J0D01*
G01*
X54705000Y68925000D01*
G75*
G02*
X54750000Y68880000I0J-45000D01*
G01*
X54750000Y68520000D01*
G75*
G02*
X54705000Y68475000I-45000J0D01*
G01*
G37*
G36*
G01*
X54685000Y69250000D02*
X54015000Y69250000D01*
G75*
G02*
X53950000Y69315000I0J65000D01*
G01*
X53950000Y69835000D01*
G75*
G02*
X54015000Y69900000I65000J0D01*
G01*
X54685000Y69900000D01*
G75*
G02*
X54750000Y69835000I0J-65000D01*
G01*
X54750000Y69315000D01*
G75*
G02*
X54685000Y69250000I-65000J0D01*
G01*
G37*
G36*
G01*
X52885000Y69250000D02*
X52215000Y69250000D01*
G75*
G02*
X52150000Y69315000I0J65000D01*
G01*
X52150000Y69835000D01*
G75*
G02*
X52215000Y69900000I65000J0D01*
G01*
X52885000Y69900000D01*
G75*
G02*
X52950000Y69835000I0J-65000D01*
G01*
X52950000Y69315000D01*
G75*
G02*
X52885000Y69250000I-65000J0D01*
G01*
G37*
G36*
G01*
X52905000Y68475000D02*
X52195000Y68475000D01*
G75*
G02*
X52150000Y68520000I0J45000D01*
G01*
X52150000Y68880000D01*
G75*
G02*
X52195000Y68925000I45000J0D01*
G01*
X52905000Y68925000D01*
G75*
G02*
X52950000Y68880000I0J-45000D01*
G01*
X52950000Y68520000D01*
G75*
G02*
X52905000Y68475000I-45000J0D01*
G01*
G37*
G36*
G01*
X52905000Y67675000D02*
X52195000Y67675000D01*
G75*
G02*
X52150000Y67720000I0J45000D01*
G01*
X52150000Y68080000D01*
G75*
G02*
X52195000Y68125000I45000J0D01*
G01*
X52905000Y68125000D01*
G75*
G02*
X52950000Y68080000I0J-45000D01*
G01*
X52950000Y67720000D01*
G75*
G02*
X52905000Y67675000I-45000J0D01*
G01*
G37*
G36*
G01*
X52885000Y66700000D02*
X52215000Y66700000D01*
G75*
G02*
X52150000Y66765000I0J65000D01*
G01*
X52150000Y67285000D01*
G75*
G02*
X52215000Y67350000I65000J0D01*
G01*
X52885000Y67350000D01*
G75*
G02*
X52950000Y67285000I0J-65000D01*
G01*
X52950000Y66765000D01*
G75*
G02*
X52885000Y66700000I-65000J0D01*
G01*
G37*
G04 #@! TD*
G04 #@! TO.C,D30*
G36*
G01*
X67450000Y75111499D02*
X67450000Y75591499D01*
G75*
G02*
X67510000Y75651499I60000J0D01*
G01*
X67990000Y75651499D01*
G75*
G02*
X68050000Y75591499I0J-60000D01*
G01*
X68050000Y75111499D01*
G75*
G02*
X67990000Y75051499I-60000J0D01*
G01*
X67510000Y75051499D01*
G75*
G02*
X67450000Y75111499I0J60000D01*
G01*
G37*
G36*
G01*
X67450000Y77311499D02*
X67450000Y77791499D01*
G75*
G02*
X67510000Y77851499I60000J0D01*
G01*
X67990000Y77851499D01*
G75*
G02*
X68050000Y77791499I0J-60000D01*
G01*
X68050000Y77311499D01*
G75*
G02*
X67990000Y77251499I-60000J0D01*
G01*
X67510000Y77251499D01*
G75*
G02*
X67450000Y77311499I0J60000D01*
G01*
G37*
G04 #@! TD*
G04 #@! TO.C,C3*
G36*
G01*
X23710000Y26265001D02*
X24390000Y26265001D01*
G75*
G02*
X24475000Y26180001I0J-85000D01*
G01*
X24475000Y25500001D01*
G75*
G02*
X24390000Y25415001I-85000J0D01*
G01*
X23710000Y25415001D01*
G75*
G02*
X23625000Y25500001I0J85000D01*
G01*
X23625000Y26180001D01*
G75*
G02*
X23710000Y26265001I85000J0D01*
G01*
G37*
G36*
G01*
X23710000Y24684999D02*
X24390000Y24684999D01*
G75*
G02*
X24475000Y24599999I0J-85000D01*
G01*
X24475000Y23919999D01*
G75*
G02*
X24390000Y23834999I-85000J0D01*
G01*
X23710000Y23834999D01*
G75*
G02*
X23625000Y23919999I0J85000D01*
G01*
X23625000Y24599999D01*
G75*
G02*
X23710000Y24684999I85000J0D01*
G01*
G37*
G04 #@! TD*
G04 #@! TO.C,D46*
G36*
G01*
X31650000Y69290000D02*
X31650000Y68810000D01*
G75*
G02*
X31590000Y68750000I-60000J0D01*
G01*
X31110000Y68750000D01*
G75*
G02*
X31050000Y68810000I0J60000D01*
G01*
X31050000Y69290000D01*
G75*
G02*
X31110000Y69350000I60000J0D01*
G01*
X31590000Y69350000D01*
G75*
G02*
X31650000Y69290000I0J-60000D01*
G01*
G37*
G36*
G01*
X31650000Y67090000D02*
X31650000Y66610000D01*
G75*
G02*
X31590000Y66550000I-60000J0D01*
G01*
X31110000Y66550000D01*
G75*
G02*
X31050000Y66610000I0J60000D01*
G01*
X31050000Y67090000D01*
G75*
G02*
X31110000Y67150000I60000J0D01*
G01*
X31590000Y67150000D01*
G75*
G02*
X31650000Y67090000I0J-60000D01*
G01*
G37*
G04 #@! TD*
G04 #@! TO.C,R87*
G36*
G01*
X58310000Y61850000D02*
X59090000Y61850000D01*
G75*
G02*
X59160000Y61780000I0J-70000D01*
G01*
X59160000Y61220000D01*
G75*
G02*
X59090000Y61150000I-70000J0D01*
G01*
X58310000Y61150000D01*
G75*
G02*
X58240000Y61220000I0J70000D01*
G01*
X58240000Y61780000D01*
G75*
G02*
X58310000Y61850000I70000J0D01*
G01*
G37*
G36*
G01*
X58310000Y60250000D02*
X59090000Y60250000D01*
G75*
G02*
X59160000Y60180000I0J-70000D01*
G01*
X59160000Y59620000D01*
G75*
G02*
X59090000Y59550000I-70000J0D01*
G01*
X58310000Y59550000D01*
G75*
G02*
X58240000Y59620000I0J70000D01*
G01*
X58240000Y60180000D01*
G75*
G02*
X58310000Y60250000I70000J0D01*
G01*
G37*
G04 #@! TD*
G04 #@! TO.C,D34*
G36*
G01*
X40649999Y64749998D02*
X40649999Y63849998D01*
G75*
G02*
X40549999Y63749998I-100000J0D01*
G01*
X39749999Y63749998D01*
G75*
G02*
X39649999Y63849998I0J100000D01*
G01*
X39649999Y64749998D01*
G75*
G02*
X39749999Y64849998I100000J0D01*
G01*
X40549999Y64849998D01*
G75*
G02*
X40649999Y64749998I0J-100000D01*
G01*
G37*
G36*
G01*
X38949999Y64749998D02*
X38949999Y63849998D01*
G75*
G02*
X38849999Y63749998I-100000J0D01*
G01*
X38049999Y63749998D01*
G75*
G02*
X37949999Y63849998I0J100000D01*
G01*
X37949999Y64749998D01*
G75*
G02*
X38049999Y64849998I100000J0D01*
G01*
X38849999Y64849998D01*
G75*
G02*
X38949999Y64749998I0J-100000D01*
G01*
G37*
G04 #@! TD*
G04 #@! TO.C,R59*
G36*
G01*
X44575000Y97050001D02*
X45825000Y97050001D01*
G75*
G02*
X45925000Y96950001I0J-100000D01*
G01*
X45925000Y96150001D01*
G75*
G02*
X45825000Y96050001I-100000J0D01*
G01*
X44575000Y96050001D01*
G75*
G02*
X44475000Y96150001I0J100000D01*
G01*
X44475000Y96950001D01*
G75*
G02*
X44575000Y97050001I100000J0D01*
G01*
G37*
G36*
G01*
X44575000Y95149979D02*
X45825000Y95149979D01*
G75*
G02*
X45925000Y95049979I0J-100000D01*
G01*
X45925000Y94249979D01*
G75*
G02*
X45825000Y94149979I-100000J0D01*
G01*
X44575000Y94149979D01*
G75*
G02*
X44475000Y94249979I0J100000D01*
G01*
X44475000Y95049979D01*
G75*
G02*
X44575000Y95149979I100000J0D01*
G01*
G37*
G04 #@! TD*
G04 #@! TO.C,R9*
G36*
G01*
X75425000Y93699999D02*
X74175000Y93699999D01*
G75*
G02*
X74075000Y93799999I0J100000D01*
G01*
X74075000Y94599999D01*
G75*
G02*
X74175000Y94699999I100000J0D01*
G01*
X75425000Y94699999D01*
G75*
G02*
X75525000Y94599999I0J-100000D01*
G01*
X75525000Y93799999D01*
G75*
G02*
X75425000Y93699999I-100000J0D01*
G01*
G37*
G36*
G01*
X75425000Y95600021D02*
X74175000Y95600021D01*
G75*
G02*
X74075000Y95700021I0J100000D01*
G01*
X74075000Y96500021D01*
G75*
G02*
X74175000Y96600021I100000J0D01*
G01*
X75425000Y96600021D01*
G75*
G02*
X75525000Y96500021I0J-100000D01*
G01*
X75525000Y95700021D01*
G75*
G02*
X75425000Y95600021I-100000J0D01*
G01*
G37*
G04 #@! TD*
G04 #@! TO.C,R68*
G36*
G01*
X24825000Y94149999D02*
X23575000Y94149999D01*
G75*
G02*
X23475000Y94249999I0J100000D01*
G01*
X23475000Y95049999D01*
G75*
G02*
X23575000Y95149999I100000J0D01*
G01*
X24825000Y95149999D01*
G75*
G02*
X24925000Y95049999I0J-100000D01*
G01*
X24925000Y94249999D01*
G75*
G02*
X24825000Y94149999I-100000J0D01*
G01*
G37*
G36*
G01*
X24825000Y96050021D02*
X23575000Y96050021D01*
G75*
G02*
X23475000Y96150021I0J100000D01*
G01*
X23475000Y96950021D01*
G75*
G02*
X23575000Y97050021I100000J0D01*
G01*
X24825000Y97050021D01*
G75*
G02*
X24925000Y96950021I0J-100000D01*
G01*
X24925000Y96150021D01*
G75*
G02*
X24825000Y96050021I-100000J0D01*
G01*
G37*
G04 #@! TD*
G04 #@! TO.C,R82*
G36*
G01*
X58410000Y69650000D02*
X59190000Y69650000D01*
G75*
G02*
X59260000Y69580000I0J-70000D01*
G01*
X59260000Y69020000D01*
G75*
G02*
X59190000Y68950000I-70000J0D01*
G01*
X58410000Y68950000D01*
G75*
G02*
X58340000Y69020000I0J70000D01*
G01*
X58340000Y69580000D01*
G75*
G02*
X58410000Y69650000I70000J0D01*
G01*
G37*
G36*
G01*
X58410000Y68050000D02*
X59190000Y68050000D01*
G75*
G02*
X59260000Y67980000I0J-70000D01*
G01*
X59260000Y67420000D01*
G75*
G02*
X59190000Y67350000I-70000J0D01*
G01*
X58410000Y67350000D01*
G75*
G02*
X58340000Y67420000I0J70000D01*
G01*
X58340000Y67980000D01*
G75*
G02*
X58410000Y68050000I70000J0D01*
G01*
G37*
G04 #@! TD*
G04 #@! TO.C,D49*
G36*
G01*
X31575000Y88850000D02*
X31575000Y89150000D01*
G75*
G02*
X31725000Y89300000I150000J0D01*
G01*
X32900000Y89300000D01*
G75*
G02*
X33050000Y89150000I0J-150000D01*
G01*
X33050000Y88850000D01*
G75*
G02*
X32900000Y88700000I-150000J0D01*
G01*
X31725000Y88700000D01*
G75*
G02*
X31575000Y88850000I0J150000D01*
G01*
G37*
G36*
G01*
X33450000Y87900000D02*
X33450000Y88200000D01*
G75*
G02*
X33600000Y88350000I150000J0D01*
G01*
X34775000Y88350000D01*
G75*
G02*
X34925000Y88200000I0J-150000D01*
G01*
X34925000Y87900000D01*
G75*
G02*
X34775000Y87750000I-150000J0D01*
G01*
X33600000Y87750000D01*
G75*
G02*
X33450000Y87900000I0J150000D01*
G01*
G37*
G36*
G01*
X31575000Y86950000D02*
X31575000Y87250000D01*
G75*
G02*
X31725000Y87400000I150000J0D01*
G01*
X32900000Y87400000D01*
G75*
G02*
X33050000Y87250000I0J-150000D01*
G01*
X33050000Y86950000D01*
G75*
G02*
X32900000Y86800000I-150000J0D01*
G01*
X31725000Y86800000D01*
G75*
G02*
X31575000Y86950000I0J150000D01*
G01*
G37*
G04 #@! TD*
G04 #@! TO.C,F4*
G36*
G01*
X63050000Y95655010D02*
X63050000Y96345010D01*
G75*
G02*
X63280000Y96575010I230000J0D01*
G01*
X64620000Y96575010D01*
G75*
G02*
X64850000Y96345010I0J-230000D01*
G01*
X64850000Y95655010D01*
G75*
G02*
X64620000Y95425010I-230000J0D01*
G01*
X63280000Y95425010D01*
G75*
G02*
X63050000Y95655010I0J230000D01*
G01*
G37*
G36*
G01*
X63050000Y92754990D02*
X63050000Y93444990D01*
G75*
G02*
X63280000Y93674990I230000J0D01*
G01*
X64620000Y93674990D01*
G75*
G02*
X64850000Y93444990I0J-230000D01*
G01*
X64850000Y92754990D01*
G75*
G02*
X64620000Y92524990I-230000J0D01*
G01*
X63280000Y92524990D01*
G75*
G02*
X63050000Y92754990I0J230000D01*
G01*
G37*
G04 #@! TD*
G04 #@! TO.C,Q13*
G36*
G01*
X47910000Y55975000D02*
X47610000Y55975000D01*
G75*
G02*
X47460000Y56125000I0J150000D01*
G01*
X47460000Y57300000D01*
G75*
G02*
X47610000Y57450000I150000J0D01*
G01*
X47910000Y57450000D01*
G75*
G02*
X48060000Y57300000I0J-150000D01*
G01*
X48060000Y56125000D01*
G75*
G02*
X47910000Y55975000I-150000J0D01*
G01*
G37*
G36*
G01*
X48860000Y57850000D02*
X48560000Y57850000D01*
G75*
G02*
X48410000Y58000000I0J150000D01*
G01*
X48410000Y59175000D01*
G75*
G02*
X48560000Y59325000I150000J0D01*
G01*
X48860000Y59325000D01*
G75*
G02*
X49010000Y59175000I0J-150000D01*
G01*
X49010000Y58000000D01*
G75*
G02*
X48860000Y57850000I-150000J0D01*
G01*
G37*
G36*
G01*
X49810000Y55975000D02*
X49510000Y55975000D01*
G75*
G02*
X49360000Y56125000I0J150000D01*
G01*
X49360000Y57300000D01*
G75*
G02*
X49510000Y57450000I150000J0D01*
G01*
X49810000Y57450000D01*
G75*
G02*
X49960000Y57300000I0J-150000D01*
G01*
X49960000Y56125000D01*
G75*
G02*
X49810000Y55975000I-150000J0D01*
G01*
G37*
G04 #@! TD*
G04 #@! TO.C,D1*
G36*
G01*
X67650000Y70710000D02*
X67650000Y71190000D01*
G75*
G02*
X67710000Y71250000I60000J0D01*
G01*
X68190000Y71250000D01*
G75*
G02*
X68250000Y71190000I0J-60000D01*
G01*
X68250000Y70710000D01*
G75*
G02*
X68190000Y70650000I-60000J0D01*
G01*
X67710000Y70650000D01*
G75*
G02*
X67650000Y70710000I0J60000D01*
G01*
G37*
G36*
G01*
X67650000Y72910000D02*
X67650000Y73390000D01*
G75*
G02*
X67710000Y73450000I60000J0D01*
G01*
X68190000Y73450000D01*
G75*
G02*
X68250000Y73390000I0J-60000D01*
G01*
X68250000Y72910000D01*
G75*
G02*
X68190000Y72850000I-60000J0D01*
G01*
X67710000Y72850000D01*
G75*
G02*
X67650000Y72910000I0J60000D01*
G01*
G37*
G04 #@! TD*
G04 #@! TO.C,D15*
G36*
G01*
X40499999Y76499998D02*
X40499999Y75599998D01*
G75*
G02*
X40399999Y75499998I-100000J0D01*
G01*
X39599999Y75499998D01*
G75*
G02*
X39499999Y75599998I0J100000D01*
G01*
X39499999Y76499998D01*
G75*
G02*
X39599999Y76599998I100000J0D01*
G01*
X40399999Y76599998D01*
G75*
G02*
X40499999Y76499998I0J-100000D01*
G01*
G37*
G36*
G01*
X38799999Y76499998D02*
X38799999Y75599998D01*
G75*
G02*
X38699999Y75499998I-100000J0D01*
G01*
X37899999Y75499998D01*
G75*
G02*
X37799999Y75599998I0J100000D01*
G01*
X37799999Y76499998D01*
G75*
G02*
X37899999Y76599998I100000J0D01*
G01*
X38699999Y76599998D01*
G75*
G02*
X38799999Y76499998I0J-100000D01*
G01*
G37*
G04 #@! TD*
G04 #@! TO.C,C1*
G36*
G01*
X58860000Y84765001D02*
X59540000Y84765001D01*
G75*
G02*
X59625000Y84680001I0J-85000D01*
G01*
X59625000Y84000001D01*
G75*
G02*
X59540000Y83915001I-85000J0D01*
G01*
X58860000Y83915001D01*
G75*
G02*
X58775000Y84000001I0J85000D01*
G01*
X58775000Y84680001D01*
G75*
G02*
X58860000Y84765001I85000J0D01*
G01*
G37*
G36*
G01*
X58860000Y83184999D02*
X59540000Y83184999D01*
G75*
G02*
X59625000Y83099999I0J-85000D01*
G01*
X59625000Y82419999D01*
G75*
G02*
X59540000Y82334999I-85000J0D01*
G01*
X58860000Y82334999D01*
G75*
G02*
X58775000Y82419999I0J85000D01*
G01*
X58775000Y83099999D01*
G75*
G02*
X58860000Y83184999I85000J0D01*
G01*
G37*
G04 #@! TD*
D10*
G04 #@! TO.C,Q29*
X28725000Y85675000D03*
X25675000Y85675000D03*
X25675000Y89025000D03*
X28725000Y89025000D03*
G36*
G01*
X25400000Y79950000D02*
X24440000Y79950000D01*
G75*
G02*
X24320000Y80070000I0J120000D01*
G01*
X24320000Y82030000D01*
G75*
G02*
X24440000Y82150000I120000J0D01*
G01*
X25400000Y82150000D01*
G75*
G02*
X25520000Y82030000I0J-120000D01*
G01*
X25520000Y80070000D01*
G75*
G02*
X25400000Y79950000I-120000J0D01*
G01*
G37*
G36*
G01*
X29960000Y79950000D02*
X29000000Y79950000D01*
G75*
G02*
X28880000Y80070000I0J120000D01*
G01*
X28880000Y82030000D01*
G75*
G02*
X29000000Y82150000I120000J0D01*
G01*
X29960000Y82150000D01*
G75*
G02*
X30080000Y82030000I0J-120000D01*
G01*
X30080000Y80070000D01*
G75*
G02*
X29960000Y79950000I-120000J0D01*
G01*
G37*
G04 #@! TD*
G04 #@! TO.C,S1*
G36*
G01*
X64950001Y2770000D02*
X64950001Y930000D01*
G75*
G02*
X64870001Y850000I-80000J0D01*
G01*
X64230001Y850000D01*
G75*
G02*
X64150001Y930000I0J80000D01*
G01*
X64150001Y2770000D01*
G75*
G02*
X64230001Y2850000I80000J0D01*
G01*
X64870001Y2850000D01*
G75*
G02*
X64950001Y2770000I0J-80000D01*
G01*
G37*
G36*
G01*
X60750000Y2770000D02*
X60750000Y930000D01*
G75*
G02*
X60670000Y850000I-80000J0D01*
G01*
X60030000Y850000D01*
G75*
G02*
X59950000Y930000I0J80000D01*
G01*
X59950000Y2770000D01*
G75*
G02*
X60030000Y2850000I80000J0D01*
G01*
X60670000Y2850000D01*
G75*
G02*
X60750000Y2770000I0J-80000D01*
G01*
G37*
G04 #@! TD*
G04 #@! TO.C,D6*
G36*
G01*
X41750000Y70810000D02*
X41750000Y71290000D01*
G75*
G02*
X41810000Y71350000I60000J0D01*
G01*
X42290000Y71350000D01*
G75*
G02*
X42350000Y71290000I0J-60000D01*
G01*
X42350000Y70810000D01*
G75*
G02*
X42290000Y70750000I-60000J0D01*
G01*
X41810000Y70750000D01*
G75*
G02*
X41750000Y70810000I0J60000D01*
G01*
G37*
G36*
G01*
X41750000Y73010000D02*
X41750000Y73490000D01*
G75*
G02*
X41810000Y73550000I60000J0D01*
G01*
X42290000Y73550000D01*
G75*
G02*
X42350000Y73490000I0J-60000D01*
G01*
X42350000Y73010000D01*
G75*
G02*
X42290000Y72950000I-60000J0D01*
G01*
X41810000Y72950000D01*
G75*
G02*
X41750000Y73010000I0J60000D01*
G01*
G37*
G04 #@! TD*
G04 #@! TO.C,C4*
G36*
G01*
X47015001Y6490000D02*
X47015001Y5810000D01*
G75*
G02*
X46930001Y5725000I-85000J0D01*
G01*
X46250001Y5725000D01*
G75*
G02*
X46165001Y5810000I0J85000D01*
G01*
X46165001Y6490000D01*
G75*
G02*
X46250001Y6575000I85000J0D01*
G01*
X46930001Y6575000D01*
G75*
G02*
X47015001Y6490000I0J-85000D01*
G01*
G37*
G36*
G01*
X45434999Y6490000D02*
X45434999Y5810000D01*
G75*
G02*
X45349999Y5725000I-85000J0D01*
G01*
X44669999Y5725000D01*
G75*
G02*
X44584999Y5810000I0J85000D01*
G01*
X44584999Y6490000D01*
G75*
G02*
X44669999Y6575000I85000J0D01*
G01*
X45349999Y6575000D01*
G75*
G02*
X45434999Y6490000I0J-85000D01*
G01*
G37*
G04 #@! TD*
G04 #@! TO.C,Q1*
G36*
G01*
X2450000Y29675010D02*
X2150000Y29675010D01*
G75*
G02*
X2000000Y29825010I0J150000D01*
G01*
X2000000Y31000010D01*
G75*
G02*
X2150000Y31150010I150000J0D01*
G01*
X2450000Y31150010D01*
G75*
G02*
X2600000Y31000010I0J-150000D01*
G01*
X2600000Y29825010D01*
G75*
G02*
X2450000Y29675010I-150000J0D01*
G01*
G37*
G36*
G01*
X3400000Y31550010D02*
X3100000Y31550010D01*
G75*
G02*
X2950000Y31700010I0J150000D01*
G01*
X2950000Y32875010D01*
G75*
G02*
X3100000Y33025010I150000J0D01*
G01*
X3400000Y33025010D01*
G75*
G02*
X3550000Y32875010I0J-150000D01*
G01*
X3550000Y31700010D01*
G75*
G02*
X3400000Y31550010I-150000J0D01*
G01*
G37*
G36*
G01*
X4350000Y29675010D02*
X4050000Y29675010D01*
G75*
G02*
X3900000Y29825010I0J150000D01*
G01*
X3900000Y31000010D01*
G75*
G02*
X4050000Y31150010I150000J0D01*
G01*
X4350000Y31150010D01*
G75*
G02*
X4500000Y31000010I0J-150000D01*
G01*
X4500000Y29825010D01*
G75*
G02*
X4350000Y29675010I-150000J0D01*
G01*
G37*
G04 #@! TD*
G04 #@! TO.C,R50*
G36*
G01*
X34350000Y59315000D02*
X34350000Y59985000D01*
G75*
G02*
X34415000Y60050000I65000J0D01*
G01*
X34935000Y60050000D01*
G75*
G02*
X35000000Y59985000I0J-65000D01*
G01*
X35000000Y59315000D01*
G75*
G02*
X34935000Y59250000I-65000J0D01*
G01*
X34415000Y59250000D01*
G75*
G02*
X34350000Y59315000I0J65000D01*
G01*
G37*
G36*
G01*
X35325000Y59295000D02*
X35325000Y60005000D01*
G75*
G02*
X35370000Y60050000I45000J0D01*
G01*
X35730000Y60050000D01*
G75*
G02*
X35775000Y60005000I0J-45000D01*
G01*
X35775000Y59295000D01*
G75*
G02*
X35730000Y59250000I-45000J0D01*
G01*
X35370000Y59250000D01*
G75*
G02*
X35325000Y59295000I0J45000D01*
G01*
G37*
G36*
G01*
X36125000Y59295000D02*
X36125000Y60005000D01*
G75*
G02*
X36170000Y60050000I45000J0D01*
G01*
X36530000Y60050000D01*
G75*
G02*
X36575000Y60005000I0J-45000D01*
G01*
X36575000Y59295000D01*
G75*
G02*
X36530000Y59250000I-45000J0D01*
G01*
X36170000Y59250000D01*
G75*
G02*
X36125000Y59295000I0J45000D01*
G01*
G37*
G36*
G01*
X36900000Y59315000D02*
X36900000Y59985000D01*
G75*
G02*
X36965000Y60050000I65000J0D01*
G01*
X37485000Y60050000D01*
G75*
G02*
X37550000Y59985000I0J-65000D01*
G01*
X37550000Y59315000D01*
G75*
G02*
X37485000Y59250000I-65000J0D01*
G01*
X36965000Y59250000D01*
G75*
G02*
X36900000Y59315000I0J65000D01*
G01*
G37*
G36*
G01*
X36900000Y61115000D02*
X36900000Y61785000D01*
G75*
G02*
X36965000Y61850000I65000J0D01*
G01*
X37485000Y61850000D01*
G75*
G02*
X37550000Y61785000I0J-65000D01*
G01*
X37550000Y61115000D01*
G75*
G02*
X37485000Y61050000I-65000J0D01*
G01*
X36965000Y61050000D01*
G75*
G02*
X36900000Y61115000I0J65000D01*
G01*
G37*
G36*
G01*
X36125000Y61095000D02*
X36125000Y61805000D01*
G75*
G02*
X36170000Y61850000I45000J0D01*
G01*
X36530000Y61850000D01*
G75*
G02*
X36575000Y61805000I0J-45000D01*
G01*
X36575000Y61095000D01*
G75*
G02*
X36530000Y61050000I-45000J0D01*
G01*
X36170000Y61050000D01*
G75*
G02*
X36125000Y61095000I0J45000D01*
G01*
G37*
G36*
G01*
X35325000Y61095000D02*
X35325000Y61805000D01*
G75*
G02*
X35370000Y61850000I45000J0D01*
G01*
X35730000Y61850000D01*
G75*
G02*
X35775000Y61805000I0J-45000D01*
G01*
X35775000Y61095000D01*
G75*
G02*
X35730000Y61050000I-45000J0D01*
G01*
X35370000Y61050000D01*
G75*
G02*
X35325000Y61095000I0J45000D01*
G01*
G37*
G36*
G01*
X34350000Y61115000D02*
X34350000Y61785000D01*
G75*
G02*
X34415000Y61850000I65000J0D01*
G01*
X34935000Y61850000D01*
G75*
G02*
X35000000Y61785000I0J-65000D01*
G01*
X35000000Y61115000D01*
G75*
G02*
X34935000Y61050000I-65000J0D01*
G01*
X34415000Y61050000D01*
G75*
G02*
X34350000Y61115000I0J65000D01*
G01*
G37*
G04 #@! TD*
G04 #@! TO.C,U5*
G36*
G01*
X18040000Y43375000D02*
X18360000Y43375000D01*
G75*
G02*
X18400000Y43335000I0J-40000D01*
G01*
X18400000Y42765000D01*
G75*
G02*
X18360000Y42725000I-40000J0D01*
G01*
X18040000Y42725000D01*
G75*
G02*
X18000000Y42765000I0J40000D01*
G01*
X18000000Y43335000D01*
G75*
G02*
X18040000Y43375000I40000J0D01*
G01*
G37*
G36*
G01*
X17390000Y43375000D02*
X17710000Y43375000D01*
G75*
G02*
X17750000Y43335000I0J-40000D01*
G01*
X17750000Y42765000D01*
G75*
G02*
X17710000Y42725000I-40000J0D01*
G01*
X17390000Y42725000D01*
G75*
G02*
X17350000Y42765000I0J40000D01*
G01*
X17350000Y43335000D01*
G75*
G02*
X17390000Y43375000I40000J0D01*
G01*
G37*
G36*
G01*
X16740000Y43375000D02*
X17060000Y43375000D01*
G75*
G02*
X17100000Y43335000I0J-40000D01*
G01*
X17100000Y42765000D01*
G75*
G02*
X17060000Y42725000I-40000J0D01*
G01*
X16740000Y42725000D01*
G75*
G02*
X16700000Y42765000I0J40000D01*
G01*
X16700000Y43335000D01*
G75*
G02*
X16740000Y43375000I40000J0D01*
G01*
G37*
G36*
G01*
X16740000Y41475000D02*
X17060000Y41475000D01*
G75*
G02*
X17100000Y41435000I0J-40000D01*
G01*
X17100000Y40865000D01*
G75*
G02*
X17060000Y40825000I-40000J0D01*
G01*
X16740000Y40825000D01*
G75*
G02*
X16700000Y40865000I0J40000D01*
G01*
X16700000Y41435000D01*
G75*
G02*
X16740000Y41475000I40000J0D01*
G01*
G37*
G36*
G01*
X17390000Y41475000D02*
X17710000Y41475000D01*
G75*
G02*
X17750000Y41435000I0J-40000D01*
G01*
X17750000Y40865000D01*
G75*
G02*
X17710000Y40825000I-40000J0D01*
G01*
X17390000Y40825000D01*
G75*
G02*
X17350000Y40865000I0J40000D01*
G01*
X17350000Y41435000D01*
G75*
G02*
X17390000Y41475000I40000J0D01*
G01*
G37*
G36*
G01*
X18040000Y41475000D02*
X18360000Y41475000D01*
G75*
G02*
X18400000Y41435000I0J-40000D01*
G01*
X18400000Y40865000D01*
G75*
G02*
X18360000Y40825000I-40000J0D01*
G01*
X18040000Y40825000D01*
G75*
G02*
X18000000Y40865000I0J40000D01*
G01*
X18000000Y41435000D01*
G75*
G02*
X18040000Y41475000I40000J0D01*
G01*
G37*
G04 #@! TD*
G04 #@! TO.C,D28*
G36*
G01*
X5350000Y39060010D02*
X5350000Y38040010D01*
G75*
G02*
X5260000Y37950010I-90000J0D01*
G01*
X4540000Y37950010D01*
G75*
G02*
X4450000Y38040010I0J90000D01*
G01*
X4450000Y39060010D01*
G75*
G02*
X4540000Y39150010I90000J0D01*
G01*
X5260000Y39150010D01*
G75*
G02*
X5350000Y39060010I0J-90000D01*
G01*
G37*
G36*
G01*
X2050000Y39060010D02*
X2050000Y38040010D01*
G75*
G02*
X1960000Y37950010I-90000J0D01*
G01*
X1240000Y37950010D01*
G75*
G02*
X1150000Y38040010I0J90000D01*
G01*
X1150000Y39060010D01*
G75*
G02*
X1240000Y39150010I90000J0D01*
G01*
X1960000Y39150010D01*
G75*
G02*
X2050000Y39060010I0J-90000D01*
G01*
G37*
G04 #@! TD*
G04 #@! TO.C,D12*
G36*
G01*
X61300000Y76400000D02*
X61300000Y75500000D01*
G75*
G02*
X61200000Y75400000I-100000J0D01*
G01*
X60400000Y75400000D01*
G75*
G02*
X60300000Y75500000I0J100000D01*
G01*
X60300000Y76400000D01*
G75*
G02*
X60400000Y76500000I100000J0D01*
G01*
X61200000Y76500000D01*
G75*
G02*
X61300000Y76400000I0J-100000D01*
G01*
G37*
G36*
G01*
X59600000Y76400000D02*
X59600000Y75500000D01*
G75*
G02*
X59500000Y75400000I-100000J0D01*
G01*
X58700000Y75400000D01*
G75*
G02*
X58600000Y75500000I0J100000D01*
G01*
X58600000Y76400000D01*
G75*
G02*
X58700000Y76500000I100000J0D01*
G01*
X59500000Y76500000D01*
G75*
G02*
X59600000Y76400000I0J-100000D01*
G01*
G37*
G04 #@! TD*
G04 #@! TO.C,R38*
G36*
G01*
X25740000Y21550000D02*
X24960000Y21550000D01*
G75*
G02*
X24890000Y21620000I0J70000D01*
G01*
X24890000Y22180000D01*
G75*
G02*
X24960000Y22250000I70000J0D01*
G01*
X25740000Y22250000D01*
G75*
G02*
X25810000Y22180000I0J-70000D01*
G01*
X25810000Y21620000D01*
G75*
G02*
X25740000Y21550000I-70000J0D01*
G01*
G37*
G36*
G01*
X25740000Y23150000D02*
X24960000Y23150000D01*
G75*
G02*
X24890000Y23220000I0J70000D01*
G01*
X24890000Y23780000D01*
G75*
G02*
X24960000Y23850000I70000J0D01*
G01*
X25740000Y23850000D01*
G75*
G02*
X25810000Y23780000I0J-70000D01*
G01*
X25810000Y23220000D01*
G75*
G02*
X25740000Y23150000I-70000J0D01*
G01*
G37*
G04 #@! TD*
G04 #@! TO.C,D22*
G36*
G01*
X31587498Y65591499D02*
X31587498Y65111499D01*
G75*
G02*
X31527498Y65051499I-60000J0D01*
G01*
X31047498Y65051499D01*
G75*
G02*
X30987498Y65111499I0J60000D01*
G01*
X30987498Y65591499D01*
G75*
G02*
X31047498Y65651499I60000J0D01*
G01*
X31527498Y65651499D01*
G75*
G02*
X31587498Y65591499I0J-60000D01*
G01*
G37*
G36*
G01*
X31587498Y63391499D02*
X31587498Y62911499D01*
G75*
G02*
X31527498Y62851499I-60000J0D01*
G01*
X31047498Y62851499D01*
G75*
G02*
X30987498Y62911499I0J60000D01*
G01*
X30987498Y63391499D01*
G75*
G02*
X31047498Y63451499I60000J0D01*
G01*
X31527498Y63451499D01*
G75*
G02*
X31587498Y63391499I0J-60000D01*
G01*
G37*
G04 #@! TD*
G04 #@! TO.C,R32*
G36*
G01*
X48590000Y60050000D02*
X47810000Y60050000D01*
G75*
G02*
X47740000Y60120000I0J70000D01*
G01*
X47740000Y60680000D01*
G75*
G02*
X47810000Y60750000I70000J0D01*
G01*
X48590000Y60750000D01*
G75*
G02*
X48660000Y60680000I0J-70000D01*
G01*
X48660000Y60120000D01*
G75*
G02*
X48590000Y60050000I-70000J0D01*
G01*
G37*
G36*
G01*
X48590000Y61650000D02*
X47810000Y61650000D01*
G75*
G02*
X47740000Y61720000I0J70000D01*
G01*
X47740000Y62280000D01*
G75*
G02*
X47810000Y62350000I70000J0D01*
G01*
X48590000Y62350000D01*
G75*
G02*
X48660000Y62280000I0J-70000D01*
G01*
X48660000Y61720000D01*
G75*
G02*
X48590000Y61650000I-70000J0D01*
G01*
G37*
G04 #@! TD*
G04 #@! TO.C,D11*
G36*
G01*
X71649999Y76499998D02*
X71649999Y75599998D01*
G75*
G02*
X71549999Y75499998I-100000J0D01*
G01*
X70749999Y75499998D01*
G75*
G02*
X70649999Y75599998I0J100000D01*
G01*
X70649999Y76499998D01*
G75*
G02*
X70749999Y76599998I100000J0D01*
G01*
X71549999Y76599998D01*
G75*
G02*
X71649999Y76499998I0J-100000D01*
G01*
G37*
G36*
G01*
X69949999Y76499998D02*
X69949999Y75599998D01*
G75*
G02*
X69849999Y75499998I-100000J0D01*
G01*
X69049999Y75499998D01*
G75*
G02*
X68949999Y75599998I0J100000D01*
G01*
X68949999Y76499998D01*
G75*
G02*
X69049999Y76599998I100000J0D01*
G01*
X69849999Y76599998D01*
G75*
G02*
X69949999Y76499998I0J-100000D01*
G01*
G37*
G04 #@! TD*
G04 #@! TO.C,D42*
G36*
G01*
X52000000Y75010000D02*
X52000000Y75490000D01*
G75*
G02*
X52060000Y75550000I60000J0D01*
G01*
X52540000Y75550000D01*
G75*
G02*
X52600000Y75490000I0J-60000D01*
G01*
X52600000Y75010000D01*
G75*
G02*
X52540000Y74950000I-60000J0D01*
G01*
X52060000Y74950000D01*
G75*
G02*
X52000000Y75010000I0J60000D01*
G01*
G37*
G36*
G01*
X52000000Y77210000D02*
X52000000Y77690000D01*
G75*
G02*
X52060000Y77750000I60000J0D01*
G01*
X52540000Y77750000D01*
G75*
G02*
X52600000Y77690000I0J-60000D01*
G01*
X52600000Y77210000D01*
G75*
G02*
X52540000Y77150000I-60000J0D01*
G01*
X52060000Y77150000D01*
G75*
G02*
X52000000Y77210000I0J60000D01*
G01*
G37*
G04 #@! TD*
G04 #@! TO.C,C7*
G36*
G01*
X50475000Y83600000D02*
X51525000Y83600000D01*
G75*
G02*
X51625000Y83500000I0J-100000D01*
G01*
X51625000Y82700000D01*
G75*
G02*
X51525000Y82600000I-100000J0D01*
G01*
X50475000Y82600000D01*
G75*
G02*
X50375000Y82700000I0J100000D01*
G01*
X50375000Y83500000D01*
G75*
G02*
X50475000Y83600000I100000J0D01*
G01*
G37*
G36*
G01*
X50475000Y81600000D02*
X51525000Y81600000D01*
G75*
G02*
X51625000Y81500000I0J-100000D01*
G01*
X51625000Y80700000D01*
G75*
G02*
X51525000Y80600000I-100000J0D01*
G01*
X50475000Y80600000D01*
G75*
G02*
X50375000Y80700000I0J100000D01*
G01*
X50375000Y81500000D01*
G75*
G02*
X50475000Y81600000I100000J0D01*
G01*
G37*
G04 #@! TD*
G04 #@! TO.C,R11*
G36*
G01*
X47975000Y104549999D02*
X46725000Y104549999D01*
G75*
G02*
X46625000Y104649999I0J100000D01*
G01*
X46625000Y105449999D01*
G75*
G02*
X46725000Y105549999I100000J0D01*
G01*
X47975000Y105549999D01*
G75*
G02*
X48075000Y105449999I0J-100000D01*
G01*
X48075000Y104649999D01*
G75*
G02*
X47975000Y104549999I-100000J0D01*
G01*
G37*
G36*
G01*
X47975000Y106450021D02*
X46725000Y106450021D01*
G75*
G02*
X46625000Y106550021I0J100000D01*
G01*
X46625000Y107350021D01*
G75*
G02*
X46725000Y107450021I100000J0D01*
G01*
X47975000Y107450021D01*
G75*
G02*
X48075000Y107350021I0J-100000D01*
G01*
X48075000Y106550021D01*
G75*
G02*
X47975000Y106450021I-100000J0D01*
G01*
G37*
G04 #@! TD*
G04 #@! TO.C,R6*
G36*
G01*
X92675000Y93649999D02*
X91425000Y93649999D01*
G75*
G02*
X91325000Y93749999I0J100000D01*
G01*
X91325000Y94549999D01*
G75*
G02*
X91425000Y94649999I100000J0D01*
G01*
X92675000Y94649999D01*
G75*
G02*
X92775000Y94549999I0J-100000D01*
G01*
X92775000Y93749999D01*
G75*
G02*
X92675000Y93649999I-100000J0D01*
G01*
G37*
G36*
G01*
X92675000Y95550021D02*
X91425000Y95550021D01*
G75*
G02*
X91325000Y95650021I0J100000D01*
G01*
X91325000Y96450021D01*
G75*
G02*
X91425000Y96550021I100000J0D01*
G01*
X92675000Y96550021D01*
G75*
G02*
X92775000Y96450021I0J-100000D01*
G01*
X92775000Y95650021D01*
G75*
G02*
X92675000Y95550021I-100000J0D01*
G01*
G37*
G04 #@! TD*
G04 #@! TO.C,Q35*
G36*
G01*
X55650000Y62975000D02*
X55350000Y62975000D01*
G75*
G02*
X55200000Y63125000I0J150000D01*
G01*
X55200000Y64300000D01*
G75*
G02*
X55350000Y64450000I150000J0D01*
G01*
X55650000Y64450000D01*
G75*
G02*
X55800000Y64300000I0J-150000D01*
G01*
X55800000Y63125000D01*
G75*
G02*
X55650000Y62975000I-150000J0D01*
G01*
G37*
G36*
G01*
X56600000Y64850000D02*
X56300000Y64850000D01*
G75*
G02*
X56150000Y65000000I0J150000D01*
G01*
X56150000Y66175000D01*
G75*
G02*
X56300000Y66325000I150000J0D01*
G01*
X56600000Y66325000D01*
G75*
G02*
X56750000Y66175000I0J-150000D01*
G01*
X56750000Y65000000D01*
G75*
G02*
X56600000Y64850000I-150000J0D01*
G01*
G37*
G36*
G01*
X57550000Y62975000D02*
X57250000Y62975000D01*
G75*
G02*
X57100000Y63125000I0J150000D01*
G01*
X57100000Y64300000D01*
G75*
G02*
X57250000Y64450000I150000J0D01*
G01*
X57550000Y64450000D01*
G75*
G02*
X57700000Y64300000I0J-150000D01*
G01*
X57700000Y63125000D01*
G75*
G02*
X57550000Y62975000I-150000J0D01*
G01*
G37*
G04 #@! TD*
G04 #@! TO.C,R60*
G36*
G01*
X43825000Y94149999D02*
X42575000Y94149999D01*
G75*
G02*
X42475000Y94249999I0J100000D01*
G01*
X42475000Y95049999D01*
G75*
G02*
X42575000Y95149999I100000J0D01*
G01*
X43825000Y95149999D01*
G75*
G02*
X43925000Y95049999I0J-100000D01*
G01*
X43925000Y94249999D01*
G75*
G02*
X43825000Y94149999I-100000J0D01*
G01*
G37*
G36*
G01*
X43825000Y96050021D02*
X42575000Y96050021D01*
G75*
G02*
X42475000Y96150021I0J100000D01*
G01*
X42475000Y96950021D01*
G75*
G02*
X42575000Y97050021I100000J0D01*
G01*
X43825000Y97050021D01*
G75*
G02*
X43925000Y96950021I0J-100000D01*
G01*
X43925000Y96150021D01*
G75*
G02*
X43825000Y96050021I-100000J0D01*
G01*
G37*
G04 #@! TD*
D11*
G04 #@! TO.C,J1*
X28200000Y9200000D03*
X29000000Y9200000D03*
X29800000Y9200000D03*
X30600000Y9200000D03*
X31400000Y9200000D03*
D12*
X25350000Y9100000D03*
X34250000Y9100000D03*
X25350000Y3650000D03*
X34250000Y3650000D03*
G04 #@! TD*
G04 #@! TO.C,R88*
G36*
G01*
X59090000Y62250000D02*
X58310000Y62250000D01*
G75*
G02*
X58240000Y62320000I0J70000D01*
G01*
X58240000Y62880000D01*
G75*
G02*
X58310000Y62950000I70000J0D01*
G01*
X59090000Y62950000D01*
G75*
G02*
X59160000Y62880000I0J-70000D01*
G01*
X59160000Y62320000D01*
G75*
G02*
X59090000Y62250000I-70000J0D01*
G01*
G37*
G36*
G01*
X59090000Y63850000D02*
X58310000Y63850000D01*
G75*
G02*
X58240000Y63920000I0J70000D01*
G01*
X58240000Y64480000D01*
G75*
G02*
X58310000Y64550000I70000J0D01*
G01*
X59090000Y64550000D01*
G75*
G02*
X59160000Y64480000I0J-70000D01*
G01*
X59160000Y63920000D01*
G75*
G02*
X59090000Y63850000I-70000J0D01*
G01*
G37*
G04 #@! TD*
D13*
G04 #@! TO.C,Q8*
X89725000Y73125000D03*
X86375000Y73125000D03*
X86375000Y76175000D03*
X89725000Y76175000D03*
G36*
G01*
X80650000Y76450000D02*
X80650000Y77410000D01*
G75*
G02*
X80770000Y77530000I120000J0D01*
G01*
X82730000Y77530000D01*
G75*
G02*
X82850000Y77410000I0J-120000D01*
G01*
X82850000Y76450000D01*
G75*
G02*
X82730000Y76330000I-120000J0D01*
G01*
X80770000Y76330000D01*
G75*
G02*
X80650000Y76450000I0J120000D01*
G01*
G37*
G36*
G01*
X80650000Y71890000D02*
X80650000Y72850000D01*
G75*
G02*
X80770000Y72970000I120000J0D01*
G01*
X82730000Y72970000D01*
G75*
G02*
X82850000Y72850000I0J-120000D01*
G01*
X82850000Y71890000D01*
G75*
G02*
X82730000Y71770000I-120000J0D01*
G01*
X80770000Y71770000D01*
G75*
G02*
X80650000Y71890000I0J120000D01*
G01*
G37*
G04 #@! TD*
G04 #@! TO.C,Q4*
G36*
G01*
X3400000Y50675010D02*
X3700000Y50675010D01*
G75*
G02*
X3850000Y50525010I0J-150000D01*
G01*
X3850000Y49350010D01*
G75*
G02*
X3700000Y49200010I-150000J0D01*
G01*
X3400000Y49200010D01*
G75*
G02*
X3250000Y49350010I0J150000D01*
G01*
X3250000Y50525010D01*
G75*
G02*
X3400000Y50675010I150000J0D01*
G01*
G37*
G36*
G01*
X2450000Y48800010D02*
X2750000Y48800010D01*
G75*
G02*
X2900000Y48650010I0J-150000D01*
G01*
X2900000Y47475010D01*
G75*
G02*
X2750000Y47325010I-150000J0D01*
G01*
X2450000Y47325010D01*
G75*
G02*
X2300000Y47475010I0J150000D01*
G01*
X2300000Y48650010D01*
G75*
G02*
X2450000Y48800010I150000J0D01*
G01*
G37*
G36*
G01*
X1500000Y50675010D02*
X1800000Y50675010D01*
G75*
G02*
X1950000Y50525010I0J-150000D01*
G01*
X1950000Y49350010D01*
G75*
G02*
X1800000Y49200010I-150000J0D01*
G01*
X1500000Y49200010D01*
G75*
G02*
X1350000Y49350010I0J150000D01*
G01*
X1350000Y50525010D01*
G75*
G02*
X1500000Y50675010I150000J0D01*
G01*
G37*
G04 #@! TD*
G04 #@! TO.C,Q3*
G36*
G01*
X2550000Y33775010D02*
X2250000Y33775010D01*
G75*
G02*
X2100000Y33925010I0J150000D01*
G01*
X2100000Y35100010D01*
G75*
G02*
X2250000Y35250010I150000J0D01*
G01*
X2550000Y35250010D01*
G75*
G02*
X2700000Y35100010I0J-150000D01*
G01*
X2700000Y33925010D01*
G75*
G02*
X2550000Y33775010I-150000J0D01*
G01*
G37*
G36*
G01*
X3500000Y35650010D02*
X3200000Y35650010D01*
G75*
G02*
X3050000Y35800010I0J150000D01*
G01*
X3050000Y36975010D01*
G75*
G02*
X3200000Y37125010I150000J0D01*
G01*
X3500000Y37125010D01*
G75*
G02*
X3650000Y36975010I0J-150000D01*
G01*
X3650000Y35800010D01*
G75*
G02*
X3500000Y35650010I-150000J0D01*
G01*
G37*
G36*
G01*
X4450000Y33775010D02*
X4150000Y33775010D01*
G75*
G02*
X4000000Y33925010I0J150000D01*
G01*
X4000000Y35100010D01*
G75*
G02*
X4150000Y35250010I150000J0D01*
G01*
X4450000Y35250010D01*
G75*
G02*
X4600000Y35100010I0J-150000D01*
G01*
X4600000Y33925010D01*
G75*
G02*
X4450000Y33775010I-150000J0D01*
G01*
G37*
G04 #@! TD*
D14*
G04 #@! TO.C,U6*
X48325000Y86690000D03*
X48325000Y91070000D03*
X48325000Y85230000D03*
X46075000Y91070000D03*
X46075000Y89610000D03*
X46075000Y88150000D03*
X46075000Y85230000D03*
X48325000Y88150000D03*
X48325000Y89610000D03*
X46075000Y86690000D03*
D15*
X42400000Y90650000D03*
X42400000Y89650000D03*
X42400000Y88650000D03*
X42400000Y87650000D03*
X42400000Y86650000D03*
X42400000Y85650000D03*
X52000000Y85650000D03*
X52000000Y86650000D03*
X52000000Y87650000D03*
X52000000Y88650000D03*
X52000000Y89650000D03*
X52000000Y90650000D03*
G04 #@! TD*
G04 #@! TO.C,Q31*
G36*
G01*
X21750000Y36625000D02*
X21450000Y36625000D01*
G75*
G02*
X21300000Y36775000I0J150000D01*
G01*
X21300000Y37950000D01*
G75*
G02*
X21450000Y38100000I150000J0D01*
G01*
X21750000Y38100000D01*
G75*
G02*
X21900000Y37950000I0J-150000D01*
G01*
X21900000Y36775000D01*
G75*
G02*
X21750000Y36625000I-150000J0D01*
G01*
G37*
G36*
G01*
X22700000Y38500000D02*
X22400000Y38500000D01*
G75*
G02*
X22250000Y38650000I0J150000D01*
G01*
X22250000Y39825000D01*
G75*
G02*
X22400000Y39975000I150000J0D01*
G01*
X22700000Y39975000D01*
G75*
G02*
X22850000Y39825000I0J-150000D01*
G01*
X22850000Y38650000D01*
G75*
G02*
X22700000Y38500000I-150000J0D01*
G01*
G37*
G36*
G01*
X23650000Y36625000D02*
X23350000Y36625000D01*
G75*
G02*
X23200000Y36775000I0J150000D01*
G01*
X23200000Y37950000D01*
G75*
G02*
X23350000Y38100000I150000J0D01*
G01*
X23650000Y38100000D01*
G75*
G02*
X23800000Y37950000I0J-150000D01*
G01*
X23800000Y36775000D01*
G75*
G02*
X23650000Y36625000I-150000J0D01*
G01*
G37*
G04 #@! TD*
G04 #@! TO.C,C16*
G36*
G01*
X56625000Y80600000D02*
X55575000Y80600000D01*
G75*
G02*
X55475000Y80700000I0J100000D01*
G01*
X55475000Y81500000D01*
G75*
G02*
X55575000Y81600000I100000J0D01*
G01*
X56625000Y81600000D01*
G75*
G02*
X56725000Y81500000I0J-100000D01*
G01*
X56725000Y80700000D01*
G75*
G02*
X56625000Y80600000I-100000J0D01*
G01*
G37*
G36*
G01*
X56625000Y82600000D02*
X55575000Y82600000D01*
G75*
G02*
X55475000Y82700000I0J100000D01*
G01*
X55475000Y83500000D01*
G75*
G02*
X55575000Y83600000I100000J0D01*
G01*
X56625000Y83600000D01*
G75*
G02*
X56725000Y83500000I0J-100000D01*
G01*
X56725000Y82700000D01*
G75*
G02*
X56625000Y82600000I-100000J0D01*
G01*
G37*
G04 #@! TD*
G04 #@! TO.C,R30*
G36*
G01*
X44250000Y55310000D02*
X44250000Y56090000D01*
G75*
G02*
X44320000Y56160000I70000J0D01*
G01*
X44880000Y56160000D01*
G75*
G02*
X44950000Y56090000I0J-70000D01*
G01*
X44950000Y55310000D01*
G75*
G02*
X44880000Y55240000I-70000J0D01*
G01*
X44320000Y55240000D01*
G75*
G02*
X44250000Y55310000I0J70000D01*
G01*
G37*
G36*
G01*
X45850000Y55310000D02*
X45850000Y56090000D01*
G75*
G02*
X45920000Y56160000I70000J0D01*
G01*
X46480000Y56160000D01*
G75*
G02*
X46550000Y56090000I0J-70000D01*
G01*
X46550000Y55310000D01*
G75*
G02*
X46480000Y55240000I-70000J0D01*
G01*
X45920000Y55240000D01*
G75*
G02*
X45850000Y55310000I0J70000D01*
G01*
G37*
G04 #@! TD*
G04 #@! TO.C,R41*
G36*
G01*
X15060000Y46100000D02*
X15840000Y46100000D01*
G75*
G02*
X15910000Y46030000I0J-70000D01*
G01*
X15910000Y45470000D01*
G75*
G02*
X15840000Y45400000I-70000J0D01*
G01*
X15060000Y45400000D01*
G75*
G02*
X14990000Y45470000I0J70000D01*
G01*
X14990000Y46030000D01*
G75*
G02*
X15060000Y46100000I70000J0D01*
G01*
G37*
G36*
G01*
X15060000Y44500000D02*
X15840000Y44500000D01*
G75*
G02*
X15910000Y44430000I0J-70000D01*
G01*
X15910000Y43870000D01*
G75*
G02*
X15840000Y43800000I-70000J0D01*
G01*
X15060000Y43800000D01*
G75*
G02*
X14990000Y43870000I0J70000D01*
G01*
X14990000Y44430000D01*
G75*
G02*
X15060000Y44500000I70000J0D01*
G01*
G37*
G04 #@! TD*
G04 #@! TO.C,U2*
G36*
G01*
X2440000Y43525010D02*
X2760000Y43525010D01*
G75*
G02*
X2800000Y43485010I0J-40000D01*
G01*
X2800000Y42915010D01*
G75*
G02*
X2760000Y42875010I-40000J0D01*
G01*
X2440000Y42875010D01*
G75*
G02*
X2400000Y42915010I0J40000D01*
G01*
X2400000Y43485010D01*
G75*
G02*
X2440000Y43525010I40000J0D01*
G01*
G37*
G36*
G01*
X1790000Y43525010D02*
X2110000Y43525010D01*
G75*
G02*
X2150000Y43485010I0J-40000D01*
G01*
X2150000Y42915010D01*
G75*
G02*
X2110000Y42875010I-40000J0D01*
G01*
X1790000Y42875010D01*
G75*
G02*
X1750000Y42915010I0J40000D01*
G01*
X1750000Y43485010D01*
G75*
G02*
X1790000Y43525010I40000J0D01*
G01*
G37*
G36*
G01*
X1140000Y43525010D02*
X1460000Y43525010D01*
G75*
G02*
X1500000Y43485010I0J-40000D01*
G01*
X1500000Y42915010D01*
G75*
G02*
X1460000Y42875010I-40000J0D01*
G01*
X1140000Y42875010D01*
G75*
G02*
X1100000Y42915010I0J40000D01*
G01*
X1100000Y43485010D01*
G75*
G02*
X1140000Y43525010I40000J0D01*
G01*
G37*
G36*
G01*
X1140000Y41625010D02*
X1460000Y41625010D01*
G75*
G02*
X1500000Y41585010I0J-40000D01*
G01*
X1500000Y41015010D01*
G75*
G02*
X1460000Y40975010I-40000J0D01*
G01*
X1140000Y40975010D01*
G75*
G02*
X1100000Y41015010I0J40000D01*
G01*
X1100000Y41585010D01*
G75*
G02*
X1140000Y41625010I40000J0D01*
G01*
G37*
G36*
G01*
X1790000Y41625010D02*
X2110000Y41625010D01*
G75*
G02*
X2150000Y41585010I0J-40000D01*
G01*
X2150000Y41015010D01*
G75*
G02*
X2110000Y40975010I-40000J0D01*
G01*
X1790000Y40975010D01*
G75*
G02*
X1750000Y41015010I0J40000D01*
G01*
X1750000Y41585010D01*
G75*
G02*
X1790000Y41625010I40000J0D01*
G01*
G37*
G36*
G01*
X2440000Y41625010D02*
X2760000Y41625010D01*
G75*
G02*
X2800000Y41585010I0J-40000D01*
G01*
X2800000Y41015010D01*
G75*
G02*
X2760000Y40975010I-40000J0D01*
G01*
X2440000Y40975010D01*
G75*
G02*
X2400000Y41015010I0J40000D01*
G01*
X2400000Y41585010D01*
G75*
G02*
X2440000Y41625010I40000J0D01*
G01*
G37*
G04 #@! TD*
G04 #@! TO.C,R66*
G36*
G01*
X4075000Y94016700D02*
X2825000Y94016700D01*
G75*
G02*
X2725000Y94116700I0J100000D01*
G01*
X2725000Y94916700D01*
G75*
G02*
X2825000Y95016700I100000J0D01*
G01*
X4075000Y95016700D01*
G75*
G02*
X4175000Y94916700I0J-100000D01*
G01*
X4175000Y94116700D01*
G75*
G02*
X4075000Y94016700I-100000J0D01*
G01*
G37*
G36*
G01*
X4075000Y95916722D02*
X2825000Y95916722D01*
G75*
G02*
X2725000Y96016722I0J100000D01*
G01*
X2725000Y96816722D01*
G75*
G02*
X2825000Y96916722I100000J0D01*
G01*
X4075000Y96916722D01*
G75*
G02*
X4175000Y96816722I0J-100000D01*
G01*
X4175000Y96016722D01*
G75*
G02*
X4075000Y95916722I-100000J0D01*
G01*
G37*
G04 #@! TD*
G04 #@! TO.C,Q15*
G36*
G01*
X6700000Y44575000D02*
X6400000Y44575000D01*
G75*
G02*
X6250000Y44725000I0J150000D01*
G01*
X6250000Y45900000D01*
G75*
G02*
X6400000Y46050000I150000J0D01*
G01*
X6700000Y46050000D01*
G75*
G02*
X6850000Y45900000I0J-150000D01*
G01*
X6850000Y44725000D01*
G75*
G02*
X6700000Y44575000I-150000J0D01*
G01*
G37*
G36*
G01*
X7650000Y46450000D02*
X7350000Y46450000D01*
G75*
G02*
X7200000Y46600000I0J150000D01*
G01*
X7200000Y47775000D01*
G75*
G02*
X7350000Y47925000I150000J0D01*
G01*
X7650000Y47925000D01*
G75*
G02*
X7800000Y47775000I0J-150000D01*
G01*
X7800000Y46600000D01*
G75*
G02*
X7650000Y46450000I-150000J0D01*
G01*
G37*
G36*
G01*
X8600000Y44575000D02*
X8300000Y44575000D01*
G75*
G02*
X8150000Y44725000I0J150000D01*
G01*
X8150000Y45900000D01*
G75*
G02*
X8300000Y46050000I150000J0D01*
G01*
X8600000Y46050000D01*
G75*
G02*
X8750000Y45900000I0J-150000D01*
G01*
X8750000Y44725000D01*
G75*
G02*
X8600000Y44575000I-150000J0D01*
G01*
G37*
G04 #@! TD*
G04 #@! TO.C,R17*
G36*
G01*
X68675000Y93599999D02*
X67425000Y93599999D01*
G75*
G02*
X67325000Y93699999I0J100000D01*
G01*
X67325000Y94499999D01*
G75*
G02*
X67425000Y94599999I100000J0D01*
G01*
X68675000Y94599999D01*
G75*
G02*
X68775000Y94499999I0J-100000D01*
G01*
X68775000Y93699999D01*
G75*
G02*
X68675000Y93599999I-100000J0D01*
G01*
G37*
G36*
G01*
X68675000Y95500021D02*
X67425000Y95500021D01*
G75*
G02*
X67325000Y95600021I0J100000D01*
G01*
X67325000Y96400021D01*
G75*
G02*
X67425000Y96500021I100000J0D01*
G01*
X68675000Y96500021D01*
G75*
G02*
X68775000Y96400021I0J-100000D01*
G01*
X68775000Y95600021D01*
G75*
G02*
X68675000Y95500021I-100000J0D01*
G01*
G37*
G04 #@! TD*
G04 #@! TO.C,R79*
G36*
G01*
X59140000Y54550000D02*
X58360000Y54550000D01*
G75*
G02*
X58290000Y54620000I0J70000D01*
G01*
X58290000Y55180000D01*
G75*
G02*
X58360000Y55250000I70000J0D01*
G01*
X59140000Y55250000D01*
G75*
G02*
X59210000Y55180000I0J-70000D01*
G01*
X59210000Y54620000D01*
G75*
G02*
X59140000Y54550000I-70000J0D01*
G01*
G37*
G36*
G01*
X59140000Y56150000D02*
X58360000Y56150000D01*
G75*
G02*
X58290000Y56220000I0J70000D01*
G01*
X58290000Y56780000D01*
G75*
G02*
X58360000Y56850000I70000J0D01*
G01*
X59140000Y56850000D01*
G75*
G02*
X59210000Y56780000I0J-70000D01*
G01*
X59210000Y56220000D01*
G75*
G02*
X59140000Y56150000I-70000J0D01*
G01*
G37*
G04 #@! TD*
G04 #@! TO.C,R33*
G36*
G01*
X50114000Y59950000D02*
X49334000Y59950000D01*
G75*
G02*
X49264000Y60020000I0J70000D01*
G01*
X49264000Y60580000D01*
G75*
G02*
X49334000Y60650000I70000J0D01*
G01*
X50114000Y60650000D01*
G75*
G02*
X50184000Y60580000I0J-70000D01*
G01*
X50184000Y60020000D01*
G75*
G02*
X50114000Y59950000I-70000J0D01*
G01*
G37*
G36*
G01*
X50114000Y61550000D02*
X49334000Y61550000D01*
G75*
G02*
X49264000Y61620000I0J70000D01*
G01*
X49264000Y62180000D01*
G75*
G02*
X49334000Y62250000I70000J0D01*
G01*
X50114000Y62250000D01*
G75*
G02*
X50184000Y62180000I0J-70000D01*
G01*
X50184000Y61620000D01*
G75*
G02*
X50114000Y61550000I-70000J0D01*
G01*
G37*
G04 #@! TD*
G04 #@! TO.C,R81*
G36*
G01*
X59090000Y64800000D02*
X58310000Y64800000D01*
G75*
G02*
X58240000Y64870000I0J70000D01*
G01*
X58240000Y65430000D01*
G75*
G02*
X58310000Y65500000I70000J0D01*
G01*
X59090000Y65500000D01*
G75*
G02*
X59160000Y65430000I0J-70000D01*
G01*
X59160000Y64870000D01*
G75*
G02*
X59090000Y64800000I-70000J0D01*
G01*
G37*
G36*
G01*
X59090000Y66400000D02*
X58310000Y66400000D01*
G75*
G02*
X58240000Y66470000I0J70000D01*
G01*
X58240000Y67030000D01*
G75*
G02*
X58310000Y67100000I70000J0D01*
G01*
X59090000Y67100000D01*
G75*
G02*
X59160000Y67030000I0J-70000D01*
G01*
X59160000Y66470000D01*
G75*
G02*
X59090000Y66400000I-70000J0D01*
G01*
G37*
G04 #@! TD*
G04 #@! TO.C,Q33*
G36*
G01*
X55550000Y56175000D02*
X55250000Y56175000D01*
G75*
G02*
X55100000Y56325000I0J150000D01*
G01*
X55100000Y57500000D01*
G75*
G02*
X55250000Y57650000I150000J0D01*
G01*
X55550000Y57650000D01*
G75*
G02*
X55700000Y57500000I0J-150000D01*
G01*
X55700000Y56325000D01*
G75*
G02*
X55550000Y56175000I-150000J0D01*
G01*
G37*
G36*
G01*
X56500000Y58050000D02*
X56200000Y58050000D01*
G75*
G02*
X56050000Y58200000I0J150000D01*
G01*
X56050000Y59375000D01*
G75*
G02*
X56200000Y59525000I150000J0D01*
G01*
X56500000Y59525000D01*
G75*
G02*
X56650000Y59375000I0J-150000D01*
G01*
X56650000Y58200000D01*
G75*
G02*
X56500000Y58050000I-150000J0D01*
G01*
G37*
G36*
G01*
X57450000Y56175000D02*
X57150000Y56175000D01*
G75*
G02*
X57000000Y56325000I0J150000D01*
G01*
X57000000Y57500000D01*
G75*
G02*
X57150000Y57650000I150000J0D01*
G01*
X57450000Y57650000D01*
G75*
G02*
X57600000Y57500000I0J-150000D01*
G01*
X57600000Y56325000D01*
G75*
G02*
X57450000Y56175000I-150000J0D01*
G01*
G37*
G04 #@! TD*
G04 #@! TO.C,Q19*
G36*
G01*
X14250000Y29625000D02*
X13950000Y29625000D01*
G75*
G02*
X13800000Y29775000I0J150000D01*
G01*
X13800000Y30950000D01*
G75*
G02*
X13950000Y31100000I150000J0D01*
G01*
X14250000Y31100000D01*
G75*
G02*
X14400000Y30950000I0J-150000D01*
G01*
X14400000Y29775000D01*
G75*
G02*
X14250000Y29625000I-150000J0D01*
G01*
G37*
G36*
G01*
X15200000Y31500000D02*
X14900000Y31500000D01*
G75*
G02*
X14750000Y31650000I0J150000D01*
G01*
X14750000Y32825000D01*
G75*
G02*
X14900000Y32975000I150000J0D01*
G01*
X15200000Y32975000D01*
G75*
G02*
X15350000Y32825000I0J-150000D01*
G01*
X15350000Y31650000D01*
G75*
G02*
X15200000Y31500000I-150000J0D01*
G01*
G37*
G36*
G01*
X16150000Y29625000D02*
X15850000Y29625000D01*
G75*
G02*
X15700000Y29775000I0J150000D01*
G01*
X15700000Y30950000D01*
G75*
G02*
X15850000Y31100000I150000J0D01*
G01*
X16150000Y31100000D01*
G75*
G02*
X16300000Y30950000I0J-150000D01*
G01*
X16300000Y29775000D01*
G75*
G02*
X16150000Y29625000I-150000J0D01*
G01*
G37*
G04 #@! TD*
G04 #@! TO.C,S2*
G36*
G01*
X65000001Y7420000D02*
X65000001Y5580000D01*
G75*
G02*
X64920001Y5500000I-80000J0D01*
G01*
X64280001Y5500000D01*
G75*
G02*
X64200001Y5580000I0J80000D01*
G01*
X64200001Y7420000D01*
G75*
G02*
X64280001Y7500000I80000J0D01*
G01*
X64920001Y7500000D01*
G75*
G02*
X65000001Y7420000I0J-80000D01*
G01*
G37*
G36*
G01*
X60800000Y7420000D02*
X60800000Y5580000D01*
G75*
G02*
X60720000Y5500000I-80000J0D01*
G01*
X60080000Y5500000D01*
G75*
G02*
X60000000Y5580000I0J80000D01*
G01*
X60000000Y7420000D01*
G75*
G02*
X60080000Y7500000I80000J0D01*
G01*
X60720000Y7500000D01*
G75*
G02*
X60800000Y7420000I0J-80000D01*
G01*
G37*
G04 #@! TD*
G04 #@! TO.C,D47*
G36*
G01*
X50999999Y76449998D02*
X50999999Y75549998D01*
G75*
G02*
X50899999Y75449998I-100000J0D01*
G01*
X50099999Y75449998D01*
G75*
G02*
X49999999Y75549998I0J100000D01*
G01*
X49999999Y76449998D01*
G75*
G02*
X50099999Y76549998I100000J0D01*
G01*
X50899999Y76549998D01*
G75*
G02*
X50999999Y76449998I0J-100000D01*
G01*
G37*
G36*
G01*
X49299999Y76449998D02*
X49299999Y75549998D01*
G75*
G02*
X49199999Y75449998I-100000J0D01*
G01*
X48399999Y75449998D01*
G75*
G02*
X48299999Y75549998I0J100000D01*
G01*
X48299999Y76449998D01*
G75*
G02*
X48399999Y76549998I100000J0D01*
G01*
X49199999Y76549998D01*
G75*
G02*
X49299999Y76449998I0J-100000D01*
G01*
G37*
G04 #@! TD*
G04 #@! TO.C,Q32*
G36*
G01*
X21750000Y40025000D02*
X21450000Y40025000D01*
G75*
G02*
X21300000Y40175000I0J150000D01*
G01*
X21300000Y41350000D01*
G75*
G02*
X21450000Y41500000I150000J0D01*
G01*
X21750000Y41500000D01*
G75*
G02*
X21900000Y41350000I0J-150000D01*
G01*
X21900000Y40175000D01*
G75*
G02*
X21750000Y40025000I-150000J0D01*
G01*
G37*
G36*
G01*
X22700000Y41900000D02*
X22400000Y41900000D01*
G75*
G02*
X22250000Y42050000I0J150000D01*
G01*
X22250000Y43225000D01*
G75*
G02*
X22400000Y43375000I150000J0D01*
G01*
X22700000Y43375000D01*
G75*
G02*
X22850000Y43225000I0J-150000D01*
G01*
X22850000Y42050000D01*
G75*
G02*
X22700000Y41900000I-150000J0D01*
G01*
G37*
G36*
G01*
X23650000Y40025000D02*
X23350000Y40025000D01*
G75*
G02*
X23200000Y40175000I0J150000D01*
G01*
X23200000Y41350000D01*
G75*
G02*
X23350000Y41500000I150000J0D01*
G01*
X23650000Y41500000D01*
G75*
G02*
X23800000Y41350000I0J-150000D01*
G01*
X23800000Y40175000D01*
G75*
G02*
X23650000Y40025000I-150000J0D01*
G01*
G37*
G04 #@! TD*
G04 #@! TO.C,D39*
G36*
G01*
X35499999Y71999998D02*
X35499999Y71099998D01*
G75*
G02*
X35399999Y70999998I-100000J0D01*
G01*
X34599999Y70999998D01*
G75*
G02*
X34499999Y71099998I0J100000D01*
G01*
X34499999Y71999998D01*
G75*
G02*
X34599999Y72099998I100000J0D01*
G01*
X35399999Y72099998D01*
G75*
G02*
X35499999Y71999998I0J-100000D01*
G01*
G37*
G36*
G01*
X33799999Y71999998D02*
X33799999Y71099998D01*
G75*
G02*
X33699999Y70999998I-100000J0D01*
G01*
X32899999Y70999998D01*
G75*
G02*
X32799999Y71099998I0J100000D01*
G01*
X32799999Y71999998D01*
G75*
G02*
X32899999Y72099998I100000J0D01*
G01*
X33699999Y72099998D01*
G75*
G02*
X33799999Y71999998I0J-100000D01*
G01*
G37*
G04 #@! TD*
G04 #@! TO.C,R63*
G36*
G01*
X22825000Y94149999D02*
X21575000Y94149999D01*
G75*
G02*
X21475000Y94249999I0J100000D01*
G01*
X21475000Y95049999D01*
G75*
G02*
X21575000Y95149999I100000J0D01*
G01*
X22825000Y95149999D01*
G75*
G02*
X22925000Y95049999I0J-100000D01*
G01*
X22925000Y94249999D01*
G75*
G02*
X22825000Y94149999I-100000J0D01*
G01*
G37*
G36*
G01*
X22825000Y96050021D02*
X21575000Y96050021D01*
G75*
G02*
X21475000Y96150021I0J100000D01*
G01*
X21475000Y96950021D01*
G75*
G02*
X21575000Y97050021I100000J0D01*
G01*
X22825000Y97050021D01*
G75*
G02*
X22925000Y96950021I0J-100000D01*
G01*
X22925000Y96150021D01*
G75*
G02*
X22825000Y96050021I-100000J0D01*
G01*
G37*
G04 #@! TD*
G04 #@! TO.C,Q18*
G36*
G01*
X12350000Y32875000D02*
X12650000Y32875000D01*
G75*
G02*
X12800000Y32725000I0J-150000D01*
G01*
X12800000Y31550000D01*
G75*
G02*
X12650000Y31400000I-150000J0D01*
G01*
X12350000Y31400000D01*
G75*
G02*
X12200000Y31550000I0J150000D01*
G01*
X12200000Y32725000D01*
G75*
G02*
X12350000Y32875000I150000J0D01*
G01*
G37*
G36*
G01*
X11400000Y31000000D02*
X11700000Y31000000D01*
G75*
G02*
X11850000Y30850000I0J-150000D01*
G01*
X11850000Y29675000D01*
G75*
G02*
X11700000Y29525000I-150000J0D01*
G01*
X11400000Y29525000D01*
G75*
G02*
X11250000Y29675000I0J150000D01*
G01*
X11250000Y30850000D01*
G75*
G02*
X11400000Y31000000I150000J0D01*
G01*
G37*
G36*
G01*
X10450000Y32875000D02*
X10750000Y32875000D01*
G75*
G02*
X10900000Y32725000I0J-150000D01*
G01*
X10900000Y31550000D01*
G75*
G02*
X10750000Y31400000I-150000J0D01*
G01*
X10450000Y31400000D01*
G75*
G02*
X10300000Y31550000I0J150000D01*
G01*
X10300000Y32725000D01*
G75*
G02*
X10450000Y32875000I150000J0D01*
G01*
G37*
G04 #@! TD*
G04 #@! TO.C,R74*
G36*
G01*
X16850000Y38190000D02*
X16850000Y37410000D01*
G75*
G02*
X16780000Y37340000I-70000J0D01*
G01*
X16220000Y37340000D01*
G75*
G02*
X16150000Y37410000I0J70000D01*
G01*
X16150000Y38190000D01*
G75*
G02*
X16220000Y38260000I70000J0D01*
G01*
X16780000Y38260000D01*
G75*
G02*
X16850000Y38190000I0J-70000D01*
G01*
G37*
G36*
G01*
X15250000Y38190000D02*
X15250000Y37410000D01*
G75*
G02*
X15180000Y37340000I-70000J0D01*
G01*
X14620000Y37340000D01*
G75*
G02*
X14550000Y37410000I0J70000D01*
G01*
X14550000Y38190000D01*
G75*
G02*
X14620000Y38260000I70000J0D01*
G01*
X15180000Y38260000D01*
G75*
G02*
X15250000Y38190000I0J-70000D01*
G01*
G37*
G04 #@! TD*
G04 #@! TO.C,D48*
G36*
G01*
X55949999Y76499998D02*
X55949999Y75599998D01*
G75*
G02*
X55849999Y75499998I-100000J0D01*
G01*
X55049999Y75499998D01*
G75*
G02*
X54949999Y75599998I0J100000D01*
G01*
X54949999Y76499998D01*
G75*
G02*
X55049999Y76599998I100000J0D01*
G01*
X55849999Y76599998D01*
G75*
G02*
X55949999Y76499998I0J-100000D01*
G01*
G37*
G36*
G01*
X54249999Y76499998D02*
X54249999Y75599998D01*
G75*
G02*
X54149999Y75499998I-100000J0D01*
G01*
X53349999Y75499998D01*
G75*
G02*
X53249999Y75599998I0J100000D01*
G01*
X53249999Y76499998D01*
G75*
G02*
X53349999Y76599998I100000J0D01*
G01*
X54149999Y76599998D01*
G75*
G02*
X54249999Y76499998I0J-100000D01*
G01*
G37*
G04 #@! TD*
G04 #@! TO.C,D26*
G36*
G01*
X67290000Y88105000D02*
X68310000Y88105000D01*
G75*
G02*
X68400000Y88015000I0J-90000D01*
G01*
X68400000Y87295000D01*
G75*
G02*
X68310000Y87205000I-90000J0D01*
G01*
X67290000Y87205000D01*
G75*
G02*
X67200000Y87295000I0J90000D01*
G01*
X67200000Y88015000D01*
G75*
G02*
X67290000Y88105000I90000J0D01*
G01*
G37*
G36*
G01*
X67290000Y84805000D02*
X68310000Y84805000D01*
G75*
G02*
X68400000Y84715000I0J-90000D01*
G01*
X68400000Y83995000D01*
G75*
G02*
X68310000Y83905000I-90000J0D01*
G01*
X67290000Y83905000D01*
G75*
G02*
X67200000Y83995000I0J90000D01*
G01*
X67200000Y84715000D01*
G75*
G02*
X67290000Y84805000I90000J0D01*
G01*
G37*
G04 #@! TD*
G04 #@! TO.C,R16*
G36*
G01*
X72975000Y93649999D02*
X71725000Y93649999D01*
G75*
G02*
X71625000Y93749999I0J100000D01*
G01*
X71625000Y94549999D01*
G75*
G02*
X71725000Y94649999I100000J0D01*
G01*
X72975000Y94649999D01*
G75*
G02*
X73075000Y94549999I0J-100000D01*
G01*
X73075000Y93749999D01*
G75*
G02*
X72975000Y93649999I-100000J0D01*
G01*
G37*
G36*
G01*
X72975000Y95550021D02*
X71725000Y95550021D01*
G75*
G02*
X71625000Y95650021I0J100000D01*
G01*
X71625000Y96450021D01*
G75*
G02*
X71725000Y96550021I100000J0D01*
G01*
X72975000Y96550021D01*
G75*
G02*
X73075000Y96450021I0J-100000D01*
G01*
X73075000Y95650021D01*
G75*
G02*
X72975000Y95550021I-100000J0D01*
G01*
G37*
G04 #@! TD*
G04 #@! TO.C,R70*
G36*
G01*
X12575000Y94049999D02*
X11325000Y94049999D01*
G75*
G02*
X11225000Y94149999I0J100000D01*
G01*
X11225000Y94949999D01*
G75*
G02*
X11325000Y95049999I100000J0D01*
G01*
X12575000Y95049999D01*
G75*
G02*
X12675000Y94949999I0J-100000D01*
G01*
X12675000Y94149999D01*
G75*
G02*
X12575000Y94049999I-100000J0D01*
G01*
G37*
G36*
G01*
X12575000Y95950021D02*
X11325000Y95950021D01*
G75*
G02*
X11225000Y96050021I0J100000D01*
G01*
X11225000Y96850021D01*
G75*
G02*
X11325000Y96950021I100000J0D01*
G01*
X12575000Y96950021D01*
G75*
G02*
X12675000Y96850021I0J-100000D01*
G01*
X12675000Y96050021D01*
G75*
G02*
X12575000Y95950021I-100000J0D01*
G01*
G37*
G04 #@! TD*
G04 #@! TO.C,D33*
G36*
G01*
X76849999Y76499998D02*
X76849999Y75599998D01*
G75*
G02*
X76749999Y75499998I-100000J0D01*
G01*
X75949999Y75499998D01*
G75*
G02*
X75849999Y75599998I0J100000D01*
G01*
X75849999Y76499998D01*
G75*
G02*
X75949999Y76599998I100000J0D01*
G01*
X76749999Y76599998D01*
G75*
G02*
X76849999Y76499998I0J-100000D01*
G01*
G37*
G36*
G01*
X75149999Y76499998D02*
X75149999Y75599998D01*
G75*
G02*
X75049999Y75499998I-100000J0D01*
G01*
X74249999Y75499998D01*
G75*
G02*
X74149999Y75599998I0J100000D01*
G01*
X74149999Y76499998D01*
G75*
G02*
X74249999Y76599998I100000J0D01*
G01*
X75049999Y76599998D01*
G75*
G02*
X75149999Y76499998I0J-100000D01*
G01*
G37*
G04 #@! TD*
D16*
G04 #@! TO.C,M7*
X53075001Y7024997D03*
G04 #@! TD*
G04 #@! TO.C,D9*
G36*
G01*
X71638000Y72074000D02*
X71638000Y71174000D01*
G75*
G02*
X71538000Y71074000I-100000J0D01*
G01*
X70738000Y71074000D01*
G75*
G02*
X70638000Y71174000I0J100000D01*
G01*
X70638000Y72074000D01*
G75*
G02*
X70738000Y72174000I100000J0D01*
G01*
X71538000Y72174000D01*
G75*
G02*
X71638000Y72074000I0J-100000D01*
G01*
G37*
G36*
G01*
X69938000Y72074000D02*
X69938000Y71174000D01*
G75*
G02*
X69838000Y71074000I-100000J0D01*
G01*
X69038000Y71074000D01*
G75*
G02*
X68938000Y71174000I0J100000D01*
G01*
X68938000Y72074000D01*
G75*
G02*
X69038000Y72174000I100000J0D01*
G01*
X69838000Y72174000D01*
G75*
G02*
X69938000Y72074000I0J-100000D01*
G01*
G37*
G04 #@! TD*
G04 #@! TO.C,D44*
G36*
G01*
X35399999Y76499998D02*
X35399999Y75599998D01*
G75*
G02*
X35299999Y75499998I-100000J0D01*
G01*
X34499999Y75499998D01*
G75*
G02*
X34399999Y75599998I0J100000D01*
G01*
X34399999Y76499998D01*
G75*
G02*
X34499999Y76599998I100000J0D01*
G01*
X35299999Y76599998D01*
G75*
G02*
X35399999Y76499998I0J-100000D01*
G01*
G37*
G36*
G01*
X33699999Y76499998D02*
X33699999Y75599998D01*
G75*
G02*
X33599999Y75499998I-100000J0D01*
G01*
X32799999Y75499998D01*
G75*
G02*
X32699999Y75599998I0J100000D01*
G01*
X32699999Y76499998D01*
G75*
G02*
X32799999Y76599998I100000J0D01*
G01*
X33599999Y76599998D01*
G75*
G02*
X33699999Y76499998I0J-100000D01*
G01*
G37*
G04 #@! TD*
D10*
G04 #@! TO.C,Q30*
X2675000Y85775000D03*
X5725000Y85775000D03*
X2675000Y89125000D03*
X5725000Y89125000D03*
G36*
G01*
X2400000Y80050000D02*
X1440000Y80050000D01*
G75*
G02*
X1320000Y80170000I0J120000D01*
G01*
X1320000Y82130000D01*
G75*
G02*
X1440000Y82250000I120000J0D01*
G01*
X2400000Y82250000D01*
G75*
G02*
X2520000Y82130000I0J-120000D01*
G01*
X2520000Y80170000D01*
G75*
G02*
X2400000Y80050000I-120000J0D01*
G01*
G37*
G36*
G01*
X6960000Y80050000D02*
X6000000Y80050000D01*
G75*
G02*
X5880000Y80170000I0J120000D01*
G01*
X5880000Y82130000D01*
G75*
G02*
X6000000Y82250000I120000J0D01*
G01*
X6960000Y82250000D01*
G75*
G02*
X7080000Y82130000I0J-120000D01*
G01*
X7080000Y80170000D01*
G75*
G02*
X6960000Y80050000I-120000J0D01*
G01*
G37*
G04 #@! TD*
G04 #@! TO.C,D8*
G36*
G01*
X41500000Y74860000D02*
X41500000Y75340000D01*
G75*
G02*
X41560000Y75400000I60000J0D01*
G01*
X42040000Y75400000D01*
G75*
G02*
X42100000Y75340000I0J-60000D01*
G01*
X42100000Y74860000D01*
G75*
G02*
X42040000Y74800000I-60000J0D01*
G01*
X41560000Y74800000D01*
G75*
G02*
X41500000Y74860000I0J60000D01*
G01*
G37*
G36*
G01*
X41500000Y77060000D02*
X41500000Y77540000D01*
G75*
G02*
X41560000Y77600000I60000J0D01*
G01*
X42040000Y77600000D01*
G75*
G02*
X42100000Y77540000I0J-60000D01*
G01*
X42100000Y77060000D01*
G75*
G02*
X42040000Y77000000I-60000J0D01*
G01*
X41560000Y77000000D01*
G75*
G02*
X41500000Y77060000I0J60000D01*
G01*
G37*
G04 #@! TD*
G04 #@! TO.C,R49*
G36*
G01*
X39300000Y56415000D02*
X39300000Y57085000D01*
G75*
G02*
X39365000Y57150000I65000J0D01*
G01*
X39885000Y57150000D01*
G75*
G02*
X39950000Y57085000I0J-65000D01*
G01*
X39950000Y56415000D01*
G75*
G02*
X39885000Y56350000I-65000J0D01*
G01*
X39365000Y56350000D01*
G75*
G02*
X39300000Y56415000I0J65000D01*
G01*
G37*
G36*
G01*
X40275000Y56395000D02*
X40275000Y57105000D01*
G75*
G02*
X40320000Y57150000I45000J0D01*
G01*
X40680000Y57150000D01*
G75*
G02*
X40725000Y57105000I0J-45000D01*
G01*
X40725000Y56395000D01*
G75*
G02*
X40680000Y56350000I-45000J0D01*
G01*
X40320000Y56350000D01*
G75*
G02*
X40275000Y56395000I0J45000D01*
G01*
G37*
G36*
G01*
X41075000Y56395000D02*
X41075000Y57105000D01*
G75*
G02*
X41120000Y57150000I45000J0D01*
G01*
X41480000Y57150000D01*
G75*
G02*
X41525000Y57105000I0J-45000D01*
G01*
X41525000Y56395000D01*
G75*
G02*
X41480000Y56350000I-45000J0D01*
G01*
X41120000Y56350000D01*
G75*
G02*
X41075000Y56395000I0J45000D01*
G01*
G37*
G36*
G01*
X41850000Y56415000D02*
X41850000Y57085000D01*
G75*
G02*
X41915000Y57150000I65000J0D01*
G01*
X42435000Y57150000D01*
G75*
G02*
X42500000Y57085000I0J-65000D01*
G01*
X42500000Y56415000D01*
G75*
G02*
X42435000Y56350000I-65000J0D01*
G01*
X41915000Y56350000D01*
G75*
G02*
X41850000Y56415000I0J65000D01*
G01*
G37*
G36*
G01*
X41850000Y58215000D02*
X41850000Y58885000D01*
G75*
G02*
X41915000Y58950000I65000J0D01*
G01*
X42435000Y58950000D01*
G75*
G02*
X42500000Y58885000I0J-65000D01*
G01*
X42500000Y58215000D01*
G75*
G02*
X42435000Y58150000I-65000J0D01*
G01*
X41915000Y58150000D01*
G75*
G02*
X41850000Y58215000I0J65000D01*
G01*
G37*
G36*
G01*
X41075000Y58195000D02*
X41075000Y58905000D01*
G75*
G02*
X41120000Y58950000I45000J0D01*
G01*
X41480000Y58950000D01*
G75*
G02*
X41525000Y58905000I0J-45000D01*
G01*
X41525000Y58195000D01*
G75*
G02*
X41480000Y58150000I-45000J0D01*
G01*
X41120000Y58150000D01*
G75*
G02*
X41075000Y58195000I0J45000D01*
G01*
G37*
G36*
G01*
X40275000Y58195000D02*
X40275000Y58905000D01*
G75*
G02*
X40320000Y58950000I45000J0D01*
G01*
X40680000Y58950000D01*
G75*
G02*
X40725000Y58905000I0J-45000D01*
G01*
X40725000Y58195000D01*
G75*
G02*
X40680000Y58150000I-45000J0D01*
G01*
X40320000Y58150000D01*
G75*
G02*
X40275000Y58195000I0J45000D01*
G01*
G37*
G36*
G01*
X39300000Y58215000D02*
X39300000Y58885000D01*
G75*
G02*
X39365000Y58950000I65000J0D01*
G01*
X39885000Y58950000D01*
G75*
G02*
X39950000Y58885000I0J-65000D01*
G01*
X39950000Y58215000D01*
G75*
G02*
X39885000Y58150000I-65000J0D01*
G01*
X39365000Y58150000D01*
G75*
G02*
X39300000Y58215000I0J65000D01*
G01*
G37*
G04 #@! TD*
G04 #@! TO.C,D14*
G36*
G01*
X45649999Y71999998D02*
X45649999Y71099998D01*
G75*
G02*
X45549999Y70999998I-100000J0D01*
G01*
X44749999Y70999998D01*
G75*
G02*
X44649999Y71099998I0J100000D01*
G01*
X44649999Y71999998D01*
G75*
G02*
X44749999Y72099998I100000J0D01*
G01*
X45549999Y72099998D01*
G75*
G02*
X45649999Y71999998I0J-100000D01*
G01*
G37*
G36*
G01*
X43949999Y71999998D02*
X43949999Y71099998D01*
G75*
G02*
X43849999Y70999998I-100000J0D01*
G01*
X43049999Y70999998D01*
G75*
G02*
X42949999Y71099998I0J100000D01*
G01*
X42949999Y71999998D01*
G75*
G02*
X43049999Y72099998I100000J0D01*
G01*
X43849999Y72099998D01*
G75*
G02*
X43949999Y71999998I0J-100000D01*
G01*
G37*
G04 #@! TD*
D16*
G04 #@! TO.C,M1*
X32437887Y27258985D03*
X37940452Y27173784D03*
G36*
G01*
X42362884Y18433989D02*
X42362884Y18433989D01*
X42362884Y18433989D01*
X42362884Y18433989D01*
X42362884Y18433989D01*
G37*
X39362887Y17933980D03*
G04 #@! TD*
G04 #@! TO.C,Q14*
G36*
G01*
X44600000Y59775000D02*
X44300000Y59775000D01*
G75*
G02*
X44150000Y59925000I0J150000D01*
G01*
X44150000Y61100000D01*
G75*
G02*
X44300000Y61250000I150000J0D01*
G01*
X44600000Y61250000D01*
G75*
G02*
X44750000Y61100000I0J-150000D01*
G01*
X44750000Y59925000D01*
G75*
G02*
X44600000Y59775000I-150000J0D01*
G01*
G37*
G36*
G01*
X45550000Y61650000D02*
X45250000Y61650000D01*
G75*
G02*
X45100000Y61800000I0J150000D01*
G01*
X45100000Y62975000D01*
G75*
G02*
X45250000Y63125000I150000J0D01*
G01*
X45550000Y63125000D01*
G75*
G02*
X45700000Y62975000I0J-150000D01*
G01*
X45700000Y61800000D01*
G75*
G02*
X45550000Y61650000I-150000J0D01*
G01*
G37*
G36*
G01*
X46500000Y59775000D02*
X46200000Y59775000D01*
G75*
G02*
X46050000Y59925000I0J150000D01*
G01*
X46050000Y61100000D01*
G75*
G02*
X46200000Y61250000I150000J0D01*
G01*
X46500000Y61250000D01*
G75*
G02*
X46650000Y61100000I0J-150000D01*
G01*
X46650000Y59925000D01*
G75*
G02*
X46500000Y59775000I-150000J0D01*
G01*
G37*
G04 #@! TD*
G04 #@! TO.C,Q27*
G36*
G01*
X39425000Y87000000D02*
X39425000Y86700000D01*
G75*
G02*
X39275000Y86550000I-150000J0D01*
G01*
X38100000Y86550000D01*
G75*
G02*
X37950000Y86700000I0J150000D01*
G01*
X37950000Y87000000D01*
G75*
G02*
X38100000Y87150000I150000J0D01*
G01*
X39275000Y87150000D01*
G75*
G02*
X39425000Y87000000I0J-150000D01*
G01*
G37*
G36*
G01*
X37550000Y87950000D02*
X37550000Y87650000D01*
G75*
G02*
X37400000Y87500000I-150000J0D01*
G01*
X36225000Y87500000D01*
G75*
G02*
X36075000Y87650000I0J150000D01*
G01*
X36075000Y87950000D01*
G75*
G02*
X36225000Y88100000I150000J0D01*
G01*
X37400000Y88100000D01*
G75*
G02*
X37550000Y87950000I0J-150000D01*
G01*
G37*
G36*
G01*
X39425000Y88900000D02*
X39425000Y88600000D01*
G75*
G02*
X39275000Y88450000I-150000J0D01*
G01*
X38100000Y88450000D01*
G75*
G02*
X37950000Y88600000I0J150000D01*
G01*
X37950000Y88900000D01*
G75*
G02*
X38100000Y89050000I150000J0D01*
G01*
X39275000Y89050000D01*
G75*
G02*
X39425000Y88900000I0J-150000D01*
G01*
G37*
G04 #@! TD*
G04 #@! TO.C,D29*
G36*
G01*
X5300000Y31340000D02*
X5300000Y32360000D01*
G75*
G02*
X5390000Y32450000I90000J0D01*
G01*
X6110000Y32450000D01*
G75*
G02*
X6200000Y32360000I0J-90000D01*
G01*
X6200000Y31340000D01*
G75*
G02*
X6110000Y31250000I-90000J0D01*
G01*
X5390000Y31250000D01*
G75*
G02*
X5300000Y31340000I0J90000D01*
G01*
G37*
G36*
G01*
X8600000Y31340000D02*
X8600000Y32360000D01*
G75*
G02*
X8690000Y32450000I90000J0D01*
G01*
X9410000Y32450000D01*
G75*
G02*
X9500000Y32360000I0J-90000D01*
G01*
X9500000Y31340000D01*
G75*
G02*
X9410000Y31250000I-90000J0D01*
G01*
X8690000Y31250000D01*
G75*
G02*
X8600000Y31340000I0J90000D01*
G01*
G37*
G04 #@! TD*
G04 #@! TO.C,Q34*
G36*
G01*
X55550000Y59487500D02*
X55250000Y59487500D01*
G75*
G02*
X55100000Y59637500I0J150000D01*
G01*
X55100000Y60812500D01*
G75*
G02*
X55250000Y60962500I150000J0D01*
G01*
X55550000Y60962500D01*
G75*
G02*
X55700000Y60812500I0J-150000D01*
G01*
X55700000Y59637500D01*
G75*
G02*
X55550000Y59487500I-150000J0D01*
G01*
G37*
G36*
G01*
X56500000Y61362500D02*
X56200000Y61362500D01*
G75*
G02*
X56050000Y61512500I0J150000D01*
G01*
X56050000Y62687500D01*
G75*
G02*
X56200000Y62837500I150000J0D01*
G01*
X56500000Y62837500D01*
G75*
G02*
X56650000Y62687500I0J-150000D01*
G01*
X56650000Y61512500D01*
G75*
G02*
X56500000Y61362500I-150000J0D01*
G01*
G37*
G36*
G01*
X57450000Y59487500D02*
X57150000Y59487500D01*
G75*
G02*
X57000000Y59637500I0J150000D01*
G01*
X57000000Y60812500D01*
G75*
G02*
X57150000Y60962500I150000J0D01*
G01*
X57450000Y60962500D01*
G75*
G02*
X57600000Y60812500I0J-150000D01*
G01*
X57600000Y59637500D01*
G75*
G02*
X57450000Y59487500I-150000J0D01*
G01*
G37*
G04 #@! TD*
G04 #@! TO.C,D32*
G36*
G01*
X50949999Y68449998D02*
X50949999Y67549998D01*
G75*
G02*
X50849999Y67449998I-100000J0D01*
G01*
X50049999Y67449998D01*
G75*
G02*
X49949999Y67549998I0J100000D01*
G01*
X49949999Y68449998D01*
G75*
G02*
X50049999Y68549998I100000J0D01*
G01*
X50849999Y68549998D01*
G75*
G02*
X50949999Y68449998I0J-100000D01*
G01*
G37*
G36*
G01*
X49249999Y68449998D02*
X49249999Y67549998D01*
G75*
G02*
X49149999Y67449998I-100000J0D01*
G01*
X48349999Y67449998D01*
G75*
G02*
X48249999Y67549998I0J100000D01*
G01*
X48249999Y68449998D01*
G75*
G02*
X48349999Y68549998I100000J0D01*
G01*
X49149999Y68549998D01*
G75*
G02*
X49249999Y68449998I0J-100000D01*
G01*
G37*
G04 #@! TD*
G04 #@! TO.C,C9*
G36*
G01*
X40275000Y83600000D02*
X41325000Y83600000D01*
G75*
G02*
X41425000Y83500000I0J-100000D01*
G01*
X41425000Y82700000D01*
G75*
G02*
X41325000Y82600000I-100000J0D01*
G01*
X40275000Y82600000D01*
G75*
G02*
X40175000Y82700000I0J100000D01*
G01*
X40175000Y83500000D01*
G75*
G02*
X40275000Y83600000I100000J0D01*
G01*
G37*
G36*
G01*
X40275000Y81600000D02*
X41325000Y81600000D01*
G75*
G02*
X41425000Y81500000I0J-100000D01*
G01*
X41425000Y80700000D01*
G75*
G02*
X41325000Y80600000I-100000J0D01*
G01*
X40275000Y80600000D01*
G75*
G02*
X40175000Y80700000I0J100000D01*
G01*
X40175000Y81500000D01*
G75*
G02*
X40275000Y81600000I100000J0D01*
G01*
G37*
G04 #@! TD*
G04 #@! TO.C,C5*
G36*
G01*
X3975001Y40478010D02*
X3975001Y39798010D01*
G75*
G02*
X3890001Y39713010I-85000J0D01*
G01*
X3210001Y39713010D01*
G75*
G02*
X3125001Y39798010I0J85000D01*
G01*
X3125001Y40478010D01*
G75*
G02*
X3210001Y40563010I85000J0D01*
G01*
X3890001Y40563010D01*
G75*
G02*
X3975001Y40478010I0J-85000D01*
G01*
G37*
G36*
G01*
X2394999Y40478010D02*
X2394999Y39798010D01*
G75*
G02*
X2309999Y39713010I-85000J0D01*
G01*
X1629999Y39713010D01*
G75*
G02*
X1544999Y39798010I0J85000D01*
G01*
X1544999Y40478010D01*
G75*
G02*
X1629999Y40563010I85000J0D01*
G01*
X2309999Y40563010D01*
G75*
G02*
X2394999Y40478010I0J-85000D01*
G01*
G37*
G04 #@! TD*
G04 #@! TO.C,D16*
G36*
G01*
X45699997Y76449998D02*
X45699997Y75549998D01*
G75*
G02*
X45599997Y75449998I-100000J0D01*
G01*
X44799997Y75449998D01*
G75*
G02*
X44699997Y75549998I0J100000D01*
G01*
X44699997Y76449998D01*
G75*
G02*
X44799997Y76549998I100000J0D01*
G01*
X45599997Y76549998D01*
G75*
G02*
X45699997Y76449998I0J-100000D01*
G01*
G37*
G36*
G01*
X43999997Y76449998D02*
X43999997Y75549998D01*
G75*
G02*
X43899997Y75449998I-100000J0D01*
G01*
X43099997Y75449998D01*
G75*
G02*
X42999997Y75549998I0J100000D01*
G01*
X42999997Y76449998D01*
G75*
G02*
X43099997Y76549998I100000J0D01*
G01*
X43899997Y76549998D01*
G75*
G02*
X43999997Y76449998I0J-100000D01*
G01*
G37*
G04 #@! TD*
G04 #@! TO.C,D24*
G36*
G01*
X66449999Y72049998D02*
X66449999Y71149998D01*
G75*
G02*
X66349999Y71049998I-100000J0D01*
G01*
X65549999Y71049998D01*
G75*
G02*
X65449999Y71149998I0J100000D01*
G01*
X65449999Y72049998D01*
G75*
G02*
X65549999Y72149998I100000J0D01*
G01*
X66349999Y72149998D01*
G75*
G02*
X66449999Y72049998I0J-100000D01*
G01*
G37*
G36*
G01*
X64749999Y72049998D02*
X64749999Y71149998D01*
G75*
G02*
X64649999Y71049998I-100000J0D01*
G01*
X63849999Y71049998D01*
G75*
G02*
X63749999Y71149998I0J100000D01*
G01*
X63749999Y72049998D01*
G75*
G02*
X63849999Y72149998I100000J0D01*
G01*
X64649999Y72149998D01*
G75*
G02*
X64749999Y72049998I0J-100000D01*
G01*
G37*
G04 #@! TD*
G04 #@! TO.C,R3*
G36*
G01*
X65310000Y88950000D02*
X66090000Y88950000D01*
G75*
G02*
X66160000Y88880000I0J-70000D01*
G01*
X66160000Y88320000D01*
G75*
G02*
X66090000Y88250000I-70000J0D01*
G01*
X65310000Y88250000D01*
G75*
G02*
X65240000Y88320000I0J70000D01*
G01*
X65240000Y88880000D01*
G75*
G02*
X65310000Y88950000I70000J0D01*
G01*
G37*
G36*
G01*
X65310000Y87350000D02*
X66090000Y87350000D01*
G75*
G02*
X66160000Y87280000I0J-70000D01*
G01*
X66160000Y86720000D01*
G75*
G02*
X66090000Y86650000I-70000J0D01*
G01*
X65310000Y86650000D01*
G75*
G02*
X65240000Y86720000I0J70000D01*
G01*
X65240000Y87280000D01*
G75*
G02*
X65310000Y87350000I70000J0D01*
G01*
G37*
G04 #@! TD*
G04 #@! TO.C,D50*
G36*
G01*
X27310000Y74800000D02*
X26290000Y74800000D01*
G75*
G02*
X26200000Y74890000I0J90000D01*
G01*
X26200000Y75610000D01*
G75*
G02*
X26290000Y75700000I90000J0D01*
G01*
X27310000Y75700000D01*
G75*
G02*
X27400000Y75610000I0J-90000D01*
G01*
X27400000Y74890000D01*
G75*
G02*
X27310000Y74800000I-90000J0D01*
G01*
G37*
G36*
G01*
X27310000Y78100000D02*
X26290000Y78100000D01*
G75*
G02*
X26200000Y78190000I0J90000D01*
G01*
X26200000Y78910000D01*
G75*
G02*
X26290000Y79000000I90000J0D01*
G01*
X27310000Y79000000D01*
G75*
G02*
X27400000Y78910000I0J-90000D01*
G01*
X27400000Y78190000D01*
G75*
G02*
X27310000Y78100000I-90000J0D01*
G01*
G37*
G04 #@! TD*
G04 #@! TO.C,R10*
G36*
G01*
X66725000Y93599999D02*
X65475000Y93599999D01*
G75*
G02*
X65375000Y93699999I0J100000D01*
G01*
X65375000Y94499999D01*
G75*
G02*
X65475000Y94599999I100000J0D01*
G01*
X66725000Y94599999D01*
G75*
G02*
X66825000Y94499999I0J-100000D01*
G01*
X66825000Y93699999D01*
G75*
G02*
X66725000Y93599999I-100000J0D01*
G01*
G37*
G36*
G01*
X66725000Y95500021D02*
X65475000Y95500021D01*
G75*
G02*
X65375000Y95600021I0J100000D01*
G01*
X65375000Y96400021D01*
G75*
G02*
X65475000Y96500021I100000J0D01*
G01*
X66725000Y96500021D01*
G75*
G02*
X66825000Y96400021I0J-100000D01*
G01*
X66825000Y95600021D01*
G75*
G02*
X66725000Y95500021I-100000J0D01*
G01*
G37*
G04 #@! TD*
G04 #@! TO.C,R76*
G36*
G01*
X20490000Y40900000D02*
X19710000Y40900000D01*
G75*
G02*
X19640000Y40970000I0J70000D01*
G01*
X19640000Y41530000D01*
G75*
G02*
X19710000Y41600000I70000J0D01*
G01*
X20490000Y41600000D01*
G75*
G02*
X20560000Y41530000I0J-70000D01*
G01*
X20560000Y40970000D01*
G75*
G02*
X20490000Y40900000I-70000J0D01*
G01*
G37*
G36*
G01*
X20490000Y42500000D02*
X19710000Y42500000D01*
G75*
G02*
X19640000Y42570000I0J70000D01*
G01*
X19640000Y43130000D01*
G75*
G02*
X19710000Y43200000I70000J0D01*
G01*
X20490000Y43200000D01*
G75*
G02*
X20560000Y43130000I0J-70000D01*
G01*
X20560000Y42570000D01*
G75*
G02*
X20490000Y42500000I-70000J0D01*
G01*
G37*
G04 #@! TD*
G04 #@! TO.C,D19*
G36*
G01*
X55888000Y72024000D02*
X55888000Y71124000D01*
G75*
G02*
X55788000Y71024000I-100000J0D01*
G01*
X54988000Y71024000D01*
G75*
G02*
X54888000Y71124000I0J100000D01*
G01*
X54888000Y72024000D01*
G75*
G02*
X54988000Y72124000I100000J0D01*
G01*
X55788000Y72124000D01*
G75*
G02*
X55888000Y72024000I0J-100000D01*
G01*
G37*
G36*
G01*
X54188000Y72024000D02*
X54188000Y71124000D01*
G75*
G02*
X54088000Y71024000I-100000J0D01*
G01*
X53288000Y71024000D01*
G75*
G02*
X53188000Y71124000I0J100000D01*
G01*
X53188000Y72024000D01*
G75*
G02*
X53288000Y72124000I100000J0D01*
G01*
X54088000Y72124000D01*
G75*
G02*
X54188000Y72024000I0J-100000D01*
G01*
G37*
G04 #@! TD*
G04 #@! TO.C,D21*
G36*
G01*
X36412503Y70561498D02*
X36412503Y71041498D01*
G75*
G02*
X36472503Y71101498I60000J0D01*
G01*
X36952503Y71101498D01*
G75*
G02*
X37012503Y71041498I0J-60000D01*
G01*
X37012503Y70561498D01*
G75*
G02*
X36952503Y70501498I-60000J0D01*
G01*
X36472503Y70501498D01*
G75*
G02*
X36412503Y70561498I0J60000D01*
G01*
G37*
G36*
G01*
X36412503Y72761498D02*
X36412503Y73241498D01*
G75*
G02*
X36472503Y73301498I60000J0D01*
G01*
X36952503Y73301498D01*
G75*
G02*
X37012503Y73241498I0J-60000D01*
G01*
X37012503Y72761498D01*
G75*
G02*
X36952503Y72701498I-60000J0D01*
G01*
X36472503Y72701498D01*
G75*
G02*
X36412503Y72761498I0J60000D01*
G01*
G37*
G04 #@! TD*
G04 #@! TO.C,R62*
G36*
G01*
X29125000Y93849999D02*
X27875000Y93849999D01*
G75*
G02*
X27775000Y93949999I0J100000D01*
G01*
X27775000Y94749999D01*
G75*
G02*
X27875000Y94849999I100000J0D01*
G01*
X29125000Y94849999D01*
G75*
G02*
X29225000Y94749999I0J-100000D01*
G01*
X29225000Y93949999D01*
G75*
G02*
X29125000Y93849999I-100000J0D01*
G01*
G37*
G36*
G01*
X29125000Y95750021D02*
X27875000Y95750021D01*
G75*
G02*
X27775000Y95850021I0J100000D01*
G01*
X27775000Y96650021D01*
G75*
G02*
X27875000Y96750021I100000J0D01*
G01*
X29125000Y96750021D01*
G75*
G02*
X29225000Y96650021I0J-100000D01*
G01*
X29225000Y95850021D01*
G75*
G02*
X29125000Y95750021I-100000J0D01*
G01*
G37*
G04 #@! TD*
G04 #@! TO.C,D23*
G36*
G01*
X61299999Y72099998D02*
X61299999Y71199998D01*
G75*
G02*
X61199999Y71099998I-100000J0D01*
G01*
X60399999Y71099998D01*
G75*
G02*
X60299999Y71199998I0J100000D01*
G01*
X60299999Y72099998D01*
G75*
G02*
X60399999Y72199998I100000J0D01*
G01*
X61199999Y72199998D01*
G75*
G02*
X61299999Y72099998I0J-100000D01*
G01*
G37*
G36*
G01*
X59599999Y72099998D02*
X59599999Y71199998D01*
G75*
G02*
X59499999Y71099998I-100000J0D01*
G01*
X58699999Y71099998D01*
G75*
G02*
X58599999Y71199998I0J100000D01*
G01*
X58599999Y72099998D01*
G75*
G02*
X58699999Y72199998I100000J0D01*
G01*
X59499999Y72199998D01*
G75*
G02*
X59599999Y72099998I0J-100000D01*
G01*
G37*
G04 #@! TD*
G04 #@! TO.C,R65*
G36*
G01*
X10475000Y94049999D02*
X9225000Y94049999D01*
G75*
G02*
X9125000Y94149999I0J100000D01*
G01*
X9125000Y94949999D01*
G75*
G02*
X9225000Y95049999I100000J0D01*
G01*
X10475000Y95049999D01*
G75*
G02*
X10575000Y94949999I0J-100000D01*
G01*
X10575000Y94149999D01*
G75*
G02*
X10475000Y94049999I-100000J0D01*
G01*
G37*
G36*
G01*
X10475000Y95950021D02*
X9225000Y95950021D01*
G75*
G02*
X9125000Y96050021I0J100000D01*
G01*
X9125000Y96850021D01*
G75*
G02*
X9225000Y96950021I100000J0D01*
G01*
X10475000Y96950021D01*
G75*
G02*
X10575000Y96850021I0J-100000D01*
G01*
X10575000Y96050021D01*
G75*
G02*
X10475000Y95950021I-100000J0D01*
G01*
G37*
G04 #@! TD*
G04 #@! TO.C,D41*
G36*
G01*
X46950000Y75111499D02*
X46950000Y75591499D01*
G75*
G02*
X47010000Y75651499I60000J0D01*
G01*
X47490000Y75651499D01*
G75*
G02*
X47550000Y75591499I0J-60000D01*
G01*
X47550000Y75111499D01*
G75*
G02*
X47490000Y75051499I-60000J0D01*
G01*
X47010000Y75051499D01*
G75*
G02*
X46950000Y75111499I0J60000D01*
G01*
G37*
G36*
G01*
X46950000Y77311499D02*
X46950000Y77791499D01*
G75*
G02*
X47010000Y77851499I60000J0D01*
G01*
X47490000Y77851499D01*
G75*
G02*
X47550000Y77791499I0J-60000D01*
G01*
X47550000Y77311499D01*
G75*
G02*
X47490000Y77251499I-60000J0D01*
G01*
X47010000Y77251499D01*
G75*
G02*
X46950000Y77311499I0J60000D01*
G01*
G37*
G04 #@! TD*
G04 #@! TO.C,R31*
G36*
G01*
X47660000Y54710000D02*
X47660000Y55490000D01*
G75*
G02*
X47730000Y55560000I70000J0D01*
G01*
X48290000Y55560000D01*
G75*
G02*
X48360000Y55490000I0J-70000D01*
G01*
X48360000Y54710000D01*
G75*
G02*
X48290000Y54640000I-70000J0D01*
G01*
X47730000Y54640000D01*
G75*
G02*
X47660000Y54710000I0J70000D01*
G01*
G37*
G36*
G01*
X49260000Y54710000D02*
X49260000Y55490000D01*
G75*
G02*
X49330000Y55560000I70000J0D01*
G01*
X49890000Y55560000D01*
G75*
G02*
X49960000Y55490000I0J-70000D01*
G01*
X49960000Y54710000D01*
G75*
G02*
X49890000Y54640000I-70000J0D01*
G01*
X49330000Y54640000D01*
G75*
G02*
X49260000Y54710000I0J70000D01*
G01*
G37*
G04 #@! TD*
G04 #@! TO.C,F7*
G36*
G01*
X32000000Y96054989D02*
X32000000Y96744989D01*
G75*
G02*
X32230000Y96974989I230000J0D01*
G01*
X33570000Y96974989D01*
G75*
G02*
X33800000Y96744989I0J-230000D01*
G01*
X33800000Y96054989D01*
G75*
G02*
X33570000Y95824989I-230000J0D01*
G01*
X32230000Y95824989D01*
G75*
G02*
X32000000Y96054989I0J230000D01*
G01*
G37*
G36*
G01*
X32000000Y93154969D02*
X32000000Y93844969D01*
G75*
G02*
X32230000Y94074969I230000J0D01*
G01*
X33570000Y94074969D01*
G75*
G02*
X33800000Y93844969I0J-230000D01*
G01*
X33800000Y93154969D01*
G75*
G02*
X33570000Y92924969I-230000J0D01*
G01*
X32230000Y92924969D01*
G75*
G02*
X32000000Y93154969I0J230000D01*
G01*
G37*
G04 #@! TD*
D17*
G04 #@! TO.C,U1*
X60645000Y83205000D03*
X61915000Y83205000D03*
X63185000Y83205000D03*
D18*
X64455000Y83205000D03*
D17*
X64455000Y88895000D03*
X63185000Y88895000D03*
X61915000Y88895000D03*
X60645000Y88895000D03*
D19*
X61800000Y86712500D03*
X63300000Y85387500D03*
X61800000Y85387500D03*
X63300000Y86712500D03*
G04 #@! TD*
G04 #@! TO.C,Q17*
G36*
G01*
X6900000Y54125010D02*
X7200000Y54125010D01*
G75*
G02*
X7350000Y53975010I0J-150000D01*
G01*
X7350000Y52800010D01*
G75*
G02*
X7200000Y52650010I-150000J0D01*
G01*
X6900000Y52650010D01*
G75*
G02*
X6750000Y52800010I0J150000D01*
G01*
X6750000Y53975010D01*
G75*
G02*
X6900000Y54125010I150000J0D01*
G01*
G37*
G36*
G01*
X5950000Y52250010D02*
X6250000Y52250010D01*
G75*
G02*
X6400000Y52100010I0J-150000D01*
G01*
X6400000Y50925010D01*
G75*
G02*
X6250000Y50775010I-150000J0D01*
G01*
X5950000Y50775010D01*
G75*
G02*
X5800000Y50925010I0J150000D01*
G01*
X5800000Y52100010D01*
G75*
G02*
X5950000Y52250010I150000J0D01*
G01*
G37*
G36*
G01*
X5000000Y54125010D02*
X5300000Y54125010D01*
G75*
G02*
X5450000Y53975010I0J-150000D01*
G01*
X5450000Y52800010D01*
G75*
G02*
X5300000Y52650010I-150000J0D01*
G01*
X5000000Y52650010D01*
G75*
G02*
X4850000Y52800010I0J150000D01*
G01*
X4850000Y53975010D01*
G75*
G02*
X5000000Y54125010I150000J0D01*
G01*
G37*
G04 #@! TD*
G04 #@! TO.C,R5*
G36*
G01*
X27615000Y69250000D02*
X28285000Y69250000D01*
G75*
G02*
X28350000Y69185000I0J-65000D01*
G01*
X28350000Y68665000D01*
G75*
G02*
X28285000Y68600000I-65000J0D01*
G01*
X27615000Y68600000D01*
G75*
G02*
X27550000Y68665000I0J65000D01*
G01*
X27550000Y69185000D01*
G75*
G02*
X27615000Y69250000I65000J0D01*
G01*
G37*
G36*
G01*
X27595000Y68275000D02*
X28305000Y68275000D01*
G75*
G02*
X28350000Y68230000I0J-45000D01*
G01*
X28350000Y67870000D01*
G75*
G02*
X28305000Y67825000I-45000J0D01*
G01*
X27595000Y67825000D01*
G75*
G02*
X27550000Y67870000I0J45000D01*
G01*
X27550000Y68230000D01*
G75*
G02*
X27595000Y68275000I45000J0D01*
G01*
G37*
G36*
G01*
X27595000Y67475000D02*
X28305000Y67475000D01*
G75*
G02*
X28350000Y67430000I0J-45000D01*
G01*
X28350000Y67070000D01*
G75*
G02*
X28305000Y67025000I-45000J0D01*
G01*
X27595000Y67025000D01*
G75*
G02*
X27550000Y67070000I0J45000D01*
G01*
X27550000Y67430000D01*
G75*
G02*
X27595000Y67475000I45000J0D01*
G01*
G37*
G36*
G01*
X27615000Y66700000D02*
X28285000Y66700000D01*
G75*
G02*
X28350000Y66635000I0J-65000D01*
G01*
X28350000Y66115000D01*
G75*
G02*
X28285000Y66050000I-65000J0D01*
G01*
X27615000Y66050000D01*
G75*
G02*
X27550000Y66115000I0J65000D01*
G01*
X27550000Y66635000D01*
G75*
G02*
X27615000Y66700000I65000J0D01*
G01*
G37*
G36*
G01*
X29415000Y66700000D02*
X30085000Y66700000D01*
G75*
G02*
X30150000Y66635000I0J-65000D01*
G01*
X30150000Y66115000D01*
G75*
G02*
X30085000Y66050000I-65000J0D01*
G01*
X29415000Y66050000D01*
G75*
G02*
X29350000Y66115000I0J65000D01*
G01*
X29350000Y66635000D01*
G75*
G02*
X29415000Y66700000I65000J0D01*
G01*
G37*
G36*
G01*
X29395000Y67475000D02*
X30105000Y67475000D01*
G75*
G02*
X30150000Y67430000I0J-45000D01*
G01*
X30150000Y67070000D01*
G75*
G02*
X30105000Y67025000I-45000J0D01*
G01*
X29395000Y67025000D01*
G75*
G02*
X29350000Y67070000I0J45000D01*
G01*
X29350000Y67430000D01*
G75*
G02*
X29395000Y67475000I45000J0D01*
G01*
G37*
G36*
G01*
X29395000Y68275000D02*
X30105000Y68275000D01*
G75*
G02*
X30150000Y68230000I0J-45000D01*
G01*
X30150000Y67870000D01*
G75*
G02*
X30105000Y67825000I-45000J0D01*
G01*
X29395000Y67825000D01*
G75*
G02*
X29350000Y67870000I0J45000D01*
G01*
X29350000Y68230000D01*
G75*
G02*
X29395000Y68275000I45000J0D01*
G01*
G37*
G36*
G01*
X29415000Y69250000D02*
X30085000Y69250000D01*
G75*
G02*
X30150000Y69185000I0J-65000D01*
G01*
X30150000Y68665000D01*
G75*
G02*
X30085000Y68600000I-65000J0D01*
G01*
X29415000Y68600000D01*
G75*
G02*
X29350000Y68665000I0J65000D01*
G01*
X29350000Y69185000D01*
G75*
G02*
X29415000Y69250000I65000J0D01*
G01*
G37*
G04 #@! TD*
G04 #@! TO.C,D2*
G36*
G01*
X42262503Y69490000D02*
X42262503Y69010000D01*
G75*
G02*
X42202503Y68950000I-60000J0D01*
G01*
X41722503Y68950000D01*
G75*
G02*
X41662503Y69010000I0J60000D01*
G01*
X41662503Y69490000D01*
G75*
G02*
X41722503Y69550000I60000J0D01*
G01*
X42202503Y69550000D01*
G75*
G02*
X42262503Y69490000I0J-60000D01*
G01*
G37*
G36*
G01*
X42262503Y67290000D02*
X42262503Y66810000D01*
G75*
G02*
X42202503Y66750000I-60000J0D01*
G01*
X41722503Y66750000D01*
G75*
G02*
X41662503Y66810000I0J60000D01*
G01*
X41662503Y67290000D01*
G75*
G02*
X41722503Y67350000I60000J0D01*
G01*
X42202503Y67350000D01*
G75*
G02*
X42262503Y67290000I0J-60000D01*
G01*
G37*
G04 #@! TD*
G04 #@! TO.C,R43*
G36*
G01*
X16460000Y46100000D02*
X17240000Y46100000D01*
G75*
G02*
X17310000Y46030000I0J-70000D01*
G01*
X17310000Y45470000D01*
G75*
G02*
X17240000Y45400000I-70000J0D01*
G01*
X16460000Y45400000D01*
G75*
G02*
X16390000Y45470000I0J70000D01*
G01*
X16390000Y46030000D01*
G75*
G02*
X16460000Y46100000I70000J0D01*
G01*
G37*
G36*
G01*
X16460000Y44500000D02*
X17240000Y44500000D01*
G75*
G02*
X17310000Y44430000I0J-70000D01*
G01*
X17310000Y43870000D01*
G75*
G02*
X17240000Y43800000I-70000J0D01*
G01*
X16460000Y43800000D01*
G75*
G02*
X16390000Y43870000I0J70000D01*
G01*
X16390000Y44430000D01*
G75*
G02*
X16460000Y44500000I70000J0D01*
G01*
G37*
G04 #@! TD*
G04 #@! TO.C,R58*
G36*
G01*
X1972390Y94016700D02*
X722390Y94016700D01*
G75*
G02*
X622390Y94116700I0J100000D01*
G01*
X622390Y94916700D01*
G75*
G02*
X722390Y95016700I100000J0D01*
G01*
X1972390Y95016700D01*
G75*
G02*
X2072390Y94916700I0J-100000D01*
G01*
X2072390Y94116700D01*
G75*
G02*
X1972390Y94016700I-100000J0D01*
G01*
G37*
G36*
G01*
X1972390Y95916722D02*
X722390Y95916722D01*
G75*
G02*
X622390Y96016722I0J100000D01*
G01*
X622390Y96816722D01*
G75*
G02*
X722390Y96916722I100000J0D01*
G01*
X1972390Y96916722D01*
G75*
G02*
X2072390Y96816722I0J-100000D01*
G01*
X2072390Y96016722D01*
G75*
G02*
X1972390Y95916722I-100000J0D01*
G01*
G37*
G04 #@! TD*
G04 #@! TO.C,D43*
G36*
G01*
X40649999Y68449998D02*
X40649999Y67549998D01*
G75*
G02*
X40549999Y67449998I-100000J0D01*
G01*
X39749999Y67449998D01*
G75*
G02*
X39649999Y67549998I0J100000D01*
G01*
X39649999Y68449998D01*
G75*
G02*
X39749999Y68549998I100000J0D01*
G01*
X40549999Y68549998D01*
G75*
G02*
X40649999Y68449998I0J-100000D01*
G01*
G37*
G36*
G01*
X38949999Y68449998D02*
X38949999Y67549998D01*
G75*
G02*
X38849999Y67449998I-100000J0D01*
G01*
X38049999Y67449998D01*
G75*
G02*
X37949999Y67549998I0J100000D01*
G01*
X37949999Y68449998D01*
G75*
G02*
X38049999Y68549998I100000J0D01*
G01*
X38849999Y68549998D01*
G75*
G02*
X38949999Y68449998I0J-100000D01*
G01*
G37*
G04 #@! TD*
G04 #@! TO.C,D10*
G36*
G01*
X66449999Y76499998D02*
X66449999Y75599998D01*
G75*
G02*
X66349999Y75499998I-100000J0D01*
G01*
X65549999Y75499998D01*
G75*
G02*
X65449999Y75599998I0J100000D01*
G01*
X65449999Y76499998D01*
G75*
G02*
X65549999Y76599998I100000J0D01*
G01*
X66349999Y76599998D01*
G75*
G02*
X66449999Y76499998I0J-100000D01*
G01*
G37*
G36*
G01*
X64749999Y76499998D02*
X64749999Y75599998D01*
G75*
G02*
X64649999Y75499998I-100000J0D01*
G01*
X63849999Y75499998D01*
G75*
G02*
X63749999Y75599998I0J100000D01*
G01*
X63749999Y76499998D01*
G75*
G02*
X63849999Y76599998I100000J0D01*
G01*
X64649999Y76599998D01*
G75*
G02*
X64749999Y76499998I0J-100000D01*
G01*
G37*
G04 #@! TD*
G04 #@! TO.C,R56*
G36*
G01*
X14625000Y94099999D02*
X13375000Y94099999D01*
G75*
G02*
X13275000Y94199999I0J100000D01*
G01*
X13275000Y94999999D01*
G75*
G02*
X13375000Y95099999I100000J0D01*
G01*
X14625000Y95099999D01*
G75*
G02*
X14725000Y94999999I0J-100000D01*
G01*
X14725000Y94199999D01*
G75*
G02*
X14625000Y94099999I-100000J0D01*
G01*
G37*
G36*
G01*
X14625000Y96000021D02*
X13375000Y96000021D01*
G75*
G02*
X13275000Y96100021I0J100000D01*
G01*
X13275000Y96900021D01*
G75*
G02*
X13375000Y97000021I100000J0D01*
G01*
X14625000Y97000021D01*
G75*
G02*
X14725000Y96900021I0J-100000D01*
G01*
X14725000Y96100021D01*
G75*
G02*
X14625000Y96000021I-100000J0D01*
G01*
G37*
G04 #@! TD*
G04 #@! TO.C,Q20*
G36*
G01*
X17575000Y50750010D02*
X17575000Y50450010D01*
G75*
G02*
X17425000Y50300010I-150000J0D01*
G01*
X16250000Y50300010D01*
G75*
G02*
X16100000Y50450010I0J150000D01*
G01*
X16100000Y50750010D01*
G75*
G02*
X16250000Y50900010I150000J0D01*
G01*
X17425000Y50900010D01*
G75*
G02*
X17575000Y50750010I0J-150000D01*
G01*
G37*
G36*
G01*
X15700000Y51700010D02*
X15700000Y51400010D01*
G75*
G02*
X15550000Y51250010I-150000J0D01*
G01*
X14375000Y51250010D01*
G75*
G02*
X14225000Y51400010I0J150000D01*
G01*
X14225000Y51700010D01*
G75*
G02*
X14375000Y51850010I150000J0D01*
G01*
X15550000Y51850010D01*
G75*
G02*
X15700000Y51700010I0J-150000D01*
G01*
G37*
G36*
G01*
X17575000Y52650010D02*
X17575000Y52350010D01*
G75*
G02*
X17425000Y52200010I-150000J0D01*
G01*
X16250000Y52200010D01*
G75*
G02*
X16100000Y52350010I0J150000D01*
G01*
X16100000Y52650010D01*
G75*
G02*
X16250000Y52800010I150000J0D01*
G01*
X17425000Y52800010D01*
G75*
G02*
X17575000Y52650010I0J-150000D01*
G01*
G37*
G04 #@! TD*
D10*
G04 #@! TO.C,Q26*
X10375000Y85725000D03*
X10375000Y89075000D03*
X13425000Y85725000D03*
X13425000Y89075000D03*
G36*
G01*
X10100000Y80000000D02*
X9140000Y80000000D01*
G75*
G02*
X9020000Y80120000I0J120000D01*
G01*
X9020000Y82080000D01*
G75*
G02*
X9140000Y82200000I120000J0D01*
G01*
X10100000Y82200000D01*
G75*
G02*
X10220000Y82080000I0J-120000D01*
G01*
X10220000Y80120000D01*
G75*
G02*
X10100000Y80000000I-120000J0D01*
G01*
G37*
G36*
G01*
X14660000Y80000000D02*
X13700000Y80000000D01*
G75*
G02*
X13580000Y80120000I0J120000D01*
G01*
X13580000Y82080000D01*
G75*
G02*
X13700000Y82200000I120000J0D01*
G01*
X14660000Y82200000D01*
G75*
G02*
X14780000Y82080000I0J-120000D01*
G01*
X14780000Y80120000D01*
G75*
G02*
X14660000Y80000000I-120000J0D01*
G01*
G37*
G04 #@! TD*
G04 #@! TO.C,C8*
G36*
G01*
X47075000Y83600000D02*
X48125000Y83600000D01*
G75*
G02*
X48225000Y83500000I0J-100000D01*
G01*
X48225000Y82700000D01*
G75*
G02*
X48125000Y82600000I-100000J0D01*
G01*
X47075000Y82600000D01*
G75*
G02*
X46975000Y82700000I0J100000D01*
G01*
X46975000Y83500000D01*
G75*
G02*
X47075000Y83600000I100000J0D01*
G01*
G37*
G36*
G01*
X47075000Y81600000D02*
X48125000Y81600000D01*
G75*
G02*
X48225000Y81500000I0J-100000D01*
G01*
X48225000Y80700000D01*
G75*
G02*
X48125000Y80600000I-100000J0D01*
G01*
X47075000Y80600000D01*
G75*
G02*
X46975000Y80700000I0J100000D01*
G01*
X46975000Y81500000D01*
G75*
G02*
X47075000Y81600000I100000J0D01*
G01*
G37*
G04 #@! TD*
G04 #@! TO.C,D17*
G36*
G01*
X40599999Y72049998D02*
X40599999Y71149998D01*
G75*
G02*
X40499999Y71049998I-100000J0D01*
G01*
X39699999Y71049998D01*
G75*
G02*
X39599999Y71149998I0J100000D01*
G01*
X39599999Y72049998D01*
G75*
G02*
X39699999Y72149998I100000J0D01*
G01*
X40499999Y72149998D01*
G75*
G02*
X40599999Y72049998I0J-100000D01*
G01*
G37*
G36*
G01*
X38899999Y72049998D02*
X38899999Y71149998D01*
G75*
G02*
X38799999Y71049998I-100000J0D01*
G01*
X37999999Y71049998D01*
G75*
G02*
X37899999Y71149998I0J100000D01*
G01*
X37899999Y72049998D01*
G75*
G02*
X37999999Y72149998I100000J0D01*
G01*
X38799999Y72149998D01*
G75*
G02*
X38899999Y72049998I0J-100000D01*
G01*
G37*
G04 #@! TD*
G04 #@! TO.C,R89*
G36*
G01*
X60390000Y67150000D02*
X59610000Y67150000D01*
G75*
G02*
X59540000Y67220000I0J70000D01*
G01*
X59540000Y67780000D01*
G75*
G02*
X59610000Y67850000I70000J0D01*
G01*
X60390000Y67850000D01*
G75*
G02*
X60460000Y67780000I0J-70000D01*
G01*
X60460000Y67220000D01*
G75*
G02*
X60390000Y67150000I-70000J0D01*
G01*
G37*
G36*
G01*
X60390000Y68750000D02*
X59610000Y68750000D01*
G75*
G02*
X59540000Y68820000I0J70000D01*
G01*
X59540000Y69380000D01*
G75*
G02*
X59610000Y69450000I70000J0D01*
G01*
X60390000Y69450000D01*
G75*
G02*
X60460000Y69380000I0J-70000D01*
G01*
X60460000Y68820000D01*
G75*
G02*
X60390000Y68750000I-70000J0D01*
G01*
G37*
G04 #@! TD*
G04 #@! TO.C,R19*
G36*
G01*
X54575000Y93599999D02*
X53325000Y93599999D01*
G75*
G02*
X53225000Y93699999I0J100000D01*
G01*
X53225000Y94499999D01*
G75*
G02*
X53325000Y94599999I100000J0D01*
G01*
X54575000Y94599999D01*
G75*
G02*
X54675000Y94499999I0J-100000D01*
G01*
X54675000Y93699999D01*
G75*
G02*
X54575000Y93599999I-100000J0D01*
G01*
G37*
G36*
G01*
X54575000Y95500021D02*
X53325000Y95500021D01*
G75*
G02*
X53225000Y95600021I0J100000D01*
G01*
X53225000Y96400021D01*
G75*
G02*
X53325000Y96500021I100000J0D01*
G01*
X54575000Y96500021D01*
G75*
G02*
X54675000Y96400021I0J-100000D01*
G01*
X54675000Y95600021D01*
G75*
G02*
X54575000Y95500021I-100000J0D01*
G01*
G37*
G04 #@! TD*
G04 #@! TO.C,Q5*
G36*
G01*
X3400000Y54225010D02*
X3700000Y54225010D01*
G75*
G02*
X3850000Y54075010I0J-150000D01*
G01*
X3850000Y52900010D01*
G75*
G02*
X3700000Y52750010I-150000J0D01*
G01*
X3400000Y52750010D01*
G75*
G02*
X3250000Y52900010I0J150000D01*
G01*
X3250000Y54075010D01*
G75*
G02*
X3400000Y54225010I150000J0D01*
G01*
G37*
G36*
G01*
X2450000Y52350010D02*
X2750000Y52350010D01*
G75*
G02*
X2900000Y52200010I0J-150000D01*
G01*
X2900000Y51025010D01*
G75*
G02*
X2750000Y50875010I-150000J0D01*
G01*
X2450000Y50875010D01*
G75*
G02*
X2300000Y51025010I0J150000D01*
G01*
X2300000Y52200010D01*
G75*
G02*
X2450000Y52350010I150000J0D01*
G01*
G37*
G36*
G01*
X1500000Y54225010D02*
X1800000Y54225010D01*
G75*
G02*
X1950000Y54075010I0J-150000D01*
G01*
X1950000Y52900010D01*
G75*
G02*
X1800000Y52750010I-150000J0D01*
G01*
X1500000Y52750010D01*
G75*
G02*
X1350000Y52900010I0J150000D01*
G01*
X1350000Y54075010D01*
G75*
G02*
X1500000Y54225010I150000J0D01*
G01*
G37*
G04 #@! TD*
G04 #@! TO.C,Q12*
G36*
G01*
X44600000Y56425000D02*
X44300000Y56425000D01*
G75*
G02*
X44150000Y56575000I0J150000D01*
G01*
X44150000Y57750000D01*
G75*
G02*
X44300000Y57900000I150000J0D01*
G01*
X44600000Y57900000D01*
G75*
G02*
X44750000Y57750000I0J-150000D01*
G01*
X44750000Y56575000D01*
G75*
G02*
X44600000Y56425000I-150000J0D01*
G01*
G37*
G36*
G01*
X45550000Y58300000D02*
X45250000Y58300000D01*
G75*
G02*
X45100000Y58450000I0J150000D01*
G01*
X45100000Y59625000D01*
G75*
G02*
X45250000Y59775000I150000J0D01*
G01*
X45550000Y59775000D01*
G75*
G02*
X45700000Y59625000I0J-150000D01*
G01*
X45700000Y58450000D01*
G75*
G02*
X45550000Y58300000I-150000J0D01*
G01*
G37*
G36*
G01*
X46500000Y56425000D02*
X46200000Y56425000D01*
G75*
G02*
X46050000Y56575000I0J150000D01*
G01*
X46050000Y57750000D01*
G75*
G02*
X46200000Y57900000I150000J0D01*
G01*
X46500000Y57900000D01*
G75*
G02*
X46650000Y57750000I0J-150000D01*
G01*
X46650000Y56575000D01*
G75*
G02*
X46500000Y56425000I-150000J0D01*
G01*
G37*
G04 #@! TD*
G04 #@! TO.C,C11*
G36*
G01*
X52175000Y83600000D02*
X53225000Y83600000D01*
G75*
G02*
X53325000Y83500000I0J-100000D01*
G01*
X53325000Y82700000D01*
G75*
G02*
X53225000Y82600000I-100000J0D01*
G01*
X52175000Y82600000D01*
G75*
G02*
X52075000Y82700000I0J100000D01*
G01*
X52075000Y83500000D01*
G75*
G02*
X52175000Y83600000I100000J0D01*
G01*
G37*
G36*
G01*
X52175000Y81600000D02*
X53225000Y81600000D01*
G75*
G02*
X53325000Y81500000I0J-100000D01*
G01*
X53325000Y80700000D01*
G75*
G02*
X53225000Y80600000I-100000J0D01*
G01*
X52175000Y80600000D01*
G75*
G02*
X52075000Y80700000I0J100000D01*
G01*
X52075000Y81500000D01*
G75*
G02*
X52175000Y81600000I100000J0D01*
G01*
G37*
G04 #@! TD*
G04 #@! TO.C,Q2*
G36*
G01*
X2800000Y44575010D02*
X2500000Y44575010D01*
G75*
G02*
X2350000Y44725010I0J150000D01*
G01*
X2350000Y45900010D01*
G75*
G02*
X2500000Y46050010I150000J0D01*
G01*
X2800000Y46050010D01*
G75*
G02*
X2950000Y45900010I0J-150000D01*
G01*
X2950000Y44725010D01*
G75*
G02*
X2800000Y44575010I-150000J0D01*
G01*
G37*
G36*
G01*
X3750000Y46450010D02*
X3450000Y46450010D01*
G75*
G02*
X3300000Y46600010I0J150000D01*
G01*
X3300000Y47775010D01*
G75*
G02*
X3450000Y47925010I150000J0D01*
G01*
X3750000Y47925010D01*
G75*
G02*
X3900000Y47775010I0J-150000D01*
G01*
X3900000Y46600010D01*
G75*
G02*
X3750000Y46450010I-150000J0D01*
G01*
G37*
G36*
G01*
X4700000Y44575010D02*
X4400000Y44575010D01*
G75*
G02*
X4250000Y44725010I0J150000D01*
G01*
X4250000Y45900010D01*
G75*
G02*
X4400000Y46050010I150000J0D01*
G01*
X4700000Y46050010D01*
G75*
G02*
X4850000Y45900010I0J-150000D01*
G01*
X4850000Y44725010D01*
G75*
G02*
X4700000Y44575010I-150000J0D01*
G01*
G37*
G04 #@! TD*
G04 #@! TO.C,D38*
G36*
G01*
X31450000Y75210000D02*
X31450000Y75690000D01*
G75*
G02*
X31510000Y75750000I60000J0D01*
G01*
X31990000Y75750000D01*
G75*
G02*
X32050000Y75690000I0J-60000D01*
G01*
X32050000Y75210000D01*
G75*
G02*
X31990000Y75150000I-60000J0D01*
G01*
X31510000Y75150000D01*
G75*
G02*
X31450000Y75210000I0J60000D01*
G01*
G37*
G36*
G01*
X31450000Y77410000D02*
X31450000Y77890000D01*
G75*
G02*
X31510000Y77950000I60000J0D01*
G01*
X31990000Y77950000D01*
G75*
G02*
X32050000Y77890000I0J-60000D01*
G01*
X32050000Y77410000D01*
G75*
G02*
X31990000Y77350000I-60000J0D01*
G01*
X31510000Y77350000D01*
G75*
G02*
X31450000Y77410000I0J60000D01*
G01*
G37*
G04 #@! TD*
G04 #@! TO.C,D3*
G36*
G01*
X47050000Y66860000D02*
X47050000Y67340000D01*
G75*
G02*
X47110000Y67400000I60000J0D01*
G01*
X47590000Y67400000D01*
G75*
G02*
X47650000Y67340000I0J-60000D01*
G01*
X47650000Y66860000D01*
G75*
G02*
X47590000Y66800000I-60000J0D01*
G01*
X47110000Y66800000D01*
G75*
G02*
X47050000Y66860000I0J60000D01*
G01*
G37*
G36*
G01*
X47050000Y69060000D02*
X47050000Y69540000D01*
G75*
G02*
X47110000Y69600000I60000J0D01*
G01*
X47590000Y69600000D01*
G75*
G02*
X47650000Y69540000I0J-60000D01*
G01*
X47650000Y69060000D01*
G75*
G02*
X47590000Y69000000I-60000J0D01*
G01*
X47110000Y69000000D01*
G75*
G02*
X47050000Y69060000I0J60000D01*
G01*
G37*
G04 #@! TD*
G04 #@! TO.C,U3*
G36*
G01*
X67110000Y5801300D02*
X67110000Y6308700D01*
G75*
G02*
X67151300Y6350000I41300J0D01*
G01*
X69088700Y6350000D01*
G75*
G02*
X69130000Y6308700I0J-41300D01*
G01*
X69130000Y5801300D01*
G75*
G02*
X69088700Y5760000I-41300J0D01*
G01*
X67151300Y5760000D01*
G75*
G02*
X67110000Y5801300I0J41300D01*
G01*
G37*
G36*
G01*
X67110000Y4531300D02*
X67110000Y5038700D01*
G75*
G02*
X67151300Y5080000I41300J0D01*
G01*
X69088700Y5080000D01*
G75*
G02*
X69130000Y5038700I0J-41300D01*
G01*
X69130000Y4531300D01*
G75*
G02*
X69088700Y4490000I-41300J0D01*
G01*
X67151300Y4490000D01*
G75*
G02*
X67110000Y4531300I0J41300D01*
G01*
G37*
G36*
G01*
X67110000Y3261300D02*
X67110000Y3768700D01*
G75*
G02*
X67151300Y3810000I41300J0D01*
G01*
X69088700Y3810000D01*
G75*
G02*
X69130000Y3768700I0J-41300D01*
G01*
X69130000Y3261300D01*
G75*
G02*
X69088700Y3220000I-41300J0D01*
G01*
X67151300Y3220000D01*
G75*
G02*
X67110000Y3261300I0J41300D01*
G01*
G37*
G36*
G01*
X67110000Y1991300D02*
X67110000Y2498700D01*
G75*
G02*
X67151300Y2540000I41300J0D01*
G01*
X69088700Y2540000D01*
G75*
G02*
X69130000Y2498700I0J-41300D01*
G01*
X69130000Y1991300D01*
G75*
G02*
X69088700Y1950000I-41300J0D01*
G01*
X67151300Y1950000D01*
G75*
G02*
X67110000Y1991300I0J41300D01*
G01*
G37*
G36*
G01*
X76470000Y1991300D02*
X76470000Y2498700D01*
G75*
G02*
X76511300Y2540000I41300J0D01*
G01*
X78448700Y2540000D01*
G75*
G02*
X78490000Y2498700I0J-41300D01*
G01*
X78490000Y1991300D01*
G75*
G02*
X78448700Y1950000I-41300J0D01*
G01*
X76511300Y1950000D01*
G75*
G02*
X76470000Y1991300I0J41300D01*
G01*
G37*
G36*
G01*
X76470000Y3261300D02*
X76470000Y3768700D01*
G75*
G02*
X76511300Y3810000I41300J0D01*
G01*
X78448700Y3810000D01*
G75*
G02*
X78490000Y3768700I0J-41300D01*
G01*
X78490000Y3261300D01*
G75*
G02*
X78448700Y3220000I-41300J0D01*
G01*
X76511300Y3220000D01*
G75*
G02*
X76470000Y3261300I0J41300D01*
G01*
G37*
G36*
G01*
X76470000Y4531300D02*
X76470000Y5038700D01*
G75*
G02*
X76511300Y5080000I41300J0D01*
G01*
X78448700Y5080000D01*
G75*
G02*
X78490000Y5038700I0J-41300D01*
G01*
X78490000Y4531300D01*
G75*
G02*
X78448700Y4490000I-41300J0D01*
G01*
X76511300Y4490000D01*
G75*
G02*
X76470000Y4531300I0J41300D01*
G01*
G37*
G36*
G01*
X76470000Y5801300D02*
X76470000Y6308700D01*
G75*
G02*
X76511300Y6350000I41300J0D01*
G01*
X78448700Y6350000D01*
G75*
G02*
X78490000Y6308700I0J-41300D01*
G01*
X78490000Y5801300D01*
G75*
G02*
X78448700Y5760000I-41300J0D01*
G01*
X76511300Y5760000D01*
G75*
G02*
X76470000Y5801300I0J41300D01*
G01*
G37*
G04 #@! TD*
G04 #@! TO.C,Q16*
G36*
G01*
X6900000Y50725010D02*
X7200000Y50725010D01*
G75*
G02*
X7350000Y50575010I0J-150000D01*
G01*
X7350000Y49400010D01*
G75*
G02*
X7200000Y49250010I-150000J0D01*
G01*
X6900000Y49250010D01*
G75*
G02*
X6750000Y49400010I0J150000D01*
G01*
X6750000Y50575010D01*
G75*
G02*
X6900000Y50725010I150000J0D01*
G01*
G37*
G36*
G01*
X5950000Y48850010D02*
X6250000Y48850010D01*
G75*
G02*
X6400000Y48700010I0J-150000D01*
G01*
X6400000Y47525010D01*
G75*
G02*
X6250000Y47375010I-150000J0D01*
G01*
X5950000Y47375010D01*
G75*
G02*
X5800000Y47525010I0J150000D01*
G01*
X5800000Y48700010D01*
G75*
G02*
X5950000Y48850010I150000J0D01*
G01*
G37*
G36*
G01*
X5000000Y50725010D02*
X5300000Y50725010D01*
G75*
G02*
X5450000Y50575010I0J-150000D01*
G01*
X5450000Y49400010D01*
G75*
G02*
X5300000Y49250010I-150000J0D01*
G01*
X5000000Y49250010D01*
G75*
G02*
X4850000Y49400010I0J150000D01*
G01*
X4850000Y50575010D01*
G75*
G02*
X5000000Y50725010I150000J0D01*
G01*
G37*
G04 #@! TD*
G04 #@! TO.C,R67*
G36*
G01*
X26875000Y94099999D02*
X25625000Y94099999D01*
G75*
G02*
X25525000Y94199999I0J100000D01*
G01*
X25525000Y94999999D01*
G75*
G02*
X25625000Y95099999I100000J0D01*
G01*
X26875000Y95099999D01*
G75*
G02*
X26975000Y94999999I0J-100000D01*
G01*
X26975000Y94199999D01*
G75*
G02*
X26875000Y94099999I-100000J0D01*
G01*
G37*
G36*
G01*
X26875000Y96000021D02*
X25625000Y96000021D01*
G75*
G02*
X25525000Y96100021I0J100000D01*
G01*
X25525000Y96900021D01*
G75*
G02*
X25625000Y97000021I100000J0D01*
G01*
X26875000Y97000021D01*
G75*
G02*
X26975000Y96900021I0J-100000D01*
G01*
X26975000Y96100021D01*
G75*
G02*
X26875000Y96000021I-100000J0D01*
G01*
G37*
G04 #@! TD*
D20*
G04 #@! TO.C,U4*
X22700000Y7775000D03*
X22700000Y9275000D03*
X22700000Y10775000D03*
X22700000Y12275000D03*
X22700000Y13775000D03*
X22700000Y15275000D03*
X22700000Y16775000D03*
X22700000Y18275000D03*
X22700000Y19775000D03*
X22700000Y21275000D03*
X22700000Y22775000D03*
X22700000Y24275000D03*
X22700000Y25775000D03*
X10000000Y25775000D03*
X10000000Y24275000D03*
X10000000Y22775000D03*
X10000000Y21275000D03*
X10000000Y19775000D03*
X10000000Y18275000D03*
X10000000Y16775000D03*
X10000000Y15275000D03*
X10000000Y13775000D03*
X10000000Y12275000D03*
X10000000Y10775000D03*
X10000000Y9275000D03*
X10000000Y7775000D03*
G04 #@! TD*
G04 #@! TO.C,D51*
G36*
G01*
X27400000Y73810000D02*
X27400000Y72790000D01*
G75*
G02*
X27310000Y72700000I-90000J0D01*
G01*
X26590000Y72700000D01*
G75*
G02*
X26500000Y72790000I0J90000D01*
G01*
X26500000Y73810000D01*
G75*
G02*
X26590000Y73900000I90000J0D01*
G01*
X27310000Y73900000D01*
G75*
G02*
X27400000Y73810000I0J-90000D01*
G01*
G37*
G36*
G01*
X24100000Y73810000D02*
X24100000Y72790000D01*
G75*
G02*
X24010000Y72700000I-90000J0D01*
G01*
X23290000Y72700000D01*
G75*
G02*
X23200000Y72790000I0J90000D01*
G01*
X23200000Y73810000D01*
G75*
G02*
X23290000Y73900000I90000J0D01*
G01*
X24010000Y73900000D01*
G75*
G02*
X24100000Y73810000I0J-90000D01*
G01*
G37*
G04 #@! TD*
G04 #@! TO.C,F1*
G36*
G01*
X80296000Y95650010D02*
X80296000Y96340010D01*
G75*
G02*
X80526000Y96570010I230000J0D01*
G01*
X81866000Y96570010D01*
G75*
G02*
X82096000Y96340010I0J-230000D01*
G01*
X82096000Y95650010D01*
G75*
G02*
X81866000Y95420010I-230000J0D01*
G01*
X80526000Y95420010D01*
G75*
G02*
X80296000Y95650010I0J230000D01*
G01*
G37*
G36*
G01*
X80296000Y92749990D02*
X80296000Y93439990D01*
G75*
G02*
X80526000Y93669990I230000J0D01*
G01*
X81866000Y93669990D01*
G75*
G02*
X82096000Y93439990I0J-230000D01*
G01*
X82096000Y92749990D01*
G75*
G02*
X81866000Y92519990I-230000J0D01*
G01*
X80526000Y92519990D01*
G75*
G02*
X80296000Y92749990I0J230000D01*
G01*
G37*
G04 #@! TD*
G04 #@! TO.C,R14*
G36*
G01*
X89175000Y96500001D02*
X90425000Y96500001D01*
G75*
G02*
X90525000Y96400001I0J-100000D01*
G01*
X90525000Y95600001D01*
G75*
G02*
X90425000Y95500001I-100000J0D01*
G01*
X89175000Y95500001D01*
G75*
G02*
X89075000Y95600001I0J100000D01*
G01*
X89075000Y96400001D01*
G75*
G02*
X89175000Y96500001I100000J0D01*
G01*
G37*
G36*
G01*
X89175000Y94599979D02*
X90425000Y94599979D01*
G75*
G02*
X90525000Y94499979I0J-100000D01*
G01*
X90525000Y93699979D01*
G75*
G02*
X90425000Y93599979I-100000J0D01*
G01*
X89175000Y93599979D01*
G75*
G02*
X89075000Y93699979I0J100000D01*
G01*
X89075000Y94499979D01*
G75*
G02*
X89175000Y94599979I100000J0D01*
G01*
G37*
G04 #@! TD*
G04 #@! TO.C,D5*
G36*
G01*
X72712503Y70661498D02*
X72712503Y71141498D01*
G75*
G02*
X72772503Y71201498I60000J0D01*
G01*
X73252503Y71201498D01*
G75*
G02*
X73312503Y71141498I0J-60000D01*
G01*
X73312503Y70661498D01*
G75*
G02*
X73252503Y70601498I-60000J0D01*
G01*
X72772503Y70601498D01*
G75*
G02*
X72712503Y70661498I0J60000D01*
G01*
G37*
G36*
G01*
X72712503Y72861498D02*
X72712503Y73341498D01*
G75*
G02*
X72772503Y73401498I60000J0D01*
G01*
X73252503Y73401498D01*
G75*
G02*
X73312503Y73341498I0J-60000D01*
G01*
X73312503Y72861498D01*
G75*
G02*
X73252503Y72801498I-60000J0D01*
G01*
X72772503Y72801498D01*
G75*
G02*
X72712503Y72861498I0J60000D01*
G01*
G37*
G04 #@! TD*
G04 #@! TO.C,R85*
G36*
G01*
X57400000Y86910000D02*
X57400000Y87690000D01*
G75*
G02*
X57470000Y87760000I70000J0D01*
G01*
X58030000Y87760000D01*
G75*
G02*
X58100000Y87690000I0J-70000D01*
G01*
X58100000Y86910000D01*
G75*
G02*
X58030000Y86840000I-70000J0D01*
G01*
X57470000Y86840000D01*
G75*
G02*
X57400000Y86910000I0J70000D01*
G01*
G37*
G36*
G01*
X59000000Y86910000D02*
X59000000Y87690000D01*
G75*
G02*
X59070000Y87760000I70000J0D01*
G01*
X59630000Y87760000D01*
G75*
G02*
X59700000Y87690000I0J-70000D01*
G01*
X59700000Y86910000D01*
G75*
G02*
X59630000Y86840000I-70000J0D01*
G01*
X59070000Y86840000D01*
G75*
G02*
X59000000Y86910000I0J70000D01*
G01*
G37*
G04 #@! TD*
G04 #@! TO.C,R64*
G36*
G01*
X16675000Y94099999D02*
X15425000Y94099999D01*
G75*
G02*
X15325000Y94199999I0J100000D01*
G01*
X15325000Y94999999D01*
G75*
G02*
X15425000Y95099999I100000J0D01*
G01*
X16675000Y95099999D01*
G75*
G02*
X16775000Y94999999I0J-100000D01*
G01*
X16775000Y94199999D01*
G75*
G02*
X16675000Y94099999I-100000J0D01*
G01*
G37*
G36*
G01*
X16675000Y96000021D02*
X15425000Y96000021D01*
G75*
G02*
X15325000Y96100021I0J100000D01*
G01*
X15325000Y96900021D01*
G75*
G02*
X15425000Y97000021I100000J0D01*
G01*
X16675000Y97000021D01*
G75*
G02*
X16775000Y96900021I0J-100000D01*
G01*
X16775000Y96100021D01*
G75*
G02*
X16675000Y96000021I-100000J0D01*
G01*
G37*
G04 #@! TD*
G04 #@! TO.C,D31*
G36*
G01*
X45649999Y68449998D02*
X45649999Y67549998D01*
G75*
G02*
X45549999Y67449998I-100000J0D01*
G01*
X44749999Y67449998D01*
G75*
G02*
X44649999Y67549998I0J100000D01*
G01*
X44649999Y68449998D01*
G75*
G02*
X44749999Y68549998I100000J0D01*
G01*
X45549999Y68549998D01*
G75*
G02*
X45649999Y68449998I0J-100000D01*
G01*
G37*
G36*
G01*
X43949999Y68449998D02*
X43949999Y67549998D01*
G75*
G02*
X43849999Y67449998I-100000J0D01*
G01*
X43049999Y67449998D01*
G75*
G02*
X42949999Y67549998I0J100000D01*
G01*
X42949999Y68449998D01*
G75*
G02*
X43049999Y68549998I100000J0D01*
G01*
X43849999Y68549998D01*
G75*
G02*
X43949999Y68449998I0J-100000D01*
G01*
G37*
G04 #@! TD*
G04 #@! TO.C,F3*
G36*
G01*
X69200000Y95655010D02*
X69200000Y96345010D01*
G75*
G02*
X69430000Y96575010I230000J0D01*
G01*
X70770000Y96575010D01*
G75*
G02*
X71000000Y96345010I0J-230000D01*
G01*
X71000000Y95655010D01*
G75*
G02*
X70770000Y95425010I-230000J0D01*
G01*
X69430000Y95425010D01*
G75*
G02*
X69200000Y95655010I0J230000D01*
G01*
G37*
G36*
G01*
X69200000Y92754990D02*
X69200000Y93444990D01*
G75*
G02*
X69430000Y93674990I230000J0D01*
G01*
X70770000Y93674990D01*
G75*
G02*
X71000000Y93444990I0J-230000D01*
G01*
X71000000Y92754990D01*
G75*
G02*
X70770000Y92524990I-230000J0D01*
G01*
X69430000Y92524990D01*
G75*
G02*
X69200000Y92754990I0J230000D01*
G01*
G37*
G04 #@! TD*
G04 #@! TO.C,R71*
G36*
G01*
X6225000Y93999999D02*
X4975000Y93999999D01*
G75*
G02*
X4875000Y94099999I0J100000D01*
G01*
X4875000Y94899999D01*
G75*
G02*
X4975000Y94999999I100000J0D01*
G01*
X6225000Y94999999D01*
G75*
G02*
X6325000Y94899999I0J-100000D01*
G01*
X6325000Y94099999D01*
G75*
G02*
X6225000Y93999999I-100000J0D01*
G01*
G37*
G36*
G01*
X6225000Y95900021D02*
X4975000Y95900021D01*
G75*
G02*
X4875000Y96000021I0J100000D01*
G01*
X4875000Y96800021D01*
G75*
G02*
X4975000Y96900021I100000J0D01*
G01*
X6225000Y96900021D01*
G75*
G02*
X6325000Y96800021I0J-100000D01*
G01*
X6325000Y96000021D01*
G75*
G02*
X6225000Y95900021I-100000J0D01*
G01*
G37*
G04 #@! TD*
G04 #@! TO.C,R61*
G36*
G01*
X31325000Y93899999D02*
X30075000Y93899999D01*
G75*
G02*
X29975000Y93999999I0J100000D01*
G01*
X29975000Y94799999D01*
G75*
G02*
X30075000Y94899999I100000J0D01*
G01*
X31325000Y94899999D01*
G75*
G02*
X31425000Y94799999I0J-100000D01*
G01*
X31425000Y93999999D01*
G75*
G02*
X31325000Y93899999I-100000J0D01*
G01*
G37*
G36*
G01*
X31325000Y95800021D02*
X30075000Y95800021D01*
G75*
G02*
X29975000Y95900021I0J100000D01*
G01*
X29975000Y96700021D01*
G75*
G02*
X30075000Y96800021I100000J0D01*
G01*
X31325000Y96800021D01*
G75*
G02*
X31425000Y96700021I0J-100000D01*
G01*
X31425000Y95900021D01*
G75*
G02*
X31325000Y95800021I-100000J0D01*
G01*
G37*
G04 #@! TD*
D10*
G04 #@! TO.C,Q28*
X20725000Y85625000D03*
X17675000Y85625000D03*
X17675000Y88975000D03*
X20725000Y88975000D03*
G36*
G01*
X17400000Y79900000D02*
X16440000Y79900000D01*
G75*
G02*
X16320000Y80020000I0J120000D01*
G01*
X16320000Y81980000D01*
G75*
G02*
X16440000Y82100000I120000J0D01*
G01*
X17400000Y82100000D01*
G75*
G02*
X17520000Y81980000I0J-120000D01*
G01*
X17520000Y80020000D01*
G75*
G02*
X17400000Y79900000I-120000J0D01*
G01*
G37*
G36*
G01*
X21960000Y79900000D02*
X21000000Y79900000D01*
G75*
G02*
X20880000Y80020000I0J120000D01*
G01*
X20880000Y81980000D01*
G75*
G02*
X21000000Y82100000I120000J0D01*
G01*
X21960000Y82100000D01*
G75*
G02*
X22080000Y81980000I0J-120000D01*
G01*
X22080000Y80020000D01*
G75*
G02*
X21960000Y79900000I-120000J0D01*
G01*
G37*
G04 #@! TD*
G04 #@! TO.C,Q7*
X82375000Y84225000D03*
X79325000Y87575000D03*
X82375000Y87575000D03*
X79325000Y84225000D03*
G36*
G01*
X79050000Y78500000D02*
X78090000Y78500000D01*
G75*
G02*
X77970000Y78620000I0J120000D01*
G01*
X77970000Y80580000D01*
G75*
G02*
X78090000Y80700000I120000J0D01*
G01*
X79050000Y80700000D01*
G75*
G02*
X79170000Y80580000I0J-120000D01*
G01*
X79170000Y78620000D01*
G75*
G02*
X79050000Y78500000I-120000J0D01*
G01*
G37*
G36*
G01*
X83610000Y78500000D02*
X82650000Y78500000D01*
G75*
G02*
X82530000Y78620000I0J120000D01*
G01*
X82530000Y80580000D01*
G75*
G02*
X82650000Y80700000I120000J0D01*
G01*
X83610000Y80700000D01*
G75*
G02*
X83730000Y80580000I0J-120000D01*
G01*
X83730000Y78620000D01*
G75*
G02*
X83610000Y78500000I-120000J0D01*
G01*
G37*
G04 #@! TD*
G04 #@! TO.C,Q6*
X74125000Y84875000D03*
X74125000Y88225000D03*
X71075000Y88225000D03*
X71075000Y84875000D03*
G36*
G01*
X70800000Y79150000D02*
X69840000Y79150000D01*
G75*
G02*
X69720000Y79270000I0J120000D01*
G01*
X69720000Y81230000D01*
G75*
G02*
X69840000Y81350000I120000J0D01*
G01*
X70800000Y81350000D01*
G75*
G02*
X70920000Y81230000I0J-120000D01*
G01*
X70920000Y79270000D01*
G75*
G02*
X70800000Y79150000I-120000J0D01*
G01*
G37*
G36*
G01*
X75360000Y79150000D02*
X74400000Y79150000D01*
G75*
G02*
X74280000Y79270000I0J120000D01*
G01*
X74280000Y81230000D01*
G75*
G02*
X74400000Y81350000I120000J0D01*
G01*
X75360000Y81350000D01*
G75*
G02*
X75480000Y81230000I0J-120000D01*
G01*
X75480000Y79270000D01*
G75*
G02*
X75360000Y79150000I-120000J0D01*
G01*
G37*
G04 #@! TD*
G04 #@! TO.C,Q21*
G36*
G01*
X17575000Y47350010D02*
X17575000Y47050010D01*
G75*
G02*
X17425000Y46900010I-150000J0D01*
G01*
X16250000Y46900010D01*
G75*
G02*
X16100000Y47050010I0J150000D01*
G01*
X16100000Y47350010D01*
G75*
G02*
X16250000Y47500010I150000J0D01*
G01*
X17425000Y47500010D01*
G75*
G02*
X17575000Y47350010I0J-150000D01*
G01*
G37*
G36*
G01*
X15700000Y48300010D02*
X15700000Y48000010D01*
G75*
G02*
X15550000Y47850010I-150000J0D01*
G01*
X14375000Y47850010D01*
G75*
G02*
X14225000Y48000010I0J150000D01*
G01*
X14225000Y48300010D01*
G75*
G02*
X14375000Y48450010I150000J0D01*
G01*
X15550000Y48450010D01*
G75*
G02*
X15700000Y48300010I0J-150000D01*
G01*
G37*
G36*
G01*
X17575000Y49250010D02*
X17575000Y48950010D01*
G75*
G02*
X17425000Y48800010I-150000J0D01*
G01*
X16250000Y48800010D01*
G75*
G02*
X16100000Y48950010I0J150000D01*
G01*
X16100000Y49250010D01*
G75*
G02*
X16250000Y49400010I150000J0D01*
G01*
X17425000Y49400010D01*
G75*
G02*
X17575000Y49250010I0J-150000D01*
G01*
G37*
G04 #@! TD*
G04 #@! TO.C,D18*
G36*
G01*
X50749999Y71999998D02*
X50749999Y71099998D01*
G75*
G02*
X50649999Y70999998I-100000J0D01*
G01*
X49849999Y70999998D01*
G75*
G02*
X49749999Y71099998I0J100000D01*
G01*
X49749999Y71999998D01*
G75*
G02*
X49849999Y72099998I100000J0D01*
G01*
X50649999Y72099998D01*
G75*
G02*
X50749999Y71999998I0J-100000D01*
G01*
G37*
G36*
G01*
X49049999Y71999998D02*
X49049999Y71099998D01*
G75*
G02*
X48949999Y70999998I-100000J0D01*
G01*
X48149999Y70999998D01*
G75*
G02*
X48049999Y71099998I0J100000D01*
G01*
X48049999Y71999998D01*
G75*
G02*
X48149999Y72099998I100000J0D01*
G01*
X48949999Y72099998D01*
G75*
G02*
X49049999Y71999998I0J-100000D01*
G01*
G37*
G04 #@! TD*
G04 #@! TO.C,D20*
G36*
G01*
X35449999Y64699998D02*
X35449999Y63799998D01*
G75*
G02*
X35349999Y63699998I-100000J0D01*
G01*
X34549999Y63699998D01*
G75*
G02*
X34449999Y63799998I0J100000D01*
G01*
X34449999Y64699998D01*
G75*
G02*
X34549999Y64799998I100000J0D01*
G01*
X35349999Y64799998D01*
G75*
G02*
X35449999Y64699998I0J-100000D01*
G01*
G37*
G36*
G01*
X33749999Y64699998D02*
X33749999Y63799998D01*
G75*
G02*
X33649999Y63699998I-100000J0D01*
G01*
X32849999Y63699998D01*
G75*
G02*
X32749999Y63799998I0J100000D01*
G01*
X32749999Y64699998D01*
G75*
G02*
X32849999Y64799998I100000J0D01*
G01*
X33649999Y64799998D01*
G75*
G02*
X33749999Y64699998I0J-100000D01*
G01*
G37*
G04 #@! TD*
G04 #@! TO.C,D27*
G36*
G01*
X7350000Y38040010D02*
X7350000Y39060010D01*
G75*
G02*
X7440000Y39150010I90000J0D01*
G01*
X8160000Y39150010D01*
G75*
G02*
X8250000Y39060010I0J-90000D01*
G01*
X8250000Y38040010D01*
G75*
G02*
X8160000Y37950010I-90000J0D01*
G01*
X7440000Y37950010D01*
G75*
G02*
X7350000Y38040010I0J90000D01*
G01*
G37*
G36*
G01*
X10650000Y38040010D02*
X10650000Y39060010D01*
G75*
G02*
X10740000Y39150010I90000J0D01*
G01*
X11460000Y39150010D01*
G75*
G02*
X11550000Y39060010I0J-90000D01*
G01*
X11550000Y38040010D01*
G75*
G02*
X11460000Y37950010I-90000J0D01*
G01*
X10740000Y37950010D01*
G75*
G02*
X10650000Y38040010I0J90000D01*
G01*
G37*
G04 #@! TD*
G04 #@! TO.C,D35*
G36*
G01*
X45449999Y64749998D02*
X45449999Y63849998D01*
G75*
G02*
X45349999Y63749998I-100000J0D01*
G01*
X44549999Y63749998D01*
G75*
G02*
X44449999Y63849998I0J100000D01*
G01*
X44449999Y64749998D01*
G75*
G02*
X44549999Y64849998I100000J0D01*
G01*
X45349999Y64849998D01*
G75*
G02*
X45449999Y64749998I0J-100000D01*
G01*
G37*
G36*
G01*
X43749999Y64749998D02*
X43749999Y63849998D01*
G75*
G02*
X43649999Y63749998I-100000J0D01*
G01*
X42849999Y63749998D01*
G75*
G02*
X42749999Y63849998I0J100000D01*
G01*
X42749999Y64749998D01*
G75*
G02*
X42849999Y64849998I100000J0D01*
G01*
X43649999Y64849998D01*
G75*
G02*
X43749999Y64749998I0J-100000D01*
G01*
G37*
G04 #@! TD*
G04 #@! TO.C,Q24*
G36*
G01*
X35525000Y83750000D02*
X35525000Y83450000D01*
G75*
G02*
X35375000Y83300000I-150000J0D01*
G01*
X34200000Y83300000D01*
G75*
G02*
X34050000Y83450000I0J150000D01*
G01*
X34050000Y83750000D01*
G75*
G02*
X34200000Y83900000I150000J0D01*
G01*
X35375000Y83900000D01*
G75*
G02*
X35525000Y83750000I0J-150000D01*
G01*
G37*
G36*
G01*
X33650000Y84700000D02*
X33650000Y84400000D01*
G75*
G02*
X33500000Y84250000I-150000J0D01*
G01*
X32325000Y84250000D01*
G75*
G02*
X32175000Y84400000I0J150000D01*
G01*
X32175000Y84700000D01*
G75*
G02*
X32325000Y84850000I150000J0D01*
G01*
X33500000Y84850000D01*
G75*
G02*
X33650000Y84700000I0J-150000D01*
G01*
G37*
G36*
G01*
X35525000Y85650000D02*
X35525000Y85350000D01*
G75*
G02*
X35375000Y85200000I-150000J0D01*
G01*
X34200000Y85200000D01*
G75*
G02*
X34050000Y85350000I0J150000D01*
G01*
X34050000Y85650000D01*
G75*
G02*
X34200000Y85800000I150000J0D01*
G01*
X35375000Y85800000D01*
G75*
G02*
X35525000Y85650000I0J-150000D01*
G01*
G37*
G04 #@! TD*
G04 #@! TO.C,R45*
G36*
G01*
X32350000Y58090000D02*
X32350000Y57310000D01*
G75*
G02*
X32280000Y57240000I-70000J0D01*
G01*
X31720000Y57240000D01*
G75*
G02*
X31650000Y57310000I0J70000D01*
G01*
X31650000Y58090000D01*
G75*
G02*
X31720000Y58160000I70000J0D01*
G01*
X32280000Y58160000D01*
G75*
G02*
X32350000Y58090000I0J-70000D01*
G01*
G37*
G36*
G01*
X30750000Y58090000D02*
X30750000Y57310000D01*
G75*
G02*
X30680000Y57240000I-70000J0D01*
G01*
X30120000Y57240000D01*
G75*
G02*
X30050000Y57310000I0J70000D01*
G01*
X30050000Y58090000D01*
G75*
G02*
X30120000Y58160000I70000J0D01*
G01*
X30680000Y58160000D01*
G75*
G02*
X30750000Y58090000I0J-70000D01*
G01*
G37*
G04 #@! TD*
G04 #@! TO.C,C10*
G36*
G01*
X45375000Y83600000D02*
X46425000Y83600000D01*
G75*
G02*
X46525000Y83500000I0J-100000D01*
G01*
X46525000Y82700000D01*
G75*
G02*
X46425000Y82600000I-100000J0D01*
G01*
X45375000Y82600000D01*
G75*
G02*
X45275000Y82700000I0J100000D01*
G01*
X45275000Y83500000D01*
G75*
G02*
X45375000Y83600000I100000J0D01*
G01*
G37*
G36*
G01*
X45375000Y81600000D02*
X46425000Y81600000D01*
G75*
G02*
X46525000Y81500000I0J-100000D01*
G01*
X46525000Y80700000D01*
G75*
G02*
X46425000Y80600000I-100000J0D01*
G01*
X45375000Y80600000D01*
G75*
G02*
X45275000Y80700000I0J100000D01*
G01*
X45275000Y81500000D01*
G75*
G02*
X45375000Y81600000I100000J0D01*
G01*
G37*
G04 #@! TD*
G04 #@! TO.C,C14*
G36*
G01*
X53875000Y83600000D02*
X54925000Y83600000D01*
G75*
G02*
X55025000Y83500000I0J-100000D01*
G01*
X55025000Y82700000D01*
G75*
G02*
X54925000Y82600000I-100000J0D01*
G01*
X53875000Y82600000D01*
G75*
G02*
X53775000Y82700000I0J100000D01*
G01*
X53775000Y83500000D01*
G75*
G02*
X53875000Y83600000I100000J0D01*
G01*
G37*
G36*
G01*
X53875000Y81600000D02*
X54925000Y81600000D01*
G75*
G02*
X55025000Y81500000I0J-100000D01*
G01*
X55025000Y80700000D01*
G75*
G02*
X54925000Y80600000I-100000J0D01*
G01*
X53875000Y80600000D01*
G75*
G02*
X53775000Y80700000I0J100000D01*
G01*
X53775000Y81500000D01*
G75*
G02*
X53875000Y81600000I100000J0D01*
G01*
G37*
G04 #@! TD*
G04 #@! TO.C,R28*
G36*
G01*
X42100000Y51565000D02*
X42100000Y52235000D01*
G75*
G02*
X42165000Y52300000I65000J0D01*
G01*
X42685000Y52300000D01*
G75*
G02*
X42750000Y52235000I0J-65000D01*
G01*
X42750000Y51565000D01*
G75*
G02*
X42685000Y51500000I-65000J0D01*
G01*
X42165000Y51500000D01*
G75*
G02*
X42100000Y51565000I0J65000D01*
G01*
G37*
G36*
G01*
X43075000Y51545000D02*
X43075000Y52255000D01*
G75*
G02*
X43120000Y52300000I45000J0D01*
G01*
X43480000Y52300000D01*
G75*
G02*
X43525000Y52255000I0J-45000D01*
G01*
X43525000Y51545000D01*
G75*
G02*
X43480000Y51500000I-45000J0D01*
G01*
X43120000Y51500000D01*
G75*
G02*
X43075000Y51545000I0J45000D01*
G01*
G37*
G36*
G01*
X43875000Y51545000D02*
X43875000Y52255000D01*
G75*
G02*
X43920000Y52300000I45000J0D01*
G01*
X44280000Y52300000D01*
G75*
G02*
X44325000Y52255000I0J-45000D01*
G01*
X44325000Y51545000D01*
G75*
G02*
X44280000Y51500000I-45000J0D01*
G01*
X43920000Y51500000D01*
G75*
G02*
X43875000Y51545000I0J45000D01*
G01*
G37*
G36*
G01*
X44650000Y51565000D02*
X44650000Y52235000D01*
G75*
G02*
X44715000Y52300000I65000J0D01*
G01*
X45235000Y52300000D01*
G75*
G02*
X45300000Y52235000I0J-65000D01*
G01*
X45300000Y51565000D01*
G75*
G02*
X45235000Y51500000I-65000J0D01*
G01*
X44715000Y51500000D01*
G75*
G02*
X44650000Y51565000I0J65000D01*
G01*
G37*
G36*
G01*
X44650000Y53365000D02*
X44650000Y54035000D01*
G75*
G02*
X44715000Y54100000I65000J0D01*
G01*
X45235000Y54100000D01*
G75*
G02*
X45300000Y54035000I0J-65000D01*
G01*
X45300000Y53365000D01*
G75*
G02*
X45235000Y53300000I-65000J0D01*
G01*
X44715000Y53300000D01*
G75*
G02*
X44650000Y53365000I0J65000D01*
G01*
G37*
G36*
G01*
X43875000Y53345000D02*
X43875000Y54055000D01*
G75*
G02*
X43920000Y54100000I45000J0D01*
G01*
X44280000Y54100000D01*
G75*
G02*
X44325000Y54055000I0J-45000D01*
G01*
X44325000Y53345000D01*
G75*
G02*
X44280000Y53300000I-45000J0D01*
G01*
X43920000Y53300000D01*
G75*
G02*
X43875000Y53345000I0J45000D01*
G01*
G37*
G36*
G01*
X43075000Y53345000D02*
X43075000Y54055000D01*
G75*
G02*
X43120000Y54100000I45000J0D01*
G01*
X43480000Y54100000D01*
G75*
G02*
X43525000Y54055000I0J-45000D01*
G01*
X43525000Y53345000D01*
G75*
G02*
X43480000Y53300000I-45000J0D01*
G01*
X43120000Y53300000D01*
G75*
G02*
X43075000Y53345000I0J45000D01*
G01*
G37*
G36*
G01*
X42100000Y53365000D02*
X42100000Y54035000D01*
G75*
G02*
X42165000Y54100000I65000J0D01*
G01*
X42685000Y54100000D01*
G75*
G02*
X42750000Y54035000I0J-65000D01*
G01*
X42750000Y53365000D01*
G75*
G02*
X42685000Y53300000I-65000J0D01*
G01*
X42165000Y53300000D01*
G75*
G02*
X42100000Y53365000I0J65000D01*
G01*
G37*
G04 #@! TD*
G04 #@! TO.C,R26*
G36*
G01*
X12235000Y45250000D02*
X11565000Y45250000D01*
G75*
G02*
X11500000Y45315000I0J65000D01*
G01*
X11500000Y45835000D01*
G75*
G02*
X11565000Y45900000I65000J0D01*
G01*
X12235000Y45900000D01*
G75*
G02*
X12300000Y45835000I0J-65000D01*
G01*
X12300000Y45315000D01*
G75*
G02*
X12235000Y45250000I-65000J0D01*
G01*
G37*
G36*
G01*
X12255000Y46225000D02*
X11545000Y46225000D01*
G75*
G02*
X11500000Y46270000I0J45000D01*
G01*
X11500000Y46630000D01*
G75*
G02*
X11545000Y46675000I45000J0D01*
G01*
X12255000Y46675000D01*
G75*
G02*
X12300000Y46630000I0J-45000D01*
G01*
X12300000Y46270000D01*
G75*
G02*
X12255000Y46225000I-45000J0D01*
G01*
G37*
G36*
G01*
X12255000Y47025000D02*
X11545000Y47025000D01*
G75*
G02*
X11500000Y47070000I0J45000D01*
G01*
X11500000Y47430000D01*
G75*
G02*
X11545000Y47475000I45000J0D01*
G01*
X12255000Y47475000D01*
G75*
G02*
X12300000Y47430000I0J-45000D01*
G01*
X12300000Y47070000D01*
G75*
G02*
X12255000Y47025000I-45000J0D01*
G01*
G37*
G36*
G01*
X12235000Y47800000D02*
X11565000Y47800000D01*
G75*
G02*
X11500000Y47865000I0J65000D01*
G01*
X11500000Y48385000D01*
G75*
G02*
X11565000Y48450000I65000J0D01*
G01*
X12235000Y48450000D01*
G75*
G02*
X12300000Y48385000I0J-65000D01*
G01*
X12300000Y47865000D01*
G75*
G02*
X12235000Y47800000I-65000J0D01*
G01*
G37*
G36*
G01*
X10435000Y47800000D02*
X9765000Y47800000D01*
G75*
G02*
X9700000Y47865000I0J65000D01*
G01*
X9700000Y48385000D01*
G75*
G02*
X9765000Y48450000I65000J0D01*
G01*
X10435000Y48450000D01*
G75*
G02*
X10500000Y48385000I0J-65000D01*
G01*
X10500000Y47865000D01*
G75*
G02*
X10435000Y47800000I-65000J0D01*
G01*
G37*
G36*
G01*
X10455000Y47025000D02*
X9745000Y47025000D01*
G75*
G02*
X9700000Y47070000I0J45000D01*
G01*
X9700000Y47430000D01*
G75*
G02*
X9745000Y47475000I45000J0D01*
G01*
X10455000Y47475000D01*
G75*
G02*
X10500000Y47430000I0J-45000D01*
G01*
X10500000Y47070000D01*
G75*
G02*
X10455000Y47025000I-45000J0D01*
G01*
G37*
G36*
G01*
X10455000Y46225000D02*
X9745000Y46225000D01*
G75*
G02*
X9700000Y46270000I0J45000D01*
G01*
X9700000Y46630000D01*
G75*
G02*
X9745000Y46675000I45000J0D01*
G01*
X10455000Y46675000D01*
G75*
G02*
X10500000Y46630000I0J-45000D01*
G01*
X10500000Y46270000D01*
G75*
G02*
X10455000Y46225000I-45000J0D01*
G01*
G37*
G36*
G01*
X10435000Y45250000D02*
X9765000Y45250000D01*
G75*
G02*
X9700000Y45315000I0J65000D01*
G01*
X9700000Y45835000D01*
G75*
G02*
X9765000Y45900000I65000J0D01*
G01*
X10435000Y45900000D01*
G75*
G02*
X10500000Y45835000I0J-65000D01*
G01*
X10500000Y45315000D01*
G75*
G02*
X10435000Y45250000I-65000J0D01*
G01*
G37*
G04 #@! TD*
G04 #@! TO.C,R25*
G36*
G01*
X5950000Y34115010D02*
X5950000Y34785010D01*
G75*
G02*
X6015000Y34850010I65000J0D01*
G01*
X6535000Y34850010D01*
G75*
G02*
X6600000Y34785010I0J-65000D01*
G01*
X6600000Y34115010D01*
G75*
G02*
X6535000Y34050010I-65000J0D01*
G01*
X6015000Y34050010D01*
G75*
G02*
X5950000Y34115010I0J65000D01*
G01*
G37*
G36*
G01*
X6925000Y34095010D02*
X6925000Y34805010D01*
G75*
G02*
X6970000Y34850010I45000J0D01*
G01*
X7330000Y34850010D01*
G75*
G02*
X7375000Y34805010I0J-45000D01*
G01*
X7375000Y34095010D01*
G75*
G02*
X7330000Y34050010I-45000J0D01*
G01*
X6970000Y34050010D01*
G75*
G02*
X6925000Y34095010I0J45000D01*
G01*
G37*
G36*
G01*
X7725000Y34095010D02*
X7725000Y34805010D01*
G75*
G02*
X7770000Y34850010I45000J0D01*
G01*
X8130000Y34850010D01*
G75*
G02*
X8175000Y34805010I0J-45000D01*
G01*
X8175000Y34095010D01*
G75*
G02*
X8130000Y34050010I-45000J0D01*
G01*
X7770000Y34050010D01*
G75*
G02*
X7725000Y34095010I0J45000D01*
G01*
G37*
G36*
G01*
X8500000Y34115010D02*
X8500000Y34785010D01*
G75*
G02*
X8565000Y34850010I65000J0D01*
G01*
X9085000Y34850010D01*
G75*
G02*
X9150000Y34785010I0J-65000D01*
G01*
X9150000Y34115010D01*
G75*
G02*
X9085000Y34050010I-65000J0D01*
G01*
X8565000Y34050010D01*
G75*
G02*
X8500000Y34115010I0J65000D01*
G01*
G37*
G36*
G01*
X8500000Y35915010D02*
X8500000Y36585010D01*
G75*
G02*
X8565000Y36650010I65000J0D01*
G01*
X9085000Y36650010D01*
G75*
G02*
X9150000Y36585010I0J-65000D01*
G01*
X9150000Y35915010D01*
G75*
G02*
X9085000Y35850010I-65000J0D01*
G01*
X8565000Y35850010D01*
G75*
G02*
X8500000Y35915010I0J65000D01*
G01*
G37*
G36*
G01*
X7725000Y35895010D02*
X7725000Y36605010D01*
G75*
G02*
X7770000Y36650010I45000J0D01*
G01*
X8130000Y36650010D01*
G75*
G02*
X8175000Y36605010I0J-45000D01*
G01*
X8175000Y35895010D01*
G75*
G02*
X8130000Y35850010I-45000J0D01*
G01*
X7770000Y35850010D01*
G75*
G02*
X7725000Y35895010I0J45000D01*
G01*
G37*
G36*
G01*
X6925000Y35895010D02*
X6925000Y36605010D01*
G75*
G02*
X6970000Y36650010I45000J0D01*
G01*
X7330000Y36650010D01*
G75*
G02*
X7375000Y36605010I0J-45000D01*
G01*
X7375000Y35895010D01*
G75*
G02*
X7330000Y35850010I-45000J0D01*
G01*
X6970000Y35850010D01*
G75*
G02*
X6925000Y35895010I0J45000D01*
G01*
G37*
G36*
G01*
X5950000Y35915010D02*
X5950000Y36585010D01*
G75*
G02*
X6015000Y36650010I65000J0D01*
G01*
X6535000Y36650010D01*
G75*
G02*
X6600000Y36585010I0J-65000D01*
G01*
X6600000Y35915010D01*
G75*
G02*
X6535000Y35850010I-65000J0D01*
G01*
X6015000Y35850010D01*
G75*
G02*
X5950000Y35915010I0J65000D01*
G01*
G37*
G04 #@! TD*
G04 #@! TO.C,R69*
G36*
G01*
X18675000Y94099999D02*
X17425000Y94099999D01*
G75*
G02*
X17325000Y94199999I0J100000D01*
G01*
X17325000Y94999999D01*
G75*
G02*
X17425000Y95099999I100000J0D01*
G01*
X18675000Y95099999D01*
G75*
G02*
X18775000Y94999999I0J-100000D01*
G01*
X18775000Y94199999D01*
G75*
G02*
X18675000Y94099999I-100000J0D01*
G01*
G37*
G36*
G01*
X18675000Y96000021D02*
X17425000Y96000021D01*
G75*
G02*
X17325000Y96100021I0J100000D01*
G01*
X17325000Y96900021D01*
G75*
G02*
X17425000Y97000021I100000J0D01*
G01*
X18675000Y97000021D01*
G75*
G02*
X18775000Y96900021I0J-100000D01*
G01*
X18775000Y96100021D01*
G75*
G02*
X18675000Y96000021I-100000J0D01*
G01*
G37*
G04 #@! TD*
G04 #@! TO.C,R55*
G36*
G01*
X20825000Y94149999D02*
X19575000Y94149999D01*
G75*
G02*
X19475000Y94249999I0J100000D01*
G01*
X19475000Y95049999D01*
G75*
G02*
X19575000Y95149999I100000J0D01*
G01*
X20825000Y95149999D01*
G75*
G02*
X20925000Y95049999I0J-100000D01*
G01*
X20925000Y94249999D01*
G75*
G02*
X20825000Y94149999I-100000J0D01*
G01*
G37*
G36*
G01*
X20825000Y96050021D02*
X19575000Y96050021D01*
G75*
G02*
X19475000Y96150021I0J100000D01*
G01*
X19475000Y96950021D01*
G75*
G02*
X19575000Y97050021I100000J0D01*
G01*
X20825000Y97050021D01*
G75*
G02*
X20925000Y96950021I0J-100000D01*
G01*
X20925000Y96150021D01*
G75*
G02*
X20825000Y96050021I-100000J0D01*
G01*
G37*
G04 #@! TD*
G04 #@! TO.C,F8*
G36*
G01*
X38700000Y95954989D02*
X38700000Y96644989D01*
G75*
G02*
X38930000Y96874989I230000J0D01*
G01*
X40270000Y96874989D01*
G75*
G02*
X40500000Y96644989I0J-230000D01*
G01*
X40500000Y95954989D01*
G75*
G02*
X40270000Y95724989I-230000J0D01*
G01*
X38930000Y95724989D01*
G75*
G02*
X38700000Y95954989I0J230000D01*
G01*
G37*
G36*
G01*
X38700000Y93054969D02*
X38700000Y93744969D01*
G75*
G02*
X38930000Y93974969I230000J0D01*
G01*
X40270000Y93974969D01*
G75*
G02*
X40500000Y93744969I0J-230000D01*
G01*
X40500000Y93054969D01*
G75*
G02*
X40270000Y92824969I-230000J0D01*
G01*
X38930000Y92824969D01*
G75*
G02*
X38700000Y93054969I0J230000D01*
G01*
G37*
G04 #@! TD*
G04 #@! TO.C,R54*
G36*
G01*
X38075000Y94049999D02*
X36825000Y94049999D01*
G75*
G02*
X36725000Y94149999I0J100000D01*
G01*
X36725000Y94949999D01*
G75*
G02*
X36825000Y95049999I100000J0D01*
G01*
X38075000Y95049999D01*
G75*
G02*
X38175000Y94949999I0J-100000D01*
G01*
X38175000Y94149999D01*
G75*
G02*
X38075000Y94049999I-100000J0D01*
G01*
G37*
G36*
G01*
X38075000Y95950021D02*
X36825000Y95950021D01*
G75*
G02*
X36725000Y96050021I0J100000D01*
G01*
X36725000Y96850021D01*
G75*
G02*
X36825000Y96950021I100000J0D01*
G01*
X38075000Y96950021D01*
G75*
G02*
X38175000Y96850021I0J-100000D01*
G01*
X38175000Y96050021D01*
G75*
G02*
X38075000Y95950021I-100000J0D01*
G01*
G37*
G04 #@! TD*
G04 #@! TO.C,R52*
G36*
G01*
X48025000Y94149999D02*
X46775000Y94149999D01*
G75*
G02*
X46675000Y94249999I0J100000D01*
G01*
X46675000Y95049999D01*
G75*
G02*
X46775000Y95149999I100000J0D01*
G01*
X48025000Y95149999D01*
G75*
G02*
X48125000Y95049999I0J-100000D01*
G01*
X48125000Y94249999D01*
G75*
G02*
X48025000Y94149999I-100000J0D01*
G01*
G37*
G36*
G01*
X48025000Y96050021D02*
X46775000Y96050021D01*
G75*
G02*
X46675000Y96150021I0J100000D01*
G01*
X46675000Y96950021D01*
G75*
G02*
X46775000Y97050021I100000J0D01*
G01*
X48025000Y97050021D01*
G75*
G02*
X48125000Y96950021I0J-100000D01*
G01*
X48125000Y96150021D01*
G75*
G02*
X48025000Y96050021I-100000J0D01*
G01*
G37*
G04 #@! TD*
G04 #@! TO.C,R27*
G36*
G01*
X12350000Y40115000D02*
X12350000Y40785000D01*
G75*
G02*
X12415000Y40850000I65000J0D01*
G01*
X12935000Y40850000D01*
G75*
G02*
X13000000Y40785000I0J-65000D01*
G01*
X13000000Y40115000D01*
G75*
G02*
X12935000Y40050000I-65000J0D01*
G01*
X12415000Y40050000D01*
G75*
G02*
X12350000Y40115000I0J65000D01*
G01*
G37*
G36*
G01*
X13325000Y40095000D02*
X13325000Y40805000D01*
G75*
G02*
X13370000Y40850000I45000J0D01*
G01*
X13730000Y40850000D01*
G75*
G02*
X13775000Y40805000I0J-45000D01*
G01*
X13775000Y40095000D01*
G75*
G02*
X13730000Y40050000I-45000J0D01*
G01*
X13370000Y40050000D01*
G75*
G02*
X13325000Y40095000I0J45000D01*
G01*
G37*
G36*
G01*
X14125000Y40095000D02*
X14125000Y40805000D01*
G75*
G02*
X14170000Y40850000I45000J0D01*
G01*
X14530000Y40850000D01*
G75*
G02*
X14575000Y40805000I0J-45000D01*
G01*
X14575000Y40095000D01*
G75*
G02*
X14530000Y40050000I-45000J0D01*
G01*
X14170000Y40050000D01*
G75*
G02*
X14125000Y40095000I0J45000D01*
G01*
G37*
G36*
G01*
X14900000Y40115000D02*
X14900000Y40785000D01*
G75*
G02*
X14965000Y40850000I65000J0D01*
G01*
X15485000Y40850000D01*
G75*
G02*
X15550000Y40785000I0J-65000D01*
G01*
X15550000Y40115000D01*
G75*
G02*
X15485000Y40050000I-65000J0D01*
G01*
X14965000Y40050000D01*
G75*
G02*
X14900000Y40115000I0J65000D01*
G01*
G37*
G36*
G01*
X14900000Y41915000D02*
X14900000Y42585000D01*
G75*
G02*
X14965000Y42650000I65000J0D01*
G01*
X15485000Y42650000D01*
G75*
G02*
X15550000Y42585000I0J-65000D01*
G01*
X15550000Y41915000D01*
G75*
G02*
X15485000Y41850000I-65000J0D01*
G01*
X14965000Y41850000D01*
G75*
G02*
X14900000Y41915000I0J65000D01*
G01*
G37*
G36*
G01*
X14125000Y41895000D02*
X14125000Y42605000D01*
G75*
G02*
X14170000Y42650000I45000J0D01*
G01*
X14530000Y42650000D01*
G75*
G02*
X14575000Y42605000I0J-45000D01*
G01*
X14575000Y41895000D01*
G75*
G02*
X14530000Y41850000I-45000J0D01*
G01*
X14170000Y41850000D01*
G75*
G02*
X14125000Y41895000I0J45000D01*
G01*
G37*
G36*
G01*
X13325000Y41895000D02*
X13325000Y42605000D01*
G75*
G02*
X13370000Y42650000I45000J0D01*
G01*
X13730000Y42650000D01*
G75*
G02*
X13775000Y42605000I0J-45000D01*
G01*
X13775000Y41895000D01*
G75*
G02*
X13730000Y41850000I-45000J0D01*
G01*
X13370000Y41850000D01*
G75*
G02*
X13325000Y41895000I0J45000D01*
G01*
G37*
G36*
G01*
X12350000Y41915000D02*
X12350000Y42585000D01*
G75*
G02*
X12415000Y42650000I65000J0D01*
G01*
X12935000Y42650000D01*
G75*
G02*
X13000000Y42585000I0J-65000D01*
G01*
X13000000Y41915000D01*
G75*
G02*
X12935000Y41850000I-65000J0D01*
G01*
X12415000Y41850000D01*
G75*
G02*
X12350000Y41915000I0J65000D01*
G01*
G37*
G04 #@! TD*
G04 #@! TO.C,R84*
G36*
G01*
X37265000Y54600000D02*
X37935000Y54600000D01*
G75*
G02*
X38000000Y54535000I0J-65000D01*
G01*
X38000000Y54015000D01*
G75*
G02*
X37935000Y53950000I-65000J0D01*
G01*
X37265000Y53950000D01*
G75*
G02*
X37200000Y54015000I0J65000D01*
G01*
X37200000Y54535000D01*
G75*
G02*
X37265000Y54600000I65000J0D01*
G01*
G37*
G36*
G01*
X37245000Y53625000D02*
X37955000Y53625000D01*
G75*
G02*
X38000000Y53580000I0J-45000D01*
G01*
X38000000Y53220000D01*
G75*
G02*
X37955000Y53175000I-45000J0D01*
G01*
X37245000Y53175000D01*
G75*
G02*
X37200000Y53220000I0J45000D01*
G01*
X37200000Y53580000D01*
G75*
G02*
X37245000Y53625000I45000J0D01*
G01*
G37*
G36*
G01*
X37245000Y52825000D02*
X37955000Y52825000D01*
G75*
G02*
X38000000Y52780000I0J-45000D01*
G01*
X38000000Y52420000D01*
G75*
G02*
X37955000Y52375000I-45000J0D01*
G01*
X37245000Y52375000D01*
G75*
G02*
X37200000Y52420000I0J45000D01*
G01*
X37200000Y52780000D01*
G75*
G02*
X37245000Y52825000I45000J0D01*
G01*
G37*
G36*
G01*
X37265000Y52050000D02*
X37935000Y52050000D01*
G75*
G02*
X38000000Y51985000I0J-65000D01*
G01*
X38000000Y51465000D01*
G75*
G02*
X37935000Y51400000I-65000J0D01*
G01*
X37265000Y51400000D01*
G75*
G02*
X37200000Y51465000I0J65000D01*
G01*
X37200000Y51985000D01*
G75*
G02*
X37265000Y52050000I65000J0D01*
G01*
G37*
G36*
G01*
X39065000Y52050000D02*
X39735000Y52050000D01*
G75*
G02*
X39800000Y51985000I0J-65000D01*
G01*
X39800000Y51465000D01*
G75*
G02*
X39735000Y51400000I-65000J0D01*
G01*
X39065000Y51400000D01*
G75*
G02*
X39000000Y51465000I0J65000D01*
G01*
X39000000Y51985000D01*
G75*
G02*
X39065000Y52050000I65000J0D01*
G01*
G37*
G36*
G01*
X39045000Y52825000D02*
X39755000Y52825000D01*
G75*
G02*
X39800000Y52780000I0J-45000D01*
G01*
X39800000Y52420000D01*
G75*
G02*
X39755000Y52375000I-45000J0D01*
G01*
X39045000Y52375000D01*
G75*
G02*
X39000000Y52420000I0J45000D01*
G01*
X39000000Y52780000D01*
G75*
G02*
X39045000Y52825000I45000J0D01*
G01*
G37*
G36*
G01*
X39045000Y53625000D02*
X39755000Y53625000D01*
G75*
G02*
X39800000Y53580000I0J-45000D01*
G01*
X39800000Y53220000D01*
G75*
G02*
X39755000Y53175000I-45000J0D01*
G01*
X39045000Y53175000D01*
G75*
G02*
X39000000Y53220000I0J45000D01*
G01*
X39000000Y53580000D01*
G75*
G02*
X39045000Y53625000I45000J0D01*
G01*
G37*
G36*
G01*
X39065000Y54600000D02*
X39735000Y54600000D01*
G75*
G02*
X39800000Y54535000I0J-65000D01*
G01*
X39800000Y54015000D01*
G75*
G02*
X39735000Y53950000I-65000J0D01*
G01*
X39065000Y53950000D01*
G75*
G02*
X39000000Y54015000I0J65000D01*
G01*
X39000000Y54535000D01*
G75*
G02*
X39065000Y54600000I65000J0D01*
G01*
G37*
G04 #@! TD*
G04 #@! TO.C,R46*
G36*
G01*
X44450000Y1260000D02*
X44450000Y2040000D01*
G75*
G02*
X44520000Y2110000I70000J0D01*
G01*
X45080000Y2110000D01*
G75*
G02*
X45150000Y2040000I0J-70000D01*
G01*
X45150000Y1260000D01*
G75*
G02*
X45080000Y1190000I-70000J0D01*
G01*
X44520000Y1190000D01*
G75*
G02*
X44450000Y1260000I0J70000D01*
G01*
G37*
G36*
G01*
X46050000Y1260000D02*
X46050000Y2040000D01*
G75*
G02*
X46120000Y2110000I70000J0D01*
G01*
X46680000Y2110000D01*
G75*
G02*
X46750000Y2040000I0J-70000D01*
G01*
X46750000Y1260000D01*
G75*
G02*
X46680000Y1190000I-70000J0D01*
G01*
X46120000Y1190000D01*
G75*
G02*
X46050000Y1260000I0J70000D01*
G01*
G37*
G04 #@! TD*
G04 #@! TO.C,Q10*
G36*
G01*
X8700000Y40575010D02*
X8400000Y40575010D01*
G75*
G02*
X8250000Y40725010I0J150000D01*
G01*
X8250000Y41900010D01*
G75*
G02*
X8400000Y42050010I150000J0D01*
G01*
X8700000Y42050010D01*
G75*
G02*
X8850000Y41900010I0J-150000D01*
G01*
X8850000Y40725010D01*
G75*
G02*
X8700000Y40575010I-150000J0D01*
G01*
G37*
G36*
G01*
X9650000Y42450010D02*
X9350000Y42450010D01*
G75*
G02*
X9200000Y42600010I0J150000D01*
G01*
X9200000Y43775010D01*
G75*
G02*
X9350000Y43925010I150000J0D01*
G01*
X9650000Y43925010D01*
G75*
G02*
X9800000Y43775010I0J-150000D01*
G01*
X9800000Y42600010D01*
G75*
G02*
X9650000Y42450010I-150000J0D01*
G01*
G37*
G36*
G01*
X10600000Y40575010D02*
X10300000Y40575010D01*
G75*
G02*
X10150000Y40725010I0J150000D01*
G01*
X10150000Y41900010D01*
G75*
G02*
X10300000Y42050010I150000J0D01*
G01*
X10600000Y42050010D01*
G75*
G02*
X10750000Y41900010I0J-150000D01*
G01*
X10750000Y40725010D01*
G75*
G02*
X10600000Y40575010I-150000J0D01*
G01*
G37*
G04 #@! TD*
G04 #@! TO.C,R47*
G36*
G01*
X44000000Y3260000D02*
X44000000Y4040000D01*
G75*
G02*
X44070000Y4110000I70000J0D01*
G01*
X44630000Y4110000D01*
G75*
G02*
X44700000Y4040000I0J-70000D01*
G01*
X44700000Y3260000D01*
G75*
G02*
X44630000Y3190000I-70000J0D01*
G01*
X44070000Y3190000D01*
G75*
G02*
X44000000Y3260000I0J70000D01*
G01*
G37*
G36*
G01*
X45600000Y3260000D02*
X45600000Y4040000D01*
G75*
G02*
X45670000Y4110000I70000J0D01*
G01*
X46230000Y4110000D01*
G75*
G02*
X46300000Y4040000I0J-70000D01*
G01*
X46300000Y3260000D01*
G75*
G02*
X46230000Y3190000I-70000J0D01*
G01*
X45670000Y3190000D01*
G75*
G02*
X45600000Y3260000I0J70000D01*
G01*
G37*
G04 #@! TD*
G04 #@! TO.C,R15*
G36*
G01*
X84107000Y93644999D02*
X82857000Y93644999D01*
G75*
G02*
X82757000Y93744999I0J100000D01*
G01*
X82757000Y94544999D01*
G75*
G02*
X82857000Y94644999I100000J0D01*
G01*
X84107000Y94644999D01*
G75*
G02*
X84207000Y94544999I0J-100000D01*
G01*
X84207000Y93744999D01*
G75*
G02*
X84107000Y93644999I-100000J0D01*
G01*
G37*
G36*
G01*
X84107000Y95545021D02*
X82857000Y95545021D01*
G75*
G02*
X82757000Y95645021I0J100000D01*
G01*
X82757000Y96445021D01*
G75*
G02*
X82857000Y96545021I100000J0D01*
G01*
X84107000Y96545021D01*
G75*
G02*
X84207000Y96445021I0J-100000D01*
G01*
X84207000Y95645021D01*
G75*
G02*
X84107000Y95545021I-100000J0D01*
G01*
G37*
G04 #@! TD*
G04 #@! TO.C,R57*
G36*
G01*
X8325000Y93999999D02*
X7075000Y93999999D01*
G75*
G02*
X6975000Y94099999I0J100000D01*
G01*
X6975000Y94899999D01*
G75*
G02*
X7075000Y94999999I100000J0D01*
G01*
X8325000Y94999999D01*
G75*
G02*
X8425000Y94899999I0J-100000D01*
G01*
X8425000Y94099999D01*
G75*
G02*
X8325000Y93999999I-100000J0D01*
G01*
G37*
G36*
G01*
X8325000Y95900021D02*
X7075000Y95900021D01*
G75*
G02*
X6975000Y96000021I0J100000D01*
G01*
X6975000Y96800021D01*
G75*
G02*
X7075000Y96900021I100000J0D01*
G01*
X8325000Y96900021D01*
G75*
G02*
X8425000Y96800021I0J-100000D01*
G01*
X8425000Y96000021D01*
G75*
G02*
X8325000Y95900021I-100000J0D01*
G01*
G37*
G04 #@! TD*
G04 #@! TO.C,C6*
G36*
G01*
X40110000Y89765001D02*
X40790000Y89765001D01*
G75*
G02*
X40875000Y89680001I0J-85000D01*
G01*
X40875000Y89000001D01*
G75*
G02*
X40790000Y88915001I-85000J0D01*
G01*
X40110000Y88915001D01*
G75*
G02*
X40025000Y89000001I0J85000D01*
G01*
X40025000Y89680001D01*
G75*
G02*
X40110000Y89765001I85000J0D01*
G01*
G37*
G36*
G01*
X40110000Y88184999D02*
X40790000Y88184999D01*
G75*
G02*
X40875000Y88099999I0J-85000D01*
G01*
X40875000Y87419999D01*
G75*
G02*
X40790000Y87334999I-85000J0D01*
G01*
X40110000Y87334999D01*
G75*
G02*
X40025000Y87419999I0J85000D01*
G01*
X40025000Y88099999D01*
G75*
G02*
X40110000Y88184999I85000J0D01*
G01*
G37*
G04 #@! TD*
G04 #@! TO.C,Q36*
G36*
G01*
X55650000Y66475000D02*
X55350000Y66475000D01*
G75*
G02*
X55200000Y66625000I0J150000D01*
G01*
X55200000Y67800000D01*
G75*
G02*
X55350000Y67950000I150000J0D01*
G01*
X55650000Y67950000D01*
G75*
G02*
X55800000Y67800000I0J-150000D01*
G01*
X55800000Y66625000D01*
G75*
G02*
X55650000Y66475000I-150000J0D01*
G01*
G37*
G36*
G01*
X56600000Y68350000D02*
X56300000Y68350000D01*
G75*
G02*
X56150000Y68500000I0J150000D01*
G01*
X56150000Y69675000D01*
G75*
G02*
X56300000Y69825000I150000J0D01*
G01*
X56600000Y69825000D01*
G75*
G02*
X56750000Y69675000I0J-150000D01*
G01*
X56750000Y68500000D01*
G75*
G02*
X56600000Y68350000I-150000J0D01*
G01*
G37*
G36*
G01*
X57550000Y66475000D02*
X57250000Y66475000D01*
G75*
G02*
X57100000Y66625000I0J150000D01*
G01*
X57100000Y67800000D01*
G75*
G02*
X57250000Y67950000I150000J0D01*
G01*
X57550000Y67950000D01*
G75*
G02*
X57700000Y67800000I0J-150000D01*
G01*
X57700000Y66625000D01*
G75*
G02*
X57550000Y66475000I-150000J0D01*
G01*
G37*
G04 #@! TD*
G04 #@! TO.C,R83*
G36*
G01*
X30200000Y59315000D02*
X30200000Y59985000D01*
G75*
G02*
X30265000Y60050000I65000J0D01*
G01*
X30785000Y60050000D01*
G75*
G02*
X30850000Y59985000I0J-65000D01*
G01*
X30850000Y59315000D01*
G75*
G02*
X30785000Y59250000I-65000J0D01*
G01*
X30265000Y59250000D01*
G75*
G02*
X30200000Y59315000I0J65000D01*
G01*
G37*
G36*
G01*
X31175000Y59295000D02*
X31175000Y60005000D01*
G75*
G02*
X31220000Y60050000I45000J0D01*
G01*
X31580000Y60050000D01*
G75*
G02*
X31625000Y60005000I0J-45000D01*
G01*
X31625000Y59295000D01*
G75*
G02*
X31580000Y59250000I-45000J0D01*
G01*
X31220000Y59250000D01*
G75*
G02*
X31175000Y59295000I0J45000D01*
G01*
G37*
G36*
G01*
X31975000Y59295000D02*
X31975000Y60005000D01*
G75*
G02*
X32020000Y60050000I45000J0D01*
G01*
X32380000Y60050000D01*
G75*
G02*
X32425000Y60005000I0J-45000D01*
G01*
X32425000Y59295000D01*
G75*
G02*
X32380000Y59250000I-45000J0D01*
G01*
X32020000Y59250000D01*
G75*
G02*
X31975000Y59295000I0J45000D01*
G01*
G37*
G36*
G01*
X32750000Y59315000D02*
X32750000Y59985000D01*
G75*
G02*
X32815000Y60050000I65000J0D01*
G01*
X33335000Y60050000D01*
G75*
G02*
X33400000Y59985000I0J-65000D01*
G01*
X33400000Y59315000D01*
G75*
G02*
X33335000Y59250000I-65000J0D01*
G01*
X32815000Y59250000D01*
G75*
G02*
X32750000Y59315000I0J65000D01*
G01*
G37*
G36*
G01*
X32750000Y61115000D02*
X32750000Y61785000D01*
G75*
G02*
X32815000Y61850000I65000J0D01*
G01*
X33335000Y61850000D01*
G75*
G02*
X33400000Y61785000I0J-65000D01*
G01*
X33400000Y61115000D01*
G75*
G02*
X33335000Y61050000I-65000J0D01*
G01*
X32815000Y61050000D01*
G75*
G02*
X32750000Y61115000I0J65000D01*
G01*
G37*
G36*
G01*
X31975000Y61095000D02*
X31975000Y61805000D01*
G75*
G02*
X32020000Y61850000I45000J0D01*
G01*
X32380000Y61850000D01*
G75*
G02*
X32425000Y61805000I0J-45000D01*
G01*
X32425000Y61095000D01*
G75*
G02*
X32380000Y61050000I-45000J0D01*
G01*
X32020000Y61050000D01*
G75*
G02*
X31975000Y61095000I0J45000D01*
G01*
G37*
G36*
G01*
X31175000Y61095000D02*
X31175000Y61805000D01*
G75*
G02*
X31220000Y61850000I45000J0D01*
G01*
X31580000Y61850000D01*
G75*
G02*
X31625000Y61805000I0J-45000D01*
G01*
X31625000Y61095000D01*
G75*
G02*
X31580000Y61050000I-45000J0D01*
G01*
X31220000Y61050000D01*
G75*
G02*
X31175000Y61095000I0J45000D01*
G01*
G37*
G36*
G01*
X30200000Y61115000D02*
X30200000Y61785000D01*
G75*
G02*
X30265000Y61850000I65000J0D01*
G01*
X30785000Y61850000D01*
G75*
G02*
X30850000Y61785000I0J-65000D01*
G01*
X30850000Y61115000D01*
G75*
G02*
X30785000Y61050000I-65000J0D01*
G01*
X30265000Y61050000D01*
G75*
G02*
X30200000Y61115000I0J65000D01*
G01*
G37*
G04 #@! TD*
G04 #@! TO.C,R53*
G36*
G01*
X50025000Y94149999D02*
X48775000Y94149999D01*
G75*
G02*
X48675000Y94249999I0J100000D01*
G01*
X48675000Y95049999D01*
G75*
G02*
X48775000Y95149999I100000J0D01*
G01*
X50025000Y95149999D01*
G75*
G02*
X50125000Y95049999I0J-100000D01*
G01*
X50125000Y94249999D01*
G75*
G02*
X50025000Y94149999I-100000J0D01*
G01*
G37*
G36*
G01*
X50025000Y96050021D02*
X48775000Y96050021D01*
G75*
G02*
X48675000Y96150021I0J100000D01*
G01*
X48675000Y96950021D01*
G75*
G02*
X48775000Y97050021I100000J0D01*
G01*
X50025000Y97050021D01*
G75*
G02*
X50125000Y96950021I0J-100000D01*
G01*
X50125000Y96150021D01*
G75*
G02*
X50025000Y96050021I-100000J0D01*
G01*
G37*
G04 #@! TD*
G04 #@! TO.C,D4*
G36*
G01*
X57350000Y74910000D02*
X57350000Y75390000D01*
G75*
G02*
X57410000Y75450000I60000J0D01*
G01*
X57890000Y75450000D01*
G75*
G02*
X57950000Y75390000I0J-60000D01*
G01*
X57950000Y74910000D01*
G75*
G02*
X57890000Y74850000I-60000J0D01*
G01*
X57410000Y74850000D01*
G75*
G02*
X57350000Y74910000I0J60000D01*
G01*
G37*
G36*
G01*
X57350000Y77110000D02*
X57350000Y77590000D01*
G75*
G02*
X57410000Y77650000I60000J0D01*
G01*
X57890000Y77650000D01*
G75*
G02*
X57950000Y77590000I0J-60000D01*
G01*
X57950000Y77110000D01*
G75*
G02*
X57890000Y77050000I-60000J0D01*
G01*
X57410000Y77050000D01*
G75*
G02*
X57350000Y77110000I0J60000D01*
G01*
G37*
G04 #@! TD*
G04 #@! TO.C,R80*
G36*
G01*
X58310000Y59350000D02*
X59090000Y59350000D01*
G75*
G02*
X59160000Y59280000I0J-70000D01*
G01*
X59160000Y58720000D01*
G75*
G02*
X59090000Y58650000I-70000J0D01*
G01*
X58310000Y58650000D01*
G75*
G02*
X58240000Y58720000I0J70000D01*
G01*
X58240000Y59280000D01*
G75*
G02*
X58310000Y59350000I70000J0D01*
G01*
G37*
G36*
G01*
X58310000Y57750000D02*
X59090000Y57750000D01*
G75*
G02*
X59160000Y57680000I0J-70000D01*
G01*
X59160000Y57120000D01*
G75*
G02*
X59090000Y57050000I-70000J0D01*
G01*
X58310000Y57050000D01*
G75*
G02*
X58240000Y57120000I0J70000D01*
G01*
X58240000Y57680000D01*
G75*
G02*
X58310000Y57750000I70000J0D01*
G01*
G37*
G04 #@! TD*
G04 #@! TO.C,D45*
G36*
G01*
X31700000Y72890000D02*
X31700000Y72410000D01*
G75*
G02*
X31640000Y72350000I-60000J0D01*
G01*
X31160000Y72350000D01*
G75*
G02*
X31100000Y72410000I0J60000D01*
G01*
X31100000Y72890000D01*
G75*
G02*
X31160000Y72950000I60000J0D01*
G01*
X31640000Y72950000D01*
G75*
G02*
X31700000Y72890000I0J-60000D01*
G01*
G37*
G36*
G01*
X31700000Y70690000D02*
X31700000Y70210000D01*
G75*
G02*
X31640000Y70150000I-60000J0D01*
G01*
X31160000Y70150000D01*
G75*
G02*
X31100000Y70210000I0J60000D01*
G01*
X31100000Y70690000D01*
G75*
G02*
X31160000Y70750000I60000J0D01*
G01*
X31640000Y70750000D01*
G75*
G02*
X31700000Y70690000I0J-60000D01*
G01*
G37*
G04 #@! TD*
G04 #@! TO.C,R42*
G36*
G01*
X13000000Y49610010D02*
X13000000Y50390010D01*
G75*
G02*
X13070000Y50460010I70000J0D01*
G01*
X13630000Y50460010D01*
G75*
G02*
X13700000Y50390010I0J-70000D01*
G01*
X13700000Y49610010D01*
G75*
G02*
X13630000Y49540010I-70000J0D01*
G01*
X13070000Y49540010D01*
G75*
G02*
X13000000Y49610010I0J70000D01*
G01*
G37*
G36*
G01*
X14600000Y49610010D02*
X14600000Y50390010D01*
G75*
G02*
X14670000Y50460010I70000J0D01*
G01*
X15230000Y50460010D01*
G75*
G02*
X15300000Y50390010I0J-70000D01*
G01*
X15300000Y49610010D01*
G75*
G02*
X15230000Y49540010I-70000J0D01*
G01*
X14670000Y49540010D01*
G75*
G02*
X14600000Y49610010I0J70000D01*
G01*
G37*
G04 #@! TD*
G04 #@! TO.C,C13*
G36*
G01*
X43675000Y83600000D02*
X44725000Y83600000D01*
G75*
G02*
X44825000Y83500000I0J-100000D01*
G01*
X44825000Y82700000D01*
G75*
G02*
X44725000Y82600000I-100000J0D01*
G01*
X43675000Y82600000D01*
G75*
G02*
X43575000Y82700000I0J100000D01*
G01*
X43575000Y83500000D01*
G75*
G02*
X43675000Y83600000I100000J0D01*
G01*
G37*
G36*
G01*
X43675000Y81600000D02*
X44725000Y81600000D01*
G75*
G02*
X44825000Y81500000I0J-100000D01*
G01*
X44825000Y80700000D01*
G75*
G02*
X44725000Y80600000I-100000J0D01*
G01*
X43675000Y80600000D01*
G75*
G02*
X43575000Y80700000I0J100000D01*
G01*
X43575000Y81500000D01*
G75*
G02*
X43675000Y81600000I100000J0D01*
G01*
G37*
G04 #@! TD*
G04 #@! TO.C,D7*
G36*
G01*
X36550000Y74810000D02*
X36550000Y75290000D01*
G75*
G02*
X36610000Y75350000I60000J0D01*
G01*
X37090000Y75350000D01*
G75*
G02*
X37150000Y75290000I0J-60000D01*
G01*
X37150000Y74810000D01*
G75*
G02*
X37090000Y74750000I-60000J0D01*
G01*
X36610000Y74750000D01*
G75*
G02*
X36550000Y74810000I0J60000D01*
G01*
G37*
G36*
G01*
X36550000Y77010000D02*
X36550000Y77490000D01*
G75*
G02*
X36610000Y77550000I60000J0D01*
G01*
X37090000Y77550000D01*
G75*
G02*
X37150000Y77490000I0J-60000D01*
G01*
X37150000Y77010000D01*
G75*
G02*
X37090000Y76950000I-60000J0D01*
G01*
X36610000Y76950000D01*
G75*
G02*
X36550000Y77010000I0J60000D01*
G01*
G37*
G04 #@! TD*
G04 #@! TO.C,R48*
G36*
G01*
X47590000Y2550000D02*
X46810000Y2550000D01*
G75*
G02*
X46740000Y2620000I0J70000D01*
G01*
X46740000Y3180000D01*
G75*
G02*
X46810000Y3250000I70000J0D01*
G01*
X47590000Y3250000D01*
G75*
G02*
X47660000Y3180000I0J-70000D01*
G01*
X47660000Y2620000D01*
G75*
G02*
X47590000Y2550000I-70000J0D01*
G01*
G37*
G36*
G01*
X47590000Y4150000D02*
X46810000Y4150000D01*
G75*
G02*
X46740000Y4220000I0J70000D01*
G01*
X46740000Y4780000D01*
G75*
G02*
X46810000Y4850000I70000J0D01*
G01*
X47590000Y4850000D01*
G75*
G02*
X47660000Y4780000I0J-70000D01*
G01*
X47660000Y4220000D01*
G75*
G02*
X47590000Y4150000I-70000J0D01*
G01*
G37*
G04 #@! TD*
G04 #@! TO.C,R86*
G36*
G01*
X55800000Y54660000D02*
X55800000Y55440000D01*
G75*
G02*
X55870000Y55510000I70000J0D01*
G01*
X56430000Y55510000D01*
G75*
G02*
X56500000Y55440000I0J-70000D01*
G01*
X56500000Y54660000D01*
G75*
G02*
X56430000Y54590000I-70000J0D01*
G01*
X55870000Y54590000D01*
G75*
G02*
X55800000Y54660000I0J70000D01*
G01*
G37*
G36*
G01*
X57400000Y54660000D02*
X57400000Y55440000D01*
G75*
G02*
X57470000Y55510000I70000J0D01*
G01*
X58030000Y55510000D01*
G75*
G02*
X58100000Y55440000I0J-70000D01*
G01*
X58100000Y54660000D01*
G75*
G02*
X58030000Y54590000I-70000J0D01*
G01*
X57470000Y54590000D01*
G75*
G02*
X57400000Y54660000I0J70000D01*
G01*
G37*
G04 #@! TD*
G04 #@! TO.C,Q11*
G36*
G01*
X10025000Y36150010D02*
X10025000Y36450010D01*
G75*
G02*
X10175000Y36600010I150000J0D01*
G01*
X11350000Y36600010D01*
G75*
G02*
X11500000Y36450010I0J-150000D01*
G01*
X11500000Y36150010D01*
G75*
G02*
X11350000Y36000010I-150000J0D01*
G01*
X10175000Y36000010D01*
G75*
G02*
X10025000Y36150010I0J150000D01*
G01*
G37*
G36*
G01*
X11900000Y35200010D02*
X11900000Y35500010D01*
G75*
G02*
X12050000Y35650010I150000J0D01*
G01*
X13225000Y35650010D01*
G75*
G02*
X13375000Y35500010I0J-150000D01*
G01*
X13375000Y35200010D01*
G75*
G02*
X13225000Y35050010I-150000J0D01*
G01*
X12050000Y35050010D01*
G75*
G02*
X11900000Y35200010I0J150000D01*
G01*
G37*
G36*
G01*
X10025000Y34250010D02*
X10025000Y34550010D01*
G75*
G02*
X10175000Y34700010I150000J0D01*
G01*
X11350000Y34700010D01*
G75*
G02*
X11500000Y34550010I0J-150000D01*
G01*
X11500000Y34250010D01*
G75*
G02*
X11350000Y34100010I-150000J0D01*
G01*
X10175000Y34100010D01*
G75*
G02*
X10025000Y34250010I0J150000D01*
G01*
G37*
G04 #@! TD*
G04 #@! TO.C,F9*
G36*
G01*
X34450000Y96004989D02*
X34450000Y96694989D01*
G75*
G02*
X34680000Y96924989I230000J0D01*
G01*
X36020000Y96924989D01*
G75*
G02*
X36250000Y96694989I0J-230000D01*
G01*
X36250000Y96004989D01*
G75*
G02*
X36020000Y95774989I-230000J0D01*
G01*
X34680000Y95774989D01*
G75*
G02*
X34450000Y96004989I0J230000D01*
G01*
G37*
G36*
G01*
X34450000Y93104969D02*
X34450000Y93794969D01*
G75*
G02*
X34680000Y94024969I230000J0D01*
G01*
X36020000Y94024969D01*
G75*
G02*
X36250000Y93794969I0J-230000D01*
G01*
X36250000Y93104969D01*
G75*
G02*
X36020000Y92874969I-230000J0D01*
G01*
X34680000Y92874969D01*
G75*
G02*
X34450000Y93104969I0J230000D01*
G01*
G37*
G04 #@! TD*
G04 #@! TO.C,R39*
G36*
G01*
X13750000Y33710000D02*
X13750000Y34490000D01*
G75*
G02*
X13820000Y34560000I70000J0D01*
G01*
X14380000Y34560000D01*
G75*
G02*
X14450000Y34490000I0J-70000D01*
G01*
X14450000Y33710000D01*
G75*
G02*
X14380000Y33640000I-70000J0D01*
G01*
X13820000Y33640000D01*
G75*
G02*
X13750000Y33710000I0J70000D01*
G01*
G37*
G36*
G01*
X15350000Y33710000D02*
X15350000Y34490000D01*
G75*
G02*
X15420000Y34560000I70000J0D01*
G01*
X15980000Y34560000D01*
G75*
G02*
X16050000Y34490000I0J-70000D01*
G01*
X16050000Y33710000D01*
G75*
G02*
X15980000Y33640000I-70000J0D01*
G01*
X15420000Y33640000D01*
G75*
G02*
X15350000Y33710000I0J70000D01*
G01*
G37*
G04 #@! TD*
G04 #@! TO.C,C12*
G36*
G01*
X43025000Y80600000D02*
X41975000Y80600000D01*
G75*
G02*
X41875000Y80700000I0J100000D01*
G01*
X41875000Y81500000D01*
G75*
G02*
X41975000Y81600000I100000J0D01*
G01*
X43025000Y81600000D01*
G75*
G02*
X43125000Y81500000I0J-100000D01*
G01*
X43125000Y80700000D01*
G75*
G02*
X43025000Y80600000I-100000J0D01*
G01*
G37*
G36*
G01*
X43025000Y82600000D02*
X41975000Y82600000D01*
G75*
G02*
X41875000Y82700000I0J100000D01*
G01*
X41875000Y83500000D01*
G75*
G02*
X41975000Y83600000I100000J0D01*
G01*
X43025000Y83600000D01*
G75*
G02*
X43125000Y83500000I0J-100000D01*
G01*
X43125000Y82700000D01*
G75*
G02*
X43025000Y82600000I-100000J0D01*
G01*
G37*
G04 #@! TD*
G04 #@! TO.C,D40*
G36*
G01*
X35449999Y68299998D02*
X35449999Y67399998D01*
G75*
G02*
X35349999Y67299998I-100000J0D01*
G01*
X34549999Y67299998D01*
G75*
G02*
X34449999Y67399998I0J100000D01*
G01*
X34449999Y68299998D01*
G75*
G02*
X34549999Y68399998I100000J0D01*
G01*
X35349999Y68399998D01*
G75*
G02*
X35449999Y68299998I0J-100000D01*
G01*
G37*
G36*
G01*
X33749999Y68299998D02*
X33749999Y67399998D01*
G75*
G02*
X33649999Y67299998I-100000J0D01*
G01*
X32849999Y67299998D01*
G75*
G02*
X32749999Y67399998I0J100000D01*
G01*
X32749999Y68299998D01*
G75*
G02*
X32849999Y68399998I100000J0D01*
G01*
X33649999Y68399998D01*
G75*
G02*
X33749999Y68299998I0J-100000D01*
G01*
G37*
G04 #@! TD*
G04 #@! TO.C,R1*
G36*
G01*
X65450000Y82035000D02*
X65450000Y81365000D01*
G75*
G02*
X65385000Y81300000I-65000J0D01*
G01*
X64865000Y81300000D01*
G75*
G02*
X64800000Y81365000I0J65000D01*
G01*
X64800000Y82035000D01*
G75*
G02*
X64865000Y82100000I65000J0D01*
G01*
X65385000Y82100000D01*
G75*
G02*
X65450000Y82035000I0J-65000D01*
G01*
G37*
G36*
G01*
X64475000Y82055000D02*
X64475000Y81345000D01*
G75*
G02*
X64430000Y81300000I-45000J0D01*
G01*
X64070000Y81300000D01*
G75*
G02*
X64025000Y81345000I0J45000D01*
G01*
X64025000Y82055000D01*
G75*
G02*
X64070000Y82100000I45000J0D01*
G01*
X64430000Y82100000D01*
G75*
G02*
X64475000Y82055000I0J-45000D01*
G01*
G37*
G36*
G01*
X63675000Y82055000D02*
X63675000Y81345000D01*
G75*
G02*
X63630000Y81300000I-45000J0D01*
G01*
X63270000Y81300000D01*
G75*
G02*
X63225000Y81345000I0J45000D01*
G01*
X63225000Y82055000D01*
G75*
G02*
X63270000Y82100000I45000J0D01*
G01*
X63630000Y82100000D01*
G75*
G02*
X63675000Y82055000I0J-45000D01*
G01*
G37*
G36*
G01*
X62900000Y82035000D02*
X62900000Y81365000D01*
G75*
G02*
X62835000Y81300000I-65000J0D01*
G01*
X62315000Y81300000D01*
G75*
G02*
X62250000Y81365000I0J65000D01*
G01*
X62250000Y82035000D01*
G75*
G02*
X62315000Y82100000I65000J0D01*
G01*
X62835000Y82100000D01*
G75*
G02*
X62900000Y82035000I0J-65000D01*
G01*
G37*
G36*
G01*
X62900000Y80235000D02*
X62900000Y79565000D01*
G75*
G02*
X62835000Y79500000I-65000J0D01*
G01*
X62315000Y79500000D01*
G75*
G02*
X62250000Y79565000I0J65000D01*
G01*
X62250000Y80235000D01*
G75*
G02*
X62315000Y80300000I65000J0D01*
G01*
X62835000Y80300000D01*
G75*
G02*
X62900000Y80235000I0J-65000D01*
G01*
G37*
G36*
G01*
X63675000Y80255000D02*
X63675000Y79545000D01*
G75*
G02*
X63630000Y79500000I-45000J0D01*
G01*
X63270000Y79500000D01*
G75*
G02*
X63225000Y79545000I0J45000D01*
G01*
X63225000Y80255000D01*
G75*
G02*
X63270000Y80300000I45000J0D01*
G01*
X63630000Y80300000D01*
G75*
G02*
X63675000Y80255000I0J-45000D01*
G01*
G37*
G36*
G01*
X64475000Y80255000D02*
X64475000Y79545000D01*
G75*
G02*
X64430000Y79500000I-45000J0D01*
G01*
X64070000Y79500000D01*
G75*
G02*
X64025000Y79545000I0J45000D01*
G01*
X64025000Y80255000D01*
G75*
G02*
X64070000Y80300000I45000J0D01*
G01*
X64430000Y80300000D01*
G75*
G02*
X64475000Y80255000I0J-45000D01*
G01*
G37*
G36*
G01*
X65450000Y80235000D02*
X65450000Y79565000D01*
G75*
G02*
X65385000Y79500000I-65000J0D01*
G01*
X64865000Y79500000D01*
G75*
G02*
X64800000Y79565000I0J65000D01*
G01*
X64800000Y80235000D01*
G75*
G02*
X64865000Y80300000I65000J0D01*
G01*
X65385000Y80300000D01*
G75*
G02*
X65450000Y80235000I0J-65000D01*
G01*
G37*
G04 #@! TD*
G04 #@! TO.C,D25*
G36*
G01*
X78290000Y76495000D02*
X79310000Y76495000D01*
G75*
G02*
X79400000Y76405000I0J-90000D01*
G01*
X79400000Y75685000D01*
G75*
G02*
X79310000Y75595000I-90000J0D01*
G01*
X78290000Y75595000D01*
G75*
G02*
X78200000Y75685000I0J90000D01*
G01*
X78200000Y76405000D01*
G75*
G02*
X78290000Y76495000I90000J0D01*
G01*
G37*
G36*
G01*
X78290000Y73195000D02*
X79310000Y73195000D01*
G75*
G02*
X79400000Y73105000I0J-90000D01*
G01*
X79400000Y72385000D01*
G75*
G02*
X79310000Y72295000I-90000J0D01*
G01*
X78290000Y72295000D01*
G75*
G02*
X78200000Y72385000I0J90000D01*
G01*
X78200000Y73105000D01*
G75*
G02*
X78290000Y73195000I90000J0D01*
G01*
G37*
G04 #@! TD*
G04 #@! TO.C,R7*
G36*
G01*
X86139000Y93644999D02*
X84889000Y93644999D01*
G75*
G02*
X84789000Y93744999I0J100000D01*
G01*
X84789000Y94544999D01*
G75*
G02*
X84889000Y94644999I100000J0D01*
G01*
X86139000Y94644999D01*
G75*
G02*
X86239000Y94544999I0J-100000D01*
G01*
X86239000Y93744999D01*
G75*
G02*
X86139000Y93644999I-100000J0D01*
G01*
G37*
G36*
G01*
X86139000Y95545021D02*
X84889000Y95545021D01*
G75*
G02*
X84789000Y95645021I0J100000D01*
G01*
X84789000Y96445021D01*
G75*
G02*
X84889000Y96545021I100000J0D01*
G01*
X86139000Y96545021D01*
G75*
G02*
X86239000Y96445021I0J-100000D01*
G01*
X86239000Y95645021D01*
G75*
G02*
X86139000Y95545021I-100000J0D01*
G01*
G37*
G04 #@! TD*
G04 #@! TO.C,Q23*
X86525000Y87575000D03*
X86525000Y84225000D03*
X89575000Y87575000D03*
X89575000Y84225000D03*
G36*
G01*
X86250000Y78500000D02*
X85290000Y78500000D01*
G75*
G02*
X85170000Y78620000I0J120000D01*
G01*
X85170000Y80580000D01*
G75*
G02*
X85290000Y80700000I120000J0D01*
G01*
X86250000Y80700000D01*
G75*
G02*
X86370000Y80580000I0J-120000D01*
G01*
X86370000Y78620000D01*
G75*
G02*
X86250000Y78500000I-120000J0D01*
G01*
G37*
G36*
G01*
X90810000Y78500000D02*
X89850000Y78500000D01*
G75*
G02*
X89730000Y78620000I0J120000D01*
G01*
X89730000Y80580000D01*
G75*
G02*
X89850000Y80700000I120000J0D01*
G01*
X90810000Y80700000D01*
G75*
G02*
X90930000Y80580000I0J-120000D01*
G01*
X90930000Y78620000D01*
G75*
G02*
X90810000Y78500000I-120000J0D01*
G01*
G37*
G04 #@! TD*
D13*
G04 #@! TO.C,Q22*
X5575000Y74675000D03*
X2225000Y74675000D03*
X2225000Y77725000D03*
X5575000Y77725000D03*
G36*
G01*
X11300000Y74400000D02*
X11300000Y73440000D01*
G75*
G02*
X11180000Y73320000I-120000J0D01*
G01*
X9220000Y73320000D01*
G75*
G02*
X9100000Y73440000I0J120000D01*
G01*
X9100000Y74400000D01*
G75*
G02*
X9220000Y74520000I120000J0D01*
G01*
X11180000Y74520000D01*
G75*
G02*
X11300000Y74400000I0J-120000D01*
G01*
G37*
G36*
G01*
X11300000Y78960000D02*
X11300000Y78000000D01*
G75*
G02*
X11180000Y77880000I-120000J0D01*
G01*
X9220000Y77880000D01*
G75*
G02*
X9100000Y78000000I0J120000D01*
G01*
X9100000Y78960000D01*
G75*
G02*
X9220000Y79080000I120000J0D01*
G01*
X11180000Y79080000D01*
G75*
G02*
X11300000Y78960000I0J-120000D01*
G01*
G37*
G04 #@! TD*
G04 #@! TO.C,R13*
G36*
G01*
X95025000Y93699999D02*
X93775000Y93699999D01*
G75*
G02*
X93675000Y93799999I0J100000D01*
G01*
X93675000Y94599999D01*
G75*
G02*
X93775000Y94699999I100000J0D01*
G01*
X95025000Y94699999D01*
G75*
G02*
X95125000Y94599999I0J-100000D01*
G01*
X95125000Y93799999D01*
G75*
G02*
X95025000Y93699999I-100000J0D01*
G01*
G37*
G36*
G01*
X95025000Y95600021D02*
X93775000Y95600021D01*
G75*
G02*
X93675000Y95700021I0J100000D01*
G01*
X93675000Y96500021D01*
G75*
G02*
X93775000Y96600021I100000J0D01*
G01*
X95025000Y96600021D01*
G75*
G02*
X95125000Y96500021I0J-100000D01*
G01*
X95125000Y95700021D01*
G75*
G02*
X95025000Y95600021I-100000J0D01*
G01*
G37*
G04 #@! TD*
G04 #@! TO.C,D54*
G36*
G01*
X29760000Y74800000D02*
X28740000Y74800000D01*
G75*
G02*
X28650000Y74890000I0J90000D01*
G01*
X28650000Y75610000D01*
G75*
G02*
X28740000Y75700000I90000J0D01*
G01*
X29760000Y75700000D01*
G75*
G02*
X29850000Y75610000I0J-90000D01*
G01*
X29850000Y74890000D01*
G75*
G02*
X29760000Y74800000I-90000J0D01*
G01*
G37*
G36*
G01*
X29760000Y78100000D02*
X28740000Y78100000D01*
G75*
G02*
X28650000Y78190000I0J90000D01*
G01*
X28650000Y78910000D01*
G75*
G02*
X28740000Y79000000I90000J0D01*
G01*
X29760000Y79000000D01*
G75*
G02*
X29850000Y78910000I0J-90000D01*
G01*
X29850000Y78190000D01*
G75*
G02*
X29760000Y78100000I-90000J0D01*
G01*
G37*
G04 #@! TD*
G04 #@! TO.C,Q25*
G36*
G01*
X18100000Y36625000D02*
X17800000Y36625000D01*
G75*
G02*
X17650000Y36775000I0J150000D01*
G01*
X17650000Y37950000D01*
G75*
G02*
X17800000Y38100000I150000J0D01*
G01*
X18100000Y38100000D01*
G75*
G02*
X18250000Y37950000I0J-150000D01*
G01*
X18250000Y36775000D01*
G75*
G02*
X18100000Y36625000I-150000J0D01*
G01*
G37*
G36*
G01*
X19050000Y38500000D02*
X18750000Y38500000D01*
G75*
G02*
X18600000Y38650000I0J150000D01*
G01*
X18600000Y39825000D01*
G75*
G02*
X18750000Y39975000I150000J0D01*
G01*
X19050000Y39975000D01*
G75*
G02*
X19200000Y39825000I0J-150000D01*
G01*
X19200000Y38650000D01*
G75*
G02*
X19050000Y38500000I-150000J0D01*
G01*
G37*
G36*
G01*
X20000000Y36625000D02*
X19700000Y36625000D01*
G75*
G02*
X19550000Y36775000I0J150000D01*
G01*
X19550000Y37950000D01*
G75*
G02*
X19700000Y38100000I150000J0D01*
G01*
X20000000Y38100000D01*
G75*
G02*
X20150000Y37950000I0J-150000D01*
G01*
X20150000Y36775000D01*
G75*
G02*
X20000000Y36625000I-150000J0D01*
G01*
G37*
G04 #@! TD*
G04 #@! TO.C,R20*
G36*
G01*
X88171000Y93692999D02*
X86921000Y93692999D01*
G75*
G02*
X86821000Y93792999I0J100000D01*
G01*
X86821000Y94592999D01*
G75*
G02*
X86921000Y94692999I100000J0D01*
G01*
X88171000Y94692999D01*
G75*
G02*
X88271000Y94592999I0J-100000D01*
G01*
X88271000Y93792999D01*
G75*
G02*
X88171000Y93692999I-100000J0D01*
G01*
G37*
G36*
G01*
X88171000Y95593021D02*
X86921000Y95593021D01*
G75*
G02*
X86821000Y95693021I0J100000D01*
G01*
X86821000Y96493021D01*
G75*
G02*
X86921000Y96593021I100000J0D01*
G01*
X88171000Y96593021D01*
G75*
G02*
X88271000Y96493021I0J-100000D01*
G01*
X88271000Y95693021D01*
G75*
G02*
X88171000Y95593021I-100000J0D01*
G01*
G37*
G04 #@! TD*
G04 #@! TO.C,D52*
G36*
G01*
X37990000Y85450000D02*
X39010000Y85450000D01*
G75*
G02*
X39100000Y85360000I0J-90000D01*
G01*
X39100000Y84640000D01*
G75*
G02*
X39010000Y84550000I-90000J0D01*
G01*
X37990000Y84550000D01*
G75*
G02*
X37900000Y84640000I0J90000D01*
G01*
X37900000Y85360000D01*
G75*
G02*
X37990000Y85450000I90000J0D01*
G01*
G37*
G36*
G01*
X37990000Y82150000D02*
X39010000Y82150000D01*
G75*
G02*
X39100000Y82060000I0J-90000D01*
G01*
X39100000Y81340000D01*
G75*
G02*
X39010000Y81250000I-90000J0D01*
G01*
X37990000Y81250000D01*
G75*
G02*
X37900000Y81340000I0J90000D01*
G01*
X37900000Y82060000D01*
G75*
G02*
X37990000Y82150000I90000J0D01*
G01*
G37*
G04 #@! TD*
G04 #@! TO.C,F6*
G36*
G01*
X55400000Y95555010D02*
X55400000Y96245010D01*
G75*
G02*
X55630000Y96475010I230000J0D01*
G01*
X56970000Y96475010D01*
G75*
G02*
X57200000Y96245010I0J-230000D01*
G01*
X57200000Y95555010D01*
G75*
G02*
X56970000Y95325010I-230000J0D01*
G01*
X55630000Y95325010D01*
G75*
G02*
X55400000Y95555010I0J230000D01*
G01*
G37*
G36*
G01*
X55400000Y92654990D02*
X55400000Y93344990D01*
G75*
G02*
X55630000Y93574990I230000J0D01*
G01*
X56970000Y93574990D01*
G75*
G02*
X57200000Y93344990I0J-230000D01*
G01*
X57200000Y92654990D01*
G75*
G02*
X56970000Y92424990I-230000J0D01*
G01*
X55630000Y92424990D01*
G75*
G02*
X55400000Y92654990I0J230000D01*
G01*
G37*
G04 #@! TD*
G04 #@! TO.C,C2*
G36*
G01*
X66390000Y3034999D02*
X65710000Y3034999D01*
G75*
G02*
X65625000Y3119999I0J85000D01*
G01*
X65625000Y3799999D01*
G75*
G02*
X65710000Y3884999I85000J0D01*
G01*
X66390000Y3884999D01*
G75*
G02*
X66475000Y3799999I0J-85000D01*
G01*
X66475000Y3119999D01*
G75*
G02*
X66390000Y3034999I-85000J0D01*
G01*
G37*
G36*
G01*
X66390000Y4615001D02*
X65710000Y4615001D01*
G75*
G02*
X65625000Y4700001I0J85000D01*
G01*
X65625000Y5380001D01*
G75*
G02*
X65710000Y5465001I85000J0D01*
G01*
X66390000Y5465001D01*
G75*
G02*
X66475000Y5380001I0J-85000D01*
G01*
X66475000Y4700001D01*
G75*
G02*
X66390000Y4615001I-85000J0D01*
G01*
G37*
G04 #@! TD*
D16*
G04 #@! TO.C,M2*
X77825002Y11930688D03*
X62950000Y8524977D03*
X39130004Y12474992D03*
X39129999Y10574991D03*
X76124985Y13932665D03*
G04 #@! TD*
G04 #@! TO.C,R12*
G36*
G01*
X50475000Y104499999D02*
X49225000Y104499999D01*
G75*
G02*
X49125000Y104599999I0J100000D01*
G01*
X49125000Y105399999D01*
G75*
G02*
X49225000Y105499999I100000J0D01*
G01*
X50475000Y105499999D01*
G75*
G02*
X50575000Y105399999I0J-100000D01*
G01*
X50575000Y104599999D01*
G75*
G02*
X50475000Y104499999I-100000J0D01*
G01*
G37*
G36*
G01*
X50475000Y106400021D02*
X49225000Y106400021D01*
G75*
G02*
X49125000Y106500021I0J100000D01*
G01*
X49125000Y107300021D01*
G75*
G02*
X49225000Y107400021I100000J0D01*
G01*
X50475000Y107400021D01*
G75*
G02*
X50575000Y107300021I0J-100000D01*
G01*
X50575000Y106500021D01*
G75*
G02*
X50475000Y106400021I-100000J0D01*
G01*
G37*
G04 #@! TD*
G04 #@! TO.C,R44*
G36*
G01*
X28710000Y59000000D02*
X29490000Y59000000D01*
G75*
G02*
X29560000Y58930000I0J-70000D01*
G01*
X29560000Y58370000D01*
G75*
G02*
X29490000Y58300000I-70000J0D01*
G01*
X28710000Y58300000D01*
G75*
G02*
X28640000Y58370000I0J70000D01*
G01*
X28640000Y58930000D01*
G75*
G02*
X28710000Y59000000I70000J0D01*
G01*
G37*
G36*
G01*
X28710000Y57400000D02*
X29490000Y57400000D01*
G75*
G02*
X29560000Y57330000I0J-70000D01*
G01*
X29560000Y56770000D01*
G75*
G02*
X29490000Y56700000I-70000J0D01*
G01*
X28710000Y56700000D01*
G75*
G02*
X28640000Y56770000I0J70000D01*
G01*
X28640000Y57330000D01*
G75*
G02*
X28710000Y57400000I70000J0D01*
G01*
G37*
G04 #@! TD*
G04 #@! TO.C,R18*
G36*
G01*
X62475000Y93149999D02*
X61225000Y93149999D01*
G75*
G02*
X61125000Y93249999I0J100000D01*
G01*
X61125000Y94049999D01*
G75*
G02*
X61225000Y94149999I100000J0D01*
G01*
X62475000Y94149999D01*
G75*
G02*
X62575000Y94049999I0J-100000D01*
G01*
X62575000Y93249999D01*
G75*
G02*
X62475000Y93149999I-100000J0D01*
G01*
G37*
G36*
G01*
X62475000Y95050021D02*
X61225000Y95050021D01*
G75*
G02*
X61125000Y95150021I0J100000D01*
G01*
X61125000Y95950021D01*
G75*
G02*
X61225000Y96050021I100000J0D01*
G01*
X62475000Y96050021D01*
G75*
G02*
X62575000Y95950021I0J-100000D01*
G01*
X62575000Y95150021D01*
G75*
G02*
X62475000Y95050021I-100000J0D01*
G01*
G37*
G04 #@! TD*
G04 #@! TO.C,D13*
G36*
G01*
X76838000Y72074000D02*
X76838000Y71174000D01*
G75*
G02*
X76738000Y71074000I-100000J0D01*
G01*
X75938000Y71074000D01*
G75*
G02*
X75838000Y71174000I0J100000D01*
G01*
X75838000Y72074000D01*
G75*
G02*
X75938000Y72174000I100000J0D01*
G01*
X76738000Y72174000D01*
G75*
G02*
X76838000Y72074000I0J-100000D01*
G01*
G37*
G36*
G01*
X75138000Y72074000D02*
X75138000Y71174000D01*
G75*
G02*
X75038000Y71074000I-100000J0D01*
G01*
X74238000Y71074000D01*
G75*
G02*
X74138000Y71174000I0J100000D01*
G01*
X74138000Y72074000D01*
G75*
G02*
X74238000Y72174000I100000J0D01*
G01*
X75038000Y72174000D01*
G75*
G02*
X75138000Y72074000I0J-100000D01*
G01*
G37*
G04 #@! TD*
G04 #@! TO.C,C15*
G36*
G01*
X49825000Y80600000D02*
X48775000Y80600000D01*
G75*
G02*
X48675000Y80700000I0J100000D01*
G01*
X48675000Y81500000D01*
G75*
G02*
X48775000Y81600000I100000J0D01*
G01*
X49825000Y81600000D01*
G75*
G02*
X49925000Y81500000I0J-100000D01*
G01*
X49925000Y80700000D01*
G75*
G02*
X49825000Y80600000I-100000J0D01*
G01*
G37*
G36*
G01*
X49825000Y82600000D02*
X48775000Y82600000D01*
G75*
G02*
X48675000Y82700000I0J100000D01*
G01*
X48675000Y83500000D01*
G75*
G02*
X48775000Y83600000I100000J0D01*
G01*
X49825000Y83600000D01*
G75*
G02*
X49925000Y83500000I0J-100000D01*
G01*
X49925000Y82700000D01*
G75*
G02*
X49825000Y82600000I-100000J0D01*
G01*
G37*
G04 #@! TD*
G04 #@! TO.C,D37*
G36*
G01*
X37037498Y69138501D02*
X37037498Y68658501D01*
G75*
G02*
X36977498Y68598501I-60000J0D01*
G01*
X36497498Y68598501D01*
G75*
G02*
X36437498Y68658501I0J60000D01*
G01*
X36437498Y69138501D01*
G75*
G02*
X36497498Y69198501I60000J0D01*
G01*
X36977498Y69198501D01*
G75*
G02*
X37037498Y69138501I0J-60000D01*
G01*
G37*
G36*
G01*
X37037498Y66938501D02*
X37037498Y66458501D01*
G75*
G02*
X36977498Y66398501I-60000J0D01*
G01*
X36497498Y66398501D01*
G75*
G02*
X36437498Y66458501I0J60000D01*
G01*
X36437498Y66938501D01*
G75*
G02*
X36497498Y66998501I60000J0D01*
G01*
X36977498Y66998501D01*
G75*
G02*
X37037498Y66938501I0J-60000D01*
G01*
G37*
G04 #@! TD*
D13*
G04 #@! TO.C,Q9*
X13725000Y77575000D03*
X17075000Y77575000D03*
X17075000Y74525000D03*
X13725000Y74525000D03*
G36*
G01*
X22800000Y74250000D02*
X22800000Y73290000D01*
G75*
G02*
X22680000Y73170000I-120000J0D01*
G01*
X20720000Y73170000D01*
G75*
G02*
X20600000Y73290000I0J120000D01*
G01*
X20600000Y74250000D01*
G75*
G02*
X20720000Y74370000I120000J0D01*
G01*
X22680000Y74370000D01*
G75*
G02*
X22800000Y74250000I0J-120000D01*
G01*
G37*
G36*
G01*
X22800000Y78810000D02*
X22800000Y77850000D01*
G75*
G02*
X22680000Y77730000I-120000J0D01*
G01*
X20720000Y77730000D01*
G75*
G02*
X20600000Y77850000I0J120000D01*
G01*
X20600000Y78810000D01*
G75*
G02*
X20720000Y78930000I120000J0D01*
G01*
X22680000Y78930000D01*
G75*
G02*
X22800000Y78810000I0J-120000D01*
G01*
G37*
G04 #@! TD*
G04 #@! TO.C,R78*
G36*
G01*
X54635000Y61100000D02*
X53965000Y61100000D01*
G75*
G02*
X53900000Y61165000I0J65000D01*
G01*
X53900000Y61685000D01*
G75*
G02*
X53965000Y61750000I65000J0D01*
G01*
X54635000Y61750000D01*
G75*
G02*
X54700000Y61685000I0J-65000D01*
G01*
X54700000Y61165000D01*
G75*
G02*
X54635000Y61100000I-65000J0D01*
G01*
G37*
G36*
G01*
X54655000Y62075000D02*
X53945000Y62075000D01*
G75*
G02*
X53900000Y62120000I0J45000D01*
G01*
X53900000Y62480000D01*
G75*
G02*
X53945000Y62525000I45000J0D01*
G01*
X54655000Y62525000D01*
G75*
G02*
X54700000Y62480000I0J-45000D01*
G01*
X54700000Y62120000D01*
G75*
G02*
X54655000Y62075000I-45000J0D01*
G01*
G37*
G36*
G01*
X54655000Y62875000D02*
X53945000Y62875000D01*
G75*
G02*
X53900000Y62920000I0J45000D01*
G01*
X53900000Y63280000D01*
G75*
G02*
X53945000Y63325000I45000J0D01*
G01*
X54655000Y63325000D01*
G75*
G02*
X54700000Y63280000I0J-45000D01*
G01*
X54700000Y62920000D01*
G75*
G02*
X54655000Y62875000I-45000J0D01*
G01*
G37*
G36*
G01*
X54635000Y63650000D02*
X53965000Y63650000D01*
G75*
G02*
X53900000Y63715000I0J65000D01*
G01*
X53900000Y64235000D01*
G75*
G02*
X53965000Y64300000I65000J0D01*
G01*
X54635000Y64300000D01*
G75*
G02*
X54700000Y64235000I0J-65000D01*
G01*
X54700000Y63715000D01*
G75*
G02*
X54635000Y63650000I-65000J0D01*
G01*
G37*
G36*
G01*
X52835000Y63650000D02*
X52165000Y63650000D01*
G75*
G02*
X52100000Y63715000I0J65000D01*
G01*
X52100000Y64235000D01*
G75*
G02*
X52165000Y64300000I65000J0D01*
G01*
X52835000Y64300000D01*
G75*
G02*
X52900000Y64235000I0J-65000D01*
G01*
X52900000Y63715000D01*
G75*
G02*
X52835000Y63650000I-65000J0D01*
G01*
G37*
G36*
G01*
X52855000Y62875000D02*
X52145000Y62875000D01*
G75*
G02*
X52100000Y62920000I0J45000D01*
G01*
X52100000Y63280000D01*
G75*
G02*
X52145000Y63325000I45000J0D01*
G01*
X52855000Y63325000D01*
G75*
G02*
X52900000Y63280000I0J-45000D01*
G01*
X52900000Y62920000D01*
G75*
G02*
X52855000Y62875000I-45000J0D01*
G01*
G37*
G36*
G01*
X52855000Y62075000D02*
X52145000Y62075000D01*
G75*
G02*
X52100000Y62120000I0J45000D01*
G01*
X52100000Y62480000D01*
G75*
G02*
X52145000Y62525000I45000J0D01*
G01*
X52855000Y62525000D01*
G75*
G02*
X52900000Y62480000I0J-45000D01*
G01*
X52900000Y62120000D01*
G75*
G02*
X52855000Y62075000I-45000J0D01*
G01*
G37*
G36*
G01*
X52835000Y61100000D02*
X52165000Y61100000D01*
G75*
G02*
X52100000Y61165000I0J65000D01*
G01*
X52100000Y61685000D01*
G75*
G02*
X52165000Y61750000I65000J0D01*
G01*
X52835000Y61750000D01*
G75*
G02*
X52900000Y61685000I0J-65000D01*
G01*
X52900000Y61165000D01*
G75*
G02*
X52835000Y61100000I-65000J0D01*
G01*
G37*
G04 #@! TD*
D21*
G04 #@! TO.C,J2*
X37710000Y2500000D03*
X37710000Y6400000D03*
X38980000Y2500000D03*
X38980000Y6400000D03*
X40250000Y2500000D03*
X40250000Y6400000D03*
X41520000Y2500000D03*
X41520000Y6400000D03*
X42790000Y2500000D03*
X42790000Y6400000D03*
G04 #@! TD*
G04 #@! TO.C,F5*
G36*
G01*
X57750000Y95600010D02*
X57750000Y96290010D01*
G75*
G02*
X57980000Y96520010I230000J0D01*
G01*
X59320000Y96520010D01*
G75*
G02*
X59550000Y96290010I0J-230000D01*
G01*
X59550000Y95600010D01*
G75*
G02*
X59320000Y95370010I-230000J0D01*
G01*
X57980000Y95370010D01*
G75*
G02*
X57750000Y95600010I0J230000D01*
G01*
G37*
G36*
G01*
X57750000Y92699990D02*
X57750000Y93389990D01*
G75*
G02*
X57980000Y93619990I230000J0D01*
G01*
X59320000Y93619990D01*
G75*
G02*
X59550000Y93389990I0J-230000D01*
G01*
X59550000Y92699990D01*
G75*
G02*
X59320000Y92469990I-230000J0D01*
G01*
X57980000Y92469990D01*
G75*
G02*
X57750000Y92699990I0J230000D01*
G01*
G37*
G04 #@! TD*
G04 #@! TO.C,R51*
G36*
G01*
X39650000Y60215000D02*
X39650000Y60885000D01*
G75*
G02*
X39715000Y60950000I65000J0D01*
G01*
X40235000Y60950000D01*
G75*
G02*
X40300000Y60885000I0J-65000D01*
G01*
X40300000Y60215000D01*
G75*
G02*
X40235000Y60150000I-65000J0D01*
G01*
X39715000Y60150000D01*
G75*
G02*
X39650000Y60215000I0J65000D01*
G01*
G37*
G36*
G01*
X40625000Y60195000D02*
X40625000Y60905000D01*
G75*
G02*
X40670000Y60950000I45000J0D01*
G01*
X41030000Y60950000D01*
G75*
G02*
X41075000Y60905000I0J-45000D01*
G01*
X41075000Y60195000D01*
G75*
G02*
X41030000Y60150000I-45000J0D01*
G01*
X40670000Y60150000D01*
G75*
G02*
X40625000Y60195000I0J45000D01*
G01*
G37*
G36*
G01*
X41425000Y60195000D02*
X41425000Y60905000D01*
G75*
G02*
X41470000Y60950000I45000J0D01*
G01*
X41830000Y60950000D01*
G75*
G02*
X41875000Y60905000I0J-45000D01*
G01*
X41875000Y60195000D01*
G75*
G02*
X41830000Y60150000I-45000J0D01*
G01*
X41470000Y60150000D01*
G75*
G02*
X41425000Y60195000I0J45000D01*
G01*
G37*
G36*
G01*
X42200000Y60215000D02*
X42200000Y60885000D01*
G75*
G02*
X42265000Y60950000I65000J0D01*
G01*
X42785000Y60950000D01*
G75*
G02*
X42850000Y60885000I0J-65000D01*
G01*
X42850000Y60215000D01*
G75*
G02*
X42785000Y60150000I-65000J0D01*
G01*
X42265000Y60150000D01*
G75*
G02*
X42200000Y60215000I0J65000D01*
G01*
G37*
G36*
G01*
X42200000Y62015000D02*
X42200000Y62685000D01*
G75*
G02*
X42265000Y62750000I65000J0D01*
G01*
X42785000Y62750000D01*
G75*
G02*
X42850000Y62685000I0J-65000D01*
G01*
X42850000Y62015000D01*
G75*
G02*
X42785000Y61950000I-65000J0D01*
G01*
X42265000Y61950000D01*
G75*
G02*
X42200000Y62015000I0J65000D01*
G01*
G37*
G36*
G01*
X41425000Y61995000D02*
X41425000Y62705000D01*
G75*
G02*
X41470000Y62750000I45000J0D01*
G01*
X41830000Y62750000D01*
G75*
G02*
X41875000Y62705000I0J-45000D01*
G01*
X41875000Y61995000D01*
G75*
G02*
X41830000Y61950000I-45000J0D01*
G01*
X41470000Y61950000D01*
G75*
G02*
X41425000Y61995000I0J45000D01*
G01*
G37*
G36*
G01*
X40625000Y61995000D02*
X40625000Y62705000D01*
G75*
G02*
X40670000Y62750000I45000J0D01*
G01*
X41030000Y62750000D01*
G75*
G02*
X41075000Y62705000I0J-45000D01*
G01*
X41075000Y61995000D01*
G75*
G02*
X41030000Y61950000I-45000J0D01*
G01*
X40670000Y61950000D01*
G75*
G02*
X40625000Y61995000I0J45000D01*
G01*
G37*
G36*
G01*
X39650000Y62015000D02*
X39650000Y62685000D01*
G75*
G02*
X39715000Y62750000I65000J0D01*
G01*
X40235000Y62750000D01*
G75*
G02*
X40300000Y62685000I0J-65000D01*
G01*
X40300000Y62015000D01*
G75*
G02*
X40235000Y61950000I-65000J0D01*
G01*
X39715000Y61950000D01*
G75*
G02*
X39650000Y62015000I0J65000D01*
G01*
G37*
G04 #@! TD*
G04 #@! TO.C,F2*
G36*
G01*
X77900000Y95700010D02*
X77900000Y96390010D01*
G75*
G02*
X78130000Y96620010I230000J0D01*
G01*
X79470000Y96620010D01*
G75*
G02*
X79700000Y96390010I0J-230000D01*
G01*
X79700000Y95700010D01*
G75*
G02*
X79470000Y95470010I-230000J0D01*
G01*
X78130000Y95470010D01*
G75*
G02*
X77900000Y95700010I0J230000D01*
G01*
G37*
G36*
G01*
X77900000Y92799990D02*
X77900000Y93489990D01*
G75*
G02*
X78130000Y93719990I230000J0D01*
G01*
X79470000Y93719990D01*
G75*
G02*
X79700000Y93489990I0J-230000D01*
G01*
X79700000Y92799990D01*
G75*
G02*
X79470000Y92569990I-230000J0D01*
G01*
X78130000Y92569990D01*
G75*
G02*
X77900000Y92799990I0J230000D01*
G01*
G37*
G04 #@! TD*
M02*
