G75*
G70*
%OFA0B0*%
%FSLAX25Y25*%
%IPPOS*%
%LPD*%
%AMOC8*
5,1,8,0,0,1.08239X$1,22.5*
%
%ADD10C,0.01969*%
%ADD106C,0.02362*%
%ADD143C,0.00472*%
%ADD150C,0.00500*%
%ADD176C,0.00669*%
%ADD192C,0.00591*%
%ADD206C,0.01000*%
%ADD226C,0.00390*%
%ADD35C,0.00512*%
%ADD50C,0.00010*%
%ADD56C,0.00787*%
X0000000Y0000000D02*
%LPD*%
G01*
D176*
X0332008Y0388614D02*
X0332008Y0391763D01*
X0328858Y0391613D02*
X0329158Y0391763D01*
X0329608Y0391763D01*
X0330058Y0391613D01*
X0330358Y0391313D01*
X0330508Y0391013D01*
X0330658Y0390413D01*
X0330658Y0389964D01*
X0330508Y0389364D01*
X0330358Y0389064D01*
X0330058Y0388764D01*
X0329608Y0388614D01*
X0329308Y0388614D01*
X0328858Y0388764D01*
X0328708Y0388914D01*
X0328708Y0389964D01*
X0329308Y0389964D01*
X0327359Y0388614D02*
X0327359Y0391763D01*
X0325559Y0388614D01*
X0325559Y0391763D01*
X0323009Y0390263D02*
X0322559Y0390114D01*
X0322409Y0389964D01*
X0322259Y0389664D01*
X0322259Y0389214D01*
X0322409Y0388914D01*
X0322559Y0388764D01*
X0322859Y0388614D01*
X0324059Y0388614D01*
X0324059Y0391763D01*
X0323009Y0391763D01*
X0322709Y0391613D01*
X0322559Y0391463D01*
X0322409Y0391163D01*
X0322409Y0390863D01*
X0322559Y0390563D01*
X0322709Y0390413D01*
X0323009Y0390263D01*
X0324059Y0390263D01*
X0269608Y0420139D02*
X0269758Y0419989D01*
X0270208Y0419839D01*
X0270508Y0419839D01*
X0270958Y0419989D01*
X0271258Y0420289D01*
X0271408Y0420589D01*
X0271558Y0421189D01*
X0271558Y0421639D01*
X0271408Y0422239D01*
X0271258Y0422539D01*
X0270958Y0422839D01*
X0270508Y0422989D01*
X0270208Y0422989D01*
X0269758Y0422839D01*
X0269608Y0422689D01*
X0266459Y0419839D02*
X0267509Y0421339D01*
X0268258Y0419839D02*
X0268258Y0422989D01*
X0267059Y0422989D01*
X0266759Y0422839D01*
X0266609Y0422689D01*
X0266459Y0422389D01*
X0266459Y0421939D01*
X0266609Y0421639D01*
X0266759Y0421489D01*
X0267059Y0421339D01*
X0268258Y0421339D01*
X0265259Y0420739D02*
X0263759Y0420739D01*
X0265559Y0419839D02*
X0264509Y0422989D01*
X0263459Y0419839D01*
X0262409Y0419839D02*
X0262409Y0422989D01*
X0260609Y0419839D01*
X0260609Y0422989D01*
X0259110Y0419839D02*
X0259110Y0422989D01*
X0257310Y0419839D02*
X0258660Y0421639D01*
X0257310Y0422989D02*
X0259110Y0421189D01*
X0100272Y0420229D02*
X0100272Y0423378D01*
X0099222Y0421129D01*
X0098172Y0423378D01*
X0098172Y0420229D01*
X0096822Y0421129D02*
X0095322Y0421129D01*
X0097122Y0420229D02*
X0096072Y0423378D01*
X0095022Y0420229D01*
X0093973Y0420229D02*
X0093973Y0423378D01*
X0092473Y0420229D02*
X0092473Y0423378D01*
X0090673Y0420229D01*
X0090673Y0423378D01*
X0142210Y0421682D02*
X0141160Y0421682D01*
X0140711Y0420032D02*
X0142210Y0420032D01*
X0142210Y0423181D01*
X0140711Y0423181D01*
X0139811Y0423181D02*
X0138011Y0423181D01*
X0138911Y0420032D02*
X0138911Y0423181D01*
X0135911Y0421682D02*
X0135461Y0421532D01*
X0135311Y0421382D01*
X0135161Y0421082D01*
X0135161Y0420632D01*
X0135311Y0420332D01*
X0135461Y0420182D01*
X0135761Y0420032D01*
X0136961Y0420032D01*
X0136961Y0423181D01*
X0135911Y0423181D01*
X0135611Y0423031D01*
X0135461Y0422882D01*
X0135311Y0422582D01*
X0135311Y0422282D01*
X0135461Y0421982D01*
X0135611Y0421832D01*
X0135911Y0421682D01*
X0136961Y0421682D01*
X0133811Y0421232D02*
X0131412Y0421232D01*
X0132612Y0420032D02*
X0132612Y0422432D01*
X0347269Y0419976D02*
X0347269Y0423126D01*
X0345769Y0419976D02*
X0345769Y0423126D01*
X0345019Y0423126D01*
X0344569Y0422976D01*
X0344269Y0422676D01*
X0344119Y0422376D01*
X0343969Y0421776D01*
X0343969Y0421326D01*
X0344119Y0420726D01*
X0344269Y0420426D01*
X0344569Y0420126D01*
X0345019Y0419976D01*
X0345769Y0419976D01*
X0341119Y0419976D02*
X0342619Y0419976D01*
X0342619Y0423126D01*
X0340070Y0421626D02*
X0339020Y0421626D01*
X0338570Y0419976D02*
X0340070Y0419976D01*
X0340070Y0423126D01*
X0338570Y0423126D01*
X0335570Y0419976D02*
X0337370Y0419976D01*
X0336470Y0419976D02*
X0336470Y0423126D01*
X0336770Y0422676D01*
X0337070Y0422376D01*
X0337370Y0422226D01*
D56*
X0098191Y0037627D02*
X0097441Y0034477D01*
X0096691Y0036727D01*
X0095941Y0034477D01*
X0095191Y0037627D01*
X0094066Y0037627D02*
X0093316Y0034477D01*
X0092567Y0036727D01*
X0091817Y0034477D01*
X0091067Y0037627D01*
X0089942Y0037627D02*
X0089192Y0034477D01*
X0088442Y0036727D01*
X0087692Y0034477D01*
X0086942Y0037627D01*
X0085442Y0034927D02*
X0085255Y0034702D01*
X0085442Y0034477D01*
X0085630Y0034702D01*
X0085442Y0034927D01*
X0085442Y0034477D01*
X0081880Y0034477D02*
X0081880Y0036952D01*
X0082068Y0037402D01*
X0082443Y0037627D01*
X0083193Y0037627D01*
X0083568Y0037402D01*
X0081880Y0034702D02*
X0082255Y0034477D01*
X0083193Y0034477D01*
X0083568Y0034702D01*
X0083755Y0035152D01*
X0083755Y0035602D01*
X0083568Y0036052D01*
X0083193Y0036277D01*
X0082255Y0036277D01*
X0081880Y0036502D01*
X0079443Y0034477D02*
X0079818Y0034702D01*
X0080006Y0035152D01*
X0080006Y0039201D01*
X0077943Y0037627D02*
X0077943Y0032902D01*
X0077943Y0037402D02*
X0077568Y0037627D01*
X0076819Y0037627D01*
X0076444Y0037402D01*
X0076256Y0037177D01*
X0076069Y0036727D01*
X0076069Y0035377D01*
X0076256Y0034927D01*
X0076444Y0034702D01*
X0076819Y0034477D01*
X0077568Y0034477D01*
X0077943Y0034702D01*
X0074381Y0034477D02*
X0074381Y0039201D01*
X0072694Y0034477D02*
X0072694Y0036952D01*
X0072882Y0037402D01*
X0073256Y0037627D01*
X0073819Y0037627D01*
X0074194Y0037402D01*
X0074381Y0037177D01*
X0069132Y0034477D02*
X0069132Y0036952D01*
X0069319Y0037402D01*
X0069694Y0037627D01*
X0070444Y0037627D01*
X0070819Y0037402D01*
X0069132Y0034702D02*
X0069507Y0034477D01*
X0070444Y0034477D01*
X0070819Y0034702D01*
X0071007Y0035152D01*
X0071007Y0035602D01*
X0070819Y0036052D01*
X0070444Y0036277D01*
X0069507Y0036277D01*
X0069132Y0036502D01*
X0067632Y0034477D02*
X0065570Y0037627D01*
X0067632Y0037627D02*
X0065570Y0034477D01*
X0064070Y0037627D02*
X0064070Y0032902D01*
X0064070Y0037402D02*
X0063695Y0037627D01*
X0062945Y0037627D01*
X0062570Y0037402D01*
X0062383Y0037177D01*
X0062195Y0036727D01*
X0062195Y0035377D01*
X0062383Y0034927D01*
X0062570Y0034702D01*
X0062945Y0034477D01*
X0063695Y0034477D01*
X0064070Y0034702D01*
X0060508Y0034477D02*
X0060508Y0037627D01*
X0060508Y0036727D02*
X0060321Y0037177D01*
X0060133Y0037402D01*
X0059758Y0037627D01*
X0059383Y0037627D01*
X0058071Y0034927D02*
X0057883Y0034702D01*
X0058071Y0034477D01*
X0058258Y0034702D01*
X0058071Y0034927D01*
X0058071Y0034477D01*
X0054509Y0034702D02*
X0054884Y0034477D01*
X0055634Y0034477D01*
X0056009Y0034702D01*
X0056196Y0034927D01*
X0056384Y0035377D01*
X0056384Y0036727D01*
X0056196Y0037177D01*
X0056009Y0037402D01*
X0055634Y0037627D01*
X0054884Y0037627D01*
X0054509Y0037402D01*
X0052259Y0034477D02*
X0052634Y0034702D01*
X0052822Y0034927D01*
X0053009Y0035377D01*
X0053009Y0036727D01*
X0052822Y0037177D01*
X0052634Y0037402D01*
X0052259Y0037627D01*
X0051697Y0037627D01*
X0051322Y0037402D01*
X0051134Y0037177D01*
X0050947Y0036727D01*
X0050947Y0035377D01*
X0051134Y0034927D01*
X0051322Y0034702D01*
X0051697Y0034477D01*
X0052259Y0034477D01*
X0049259Y0034477D02*
X0049259Y0037627D01*
X0049259Y0037177D02*
X0049072Y0037402D01*
X0048697Y0037627D01*
X0048135Y0037627D01*
X0047760Y0037402D01*
X0047572Y0036952D01*
X0047572Y0034477D01*
X0047572Y0036952D02*
X0047385Y0037402D01*
X0047010Y0037627D01*
X0046447Y0037627D01*
X0046072Y0037402D01*
X0045885Y0036952D01*
X0045885Y0034477D01*
D176*
X0058446Y0423181D02*
X0057396Y0420032D01*
X0056346Y0423181D01*
X0055746Y0423181D02*
X0054696Y0420032D01*
X0053646Y0423181D01*
X0053046Y0423181D02*
X0051247Y0423181D01*
X0052147Y0420032D02*
X0052147Y0423181D01*
X0048547Y0420032D02*
X0050347Y0420032D01*
X0049447Y0420032D02*
X0049447Y0423181D01*
X0049747Y0422732D01*
X0050047Y0422432D01*
X0050347Y0422282D01*
X0072244Y0388733D02*
X0072244Y0391882D01*
X0071494Y0391882D01*
X0071044Y0391732D01*
X0070744Y0391432D01*
X0070594Y0391132D01*
X0070444Y0390532D01*
X0070444Y0390082D01*
X0070594Y0389483D01*
X0070744Y0389183D01*
X0071044Y0388883D01*
X0071494Y0388733D01*
X0072244Y0388733D01*
X0069094Y0388733D02*
X0069094Y0391882D01*
X0067595Y0388733D02*
X0067595Y0391882D01*
X0065795Y0388733D01*
X0065795Y0391882D01*
X0064445Y0391582D02*
X0064295Y0391732D01*
X0063995Y0391882D01*
X0063245Y0391882D01*
X0062945Y0391732D01*
X0062795Y0391582D01*
X0062645Y0391282D01*
X0062645Y0390982D01*
X0062795Y0390532D01*
X0064595Y0388733D01*
X0062645Y0388733D01*
X0043766Y0419835D02*
X0043766Y0422985D01*
X0042267Y0419835D02*
X0042267Y0422985D01*
X0041517Y0422985D01*
X0041067Y0422835D01*
X0040767Y0422535D01*
X0040617Y0422235D01*
X0040467Y0421635D01*
X0040467Y0421185D01*
X0040617Y0420585D01*
X0040767Y0420285D01*
X0041067Y0419985D01*
X0041517Y0419835D01*
X0042267Y0419835D01*
X0037617Y0419835D02*
X0039117Y0419835D01*
X0039117Y0422985D01*
X0036567Y0421485D02*
X0035517Y0421485D01*
X0035067Y0419835D02*
X0036567Y0419835D01*
X0036567Y0422985D01*
X0035067Y0422985D01*
X0033868Y0422685D02*
X0033718Y0422835D01*
X0033418Y0422985D01*
X0032668Y0422985D01*
X0032368Y0422835D01*
X0032218Y0422685D01*
X0032068Y0422385D01*
X0032068Y0422085D01*
X0032218Y0421635D01*
X0034018Y0419835D01*
X0032068Y0419835D01*
X0127859Y0423181D02*
X0126809Y0420032D01*
X0125759Y0423181D01*
X0124709Y0420032D02*
X0124709Y0423181D01*
X0121560Y0423031D02*
X0121860Y0423181D01*
X0122310Y0423181D01*
X0122760Y0423031D01*
X0123060Y0422732D01*
X0123210Y0422432D01*
X0123360Y0421832D01*
X0123360Y0421382D01*
X0123210Y0420782D01*
X0123060Y0420482D01*
X0122760Y0420182D01*
X0122310Y0420032D01*
X0122010Y0420032D01*
X0121560Y0420182D01*
X0121410Y0420332D01*
X0121410Y0421382D01*
X0122010Y0421382D01*
X0120060Y0420032D02*
X0120060Y0423181D01*
X0118260Y0420032D01*
X0118260Y0423181D01*
X0142013Y0405934D02*
X0140964Y0405934D01*
X0140514Y0404284D02*
X0142013Y0404284D01*
X0142013Y0407433D01*
X0140514Y0407433D01*
X0139614Y0407433D02*
X0137814Y0407433D01*
X0138714Y0404284D02*
X0138714Y0407433D01*
X0135714Y0405934D02*
X0135264Y0405784D01*
X0135114Y0405634D01*
X0134964Y0405334D01*
X0134964Y0404884D01*
X0135114Y0404584D01*
X0135264Y0404434D01*
X0135564Y0404284D01*
X0136764Y0404284D01*
X0136764Y0407433D01*
X0135714Y0407433D01*
X0135414Y0407283D01*
X0135264Y0407133D01*
X0135114Y0406834D01*
X0135114Y0406534D01*
X0135264Y0406234D01*
X0135414Y0406084D01*
X0135714Y0405934D01*
X0136764Y0405934D01*
X0133615Y0405484D02*
X0131215Y0405484D01*
D106*
X0083373Y0116760D02*
X0083373Y0109936D01*
X0085810Y0120660D02*
X0088247Y0113348D01*
X0081910Y0113348D01*
X0073624Y0110424D02*
X0074599Y0109936D01*
X0076549Y0109936D01*
X0077523Y0110424D01*
X0078011Y0110911D01*
X0078498Y0111886D01*
X0078498Y0114811D01*
X0078011Y0115786D01*
X0077523Y0116273D01*
X0076549Y0116760D01*
X0074599Y0116760D01*
X0073624Y0116273D01*
X0069237Y0109936D02*
X0069237Y0120172D01*
X0064850Y0109936D02*
X0064850Y0115298D01*
X0065337Y0116273D01*
X0066312Y0116760D01*
X0067775Y0116760D01*
X0068750Y0116273D01*
X0069237Y0115786D01*
X0055589Y0109936D02*
X0055589Y0115298D01*
X0056076Y0116273D01*
X0057051Y0116760D01*
X0059001Y0116760D01*
X0059976Y0116273D01*
X0055589Y0110424D02*
X0056564Y0109936D01*
X0059001Y0109936D01*
X0059976Y0110424D01*
X0060463Y0111399D01*
X0060463Y0112373D01*
X0059976Y0113348D01*
X0059001Y0113836D01*
X0056564Y0113836D01*
X0055589Y0114323D01*
X0050714Y0116760D02*
X0050714Y0109936D01*
X0050714Y0115786D02*
X0050227Y0116273D01*
X0049252Y0116760D01*
X0047790Y0116760D01*
X0046815Y0116273D01*
X0046327Y0115298D01*
X0046327Y0109936D01*
D176*
X0126781Y0405934D02*
X0127831Y0405934D01*
X0127831Y0404284D02*
X0127831Y0407433D01*
X0126331Y0407433D01*
X0123631Y0404284D02*
X0125131Y0404284D01*
X0125131Y0407433D01*
X0122582Y0405934D02*
X0121532Y0405934D01*
X0121082Y0404284D02*
X0122582Y0404284D01*
X0122582Y0407433D01*
X0121082Y0407433D01*
X0120032Y0407433D02*
X0117932Y0404284D01*
X0117932Y0407433D02*
X0120032Y0404284D01*
X0109252Y0404584D02*
X0109402Y0404434D01*
X0109852Y0404284D01*
X0110152Y0404284D01*
X0110602Y0404434D01*
X0110902Y0404734D01*
X0111052Y0405034D01*
X0111202Y0405634D01*
X0111202Y0406084D01*
X0111052Y0406684D01*
X0110902Y0406984D01*
X0110602Y0407283D01*
X0110152Y0407433D01*
X0109852Y0407433D01*
X0109402Y0407283D01*
X0109252Y0407133D01*
X0108052Y0405184D02*
X0106552Y0405184D01*
X0108352Y0404284D02*
X0107302Y0407433D01*
X0106252Y0404284D01*
X0105202Y0404284D02*
X0105202Y0407433D01*
X0104153Y0405184D01*
X0103103Y0407433D01*
X0103103Y0404284D01*
X0102353Y0403984D02*
X0099953Y0403984D01*
X0099653Y0407433D02*
X0098603Y0404284D01*
X0097553Y0407433D01*
X0094704Y0404284D02*
X0095754Y0405784D01*
X0096504Y0404284D02*
X0096504Y0407433D01*
X0095304Y0407433D01*
X0095004Y0407283D01*
X0094854Y0407133D01*
X0094704Y0406834D01*
X0094704Y0406384D01*
X0094854Y0406084D01*
X0095004Y0405934D01*
X0095304Y0405784D01*
X0096504Y0405784D01*
X0058727Y0390186D02*
X0058277Y0390036D01*
X0058127Y0389886D01*
X0057977Y0389586D01*
X0057977Y0389136D01*
X0058127Y0388836D01*
X0058277Y0388686D01*
X0058577Y0388536D01*
X0059777Y0388536D01*
X0059777Y0391685D01*
X0058727Y0391685D01*
X0058427Y0391535D01*
X0058277Y0391385D01*
X0058127Y0391085D01*
X0058127Y0390786D01*
X0058277Y0390486D01*
X0058427Y0390336D01*
X0058727Y0390186D01*
X0059777Y0390186D01*
X0056027Y0391685D02*
X0055427Y0391685D01*
X0055127Y0391535D01*
X0054828Y0391235D01*
X0054678Y0390636D01*
X0054678Y0389586D01*
X0054828Y0388986D01*
X0055127Y0388686D01*
X0055427Y0388536D01*
X0056027Y0388536D01*
X0056327Y0388686D01*
X0056627Y0388986D01*
X0056777Y0389586D01*
X0056777Y0390636D01*
X0056627Y0391235D01*
X0056327Y0391535D01*
X0056027Y0391685D01*
X0052728Y0391685D02*
X0052128Y0391685D01*
X0051828Y0391535D01*
X0051528Y0391235D01*
X0051378Y0390636D01*
X0051378Y0389586D01*
X0051528Y0388986D01*
X0051828Y0388686D01*
X0052128Y0388536D01*
X0052728Y0388536D01*
X0053028Y0388686D01*
X0053328Y0388986D01*
X0053478Y0389586D01*
X0053478Y0390636D01*
X0053328Y0391235D01*
X0053028Y0391535D01*
X0052728Y0391685D01*
X0050178Y0388686D02*
X0049728Y0388536D01*
X0048978Y0388536D01*
X0048678Y0388686D01*
X0048528Y0388836D01*
X0048378Y0389136D01*
X0048378Y0389436D01*
X0048528Y0389736D01*
X0048678Y0389886D01*
X0048978Y0390036D01*
X0049578Y0390186D01*
X0049878Y0390336D01*
X0050028Y0390486D01*
X0050178Y0390786D01*
X0050178Y0391085D01*
X0050028Y0391385D01*
X0049878Y0391535D01*
X0049578Y0391685D01*
X0048828Y0391685D01*
X0048378Y0391535D01*
X0047478Y0391685D02*
X0045679Y0391685D01*
X0046579Y0388536D02*
X0046579Y0391685D01*
X0140982Y0391339D02*
X0141282Y0391489D01*
X0141732Y0391489D01*
X0142182Y0391339D01*
X0142482Y0391039D01*
X0142632Y0390739D01*
X0142782Y0390139D01*
X0142782Y0389689D01*
X0142632Y0389089D01*
X0142482Y0388789D01*
X0142182Y0388489D01*
X0141732Y0388339D01*
X0141432Y0388339D01*
X0140982Y0388489D01*
X0140832Y0388639D01*
X0140832Y0389689D01*
X0141432Y0389689D01*
X0139483Y0388339D02*
X0139483Y0391489D01*
X0137683Y0388339D01*
X0137683Y0391489D01*
X0136183Y0388339D02*
X0136183Y0391489D01*
X0135433Y0391489D01*
X0134983Y0391339D01*
X0134683Y0391039D01*
X0134533Y0390739D01*
X0134383Y0390139D01*
X0134383Y0389689D01*
X0134533Y0389089D01*
X0134683Y0388789D01*
X0134983Y0388489D01*
X0135433Y0388339D01*
X0136183Y0388339D01*
D10*
X0373847Y0217515D02*
X0363611Y0217515D01*
X0373360Y0217515D02*
X0373847Y0218340D01*
X0373847Y0219990D01*
X0373360Y0220815D01*
X0372872Y0221227D01*
X0371897Y0221639D01*
X0368973Y0221639D01*
X0367998Y0221227D01*
X0367510Y0220815D01*
X0367023Y0219990D01*
X0367023Y0218340D01*
X0367510Y0217515D01*
X0367023Y0226589D02*
X0367510Y0225764D01*
X0367998Y0225352D01*
X0368973Y0224939D01*
X0371897Y0224939D01*
X0372872Y0225352D01*
X0373360Y0225764D01*
X0373847Y0226589D01*
X0373847Y0227826D01*
X0373360Y0228651D01*
X0372872Y0229064D01*
X0371897Y0229476D01*
X0368973Y0229476D01*
X0367998Y0229064D01*
X0367510Y0228651D01*
X0367023Y0227826D01*
X0367023Y0226589D01*
X0373847Y0232363D02*
X0367023Y0234013D01*
X0371897Y0235663D01*
X0367023Y0237313D01*
X0373847Y0238962D01*
X0367510Y0245561D02*
X0367023Y0244737D01*
X0367023Y0243087D01*
X0367510Y0242262D01*
X0368485Y0241849D01*
X0372385Y0241849D01*
X0373360Y0242262D01*
X0373847Y0243087D01*
X0373847Y0244737D01*
X0373360Y0245561D01*
X0372385Y0245974D01*
X0371410Y0245974D01*
X0370435Y0241849D01*
X0367023Y0249686D02*
X0373847Y0249686D01*
X0371897Y0249686D02*
X0372872Y0250098D01*
X0373360Y0250511D01*
X0373847Y0251336D01*
X0373847Y0252161D01*
X0367510Y0258347D02*
X0367023Y0257523D01*
X0367023Y0255873D01*
X0367510Y0255048D01*
X0368485Y0254635D01*
X0372385Y0254635D01*
X0373360Y0255048D01*
X0373847Y0255873D01*
X0373847Y0257523D01*
X0373360Y0258347D01*
X0372385Y0258760D01*
X0371410Y0258760D01*
X0370435Y0254635D01*
X0367023Y0266184D02*
X0377259Y0266184D01*
X0367510Y0266184D02*
X0367023Y0265359D01*
X0367023Y0263709D01*
X0367510Y0262884D01*
X0367998Y0262472D01*
X0368973Y0262059D01*
X0371897Y0262059D01*
X0372872Y0262472D01*
X0373360Y0262884D01*
X0373847Y0263709D01*
X0373847Y0265359D01*
X0373360Y0266184D01*
X0367023Y0276908D02*
X0377259Y0276908D01*
X0373360Y0276908D02*
X0373847Y0277732D01*
X0373847Y0279382D01*
X0373360Y0280207D01*
X0372872Y0280620D01*
X0371897Y0281032D01*
X0368973Y0281032D01*
X0367998Y0280620D01*
X0367510Y0280207D01*
X0367023Y0279382D01*
X0367023Y0277732D01*
X0367510Y0276908D01*
X0373847Y0283919D02*
X0367023Y0285981D01*
X0373847Y0288044D02*
X0367023Y0285981D01*
X0364586Y0285157D01*
X0364098Y0284744D01*
X0363611Y0283919D01*
X0367023Y0297942D02*
X0373847Y0297942D01*
X0371897Y0297942D02*
X0372872Y0298355D01*
X0373360Y0298767D01*
X0373847Y0299592D01*
X0373847Y0300417D01*
X0373847Y0307016D02*
X0367023Y0307016D01*
X0373847Y0303304D02*
X0368485Y0303304D01*
X0367510Y0303717D01*
X0367023Y0304542D01*
X0367023Y0305779D01*
X0367510Y0306604D01*
X0367998Y0307016D01*
X0367510Y0310728D02*
X0367023Y0311553D01*
X0367023Y0313203D01*
X0367510Y0314028D01*
X0368485Y0314440D01*
X0368973Y0314440D01*
X0369948Y0314028D01*
X0370435Y0313203D01*
X0370435Y0311966D01*
X0370922Y0311141D01*
X0371897Y0310728D01*
X0372385Y0310728D01*
X0373360Y0311141D01*
X0373847Y0311966D01*
X0373847Y0313203D01*
X0373360Y0314028D01*
X0372385Y0318152D02*
X0372385Y0321040D01*
X0367023Y0322277D02*
X0367023Y0318152D01*
X0377259Y0318152D01*
X0377259Y0322277D01*
X0372385Y0328876D02*
X0372385Y0325989D01*
X0367023Y0325989D02*
X0377259Y0325989D01*
X0377259Y0330113D01*
X0367023Y0333413D02*
X0377259Y0333413D01*
D176*
X0042220Y0404284D02*
X0042220Y0407433D01*
X0040720Y0404284D02*
X0040720Y0407433D01*
X0038920Y0404284D01*
X0038920Y0407433D01*
X0036520Y0407433D02*
X0036520Y0405184D01*
X0036670Y0404734D01*
X0036970Y0404434D01*
X0037420Y0404284D01*
X0037720Y0404284D01*
X0035021Y0404284D02*
X0035021Y0407433D01*
X0034271Y0407433D01*
X0033821Y0407283D01*
X0033521Y0406984D01*
X0033371Y0406684D01*
X0033221Y0406084D01*
X0033221Y0405634D01*
X0033371Y0405034D01*
X0033521Y0404734D01*
X0033821Y0404434D01*
X0034271Y0404284D01*
X0035021Y0404284D01*
X0303699Y0407433D02*
X0301900Y0407433D01*
X0302800Y0404284D02*
X0302800Y0407433D01*
X0300850Y0404284D02*
X0300850Y0407433D01*
X0299650Y0407433D01*
X0299350Y0407283D01*
X0299200Y0407133D01*
X0299050Y0406834D01*
X0299050Y0406384D01*
X0299200Y0406084D01*
X0299350Y0405934D01*
X0299650Y0405784D01*
X0300850Y0405784D01*
X0297850Y0404434D02*
X0297400Y0404284D01*
X0296650Y0404284D01*
X0296350Y0404434D01*
X0296200Y0404584D01*
X0296050Y0404884D01*
X0296050Y0405184D01*
X0296200Y0405484D01*
X0296350Y0405634D01*
X0296650Y0405784D01*
X0297250Y0405934D01*
X0297550Y0406084D01*
X0297700Y0406234D01*
X0297850Y0406534D01*
X0297850Y0406834D01*
X0297700Y0407133D01*
X0297550Y0407283D01*
X0297250Y0407433D01*
X0296500Y0407433D01*
X0296050Y0407283D01*
X0293051Y0404284D02*
X0294851Y0404284D01*
X0293951Y0404284D02*
X0293951Y0407433D01*
X0294251Y0406984D01*
X0294551Y0406684D01*
X0294851Y0406534D01*
X0345831Y0388339D02*
X0345831Y0391489D01*
X0344331Y0388339D02*
X0344331Y0391489D01*
X0342532Y0388339D01*
X0342532Y0391489D01*
X0340132Y0391489D02*
X0340132Y0389239D01*
X0340282Y0388789D01*
X0340582Y0388489D01*
X0341032Y0388339D01*
X0341332Y0388339D01*
X0338782Y0389239D02*
X0337282Y0389239D01*
X0339082Y0388339D02*
X0338032Y0391489D01*
X0336982Y0388339D01*
X0042023Y0388536D02*
X0042023Y0391685D01*
X0040523Y0388536D02*
X0040523Y0391685D01*
X0038723Y0388536D01*
X0038723Y0391685D01*
X0036324Y0391685D02*
X0036324Y0389436D01*
X0036474Y0388986D01*
X0036774Y0388686D01*
X0037223Y0388536D01*
X0037523Y0388536D01*
X0033024Y0388836D02*
X0033174Y0388686D01*
X0033624Y0388536D01*
X0033924Y0388536D01*
X0034374Y0388686D01*
X0034674Y0388986D01*
X0034824Y0389286D01*
X0034974Y0389886D01*
X0034974Y0390336D01*
X0034824Y0390936D01*
X0034674Y0391235D01*
X0034374Y0391535D01*
X0033924Y0391685D01*
X0033624Y0391685D01*
X0033174Y0391535D01*
X0033024Y0391385D01*
X0307393Y0419864D02*
X0307543Y0419714D01*
X0307993Y0419564D01*
X0308293Y0419564D01*
X0308743Y0419714D01*
X0309043Y0420014D01*
X0309192Y0420314D01*
X0309342Y0420914D01*
X0309342Y0421364D01*
X0309192Y0421964D01*
X0309043Y0422264D01*
X0308743Y0422564D01*
X0308293Y0422714D01*
X0307993Y0422714D01*
X0307543Y0422564D01*
X0307393Y0422414D01*
X0306193Y0420464D02*
X0304693Y0420464D01*
X0306493Y0419564D02*
X0305443Y0422714D01*
X0304393Y0419564D01*
X0303343Y0419564D02*
X0303343Y0422714D01*
X0301543Y0419564D01*
X0301543Y0422714D01*
X0271603Y0390126D02*
X0272653Y0390126D01*
X0272653Y0388476D02*
X0272653Y0391626D01*
X0271153Y0391626D01*
X0269953Y0388476D02*
X0269953Y0391626D01*
X0268753Y0391626D01*
X0268453Y0391476D01*
X0268303Y0391326D01*
X0268153Y0391026D01*
X0268153Y0390576D01*
X0268303Y0390276D01*
X0268453Y0390126D01*
X0268753Y0389976D01*
X0269953Y0389976D01*
X0127437Y0388536D02*
X0127437Y0391685D01*
X0124288Y0391535D02*
X0124588Y0391685D01*
X0125037Y0391685D01*
X0125487Y0391535D01*
X0125787Y0391235D01*
X0125937Y0390936D01*
X0126087Y0390336D01*
X0126087Y0389886D01*
X0125937Y0389286D01*
X0125787Y0388986D01*
X0125487Y0388686D01*
X0125037Y0388536D01*
X0124738Y0388536D01*
X0124288Y0388686D01*
X0124138Y0388836D01*
X0124138Y0389886D01*
X0124738Y0389886D01*
X0122788Y0388536D02*
X0122788Y0391685D01*
X0120988Y0388536D01*
X0120988Y0391685D01*
X0119488Y0388536D02*
X0119488Y0391685D01*
X0118738Y0391685D01*
X0118288Y0391535D01*
X0117988Y0391235D01*
X0117838Y0390936D01*
X0117688Y0390336D01*
X0117688Y0389886D01*
X0117838Y0389286D01*
X0117988Y0388986D01*
X0118288Y0388686D01*
X0118738Y0388536D01*
X0119488Y0388536D01*
X0317635Y0388614D02*
X0317635Y0391763D01*
X0314485Y0391613D02*
X0314785Y0391763D01*
X0315235Y0391763D01*
X0315685Y0391613D01*
X0315985Y0391313D01*
X0316135Y0391013D01*
X0316285Y0390413D01*
X0316285Y0389964D01*
X0316135Y0389364D01*
X0315985Y0389064D01*
X0315685Y0388764D01*
X0315235Y0388614D01*
X0314935Y0388614D01*
X0314485Y0388764D01*
X0314335Y0388914D01*
X0314335Y0389964D01*
X0314935Y0389964D01*
X0312985Y0388614D02*
X0312985Y0391763D01*
X0311186Y0388614D01*
X0311186Y0391763D01*
X0309836Y0389514D02*
X0308336Y0389514D01*
X0310136Y0388614D02*
X0309086Y0391763D01*
X0308036Y0388614D01*
X0327884Y0404342D02*
X0328034Y0404192D01*
X0328484Y0404042D01*
X0328784Y0404042D01*
X0329234Y0404192D01*
X0329534Y0404492D01*
X0329684Y0404792D01*
X0329834Y0405392D01*
X0329834Y0405842D01*
X0329684Y0406442D01*
X0329534Y0406742D01*
X0329234Y0407042D01*
X0328784Y0407192D01*
X0328484Y0407192D01*
X0328034Y0407042D01*
X0327884Y0406892D01*
X0325035Y0404042D02*
X0326534Y0404042D01*
X0326534Y0407192D01*
X0324435Y0407192D02*
X0322635Y0407192D01*
X0323535Y0404042D02*
X0323535Y0407192D01*
X0243345Y0391339D02*
X0243645Y0391489D01*
X0244094Y0391489D01*
X0244544Y0391339D01*
X0244844Y0391039D01*
X0244994Y0390739D01*
X0245144Y0390139D01*
X0245144Y0389689D01*
X0244994Y0389089D01*
X0244844Y0388789D01*
X0244544Y0388489D01*
X0244094Y0388339D01*
X0243795Y0388339D01*
X0243345Y0388489D01*
X0243195Y0388639D01*
X0243195Y0389689D01*
X0243795Y0389689D01*
X0241845Y0388339D02*
X0241845Y0391489D01*
X0240045Y0388339D01*
X0240045Y0391489D01*
X0238545Y0388339D02*
X0238545Y0391489D01*
X0237795Y0391489D01*
X0237345Y0391339D01*
X0237045Y0391039D01*
X0236895Y0390739D01*
X0236745Y0390139D01*
X0236745Y0389689D01*
X0236895Y0389089D01*
X0237045Y0388789D01*
X0237345Y0388489D01*
X0237795Y0388339D01*
X0238545Y0388339D01*
X0086380Y0391685D02*
X0084580Y0391685D01*
X0085480Y0388536D02*
X0085480Y0391685D01*
X0083530Y0388536D02*
X0083530Y0391685D01*
X0082330Y0391685D01*
X0082030Y0391535D01*
X0081880Y0391385D01*
X0081730Y0391085D01*
X0081730Y0390636D01*
X0081880Y0390336D01*
X0082030Y0390186D01*
X0082330Y0390036D01*
X0083530Y0390036D01*
X0080531Y0388686D02*
X0080081Y0388536D01*
X0079331Y0388536D01*
X0079031Y0388686D01*
X0078881Y0388836D01*
X0078731Y0389136D01*
X0078731Y0389436D01*
X0078881Y0389736D01*
X0079031Y0389886D01*
X0079331Y0390036D01*
X0079931Y0390186D01*
X0080231Y0390336D01*
X0080381Y0390486D01*
X0080531Y0390786D01*
X0080531Y0391085D01*
X0080381Y0391385D01*
X0080231Y0391535D01*
X0079931Y0391685D01*
X0079181Y0391685D01*
X0078731Y0391535D01*
X0077531Y0391385D02*
X0077381Y0391535D01*
X0077081Y0391685D01*
X0076331Y0391685D01*
X0076031Y0391535D01*
X0075881Y0391385D01*
X0075731Y0391085D01*
X0075731Y0390786D01*
X0075881Y0390336D01*
X0077681Y0388536D01*
X0075731Y0388536D01*
X0243345Y0406998D02*
X0243645Y0407148D01*
X0244094Y0407148D01*
X0244544Y0406998D01*
X0244844Y0406698D01*
X0244994Y0406398D01*
X0245144Y0405798D01*
X0245144Y0405348D01*
X0244994Y0404748D01*
X0244844Y0404448D01*
X0244544Y0404148D01*
X0244094Y0403998D01*
X0243795Y0403998D01*
X0243345Y0404148D01*
X0243195Y0404298D01*
X0243195Y0405348D01*
X0243795Y0405348D01*
X0241845Y0403998D02*
X0241845Y0407148D01*
X0240045Y0403998D01*
X0240045Y0407148D01*
X0238545Y0403998D02*
X0238545Y0407148D01*
X0237795Y0407148D01*
X0237345Y0406998D01*
X0237045Y0406698D01*
X0236895Y0406398D01*
X0236745Y0405798D01*
X0236745Y0405348D01*
X0236895Y0404748D01*
X0237045Y0404448D01*
X0237345Y0404148D01*
X0237795Y0403998D01*
X0238545Y0403998D01*
X0101265Y0388536D02*
X0101265Y0391685D01*
X0100066Y0391685D01*
X0099766Y0391535D01*
X0099616Y0391385D01*
X0099466Y0391085D01*
X0099466Y0390636D01*
X0099616Y0390336D01*
X0099766Y0390186D01*
X0100066Y0390036D01*
X0101265Y0390036D01*
X0098116Y0388536D02*
X0098116Y0391685D01*
X0096916Y0391685D01*
X0096616Y0391535D01*
X0096466Y0391385D01*
X0096316Y0391085D01*
X0096316Y0390636D01*
X0096466Y0390336D01*
X0096616Y0390186D01*
X0096916Y0390036D01*
X0098116Y0390036D01*
X0095116Y0388686D02*
X0094666Y0388536D01*
X0093916Y0388536D01*
X0093616Y0388686D01*
X0093466Y0388836D01*
X0093316Y0389136D01*
X0093316Y0389436D01*
X0093466Y0389736D01*
X0093616Y0389886D01*
X0093916Y0390036D01*
X0094516Y0390186D01*
X0094816Y0390336D01*
X0094966Y0390486D01*
X0095116Y0390786D01*
X0095116Y0391085D01*
X0094966Y0391385D01*
X0094816Y0391535D01*
X0094516Y0391685D01*
X0093766Y0391685D01*
X0093316Y0391535D01*
X0090317Y0388536D02*
X0092117Y0388536D01*
X0091217Y0388536D02*
X0091217Y0391685D01*
X0091517Y0391235D01*
X0091817Y0390936D01*
X0092117Y0390786D01*
X0346194Y0404042D02*
X0346194Y0407192D01*
X0344694Y0404042D02*
X0344694Y0407192D01*
X0342894Y0404042D01*
X0342894Y0407192D01*
X0340494Y0407192D02*
X0340494Y0404942D01*
X0340644Y0404492D01*
X0340944Y0404192D01*
X0341394Y0404042D01*
X0341694Y0404042D01*
X0337945Y0405692D02*
X0337495Y0405542D01*
X0337345Y0405392D01*
X0337195Y0405092D01*
X0337195Y0404642D01*
X0337345Y0404342D01*
X0337495Y0404192D01*
X0337795Y0404042D01*
X0338994Y0404042D01*
X0338994Y0407192D01*
X0337945Y0407192D01*
X0337645Y0407042D01*
X0337495Y0406892D01*
X0337345Y0406592D01*
X0337345Y0406292D01*
X0337495Y0405992D01*
X0337645Y0405842D01*
X0337945Y0405692D01*
X0338994Y0405692D01*
X0086220Y0404284D02*
X0086220Y0407433D01*
X0085471Y0407433D01*
X0085021Y0407283D01*
X0084721Y0406984D01*
X0084571Y0406684D01*
X0084421Y0406084D01*
X0084421Y0405634D01*
X0084571Y0405034D01*
X0084721Y0404734D01*
X0085021Y0404434D01*
X0085471Y0404284D01*
X0086220Y0404284D01*
X0083071Y0404284D02*
X0083071Y0407433D01*
X0081571Y0404284D02*
X0081571Y0407433D01*
X0079771Y0404284D01*
X0079771Y0407433D01*
X0076922Y0406384D02*
X0076922Y0404284D01*
X0077672Y0407583D02*
X0078421Y0405334D01*
X0076472Y0405334D01*
X0288163Y0404805D02*
X0286664Y0404805D01*
X0288463Y0403905D02*
X0287413Y0407055D01*
X0286364Y0403905D01*
X0284264Y0405555D02*
X0285314Y0405555D01*
X0285314Y0403905D02*
X0285314Y0407055D01*
X0283814Y0407055D01*
X0280814Y0403905D02*
X0281864Y0405405D01*
X0282614Y0403905D02*
X0282614Y0407055D01*
X0281414Y0407055D01*
X0281114Y0406905D01*
X0280964Y0406755D01*
X0280814Y0406455D01*
X0280814Y0406005D01*
X0280964Y0405705D01*
X0281114Y0405555D01*
X0281414Y0405405D01*
X0282614Y0405405D01*
X0290813Y0422689D02*
X0290663Y0422839D01*
X0290363Y0422989D01*
X0289613Y0422989D01*
X0289313Y0422839D01*
X0289163Y0422689D01*
X0289014Y0422389D01*
X0289014Y0422089D01*
X0289163Y0421639D01*
X0290963Y0419839D01*
X0289014Y0419839D01*
X0287814Y0419989D02*
X0287364Y0419839D01*
X0286614Y0419839D01*
X0286314Y0419989D01*
X0286164Y0420139D01*
X0286014Y0420439D01*
X0286014Y0420739D01*
X0286164Y0421039D01*
X0286314Y0421189D01*
X0286614Y0421339D01*
X0287214Y0421489D01*
X0287514Y0421639D01*
X0287664Y0421789D01*
X0287814Y0422089D01*
X0287814Y0422389D01*
X0287664Y0422689D01*
X0287514Y0422839D01*
X0287214Y0422989D01*
X0286464Y0422989D01*
X0286014Y0422839D01*
X0285114Y0422989D02*
X0283314Y0422989D01*
X0284214Y0419839D02*
X0284214Y0422989D01*
X0282264Y0421489D02*
X0281214Y0421489D01*
X0280765Y0419839D02*
X0282264Y0419839D01*
X0282264Y0422989D01*
X0280765Y0422989D01*
X0279415Y0419839D02*
X0279415Y0422989D01*
X0278215Y0422989D01*
X0277915Y0422839D01*
X0277765Y0422689D01*
X0277615Y0422389D01*
X0277615Y0421939D01*
X0277765Y0421639D01*
X0277915Y0421489D01*
X0278215Y0421339D01*
X0279415Y0421339D01*
X0331271Y0420139D02*
X0331421Y0419989D01*
X0331871Y0419839D01*
X0332171Y0419839D01*
X0332621Y0419989D01*
X0332921Y0420289D01*
X0333071Y0420589D01*
X0333221Y0421189D01*
X0333221Y0421639D01*
X0333071Y0422239D01*
X0332921Y0422539D01*
X0332621Y0422839D01*
X0332171Y0422989D01*
X0331871Y0422989D01*
X0331421Y0422839D01*
X0331271Y0422689D01*
X0330072Y0420739D02*
X0328572Y0420739D01*
X0330372Y0419839D02*
X0329322Y0422989D01*
X0328272Y0419839D01*
X0327222Y0419839D02*
X0327222Y0422989D01*
X0326172Y0420739D01*
X0325122Y0422989D01*
X0325122Y0419839D01*
X0324372Y0419539D02*
X0321973Y0419539D01*
X0321223Y0419839D02*
X0321223Y0422989D01*
X0321223Y0421489D02*
X0319423Y0421489D01*
X0319423Y0419839D02*
X0319423Y0422989D01*
X0243907Y0421489D02*
X0244957Y0421489D01*
X0244957Y0419839D02*
X0244957Y0422989D01*
X0243457Y0422989D01*
X0242407Y0420739D02*
X0240907Y0420739D01*
X0242707Y0419839D02*
X0241657Y0422989D01*
X0240607Y0419839D01*
X0239557Y0419839D02*
X0239557Y0422989D01*
X0237757Y0419839D01*
X0237757Y0422989D01*
X0113855Y0388536D02*
X0113855Y0391685D01*
X0110705Y0391535D02*
X0111005Y0391685D01*
X0111455Y0391685D01*
X0111905Y0391535D01*
X0112205Y0391235D01*
X0112355Y0390936D01*
X0112505Y0390336D01*
X0112505Y0389886D01*
X0112355Y0389286D01*
X0112205Y0388986D01*
X0111905Y0388686D01*
X0111455Y0388536D01*
X0111155Y0388536D01*
X0110705Y0388686D01*
X0110555Y0388836D01*
X0110555Y0389886D01*
X0111155Y0389886D01*
X0109205Y0388536D02*
X0109205Y0391685D01*
X0107405Y0388536D01*
X0107405Y0391685D01*
X0104106Y0388836D02*
X0104256Y0388686D01*
X0104706Y0388536D01*
X0105006Y0388536D01*
X0105456Y0388686D01*
X0105756Y0388986D01*
X0105906Y0389286D01*
X0106055Y0389886D01*
X0106055Y0390336D01*
X0105906Y0390936D01*
X0105756Y0391235D01*
X0105456Y0391535D01*
X0105006Y0391685D01*
X0104706Y0391685D01*
X0104256Y0391535D01*
X0104106Y0391385D01*
X0114848Y0420229D02*
X0114848Y0423378D01*
X0113648Y0423378D01*
X0113348Y0423228D01*
X0113198Y0423078D01*
X0113048Y0422778D01*
X0113048Y0422328D01*
X0113198Y0422029D01*
X0113348Y0421879D01*
X0113648Y0421729D01*
X0114848Y0421729D01*
X0111699Y0420229D02*
X0111699Y0423378D01*
X0110499Y0423378D01*
X0110199Y0423228D01*
X0110049Y0423078D01*
X0109899Y0422778D01*
X0109899Y0422328D01*
X0110049Y0422029D01*
X0110199Y0421879D01*
X0110499Y0421729D01*
X0111699Y0421729D01*
X0108699Y0420379D02*
X0108249Y0420229D01*
X0107499Y0420229D01*
X0107199Y0420379D01*
X0107049Y0420529D01*
X0106899Y0420829D01*
X0106899Y0421129D01*
X0107049Y0421429D01*
X0107199Y0421579D01*
X0107499Y0421729D01*
X0108099Y0421879D01*
X0108399Y0422029D01*
X0108549Y0422178D01*
X0108699Y0422478D01*
X0108699Y0422778D01*
X0108549Y0423078D01*
X0108399Y0423228D01*
X0108099Y0423378D01*
X0107349Y0423378D01*
X0106899Y0423228D01*
X0105699Y0423078D02*
X0105549Y0423228D01*
X0105249Y0423378D01*
X0104499Y0423378D01*
X0104199Y0423228D01*
X0104049Y0423078D01*
X0103900Y0422778D01*
X0103900Y0422478D01*
X0104049Y0422029D01*
X0105849Y0420229D01*
X0103900Y0420229D01*
X0010137Y0013622D02*
X0010444Y0013776D01*
X0010906Y0013776D01*
X0011367Y0013622D01*
X0011674Y0013315D01*
X0011828Y0013007D01*
X0011982Y0012392D01*
X0011982Y0011931D01*
X0011828Y0011316D01*
X0011674Y0011009D01*
X0011367Y0010701D01*
X0010906Y0010547D01*
X0010598Y0010547D01*
X0010137Y0010701D01*
X0009983Y0010855D01*
X0009983Y0011931D01*
X0010598Y0011931D01*
X0008600Y0010547D02*
X0008600Y0013776D01*
X0006755Y0010547D01*
X0006755Y0013776D01*
X0005217Y0010547D02*
X0005217Y0013776D01*
X0004449Y0013776D01*
X0003988Y0013622D01*
X0003680Y0013315D01*
X0003526Y0013007D01*
X0003373Y0012392D01*
X0003373Y0011931D01*
X0003526Y0011316D01*
X0003680Y0011009D01*
X0003988Y0010701D01*
X0004449Y0010547D01*
X0005217Y0010547D01*
X0072441Y0404284D02*
X0072441Y0407433D01*
X0071691Y0407433D01*
X0071241Y0407283D01*
X0070941Y0406984D01*
X0070791Y0406684D01*
X0070641Y0406084D01*
X0070641Y0405634D01*
X0070791Y0405034D01*
X0070941Y0404734D01*
X0071241Y0404434D01*
X0071691Y0404284D01*
X0072441Y0404284D01*
X0069291Y0404284D02*
X0069291Y0407433D01*
X0067792Y0404284D02*
X0067792Y0407433D01*
X0065992Y0404284D01*
X0065992Y0407433D01*
X0064792Y0407433D02*
X0062842Y0407433D01*
X0063892Y0406234D01*
X0063442Y0406234D01*
X0063142Y0406084D01*
X0062992Y0405934D01*
X0062842Y0405634D01*
X0062842Y0404884D01*
X0062992Y0404584D01*
X0063142Y0404434D01*
X0063442Y0404284D01*
X0064342Y0404284D01*
X0064642Y0404434D01*
X0064792Y0404584D01*
X0302936Y0391613D02*
X0303236Y0391763D01*
X0303686Y0391763D01*
X0304136Y0391613D01*
X0304436Y0391313D01*
X0304586Y0391013D01*
X0304736Y0390413D01*
X0304736Y0389964D01*
X0304586Y0389364D01*
X0304436Y0389064D01*
X0304136Y0388764D01*
X0303686Y0388614D01*
X0303386Y0388614D01*
X0302936Y0388764D01*
X0302786Y0388914D01*
X0302786Y0389964D01*
X0303386Y0389964D01*
X0301436Y0388614D02*
X0301436Y0391763D01*
X0299637Y0388614D01*
X0299637Y0391763D01*
X0298137Y0388614D02*
X0298137Y0391763D01*
X0297387Y0391763D01*
X0296937Y0391613D01*
X0296637Y0391313D01*
X0296487Y0391013D01*
X0296337Y0390413D01*
X0296337Y0389964D01*
X0296487Y0389364D01*
X0296637Y0389064D01*
X0296937Y0388764D01*
X0297387Y0388614D01*
X0298137Y0388614D01*
X0295137Y0389514D02*
X0293637Y0389514D01*
X0295437Y0388614D02*
X0294387Y0391763D01*
X0293337Y0388614D01*
X0316972Y0404967D02*
X0314573Y0404967D01*
X0315773Y0403768D02*
X0315773Y0406167D01*
X0311573Y0406917D02*
X0313073Y0406917D01*
X0313223Y0405417D01*
X0313073Y0405567D01*
X0312773Y0405717D01*
X0312023Y0405717D01*
X0311723Y0405567D01*
X0311573Y0405417D01*
X0311423Y0405117D01*
X0311423Y0404367D01*
X0311573Y0404067D01*
X0311723Y0403918D01*
X0312023Y0403768D01*
X0312773Y0403768D01*
X0313073Y0403918D01*
X0313223Y0404067D01*
X0310523Y0406917D02*
X0309473Y0403768D01*
X0308423Y0406917D01*
X0057790Y0404284D02*
X0057790Y0407433D01*
X0055990Y0404284D01*
X0055990Y0407433D01*
X0053890Y0407433D02*
X0053290Y0407433D01*
X0052990Y0407283D01*
X0052690Y0406984D01*
X0052540Y0406384D01*
X0052540Y0405334D01*
X0052690Y0404734D01*
X0052990Y0404434D01*
X0053290Y0404284D01*
X0053890Y0404284D01*
X0054190Y0404434D01*
X0054490Y0404734D01*
X0054640Y0405334D01*
X0054640Y0406384D01*
X0054490Y0406984D01*
X0054190Y0407283D01*
X0053890Y0407433D01*
X0051340Y0404434D02*
X0050891Y0404284D01*
X0050141Y0404284D01*
X0049841Y0404434D01*
X0049691Y0404584D01*
X0049541Y0404884D01*
X0049541Y0405184D01*
X0049691Y0405484D01*
X0049841Y0405634D01*
X0050141Y0405784D01*
X0050741Y0405934D01*
X0051040Y0406084D01*
X0051190Y0406234D01*
X0051340Y0406534D01*
X0051340Y0406834D01*
X0051190Y0407133D01*
X0051040Y0407283D01*
X0050741Y0407433D01*
X0049991Y0407433D01*
X0049541Y0407283D01*
X0260853Y0403768D02*
X0260853Y0406917D01*
X0259804Y0404667D01*
X0258754Y0406917D01*
X0258754Y0403768D01*
X0257404Y0404667D02*
X0255904Y0404667D01*
X0257704Y0403768D02*
X0256654Y0406917D01*
X0255604Y0403768D01*
X0254554Y0403768D02*
X0254554Y0406917D01*
X0253354Y0406917D01*
X0253054Y0406767D01*
X0252904Y0406617D01*
X0252754Y0406317D01*
X0252754Y0405867D01*
X0252904Y0405567D01*
X0253054Y0405417D01*
X0253354Y0405267D01*
X0254554Y0405267D01*
X0086005Y0423181D02*
X0084955Y0420032D01*
X0083905Y0423181D01*
X0083305Y0423181D02*
X0082255Y0420032D01*
X0081205Y0423181D01*
X0080606Y0423181D02*
X0078806Y0423181D01*
X0079706Y0420032D02*
X0079706Y0423181D01*
X0077906Y0422882D02*
X0077756Y0423031D01*
X0077456Y0423181D01*
X0076706Y0423181D01*
X0076406Y0423031D01*
X0076256Y0422882D01*
X0076106Y0422582D01*
X0076106Y0422282D01*
X0076256Y0421832D01*
X0078056Y0420032D01*
X0076106Y0420032D01*
X0272615Y0403905D02*
X0272615Y0407055D01*
X0271266Y0404805D02*
X0269766Y0404805D01*
X0271566Y0403905D02*
X0270516Y0407055D01*
X0269466Y0403905D01*
X0268866Y0407055D02*
X0267066Y0407055D01*
X0267966Y0403905D02*
X0267966Y0407055D01*
X0072441Y0420032D02*
X0072441Y0423181D01*
X0071691Y0423181D01*
X0071241Y0423031D01*
X0070941Y0422732D01*
X0070791Y0422432D01*
X0070641Y0421832D01*
X0070641Y0421382D01*
X0070791Y0420782D01*
X0070941Y0420482D01*
X0071241Y0420182D01*
X0071691Y0420032D01*
X0072441Y0420032D01*
X0069291Y0420032D02*
X0069291Y0423181D01*
X0067792Y0420032D02*
X0067792Y0423181D01*
X0065992Y0420032D01*
X0065992Y0423181D01*
X0062992Y0423181D02*
X0064492Y0423181D01*
X0064642Y0421682D01*
X0064492Y0421832D01*
X0064192Y0421982D01*
X0063442Y0421982D01*
X0063142Y0421832D01*
X0062992Y0421682D01*
X0062842Y0421382D01*
X0062842Y0420632D01*
X0062992Y0420332D01*
X0063142Y0420182D01*
X0063442Y0420032D01*
X0064192Y0420032D01*
X0064492Y0420182D01*
X0064642Y0420332D01*
X0262566Y0389676D02*
X0260166Y0389676D01*
X0261366Y0388476D02*
X0261366Y0390876D01*
X0257016Y0388476D02*
X0258816Y0388476D01*
X0257916Y0388476D02*
X0257916Y0391626D01*
X0258216Y0391176D01*
X0258516Y0390876D01*
X0258816Y0390726D01*
X0255816Y0391326D02*
X0255666Y0391476D01*
X0255367Y0391626D01*
X0254617Y0391626D01*
X0254317Y0391476D01*
X0254167Y0391326D01*
X0254017Y0391026D01*
X0254017Y0390726D01*
X0254167Y0390276D01*
X0255966Y0388476D01*
X0254017Y0388476D01*
X0253117Y0391626D02*
X0252067Y0388476D01*
X0251017Y0391626D01*
X0291063Y0391763D02*
X0289264Y0391763D01*
X0290164Y0388614D02*
X0290164Y0391763D01*
X0288364Y0389514D02*
X0286864Y0389514D01*
X0288664Y0388614D02*
X0287614Y0391763D01*
X0286564Y0388614D01*
X0283714Y0388914D02*
X0283864Y0388764D01*
X0284314Y0388614D01*
X0284614Y0388614D01*
X0285064Y0388764D01*
X0285364Y0389064D01*
X0285514Y0389364D01*
X0285664Y0389964D01*
X0285664Y0390413D01*
X0285514Y0391013D01*
X0285364Y0391313D01*
X0285064Y0391613D01*
X0284614Y0391763D01*
X0284314Y0391763D01*
X0283864Y0391613D01*
X0283714Y0391463D01*
X0282365Y0388614D02*
X0282365Y0391763D01*
X0282365Y0390263D02*
X0280565Y0390263D01*
X0280565Y0388614D02*
X0280565Y0391763D01*
X0278465Y0391763D02*
X0277865Y0391763D01*
X0277565Y0391613D01*
X0277265Y0391313D01*
X0277115Y0390713D01*
X0277115Y0389664D01*
X0277265Y0389064D01*
X0277565Y0388764D01*
X0277865Y0388614D01*
X0278465Y0388614D01*
X0278765Y0388764D01*
X0279065Y0389064D01*
X0279215Y0389664D01*
X0279215Y0390713D01*
X0279065Y0391313D01*
X0278765Y0391613D01*
X0278465Y0391763D01*
D35*
X0302780Y0360171D02*
X0303764Y0361577D01*
X0304467Y0360171D02*
X0304467Y0363124D01*
X0303342Y0363124D01*
X0303061Y0362983D01*
X0302920Y0362843D01*
X0302780Y0362561D01*
X0302780Y0362139D01*
X0302920Y0361858D01*
X0303061Y0361718D01*
X0303342Y0361577D01*
X0304467Y0361577D01*
X0301092Y0361858D02*
X0301374Y0361999D01*
X0301514Y0362139D01*
X0301655Y0362421D01*
X0301655Y0362561D01*
X0301514Y0362843D01*
X0301374Y0362983D01*
X0301092Y0363124D01*
X0300530Y0363124D01*
X0300249Y0362983D01*
X0300108Y0362843D01*
X0299968Y0362561D01*
X0299968Y0362421D01*
X0300108Y0362139D01*
X0300249Y0361999D01*
X0300530Y0361858D01*
X0301092Y0361858D01*
X0301374Y0361718D01*
X0301514Y0361577D01*
X0301655Y0361296D01*
X0301655Y0360733D01*
X0301514Y0360452D01*
X0301374Y0360312D01*
X0301092Y0360171D01*
X0300530Y0360171D01*
X0300249Y0360312D01*
X0300108Y0360452D01*
X0299968Y0360733D01*
X0299968Y0361296D01*
X0300108Y0361577D01*
X0300249Y0361718D01*
X0300530Y0361858D01*
D150*
X0179881Y0361241D02*
X0180881Y0362670D01*
X0181596Y0361241D02*
X0181596Y0364241D01*
X0180453Y0364241D01*
X0180167Y0364098D01*
X0180024Y0363956D01*
X0179881Y0363670D01*
X0179881Y0363241D01*
X0180024Y0362956D01*
X0180167Y0362813D01*
X0180453Y0362670D01*
X0181596Y0362670D01*
X0177167Y0364241D02*
X0178596Y0364241D01*
X0178738Y0362813D01*
X0178596Y0362956D01*
X0178310Y0363098D01*
X0177596Y0363098D01*
X0177310Y0362956D01*
X0177167Y0362813D01*
X0177024Y0362527D01*
X0177024Y0361813D01*
X0177167Y0361527D01*
X0177310Y0361384D01*
X0177596Y0361241D01*
X0178310Y0361241D01*
X0178596Y0361384D01*
X0178738Y0361527D01*
X0175596Y0361241D02*
X0175024Y0361241D01*
X0174738Y0361384D01*
X0174596Y0361527D01*
X0174310Y0361956D01*
X0174167Y0362527D01*
X0174167Y0363670D01*
X0174310Y0363956D01*
X0174453Y0364098D01*
X0174738Y0364241D01*
X0175310Y0364241D01*
X0175596Y0364098D01*
X0175738Y0363956D01*
X0175881Y0363670D01*
X0175881Y0362956D01*
X0175738Y0362670D01*
X0175596Y0362527D01*
X0175310Y0362384D01*
X0174738Y0362384D01*
X0174453Y0362527D01*
X0174310Y0362670D01*
X0174167Y0362956D01*
X0294988Y0359470D02*
X0295988Y0360898D01*
X0296702Y0359470D02*
X0296702Y0362470D01*
X0295560Y0362470D01*
X0295274Y0362327D01*
X0295131Y0362184D01*
X0294988Y0361898D01*
X0294988Y0361470D01*
X0295131Y0361184D01*
X0295274Y0361041D01*
X0295560Y0360898D01*
X0296702Y0360898D01*
X0293560Y0359470D02*
X0292988Y0359470D01*
X0292702Y0359612D01*
X0292560Y0359755D01*
X0292274Y0360184D01*
X0292131Y0360755D01*
X0292131Y0361898D01*
X0292274Y0362184D01*
X0292417Y0362327D01*
X0292702Y0362470D01*
X0293274Y0362470D01*
X0293560Y0362327D01*
X0293702Y0362184D01*
X0293845Y0361898D01*
X0293845Y0361184D01*
X0293702Y0360898D01*
X0293560Y0360755D01*
X0293274Y0360612D01*
X0292702Y0360612D01*
X0292417Y0360755D01*
X0292274Y0360898D01*
X0292131Y0361184D01*
X0097204Y0361241D02*
X0098204Y0362670D01*
X0098918Y0361241D02*
X0098918Y0364241D01*
X0097776Y0364241D01*
X0097490Y0364098D01*
X0097347Y0363956D01*
X0097204Y0363670D01*
X0097204Y0363241D01*
X0097347Y0362956D01*
X0097490Y0362813D01*
X0097776Y0362670D01*
X0098918Y0362670D01*
X0094633Y0364241D02*
X0095204Y0364241D01*
X0095490Y0364098D01*
X0095633Y0363956D01*
X0095918Y0363527D01*
X0096061Y0362956D01*
X0096061Y0361813D01*
X0095918Y0361527D01*
X0095776Y0361384D01*
X0095490Y0361241D01*
X0094918Y0361241D01*
X0094633Y0361384D01*
X0094490Y0361527D01*
X0094347Y0361813D01*
X0094347Y0362527D01*
X0094490Y0362813D01*
X0094633Y0362956D01*
X0094918Y0363098D01*
X0095490Y0363098D01*
X0095776Y0362956D01*
X0095918Y0362813D01*
X0096061Y0362527D01*
X0092633Y0362956D02*
X0092918Y0363098D01*
X0093061Y0363241D01*
X0093204Y0363527D01*
X0093204Y0363670D01*
X0093061Y0363956D01*
X0092918Y0364098D01*
X0092633Y0364241D01*
X0092061Y0364241D01*
X0091776Y0364098D01*
X0091633Y0363956D01*
X0091490Y0363670D01*
X0091490Y0363527D01*
X0091633Y0363241D01*
X0091776Y0363098D01*
X0092061Y0362956D01*
X0092633Y0362956D01*
X0092918Y0362813D01*
X0093061Y0362670D01*
X0093204Y0362384D01*
X0093204Y0361813D01*
X0093061Y0361527D01*
X0092918Y0361384D01*
X0092633Y0361241D01*
X0092061Y0361241D01*
X0091776Y0361384D01*
X0091633Y0361527D01*
X0091490Y0361813D01*
X0091490Y0362384D01*
X0091633Y0362670D01*
X0091776Y0362813D01*
X0092061Y0362956D01*
X0252378Y0356120D02*
X0253378Y0356120D01*
X0253378Y0354548D02*
X0253378Y0357548D01*
X0251949Y0357548D01*
X0249521Y0356548D02*
X0249521Y0354548D01*
X0250235Y0357691D02*
X0250949Y0355548D01*
X0249092Y0355548D01*
D192*
X0131018Y0431234D02*
X0131018Y0432546D01*
X0133080Y0432546D02*
X0129143Y0432546D01*
X0129143Y0430671D01*
X0130831Y0428609D02*
X0130643Y0428984D01*
X0130456Y0429171D01*
X0130081Y0429359D01*
X0129893Y0429359D01*
X0129518Y0429171D01*
X0129331Y0428984D01*
X0129143Y0428609D01*
X0129143Y0427859D01*
X0129331Y0427484D01*
X0129518Y0427297D01*
X0129893Y0427109D01*
X0130081Y0427109D01*
X0130456Y0427297D01*
X0130643Y0427484D01*
X0130831Y0427859D01*
X0130831Y0428609D01*
X0131018Y0428984D01*
X0131205Y0429171D01*
X0131580Y0429359D01*
X0132330Y0429359D01*
X0132705Y0429171D01*
X0132893Y0428984D01*
X0133080Y0428609D01*
X0133080Y0427859D01*
X0132893Y0427484D01*
X0132705Y0427297D01*
X0132330Y0427109D01*
X0131580Y0427109D01*
X0131205Y0427297D01*
X0131018Y0427484D01*
X0130831Y0427859D01*
X0117726Y0400544D02*
X0113789Y0400544D01*
X0113789Y0399606D01*
X0113976Y0399044D01*
X0114351Y0398669D01*
X0114726Y0398481D01*
X0115476Y0398294D01*
X0116039Y0398294D01*
X0116789Y0398481D01*
X0117163Y0398669D01*
X0117538Y0399044D01*
X0117726Y0399606D01*
X0117726Y0400544D01*
X0113789Y0396982D02*
X0113789Y0394357D01*
X0117726Y0396044D01*
X0029443Y0431234D02*
X0029443Y0432546D01*
X0031505Y0432546D02*
X0027568Y0432546D01*
X0027568Y0430671D01*
X0031505Y0427109D02*
X0031505Y0429359D01*
X0031505Y0428234D02*
X0027568Y0428234D01*
X0028131Y0428609D01*
X0028506Y0428984D01*
X0028693Y0429359D01*
X0088105Y0416104D02*
X0088105Y0414792D01*
X0090167Y0414229D02*
X0090167Y0416104D01*
X0086230Y0416104D01*
X0086230Y0414229D01*
X0086230Y0410667D02*
X0086230Y0412542D01*
X0088105Y0412730D01*
X0087917Y0412542D01*
X0087730Y0412167D01*
X0087730Y0411230D01*
X0087917Y0410855D01*
X0088105Y0410667D01*
X0088480Y0410480D01*
X0089417Y0410480D01*
X0089792Y0410667D01*
X0089979Y0410855D01*
X0090167Y0411230D01*
X0090167Y0412167D01*
X0089979Y0412542D01*
X0089792Y0412730D01*
X0060546Y0416104D02*
X0060546Y0414792D01*
X0062608Y0414229D02*
X0062608Y0416104D01*
X0058671Y0416104D01*
X0058671Y0414229D01*
X0058671Y0412917D02*
X0058671Y0410480D01*
X0060171Y0411792D01*
X0060171Y0411230D01*
X0060358Y0410855D01*
X0060546Y0410667D01*
X0060921Y0410480D01*
X0061858Y0410480D01*
X0062233Y0410667D01*
X0062420Y0410855D01*
X0062608Y0411230D01*
X0062608Y0412355D01*
X0062420Y0412730D01*
X0062233Y0412917D01*
X0074325Y0431234D02*
X0074325Y0432546D01*
X0076387Y0432546D02*
X0072450Y0432546D01*
X0072450Y0430671D01*
X0073763Y0427484D02*
X0076387Y0427484D01*
X0072263Y0428421D02*
X0075075Y0429359D01*
X0075075Y0426922D01*
X0045585Y0416498D02*
X0045585Y0415186D01*
X0047647Y0414623D02*
X0047647Y0416498D01*
X0043710Y0416498D01*
X0043710Y0414623D01*
X0044085Y0413123D02*
X0043898Y0412936D01*
X0043710Y0412561D01*
X0043710Y0411624D01*
X0043898Y0411249D01*
X0044085Y0411061D01*
X0044460Y0410874D01*
X0044835Y0410874D01*
X0045397Y0411061D01*
X0047647Y0413311D01*
X0047647Y0410874D01*
X0115664Y0431234D02*
X0115664Y0432546D01*
X0117726Y0432546D02*
X0113789Y0432546D01*
X0113789Y0430671D01*
X0113789Y0429546D02*
X0113789Y0426922D01*
X0117726Y0428609D01*
X0031505Y0400937D02*
X0027568Y0400937D01*
X0027568Y0400000D01*
X0027756Y0399438D01*
X0028131Y0399063D01*
X0028506Y0398875D01*
X0029256Y0398688D01*
X0029818Y0398688D01*
X0030568Y0398875D01*
X0030943Y0399063D01*
X0031318Y0399438D01*
X0031505Y0400000D01*
X0031505Y0400937D01*
X0031505Y0394938D02*
X0031505Y0397188D01*
X0031505Y0396063D02*
X0027568Y0396063D01*
X0028131Y0396438D01*
X0028506Y0396813D01*
X0028693Y0397188D01*
X0090167Y0400544D02*
X0086230Y0400544D01*
X0086230Y0399606D01*
X0086417Y0399044D01*
X0086792Y0398669D01*
X0087167Y0398481D01*
X0087917Y0398294D01*
X0088480Y0398294D01*
X0089229Y0398481D01*
X0089604Y0398669D01*
X0089979Y0399044D01*
X0090167Y0399606D01*
X0090167Y0400544D01*
X0086230Y0394732D02*
X0086230Y0396607D01*
X0088105Y0396794D01*
X0087917Y0396607D01*
X0087730Y0396232D01*
X0087730Y0395294D01*
X0087917Y0394919D01*
X0088105Y0394732D01*
X0088480Y0394544D01*
X0089417Y0394544D01*
X0089792Y0394732D01*
X0089979Y0394919D01*
X0090167Y0395294D01*
X0090167Y0396232D01*
X0089979Y0396607D01*
X0089792Y0396794D01*
X0074325Y0416104D02*
X0074325Y0414792D01*
X0076387Y0414229D02*
X0076387Y0416104D01*
X0072450Y0416104D01*
X0072450Y0414229D01*
X0073763Y0410855D02*
X0076387Y0410855D01*
X0072263Y0411792D02*
X0075075Y0412730D01*
X0075075Y0410292D01*
X0076387Y0400544D02*
X0072450Y0400544D01*
X0072450Y0399606D01*
X0072638Y0399044D01*
X0073013Y0398669D01*
X0073388Y0398481D01*
X0074138Y0398294D01*
X0074700Y0398294D01*
X0075450Y0398481D01*
X0075825Y0398669D01*
X0076200Y0399044D01*
X0076387Y0399606D01*
X0076387Y0400544D01*
X0073763Y0394919D02*
X0076387Y0394919D01*
X0072263Y0395857D02*
X0075075Y0396794D01*
X0075075Y0394357D01*
X0062608Y0400544D02*
X0058671Y0400544D01*
X0058671Y0399606D01*
X0058858Y0399044D01*
X0059233Y0398669D01*
X0059608Y0398481D01*
X0060358Y0398294D01*
X0060921Y0398294D01*
X0061670Y0398481D01*
X0062045Y0398669D01*
X0062420Y0399044D01*
X0062608Y0399606D01*
X0062608Y0400544D01*
X0058671Y0396982D02*
X0058671Y0394544D01*
X0060171Y0395857D01*
X0060171Y0395294D01*
X0060358Y0394919D01*
X0060546Y0394732D01*
X0060921Y0394544D01*
X0061858Y0394544D01*
X0062233Y0394732D01*
X0062420Y0394919D01*
X0062608Y0395294D01*
X0062608Y0396419D01*
X0062420Y0396794D01*
X0062233Y0396982D01*
X0103946Y0400544D02*
X0100009Y0400544D01*
X0100009Y0399606D01*
X0100197Y0399044D01*
X0100572Y0398669D01*
X0100947Y0398481D01*
X0101697Y0398294D01*
X0102259Y0398294D01*
X0103009Y0398481D01*
X0103384Y0398669D01*
X0103759Y0399044D01*
X0103946Y0399606D01*
X0103946Y0400544D01*
X0100009Y0394919D02*
X0100009Y0395669D01*
X0100197Y0396044D01*
X0100384Y0396232D01*
X0100947Y0396607D01*
X0101697Y0396794D01*
X0103196Y0396794D01*
X0103571Y0396607D01*
X0103759Y0396419D01*
X0103946Y0396044D01*
X0103946Y0395294D01*
X0103759Y0394919D01*
X0103571Y0394732D01*
X0103196Y0394544D01*
X0102259Y0394544D01*
X0101884Y0394732D01*
X0101697Y0394919D01*
X0101509Y0395294D01*
X0101509Y0396044D01*
X0101697Y0396419D01*
X0101884Y0396607D01*
X0102259Y0396794D01*
X0088105Y0431234D02*
X0088105Y0432546D01*
X0090167Y0432546D02*
X0086230Y0432546D01*
X0086230Y0430671D01*
X0086230Y0427297D02*
X0086230Y0429171D01*
X0088105Y0429359D01*
X0087917Y0429171D01*
X0087730Y0428796D01*
X0087730Y0427859D01*
X0087917Y0427484D01*
X0088105Y0427297D01*
X0088480Y0427109D01*
X0089417Y0427109D01*
X0089792Y0427297D01*
X0089979Y0427484D01*
X0090167Y0427859D01*
X0090167Y0428796D01*
X0089979Y0429171D01*
X0089792Y0429359D01*
X0045585Y0431627D02*
X0045585Y0432940D01*
X0047647Y0432940D02*
X0043710Y0432940D01*
X0043710Y0431065D01*
X0044085Y0429753D02*
X0043898Y0429565D01*
X0043710Y0429190D01*
X0043710Y0428253D01*
X0043898Y0427878D01*
X0044085Y0427690D01*
X0044460Y0427503D01*
X0044835Y0427503D01*
X0045397Y0427690D01*
X0047647Y0429940D01*
X0047647Y0427503D01*
X0101884Y0431234D02*
X0101884Y0432546D01*
X0103946Y0432546D02*
X0100009Y0432546D01*
X0100009Y0430671D01*
X0100009Y0427484D02*
X0100009Y0428234D01*
X0100197Y0428609D01*
X0100384Y0428796D01*
X0100947Y0429171D01*
X0101697Y0429359D01*
X0103196Y0429359D01*
X0103571Y0429171D01*
X0103759Y0428984D01*
X0103946Y0428609D01*
X0103946Y0427859D01*
X0103759Y0427484D01*
X0103571Y0427297D01*
X0103196Y0427109D01*
X0102259Y0427109D01*
X0101884Y0427297D01*
X0101697Y0427484D01*
X0101509Y0427859D01*
X0101509Y0428609D01*
X0101697Y0428984D01*
X0101884Y0429171D01*
X0102259Y0429359D01*
X0060546Y0431234D02*
X0060546Y0432546D01*
X0062608Y0432546D02*
X0058671Y0432546D01*
X0058671Y0430671D01*
X0058671Y0429546D02*
X0058671Y0427109D01*
X0060171Y0428421D01*
X0060171Y0427859D01*
X0060358Y0427484D01*
X0060546Y0427297D01*
X0060921Y0427109D01*
X0061858Y0427109D01*
X0062233Y0427297D01*
X0062420Y0427484D01*
X0062608Y0427859D01*
X0062608Y0428984D01*
X0062420Y0429359D01*
X0062233Y0429546D01*
X0029443Y0416104D02*
X0029443Y0414792D01*
X0031505Y0414229D02*
X0031505Y0416104D01*
X0027568Y0416104D01*
X0027568Y0414229D01*
X0031505Y0410480D02*
X0031505Y0412730D01*
X0031505Y0411605D02*
X0027568Y0411605D01*
X0028131Y0411980D01*
X0028506Y0412355D01*
X0028693Y0412730D01*
X0133080Y0400544D02*
X0129143Y0400544D01*
X0129143Y0399606D01*
X0129331Y0399044D01*
X0129706Y0398669D01*
X0130081Y0398481D01*
X0130831Y0398294D01*
X0131393Y0398294D01*
X0132143Y0398481D01*
X0132518Y0398669D01*
X0132893Y0399044D01*
X0133080Y0399606D01*
X0133080Y0400544D01*
X0130831Y0396044D02*
X0130643Y0396419D01*
X0130456Y0396607D01*
X0130081Y0396794D01*
X0129893Y0396794D01*
X0129518Y0396607D01*
X0129331Y0396419D01*
X0129143Y0396044D01*
X0129143Y0395294D01*
X0129331Y0394919D01*
X0129518Y0394732D01*
X0129893Y0394544D01*
X0130081Y0394544D01*
X0130456Y0394732D01*
X0130643Y0394919D01*
X0130831Y0395294D01*
X0130831Y0396044D01*
X0131018Y0396419D01*
X0131205Y0396607D01*
X0131580Y0396794D01*
X0132330Y0396794D01*
X0132705Y0396607D01*
X0132893Y0396419D01*
X0133080Y0396044D01*
X0133080Y0395294D01*
X0132893Y0394919D01*
X0132705Y0394732D01*
X0132330Y0394544D01*
X0131580Y0394544D01*
X0131205Y0394732D01*
X0131018Y0394919D01*
X0130831Y0395294D01*
X0115664Y0416104D02*
X0115664Y0414792D01*
X0117726Y0414229D02*
X0117726Y0416104D01*
X0113789Y0416104D01*
X0113789Y0414229D01*
X0113789Y0412917D02*
X0113789Y0410292D01*
X0117726Y0411980D01*
X0101884Y0416104D02*
X0101884Y0414792D01*
X0103946Y0414229D02*
X0103946Y0416104D01*
X0100009Y0416104D01*
X0100009Y0414229D01*
X0100009Y0410855D02*
X0100009Y0411605D01*
X0100197Y0411980D01*
X0100384Y0412167D01*
X0100947Y0412542D01*
X0101697Y0412730D01*
X0103196Y0412730D01*
X0103571Y0412542D01*
X0103759Y0412355D01*
X0103946Y0411980D01*
X0103946Y0411230D01*
X0103759Y0410855D01*
X0103571Y0410667D01*
X0103196Y0410480D01*
X0102259Y0410480D01*
X0101884Y0410667D01*
X0101697Y0410855D01*
X0101509Y0411230D01*
X0101509Y0411980D01*
X0101697Y0412355D01*
X0101884Y0412542D01*
X0102259Y0412730D01*
X0131018Y0416104D02*
X0131018Y0414792D01*
X0133080Y0414229D02*
X0133080Y0416104D01*
X0129143Y0416104D01*
X0129143Y0414229D01*
X0130831Y0411980D02*
X0130643Y0412355D01*
X0130456Y0412542D01*
X0130081Y0412730D01*
X0129893Y0412730D01*
X0129518Y0412542D01*
X0129331Y0412355D01*
X0129143Y0411980D01*
X0129143Y0411230D01*
X0129331Y0410855D01*
X0129518Y0410667D01*
X0129893Y0410480D01*
X0130081Y0410480D01*
X0130456Y0410667D01*
X0130643Y0410855D01*
X0130831Y0411230D01*
X0130831Y0411980D01*
X0131018Y0412355D01*
X0131205Y0412542D01*
X0131580Y0412730D01*
X0132330Y0412730D01*
X0132705Y0412542D01*
X0132893Y0412355D01*
X0133080Y0411980D01*
X0133080Y0411230D01*
X0132893Y0410855D01*
X0132705Y0410667D01*
X0132330Y0410480D01*
X0131580Y0410480D01*
X0131205Y0410667D01*
X0131018Y0410855D01*
X0130831Y0411230D01*
X0047647Y0400937D02*
X0043710Y0400937D01*
X0043710Y0400000D01*
X0043898Y0399438D01*
X0044273Y0399063D01*
X0044648Y0398875D01*
X0045397Y0398688D01*
X0045960Y0398688D01*
X0046710Y0398875D01*
X0047085Y0399063D01*
X0047460Y0399438D01*
X0047647Y0400000D01*
X0047647Y0400937D01*
X0044085Y0397188D02*
X0043898Y0397000D01*
X0043710Y0396625D01*
X0043710Y0395688D01*
X0043898Y0395313D01*
X0044085Y0395126D01*
X0044460Y0394938D01*
X0044835Y0394938D01*
X0045397Y0395126D01*
X0047647Y0397375D01*
X0047647Y0394938D01*
D35*
X0187788Y0402176D02*
X0188772Y0403582D01*
X0189475Y0402176D02*
X0189475Y0405129D01*
X0188350Y0405129D01*
X0188069Y0404988D01*
X0187929Y0404848D01*
X0187788Y0404566D01*
X0187788Y0404145D01*
X0187929Y0403863D01*
X0188069Y0403723D01*
X0188350Y0403582D01*
X0189475Y0403582D01*
X0184976Y0402176D02*
X0186663Y0402176D01*
X0185819Y0402176D02*
X0185819Y0405129D01*
X0186101Y0404707D01*
X0186382Y0404426D01*
X0186663Y0404285D01*
X0182164Y0402176D02*
X0183851Y0402176D01*
X0183007Y0402176D02*
X0183007Y0405129D01*
X0183289Y0404707D01*
X0183570Y0404426D01*
X0183851Y0404285D01*
X0362894Y0359885D02*
X0363878Y0361291D01*
X0364581Y0359885D02*
X0364581Y0362837D01*
X0363456Y0362837D01*
X0363175Y0362697D01*
X0363034Y0362556D01*
X0362894Y0362275D01*
X0362894Y0361853D01*
X0363034Y0361572D01*
X0363175Y0361431D01*
X0363456Y0361291D01*
X0364581Y0361291D01*
X0360363Y0362837D02*
X0360925Y0362837D01*
X0361206Y0362697D01*
X0361347Y0362556D01*
X0361628Y0362134D01*
X0361769Y0361572D01*
X0361769Y0360447D01*
X0361628Y0360166D01*
X0361488Y0360025D01*
X0361206Y0359885D01*
X0360644Y0359885D01*
X0360363Y0360025D01*
X0360222Y0360166D01*
X0360082Y0360447D01*
X0360082Y0361150D01*
X0360222Y0361431D01*
X0360363Y0361572D01*
X0360644Y0361713D01*
X0361206Y0361713D01*
X0361488Y0361572D01*
X0361628Y0361431D01*
X0361769Y0361150D01*
D150*
X0171023Y0361438D02*
X0172023Y0362867D01*
X0172737Y0361438D02*
X0172737Y0364438D01*
X0171594Y0364438D01*
X0171309Y0364295D01*
X0171166Y0364152D01*
X0171023Y0363867D01*
X0171023Y0363438D01*
X0171166Y0363152D01*
X0171309Y0363010D01*
X0171594Y0362867D01*
X0172737Y0362867D01*
X0168452Y0364438D02*
X0169023Y0364438D01*
X0169309Y0364295D01*
X0169452Y0364152D01*
X0169737Y0363724D01*
X0169880Y0363152D01*
X0169880Y0362010D01*
X0169737Y0361724D01*
X0169594Y0361581D01*
X0169309Y0361438D01*
X0168737Y0361438D01*
X0168452Y0361581D01*
X0168309Y0361724D01*
X0168166Y0362010D01*
X0168166Y0362724D01*
X0168309Y0363010D01*
X0168452Y0363152D01*
X0168737Y0363295D01*
X0169309Y0363295D01*
X0169594Y0363152D01*
X0169737Y0363010D01*
X0169880Y0362724D01*
X0166309Y0364438D02*
X0166023Y0364438D01*
X0165737Y0364295D01*
X0165594Y0364152D01*
X0165452Y0363867D01*
X0165309Y0363295D01*
X0165309Y0362581D01*
X0165452Y0362010D01*
X0165594Y0361724D01*
X0165737Y0361581D01*
X0166023Y0361438D01*
X0166309Y0361438D01*
X0166594Y0361581D01*
X0166737Y0361724D01*
X0166880Y0362010D01*
X0167023Y0362581D01*
X0167023Y0363295D01*
X0166880Y0363867D01*
X0166737Y0364152D01*
X0166594Y0364295D01*
X0166309Y0364438D01*
X0015511Y0360716D02*
X0016511Y0362145D01*
X0017226Y0360716D02*
X0017226Y0363716D01*
X0016083Y0363716D01*
X0015797Y0363574D01*
X0015654Y0363431D01*
X0015511Y0363145D01*
X0015511Y0362716D01*
X0015654Y0362431D01*
X0015797Y0362288D01*
X0016083Y0362145D01*
X0017226Y0362145D01*
X0012940Y0363716D02*
X0013511Y0363716D01*
X0013797Y0363574D01*
X0013940Y0363431D01*
X0014226Y0363002D01*
X0014368Y0362431D01*
X0014368Y0361288D01*
X0014226Y0361002D01*
X0014083Y0360859D01*
X0013797Y0360716D01*
X0013226Y0360716D01*
X0012940Y0360859D01*
X0012797Y0361002D01*
X0012654Y0361288D01*
X0012654Y0362002D01*
X0012797Y0362288D01*
X0012940Y0362431D01*
X0013226Y0362574D01*
X0013797Y0362574D01*
X0014083Y0362431D01*
X0014226Y0362288D01*
X0014368Y0362002D01*
X0010083Y0363716D02*
X0010654Y0363716D01*
X0010940Y0363574D01*
X0011083Y0363431D01*
X0011368Y0363002D01*
X0011511Y0362431D01*
X0011511Y0361288D01*
X0011368Y0361002D01*
X0011226Y0360859D01*
X0010940Y0360716D01*
X0010368Y0360716D01*
X0010083Y0360859D01*
X0009940Y0361002D01*
X0009797Y0361288D01*
X0009797Y0362002D01*
X0009940Y0362288D01*
X0010083Y0362431D01*
X0010368Y0362574D01*
X0010940Y0362574D01*
X0011226Y0362431D01*
X0011368Y0362288D01*
X0011511Y0362002D01*
D35*
X0270205Y0358113D02*
X0271190Y0359519D01*
X0271893Y0358113D02*
X0271893Y0361066D01*
X0270768Y0361066D01*
X0270487Y0360925D01*
X0270346Y0360785D01*
X0270205Y0360503D01*
X0270205Y0360082D01*
X0270346Y0359800D01*
X0270487Y0359660D01*
X0270768Y0359519D01*
X0271893Y0359519D01*
X0267393Y0358113D02*
X0269080Y0358113D01*
X0268237Y0358113D02*
X0268237Y0361066D01*
X0268518Y0360644D01*
X0268799Y0360363D01*
X0269080Y0360222D01*
X0266409Y0361066D02*
X0264440Y0361066D01*
X0265706Y0358113D01*
D150*
X0089133Y0361044D02*
X0090133Y0362473D01*
X0090848Y0361044D02*
X0090848Y0364044D01*
X0089705Y0364044D01*
X0089419Y0363902D01*
X0089276Y0363759D01*
X0089133Y0363473D01*
X0089133Y0363044D01*
X0089276Y0362759D01*
X0089419Y0362616D01*
X0089705Y0362473D01*
X0090848Y0362473D01*
X0086562Y0364044D02*
X0087133Y0364044D01*
X0087419Y0363902D01*
X0087562Y0363759D01*
X0087848Y0363330D01*
X0087990Y0362759D01*
X0087990Y0361616D01*
X0087848Y0361330D01*
X0087705Y0361187D01*
X0087419Y0361044D01*
X0086848Y0361044D01*
X0086562Y0361187D01*
X0086419Y0361330D01*
X0086276Y0361616D01*
X0086276Y0362330D01*
X0086419Y0362616D01*
X0086562Y0362759D01*
X0086848Y0362902D01*
X0087419Y0362902D01*
X0087705Y0362759D01*
X0087848Y0362616D01*
X0087990Y0362330D01*
X0085276Y0364044D02*
X0083419Y0364044D01*
X0084419Y0362902D01*
X0083990Y0362902D01*
X0083705Y0362759D01*
X0083562Y0362616D01*
X0083419Y0362330D01*
X0083419Y0361616D01*
X0083562Y0361330D01*
X0083705Y0361187D01*
X0083990Y0361044D01*
X0084848Y0361044D01*
X0085133Y0361187D01*
X0085276Y0361330D01*
D35*
X0286741Y0359263D02*
X0287725Y0360669D01*
X0288428Y0359263D02*
X0288428Y0362215D01*
X0287303Y0362215D01*
X0287022Y0362075D01*
X0286881Y0361934D01*
X0286741Y0361653D01*
X0286741Y0361231D01*
X0286881Y0360950D01*
X0287022Y0360809D01*
X0287303Y0360669D01*
X0288428Y0360669D01*
X0283929Y0359263D02*
X0285616Y0359263D01*
X0284772Y0359263D02*
X0284772Y0362215D01*
X0285053Y0361794D01*
X0285335Y0361512D01*
X0285616Y0361372D01*
X0281398Y0362215D02*
X0281960Y0362215D01*
X0282241Y0362075D01*
X0282382Y0361934D01*
X0282663Y0361512D01*
X0282804Y0360950D01*
X0282804Y0359825D01*
X0282663Y0359544D01*
X0282522Y0359403D01*
X0282241Y0359263D01*
X0281679Y0359263D01*
X0281398Y0359403D01*
X0281257Y0359544D01*
X0281116Y0359825D01*
X0281116Y0360528D01*
X0281257Y0360809D01*
X0281398Y0360950D01*
X0281679Y0361091D01*
X0282241Y0361091D01*
X0282522Y0360950D01*
X0282663Y0360809D01*
X0282804Y0360528D01*
D150*
X0048976Y0360848D02*
X0049976Y0362276D01*
X0050690Y0360848D02*
X0050690Y0363848D01*
X0049547Y0363848D01*
X0049262Y0363705D01*
X0049119Y0363562D01*
X0048976Y0363276D01*
X0048976Y0362848D01*
X0049119Y0362562D01*
X0049262Y0362419D01*
X0049547Y0362276D01*
X0050690Y0362276D01*
X0047976Y0363848D02*
X0045976Y0363848D01*
X0047262Y0360848D01*
X0044262Y0363848D02*
X0043976Y0363848D01*
X0043690Y0363705D01*
X0043547Y0363562D01*
X0043404Y0363276D01*
X0043262Y0362705D01*
X0043262Y0361990D01*
X0043404Y0361419D01*
X0043547Y0361133D01*
X0043690Y0360990D01*
X0043976Y0360848D01*
X0044262Y0360848D01*
X0044547Y0360990D01*
X0044690Y0361133D01*
X0044833Y0361419D01*
X0044976Y0361990D01*
X0044976Y0362705D01*
X0044833Y0363276D01*
X0044690Y0363562D01*
X0044547Y0363705D01*
X0044262Y0363848D01*
X0262165Y0359076D02*
X0263165Y0360505D01*
X0263879Y0359076D02*
X0263879Y0362076D01*
X0262736Y0362076D01*
X0262451Y0361933D01*
X0262308Y0361790D01*
X0262165Y0361505D01*
X0262165Y0361076D01*
X0262308Y0360790D01*
X0262451Y0360647D01*
X0262736Y0360505D01*
X0263879Y0360505D01*
X0259308Y0359076D02*
X0261022Y0359076D01*
X0260165Y0359076D02*
X0260165Y0362076D01*
X0260451Y0361647D01*
X0260736Y0361362D01*
X0261022Y0361219D01*
X0257451Y0362076D02*
X0257165Y0362076D01*
X0256879Y0361933D01*
X0256736Y0361790D01*
X0256593Y0361505D01*
X0256451Y0360933D01*
X0256451Y0360219D01*
X0256593Y0359647D01*
X0256736Y0359362D01*
X0256879Y0359219D01*
X0257165Y0359076D01*
X0257451Y0359076D01*
X0257736Y0359219D01*
X0257879Y0359362D01*
X0258022Y0359647D01*
X0258165Y0360219D01*
X0258165Y0360933D01*
X0258022Y0361505D01*
X0257879Y0361790D01*
X0257736Y0361933D01*
X0257451Y0362076D01*
X0114133Y0360060D02*
X0115133Y0361489D01*
X0115848Y0360060D02*
X0115848Y0363060D01*
X0114705Y0363060D01*
X0114419Y0362917D01*
X0114276Y0362774D01*
X0114133Y0362489D01*
X0114133Y0362060D01*
X0114276Y0361774D01*
X0114419Y0361632D01*
X0114705Y0361489D01*
X0115848Y0361489D01*
X0111562Y0363060D02*
X0112133Y0363060D01*
X0112419Y0362917D01*
X0112562Y0362774D01*
X0112848Y0362346D01*
X0112990Y0361774D01*
X0112990Y0360632D01*
X0112848Y0360346D01*
X0112705Y0360203D01*
X0112419Y0360060D01*
X0111848Y0360060D01*
X0111562Y0360203D01*
X0111419Y0360346D01*
X0111276Y0360632D01*
X0111276Y0361346D01*
X0111419Y0361632D01*
X0111562Y0361774D01*
X0111848Y0361917D01*
X0112419Y0361917D01*
X0112705Y0361774D01*
X0112848Y0361632D01*
X0112990Y0361346D01*
X0110133Y0362774D02*
X0109990Y0362917D01*
X0109705Y0363060D01*
X0108990Y0363060D01*
X0108705Y0362917D01*
X0108562Y0362774D01*
X0108419Y0362489D01*
X0108419Y0362203D01*
X0108562Y0361774D01*
X0110276Y0360060D01*
X0108419Y0360060D01*
X0040708Y0360848D02*
X0041708Y0362276D01*
X0042422Y0360848D02*
X0042422Y0363848D01*
X0041280Y0363848D01*
X0040994Y0363705D01*
X0040851Y0363562D01*
X0040708Y0363276D01*
X0040708Y0362848D01*
X0040851Y0362562D01*
X0040994Y0362419D01*
X0041280Y0362276D01*
X0042422Y0362276D01*
X0038137Y0363848D02*
X0038708Y0363848D01*
X0038994Y0363705D01*
X0039137Y0363562D01*
X0039422Y0363133D01*
X0039565Y0362562D01*
X0039565Y0361419D01*
X0039422Y0361133D01*
X0039280Y0360990D01*
X0038994Y0360848D01*
X0038422Y0360848D01*
X0038137Y0360990D01*
X0037994Y0361133D01*
X0037851Y0361419D01*
X0037851Y0362133D01*
X0037994Y0362419D01*
X0038137Y0362562D01*
X0038422Y0362705D01*
X0038994Y0362705D01*
X0039280Y0362562D01*
X0039422Y0362419D01*
X0039565Y0362133D01*
X0035137Y0363848D02*
X0036565Y0363848D01*
X0036708Y0362419D01*
X0036565Y0362562D01*
X0036280Y0362705D01*
X0035565Y0362705D01*
X0035280Y0362562D01*
X0035137Y0362419D01*
X0034994Y0362133D01*
X0034994Y0361419D01*
X0035137Y0361133D01*
X0035280Y0360990D01*
X0035565Y0360848D01*
X0036280Y0360848D01*
X0036565Y0360990D01*
X0036708Y0361133D01*
X0130331Y0358088D02*
X0131331Y0358088D01*
X0131331Y0356517D02*
X0131331Y0359517D01*
X0129902Y0359517D01*
X0129045Y0359517D02*
X0127045Y0359517D01*
X0128331Y0356517D01*
X0007047Y0361044D02*
X0008047Y0362473D01*
X0008761Y0361044D02*
X0008761Y0364044D01*
X0007618Y0364044D01*
X0007332Y0363902D01*
X0007190Y0363759D01*
X0007047Y0363473D01*
X0007047Y0363044D01*
X0007190Y0362759D01*
X0007332Y0362616D01*
X0007618Y0362473D01*
X0008761Y0362473D01*
X0004332Y0364044D02*
X0005761Y0364044D01*
X0005904Y0362616D01*
X0005761Y0362759D01*
X0005475Y0362902D01*
X0004761Y0362902D01*
X0004475Y0362759D01*
X0004332Y0362616D01*
X0004190Y0362330D01*
X0004190Y0361616D01*
X0004332Y0361330D01*
X0004475Y0361187D01*
X0004761Y0361044D01*
X0005475Y0361044D01*
X0005761Y0361187D01*
X0005904Y0361330D01*
X0002475Y0362759D02*
X0002761Y0362902D01*
X0002904Y0363044D01*
X0003047Y0363330D01*
X0003047Y0363473D01*
X0002904Y0363759D01*
X0002761Y0363902D01*
X0002475Y0364044D01*
X0001904Y0364044D01*
X0001618Y0363902D01*
X0001475Y0363759D01*
X0001332Y0363473D01*
X0001332Y0363330D01*
X0001475Y0363044D01*
X0001618Y0362902D01*
X0001904Y0362759D01*
X0002475Y0362759D01*
X0002761Y0362616D01*
X0002904Y0362473D01*
X0003047Y0362187D01*
X0003047Y0361616D01*
X0002904Y0361330D01*
X0002761Y0361187D01*
X0002475Y0361044D01*
X0001904Y0361044D01*
X0001618Y0361187D01*
X0001475Y0361330D01*
X0001332Y0361616D01*
X0001332Y0362187D01*
X0001475Y0362473D01*
X0001618Y0362616D01*
X0001904Y0362759D01*
X0057047Y0361044D02*
X0058047Y0362473D01*
X0058761Y0361044D02*
X0058761Y0364044D01*
X0057618Y0364044D01*
X0057332Y0363902D01*
X0057190Y0363759D01*
X0057047Y0363473D01*
X0057047Y0363044D01*
X0057190Y0362759D01*
X0057332Y0362616D01*
X0057618Y0362473D01*
X0058761Y0362473D01*
X0054332Y0364044D02*
X0055761Y0364044D01*
X0055904Y0362616D01*
X0055761Y0362759D01*
X0055475Y0362902D01*
X0054761Y0362902D01*
X0054475Y0362759D01*
X0054332Y0362616D01*
X0054190Y0362330D01*
X0054190Y0361616D01*
X0054332Y0361330D01*
X0054475Y0361187D01*
X0054761Y0361044D01*
X0055475Y0361044D01*
X0055761Y0361187D01*
X0055904Y0361330D01*
X0051618Y0364044D02*
X0052190Y0364044D01*
X0052475Y0363902D01*
X0052618Y0363759D01*
X0052904Y0363330D01*
X0053047Y0362759D01*
X0053047Y0361616D01*
X0052904Y0361330D01*
X0052761Y0361187D01*
X0052475Y0361044D01*
X0051904Y0361044D01*
X0051618Y0361187D01*
X0051475Y0361330D01*
X0051332Y0361616D01*
X0051332Y0362330D01*
X0051475Y0362616D01*
X0051618Y0362759D01*
X0051904Y0362902D01*
X0052475Y0362902D01*
X0052761Y0362759D01*
X0052904Y0362616D01*
X0053047Y0362330D01*
X0214330Y0359076D02*
X0215330Y0360505D01*
X0216044Y0359076D02*
X0216044Y0362076D01*
X0214902Y0362076D01*
X0214616Y0361933D01*
X0214473Y0361790D01*
X0214330Y0361505D01*
X0214330Y0361076D01*
X0214473Y0360790D01*
X0214616Y0360647D01*
X0214902Y0360505D01*
X0216044Y0360505D01*
X0211473Y0359076D02*
X0213187Y0359076D01*
X0212330Y0359076D02*
X0212330Y0362076D01*
X0212616Y0361647D01*
X0212902Y0361362D01*
X0213187Y0361219D01*
X0210044Y0359076D02*
X0209473Y0359076D01*
X0209187Y0359219D01*
X0209044Y0359362D01*
X0208759Y0359790D01*
X0208616Y0360362D01*
X0208616Y0361505D01*
X0208759Y0361790D01*
X0208902Y0361933D01*
X0209187Y0362076D01*
X0209759Y0362076D01*
X0210044Y0361933D01*
X0210187Y0361790D01*
X0210330Y0361505D01*
X0210330Y0360790D01*
X0210187Y0360505D01*
X0210044Y0360362D01*
X0209759Y0360219D01*
X0209187Y0360219D01*
X0208902Y0360362D01*
X0208759Y0360505D01*
X0208616Y0360790D01*
X0105669Y0361241D02*
X0106669Y0362670D01*
X0107383Y0361241D02*
X0107383Y0364241D01*
X0106240Y0364241D01*
X0105954Y0364098D01*
X0105812Y0363956D01*
X0105669Y0363670D01*
X0105669Y0363241D01*
X0105812Y0362956D01*
X0105954Y0362813D01*
X0106240Y0362670D01*
X0107383Y0362670D01*
X0103097Y0364241D02*
X0103669Y0364241D01*
X0103954Y0364098D01*
X0104097Y0363956D01*
X0104383Y0363527D01*
X0104526Y0362956D01*
X0104526Y0361813D01*
X0104383Y0361527D01*
X0104240Y0361384D01*
X0103954Y0361241D01*
X0103383Y0361241D01*
X0103097Y0361384D01*
X0102954Y0361527D01*
X0102812Y0361813D01*
X0102812Y0362527D01*
X0102954Y0362813D01*
X0103097Y0362956D01*
X0103383Y0363098D01*
X0103954Y0363098D01*
X0104240Y0362956D01*
X0104383Y0362813D01*
X0104526Y0362527D01*
X0101812Y0364241D02*
X0099812Y0364241D01*
X0101097Y0361241D01*
X0320866Y0356494D02*
X0321866Y0356494D01*
X0321866Y0354922D02*
X0321866Y0357922D01*
X0320438Y0357922D01*
X0317723Y0354922D02*
X0319438Y0354922D01*
X0318580Y0354922D02*
X0318580Y0357922D01*
X0318866Y0357494D01*
X0319152Y0357208D01*
X0319438Y0357065D01*
D35*
X0355835Y0359491D02*
X0356819Y0360897D01*
X0357522Y0359491D02*
X0357522Y0362444D01*
X0356398Y0362444D01*
X0356116Y0362303D01*
X0355976Y0362163D01*
X0355835Y0361881D01*
X0355835Y0361460D01*
X0355976Y0361178D01*
X0356116Y0361038D01*
X0356398Y0360897D01*
X0357522Y0360897D01*
X0353023Y0359491D02*
X0354710Y0359491D01*
X0353867Y0359491D02*
X0353867Y0362444D01*
X0354148Y0362022D01*
X0354429Y0361741D01*
X0354710Y0361600D01*
X0350492Y0361460D02*
X0350492Y0359491D01*
X0351195Y0362584D02*
X0351898Y0360475D01*
X0350070Y0360475D01*
D150*
X0064921Y0361044D02*
X0065921Y0362473D01*
X0066635Y0361044D02*
X0066635Y0364044D01*
X0065492Y0364044D01*
X0065206Y0363902D01*
X0065064Y0363759D01*
X0064921Y0363473D01*
X0064921Y0363044D01*
X0065064Y0362759D01*
X0065206Y0362616D01*
X0065492Y0362473D01*
X0066635Y0362473D01*
X0062349Y0364044D02*
X0062921Y0364044D01*
X0063206Y0363902D01*
X0063349Y0363759D01*
X0063635Y0363330D01*
X0063778Y0362759D01*
X0063778Y0361616D01*
X0063635Y0361330D01*
X0063492Y0361187D01*
X0063206Y0361044D01*
X0062635Y0361044D01*
X0062349Y0361187D01*
X0062206Y0361330D01*
X0062064Y0361616D01*
X0062064Y0362330D01*
X0062206Y0362616D01*
X0062349Y0362759D01*
X0062635Y0362902D01*
X0063206Y0362902D01*
X0063492Y0362759D01*
X0063635Y0362616D01*
X0063778Y0362330D01*
X0059492Y0363044D02*
X0059492Y0361044D01*
X0060206Y0364187D02*
X0060921Y0362044D01*
X0059064Y0362044D01*
X0277575Y0356514D02*
X0278575Y0356514D01*
X0278575Y0354942D02*
X0278575Y0357942D01*
X0277146Y0357942D01*
X0276289Y0357942D02*
X0274432Y0357942D01*
X0275432Y0356799D01*
X0275003Y0356799D01*
X0274718Y0356656D01*
X0274575Y0356514D01*
X0274432Y0356228D01*
X0274432Y0355514D01*
X0274575Y0355228D01*
X0274718Y0355085D01*
X0275003Y0354942D01*
X0275861Y0354942D01*
X0276146Y0355085D01*
X0276289Y0355228D01*
X0023976Y0360651D02*
X0024976Y0362079D01*
X0025690Y0360651D02*
X0025690Y0363651D01*
X0024547Y0363651D01*
X0024262Y0363508D01*
X0024119Y0363365D01*
X0023976Y0363079D01*
X0023976Y0362651D01*
X0024119Y0362365D01*
X0024262Y0362222D01*
X0024547Y0362079D01*
X0025690Y0362079D01*
X0022976Y0363651D02*
X0020976Y0363651D01*
X0022262Y0360651D01*
X0018262Y0360651D02*
X0019976Y0360651D01*
X0019119Y0360651D02*
X0019119Y0363651D01*
X0019404Y0363222D01*
X0019690Y0362936D01*
X0019976Y0362794D01*
X0122795Y0360060D02*
X0123795Y0361489D01*
X0124509Y0360060D02*
X0124509Y0363060D01*
X0123366Y0363060D01*
X0123080Y0362917D01*
X0122938Y0362774D01*
X0122795Y0362489D01*
X0122795Y0362060D01*
X0122938Y0361774D01*
X0123080Y0361632D01*
X0123366Y0361489D01*
X0124509Y0361489D01*
X0120223Y0363060D02*
X0120795Y0363060D01*
X0121080Y0362917D01*
X0121223Y0362774D01*
X0121509Y0362346D01*
X0121652Y0361774D01*
X0121652Y0360632D01*
X0121509Y0360346D01*
X0121366Y0360203D01*
X0121080Y0360060D01*
X0120509Y0360060D01*
X0120223Y0360203D01*
X0120080Y0360346D01*
X0119938Y0360632D01*
X0119938Y0361346D01*
X0120080Y0361632D01*
X0120223Y0361774D01*
X0120509Y0361917D01*
X0121080Y0361917D01*
X0121366Y0361774D01*
X0121509Y0361632D01*
X0121652Y0361346D01*
X0117080Y0360060D02*
X0118795Y0360060D01*
X0117938Y0360060D02*
X0117938Y0363060D01*
X0118223Y0362632D01*
X0118509Y0362346D01*
X0118795Y0362203D01*
X0072992Y0361044D02*
X0073992Y0362473D01*
X0074706Y0361044D02*
X0074706Y0364044D01*
X0073563Y0364044D01*
X0073277Y0363902D01*
X0073134Y0363759D01*
X0072992Y0363473D01*
X0072992Y0363044D01*
X0073134Y0362759D01*
X0073277Y0362616D01*
X0073563Y0362473D01*
X0074706Y0362473D01*
X0070420Y0364044D02*
X0070992Y0364044D01*
X0071277Y0363902D01*
X0071420Y0363759D01*
X0071706Y0363330D01*
X0071849Y0362759D01*
X0071849Y0361616D01*
X0071706Y0361330D01*
X0071563Y0361187D01*
X0071277Y0361044D01*
X0070706Y0361044D01*
X0070420Y0361187D01*
X0070277Y0361330D01*
X0070134Y0361616D01*
X0070134Y0362330D01*
X0070277Y0362616D01*
X0070420Y0362759D01*
X0070706Y0362902D01*
X0071277Y0362902D01*
X0071563Y0362759D01*
X0071706Y0362616D01*
X0071849Y0362330D01*
X0068706Y0361044D02*
X0068134Y0361044D01*
X0067849Y0361187D01*
X0067706Y0361330D01*
X0067420Y0361759D01*
X0067277Y0362330D01*
X0067277Y0363473D01*
X0067420Y0363759D01*
X0067563Y0363902D01*
X0067849Y0364044D01*
X0068420Y0364044D01*
X0068706Y0363902D01*
X0068849Y0363759D01*
X0068992Y0363473D01*
X0068992Y0362759D01*
X0068849Y0362473D01*
X0068706Y0362330D01*
X0068420Y0362187D01*
X0067849Y0362187D01*
X0067563Y0362330D01*
X0067420Y0362473D01*
X0067277Y0362759D01*
X0081062Y0361044D02*
X0082062Y0362473D01*
X0082777Y0361044D02*
X0082777Y0364044D01*
X0081634Y0364044D01*
X0081348Y0363902D01*
X0081205Y0363759D01*
X0081062Y0363473D01*
X0081062Y0363044D01*
X0081205Y0362759D01*
X0081348Y0362616D01*
X0081634Y0362473D01*
X0082777Y0362473D01*
X0078348Y0364044D02*
X0079777Y0364044D01*
X0079920Y0362616D01*
X0079777Y0362759D01*
X0079491Y0362902D01*
X0078777Y0362902D01*
X0078491Y0362759D01*
X0078348Y0362616D01*
X0078205Y0362330D01*
X0078205Y0361616D01*
X0078348Y0361330D01*
X0078491Y0361187D01*
X0078777Y0361044D01*
X0079491Y0361044D01*
X0079777Y0361187D01*
X0079920Y0361330D01*
X0075491Y0364044D02*
X0076920Y0364044D01*
X0077062Y0362616D01*
X0076920Y0362759D01*
X0076634Y0362902D01*
X0075920Y0362902D01*
X0075634Y0362759D01*
X0075491Y0362616D01*
X0075348Y0362330D01*
X0075348Y0361616D01*
X0075491Y0361330D01*
X0075634Y0361187D01*
X0075920Y0361044D01*
X0076634Y0361044D01*
X0076920Y0361187D01*
X0077062Y0361330D01*
X0157299Y0357695D02*
X0158299Y0357695D01*
X0158299Y0356123D02*
X0158299Y0359123D01*
X0156871Y0359123D01*
X0155299Y0357837D02*
X0155585Y0357980D01*
X0155728Y0358123D01*
X0155871Y0358409D01*
X0155871Y0358552D01*
X0155728Y0358837D01*
X0155585Y0358980D01*
X0155299Y0359123D01*
X0154728Y0359123D01*
X0154442Y0358980D01*
X0154299Y0358837D01*
X0154156Y0358552D01*
X0154156Y0358409D01*
X0154299Y0358123D01*
X0154442Y0357980D01*
X0154728Y0357837D01*
X0155299Y0357837D01*
X0155585Y0357695D01*
X0155728Y0357552D01*
X0155871Y0357266D01*
X0155871Y0356695D01*
X0155728Y0356409D01*
X0155585Y0356266D01*
X0155299Y0356123D01*
X0154728Y0356123D01*
X0154442Y0356266D01*
X0154299Y0356409D01*
X0154156Y0356695D01*
X0154156Y0357266D01*
X0154299Y0357552D01*
X0154442Y0357695D01*
X0154728Y0357837D01*
X0149370Y0360848D02*
X0150370Y0362276D01*
X0151084Y0360848D02*
X0151084Y0363848D01*
X0149941Y0363848D01*
X0149655Y0363705D01*
X0149512Y0363562D01*
X0149370Y0363276D01*
X0149370Y0362848D01*
X0149512Y0362562D01*
X0149655Y0362419D01*
X0149941Y0362276D01*
X0151084Y0362276D01*
X0146655Y0363848D02*
X0148084Y0363848D01*
X0148227Y0362419D01*
X0148084Y0362562D01*
X0147798Y0362705D01*
X0147084Y0362705D01*
X0146798Y0362562D01*
X0146655Y0362419D01*
X0146512Y0362133D01*
X0146512Y0361419D01*
X0146655Y0361133D01*
X0146798Y0360990D01*
X0147084Y0360848D01*
X0147798Y0360848D01*
X0148084Y0360990D01*
X0148227Y0361133D01*
X0143941Y0362848D02*
X0143941Y0360848D01*
X0144655Y0363990D02*
X0145370Y0361848D01*
X0143512Y0361848D01*
X0188149Y0361241D02*
X0189149Y0362670D01*
X0189863Y0361241D02*
X0189863Y0364241D01*
X0188720Y0364241D01*
X0188435Y0364098D01*
X0188292Y0363956D01*
X0188149Y0363670D01*
X0188149Y0363241D01*
X0188292Y0362956D01*
X0188435Y0362813D01*
X0188720Y0362670D01*
X0189863Y0362670D01*
X0185435Y0364241D02*
X0186863Y0364241D01*
X0187006Y0362813D01*
X0186863Y0362956D01*
X0186578Y0363098D01*
X0185863Y0363098D01*
X0185578Y0362956D01*
X0185435Y0362813D01*
X0185292Y0362527D01*
X0185292Y0361813D01*
X0185435Y0361527D01*
X0185578Y0361384D01*
X0185863Y0361241D01*
X0186578Y0361241D01*
X0186863Y0361384D01*
X0187006Y0361527D01*
X0184149Y0363956D02*
X0184006Y0364098D01*
X0183720Y0364241D01*
X0183006Y0364241D01*
X0182720Y0364098D01*
X0182578Y0363956D01*
X0182435Y0363670D01*
X0182435Y0363384D01*
X0182578Y0362956D01*
X0184292Y0361241D01*
X0182435Y0361241D01*
D35*
X0330567Y0359243D02*
X0331552Y0360649D01*
X0332255Y0359243D02*
X0332255Y0362196D01*
X0331130Y0362196D01*
X0330849Y0362055D01*
X0330708Y0361915D01*
X0330567Y0361633D01*
X0330567Y0361211D01*
X0330708Y0360930D01*
X0330849Y0360790D01*
X0331130Y0360649D01*
X0332255Y0360649D01*
X0327755Y0359243D02*
X0329443Y0359243D01*
X0328599Y0359243D02*
X0328599Y0362196D01*
X0328880Y0361774D01*
X0329161Y0361493D01*
X0329443Y0361352D01*
X0325084Y0362196D02*
X0326490Y0362196D01*
X0326630Y0360790D01*
X0326490Y0360930D01*
X0326209Y0361071D01*
X0325506Y0361071D01*
X0325224Y0360930D01*
X0325084Y0360790D01*
X0324943Y0360508D01*
X0324943Y0359805D01*
X0325084Y0359524D01*
X0325224Y0359384D01*
X0325506Y0359243D01*
X0326209Y0359243D01*
X0326490Y0359384D01*
X0326630Y0359524D01*
D150*
X0032244Y0360651D02*
X0033244Y0362079D01*
X0033958Y0360651D02*
X0033958Y0363651D01*
X0032815Y0363651D01*
X0032529Y0363508D01*
X0032386Y0363365D01*
X0032244Y0363079D01*
X0032244Y0362651D01*
X0032386Y0362365D01*
X0032529Y0362222D01*
X0032815Y0362079D01*
X0033958Y0362079D01*
X0029529Y0363651D02*
X0030958Y0363651D01*
X0031101Y0362222D01*
X0030958Y0362365D01*
X0030672Y0362508D01*
X0029958Y0362508D01*
X0029672Y0362365D01*
X0029529Y0362222D01*
X0029386Y0361936D01*
X0029386Y0361222D01*
X0029529Y0360936D01*
X0029672Y0360794D01*
X0029958Y0360651D01*
X0030672Y0360651D01*
X0030958Y0360794D01*
X0031101Y0360936D01*
X0028386Y0363651D02*
X0026386Y0363651D01*
X0027672Y0360651D01*
X0196417Y0361241D02*
X0197417Y0362670D01*
X0198131Y0361241D02*
X0198131Y0364241D01*
X0196988Y0364241D01*
X0196702Y0364098D01*
X0196560Y0363956D01*
X0196417Y0363670D01*
X0196417Y0363241D01*
X0196560Y0362956D01*
X0196702Y0362813D01*
X0196988Y0362670D01*
X0198131Y0362670D01*
X0193702Y0364241D02*
X0195131Y0364241D01*
X0195274Y0362813D01*
X0195131Y0362956D01*
X0194845Y0363098D01*
X0194131Y0363098D01*
X0193845Y0362956D01*
X0193702Y0362813D01*
X0193560Y0362527D01*
X0193560Y0361813D01*
X0193702Y0361527D01*
X0193845Y0361384D01*
X0194131Y0361241D01*
X0194845Y0361241D01*
X0195131Y0361384D01*
X0195274Y0361527D01*
X0192560Y0364241D02*
X0190702Y0364241D01*
X0191702Y0363098D01*
X0191274Y0363098D01*
X0190988Y0362956D01*
X0190845Y0362813D01*
X0190702Y0362527D01*
X0190702Y0361813D01*
X0190845Y0361527D01*
X0190988Y0361384D01*
X0191274Y0361241D01*
X0192131Y0361241D01*
X0192417Y0361384D01*
X0192560Y0361527D01*
X0140764Y0357891D02*
X0141764Y0357891D01*
X0141764Y0356320D02*
X0141764Y0359320D01*
X0140335Y0359320D01*
X0139049Y0356320D02*
X0138478Y0356320D01*
X0138192Y0356463D01*
X0138049Y0356606D01*
X0137764Y0357034D01*
X0137621Y0357606D01*
X0137621Y0358749D01*
X0137764Y0359034D01*
X0137907Y0359177D01*
X0138192Y0359320D01*
X0138764Y0359320D01*
X0139049Y0359177D01*
X0139192Y0359034D01*
X0139335Y0358749D01*
X0139335Y0358034D01*
X0139192Y0357749D01*
X0139049Y0357606D01*
X0138764Y0357463D01*
X0138192Y0357463D01*
X0137907Y0357606D01*
X0137764Y0357749D01*
X0137621Y0358034D01*
X0337169Y0359253D02*
X0338169Y0360682D01*
X0338884Y0359253D02*
X0338884Y0362253D01*
X0337741Y0362253D01*
X0337455Y0362110D01*
X0337312Y0361967D01*
X0337169Y0361682D01*
X0337169Y0361253D01*
X0337312Y0360967D01*
X0337455Y0360825D01*
X0337741Y0360682D01*
X0338884Y0360682D01*
X0336169Y0362253D02*
X0334169Y0362253D01*
X0335455Y0359253D01*
D35*
X0373749Y0359885D02*
X0374733Y0361291D01*
X0375436Y0359885D02*
X0375436Y0362837D01*
X0374311Y0362837D01*
X0374030Y0362697D01*
X0373889Y0362556D01*
X0373749Y0362275D01*
X0373749Y0361853D01*
X0373889Y0361572D01*
X0374030Y0361431D01*
X0374311Y0361291D01*
X0375436Y0361291D01*
X0370936Y0359885D02*
X0372624Y0359885D01*
X0371780Y0359885D02*
X0371780Y0362837D01*
X0372061Y0362416D01*
X0372343Y0362134D01*
X0372624Y0361994D01*
X0369952Y0362837D02*
X0368124Y0362837D01*
X0369109Y0361713D01*
X0368687Y0361713D01*
X0368406Y0361572D01*
X0368265Y0361431D01*
X0368124Y0361150D01*
X0368124Y0360447D01*
X0368265Y0360166D01*
X0368406Y0360025D01*
X0368687Y0359885D01*
X0369530Y0359885D01*
X0369812Y0360025D01*
X0369952Y0360166D01*
X0346363Y0359851D02*
X0347347Y0361257D01*
X0348050Y0359851D02*
X0348050Y0362804D01*
X0346925Y0362804D01*
X0346644Y0362663D01*
X0346503Y0362522D01*
X0346363Y0362241D01*
X0346363Y0361819D01*
X0346503Y0361538D01*
X0346644Y0361397D01*
X0346925Y0361257D01*
X0348050Y0361257D01*
X0345238Y0362522D02*
X0345097Y0362663D01*
X0344816Y0362804D01*
X0344113Y0362804D01*
X0343832Y0362663D01*
X0343691Y0362522D01*
X0343550Y0362241D01*
X0343550Y0361960D01*
X0343691Y0361538D01*
X0345378Y0359851D01*
X0343550Y0359851D01*
X0341723Y0362804D02*
X0341441Y0362804D01*
X0341160Y0362663D01*
X0341019Y0362522D01*
X0340879Y0362241D01*
X0340738Y0361679D01*
X0340738Y0360976D01*
X0340879Y0360413D01*
X0341019Y0360132D01*
X0341160Y0359991D01*
X0341441Y0359851D01*
X0341723Y0359851D01*
X0342004Y0359991D01*
X0342144Y0360132D01*
X0342285Y0360413D01*
X0342426Y0360976D01*
X0342426Y0361679D01*
X0342285Y0362241D01*
X0342144Y0362522D01*
X0342004Y0362663D01*
X0341723Y0362804D01*
D192*
X0279556Y0430577D02*
X0279743Y0430765D01*
X0279931Y0431327D01*
X0279931Y0431702D01*
X0279743Y0432265D01*
X0279368Y0432640D01*
X0278993Y0432827D01*
X0278243Y0433015D01*
X0277681Y0433015D01*
X0276931Y0432827D01*
X0276556Y0432640D01*
X0276181Y0432265D01*
X0275994Y0431702D01*
X0275994Y0431327D01*
X0276181Y0430765D01*
X0276369Y0430577D01*
X0277306Y0427203D02*
X0279931Y0427203D01*
X0275806Y0428140D02*
X0278618Y0429078D01*
X0278618Y0426640D01*
X0305427Y0414979D02*
X0305615Y0414417D01*
X0305802Y0414229D01*
X0306177Y0414042D01*
X0306740Y0414042D01*
X0307115Y0414229D01*
X0307302Y0414417D01*
X0307490Y0414792D01*
X0307490Y0416292D01*
X0303553Y0416292D01*
X0303553Y0414979D01*
X0303740Y0414604D01*
X0303928Y0414417D01*
X0304303Y0414229D01*
X0304678Y0414229D01*
X0305052Y0414417D01*
X0305240Y0414604D01*
X0305427Y0414979D01*
X0305427Y0416292D01*
X0303553Y0410667D02*
X0303553Y0411417D01*
X0303740Y0411792D01*
X0303928Y0411980D01*
X0304490Y0412355D01*
X0305240Y0412542D01*
X0306740Y0412542D01*
X0307115Y0412355D01*
X0307302Y0412167D01*
X0307490Y0411792D01*
X0307490Y0411042D01*
X0307302Y0410667D01*
X0307115Y0410480D01*
X0306740Y0410292D01*
X0305802Y0410292D01*
X0305427Y0410480D01*
X0305240Y0410667D01*
X0305052Y0411042D01*
X0305052Y0411792D01*
X0305240Y0412167D01*
X0305427Y0412355D01*
X0305802Y0412542D01*
X0250066Y0400844D02*
X0250066Y0398969D01*
X0251190Y0401219D02*
X0247253Y0399906D01*
X0251190Y0398594D01*
X0247628Y0397469D02*
X0247441Y0397282D01*
X0247253Y0396907D01*
X0247253Y0395969D01*
X0247441Y0395594D01*
X0247628Y0395407D01*
X0248003Y0395219D01*
X0248378Y0395219D01*
X0248941Y0395407D01*
X0251190Y0397657D01*
X0251190Y0395219D01*
X0320144Y0400450D02*
X0320144Y0398575D01*
X0321269Y0400825D02*
X0317332Y0399513D01*
X0321269Y0398200D01*
X0317332Y0397263D02*
X0317332Y0394638D01*
X0321269Y0396325D01*
X0250816Y0430971D02*
X0251003Y0431159D01*
X0251190Y0431721D01*
X0251190Y0432096D01*
X0251003Y0432658D01*
X0250628Y0433033D01*
X0250253Y0433221D01*
X0249503Y0433408D01*
X0248941Y0433408D01*
X0248191Y0433221D01*
X0247816Y0433033D01*
X0247441Y0432658D01*
X0247253Y0432096D01*
X0247253Y0431721D01*
X0247441Y0431159D01*
X0247628Y0430971D01*
X0247628Y0429471D02*
X0247441Y0429284D01*
X0247253Y0428909D01*
X0247253Y0427972D01*
X0247441Y0427597D01*
X0247628Y0427409D01*
X0248003Y0427222D01*
X0248378Y0427222D01*
X0248941Y0427409D01*
X0251190Y0429659D01*
X0251190Y0427222D01*
X0292585Y0400450D02*
X0292585Y0398575D01*
X0293710Y0400825D02*
X0289773Y0399513D01*
X0293710Y0398200D01*
X0289773Y0395013D02*
X0289773Y0396888D01*
X0291648Y0397075D01*
X0291460Y0396888D01*
X0291273Y0396513D01*
X0291273Y0395576D01*
X0291460Y0395201D01*
X0291648Y0395013D01*
X0292023Y0394826D01*
X0292960Y0394826D01*
X0293335Y0395013D01*
X0293523Y0395201D01*
X0293710Y0395576D01*
X0293710Y0396513D01*
X0293523Y0396888D01*
X0293335Y0397075D01*
X0291648Y0414979D02*
X0291835Y0414417D01*
X0292023Y0414229D01*
X0292398Y0414042D01*
X0292960Y0414042D01*
X0293335Y0414229D01*
X0293523Y0414417D01*
X0293710Y0414792D01*
X0293710Y0416292D01*
X0289773Y0416292D01*
X0289773Y0414979D01*
X0289961Y0414604D01*
X0290148Y0414417D01*
X0290523Y0414229D01*
X0290898Y0414229D01*
X0291273Y0414417D01*
X0291460Y0414604D01*
X0291648Y0414979D01*
X0291648Y0416292D01*
X0289773Y0410480D02*
X0289773Y0412355D01*
X0291648Y0412542D01*
X0291460Y0412355D01*
X0291273Y0411980D01*
X0291273Y0411042D01*
X0291460Y0410667D01*
X0291648Y0410480D01*
X0292023Y0410292D01*
X0292960Y0410292D01*
X0293335Y0410480D01*
X0293523Y0410667D01*
X0293710Y0411042D01*
X0293710Y0411980D01*
X0293523Y0412355D01*
X0293335Y0412542D01*
X0277868Y0414979D02*
X0278056Y0414417D01*
X0278243Y0414229D01*
X0278618Y0414042D01*
X0279181Y0414042D01*
X0279556Y0414229D01*
X0279743Y0414417D01*
X0279931Y0414792D01*
X0279931Y0416292D01*
X0275994Y0416292D01*
X0275994Y0414979D01*
X0276181Y0414604D01*
X0276369Y0414417D01*
X0276744Y0414229D01*
X0277118Y0414229D01*
X0277493Y0414417D01*
X0277681Y0414604D01*
X0277868Y0414979D01*
X0277868Y0416292D01*
X0277306Y0410667D02*
X0279931Y0410667D01*
X0275806Y0411605D02*
X0278618Y0412542D01*
X0278618Y0410105D01*
X0293335Y0430577D02*
X0293523Y0430765D01*
X0293710Y0431327D01*
X0293710Y0431702D01*
X0293523Y0432265D01*
X0293148Y0432640D01*
X0292773Y0432827D01*
X0292023Y0433015D01*
X0291460Y0433015D01*
X0290711Y0432827D01*
X0290336Y0432640D01*
X0289961Y0432265D01*
X0289773Y0431702D01*
X0289773Y0431327D01*
X0289961Y0430765D01*
X0290148Y0430577D01*
X0289773Y0427015D02*
X0289773Y0428890D01*
X0291648Y0429078D01*
X0291460Y0428890D01*
X0291273Y0428515D01*
X0291273Y0427578D01*
X0291460Y0427203D01*
X0291648Y0427015D01*
X0292023Y0426828D01*
X0292960Y0426828D01*
X0293335Y0427015D01*
X0293523Y0427203D01*
X0293710Y0427578D01*
X0293710Y0428515D01*
X0293523Y0428890D01*
X0293335Y0429078D01*
X0306365Y0400450D02*
X0306365Y0398575D01*
X0307490Y0400825D02*
X0303553Y0399513D01*
X0307490Y0398200D01*
X0303553Y0395201D02*
X0303553Y0395951D01*
X0303740Y0396325D01*
X0303928Y0396513D01*
X0304490Y0396888D01*
X0305240Y0397075D01*
X0306740Y0397075D01*
X0307115Y0396888D01*
X0307302Y0396700D01*
X0307490Y0396325D01*
X0307490Y0395576D01*
X0307302Y0395201D01*
X0307115Y0395013D01*
X0306740Y0394826D01*
X0305802Y0394826D01*
X0305427Y0395013D01*
X0305240Y0395201D01*
X0305052Y0395576D01*
X0305052Y0396325D01*
X0305240Y0396700D01*
X0305427Y0396888D01*
X0305802Y0397075D01*
X0334561Y0414979D02*
X0334749Y0414417D01*
X0334936Y0414229D01*
X0335311Y0414042D01*
X0335874Y0414042D01*
X0336249Y0414229D01*
X0336436Y0414417D01*
X0336624Y0414792D01*
X0336624Y0416292D01*
X0332687Y0416292D01*
X0332687Y0414979D01*
X0332874Y0414604D01*
X0333061Y0414417D01*
X0333436Y0414229D01*
X0333811Y0414229D01*
X0334186Y0414417D01*
X0334374Y0414604D01*
X0334561Y0414979D01*
X0334561Y0416292D01*
X0334374Y0411792D02*
X0334186Y0412167D01*
X0333999Y0412355D01*
X0333624Y0412542D01*
X0333436Y0412542D01*
X0333061Y0412355D01*
X0332874Y0412167D01*
X0332687Y0411792D01*
X0332687Y0411042D01*
X0332874Y0410667D01*
X0333061Y0410480D01*
X0333436Y0410292D01*
X0333624Y0410292D01*
X0333999Y0410480D01*
X0334186Y0410667D01*
X0334374Y0411042D01*
X0334374Y0411792D01*
X0334561Y0412167D01*
X0334749Y0412355D01*
X0335124Y0412542D01*
X0335874Y0412542D01*
X0336249Y0412355D01*
X0336436Y0412167D01*
X0336624Y0411792D01*
X0336624Y0411042D01*
X0336436Y0410667D01*
X0336249Y0410480D01*
X0335874Y0410292D01*
X0335124Y0410292D01*
X0334749Y0410480D01*
X0334561Y0410667D01*
X0334374Y0411042D01*
X0320894Y0430577D02*
X0321082Y0430765D01*
X0321269Y0431327D01*
X0321269Y0431702D01*
X0321082Y0432265D01*
X0320707Y0432640D01*
X0320332Y0432827D01*
X0319582Y0433015D01*
X0319019Y0433015D01*
X0318270Y0432827D01*
X0317895Y0432640D01*
X0317520Y0432265D01*
X0317332Y0431702D01*
X0317332Y0431327D01*
X0317520Y0430765D01*
X0317707Y0430577D01*
X0317332Y0429265D02*
X0317332Y0426640D01*
X0321269Y0428328D01*
X0234674Y0430577D02*
X0234861Y0430765D01*
X0235049Y0431327D01*
X0235049Y0431702D01*
X0234861Y0432265D01*
X0234486Y0432640D01*
X0234111Y0432827D01*
X0233361Y0433015D01*
X0232799Y0433015D01*
X0232049Y0432827D01*
X0231674Y0432640D01*
X0231299Y0432265D01*
X0231112Y0431702D01*
X0231112Y0431327D01*
X0231299Y0430765D01*
X0231487Y0430577D01*
X0235049Y0426828D02*
X0235049Y0429078D01*
X0235049Y0427953D02*
X0231112Y0427953D01*
X0231674Y0428328D01*
X0232049Y0428703D01*
X0232237Y0429078D01*
X0319207Y0414979D02*
X0319394Y0414417D01*
X0319582Y0414229D01*
X0319957Y0414042D01*
X0320519Y0414042D01*
X0320894Y0414229D01*
X0321082Y0414417D01*
X0321269Y0414792D01*
X0321269Y0416292D01*
X0317332Y0416292D01*
X0317332Y0414979D01*
X0317520Y0414604D01*
X0317707Y0414417D01*
X0318082Y0414229D01*
X0318457Y0414229D01*
X0318832Y0414417D01*
X0319019Y0414604D01*
X0319207Y0414979D01*
X0319207Y0416292D01*
X0317332Y0412730D02*
X0317332Y0410105D01*
X0321269Y0411792D01*
X0336249Y0430577D02*
X0336436Y0430765D01*
X0336624Y0431327D01*
X0336624Y0431702D01*
X0336436Y0432265D01*
X0336061Y0432640D01*
X0335686Y0432827D01*
X0334936Y0433015D01*
X0334374Y0433015D01*
X0333624Y0432827D01*
X0333249Y0432640D01*
X0332874Y0432265D01*
X0332687Y0431702D01*
X0332687Y0431327D01*
X0332874Y0430765D01*
X0333061Y0430577D01*
X0334374Y0428328D02*
X0334186Y0428703D01*
X0333999Y0428890D01*
X0333624Y0429078D01*
X0333436Y0429078D01*
X0333061Y0428890D01*
X0332874Y0428703D01*
X0332687Y0428328D01*
X0332687Y0427578D01*
X0332874Y0427203D01*
X0333061Y0427015D01*
X0333436Y0426828D01*
X0333624Y0426828D01*
X0333999Y0427015D01*
X0334186Y0427203D01*
X0334374Y0427578D01*
X0334374Y0428328D01*
X0334561Y0428703D01*
X0334749Y0428890D01*
X0335124Y0429078D01*
X0335874Y0429078D01*
X0336249Y0428890D01*
X0336436Y0428703D01*
X0336624Y0428328D01*
X0336624Y0427578D01*
X0336436Y0427203D01*
X0336249Y0427015D01*
X0335874Y0426828D01*
X0335124Y0426828D01*
X0334749Y0427015D01*
X0334561Y0427203D01*
X0334374Y0427578D01*
X0233924Y0400844D02*
X0233924Y0398969D01*
X0235049Y0401219D02*
X0231112Y0399906D01*
X0235049Y0398594D01*
X0235049Y0395219D02*
X0235049Y0397469D01*
X0235049Y0396344D02*
X0231112Y0396344D01*
X0231674Y0396719D01*
X0232049Y0397094D01*
X0232237Y0397469D01*
X0264089Y0414979D02*
X0264276Y0414417D01*
X0264464Y0414229D01*
X0264839Y0414042D01*
X0265401Y0414042D01*
X0265776Y0414229D01*
X0265964Y0414417D01*
X0266151Y0414792D01*
X0266151Y0416292D01*
X0262214Y0416292D01*
X0262214Y0414979D01*
X0262402Y0414604D01*
X0262589Y0414417D01*
X0262964Y0414229D01*
X0263339Y0414229D01*
X0263714Y0414417D01*
X0263901Y0414604D01*
X0264089Y0414979D01*
X0264089Y0416292D01*
X0262214Y0412730D02*
X0262214Y0410292D01*
X0263714Y0411605D01*
X0263714Y0411042D01*
X0263901Y0410667D01*
X0264089Y0410480D01*
X0264464Y0410292D01*
X0265401Y0410292D01*
X0265776Y0410480D01*
X0265964Y0410667D01*
X0266151Y0411042D01*
X0266151Y0412167D01*
X0265964Y0412542D01*
X0265776Y0412730D01*
X0265026Y0400450D02*
X0265026Y0398575D01*
X0266151Y0400825D02*
X0262214Y0399513D01*
X0266151Y0398200D01*
X0262214Y0397263D02*
X0262214Y0394826D01*
X0263714Y0396138D01*
X0263714Y0395576D01*
X0263901Y0395201D01*
X0264089Y0395013D01*
X0264464Y0394826D01*
X0265401Y0394826D01*
X0265776Y0395013D01*
X0265964Y0395201D01*
X0266151Y0395576D01*
X0266151Y0396700D01*
X0265964Y0397075D01*
X0265776Y0397263D01*
X0265776Y0430577D02*
X0265964Y0430765D01*
X0266151Y0431327D01*
X0266151Y0431702D01*
X0265964Y0432265D01*
X0265589Y0432640D01*
X0265214Y0432827D01*
X0264464Y0433015D01*
X0263901Y0433015D01*
X0263151Y0432827D01*
X0262777Y0432640D01*
X0262402Y0432265D01*
X0262214Y0431702D01*
X0262214Y0431327D01*
X0262402Y0430765D01*
X0262589Y0430577D01*
X0262214Y0429265D02*
X0262214Y0426828D01*
X0263714Y0428140D01*
X0263714Y0427578D01*
X0263901Y0427203D01*
X0264089Y0427015D01*
X0264464Y0426828D01*
X0265401Y0426828D01*
X0265776Y0427015D01*
X0265964Y0427203D01*
X0266151Y0427578D01*
X0266151Y0428703D01*
X0265964Y0429078D01*
X0265776Y0429265D01*
X0249128Y0415373D02*
X0249316Y0414811D01*
X0249503Y0414623D01*
X0249878Y0414436D01*
X0250441Y0414436D01*
X0250816Y0414623D01*
X0251003Y0414811D01*
X0251190Y0415186D01*
X0251190Y0416685D01*
X0247253Y0416685D01*
X0247253Y0415373D01*
X0247441Y0414998D01*
X0247628Y0414811D01*
X0248003Y0414623D01*
X0248378Y0414623D01*
X0248753Y0414811D01*
X0248941Y0414998D01*
X0249128Y0415373D01*
X0249128Y0416685D01*
X0247628Y0412936D02*
X0247441Y0412748D01*
X0247253Y0412373D01*
X0247253Y0411436D01*
X0247441Y0411061D01*
X0247628Y0410874D01*
X0248003Y0410686D01*
X0248378Y0410686D01*
X0248941Y0410874D01*
X0251190Y0413123D01*
X0251190Y0410686D01*
X0335499Y0400450D02*
X0335499Y0398575D01*
X0336624Y0400825D02*
X0332687Y0399513D01*
X0336624Y0398200D01*
X0334374Y0396325D02*
X0334186Y0396700D01*
X0333999Y0396888D01*
X0333624Y0397075D01*
X0333436Y0397075D01*
X0333061Y0396888D01*
X0332874Y0396700D01*
X0332687Y0396325D01*
X0332687Y0395576D01*
X0332874Y0395201D01*
X0333061Y0395013D01*
X0333436Y0394826D01*
X0333624Y0394826D01*
X0333999Y0395013D01*
X0334186Y0395201D01*
X0334374Y0395576D01*
X0334374Y0396325D01*
X0334561Y0396700D01*
X0334749Y0396888D01*
X0335124Y0397075D01*
X0335874Y0397075D01*
X0336249Y0396888D01*
X0336436Y0396700D01*
X0336624Y0396325D01*
X0336624Y0395576D01*
X0336436Y0395201D01*
X0336249Y0395013D01*
X0335874Y0394826D01*
X0335124Y0394826D01*
X0334749Y0395013D01*
X0334561Y0395201D01*
X0334374Y0395576D01*
X0278806Y0400450D02*
X0278806Y0398575D01*
X0279931Y0400825D02*
X0275994Y0399513D01*
X0279931Y0398200D01*
X0277306Y0395201D02*
X0279931Y0395201D01*
X0275806Y0396138D02*
X0278618Y0397075D01*
X0278618Y0394638D01*
X0232987Y0414979D02*
X0233174Y0414417D01*
X0233361Y0414229D01*
X0233736Y0414042D01*
X0234299Y0414042D01*
X0234674Y0414229D01*
X0234861Y0414417D01*
X0235049Y0414792D01*
X0235049Y0416292D01*
X0231112Y0416292D01*
X0231112Y0414979D01*
X0231299Y0414604D01*
X0231487Y0414417D01*
X0231862Y0414229D01*
X0232237Y0414229D01*
X0232612Y0414417D01*
X0232799Y0414604D01*
X0232987Y0414979D01*
X0232987Y0416292D01*
X0235049Y0410292D02*
X0235049Y0412542D01*
X0235049Y0411417D02*
X0231112Y0411417D01*
X0231674Y0411792D01*
X0232049Y0412167D01*
X0232237Y0412542D01*
X0307115Y0430577D02*
X0307302Y0430765D01*
X0307490Y0431327D01*
X0307490Y0431702D01*
X0307302Y0432265D01*
X0306927Y0432640D01*
X0306552Y0432827D01*
X0305802Y0433015D01*
X0305240Y0433015D01*
X0304490Y0432827D01*
X0304115Y0432640D01*
X0303740Y0432265D01*
X0303553Y0431702D01*
X0303553Y0431327D01*
X0303740Y0430765D01*
X0303928Y0430577D01*
X0303553Y0427203D02*
X0303553Y0427953D01*
X0303740Y0428328D01*
X0303928Y0428515D01*
X0304490Y0428890D01*
X0305240Y0429078D01*
X0306740Y0429078D01*
X0307115Y0428890D01*
X0307302Y0428703D01*
X0307490Y0428328D01*
X0307490Y0427578D01*
X0307302Y0427203D01*
X0307115Y0427015D01*
X0306740Y0426828D01*
X0305802Y0426828D01*
X0305427Y0427015D01*
X0305240Y0427203D01*
X0305052Y0427578D01*
X0305052Y0428328D01*
X0305240Y0428703D01*
X0305427Y0428890D01*
X0305802Y0429078D01*
D150*
X0222654Y0356317D02*
X0223654Y0356317D01*
X0223654Y0354745D02*
X0223654Y0357745D01*
X0222225Y0357745D01*
X0219796Y0357745D02*
X0220368Y0357745D01*
X0220654Y0357602D01*
X0220796Y0357460D01*
X0221082Y0357031D01*
X0221225Y0356460D01*
X0221225Y0355317D01*
X0221082Y0355031D01*
X0220939Y0354888D01*
X0220654Y0354745D01*
X0220082Y0354745D01*
X0219796Y0354888D01*
X0219654Y0355031D01*
X0219511Y0355317D01*
X0219511Y0356031D01*
X0219654Y0356317D01*
X0219796Y0356460D01*
X0220082Y0356602D01*
X0220654Y0356602D01*
X0220939Y0356460D01*
X0221082Y0356317D01*
X0221225Y0356031D01*
D35*
X0198158Y0401979D02*
X0199142Y0403385D01*
X0199845Y0401979D02*
X0199845Y0404932D01*
X0198720Y0404932D01*
X0198439Y0404791D01*
X0198299Y0404651D01*
X0198158Y0404370D01*
X0198158Y0403948D01*
X0198299Y0403666D01*
X0198439Y0403526D01*
X0198720Y0403385D01*
X0199845Y0403385D01*
X0195346Y0401979D02*
X0197033Y0401979D01*
X0196190Y0401979D02*
X0196190Y0404932D01*
X0196471Y0404510D01*
X0196752Y0404229D01*
X0197033Y0404088D01*
X0194221Y0404651D02*
X0194080Y0404791D01*
X0193799Y0404932D01*
X0193096Y0404932D01*
X0192815Y0404791D01*
X0192674Y0404651D01*
X0192534Y0404370D01*
X0192534Y0404088D01*
X0192674Y0403666D01*
X0194362Y0401979D01*
X0192534Y0401979D01*
X0245402Y0357294D02*
X0246386Y0358700D01*
X0247089Y0357294D02*
X0247089Y0360247D01*
X0245965Y0360247D01*
X0245683Y0360106D01*
X0245543Y0359966D01*
X0245402Y0359684D01*
X0245402Y0359263D01*
X0245543Y0358981D01*
X0245683Y0358841D01*
X0245965Y0358700D01*
X0247089Y0358700D01*
X0242590Y0357294D02*
X0244277Y0357294D01*
X0243434Y0357294D02*
X0243434Y0360247D01*
X0243715Y0359825D01*
X0243996Y0359544D01*
X0244277Y0359403D01*
X0240903Y0358981D02*
X0241184Y0359122D01*
X0241325Y0359263D01*
X0241465Y0359544D01*
X0241465Y0359684D01*
X0241325Y0359966D01*
X0241184Y0360106D01*
X0240903Y0360247D01*
X0240340Y0360247D01*
X0240059Y0360106D01*
X0239918Y0359966D01*
X0239778Y0359684D01*
X0239778Y0359544D01*
X0239918Y0359263D01*
X0240059Y0359122D01*
X0240340Y0358981D01*
X0240903Y0358981D01*
X0241184Y0358841D01*
X0241325Y0358700D01*
X0241465Y0358419D01*
X0241465Y0357857D01*
X0241325Y0357575D01*
X0241184Y0357435D01*
X0240903Y0357294D01*
X0240340Y0357294D01*
X0240059Y0357435D01*
X0239918Y0357575D01*
X0239778Y0357857D01*
X0239778Y0358419D01*
X0239918Y0358700D01*
X0240059Y0358841D01*
X0240340Y0358981D01*
D150*
X0232102Y0356691D02*
X0233102Y0356691D01*
X0233102Y0355119D02*
X0233102Y0358119D01*
X0231674Y0358119D01*
X0229102Y0358119D02*
X0230531Y0358119D01*
X0230674Y0356691D01*
X0230531Y0356834D01*
X0230245Y0356976D01*
X0229531Y0356976D01*
X0229245Y0356834D01*
X0229102Y0356691D01*
X0228960Y0356405D01*
X0228960Y0355691D01*
X0229102Y0355405D01*
X0229245Y0355262D01*
X0229531Y0355119D01*
X0230245Y0355119D01*
X0230531Y0355262D01*
X0230674Y0355405D01*
X0311630Y0357084D02*
X0312630Y0357084D01*
X0312630Y0355513D02*
X0312630Y0358513D01*
X0311201Y0358513D01*
X0310201Y0358227D02*
X0310058Y0358370D01*
X0309773Y0358513D01*
X0309058Y0358513D01*
X0308773Y0358370D01*
X0308630Y0358227D01*
X0308487Y0357942D01*
X0308487Y0357656D01*
X0308630Y0357227D01*
X0310344Y0355513D01*
X0308487Y0355513D01*
D56*
X0335649Y0056201D02*
X0335649Y0058558D01*
X0341556Y0004726D02*
X0342539Y0005709D01*
X0311633Y0005710D02*
X0311633Y0057134D01*
X0338602Y0053248D02*
X0342539Y0053248D01*
X0312618Y0004726D02*
X0341556Y0004726D01*
X0311633Y0057134D02*
X0313057Y0058558D01*
X0313057Y0058558D02*
X0335649Y0058558D01*
X0342539Y0005709D02*
X0342539Y0053248D01*
X0335649Y0056201D02*
X0338602Y0053248D01*
X0311633Y0005710D02*
X0312618Y0004726D01*
D226*
X0305315Y0376606D02*
X0305315Y0380606D01*
X0299016Y0380606D02*
X0299016Y0376606D01*
X0305315Y0368606D02*
X0305315Y0372606D01*
X0299016Y0372606D02*
X0299016Y0368606D01*
D143*
X0299016Y0368406D02*
G75*
G03*
X0305321Y0368390I0003150J-001299D01*
G01*
X0305329Y0380841D02*
G75*
G03*
X0299016Y0380807I-003163J0001265D01*
G01*
D226*
X0174803Y0382378D02*
X0174803Y0378378D01*
X0174803Y0374378D02*
X0174803Y0370378D01*
X0181102Y0378378D02*
X0181102Y0382378D01*
X0181102Y0370378D02*
X0181102Y0374378D01*
D143*
X0181102Y0382579D02*
G75*
G03*
X0174797Y0382594I-003150J0001299D01*
G01*
X0174789Y0370143D02*
G75*
G03*
X0181102Y0370177I0003163J-001265D01*
G01*
D226*
X0297638Y0368606D02*
X0297638Y0372606D01*
X0291339Y0380606D02*
X0291339Y0376606D01*
X0291339Y0372606D02*
X0291339Y0368606D01*
X0297638Y0376606D02*
X0297638Y0380606D01*
D143*
X0297652Y0380841D02*
G75*
G03*
X0291339Y0380807I-003163J0001265D01*
G01*
X0291339Y0368406D02*
G75*
G03*
X0297644Y0368390I0003150J-001299D01*
G01*
D226*
X0092126Y0382378D02*
X0092126Y0378378D01*
X0098425Y0370378D02*
X0098425Y0374378D01*
X0098425Y0378378D02*
X0098425Y0382378D01*
X0092126Y0374378D02*
X0092126Y0370378D01*
D143*
X0092126Y0370177D02*
G75*
G03*
X0098432Y0370161I0003150J-001299D01*
G01*
X0098439Y0382613D02*
G75*
G03*
X0092126Y0382579I-003163J0001265D01*
G01*
X0255709Y0362795D02*
X0255709Y0381890D01*
X0247835Y0362795D02*
X0247835Y0381890D01*
X0247835Y0362598D02*
G75*
G03*
X0255709Y0362598I0003937J0000000D01*
G01*
X0255709Y0381890D02*
G75*
G03*
X0247835Y0381890I-003937J0000000D01*
G01*
D56*
X0356004Y0275904D02*
X0244469Y0275904D01*
X0242815Y0218916D02*
X0240846Y0220885D01*
X0362106Y0269802D02*
X0362106Y0220491D01*
X0360531Y0218916D02*
X0242815Y0218916D01*
X0362106Y0269802D02*
X0356004Y0275904D01*
X0362106Y0220491D02*
X0360531Y0218916D01*
X0240846Y0272263D02*
X0240846Y0220885D01*
X0244488Y0275904D02*
X0240846Y0272263D01*
D226*
X0189567Y0419323D02*
X0189567Y0423323D01*
X0183268Y0423323D02*
X0183268Y0419323D01*
X0183268Y0415323D02*
X0183268Y0411323D01*
X0189567Y0411323D02*
X0189567Y0415323D01*
D143*
X0183268Y0411122D02*
G75*
G03*
X0189573Y0411106I0003150J-001299D01*
G01*
X0189581Y0423557D02*
G75*
G03*
X0183268Y0423524I-003163J0001265D01*
G01*
D226*
X0359252Y0380409D02*
X0359252Y0376409D01*
X0365551Y0376409D02*
X0365551Y0380409D01*
X0365551Y0368409D02*
X0365551Y0372409D01*
X0359252Y0372409D02*
X0359252Y0368409D01*
D143*
X0359252Y0368209D02*
G75*
G03*
X0365558Y0368193I0003150J-001299D01*
G01*
X0365565Y0380644D02*
G75*
G03*
X0359252Y0380610I-003163J0001265D01*
G01*
D226*
X0173228Y0378378D02*
X0173228Y0382378D01*
X0173228Y0370378D02*
X0173228Y0374378D01*
X0166929Y0382378D02*
X0166929Y0378378D01*
X0166929Y0374378D02*
X0166929Y0370378D01*
D143*
X0166929Y0370177D02*
G75*
G03*
X0173235Y0370161I0003150J-001299D01*
G01*
X0173242Y0382613D02*
G75*
G03*
X0166929Y0382579I-003163J0001265D01*
G01*
D226*
X0016732Y0377853D02*
X0016732Y0381853D01*
X0010433Y0373853D02*
X0010433Y0369853D01*
X0010433Y0381853D02*
X0010433Y0377853D01*
X0016732Y0369853D02*
X0016732Y0373853D01*
D143*
X0010433Y0369652D02*
G75*
G03*
X0016739Y0369637I0003150J-001299D01*
G01*
X0016746Y0382088D02*
G75*
G03*
X0010433Y0382054I-003163J0001265D01*
G01*
D226*
X0271063Y0376213D02*
X0271063Y0380213D01*
X0264764Y0372213D02*
X0264764Y0368213D01*
X0264764Y0380213D02*
X0264764Y0376213D01*
X0271063Y0368213D02*
X0271063Y0372213D01*
D143*
X0271077Y0380447D02*
G75*
G03*
X0264764Y0380413I-003163J0001265D01*
G01*
X0264764Y0368012D02*
G75*
G03*
X0271069Y0367996I0003150J-001299D01*
G01*
D226*
X0084252Y0382378D02*
X0084252Y0378378D01*
X0084252Y0374378D02*
X0084252Y0370378D01*
X0090551Y0378378D02*
X0090551Y0382378D01*
X0090551Y0370378D02*
X0090551Y0374378D01*
D143*
X0084252Y0370177D02*
G75*
G03*
X0090558Y0370161I0003150J-001299D01*
G01*
X0090565Y0382613D02*
G75*
G03*
X0084252Y0382579I-003163J0001265D01*
G01*
D226*
X0281693Y0372409D02*
X0281693Y0368409D01*
X0281693Y0380409D02*
X0281693Y0376409D01*
X0287992Y0376409D02*
X0287992Y0380409D01*
X0287992Y0368409D02*
X0287992Y0372409D01*
D143*
X0281693Y0368209D02*
G75*
G03*
X0287999Y0368193I0003150J-001299D01*
G01*
X0288006Y0380644D02*
G75*
G03*
X0281693Y0380610I-003163J0001265D01*
G01*
D226*
X0050197Y0377984D02*
X0050197Y0381984D01*
X0043898Y0381984D02*
X0043898Y0377984D01*
X0043898Y0373984D02*
X0043898Y0369984D01*
X0050197Y0369984D02*
X0050197Y0373984D01*
D143*
X0050211Y0382219D02*
G75*
G03*
X0043898Y0382185I-003163J0001265D01*
G01*
X0043898Y0369783D02*
G75*
G03*
X0050203Y0369768I0003150J-001299D01*
G01*
D56*
X0189665Y0028371D02*
X0189665Y0001234D01*
X0233661Y0001387D02*
X0189665Y0001234D01*
X0232579Y0028150D02*
X0232579Y0024902D01*
X0233661Y0023819D02*
X0232579Y0024902D01*
X0233661Y0023819D02*
X0233661Y0001387D01*
X0232579Y0028150D02*
X0232357Y0028346D01*
X0232357Y0028346D02*
X0189665Y0028346D01*
X0169441Y0073756D02*
X0169441Y0109484D01*
X0144933Y0066571D02*
X0147885Y0069524D01*
X0165208Y0069524D02*
X0169441Y0073756D01*
X0144441Y0045803D02*
X0144933Y0046295D01*
X0144933Y0046295D02*
X0144933Y0066571D01*
X0108318Y0045803D02*
X0108318Y0109484D01*
X0144441Y0045803D02*
X0108318Y0045803D01*
X0169441Y0109484D02*
X0108318Y0109484D01*
X0165208Y0069524D02*
X0147885Y0069524D01*
X0164370Y0114370D02*
X0098425Y0114370D01*
X0098425Y0114370D02*
X0098425Y0185433D01*
X0098425Y0185433D02*
X0164370Y0185433D01*
X0164370Y0185433D02*
X0164370Y0114370D01*
D226*
X0263386Y0368213D02*
X0263386Y0372213D01*
X0257087Y0380213D02*
X0257087Y0376213D01*
X0263386Y0376213D02*
X0263386Y0380213D01*
X0257087Y0372213D02*
X0257087Y0368213D01*
D143*
X0263400Y0380447D02*
G75*
G03*
X0257087Y0380413I-003163J0001265D01*
G01*
X0257087Y0368012D02*
G75*
G03*
X0263392Y0367996I0003150J-001299D01*
G01*
D226*
X0109055Y0373197D02*
X0109055Y0369197D01*
X0109055Y0381197D02*
X0109055Y0377197D01*
X0115354Y0377197D02*
X0115354Y0381197D01*
X0115354Y0369197D02*
X0115354Y0373197D01*
D143*
X0109055Y0368996D02*
G75*
G03*
X0115361Y0368980I0003150J-001299D01*
G01*
X0115368Y0381432D02*
G75*
G03*
X0109055Y0381398I-003163J0001265D01*
G01*
D226*
X0035630Y0373984D02*
X0035630Y0369984D01*
X0041929Y0377984D02*
X0041929Y0381984D01*
X0035630Y0381984D02*
X0035630Y0377984D01*
X0041929Y0369984D02*
X0041929Y0373984D01*
D143*
X0035630Y0369783D02*
G75*
G03*
X0041936Y0369768I0003150J-001299D01*
G01*
X0041943Y0382219D02*
G75*
G03*
X0035630Y0382185I-003163J0001265D01*
G01*
X0125591Y0364370D02*
X0125591Y0383464D01*
X0133465Y0364370D02*
X0133465Y0383464D01*
X0125591Y0364173D02*
G75*
G03*
X0133465Y0364173I0003937J0000000D01*
G01*
X0133465Y0383464D02*
G75*
G03*
X0125591Y0383464I-003937J0000000D01*
G01*
D226*
X0002155Y0381853D02*
X0002155Y0377853D01*
X0008454Y0369853D02*
X0008454Y0373853D01*
X0002155Y0373853D02*
X0002155Y0369853D01*
X0008454Y0377853D02*
X0008454Y0381853D01*
D143*
X0002155Y0369652D02*
G75*
G03*
X0008461Y0369637I0003150J-001299D01*
G01*
X0008468Y0382088D02*
G75*
G03*
X0002155Y0382054I-003163J0001265D01*
G01*
D226*
X0051969Y0382181D02*
X0051969Y0378181D01*
X0058268Y0370181D02*
X0058268Y0374181D01*
X0051969Y0374181D02*
X0051969Y0370181D01*
X0058268Y0378181D02*
X0058268Y0382181D01*
D143*
X0058281Y0382416D02*
G75*
G03*
X0051969Y0382382I-003163J0001265D01*
G01*
X0051969Y0369980D02*
G75*
G03*
X0058274Y0369965I0003150J-001299D01*
G01*
D226*
X0209252Y0372213D02*
X0209252Y0368213D01*
X0215551Y0376213D02*
X0215551Y0380213D01*
X0215551Y0368213D02*
X0215551Y0372213D01*
X0209252Y0380213D02*
X0209252Y0376213D01*
D143*
X0209252Y0368012D02*
G75*
G03*
X0215558Y0367996I0003150J-001299D01*
G01*
X0215565Y0380447D02*
G75*
G03*
X0209252Y0380413I-003163J0001265D01*
G01*
D226*
X0100197Y0374181D02*
X0100197Y0370181D01*
X0106496Y0378181D02*
X0106496Y0382181D01*
X0106496Y0370181D02*
X0106496Y0374181D01*
X0100197Y0382181D02*
X0100197Y0378181D01*
D143*
X0100197Y0369980D02*
G75*
G03*
X0106503Y0369965I0003150J-001299D01*
G01*
X0106510Y0382416D02*
G75*
G03*
X0100197Y0382382I-003163J0001265D01*
G01*
X0315732Y0362776D02*
X0315732Y0381870D01*
X0323606Y0362776D02*
X0323606Y0381870D01*
X0315732Y0362579D02*
G75*
G03*
X0323606Y0362579I0003937J0000000D01*
G01*
X0323606Y0381870D02*
G75*
G03*
X0315732Y0381870I-003937J0000000D01*
G01*
D226*
X0356693Y0368213D02*
X0356693Y0372213D01*
X0350394Y0372213D02*
X0350394Y0368213D01*
X0356693Y0376213D02*
X0356693Y0380213D01*
X0350394Y0380213D02*
X0350394Y0376213D01*
D143*
X0356693Y0380413D02*
G75*
G03*
X0350387Y0380429I-003150J0001299D01*
G01*
X0350380Y0367978D02*
G75*
G03*
X0356693Y0368012I0003163J-001265D01*
G01*
D226*
X0066339Y0378181D02*
X0066339Y0382181D01*
X0066339Y0370181D02*
X0066339Y0374181D01*
X0060039Y0382181D02*
X0060039Y0378181D01*
X0060039Y0374181D02*
X0060039Y0370181D01*
D143*
X0060039Y0369980D02*
G75*
G03*
X0066345Y0369965I0003150J-001299D01*
G01*
X0066352Y0382416D02*
G75*
G03*
X0060039Y0382382I-003163J0001265D01*
G01*
X0272047Y0362795D02*
X0272047Y0381890D01*
X0279921Y0362795D02*
X0279921Y0381890D01*
X0272047Y0362598D02*
G75*
G03*
X0279921Y0362598I0003937J0000000D01*
G01*
X0279921Y0381890D02*
G75*
G03*
X0272047Y0381890I-003937J0000000D01*
G01*
D226*
X0018898Y0373787D02*
X0018898Y0369787D01*
X0025197Y0369787D02*
X0025197Y0373787D01*
X0025197Y0377787D02*
X0025197Y0381787D01*
X0018898Y0381787D02*
X0018898Y0377787D01*
D143*
X0018898Y0369587D02*
G75*
G03*
X0025203Y0369571I0003150J-001299D01*
G01*
X0025211Y0382022D02*
G75*
G03*
X0018898Y0381988I-003163J0001265D01*
G01*
D226*
X0124016Y0377394D02*
X0124016Y0381394D01*
X0124016Y0369394D02*
X0124016Y0373394D01*
X0117717Y0381394D02*
X0117717Y0377394D01*
X0117717Y0373394D02*
X0117717Y0369394D01*
D143*
X0124030Y0381628D02*
G75*
G03*
X0117717Y0381594I-003163J0001265D01*
G01*
X0117717Y0369193D02*
G75*
G03*
X0124022Y0369177I0003150J-001299D01*
G01*
D226*
X0074213Y0378181D02*
X0074213Y0382181D01*
X0067913Y0382181D02*
X0067913Y0378181D01*
X0074213Y0370181D02*
X0074213Y0374181D01*
X0067913Y0374181D02*
X0067913Y0370181D01*
D143*
X0067913Y0369980D02*
G75*
G03*
X0074219Y0369965I0003150J-001299D01*
G01*
X0074226Y0382416D02*
G75*
G03*
X0067913Y0382382I-003163J0001265D01*
G01*
D226*
X0082677Y0378378D02*
X0082677Y0382378D01*
X0082677Y0370378D02*
X0082677Y0374378D01*
X0076378Y0374378D02*
X0076378Y0370378D01*
X0076378Y0382378D02*
X0076378Y0378378D01*
D143*
X0076378Y0370177D02*
G75*
G03*
X0082684Y0370161I0003150J-001299D01*
G01*
X0082691Y0382613D02*
G75*
G03*
X0076378Y0382579I-003163J0001265D01*
G01*
X0159843Y0363976D02*
X0159843Y0383071D01*
X0151969Y0363976D02*
X0151969Y0383071D01*
X0159843Y0383071D02*
G75*
G03*
X0151969Y0383071I-003937J0000000D01*
G01*
X0151969Y0363779D02*
G75*
G03*
X0159843Y0363779I0003937J0000000D01*
G01*
D226*
X0150591Y0369984D02*
X0150591Y0373984D01*
X0144291Y0381984D02*
X0144291Y0377984D01*
X0144291Y0373984D02*
X0144291Y0369984D01*
X0150591Y0377984D02*
X0150591Y0381984D01*
D143*
X0144291Y0369783D02*
G75*
G03*
X0150597Y0369768I0003150J-001299D01*
G01*
X0150604Y0382219D02*
G75*
G03*
X0144291Y0382185I-003163J0001265D01*
G01*
D226*
X0183465Y0382378D02*
X0183465Y0378378D01*
X0189764Y0378378D02*
X0189764Y0382378D01*
X0189764Y0370378D02*
X0189764Y0374378D01*
X0183465Y0374378D02*
X0183465Y0370378D01*
D143*
X0189778Y0382613D02*
G75*
G03*
X0183465Y0382579I-003163J0001265D01*
G01*
X0183465Y0370177D02*
G75*
G03*
X0189770Y0370161I0003150J-001299D01*
G01*
D56*
X0363065Y0212215D02*
X0184275Y0212215D01*
X0363385Y0065959D02*
X0192569Y0065959D01*
X0182926Y0069598D02*
X0182926Y0210867D01*
X0183809Y0068715D02*
X0182926Y0069598D01*
X0192569Y0065959D02*
X0189813Y0068715D01*
X0189813Y0068715D02*
X0183809Y0068715D01*
X0184275Y0212215D02*
X0182926Y0210867D01*
X0365305Y0067879D02*
X0363385Y0065959D01*
X0365305Y0067879D02*
X0365305Y0209975D01*
X0365305Y0209975D02*
X0363065Y0212215D01*
D226*
X0331819Y0376390D02*
X0331819Y0380390D01*
X0325520Y0372390D02*
X0325520Y0368390D01*
X0325520Y0380390D02*
X0325520Y0376390D01*
X0331819Y0368390D02*
X0331819Y0372390D01*
D143*
X0325520Y0368189D02*
G75*
G03*
X0331825Y0368173I0003150J-001299D01*
G01*
X0331833Y0380624D02*
G75*
G03*
X0325520Y0380591I-003163J0001265D01*
G01*
D226*
X0033465Y0377787D02*
X0033465Y0381787D01*
X0027165Y0373787D02*
X0027165Y0369787D01*
X0027165Y0381787D02*
X0027165Y0377787D01*
X0033465Y0369787D02*
X0033465Y0373787D01*
D143*
X0027165Y0369587D02*
G75*
G03*
X0033471Y0369571I0003150J-001299D01*
G01*
X0033478Y0382022D02*
G75*
G03*
X0027165Y0381988I-003163J0001265D01*
G01*
D226*
X0197638Y0378378D02*
X0197638Y0382378D01*
X0197638Y0370378D02*
X0197638Y0374378D01*
X0191339Y0374378D02*
X0191339Y0370378D01*
X0191339Y0382378D02*
X0191339Y0378378D01*
D143*
X0191339Y0370177D02*
G75*
G03*
X0197644Y0370161I0003150J-001299D01*
G01*
X0197652Y0382613D02*
G75*
G03*
X0191339Y0382579I-003163J0001265D01*
G01*
D56*
X0097047Y0212598D02*
X0031102Y0212598D01*
X0031102Y0212598D02*
X0031102Y0283661D01*
X0031102Y0283661D02*
X0097047Y0283661D01*
X0097047Y0283661D02*
X0097047Y0212598D01*
D143*
X0135236Y0364173D02*
X0135236Y0383268D01*
X0143110Y0364173D02*
X0143110Y0383268D01*
X0143110Y0383268D02*
G75*
G03*
X0135236Y0383268I-003937J0000000D01*
G01*
X0135236Y0363976D02*
G75*
G03*
X0143110Y0363976I0003937J0000000D01*
G01*
D226*
X0333520Y0380390D02*
X0333520Y0376390D01*
X0333520Y0372390D02*
X0333520Y0368390D01*
X0339819Y0368390D02*
X0339819Y0372390D01*
X0339819Y0376390D02*
X0339819Y0380390D01*
D143*
X0339833Y0380624D02*
G75*
G03*
X0333520Y0380591I-003163J0001265D01*
G01*
X0333520Y0368189D02*
G75*
G03*
X0339825Y0368173I0003150J-001299D01*
G01*
D226*
X0368504Y0380606D02*
X0368504Y0376606D01*
X0374803Y0376606D02*
X0374803Y0380606D01*
X0374803Y0368606D02*
X0374803Y0372606D01*
X0368504Y0372606D02*
X0368504Y0368606D01*
D143*
X0368504Y0368406D02*
G75*
G03*
X0374810Y0368390I0003150J-001299D01*
G01*
X0374817Y0380841D02*
G75*
G03*
X0368504Y0380807I-003163J0001265D01*
G01*
D226*
X0341520Y0380579D02*
X0341520Y0376579D01*
X0347819Y0376579D02*
X0347819Y0380579D01*
X0347819Y0368579D02*
X0347819Y0372579D01*
X0341520Y0372579D02*
X0341520Y0368579D01*
D143*
X0341520Y0368378D02*
G75*
G03*
X0347825Y0368362I0003150J-001299D01*
G01*
X0347833Y0380813D02*
G75*
G03*
X0341520Y0380780I-003163J0001265D01*
G01*
X0225591Y0362402D02*
X0225591Y0381496D01*
X0217717Y0362402D02*
X0217717Y0381496D01*
X0225591Y0381496D02*
G75*
G03*
X0217717Y0381496I-003937J0000000D01*
G01*
X0217717Y0362205D02*
G75*
G03*
X0225591Y0362205I0003937J0000000D01*
G01*
D56*
X0159055Y0061220D02*
X0156693Y0058858D01*
X0154626Y0058858D02*
X0152067Y0056299D01*
X0307283Y0061220D02*
X0307283Y0032678D01*
X0156693Y0058858D02*
X0154626Y0058858D01*
X0307283Y0032678D02*
X0152067Y0032971D01*
X0307283Y0061220D02*
X0159055Y0061220D01*
X0152067Y0056299D02*
X0152067Y0032971D01*
X0186122Y0038681D02*
X0175787Y0038681D01*
D226*
X0193110Y0423126D02*
X0193110Y0419126D01*
X0199409Y0411126D02*
X0199409Y0415126D01*
X0193110Y0415126D02*
X0193110Y0411126D01*
X0199409Y0419126D02*
X0199409Y0423126D01*
D143*
X0193110Y0410925D02*
G75*
G03*
X0199416Y0410909I0003150J-001299D01*
G01*
X0199423Y0423361D02*
G75*
G03*
X0193110Y0423327I-003163J0001265D01*
G01*
D226*
X0246654Y0374441D02*
X0246654Y0378441D01*
X0240354Y0378441D02*
X0240354Y0374441D01*
X0246654Y0366441D02*
X0246654Y0370441D01*
X0240354Y0370441D02*
X0240354Y0366441D01*
D143*
X0246667Y0378676D02*
G75*
G03*
X0240354Y0378642I-003163J0001265D01*
G01*
X0240354Y0366240D02*
G75*
G03*
X0246660Y0366224I0003150J-001299D01*
G01*
X0226969Y0362579D02*
X0226969Y0381673D01*
X0234843Y0362579D02*
X0234843Y0381673D01*
X0226969Y0362382D02*
G75*
G03*
X0234843Y0362382I0003937J0000000D01*
G01*
X0234843Y0381673D02*
G75*
G03*
X0226969Y0381673I-003937J0000000D01*
G01*
X0314173Y0362972D02*
X0314173Y0382067D01*
X0306299Y0362972D02*
X0306299Y0382067D01*
X0314173Y0382067D02*
G75*
G03*
X0306299Y0382067I-003937J0000000D01*
G01*
X0306299Y0362776D02*
G75*
G03*
X0314173Y0362776I0003937J0000000D01*
G01*
D50*
X0019080Y0137413D02*
X0016340Y0137403D01*
X0016340Y0137403D02*
X0013620Y0136793D01*
X0013620Y0136793D02*
X0011050Y0135613D01*
X0011050Y0135613D02*
X0008780Y0133923D01*
X0008780Y0133923D02*
X0008160Y0133323D01*
X0008160Y0133323D02*
X0006520Y0131303D01*
X0006520Y0131303D02*
X0005430Y0129233D01*
X0005430Y0129233D02*
X0004820Y0126923D01*
X0004820Y0126923D02*
X0004630Y0124713D01*
X0004630Y0124713D02*
X0004650Y0122373D01*
X0004650Y0122373D02*
X0004920Y0120563D01*
X0004920Y0120563D02*
X0005060Y0120053D01*
X0005060Y0120053D02*
X0006250Y0117383D01*
X0006250Y0117383D02*
X0008000Y0115073D01*
X0008000Y0115073D02*
X0010310Y0113113D01*
X0010310Y0113113D02*
X0012220Y0111973D01*
X0012220Y0111973D02*
X0013080Y0111553D01*
X0013080Y0111553D02*
X0013860Y0111283D01*
X0013860Y0111283D02*
X0014730Y0111133D01*
X0014730Y0111133D02*
X0015870Y0111063D01*
X0015870Y0111063D02*
X0017480Y0111043D01*
X0017480Y0111043D02*
X0017690Y0111043D01*
X0017690Y0111043D02*
X0019360Y0111063D01*
X0019360Y0111063D02*
X0020560Y0111123D01*
X0020560Y0111123D02*
X0021470Y0111273D01*
X0021470Y0111273D02*
X0022290Y0111533D01*
X0022290Y0111533D02*
X0023200Y0111943D01*
X0023200Y0111943D02*
X0023300Y0112003D01*
X0023300Y0112003D02*
X0025380Y0113313D01*
X0025380Y0113313D02*
X0027340Y0115093D01*
X0027340Y0115093D02*
X0028960Y0117133D01*
X0028960Y0117133D02*
X0029700Y0118403D01*
X0029700Y0118403D02*
X0030130Y0119343D01*
X0030130Y0119343D02*
X0030420Y0120153D01*
X0030420Y0120153D02*
X0030580Y0121043D01*
X0030580Y0121043D02*
X0030660Y0122183D01*
X0030660Y0122183D02*
X0030680Y0123783D01*
X0030680Y0123783D02*
X0030680Y0124053D01*
X0030680Y0124053D02*
X0030670Y0125703D01*
X0030670Y0125703D02*
X0030610Y0126893D01*
X0030610Y0126893D02*
X0030470Y0127793D01*
X0030470Y0127793D02*
X0030210Y0128613D01*
X0030210Y0128613D02*
X0029790Y0129543D01*
X0029790Y0129543D02*
X0029620Y0129883D01*
X0029620Y0129883D02*
X0028290Y0131993D01*
X0028290Y0131993D02*
X0026530Y0133973D01*
X0026530Y0133973D02*
X0024540Y0135583D01*
X0024540Y0135583D02*
X0024100Y0135853D01*
X0024100Y0135853D02*
X0022850Y0136603D01*
X0022850Y0136603D02*
X0022850Y0134603D01*
X0022850Y0134603D02*
X0022800Y0133373D01*
X0022800Y0133373D02*
X0022620Y0132673D01*
X0022620Y0132673D02*
X0022360Y0132423D01*
X0022360Y0132423D02*
X0021930Y0132483D01*
X0021930Y0132483D02*
X0021860Y0132763D01*
X0021860Y0132763D02*
X0021690Y0133123D01*
X0021690Y0133123D02*
X0021090Y0133133D01*
X0021090Y0133133D02*
X0020940Y0133103D01*
X0020940Y0133103D02*
X0020220Y0132963D01*
X0020220Y0132963D02*
X0019040Y0132753D01*
X0019040Y0132753D02*
X0017590Y0132483D01*
X0017590Y0132483D02*
X0016720Y0132333D01*
X0016720Y0132333D02*
X0015140Y0132023D01*
X0015140Y0132023D02*
X0014110Y0131753D01*
X0014110Y0131753D02*
X0013520Y0131483D01*
X0013520Y0131483D02*
X0013280Y0131183D01*
X0013280Y0131183D02*
X0013270Y0131143D01*
X0013270Y0131143D02*
X0013250Y0131093D01*
X0013250Y0131093D02*
X0022850Y0131093D01*
X0022850Y0131093D02*
X0022850Y0127323D01*
X0022850Y0127323D02*
X0022840Y0125653D01*
X0022840Y0125653D02*
X0022790Y0124543D01*
X0022790Y0124543D02*
X0022690Y0123893D01*
X0022690Y0123893D02*
X0022530Y0123603D01*
X0022530Y0123603D02*
X0022350Y0123543D01*
X0022350Y0123543D02*
X0021910Y0123813D01*
X0021910Y0123813D02*
X0021850Y0124043D01*
X0021850Y0124043D02*
X0021870Y0124273D01*
X0021870Y0124273D02*
X0021840Y0124423D01*
X0021840Y0124423D02*
X0021670Y0124483D01*
X0021670Y0124483D02*
X0021260Y0124453D01*
X0021260Y0124453D02*
X0020490Y0124313D01*
X0020490Y0124313D02*
X0019280Y0124073D01*
X0019280Y0124073D02*
X0017520Y0123713D01*
X0017520Y0123713D02*
X0015960Y0123393D01*
X0015960Y0123393D02*
X0014650Y0123133D01*
X0014650Y0123133D02*
X0013730Y0122953D01*
X0013730Y0122953D02*
X0013320Y0122883D01*
X0013320Y0122883D02*
X0013310Y0122883D01*
X0013310Y0122883D02*
X0013200Y0122603D01*
X0013200Y0122603D02*
X0013190Y0122383D01*
X0013190Y0122383D02*
X0013080Y0122093D01*
X0013080Y0122093D02*
X0022850Y0122093D01*
X0022850Y0122093D02*
X0022850Y0118323D01*
X0022850Y0118323D02*
X0022840Y0116653D01*
X0022840Y0116653D02*
X0022790Y0115543D01*
X0022790Y0115543D02*
X0022690Y0114893D01*
X0022690Y0114893D02*
X0022530Y0114603D01*
X0022530Y0114603D02*
X0022350Y0114543D01*
X0022350Y0114543D02*
X0021920Y0114813D01*
X0021920Y0114813D02*
X0021850Y0115063D01*
X0021850Y0115063D02*
X0021630Y0115443D01*
X0021630Y0115443D02*
X0021270Y0115423D01*
X0021270Y0115423D02*
X0020720Y0115293D01*
X0020720Y0115293D02*
X0019670Y0115063D01*
X0019670Y0115063D02*
X0018290Y0114783D01*
X0018290Y0114783D02*
X0016940Y0114513D01*
X0016940Y0114513D02*
X0015060Y0114113D01*
X0015060Y0114113D02*
X0013820Y0113753D01*
X0013820Y0113753D02*
X0013240Y0113453D01*
X0013240Y0113453D02*
X0013190Y0113353D01*
X0013190Y0113353D02*
X0012960Y0112803D01*
X0012960Y0112803D02*
X0012850Y0112713D01*
X0012850Y0112713D02*
X0012700Y0112933D01*
X0012700Y0112933D02*
X0012590Y0113783D01*
X0012590Y0113783D02*
X0012530Y0115243D01*
X0012530Y0115243D02*
X0012520Y0116523D01*
X0012520Y0116523D02*
X0012520Y0120543D01*
X0012520Y0120543D02*
X0013520Y0120543D01*
X0013520Y0120543D02*
X0014320Y0120393D01*
X0014320Y0120393D02*
X0014520Y0120043D01*
X0014520Y0120043D02*
X0014270Y0119603D01*
X0014270Y0119603D02*
X0014050Y0119543D01*
X0014050Y0119543D02*
X0013780Y0119253D01*
X0013780Y0119253D02*
X0013510Y0118523D01*
X0013510Y0118523D02*
X0013300Y0117603D01*
X0013300Y0117603D02*
X0013190Y0116713D01*
X0013190Y0116713D02*
X0013240Y0116093D01*
X0013240Y0116093D02*
X0013310Y0115983D01*
X0013310Y0115983D02*
X0013710Y0115923D01*
X0013710Y0115923D02*
X0014570Y0115953D01*
X0014570Y0115953D02*
X0015340Y0116033D01*
X0015340Y0116033D02*
X0017190Y0116263D01*
X0017190Y0116263D02*
X0017190Y0117573D01*
X0017190Y0117573D02*
X0017110Y0118393D01*
X0017110Y0118393D02*
X0016900Y0118853D01*
X0016900Y0118853D02*
X0016830Y0118883D01*
X0016830Y0118883D02*
X0016500Y0119013D01*
X0016500Y0119013D02*
X0016640Y0119313D01*
X0016640Y0119313D02*
X0017110Y0119663D01*
X0017110Y0119663D02*
X0017790Y0119913D01*
X0017790Y0119913D02*
X0017800Y0119913D01*
X0017800Y0119913D02*
X0018560Y0119983D01*
X0018560Y0119983D02*
X0018850Y0119763D01*
X0018850Y0119763D02*
X0018850Y0119673D01*
X0018850Y0119673D02*
X0018660Y0119253D01*
X0018660Y0119253D02*
X0018520Y0119213D01*
X0018520Y0119213D02*
X0018310Y0118913D01*
X0018310Y0118913D02*
X0018190Y0118183D01*
X0018190Y0118183D02*
X0018190Y0117933D01*
X0018190Y0117933D02*
X0018190Y0116663D01*
X0018190Y0116663D02*
X0020020Y0116993D01*
X0020020Y0116993D02*
X0021860Y0117323D01*
X0021860Y0117323D02*
X0021850Y0119303D01*
X0021850Y0119303D02*
X0021830Y0120413D01*
X0021830Y0120413D02*
X0021720Y0120983D01*
X0021720Y0120983D02*
X0021490Y0121123D01*
X0021490Y0121123D02*
X0021350Y0121093D01*
X0021350Y0121093D02*
X0020920Y0121133D01*
X0020920Y0121133D02*
X0020850Y0121353D01*
X0020850Y0121353D02*
X0021150Y0121713D01*
X0021150Y0121713D02*
X0021840Y0121943D01*
X0021840Y0121943D02*
X0021850Y0121953D01*
X0021850Y0121953D02*
X0022850Y0122093D01*
X0022850Y0122093D02*
X0013080Y0122093D01*
X0013080Y0122093D02*
X0013010Y0121933D01*
X0013010Y0121933D02*
X0012850Y0121883D01*
X0012850Y0121883D02*
X0012680Y0122183D01*
X0012680Y0122183D02*
X0012560Y0122973D01*
X0012560Y0122973D02*
X0012520Y0123883D01*
X0012520Y0123883D02*
X0012570Y0124943D01*
X0012570Y0124943D02*
X0012700Y0125663D01*
X0012700Y0125663D02*
X0012850Y0125883D01*
X0012850Y0125883D02*
X0013140Y0125603D01*
X0013140Y0125603D02*
X0013190Y0125343D01*
X0013190Y0125343D02*
X0013290Y0125023D01*
X0013290Y0125023D02*
X0013710Y0124923D01*
X0013710Y0124923D02*
X0014600Y0125013D01*
X0014600Y0125013D02*
X0014730Y0125033D01*
X0014730Y0125033D02*
X0015760Y0125213D01*
X0015760Y0125213D02*
X0016540Y0125383D01*
X0016540Y0125383D02*
X0016730Y0125443D01*
X0016730Y0125443D02*
X0017010Y0125823D01*
X0017010Y0125823D02*
X0017170Y0126513D01*
X0017170Y0126513D02*
X0017170Y0127263D01*
X0017170Y0127263D02*
X0017020Y0127783D01*
X0017020Y0127783D02*
X0016850Y0127883D01*
X0016850Y0127883D02*
X0016500Y0128043D01*
X0016500Y0128043D02*
X0016570Y0128413D01*
X0016570Y0128413D02*
X0016980Y0128803D01*
X0016980Y0128803D02*
X0017440Y0128973D01*
X0017440Y0128973D02*
X0018280Y0129053D01*
X0018280Y0129053D02*
X0018520Y0128853D01*
X0018520Y0128853D02*
X0018250Y0128473D01*
X0018250Y0128473D02*
X0017980Y0127883D01*
X0017980Y0127883D02*
X0017860Y0127003D01*
X0017860Y0127003D02*
X0017850Y0126933D01*
X0017850Y0126933D02*
X0017850Y0125793D01*
X0017850Y0125793D02*
X0019590Y0126023D01*
X0019590Y0126023D02*
X0020620Y0126183D01*
X0020620Y0126183D02*
X0021370Y0126343D01*
X0021370Y0126343D02*
X0021590Y0126413D01*
X0021590Y0126413D02*
X0021730Y0126813D01*
X0021730Y0126813D02*
X0021830Y0127673D01*
X0021830Y0127673D02*
X0021850Y0128433D01*
X0021850Y0128433D02*
X0021820Y0129493D01*
X0021820Y0129493D02*
X0021700Y0130013D01*
X0021700Y0130013D02*
X0021460Y0130123D01*
X0021460Y0130123D02*
X0021360Y0130093D01*
X0021360Y0130093D02*
X0020920Y0130133D01*
X0020920Y0130133D02*
X0020850Y0130353D01*
X0020850Y0130353D02*
X0021150Y0130713D01*
X0021150Y0130713D02*
X0021840Y0130943D01*
X0021840Y0130943D02*
X0021850Y0130953D01*
X0021850Y0130953D02*
X0022850Y0131093D01*
X0022850Y0131093D02*
X0013250Y0131093D01*
X0013250Y0131093D02*
X0013030Y0130573D01*
X0013030Y0130573D02*
X0012800Y0130603D01*
X0012800Y0130603D02*
X0012620Y0131153D01*
X0012620Y0131153D02*
X0012530Y0132163D01*
X0012530Y0132163D02*
X0012520Y0132543D01*
X0012520Y0132543D02*
X0012570Y0133613D01*
X0012570Y0133613D02*
X0012700Y0134333D01*
X0012700Y0134333D02*
X0012850Y0134543D01*
X0012850Y0134543D02*
X0013150Y0134273D01*
X0013150Y0134273D02*
X0013190Y0134043D01*
X0013190Y0134043D02*
X0013210Y0133803D01*
X0013210Y0133803D02*
X0013330Y0133653D01*
X0013330Y0133653D02*
X0013650Y0133613D01*
X0013650Y0133613D02*
X0014280Y0133673D01*
X0014280Y0133673D02*
X0015310Y0133843D01*
X0015310Y0133843D02*
X0016840Y0134143D01*
X0016840Y0134143D02*
X0017840Y0134343D01*
X0017840Y0134343D02*
X0019740Y0134753D01*
X0019740Y0134753D02*
X0021040Y0135133D01*
X0021040Y0135133D02*
X0021710Y0135453D01*
X0021710Y0135453D02*
X0021800Y0135573D01*
X0021800Y0135573D02*
X0022170Y0136153D01*
X0022170Y0136153D02*
X0022310Y0136273D01*
X0022310Y0136273D02*
X0022340Y0136523D01*
X0022340Y0136523D02*
X0021820Y0136813D01*
X0021820Y0136813D02*
X0020870Y0137103D01*
X0020870Y0137103D02*
X0019620Y0137343D01*
X0019620Y0137343D02*
X0019080Y0137413D01*
X0019080Y0137413D02*
X0019080Y0137413D01*
G36*
X0019620Y0137343D02*
G01*
X0020870Y0137103D01*
X0021820Y0136813D01*
X0022340Y0136523D01*
X0022310Y0136273D01*
X0022170Y0136153D01*
X0021800Y0135573D01*
X0021710Y0135453D01*
X0021040Y0135133D01*
X0019740Y0134753D01*
X0017840Y0134343D01*
X0016840Y0134143D01*
X0015310Y0133843D01*
X0014280Y0133673D01*
X0013650Y0133613D01*
X0013330Y0133653D01*
X0013210Y0133803D01*
X0013190Y0134043D01*
X0013150Y0134273D01*
X0012850Y0134543D01*
X0012700Y0134333D01*
X0012570Y0133613D01*
X0012520Y0132543D01*
X0012530Y0132163D01*
X0012620Y0131153D01*
X0012800Y0130603D01*
X0013030Y0130573D01*
X0013250Y0131093D01*
X0013270Y0131143D01*
X0013280Y0131183D01*
X0013520Y0131483D01*
X0014110Y0131753D01*
X0015140Y0132023D01*
X0016720Y0132333D01*
X0017590Y0132483D01*
X0019040Y0132753D01*
X0020220Y0132963D01*
X0020940Y0133103D01*
X0021090Y0133133D01*
X0021690Y0133123D01*
X0021860Y0132763D01*
X0021930Y0132483D01*
X0022360Y0132423D01*
X0022620Y0132673D01*
X0022800Y0133373D01*
X0022850Y0134603D01*
X0022850Y0136603D01*
X0024100Y0135853D01*
X0024540Y0135583D01*
X0026530Y0133973D01*
X0028290Y0131993D01*
X0029620Y0129883D01*
X0029790Y0129543D01*
X0030210Y0128613D01*
X0030470Y0127793D01*
X0030610Y0126893D01*
X0030670Y0125703D01*
X0030680Y0124053D01*
X0030680Y0123783D01*
X0030660Y0122183D01*
X0030580Y0121043D01*
X0030420Y0120153D01*
X0030130Y0119343D01*
X0029700Y0118403D01*
X0028960Y0117133D01*
X0027340Y0115093D01*
X0025380Y0113313D01*
X0023300Y0112003D01*
X0023200Y0111943D01*
X0022290Y0111533D01*
X0021470Y0111273D01*
X0020560Y0111123D01*
X0019360Y0111063D01*
X0017690Y0111043D01*
X0017480Y0111043D01*
X0015870Y0111063D01*
X0014730Y0111133D01*
X0013860Y0111283D01*
X0013080Y0111553D01*
X0012220Y0111973D01*
X0010310Y0113113D01*
X0008000Y0115073D01*
X0006901Y0116523D01*
X0012520Y0116523D01*
X0012530Y0115243D01*
X0012590Y0113783D01*
X0012700Y0112933D01*
X0012850Y0112713D01*
X0012960Y0112803D01*
X0013190Y0113353D01*
X0013240Y0113453D01*
X0013820Y0113753D01*
X0015060Y0114113D01*
X0016940Y0114513D01*
X0018290Y0114783D01*
X0019670Y0115063D01*
X0020720Y0115293D01*
X0021270Y0115423D01*
X0021630Y0115443D01*
X0021850Y0115063D01*
X0021920Y0114813D01*
X0022350Y0114543D01*
X0022530Y0114603D01*
X0022690Y0114893D01*
X0022790Y0115543D01*
X0022840Y0116653D01*
X0022850Y0118323D01*
X0022850Y0122093D01*
X0021850Y0121953D01*
X0021840Y0121943D01*
X0021150Y0121713D01*
X0020850Y0121353D01*
X0020920Y0121133D01*
X0021350Y0121093D01*
X0021490Y0121123D01*
X0021720Y0120983D01*
X0021830Y0120413D01*
X0021850Y0119303D01*
X0021860Y0117323D01*
X0020020Y0116993D01*
X0018190Y0116663D01*
X0018190Y0118183D01*
X0018310Y0118913D01*
X0018520Y0119213D01*
X0018660Y0119253D01*
X0018850Y0119673D01*
X0018850Y0119763D01*
X0018560Y0119983D01*
X0017800Y0119913D01*
X0017790Y0119913D01*
X0017110Y0119663D01*
X0016640Y0119313D01*
X0016500Y0119013D01*
X0016830Y0118883D01*
X0016900Y0118853D01*
X0017110Y0118393D01*
X0017190Y0117573D01*
X0017190Y0116263D01*
X0015340Y0116033D01*
X0014570Y0115953D01*
X0013710Y0115923D01*
X0013310Y0115983D01*
X0013240Y0116093D01*
X0013190Y0116713D01*
X0013300Y0117603D01*
X0013510Y0118523D01*
X0013780Y0119253D01*
X0014050Y0119543D01*
X0014270Y0119603D01*
X0014520Y0120043D01*
X0014320Y0120393D01*
X0013520Y0120543D01*
X0012520Y0120543D01*
X0012520Y0116523D01*
X0006901Y0116523D01*
X0006250Y0117383D01*
X0005060Y0120053D01*
X0004920Y0120563D01*
X0004650Y0122373D01*
X0004637Y0123883D01*
X0012520Y0123883D01*
X0012560Y0122973D01*
X0012680Y0122183D01*
X0012850Y0121883D01*
X0013010Y0121933D01*
X0013080Y0122093D01*
X0013190Y0122383D01*
X0013200Y0122603D01*
X0013310Y0122883D01*
X0013320Y0122883D01*
X0013730Y0122953D01*
X0014650Y0123133D01*
X0015960Y0123393D01*
X0017520Y0123713D01*
X0019280Y0124073D01*
X0020490Y0124313D01*
X0021260Y0124453D01*
X0021670Y0124483D01*
X0021840Y0124423D01*
X0021870Y0124273D01*
X0021850Y0124043D01*
X0021910Y0123813D01*
X0022350Y0123543D01*
X0022530Y0123603D01*
X0022690Y0123893D01*
X0022790Y0124543D01*
X0022840Y0125653D01*
X0022850Y0127323D01*
X0022850Y0131093D01*
X0021850Y0130953D01*
X0021840Y0130943D01*
X0021150Y0130713D01*
X0020850Y0130353D01*
X0020920Y0130133D01*
X0021360Y0130093D01*
X0021460Y0130123D01*
X0021700Y0130013D01*
X0021820Y0129493D01*
X0021850Y0128433D01*
X0021830Y0127673D01*
X0021730Y0126813D01*
X0021590Y0126413D01*
X0021370Y0126343D01*
X0020620Y0126183D01*
X0019590Y0126023D01*
X0017850Y0125793D01*
X0017850Y0126933D01*
X0017860Y0127003D01*
X0017980Y0127883D01*
X0018250Y0128473D01*
X0018520Y0128853D01*
X0018280Y0129053D01*
X0017440Y0128973D01*
X0016980Y0128803D01*
X0016570Y0128413D01*
X0016500Y0128043D01*
X0016850Y0127883D01*
X0017020Y0127783D01*
X0017170Y0127263D01*
X0017170Y0126513D01*
X0017010Y0125823D01*
X0016730Y0125443D01*
X0016540Y0125383D01*
X0015760Y0125213D01*
X0014730Y0125033D01*
X0014600Y0125013D01*
X0013710Y0124923D01*
X0013290Y0125023D01*
X0013190Y0125343D01*
X0013140Y0125603D01*
X0012850Y0125883D01*
X0012700Y0125663D01*
X0012570Y0124943D01*
X0012520Y0123883D01*
X0004637Y0123883D01*
X0004630Y0124713D01*
X0004820Y0126923D01*
X0005430Y0129233D01*
X0006520Y0131303D01*
X0008160Y0133323D01*
X0008780Y0133923D01*
X0011050Y0135613D01*
X0013620Y0136793D01*
X0016340Y0137403D01*
X0019080Y0137413D01*
X0019620Y0137343D01*
G37*
X0019620Y0137343D02*
X0020870Y0137103D01*
X0021820Y0136813D01*
X0022340Y0136523D01*
X0022310Y0136273D01*
X0022170Y0136153D01*
X0021800Y0135573D01*
X0021710Y0135453D01*
X0021040Y0135133D01*
X0019740Y0134753D01*
X0017840Y0134343D01*
X0016840Y0134143D01*
X0015310Y0133843D01*
X0014280Y0133673D01*
X0013650Y0133613D01*
X0013330Y0133653D01*
X0013210Y0133803D01*
X0013190Y0134043D01*
X0013150Y0134273D01*
X0012850Y0134543D01*
X0012700Y0134333D01*
X0012570Y0133613D01*
X0012520Y0132543D01*
X0012530Y0132163D01*
X0012620Y0131153D01*
X0012800Y0130603D01*
X0013030Y0130573D01*
X0013250Y0131093D01*
X0013270Y0131143D01*
X0013280Y0131183D01*
X0013520Y0131483D01*
X0014110Y0131753D01*
X0015140Y0132023D01*
X0016720Y0132333D01*
X0017590Y0132483D01*
X0019040Y0132753D01*
X0020220Y0132963D01*
X0020940Y0133103D01*
X0021090Y0133133D01*
X0021690Y0133123D01*
X0021860Y0132763D01*
X0021930Y0132483D01*
X0022360Y0132423D01*
X0022620Y0132673D01*
X0022800Y0133373D01*
X0022850Y0134603D01*
X0022850Y0136603D01*
X0024100Y0135853D01*
X0024540Y0135583D01*
X0026530Y0133973D01*
X0028290Y0131993D01*
X0029620Y0129883D01*
X0029790Y0129543D01*
X0030210Y0128613D01*
X0030470Y0127793D01*
X0030610Y0126893D01*
X0030670Y0125703D01*
X0030680Y0124053D01*
X0030680Y0123783D01*
X0030660Y0122183D01*
X0030580Y0121043D01*
X0030420Y0120153D01*
X0030130Y0119343D01*
X0029700Y0118403D01*
X0028960Y0117133D01*
X0027340Y0115093D01*
X0025380Y0113313D01*
X0023300Y0112003D01*
X0023200Y0111943D01*
X0022290Y0111533D01*
X0021470Y0111273D01*
X0020560Y0111123D01*
X0019360Y0111063D01*
X0017690Y0111043D01*
X0017480Y0111043D01*
X0015870Y0111063D01*
X0014730Y0111133D01*
X0013860Y0111283D01*
X0013080Y0111553D01*
X0012220Y0111973D01*
X0010310Y0113113D01*
X0008000Y0115073D01*
X0006901Y0116523D01*
X0012520Y0116523D01*
X0012530Y0115243D01*
X0012590Y0113783D01*
X0012700Y0112933D01*
X0012850Y0112713D01*
X0012960Y0112803D01*
X0013190Y0113353D01*
X0013240Y0113453D01*
X0013820Y0113753D01*
X0015060Y0114113D01*
X0016940Y0114513D01*
X0018290Y0114783D01*
X0019670Y0115063D01*
X0020720Y0115293D01*
X0021270Y0115423D01*
X0021630Y0115443D01*
X0021850Y0115063D01*
X0021920Y0114813D01*
X0022350Y0114543D01*
X0022530Y0114603D01*
X0022690Y0114893D01*
X0022790Y0115543D01*
X0022840Y0116653D01*
X0022850Y0118323D01*
X0022850Y0122093D01*
X0021850Y0121953D01*
X0021840Y0121943D01*
X0021150Y0121713D01*
X0020850Y0121353D01*
X0020920Y0121133D01*
X0021350Y0121093D01*
X0021490Y0121123D01*
X0021720Y0120983D01*
X0021830Y0120413D01*
X0021850Y0119303D01*
X0021860Y0117323D01*
X0020020Y0116993D01*
X0018190Y0116663D01*
X0018190Y0118183D01*
X0018310Y0118913D01*
X0018520Y0119213D01*
X0018660Y0119253D01*
X0018850Y0119673D01*
X0018850Y0119763D01*
X0018560Y0119983D01*
X0017800Y0119913D01*
X0017790Y0119913D01*
X0017110Y0119663D01*
X0016640Y0119313D01*
X0016500Y0119013D01*
X0016830Y0118883D01*
X0016900Y0118853D01*
X0017110Y0118393D01*
X0017190Y0117573D01*
X0017190Y0116263D01*
X0015340Y0116033D01*
X0014570Y0115953D01*
X0013710Y0115923D01*
X0013310Y0115983D01*
X0013240Y0116093D01*
X0013190Y0116713D01*
X0013300Y0117603D01*
X0013510Y0118523D01*
X0013780Y0119253D01*
X0014050Y0119543D01*
X0014270Y0119603D01*
X0014520Y0120043D01*
X0014320Y0120393D01*
X0013520Y0120543D01*
X0012520Y0120543D01*
X0012520Y0116523D01*
X0006901Y0116523D01*
X0006250Y0117383D01*
X0005060Y0120053D01*
X0004920Y0120563D01*
X0004650Y0122373D01*
X0004637Y0123883D01*
X0012520Y0123883D01*
X0012560Y0122973D01*
X0012680Y0122183D01*
X0012850Y0121883D01*
X0013010Y0121933D01*
X0013080Y0122093D01*
X0013190Y0122383D01*
X0013200Y0122603D01*
X0013310Y0122883D01*
X0013320Y0122883D01*
X0013730Y0122953D01*
X0014650Y0123133D01*
X0015960Y0123393D01*
X0017520Y0123713D01*
X0019280Y0124073D01*
X0020490Y0124313D01*
X0021260Y0124453D01*
X0021670Y0124483D01*
X0021840Y0124423D01*
X0021870Y0124273D01*
X0021850Y0124043D01*
X0021910Y0123813D01*
X0022350Y0123543D01*
X0022530Y0123603D01*
X0022690Y0123893D01*
X0022790Y0124543D01*
X0022840Y0125653D01*
X0022850Y0127323D01*
X0022850Y0131093D01*
X0021850Y0130953D01*
X0021840Y0130943D01*
X0021150Y0130713D01*
X0020850Y0130353D01*
X0020920Y0130133D01*
X0021360Y0130093D01*
X0021460Y0130123D01*
X0021700Y0130013D01*
X0021820Y0129493D01*
X0021850Y0128433D01*
X0021830Y0127673D01*
X0021730Y0126813D01*
X0021590Y0126413D01*
X0021370Y0126343D01*
X0020620Y0126183D01*
X0019590Y0126023D01*
X0017850Y0125793D01*
X0017850Y0126933D01*
X0017860Y0127003D01*
X0017980Y0127883D01*
X0018250Y0128473D01*
X0018520Y0128853D01*
X0018280Y0129053D01*
X0017440Y0128973D01*
X0016980Y0128803D01*
X0016570Y0128413D01*
X0016500Y0128043D01*
X0016850Y0127883D01*
X0017020Y0127783D01*
X0017170Y0127263D01*
X0017170Y0126513D01*
X0017010Y0125823D01*
X0016730Y0125443D01*
X0016540Y0125383D01*
X0015760Y0125213D01*
X0014730Y0125033D01*
X0014600Y0125013D01*
X0013710Y0124923D01*
X0013290Y0125023D01*
X0013190Y0125343D01*
X0013140Y0125603D01*
X0012850Y0125883D01*
X0012700Y0125663D01*
X0012570Y0124943D01*
X0012520Y0123883D01*
X0004637Y0123883D01*
X0004630Y0124713D01*
X0004820Y0126923D01*
X0005430Y0129233D01*
X0006520Y0131303D01*
X0008160Y0133323D01*
X0008780Y0133923D01*
X0011050Y0135613D01*
X0013620Y0136793D01*
X0016340Y0137403D01*
X0019080Y0137413D01*
X0019620Y0137343D01*
G36*
X0090562Y0074410D02*
G01*
X0088592Y0074410D01*
X0088592Y0076380D01*
X0090562Y0076380D01*
X0090562Y0074410D01*
G37*
G36*
X0041317Y0040924D02*
G01*
X0041317Y0046833D01*
X0045257Y0046833D01*
X0047227Y0046833D01*
X0047227Y0044863D01*
X0053136Y0044863D01*
X0053136Y0046833D01*
X0049196Y0046833D01*
X0049196Y0052742D01*
X0047227Y0052742D01*
X0047227Y0050773D01*
X0045257Y0050773D01*
X0045257Y0046833D01*
X0041317Y0046833D01*
X0041317Y0056682D01*
X0045257Y0056682D01*
X0047227Y0056682D01*
X0047227Y0054712D01*
X0049196Y0054712D01*
X0049196Y0056682D01*
X0053136Y0056682D01*
X0053136Y0054712D01*
X0051166Y0054712D01*
X0051166Y0052742D01*
X0059045Y0052742D01*
X0059045Y0048803D01*
X0053136Y0048803D01*
X0053136Y0050773D01*
X0051166Y0050773D01*
X0051166Y0048803D01*
X0053136Y0048803D01*
X0053136Y0046833D01*
X0055106Y0046833D01*
X0055106Y0044863D01*
X0057076Y0044863D01*
X0057076Y0046833D01*
X0059045Y0046833D01*
X0059045Y0044863D01*
X0066925Y0044863D01*
X0066925Y0046833D01*
X0068894Y0046833D01*
X0068894Y0044863D01*
X0080713Y0044863D01*
X0082683Y0044863D01*
X0102381Y0044863D01*
X0102381Y0058652D01*
X0088592Y0058652D01*
X0088592Y0044863D01*
X0084653Y0044863D01*
X0084653Y0046833D01*
X0082683Y0046833D01*
X0082683Y0044863D01*
X0080713Y0044863D01*
X0080713Y0046833D01*
X0082683Y0046833D01*
X0082683Y0052742D01*
X0086623Y0052742D01*
X0086623Y0060622D01*
X0096472Y0060622D01*
X0098441Y0060622D01*
X0102381Y0060622D01*
X0102381Y0062591D01*
X0098441Y0062591D01*
X0098441Y0060622D01*
X0096472Y0060622D01*
X0096472Y0062591D01*
X0092532Y0062591D01*
X0092532Y0064561D01*
X0090562Y0064561D01*
X0090562Y0066531D01*
X0092532Y0066531D01*
X0096472Y0066531D01*
X0098441Y0066531D01*
X0102381Y0066531D01*
X0102381Y0068501D01*
X0098441Y0068501D01*
X0098441Y0066531D01*
X0096472Y0066531D01*
X0096472Y0068501D01*
X0098441Y0068501D01*
X0098441Y0072440D01*
X0094502Y0072440D01*
X0094502Y0070471D01*
X0092532Y0070471D01*
X0092532Y0066531D01*
X0090562Y0066531D01*
X0086623Y0066531D01*
X0086623Y0068501D01*
X0088592Y0068501D01*
X0090562Y0068501D01*
X0090562Y0070471D01*
X0088592Y0070471D01*
X0088592Y0068501D01*
X0086623Y0068501D01*
X0086623Y0072440D01*
X0090562Y0072440D01*
X0090562Y0074410D01*
X0094502Y0074410D01*
X0094502Y0076380D01*
X0096472Y0076380D01*
X0096472Y0074410D01*
X0100411Y0074410D01*
X0100411Y0072440D01*
X0102381Y0072440D01*
X0102381Y0078350D01*
X0100411Y0078350D01*
X0100411Y0080319D01*
X0102381Y0080319D01*
X0102381Y0082289D01*
X0100411Y0082289D01*
X0100411Y0084259D01*
X0094502Y0084259D01*
X0094502Y0086229D01*
X0086623Y0086229D01*
X0086623Y0088199D01*
X0088592Y0088199D01*
X0102381Y0088199D01*
X0102381Y0101987D01*
X0088592Y0101987D01*
X0088592Y0088199D01*
X0086623Y0088199D01*
X0086623Y0092138D01*
X0084653Y0092138D01*
X0084653Y0096078D01*
X0082683Y0096078D01*
X0082683Y0098048D01*
X0086623Y0098048D01*
X0086623Y0100017D01*
X0084653Y0100017D01*
X0084653Y0101987D01*
X0082683Y0101987D01*
X0082683Y0098048D01*
X0080713Y0098048D01*
X0080713Y0101987D01*
X0074804Y0101987D01*
X0074804Y0098048D01*
X0076774Y0098048D01*
X0076774Y0096078D01*
X0072834Y0096078D01*
X0072834Y0100017D01*
X0070864Y0100017D01*
X0070864Y0101987D01*
X0068894Y0101987D01*
X0068894Y0100017D01*
X0070864Y0100017D01*
X0070864Y0096078D01*
X0068894Y0096078D01*
X0068894Y0098048D01*
X0066925Y0098048D01*
X0066925Y0101987D01*
X0062985Y0101987D01*
X0062985Y0100017D01*
X0061015Y0100017D01*
X0061015Y0094108D01*
X0066925Y0094108D01*
X0066925Y0096078D01*
X0068894Y0096078D01*
X0068894Y0092138D01*
X0070864Y0092138D01*
X0070864Y0090168D01*
X0068894Y0090168D01*
X0068894Y0088199D01*
X0066925Y0088199D01*
X0066925Y0092138D01*
X0061015Y0092138D01*
X0061015Y0088199D01*
X0062985Y0088199D01*
X0062985Y0090168D01*
X0064955Y0090168D01*
X0064955Y0084259D01*
X0059045Y0084259D01*
X0059045Y0086229D01*
X0055106Y0086229D01*
X0055106Y0084259D01*
X0049196Y0084259D01*
X0049196Y0086229D01*
X0047227Y0086229D01*
X0047227Y0084259D01*
X0045257Y0084259D01*
X0045257Y0080319D01*
X0047227Y0080319D01*
X0047227Y0082289D01*
X0049196Y0082289D01*
X0049196Y0080319D01*
X0051166Y0080319D01*
X0051166Y0076380D01*
X0049196Y0076380D01*
X0049196Y0078350D01*
X0047227Y0078350D01*
X0047227Y0076380D01*
X0045257Y0076380D01*
X0045257Y0072440D01*
X0047227Y0072440D01*
X0047227Y0070471D01*
X0045257Y0070471D01*
X0045257Y0062591D01*
X0049196Y0062591D01*
X0049196Y0064561D01*
X0051166Y0064561D01*
X0051166Y0060622D01*
X0049196Y0060622D01*
X0049196Y0058652D01*
X0047227Y0058652D01*
X0047227Y0060622D01*
X0045257Y0060622D01*
X0045257Y0056682D01*
X0041317Y0056682D01*
X0041317Y0088199D01*
X0045257Y0088199D01*
X0059045Y0088199D01*
X0059045Y0101987D01*
X0045257Y0101987D01*
X0045257Y0088199D01*
X0041317Y0088199D01*
X0041317Y0105927D01*
X0106321Y0105927D01*
X0106321Y0040924D01*
X0041317Y0040924D01*
G37*
G36*
X0057076Y0062591D02*
G01*
X0055106Y0062591D01*
X0055106Y0064561D01*
X0057076Y0064561D01*
X0057076Y0062591D01*
G37*
G36*
X0072834Y0092138D02*
G01*
X0070864Y0092138D01*
X0070864Y0094108D01*
X0072834Y0094108D01*
X0072834Y0092138D01*
G37*
G36*
X0062985Y0046833D02*
G01*
X0061015Y0046833D01*
X0061015Y0048803D01*
X0062985Y0048803D01*
X0062985Y0046833D01*
G37*
G36*
X0070864Y0074410D02*
G01*
X0066925Y0074410D01*
X0066925Y0076380D01*
X0070864Y0076380D01*
X0070864Y0074410D01*
G37*
G36*
X0066925Y0066531D02*
G01*
X0064955Y0066531D01*
X0064955Y0068501D01*
X0066925Y0068501D01*
X0066925Y0066531D01*
G37*
G36*
X0096472Y0080319D02*
G01*
X0094502Y0080319D01*
X0094502Y0082289D01*
X0096472Y0082289D01*
X0096472Y0080319D01*
G37*
G36*
X0090562Y0062591D02*
G01*
X0086623Y0062591D01*
X0086623Y0064561D01*
X0090562Y0064561D01*
X0090562Y0062591D01*
G37*
G36*
X0090562Y0046833D02*
G01*
X0090562Y0048803D01*
X0092532Y0048803D01*
X0098441Y0048803D01*
X0098441Y0054712D01*
X0092532Y0054712D01*
X0092532Y0048803D01*
X0090562Y0048803D01*
X0090562Y0056682D01*
X0100411Y0056682D01*
X0100411Y0046833D01*
X0090562Y0046833D01*
G37*
G36*
X0049196Y0064561D02*
G01*
X0047227Y0064561D01*
X0047227Y0066531D01*
X0049196Y0066531D01*
X0049196Y0064561D01*
G37*
G36*
X0086623Y0084259D02*
G01*
X0090562Y0084259D01*
X0090562Y0082289D01*
X0084653Y0082289D01*
X0084653Y0086229D01*
X0086623Y0086229D01*
X0086623Y0084259D01*
G37*
G36*
X0078743Y0094108D02*
G01*
X0076774Y0094108D01*
X0076774Y0096078D01*
X0078743Y0096078D01*
X0078743Y0094108D01*
G37*
G36*
X0084653Y0064561D02*
G01*
X0082683Y0064561D01*
X0082683Y0066531D01*
X0084653Y0066531D01*
X0084653Y0064561D01*
G37*
G36*
X0055106Y0054712D02*
G01*
X0055106Y0056682D01*
X0057076Y0056682D01*
X0059045Y0056682D01*
X0059045Y0058652D01*
X0057076Y0058652D01*
X0057076Y0056682D01*
X0055106Y0056682D01*
X0055106Y0060622D01*
X0061015Y0060622D01*
X0061015Y0054712D01*
X0055106Y0054712D01*
G37*
G36*
X0084653Y0086229D02*
G01*
X0082683Y0086229D01*
X0082683Y0092138D01*
X0084653Y0092138D01*
X0084653Y0086229D01*
G37*
G36*
X0072834Y0088199D02*
G01*
X0070864Y0088199D01*
X0070864Y0090168D01*
X0072834Y0090168D01*
X0072834Y0088199D01*
G37*
G36*
X0072834Y0072440D02*
G01*
X0070864Y0072440D01*
X0070864Y0074410D01*
X0072834Y0074410D01*
X0072834Y0072440D01*
G37*
G36*
X0076774Y0066531D02*
G01*
X0072834Y0066531D01*
X0072834Y0068501D01*
X0076774Y0068501D01*
X0076774Y0066531D01*
G37*
G36*
X0078743Y0050773D02*
G01*
X0078743Y0048803D01*
X0080713Y0048803D01*
X0080713Y0046833D01*
X0076774Y0046833D01*
X0076774Y0048803D01*
X0074804Y0048803D01*
X0074804Y0050773D01*
X0078743Y0050773D01*
G37*
G36*
X0066925Y0070471D02*
G01*
X0068894Y0070471D01*
X0068894Y0068501D01*
X0070864Y0068501D01*
X0070864Y0064561D01*
X0068894Y0064561D01*
X0068894Y0060622D01*
X0070864Y0060622D01*
X0070864Y0058652D01*
X0068894Y0058652D01*
X0068894Y0056682D01*
X0070864Y0056682D01*
X0070864Y0054712D01*
X0072834Y0054712D01*
X0072834Y0052742D01*
X0074804Y0052742D01*
X0074804Y0050773D01*
X0072834Y0050773D01*
X0072834Y0048803D01*
X0074804Y0048803D01*
X0074804Y0046833D01*
X0070864Y0046833D01*
X0070864Y0048803D01*
X0068894Y0048803D01*
X0068894Y0050773D01*
X0066925Y0050773D01*
X0066925Y0056682D01*
X0064955Y0056682D01*
X0064955Y0060622D01*
X0062985Y0060622D01*
X0062985Y0062591D01*
X0066925Y0062591D01*
X0066925Y0066531D01*
X0068894Y0066531D01*
X0068894Y0068501D01*
X0066925Y0068501D01*
X0066925Y0070471D01*
X0061015Y0070471D01*
X0061015Y0072440D01*
X0062985Y0072440D01*
X0062985Y0074410D01*
X0061015Y0074410D01*
X0061015Y0080319D01*
X0055106Y0080319D01*
X0055106Y0078350D01*
X0059045Y0078350D01*
X0059045Y0076380D01*
X0053136Y0076380D01*
X0053136Y0074410D01*
X0061015Y0074410D01*
X0061015Y0072440D01*
X0059045Y0072440D01*
X0059045Y0070471D01*
X0057076Y0070471D01*
X0057076Y0072440D01*
X0055106Y0072440D01*
X0055106Y0070471D01*
X0053136Y0070471D01*
X0053136Y0068501D01*
X0055106Y0068501D01*
X0055106Y0066531D01*
X0049196Y0066531D01*
X0049196Y0072440D01*
X0051166Y0072440D01*
X0051166Y0070471D01*
X0053136Y0070471D01*
X0053136Y0074410D01*
X0051166Y0074410D01*
X0051166Y0076380D01*
X0053136Y0076380D01*
X0053136Y0082289D01*
X0055106Y0082289D01*
X0055106Y0084259D01*
X0059045Y0084259D01*
X0059045Y0082289D01*
X0061015Y0082289D01*
X0061015Y0080319D01*
X0062985Y0080319D01*
X0062985Y0082289D01*
X0064955Y0082289D01*
X0064955Y0084259D01*
X0066925Y0084259D01*
X0066925Y0086229D01*
X0072834Y0086229D01*
X0074804Y0086229D01*
X0078743Y0086229D01*
X0078743Y0090168D01*
X0076774Y0090168D01*
X0076774Y0088199D01*
X0074804Y0088199D01*
X0074804Y0086229D01*
X0072834Y0086229D01*
X0072834Y0088199D01*
X0074804Y0088199D01*
X0074804Y0094108D01*
X0076774Y0094108D01*
X0076774Y0092138D01*
X0080713Y0092138D01*
X0080713Y0084259D01*
X0076774Y0084259D01*
X0076774Y0082289D01*
X0074804Y0082289D01*
X0074804Y0080319D01*
X0072834Y0080319D01*
X0072834Y0084259D01*
X0068894Y0084259D01*
X0068894Y0082289D01*
X0064955Y0082289D01*
X0064955Y0078350D01*
X0062985Y0078350D01*
X0062985Y0076380D01*
X0064955Y0076380D01*
X0064955Y0072440D01*
X0066925Y0072440D01*
X0066925Y0070471D01*
G37*
G36*
X0080713Y0056682D02*
G01*
X0080713Y0054712D01*
X0078743Y0054712D01*
X0078743Y0052742D01*
X0080713Y0052742D01*
X0080713Y0050773D01*
X0078743Y0050773D01*
X0078743Y0052742D01*
X0074804Y0052742D01*
X0074804Y0054712D01*
X0072834Y0054712D01*
X0072834Y0056682D01*
X0070864Y0056682D01*
X0070864Y0058652D01*
X0074804Y0058652D01*
X0074804Y0056682D01*
X0076774Y0056682D01*
X0076774Y0058652D01*
X0078743Y0058652D01*
X0080713Y0058652D01*
X0080713Y0060622D01*
X0078743Y0060622D01*
X0078743Y0058652D01*
X0076774Y0058652D01*
X0076774Y0060622D01*
X0078743Y0060622D01*
X0078743Y0062591D01*
X0076774Y0062591D01*
X0076774Y0066531D01*
X0078743Y0066531D01*
X0078743Y0068501D01*
X0076774Y0068501D01*
X0076774Y0072440D01*
X0078743Y0072440D01*
X0080713Y0072440D01*
X0080713Y0074410D01*
X0078743Y0074410D01*
X0078743Y0072440D01*
X0076774Y0072440D01*
X0076774Y0074410D01*
X0072834Y0074410D01*
X0072834Y0076380D01*
X0070864Y0076380D01*
X0070864Y0078350D01*
X0074804Y0078350D01*
X0074804Y0076380D01*
X0082683Y0076380D01*
X0082683Y0078350D01*
X0078743Y0078350D01*
X0078743Y0080319D01*
X0076774Y0080319D01*
X0076774Y0082289D01*
X0078743Y0082289D01*
X0078743Y0080319D01*
X0080713Y0080319D01*
X0080713Y0082289D01*
X0082683Y0082289D01*
X0082683Y0080319D01*
X0084653Y0080319D01*
X0084653Y0078350D01*
X0086623Y0078350D01*
X0086623Y0076380D01*
X0084653Y0076380D01*
X0084653Y0070471D01*
X0080713Y0070471D01*
X0080713Y0066531D01*
X0078743Y0066531D01*
X0078743Y0064561D01*
X0082683Y0064561D01*
X0082683Y0062591D01*
X0084653Y0062591D01*
X0084653Y0056682D01*
X0080713Y0056682D01*
G37*
G36*
X0082683Y0054712D02*
G01*
X0082683Y0052742D01*
X0080713Y0052742D01*
X0080713Y0054712D01*
X0082683Y0054712D01*
G37*
G36*
X0057076Y0070471D02*
G01*
X0057076Y0068501D01*
X0055106Y0068501D01*
X0055106Y0070471D01*
X0057076Y0070471D01*
G37*
G36*
X0100411Y0080319D02*
G01*
X0098441Y0080319D01*
X0098441Y0082289D01*
X0100411Y0082289D01*
X0100411Y0080319D01*
G37*
G36*
X0066925Y0076380D02*
G01*
X0064955Y0076380D01*
X0064955Y0078350D01*
X0066925Y0078350D01*
X0066925Y0076380D01*
G37*
G36*
X0066925Y0048803D02*
G01*
X0062985Y0048803D01*
X0062985Y0050773D01*
X0066925Y0050773D01*
X0066925Y0048803D01*
G37*
G36*
X0066925Y0096078D02*
G01*
X0064955Y0096078D01*
X0064955Y0098048D01*
X0066925Y0098048D01*
X0066925Y0096078D01*
G37*
G36*
X0049196Y0072440D02*
G01*
X0047227Y0072440D01*
X0047227Y0076380D01*
X0049196Y0076380D01*
X0049196Y0072440D01*
G37*
G36*
X0090562Y0090168D02*
G01*
X0090562Y0092138D01*
X0092532Y0092138D01*
X0098441Y0092138D01*
X0098441Y0098048D01*
X0092532Y0098048D01*
X0092532Y0092138D01*
X0090562Y0092138D01*
X0090562Y0100017D01*
X0100411Y0100017D01*
X0100411Y0090168D01*
X0090562Y0090168D01*
G37*
G36*
X0070864Y0078350D02*
G01*
X0066925Y0078350D01*
X0066925Y0080319D01*
X0070864Y0080319D01*
X0070864Y0078350D01*
G37*
G36*
X0070864Y0070471D02*
G01*
X0068894Y0070471D01*
X0068894Y0072440D01*
X0070864Y0072440D01*
X0070864Y0070471D01*
G37*
G36*
X0064955Y0098048D02*
G01*
X0062985Y0098048D01*
X0062985Y0100017D01*
X0064955Y0100017D01*
X0064955Y0098048D01*
G37*
G36*
X0076774Y0078350D02*
G01*
X0074804Y0078350D01*
X0074804Y0080319D01*
X0076774Y0080319D01*
X0076774Y0078350D01*
G37*
G36*
X0047227Y0090168D02*
G01*
X0047227Y0092138D01*
X0049196Y0092138D01*
X0055106Y0092138D01*
X0055106Y0098048D01*
X0049196Y0098048D01*
X0049196Y0092138D01*
X0047227Y0092138D01*
X0047227Y0100017D01*
X0057076Y0100017D01*
X0057076Y0090168D01*
X0047227Y0090168D01*
G37*
G36*
X0078743Y0098048D02*
G01*
X0076774Y0098048D01*
X0076774Y0100017D01*
X0078743Y0100017D01*
X0078743Y0098048D01*
G37*
G36*
X0092532Y0080319D02*
G01*
X0094502Y0080319D01*
X0094502Y0076380D01*
X0092532Y0076380D01*
X0092532Y0078350D01*
X0088592Y0078350D01*
X0088592Y0080319D01*
X0090562Y0080319D01*
X0090562Y0082289D01*
X0092532Y0082289D01*
X0092532Y0080319D01*
G37*
G36*
X0098441Y0076380D02*
G01*
X0096472Y0076380D01*
X0096472Y0080319D01*
X0098441Y0080319D01*
X0098441Y0076380D01*
G37*
G36*
X0062985Y0064561D02*
G01*
X0061015Y0064561D01*
X0061015Y0066531D01*
X0057076Y0066531D01*
X0057076Y0068501D01*
X0062985Y0068501D01*
X0062985Y0064561D01*
G37*
G36*
X0053136Y0058652D02*
G01*
X0051166Y0058652D01*
X0051166Y0060622D01*
X0053136Y0060622D01*
X0053136Y0058652D01*
G37*
G36*
X0074804Y0062591D02*
G01*
X0072834Y0062591D01*
X0072834Y0060622D01*
X0070864Y0060622D01*
X0070864Y0064561D01*
X0074804Y0064561D01*
X0074804Y0062591D01*
G37*
G36*
X0082683Y0094108D02*
G01*
X0080713Y0094108D01*
X0080713Y0096078D01*
X0082683Y0096078D01*
X0082683Y0094108D01*
G37*
G36*
X0031223Y0057249D02*
G01*
X0031385Y0057216D01*
X0031606Y0057145D01*
X0031730Y0057100D01*
X0032107Y0056922D01*
X0032457Y0056701D01*
X0032749Y0056457D01*
X0032957Y0056210D01*
X0033134Y0055973D01*
X0033400Y0055693D01*
X0033714Y0055418D01*
X0034054Y0055163D01*
X0034401Y0054940D01*
X0034736Y0054763D01*
X0035037Y0054647D01*
X0035285Y0054606D01*
X0035299Y0054606D01*
X0035389Y0054589D01*
X0035405Y0054536D01*
X0035345Y0054433D01*
X0035204Y0054265D01*
X0035204Y0054265D01*
X0035096Y0054152D01*
X0034993Y0054072D01*
X0034865Y0054010D01*
X0034682Y0053953D01*
X0034417Y0053886D01*
X0034369Y0053874D01*
X0034076Y0053816D01*
X0033718Y0053756D01*
X0033336Y0053702D01*
X0032971Y0053660D01*
X0032757Y0053638D01*
X0032478Y0053613D01*
X0032273Y0053600D01*
X0032116Y0053601D01*
X0031984Y0053617D01*
X0031851Y0053647D01*
X0031693Y0053692D01*
X0031627Y0053713D01*
X0031306Y0053850D01*
X0030952Y0054056D01*
X0030553Y0054339D01*
X0030098Y0054708D01*
X0029848Y0054932D01*
X0029643Y0055159D01*
X0029488Y0055395D01*
X0029358Y0055674D01*
X0029316Y0055778D01*
X0029264Y0055915D01*
X0029243Y0055982D01*
X0029245Y0055994D01*
X0029294Y0056081D01*
X0029389Y0056221D01*
X0029509Y0056387D01*
X0029637Y0056550D01*
X0029750Y0056685D01*
X0029865Y0056792D01*
X0030139Y0056968D01*
X0030474Y0057114D01*
X0030834Y0057213D01*
X0030891Y0057224D01*
X0031074Y0057251D01*
X0031223Y0057249D01*
G37*
G36*
X0009928Y0100878D02*
G01*
X0010212Y0100867D01*
X0010222Y0100866D01*
X0010504Y0100852D01*
X0010868Y0100833D01*
X0011282Y0100813D01*
X0011715Y0100791D01*
X0012134Y0100771D01*
X0012555Y0100749D01*
X0013184Y0100709D01*
X0013760Y0100663D01*
X0014271Y0100613D01*
X0014705Y0100560D01*
X0015048Y0100506D01*
X0015290Y0100450D01*
X0015556Y0100361D01*
X0016011Y0100142D01*
X0016367Y0099870D01*
X0016621Y0099546D01*
X0016774Y0099169D01*
X0016826Y0098741D01*
X0016772Y0098206D01*
X0016608Y0097668D01*
X0016338Y0097149D01*
X0015967Y0096657D01*
X0015498Y0096200D01*
X0015162Y0095916D01*
X0015407Y0095853D01*
X0015556Y0095812D01*
X0015862Y0095694D01*
X0016078Y0095545D01*
X0016220Y0095352D01*
X0016307Y0095099D01*
X0016333Y0094933D01*
X0016317Y0094582D01*
X0016201Y0094271D01*
X0015993Y0094014D01*
X0015703Y0093822D01*
X0015338Y0093708D01*
X0015292Y0093702D01*
X0015188Y0093700D01*
X0015035Y0093705D01*
X0014827Y0093719D01*
X0014554Y0093742D01*
X0014208Y0093775D01*
X0013781Y0093819D01*
X0013265Y0093874D01*
X0012653Y0093942D01*
X0011934Y0094022D01*
X0011593Y0094061D01*
X0010985Y0094131D01*
X0010475Y0094192D01*
X0010053Y0094247D01*
X0009710Y0094296D01*
X0009435Y0094343D01*
X0009219Y0094389D01*
X0009050Y0094436D01*
X0008919Y0094486D01*
X0008816Y0094541D01*
X0008730Y0094604D01*
X0008652Y0094676D01*
X0008496Y0094881D01*
X0008389Y0095174D01*
X0008345Y0095501D01*
X0008375Y0095822D01*
X0008480Y0096087D01*
X0008657Y0096278D01*
X0008714Y0096311D01*
X0008823Y0096345D01*
X0008974Y0096359D01*
X0009180Y0096355D01*
X0009456Y0096331D01*
X0009817Y0096287D01*
X0010275Y0096221D01*
X0010645Y0096169D01*
X0011329Y0096089D01*
X0011924Y0096046D01*
X0012446Y0096040D01*
X0012907Y0096072D01*
X0013322Y0096143D01*
X0013704Y0096254D01*
X0014069Y0096405D01*
X0014228Y0096488D01*
X0014555Y0096706D01*
X0014852Y0096963D01*
X0015104Y0097242D01*
X0015296Y0097526D01*
X0015414Y0097797D01*
X0015442Y0098038D01*
X0015428Y0098106D01*
X0015338Y0098247D01*
X0015161Y0098369D01*
X0014887Y0098478D01*
X0014509Y0098580D01*
X0014414Y0098600D01*
X0014285Y0098623D01*
X0014139Y0098641D01*
X0013964Y0098655D01*
X0013748Y0098666D01*
X0013478Y0098674D01*
X0013142Y0098679D01*
X0012729Y0098683D01*
X0012225Y0098684D01*
X0011620Y0098685D01*
X0010995Y0098685D01*
X0010465Y0098688D01*
X0010032Y0098693D01*
X0009690Y0098700D01*
X0009431Y0098710D01*
X0009245Y0098722D01*
X0009125Y0098737D01*
X0009063Y0098756D01*
X0008909Y0098882D01*
X0008757Y0099117D01*
X0008663Y0099408D01*
X0008634Y0099730D01*
X0008673Y0100058D01*
X0008784Y0100365D01*
X0008828Y0100438D01*
X0008989Y0100624D01*
X0009184Y0100779D01*
X0009373Y0100867D01*
X0009478Y0100878D01*
X0009674Y0100882D01*
X0009928Y0100878D01*
G37*
G36*
X0006768Y0101032D02*
G01*
X0007000Y0100922D01*
X0007159Y0100740D01*
X0007159Y0100740D01*
X0007167Y0100668D01*
X0007175Y0100487D01*
X0007182Y0100201D01*
X0007189Y0099815D01*
X0007196Y0099334D01*
X0007202Y0098763D01*
X0007208Y0098107D01*
X0007213Y0097371D01*
X0007218Y0096559D01*
X0007223Y0095677D01*
X0007228Y0094729D01*
X0007232Y0093720D01*
X0007236Y0092655D01*
X0007239Y0091539D01*
X0007242Y0090376D01*
X0007245Y0089173D01*
X0007247Y0087932D01*
X0007249Y0086660D01*
X0007251Y0085362D01*
X0007252Y0084041D01*
X0007253Y0082704D01*
X0007254Y0081354D01*
X0007254Y0079997D01*
X0007254Y0078638D01*
X0007254Y0077281D01*
X0007253Y0075931D01*
X0007252Y0074594D01*
X0007251Y0073273D01*
X0007249Y0071975D01*
X0007247Y0070703D01*
X0007245Y0069463D01*
X0007242Y0068259D01*
X0007239Y0067097D01*
X0007236Y0065981D01*
X0007232Y0064916D01*
X0007228Y0063908D01*
X0007223Y0062960D01*
X0007218Y0062078D01*
X0007213Y0061266D01*
X0007208Y0060530D01*
X0007202Y0059874D01*
X0007196Y0059303D01*
X0007189Y0058823D01*
X0007182Y0058437D01*
X0007175Y0058152D01*
X0007167Y0057970D01*
X0007159Y0057899D01*
X0007044Y0057753D01*
X0006826Y0057626D01*
X0006554Y0057580D01*
X0006462Y0057587D01*
X0006310Y0057642D01*
X0006150Y0057775D01*
X0005956Y0057970D01*
X0005956Y0100670D01*
X0006150Y0100864D01*
X0006237Y0100944D01*
X0006386Y0101034D01*
X0006554Y0101059D01*
X0006768Y0101032D01*
G37*
G36*
X0032446Y0059612D02*
G01*
X0032841Y0059491D01*
X0033265Y0059282D01*
X0033703Y0058993D01*
X0034140Y0058629D01*
X0034153Y0058617D01*
X0034245Y0058518D01*
X0034339Y0058390D01*
X0034444Y0058215D01*
X0034569Y0057981D01*
X0034721Y0057671D01*
X0034911Y0057271D01*
X0035043Y0056988D01*
X0035190Y0056680D01*
X0035306Y0056448D01*
X0035401Y0056277D01*
X0035484Y0056151D01*
X0035564Y0056054D01*
X0035653Y0055971D01*
X0035759Y0055885D01*
X0035925Y0055767D01*
X0036193Y0055607D01*
X0036447Y0055482D01*
X0036521Y0055452D01*
X0036706Y0055374D01*
X0036807Y0055323D01*
X0036839Y0055284D01*
X0036819Y0055240D01*
X0036763Y0055178D01*
X0036754Y0055169D01*
X0036663Y0055104D01*
X0036526Y0055072D01*
X0036310Y0055063D01*
X0036003Y0055083D01*
X0035485Y0055201D01*
X0034989Y0055420D01*
X0034539Y0055729D01*
X0034538Y0055730D01*
X0034396Y0055872D01*
X0034211Y0056086D01*
X0034002Y0056349D01*
X0033786Y0056638D01*
X0033581Y0056927D01*
X0033406Y0057193D01*
X0033279Y0057412D01*
X0033218Y0057516D01*
X0033058Y0057730D01*
X0032894Y0057886D01*
X0032846Y0057918D01*
X0032564Y0058048D01*
X0032207Y0058141D01*
X0031804Y0058191D01*
X0031385Y0058194D01*
X0031266Y0058185D01*
X0031057Y0058160D01*
X0030866Y0058112D01*
X0030655Y0058032D01*
X0030384Y0057907D01*
X0030227Y0057830D01*
X0029995Y0057701D01*
X0029797Y0057564D01*
X0029596Y0057391D01*
X0029357Y0057157D01*
X0029167Y0056970D01*
X0028991Y0056813D01*
X0028879Y0056737D01*
X0028826Y0056738D01*
X0028810Y0056781D01*
X0028808Y0056936D01*
X0028845Y0057156D01*
X0028920Y0057412D01*
X0028956Y0057500D01*
X0029083Y0057736D01*
X0029263Y0058012D01*
X0029473Y0058300D01*
X0029693Y0058573D01*
X0029903Y0058803D01*
X0030082Y0058963D01*
X0030375Y0059158D01*
X0030936Y0059424D01*
X0031538Y0059586D01*
X0032176Y0059640D01*
X0032446Y0059612D01*
G37*
G36*
X0013563Y0086612D02*
G01*
X0013516Y0086608D01*
X0013331Y0086585D01*
X0013219Y0086550D01*
X0013145Y0086484D01*
X0013077Y0086372D01*
X0013074Y0086366D01*
X0012892Y0086122D01*
X0012669Y0085982D01*
X0012392Y0085937D01*
X0012219Y0085950D01*
X0011999Y0086030D01*
X0011866Y0086181D01*
X0011824Y0086399D01*
X0011829Y0086627D01*
X0011325Y0086665D01*
X0010982Y0086700D01*
X0010370Y0086816D01*
X0009833Y0086991D01*
X0009376Y0087221D01*
X0009006Y0087504D01*
X0008730Y0087835D01*
X0008554Y0088212D01*
X0008548Y0088231D01*
X0008511Y0088396D01*
X0008512Y0088442D01*
X0013910Y0088442D01*
X0013938Y0088420D01*
X0013992Y0088416D01*
X0014000Y0088416D01*
X0014206Y0088437D01*
X0014473Y0088487D01*
X0014760Y0088558D01*
X0015025Y0088638D01*
X0015224Y0088718D01*
X0015319Y0088767D01*
X0015427Y0088841D01*
X0015470Y0088926D01*
X0015475Y0089058D01*
X0015456Y0089184D01*
X0015346Y0089423D01*
X0015158Y0089637D01*
X0014916Y0089794D01*
X0014807Y0089841D01*
X0014655Y0089892D01*
X0014567Y0089888D01*
X0014520Y0089832D01*
X0014518Y0089827D01*
X0014477Y0089737D01*
X0014400Y0089570D01*
X0014295Y0089346D01*
X0014173Y0089088D01*
X0014154Y0089048D01*
X0014031Y0088786D01*
X0013953Y0088609D01*
X0013914Y0088500D01*
X0013910Y0088442D01*
X0008512Y0088442D01*
X0008516Y0088543D01*
X0008571Y0088709D01*
X0008682Y0088932D01*
X0008785Y0089103D01*
X0008951Y0089348D01*
X0009165Y0089648D01*
X0009414Y0089986D01*
X0009684Y0090343D01*
X0009963Y0090704D01*
X0010238Y0091051D01*
X0010495Y0091368D01*
X0010723Y0091637D01*
X0010907Y0091841D01*
X0011062Y0092002D01*
X0011394Y0092320D01*
X0011675Y0092548D01*
X0011912Y0092689D01*
X0012115Y0092749D01*
X0012290Y0092730D01*
X0012446Y0092637D01*
X0012532Y0092549D01*
X0012601Y0092409D01*
X0012635Y0092202D01*
X0012641Y0092131D01*
X0012640Y0092011D01*
X0012616Y0091895D01*
X0012562Y0091772D01*
X0012469Y0091629D01*
X0012328Y0091454D01*
X0012131Y0091236D01*
X0011870Y0090961D01*
X0011536Y0090618D01*
X0011268Y0090341D01*
X0010930Y0089972D01*
X0010675Y0089666D01*
X0010499Y0089416D01*
X0010395Y0089216D01*
X0010362Y0089060D01*
X0010374Y0088995D01*
X0010477Y0088863D01*
X0010669Y0088740D01*
X0010932Y0088634D01*
X0011249Y0088550D01*
X0011603Y0088494D01*
X0011976Y0088474D01*
X0012027Y0088473D01*
X0012133Y0088470D01*
X0012218Y0088473D01*
X0012293Y0088493D01*
X0012365Y0088540D01*
X0012443Y0088624D01*
X0012536Y0088755D01*
X0012652Y0088943D01*
X0012800Y0089200D01*
X0012989Y0089535D01*
X0013227Y0089958D01*
X0013454Y0090354D01*
X0013674Y0090716D01*
X0013861Y0090994D01*
X0014025Y0091201D01*
X0014173Y0091347D01*
X0014316Y0091444D01*
X0014462Y0091501D01*
X0014730Y0091555D01*
X0015107Y0091548D01*
X0015459Y0091436D01*
X0015794Y0091214D01*
X0016119Y0090880D01*
X0016440Y0090436D01*
X0016754Y0089825D01*
X0016971Y0089154D01*
X0017090Y0088424D01*
X0017129Y0088007D01*
X0016804Y0087700D01*
X0016556Y0087493D01*
X0016132Y0087230D01*
X0015628Y0087013D01*
X0015036Y0086839D01*
X0014351Y0086707D01*
X0013992Y0086664D01*
X0013563Y0086612D01*
G37*
G36*
X0013620Y0070995D02*
G01*
X0013189Y0070960D01*
X0013052Y0070703D01*
X0012965Y0070556D01*
X0012833Y0070415D01*
X0012663Y0070343D01*
X0012418Y0070318D01*
X0012210Y0070330D01*
X0011994Y0070412D01*
X0011865Y0070565D01*
X0011825Y0070789D01*
X0011830Y0071024D01*
X0011560Y0071024D01*
X0011367Y0071033D01*
X0011000Y0071078D01*
X0010599Y0071153D01*
X0010208Y0071251D01*
X0009872Y0071362D01*
X0009741Y0071415D01*
X0009300Y0071643D01*
X0008962Y0071910D01*
X0008717Y0072223D01*
X0008560Y0072587D01*
X0008543Y0072649D01*
X0008521Y0072773D01*
X0008523Y0072898D01*
X0008555Y0073036D01*
X0008622Y0073197D01*
X0008731Y0073393D01*
X0008886Y0073634D01*
X0009095Y0073932D01*
X0009362Y0074298D01*
X0009694Y0074743D01*
X0009832Y0074925D01*
X0010180Y0075363D01*
X0010529Y0075776D01*
X0010866Y0076152D01*
X0011181Y0076479D01*
X0011464Y0076746D01*
X0011703Y0076942D01*
X0011888Y0077055D01*
X0012097Y0077121D01*
X0012276Y0077123D01*
X0012376Y0077076D01*
X0012515Y0076927D01*
X0012612Y0076718D01*
X0012649Y0076478D01*
X0012647Y0076423D01*
X0012623Y0076297D01*
X0012567Y0076162D01*
X0012469Y0076005D01*
X0012321Y0075815D01*
X0012114Y0075582D01*
X0011841Y0075293D01*
X0011492Y0074937D01*
X0011218Y0074657D01*
X0010902Y0074317D01*
X0010664Y0074037D01*
X0010498Y0073807D01*
X0010400Y0073620D01*
X0010363Y0073468D01*
X0010381Y0073342D01*
X0010382Y0073340D01*
X0010484Y0073219D01*
X0010679Y0073106D01*
X0010945Y0073006D01*
X0011262Y0072926D01*
X0011607Y0072874D01*
X0011961Y0072855D01*
X0012020Y0072854D01*
X0012128Y0072850D01*
X0012215Y0072852D01*
X0012289Y0072871D01*
X0012293Y0072873D01*
X0013910Y0072873D01*
X0013910Y0072820D01*
X0013941Y0072801D01*
X0013998Y0072798D01*
X0014042Y0072799D01*
X0014266Y0072826D01*
X0014539Y0072880D01*
X0014822Y0072951D01*
X0015074Y0073028D01*
X0015252Y0073104D01*
X0015257Y0073106D01*
X0015424Y0073229D01*
X0015493Y0073371D01*
X0015467Y0073547D01*
X0015347Y0073776D01*
X0015332Y0073799D01*
X0015184Y0073975D01*
X0015007Y0074119D01*
X0014829Y0074218D01*
X0014672Y0074257D01*
X0014564Y0074221D01*
X0014560Y0074217D01*
X0014502Y0074126D01*
X0014410Y0073956D01*
X0014295Y0073730D01*
X0014170Y0073470D01*
X0014136Y0073397D01*
X0014019Y0073145D01*
X0013945Y0072976D01*
X0013910Y0072873D01*
X0012293Y0072873D01*
X0012360Y0072915D01*
X0012436Y0072996D01*
X0012527Y0073124D01*
X0012641Y0073309D01*
X0012787Y0073562D01*
X0012973Y0073892D01*
X0013209Y0074311D01*
X0013213Y0074317D01*
X0013470Y0074763D01*
X0013686Y0075116D01*
X0013871Y0075389D01*
X0014032Y0075591D01*
X0014178Y0075733D01*
X0014319Y0075827D01*
X0014462Y0075883D01*
X0014730Y0075937D01*
X0015107Y0075931D01*
X0015459Y0075818D01*
X0015794Y0075596D01*
X0016119Y0075263D01*
X0016439Y0074820D01*
X0016753Y0074209D01*
X0016970Y0073538D01*
X0017090Y0072807D01*
X0017129Y0072392D01*
X0016814Y0072087D01*
X0016724Y0072004D01*
X0016296Y0071697D01*
X0015774Y0071442D01*
X0015155Y0071241D01*
X0014437Y0071092D01*
X0013998Y0071040D01*
X0013620Y0070995D01*
G37*
G36*
X0009536Y0067896D02*
G01*
X0009816Y0067876D01*
X0010159Y0067841D01*
X0010575Y0067790D01*
X0011075Y0067722D01*
X0011667Y0067637D01*
X0012363Y0067535D01*
X0013025Y0067437D01*
X0013931Y0067307D01*
X0014732Y0067196D01*
X0015433Y0067104D01*
X0016038Y0067031D01*
X0016551Y0066976D01*
X0016977Y0066939D01*
X0017321Y0066919D01*
X0017587Y0066917D01*
X0017780Y0066931D01*
X0017904Y0066962D01*
X0017963Y0067008D01*
X0018045Y0067100D01*
X0018224Y0067222D01*
X0018467Y0067347D01*
X0018746Y0067463D01*
X0019035Y0067559D01*
X0019307Y0067625D01*
X0019535Y0067649D01*
X0019752Y0067628D01*
X0020040Y0067542D01*
X0020302Y0067404D01*
X0020517Y0067228D01*
X0020662Y0067031D01*
X0020716Y0066827D01*
X0020716Y0066638D01*
X0022046Y0066516D01*
X0022329Y0066490D01*
X0023029Y0066427D01*
X0023646Y0066374D01*
X0024205Y0066329D01*
X0024728Y0066290D01*
X0025238Y0066255D01*
X0025759Y0066222D01*
X0025836Y0066218D01*
X0026252Y0066186D01*
X0026575Y0066142D01*
X0026822Y0066080D01*
X0027012Y0065990D01*
X0027162Y0065865D01*
X0027290Y0065696D01*
X0027414Y0065475D01*
X0027467Y0065352D01*
X0027539Y0065032D01*
X0027555Y0064678D01*
X0027513Y0064334D01*
X0027414Y0064045D01*
X0027156Y0063637D01*
X0026855Y0063330D01*
X0026514Y0063128D01*
X0026136Y0063033D01*
X0025962Y0063024D01*
X0025624Y0063033D01*
X0025188Y0063067D01*
X0024663Y0063124D01*
X0024056Y0063205D01*
X0023376Y0063308D01*
X0023005Y0063367D01*
X0022346Y0063469D01*
X0021787Y0063552D01*
X0021321Y0063616D01*
X0020941Y0063664D01*
X0020639Y0063695D01*
X0020407Y0063712D01*
X0020012Y0063730D01*
X0019843Y0063273D01*
X0019818Y0063203D01*
X0019724Y0062911D01*
X0019622Y0062558D01*
X0019514Y0062158D01*
X0019406Y0061725D01*
X0019298Y0061274D01*
X0019195Y0060820D01*
X0019099Y0060375D01*
X0019014Y0059956D01*
X0018943Y0059575D01*
X0018889Y0059248D01*
X0018855Y0058988D01*
X0018844Y0058811D01*
X0018859Y0058730D01*
X0018878Y0058718D01*
X0019002Y0058682D01*
X0019220Y0058644D01*
X0019515Y0058604D01*
X0019873Y0058563D01*
X0020276Y0058523D01*
X0020711Y0058486D01*
X0021161Y0058452D01*
X0021611Y0058424D01*
X0022045Y0058402D01*
X0022448Y0058387D01*
X0022804Y0058382D01*
X0023038Y0058379D01*
X0023372Y0058365D01*
X0023683Y0058343D01*
X0023924Y0058316D01*
X0023947Y0058313D01*
X0024145Y0058288D01*
X0024323Y0058280D01*
X0024514Y0058291D01*
X0024752Y0058322D01*
X0025068Y0058375D01*
X0025341Y0058425D01*
X0025663Y0058487D01*
X0025953Y0058548D01*
X0026170Y0058598D01*
X0026179Y0058600D01*
X0026392Y0058660D01*
X0026533Y0058724D01*
X0026643Y0058819D01*
X0026762Y0058968D01*
X0026853Y0059079D01*
X0026992Y0059210D01*
X0027105Y0059276D01*
X0027132Y0059281D01*
X0027282Y0059291D01*
X0027498Y0059291D01*
X0027742Y0059281D01*
X0027869Y0059273D01*
X0028071Y0059253D01*
X0028201Y0059223D01*
X0028290Y0059174D01*
X0028365Y0059099D01*
X0028370Y0059094D01*
X0028459Y0058945D01*
X0028496Y0058800D01*
X0028494Y0058769D01*
X0028481Y0058631D01*
X0028457Y0058402D01*
X0028423Y0058095D01*
X0028382Y0057725D01*
X0028335Y0057306D01*
X0028283Y0056853D01*
X0028228Y0056380D01*
X0028173Y0055901D01*
X0028118Y0055430D01*
X0028065Y0054982D01*
X0028016Y0054572D01*
X0027972Y0054213D01*
X0027936Y0053919D01*
X0027909Y0053706D01*
X0027892Y0053587D01*
X0027888Y0053566D01*
X0027826Y0053377D01*
X0027711Y0053257D01*
X0027523Y0053194D01*
X0027245Y0053175D01*
X0027045Y0053179D01*
X0026789Y0053193D01*
X0026584Y0053212D01*
X0026560Y0053216D01*
X0026419Y0053245D01*
X0026315Y0053299D01*
X0026217Y0053402D01*
X0026091Y0053579D01*
X0026065Y0053617D01*
X0025975Y0053739D01*
X0025881Y0053840D01*
X0025765Y0053934D01*
X0025606Y0054036D01*
X0025384Y0054160D01*
X0025079Y0054321D01*
X0024949Y0054387D01*
X0024629Y0054538D01*
X0024274Y0054693D01*
X0023903Y0054845D01*
X0023536Y0054986D01*
X0023194Y0055108D01*
X0022895Y0055206D01*
X0022661Y0055269D01*
X0022510Y0055292D01*
X0022489Y0055294D01*
X0022362Y0055309D01*
X0022143Y0055340D01*
X0021848Y0055384D01*
X0021490Y0055439D01*
X0021085Y0055503D01*
X0020648Y0055573D01*
X0020304Y0055629D01*
X0019826Y0055706D01*
X0019443Y0055768D01*
X0019145Y0055815D01*
X0018921Y0055847D01*
X0018759Y0055866D01*
X0018649Y0055872D01*
X0018581Y0055866D01*
X0018543Y0055850D01*
X0018524Y0055823D01*
X0018513Y0055788D01*
X0018500Y0055744D01*
X0018399Y0055587D01*
X0018199Y0055430D01*
X0017937Y0055312D01*
X0017639Y0055251D01*
X0017469Y0055241D01*
X0017306Y0055254D01*
X0017140Y0055304D01*
X0016923Y0055401D01*
X0016805Y0055460D01*
X0016590Y0055591D01*
X0016428Y0055740D01*
X0016282Y0055941D01*
X0016258Y0055964D01*
X0016181Y0055996D01*
X0016044Y0056025D01*
X0015834Y0056054D01*
X0015536Y0056084D01*
X0015138Y0056118D01*
X0014906Y0056137D01*
X0014443Y0056175D01*
X0013959Y0056216D01*
X0013498Y0056256D01*
X0013107Y0056291D01*
X0013011Y0056299D01*
X0012593Y0056336D01*
X0012145Y0056374D01*
X0011715Y0056409D01*
X0011351Y0056437D01*
X0011031Y0056465D01*
X0010479Y0056539D01*
X0010019Y0056641D01*
X0009641Y0056774D01*
X0009331Y0056943D01*
X0009077Y0057152D01*
X0008954Y0057291D01*
X0008763Y0057590D01*
X0008635Y0057909D01*
X0008589Y0058210D01*
X0008593Y0058295D01*
X0008667Y0058598D01*
X0008818Y0058926D01*
X0009031Y0059253D01*
X0009289Y0059553D01*
X0009577Y0059801D01*
X0009654Y0059852D01*
X0009921Y0059977D01*
X0010186Y0060032D01*
X0010428Y0060018D01*
X0010624Y0059935D01*
X0010751Y0059784D01*
X0010769Y0059744D01*
X0010796Y0059707D01*
X0010841Y0059675D01*
X0010917Y0059644D01*
X0011039Y0059611D01*
X0011220Y0059573D01*
X0011473Y0059525D01*
X0011811Y0059464D01*
X0012249Y0059387D01*
X0012340Y0059371D01*
X0012789Y0059303D01*
X0013131Y0059271D01*
X0013364Y0059274D01*
X0013493Y0059284D01*
X0013733Y0059263D01*
X0014014Y0059186D01*
X0014044Y0059176D01*
X0014264Y0059119D01*
X0014569Y0059057D01*
X0014934Y0058992D01*
X0015335Y0058930D01*
X0015747Y0058874D01*
X0016146Y0058828D01*
X0016353Y0058807D01*
X0016646Y0060039D01*
X0016899Y0061128D01*
X0017152Y0062286D01*
X0017367Y0063359D01*
X0017382Y0063437D01*
X0017427Y0063667D01*
X0017463Y0063854D01*
X0017485Y0063964D01*
X0017489Y0063990D01*
X0017481Y0064035D01*
X0017433Y0064068D01*
X0017327Y0064095D01*
X0017145Y0064122D01*
X0016867Y0064153D01*
X0016668Y0064176D01*
X0016362Y0064212D01*
X0016086Y0064247D01*
X0015882Y0064275D01*
X0015498Y0064329D01*
X0015008Y0064392D01*
X0014438Y0064460D01*
X0013807Y0064532D01*
X0013133Y0064605D01*
X0012434Y0064677D01*
X0011727Y0064748D01*
X0011030Y0064814D01*
X0010361Y0064874D01*
X0010044Y0064902D01*
X0009709Y0064937D01*
X0009452Y0064973D01*
X0009252Y0065014D01*
X0009088Y0065065D01*
X0008940Y0065131D01*
X0008787Y0065215D01*
X0008721Y0065256D01*
X0008491Y0065449D01*
X0008319Y0065701D01*
X0008182Y0066039D01*
X0008127Y0066212D01*
X0008091Y0066354D01*
X0008082Y0066473D01*
X0008097Y0066614D01*
X0008134Y0066823D01*
X0008154Y0066922D01*
X0008281Y0067295D01*
X0008471Y0067582D01*
X0008719Y0067776D01*
X0008747Y0067790D01*
X0008857Y0067836D01*
X0008981Y0067871D01*
X0009129Y0067893D01*
X0009311Y0067901D01*
X0009536Y0067896D01*
G37*
G36*
X0009291Y0085098D02*
G01*
X0009426Y0085084D01*
X0009648Y0085051D01*
X0009938Y0085003D01*
X0010274Y0084942D01*
X0010634Y0084872D01*
X0010848Y0084830D01*
X0011423Y0084718D01*
X0011914Y0084627D01*
X0012342Y0084554D01*
X0012727Y0084495D01*
X0013090Y0084448D01*
X0013450Y0084408D01*
X0013494Y0084403D01*
X0013732Y0084375D01*
X0014056Y0084334D01*
X0014448Y0084282D01*
X0014887Y0084222D01*
X0015353Y0084156D01*
X0015824Y0084089D01*
X0016138Y0084043D01*
X0016709Y0083963D01*
X0017194Y0083900D01*
X0017610Y0083852D01*
X0017976Y0083820D01*
X0018310Y0083800D01*
X0018630Y0083793D01*
X0018954Y0083796D01*
X0019299Y0083810D01*
X0019684Y0083831D01*
X0019877Y0083843D01*
X0020194Y0083861D01*
X0020426Y0083869D01*
X0020592Y0083867D01*
X0020711Y0083854D01*
X0020802Y0083831D01*
X0020885Y0083795D01*
X0020955Y0083755D01*
X0021150Y0083568D01*
X0021281Y0083316D01*
X0021348Y0083025D01*
X0021349Y0082719D01*
X0021283Y0082422D01*
X0021150Y0082159D01*
X0020949Y0081954D01*
X0020862Y0081895D01*
X0020697Y0081800D01*
X0020518Y0081721D01*
X0020317Y0081661D01*
X0020087Y0081619D01*
X0019819Y0081596D01*
X0019505Y0081591D01*
X0019135Y0081605D01*
X0018703Y0081638D01*
X0018200Y0081690D01*
X0017617Y0081762D01*
X0016947Y0081853D01*
X0016180Y0081964D01*
X0015309Y0082095D01*
X0015304Y0082096D01*
X0014841Y0082165D01*
X0014380Y0082231D01*
X0013942Y0082292D01*
X0013550Y0082344D01*
X0013226Y0082383D01*
X0012993Y0082408D01*
X0012991Y0082409D01*
X0012721Y0082435D01*
X0012370Y0082472D01*
X0011967Y0082516D01*
X0011545Y0082564D01*
X0011133Y0082613D01*
X0011093Y0082618D01*
X0010698Y0082665D01*
X0010310Y0082711D01*
X0009956Y0082754D01*
X0009663Y0082788D01*
X0009456Y0082813D01*
X0009396Y0082820D01*
X0009161Y0082860D01*
X0008967Y0082908D01*
X0008850Y0082955D01*
X0008806Y0082990D01*
X0008689Y0083144D01*
X0008583Y0083355D01*
X0008511Y0083582D01*
X0008493Y0083696D01*
X0008479Y0083950D01*
X0008491Y0084221D01*
X0008524Y0084464D01*
X0008576Y0084638D01*
X0008602Y0084687D01*
X0008784Y0084900D01*
X0009022Y0085045D01*
X0009283Y0085098D01*
X0009291Y0085098D01*
G37*
G36*
X0014031Y0047688D02*
G01*
X0013239Y0047693D01*
X0012504Y0047699D01*
X0011832Y0047707D01*
X0011232Y0047715D01*
X0010709Y0047723D01*
X0010272Y0047733D01*
X0009928Y0047743D01*
X0009684Y0047754D01*
X0009547Y0047766D01*
X0008991Y0047867D01*
X0007950Y0048139D01*
X0006957Y0048509D01*
X0006018Y0048972D01*
X0005137Y0049521D01*
X0004320Y0050152D01*
X0003572Y0050858D01*
X0002898Y0051633D01*
X0002304Y0052473D01*
X0001794Y0053372D01*
X0001373Y0054323D01*
X0001048Y0055322D01*
X0000823Y0056362D01*
X0000702Y0057437D01*
X0000700Y0057526D01*
X0000697Y0057729D01*
X0000694Y0058037D01*
X0000692Y0058445D01*
X0000689Y0058946D01*
X0000687Y0059537D01*
X0000685Y0060212D01*
X0000684Y0060965D01*
X0000682Y0061791D01*
X0000681Y0062686D01*
X0000679Y0063644D01*
X0000678Y0064660D01*
X0000677Y0065728D01*
X0000676Y0066844D01*
X0000676Y0068002D01*
X0000675Y0069196D01*
X0000675Y0070423D01*
X0000674Y0071677D01*
X0000674Y0072951D01*
X0000674Y0074243D01*
X0000675Y0075545D01*
X0000675Y0076853D01*
X0000675Y0078161D01*
X0000675Y0078165D01*
X0001962Y0078165D01*
X0001962Y0076854D01*
X0001962Y0075543D01*
X0001963Y0074238D01*
X0001964Y0072943D01*
X0001964Y0071663D01*
X0001965Y0070405D01*
X0001967Y0069173D01*
X0001968Y0067973D01*
X0001970Y0066809D01*
X0001972Y0065687D01*
X0001974Y0064612D01*
X0001976Y0063588D01*
X0001978Y0062623D01*
X0001981Y0061720D01*
X0001984Y0060884D01*
X0001987Y0060121D01*
X0001990Y0059437D01*
X0001994Y0058836D01*
X0001997Y0058323D01*
X0002001Y0057904D01*
X0002005Y0057584D01*
X0002009Y0057368D01*
X0002014Y0057261D01*
X0002063Y0056825D01*
X0002254Y0055842D01*
X0002547Y0054898D01*
X0002937Y0053999D01*
X0003419Y0053153D01*
X0003986Y0052365D01*
X0004634Y0051643D01*
X0005357Y0050991D01*
X0006149Y0050418D01*
X0007005Y0049929D01*
X0007919Y0049531D01*
X0008887Y0049230D01*
X0008978Y0049207D01*
X0009117Y0049173D01*
X0009252Y0049142D01*
X0009389Y0049114D01*
X0009533Y0049088D01*
X0009689Y0049065D01*
X0009864Y0049045D01*
X0010062Y0049027D01*
X0010289Y0049011D01*
X0010549Y0048997D01*
X0010849Y0048985D01*
X0011194Y0048975D01*
X0011589Y0048967D01*
X0012039Y0048960D01*
X0012551Y0048955D01*
X0013128Y0048952D01*
X0013777Y0048949D01*
X0014503Y0048947D01*
X0015311Y0048947D01*
X0016207Y0048947D01*
X0017195Y0048948D01*
X0018282Y0048950D01*
X0019473Y0048952D01*
X0020773Y0048955D01*
X0021557Y0048956D01*
X0022761Y0048959D01*
X0023860Y0048961D01*
X0024858Y0048963D01*
X0025762Y0048965D01*
X0026576Y0048968D01*
X0027305Y0048971D01*
X0027957Y0048975D01*
X0028535Y0048980D01*
X0029045Y0048986D01*
X0029493Y0048993D01*
X0029884Y0049002D01*
X0030223Y0049012D01*
X0030516Y0049023D01*
X0030769Y0049037D01*
X0030986Y0049053D01*
X0031173Y0049071D01*
X0031336Y0049091D01*
X0031479Y0049114D01*
X0031609Y0049140D01*
X0031731Y0049169D01*
X0031850Y0049200D01*
X0031972Y0049235D01*
X0032101Y0049274D01*
X0032244Y0049316D01*
X0032703Y0049463D01*
X0033610Y0049836D01*
X0034475Y0050305D01*
X0035284Y0050859D01*
X0036022Y0051489D01*
X0036676Y0052187D01*
X0036678Y0052189D01*
X0036915Y0052481D01*
X0037123Y0052752D01*
X0037294Y0052991D01*
X0037423Y0053187D01*
X0037501Y0053328D01*
X0037520Y0053404D01*
X0037475Y0053403D01*
X0037404Y0053363D01*
X0037245Y0053274D01*
X0037022Y0053146D01*
X0036753Y0052992D01*
X0036457Y0052822D01*
X0036302Y0052734D01*
X0035912Y0052518D01*
X0035497Y0052296D01*
X0035100Y0052090D01*
X0034760Y0051920D01*
X0034582Y0051834D01*
X0034318Y0051711D01*
X0034116Y0051625D01*
X0033951Y0051569D01*
X0033795Y0051535D01*
X0033622Y0051514D01*
X0033407Y0051498D01*
X0033164Y0051485D01*
X0032956Y0051486D01*
X0032771Y0051508D01*
X0032565Y0051557D01*
X0032294Y0051638D01*
X0032178Y0051677D01*
X0031875Y0051789D01*
X0031583Y0051914D01*
X0031352Y0052030D01*
X0031066Y0052205D01*
X0030619Y0052528D01*
X0030189Y0052893D01*
X0029793Y0053284D01*
X0029449Y0053682D01*
X0029175Y0054070D01*
X0028988Y0054430D01*
X0028935Y0054562D01*
X0028870Y0054742D01*
X0028846Y0054857D01*
X0028859Y0054932D01*
X0028905Y0054992D01*
X0028932Y0055006D01*
X0029008Y0054988D01*
X0029133Y0054902D01*
X0029320Y0054741D01*
X0029492Y0054589D01*
X0029955Y0054224D01*
X0030447Y0053888D01*
X0030951Y0053589D01*
X0031452Y0053334D01*
X0031935Y0053131D01*
X0032385Y0052987D01*
X0032785Y0052910D01*
X0033121Y0052908D01*
X0033246Y0052930D01*
X0033550Y0053018D01*
X0033942Y0053162D01*
X0034414Y0053361D01*
X0034961Y0053612D01*
X0035577Y0053913D01*
X0035819Y0054033D01*
X0036177Y0054204D01*
X0036473Y0054335D01*
X0036731Y0054434D01*
X0036973Y0054511D01*
X0037224Y0054577D01*
X0037416Y0054620D01*
X0037674Y0054672D01*
X0037887Y0054707D01*
X0038022Y0054720D01*
X0038105Y0054723D01*
X0038174Y0054747D01*
X0038228Y0054814D01*
X0038284Y0054945D01*
X0038358Y0055163D01*
X0038491Y0055596D01*
X0038681Y0056415D01*
X0038795Y0057262D01*
X0038796Y0057280D01*
X0038803Y0057411D01*
X0038808Y0057624D01*
X0038814Y0057921D01*
X0038819Y0058304D01*
X0038823Y0058773D01*
X0038827Y0059331D01*
X0038831Y0059980D01*
X0038834Y0060721D01*
X0038836Y0061556D01*
X0038839Y0062487D01*
X0038840Y0063515D01*
X0038842Y0064643D01*
X0038843Y0065871D01*
X0038844Y0067201D01*
X0038844Y0068636D01*
X0038844Y0070176D01*
X0038843Y0071825D01*
X0038842Y0073582D01*
X0038841Y0075451D01*
X0038839Y0077432D01*
X0038839Y0077555D01*
X0038837Y0079324D01*
X0038835Y0080983D01*
X0038834Y0082534D01*
X0038832Y0083983D01*
X0038831Y0085332D01*
X0038829Y0086585D01*
X0038827Y0087746D01*
X0038825Y0088818D01*
X0038823Y0089806D01*
X0038821Y0090712D01*
X0038819Y0091541D01*
X0038817Y0092295D01*
X0038814Y0092980D01*
X0038811Y0093598D01*
X0038808Y0094153D01*
X0038805Y0094648D01*
X0038801Y0095088D01*
X0038797Y0095476D01*
X0038793Y0095816D01*
X0038789Y0096111D01*
X0038784Y0096365D01*
X0038778Y0096582D01*
X0038773Y0096765D01*
X0038767Y0096919D01*
X0038760Y0097045D01*
X0038753Y0097150D01*
X0038745Y0097235D01*
X0038737Y0097304D01*
X0038728Y0097362D01*
X0038719Y0097412D01*
X0038511Y0098275D01*
X0038187Y0099235D01*
X0037778Y0100128D01*
X0037278Y0100963D01*
X0036683Y0101750D01*
X0036361Y0102112D01*
X0035653Y0102785D01*
X0034873Y0103383D01*
X0034034Y0103897D01*
X0033153Y0104316D01*
X0032243Y0104630D01*
X0032163Y0104653D01*
X0032025Y0104693D01*
X0031898Y0104730D01*
X0031777Y0104763D01*
X0031657Y0104793D01*
X0031533Y0104820D01*
X0031397Y0104845D01*
X0031247Y0104866D01*
X0031075Y0104885D01*
X0030876Y0104902D01*
X0030645Y0104916D01*
X0030376Y0104929D01*
X0030064Y0104939D01*
X0029704Y0104948D01*
X0029289Y0104956D01*
X0028815Y0104962D01*
X0028276Y0104967D01*
X0027666Y0104972D01*
X0026980Y0104975D01*
X0026212Y0104978D01*
X0025358Y0104980D01*
X0024411Y0104983D01*
X0023366Y0104985D01*
X0022218Y0104987D01*
X0020960Y0104989D01*
X0020722Y0104990D01*
X0019348Y0104992D01*
X0018064Y0104994D01*
X0016872Y0104994D01*
X0015774Y0104994D01*
X0014772Y0104992D01*
X0013867Y0104990D01*
X0013063Y0104987D01*
X0012360Y0104984D01*
X0011762Y0104979D01*
X0011270Y0104973D01*
X0010886Y0104967D01*
X0010613Y0104960D01*
X0010452Y0104952D01*
X0009805Y0104879D01*
X0008792Y0104676D01*
X0007829Y0104371D01*
X0006916Y0103963D01*
X0006054Y0103452D01*
X0005245Y0102841D01*
X0004489Y0102128D01*
X0004409Y0102043D01*
X0003756Y0101260D01*
X0003202Y0100421D01*
X0002749Y0099529D01*
X0002398Y0098588D01*
X0002151Y0097603D01*
X0002010Y0096578D01*
X0002010Y0096573D01*
X0002005Y0096455D01*
X0002001Y0096228D01*
X0001997Y0095898D01*
X0001993Y0095469D01*
X0001990Y0094948D01*
X0001987Y0094338D01*
X0001983Y0093645D01*
X0001981Y0092875D01*
X0001978Y0092033D01*
X0001975Y0091123D01*
X0001973Y0090151D01*
X0001971Y0089123D01*
X0001969Y0088043D01*
X0001968Y0086916D01*
X0001966Y0085748D01*
X0001965Y0084544D01*
X0001964Y0083310D01*
X0001963Y0082049D01*
X0001963Y0080768D01*
X0001962Y0079472D01*
X0001962Y0078165D01*
X0000675Y0078165D01*
X0000676Y0079465D01*
X0000677Y0080759D01*
X0000678Y0082039D01*
X0000679Y0083298D01*
X0000680Y0084531D01*
X0000681Y0085735D01*
X0000683Y0086902D01*
X0000684Y0088028D01*
X0000686Y0089109D01*
X0000688Y0090137D01*
X0000690Y0091110D01*
X0000692Y0092020D01*
X0000694Y0092864D01*
X0000696Y0093635D01*
X0000698Y0094329D01*
X0000701Y0094941D01*
X0000703Y0095465D01*
X0000706Y0095895D01*
X0000709Y0096228D01*
X0000712Y0096457D01*
X0000715Y0096578D01*
X0000731Y0096804D01*
X0000771Y0097180D01*
X0000826Y0097572D01*
X0000889Y0097926D01*
X0000966Y0098277D01*
X0001269Y0099312D01*
X0001670Y0100297D01*
X0002164Y0101225D01*
X0002744Y0102092D01*
X0003406Y0102893D01*
X0004144Y0103623D01*
X0004952Y0104275D01*
X0005824Y0104846D01*
X0006755Y0105329D01*
X0007740Y0105721D01*
X0008772Y0106014D01*
X0009846Y0106205D01*
X0009891Y0106209D01*
X0010064Y0106218D01*
X0010340Y0106226D01*
X0010721Y0106233D01*
X0011208Y0106239D01*
X0011800Y0106245D01*
X0012500Y0106250D01*
X0013308Y0106254D01*
X0014226Y0106258D01*
X0015253Y0106261D01*
X0016390Y0106263D01*
X0017640Y0106265D01*
X0019002Y0106266D01*
X0020478Y0106266D01*
X0021679Y0106266D01*
X0022860Y0106265D01*
X0023936Y0106265D01*
X0024913Y0106264D01*
X0025796Y0106263D01*
X0026589Y0106261D01*
X0027299Y0106259D01*
X0027930Y0106257D01*
X0028487Y0106254D01*
X0028976Y0106250D01*
X0029401Y0106246D01*
X0029768Y0106241D01*
X0030082Y0106236D01*
X0030348Y0106230D01*
X0030572Y0106223D01*
X0030757Y0106215D01*
X0030910Y0106207D01*
X0031036Y0106197D01*
X0031139Y0106187D01*
X0031225Y0106176D01*
X0032109Y0106006D01*
X0033139Y0105706D01*
X0034123Y0105308D01*
X0035054Y0104816D01*
X0035928Y0104235D01*
X0036736Y0103572D01*
X0037474Y0102830D01*
X0038135Y0102015D01*
X0038712Y0101133D01*
X0039201Y0100188D01*
X0039593Y0099186D01*
X0039692Y0098876D01*
X0039888Y0098129D01*
X0040024Y0097374D01*
X0040108Y0096562D01*
X0040110Y0096523D01*
X0040115Y0096347D01*
X0040120Y0096065D01*
X0040125Y0095680D01*
X0040130Y0095199D01*
X0040134Y0094627D01*
X0040138Y0093969D01*
X0040141Y0093230D01*
X0040145Y0092416D01*
X0040148Y0091532D01*
X0040151Y0090583D01*
X0040154Y0089574D01*
X0040156Y0088511D01*
X0040158Y0087399D01*
X0040160Y0086243D01*
X0040162Y0085049D01*
X0040163Y0083821D01*
X0040165Y0082566D01*
X0040166Y0081287D01*
X0040166Y0079992D01*
X0040167Y0078684D01*
X0040167Y0077370D01*
X0040167Y0076053D01*
X0040167Y0074741D01*
X0040166Y0073437D01*
X0040165Y0072148D01*
X0040164Y0070878D01*
X0040163Y0069633D01*
X0040161Y0068419D01*
X0040159Y0067239D01*
X0040157Y0066100D01*
X0040155Y0065007D01*
X0040153Y0063965D01*
X0040150Y0062979D01*
X0040147Y0062055D01*
X0040143Y0061198D01*
X0040140Y0060414D01*
X0040136Y0059706D01*
X0040132Y0059082D01*
X0040128Y0058546D01*
X0040123Y0058103D01*
X0040118Y0057758D01*
X0040113Y0057518D01*
X0040108Y0057386D01*
X0040023Y0056580D01*
X0039879Y0055768D01*
X0039685Y0055033D01*
X0039666Y0054973D01*
X0039605Y0054775D01*
X0039591Y0054656D01*
X0039635Y0054591D01*
X0039753Y0054553D01*
X0039956Y0054516D01*
X0039989Y0054509D01*
X0040146Y0054448D01*
X0040228Y0054337D01*
X0040239Y0054307D01*
X0040271Y0054196D01*
X0040246Y0054137D01*
X0040146Y0054114D01*
X0039952Y0054112D01*
X0039933Y0054112D01*
X0039700Y0054109D01*
X0039532Y0054085D01*
X0039405Y0054025D01*
X0039299Y0053910D01*
X0039189Y0053725D01*
X0039053Y0053452D01*
X0038802Y0052970D01*
X0038241Y0052077D01*
X0037594Y0051250D01*
X0036867Y0050496D01*
X0036066Y0049818D01*
X0035201Y0049223D01*
X0034277Y0048716D01*
X0033302Y0048301D01*
X0032284Y0047985D01*
X0031229Y0047773D01*
X0031152Y0047765D01*
X0030943Y0047753D01*
X0030631Y0047743D01*
X0030224Y0047732D01*
X0029730Y0047723D01*
X0029155Y0047715D01*
X0028506Y0047707D01*
X0027791Y0047700D01*
X0027017Y0047693D01*
X0026191Y0047688D01*
X0025321Y0047683D01*
X0024413Y0047679D01*
X0023475Y0047676D01*
X0022515Y0047674D01*
X0021538Y0047672D01*
X0020554Y0047671D01*
X0019568Y0047671D01*
X0018588Y0047672D01*
X0017621Y0047674D01*
X0016675Y0047676D01*
X0015756Y0047679D01*
X0015311Y0047681D01*
X0014873Y0047683D01*
X0014031Y0047688D01*
G37*
G36*
X0009435Y0080916D02*
G01*
X0009639Y0080889D01*
X0009914Y0080846D01*
X0010233Y0080788D01*
X0010572Y0080722D01*
X0010740Y0080687D01*
X0011266Y0080581D01*
X0011710Y0080497D01*
X0012094Y0080429D01*
X0012439Y0080375D01*
X0012770Y0080331D01*
X0013107Y0080293D01*
X0013197Y0080283D01*
X0013473Y0080249D01*
X0013826Y0080204D01*
X0014228Y0080150D01*
X0014655Y0080090D01*
X0015081Y0080029D01*
X0015700Y0079939D01*
X0016267Y0079857D01*
X0016745Y0079790D01*
X0017148Y0079735D01*
X0017487Y0079693D01*
X0017775Y0079661D01*
X0018025Y0079640D01*
X0018251Y0079627D01*
X0018463Y0079623D01*
X0018676Y0079625D01*
X0018902Y0079633D01*
X0019153Y0079645D01*
X0019442Y0079661D01*
X0019553Y0079667D01*
X0019914Y0079684D01*
X0020237Y0079695D01*
X0020503Y0079699D01*
X0020692Y0079698D01*
X0020786Y0079689D01*
X0020805Y0079683D01*
X0021031Y0079549D01*
X0021204Y0079326D01*
X0021315Y0079031D01*
X0021355Y0078680D01*
X0021335Y0078436D01*
X0021223Y0078117D01*
X0021014Y0077857D01*
X0020707Y0077654D01*
X0020300Y0077509D01*
X0020222Y0077490D01*
X0020004Y0077456D01*
X0019745Y0077437D01*
X0019437Y0077435D01*
X0019072Y0077450D01*
X0018643Y0077484D01*
X0018141Y0077536D01*
X0017558Y0077607D01*
X0016887Y0077698D01*
X0016119Y0077810D01*
X0015247Y0077943D01*
X0014994Y0077982D01*
X0014515Y0078052D01*
X0014031Y0078119D01*
X0013572Y0078178D01*
X0013166Y0078227D01*
X0012844Y0078262D01*
X0012747Y0078271D01*
X0012228Y0078323D01*
X0011703Y0078380D01*
X0011185Y0078439D01*
X0010688Y0078500D01*
X0010226Y0078559D01*
X0009810Y0078616D01*
X0009456Y0078669D01*
X0009175Y0078716D01*
X0008982Y0078754D01*
X0008889Y0078784D01*
X0008800Y0078852D01*
X0008635Y0079065D01*
X0008529Y0079335D01*
X0008509Y0079454D01*
X0008490Y0079663D01*
X0008480Y0079892D01*
X0008505Y0080237D01*
X0008603Y0080538D01*
X0008776Y0080751D01*
X0009023Y0080879D01*
X0009346Y0080921D01*
X0009435Y0080916D01*
G37*
D143*
X0023228Y0010236D02*
G75*
G03*
X0023228Y0010236I-004724J0000000D01*
G01*
X0169834Y0045409D02*
G01*
G75*
D56*
X0165208Y0069523D02*
X0169440Y0073755D01*
X0165208Y0069523D02*
X0147885Y0069523D01*
X0144440Y0045803D02*
X0144933Y0046295D01*
X0144933Y0066571D01*
X0144440Y0045803D02*
X0108318Y0045803D01*
X0144933Y0066571D02*
X0147885Y0069523D01*
X0169440Y0073755D02*
X0169440Y0109484D01*
X0108318Y0045803D02*
X0108318Y0109484D01*
X0169440Y0109484D02*
X0108318Y0109484D01*
D206*
X0164306Y0100937D02*
X0164306Y0105659D01*
X0161945Y0105659D01*
X0161158Y0104872D01*
X0161158Y0103298D01*
X0161945Y0102511D01*
X0164306Y0102511D01*
X0158796Y0102511D02*
X0157222Y0102511D01*
X0156435Y0103298D01*
X0156435Y0104872D01*
X0157222Y0105659D01*
X0158796Y0105659D01*
X0159584Y0104872D01*
X0159584Y0103298D01*
X0158796Y0102511D01*
X0154861Y0105659D02*
X0154861Y0103298D01*
X0154073Y0102511D01*
X0153286Y0103298D01*
X0152499Y0102511D01*
X0151712Y0103298D01*
X0151712Y0105659D01*
X0147776Y0102511D02*
X0149351Y0102511D01*
X0150138Y0103298D01*
X0150138Y0104872D01*
X0149351Y0105659D01*
X0147776Y0105659D01*
X0146989Y0104872D01*
X0146989Y0104085D01*
X0150138Y0104085D01*
X0145415Y0105659D02*
X0145415Y0102511D01*
X0145415Y0104085D01*
X0144628Y0104872D01*
X0143841Y0105659D01*
X0143053Y0105659D01*
X0140692Y0102511D02*
X0139118Y0102511D01*
X0139905Y0102511D01*
X0139905Y0107234D01*
X0140692Y0106447D01*
X0133608Y0102511D02*
X0136756Y0102511D01*
X0133608Y0105659D01*
X0133608Y0106447D01*
X0134395Y0107234D01*
X0135969Y0107234D01*
X0136756Y0106447D01*
X0132033Y0104872D02*
X0128885Y0104872D01*
X0127310Y0106447D02*
X0126523Y0107234D01*
X0124949Y0107234D01*
X0124162Y0106447D01*
X0124162Y0103298D01*
X0124949Y0102511D01*
X0126523Y0102511D01*
X0127310Y0103298D01*
X0127310Y0106447D01*
X0122588Y0102511D02*
X0122588Y0103298D01*
X0121801Y0103298D01*
X0121801Y0102511D01*
X0122588Y0102511D01*
X0115503Y0102511D02*
X0118652Y0102511D01*
X0115503Y0105659D01*
X0115503Y0106447D01*
X0116290Y0107234D01*
X0117865Y0107234D01*
X0118652Y0106447D01*
X0307677Y0061614D02*
G01*
G75*
D56*
X0307283Y0061220D02*
X0159055Y0061220D01*
X0156693Y0058858D01*
X0154626Y0058858D01*
X0152067Y0056299D01*
X0186122Y0038681D02*
X0175787Y0038681D01*
X0307283Y0032678D02*
X0152067Y0032971D01*
X0307283Y0061220D02*
X0307283Y0032678D01*
X0152067Y0056299D02*
X0152067Y0032971D01*
D206*
X0211531Y0058842D02*
X0211531Y0054119D01*
X0213893Y0054119D01*
X0214680Y0054907D01*
X0214680Y0056481D01*
X0213893Y0057268D01*
X0211531Y0057268D01*
X0217041Y0057268D02*
X0218616Y0057268D01*
X0219403Y0056481D01*
X0219403Y0054907D01*
X0218616Y0054119D01*
X0217041Y0054119D01*
X0216254Y0054907D01*
X0216254Y0056481D01*
X0217041Y0057268D01*
X0220977Y0054119D02*
X0220977Y0056481D01*
X0221764Y0057268D01*
X0222551Y0056481D01*
X0223339Y0057268D01*
X0224126Y0056481D01*
X0224126Y0054119D01*
X0228061Y0057268D02*
X0226487Y0057268D01*
X0225700Y0056481D01*
X0225700Y0054907D01*
X0226487Y0054119D01*
X0228061Y0054119D01*
X0228849Y0054907D01*
X0228849Y0055694D01*
X0225700Y0055694D01*
X0230423Y0054119D02*
X0230423Y0057268D01*
X0230423Y0055694D01*
X0231210Y0054907D01*
X0231997Y0054119D01*
X0232784Y0054119D01*
X0238294Y0052545D02*
X0235146Y0052545D01*
X0235146Y0054907D01*
X0236720Y0054119D01*
X0237507Y0054119D01*
X0238294Y0054907D01*
X0238294Y0056481D01*
X0237507Y0057268D01*
X0235933Y0057268D01*
X0235146Y0056481D01*
X0239869Y0054907D02*
X0243017Y0054907D01*
X0244591Y0053332D02*
X0245379Y0052545D01*
X0246953Y0052545D01*
X0247740Y0053332D01*
X0247740Y0056481D01*
X0246953Y0057268D01*
X0245379Y0057268D01*
X0244591Y0056481D01*
X0244591Y0053332D01*
X0249314Y0057268D02*
X0249314Y0056481D01*
X0250101Y0056481D01*
X0250101Y0057268D01*
X0249314Y0057268D01*
X0256399Y0057268D02*
X0253250Y0057268D01*
X0256399Y0054119D01*
X0256399Y0053332D01*
X0255612Y0052545D01*
X0254037Y0052545D01*
X0253250Y0053332D01*
X0098031Y0185827D02*
%LPD*%
G01*
D56*
X0164370Y0114370D02*
X0164370Y0185433D01*
X0164370Y0185433D02*
X0098425Y0185433D01*
X0098425Y0185433D02*
X0098425Y0114370D01*
X0098425Y0114370D02*
X0164370Y0114370D01*
X0311535Y0004331D02*
G01*
G75*
D56*
X0338307Y0053248D02*
X0342244Y0053248D01*
X0335354Y0056201D02*
X0335354Y0058558D01*
X0311535Y0057331D02*
X0312762Y0058558D01*
X0311535Y0005513D02*
X0312323Y0004726D01*
X0341261Y0004726D01*
X0342244Y0005709D01*
X0342244Y0053248D01*
X0335354Y0056201D02*
X0338307Y0053248D01*
X0312762Y0058558D02*
X0335354Y0058558D01*
D206*
X0315192Y0009760D02*
X0315192Y0011334D01*
X0315192Y0010547D01*
X0318341Y0010547D01*
X0318341Y0009760D01*
X0313618Y0015270D02*
X0313618Y0016057D01*
X0314405Y0016845D01*
X0318341Y0016845D01*
X0318341Y0014483D01*
X0317554Y0013696D01*
X0315979Y0013696D01*
X0315192Y0014483D01*
X0315192Y0016845D01*
X0315192Y0018419D02*
X0318341Y0018419D01*
X0318341Y0020780D01*
X0317554Y0021567D01*
X0315192Y0021567D01*
X0319128Y0023142D02*
X0319915Y0023929D01*
X0319915Y0025503D01*
X0319128Y0026290D01*
X0318341Y0026290D01*
X0317554Y0025503D01*
X0316766Y0026290D01*
X0315979Y0026290D01*
X0315192Y0025503D01*
X0315192Y0023929D01*
X0315979Y0023142D01*
X0316766Y0023142D01*
X0317554Y0023929D01*
X0318341Y0023142D01*
X0319128Y0023142D01*
X0317554Y0023929D02*
X0317554Y0025503D01*
X0317554Y0027865D02*
X0317554Y0031013D01*
X0319128Y0032587D02*
X0319915Y0033374D01*
X0319915Y0034949D01*
X0319128Y0035736D01*
X0315979Y0035736D01*
X0315192Y0034949D01*
X0315192Y0033374D01*
X0315979Y0032587D01*
X0319128Y0032587D01*
X0315192Y0037310D02*
X0315979Y0037310D01*
X0315979Y0038097D01*
X0315192Y0038097D01*
X0315192Y0037310D01*
X0315192Y0041246D02*
X0315192Y0042820D01*
X0315192Y0042033D01*
X0319915Y0042033D01*
X0319128Y0041246D01*
X0362500Y0276298D02*
G01*
G75*
D56*
X0360531Y0218916D02*
X0242815Y0218916D01*
X0240847Y0220885D01*
X0240847Y0272263D02*
X0240847Y0220885D01*
X0244488Y0275904D02*
X0240847Y0272263D01*
X0356004Y0275904D02*
X0244468Y0275904D01*
X0362106Y0269802D02*
X0356004Y0275904D01*
X0362106Y0269802D02*
X0362106Y0220491D01*
X0360531Y0218916D01*
D206*
X0357465Y0265849D02*
X0357465Y0264275D01*
X0357465Y0265062D01*
X0354316Y0265062D01*
X0354316Y0265849D01*
X0357465Y0261913D02*
X0354316Y0261913D01*
X0354316Y0259552D01*
X0355104Y0258765D01*
X0357465Y0258765D01*
X0359039Y0257191D02*
X0354316Y0257191D01*
X0354316Y0254829D01*
X0355104Y0254042D01*
X0356678Y0254042D01*
X0357465Y0254829D01*
X0357465Y0257191D01*
X0354316Y0252468D02*
X0356678Y0252468D01*
X0357465Y0251680D01*
X0357465Y0249319D01*
X0354316Y0249319D01*
X0353529Y0246958D02*
X0354316Y0246958D01*
X0354316Y0247745D01*
X0354316Y0246170D01*
X0354316Y0246958D01*
X0356678Y0246958D01*
X0357465Y0246170D01*
X0355104Y0243809D02*
X0355104Y0240660D01*
X0353529Y0239086D02*
X0352742Y0238299D01*
X0352742Y0236725D01*
X0353529Y0235938D01*
X0356678Y0235938D01*
X0357465Y0236725D01*
X0357465Y0238299D01*
X0356678Y0239086D01*
X0353529Y0239086D01*
X0357465Y0234363D02*
X0356678Y0234363D01*
X0356678Y0233576D01*
X0357465Y0233576D01*
X0357465Y0234363D01*
X0357465Y0230428D02*
X0357465Y0228853D01*
X0357465Y0229640D01*
X0352742Y0229640D01*
X0353529Y0230428D01*
X0365699Y0212613D02*
G01*
G75*
D56*
X0363385Y0065960D02*
X0192569Y0065960D01*
X0189813Y0068715D01*
X0183809Y0068715D01*
X0365305Y0209975D02*
X0363065Y0212215D01*
X0182926Y0069598D02*
X0182926Y0210867D01*
X0365305Y0067879D02*
X0365305Y0209975D01*
X0365305Y0067879D02*
X0363385Y0065960D01*
X0363065Y0212215D02*
X0184275Y0212215D01*
X0182926Y0210867D01*
X0183809Y0068715D02*
X0182926Y0069598D01*
D206*
X0358794Y0195471D02*
X0355645Y0195471D01*
X0355645Y0194684D01*
X0356432Y0193897D01*
X0358794Y0193897D01*
X0356432Y0193897D01*
X0355645Y0193110D01*
X0356432Y0192323D01*
X0358794Y0192323D01*
X0355645Y0187600D02*
X0355645Y0189961D01*
X0356432Y0190748D01*
X0358006Y0190748D01*
X0358794Y0189961D01*
X0358794Y0187600D01*
X0355645Y0186025D02*
X0358006Y0186025D01*
X0358794Y0185238D01*
X0358794Y0182877D01*
X0355645Y0182877D01*
X0358794Y0181303D02*
X0358794Y0179728D01*
X0358794Y0180515D01*
X0354071Y0180515D01*
X0354858Y0181303D01*
X0358794Y0175005D02*
X0354071Y0175005D01*
X0356432Y0177367D01*
X0356432Y0174218D01*
X0358794Y0170283D02*
X0354071Y0170283D01*
X0356432Y0172644D01*
X0356432Y0169495D01*
X0356432Y0167921D02*
X0356432Y0164773D01*
X0354858Y0163198D02*
X0354071Y0162411D01*
X0354071Y0160837D01*
X0354858Y0160050D01*
X0358006Y0160050D01*
X0358794Y0160837D01*
X0358794Y0162411D01*
X0358006Y0163198D01*
X0354858Y0163198D01*
X0358794Y0158475D02*
X0358006Y0158475D01*
X0358006Y0157688D01*
X0358794Y0157688D01*
X0358794Y0158475D01*
X0354071Y0151391D02*
X0354858Y0152965D01*
X0356432Y0154540D01*
X0358006Y0154540D01*
X0358794Y0153753D01*
X0358794Y0152178D01*
X0358006Y0151391D01*
X0357219Y0151391D01*
X0356432Y0152178D01*
X0356432Y0154540D01*
X0234055Y0028740D02*
G01*
G75*
D56*
X0232579Y0028149D02*
X0232357Y0028346D01*
X0232579Y0028149D02*
X0232579Y0024901D01*
X0233661Y0023819D02*
X0232579Y0024901D01*
X0189665Y0028371D02*
X0189665Y0001233D01*
X0233661Y0001386D02*
X0189665Y0001233D01*
X0232357Y0028346D02*
X0189665Y0028346D01*
X0233661Y0023819D02*
X0233661Y0001386D01*
D206*
X0200310Y0006580D02*
X0197948Y0006580D01*
X0197161Y0007367D01*
X0197161Y0008941D01*
X0197948Y0009728D01*
X0200310Y0009728D01*
X0202671Y0006580D02*
X0204246Y0006580D01*
X0205033Y0007367D01*
X0205033Y0009728D01*
X0202671Y0009728D01*
X0201884Y0008941D01*
X0202671Y0008154D01*
X0205033Y0008154D01*
X0206607Y0009728D02*
X0206607Y0006580D01*
X0208968Y0006580D01*
X0209756Y0007367D01*
X0209756Y0009728D01*
X0211330Y0007367D02*
X0214478Y0007367D01*
X0216053Y0005792D02*
X0216840Y0005005D01*
X0218414Y0005005D01*
X0219201Y0005792D01*
X0219201Y0008941D01*
X0218414Y0009728D01*
X0216840Y0009728D01*
X0216053Y0008941D01*
X0216053Y0005792D01*
X0220776Y0009728D02*
X0220776Y0008941D01*
X0221563Y0008941D01*
X0221563Y0009728D01*
X0220776Y0009728D01*
X0224711Y0009728D02*
X0226286Y0009728D01*
X0225499Y0009728D01*
X0225499Y0005005D01*
X0224711Y0005792D01*
X0030709Y0284055D02*
%LPD*%
G01*
D56*
X0097048Y0212598D02*
X0097048Y0283661D01*
X0097048Y0283661D02*
X0031103Y0283661D01*
X0031103Y0283661D02*
X0031103Y0212598D01*
X0031103Y0212598D02*
X0097048Y0212598D01*
M02*
