G75*
G70*
%OFA0B0*%
%FSLAX25Y25*%
%IPPOS*%
%LPD*%
%AMOC8*
5,1,8,0,0,1.08239X$1,22.5*
%
%AMM195*
21,1,0.015350,0.009840,-0.000000,-0.000000,180.000000*
21,1,0.000000,0.025200,-0.000000,-0.000000,180.000000*
1,1,0.015350,-0.000000,0.004920*
1,1,0.015350,-0.000000,0.004920*
1,1,0.015350,-0.000000,-0.004920*
1,1,0.015350,-0.000000,-0.004920*
%
%AMM196*
21,1,0.015350,0.009840,-0.000000,-0.000000,270.000000*
21,1,0.000000,0.025200,-0.000000,-0.000000,270.000000*
1,1,0.015350,-0.004920,-0.000000*
1,1,0.015350,-0.004920,-0.000000*
1,1,0.015350,0.004920,-0.000000*
1,1,0.015350,0.004920,-0.000000*
%
%AMM259*
21,1,0.015350,0.009840,-0.000000,-0.000000,90.000000*
21,1,0.000000,0.025200,-0.000000,-0.000000,90.000000*
1,1,0.015350,0.004920,-0.000000*
1,1,0.015350,0.004920,-0.000000*
1,1,0.015350,-0.004920,-0.000000*
1,1,0.015350,-0.004920,-0.000000*
%
%ADD102O,0.11417X0.23228*%
%ADD106C,0.02362*%
%ADD124C,0.03937*%
%ADD143C,0.00472*%
%ADD175C,0.23622*%
%ADD200C,0.06000*%
%ADD212C,0.04451*%
%ADD236O,0.09449X0.11417*%
%ADD347M195*%
%ADD348M196*%
%ADD38C,0.07874*%
%ADD415M259*%
%ADD77C,0.02913*%
X0000000Y0000000D02*
%LPD*%
G01*
D143*
X0038780Y0000787D02*
X0038780Y0028346D01*
X0038780Y0028346D02*
X0089961Y0028346D01*
X0089961Y0028346D02*
X0089961Y0000787D01*
X0089961Y0000787D02*
X0038780Y0000787D01*
G36*
X0089961Y0000787D02*
G01*
X0038780Y0000787D01*
X0038780Y0028346D01*
X0089961Y0028346D01*
X0089961Y0000787D01*
G37*
X0089961Y0000787D02*
X0038780Y0000787D01*
X0038780Y0028346D01*
X0089961Y0028346D01*
X0089961Y0000787D01*
D106*
X0334232Y0045177D03*
X0341456Y0043504D03*
X0333385Y0041339D03*
X0334232Y0037894D03*
X0334527Y0034547D03*
X0341456Y0033268D03*
X0336299Y0028150D03*
X0341456Y0025591D03*
X0318129Y0053839D03*
X0334173Y0052657D03*
D200*
X0302165Y0367106D03*
X0302165Y0382106D03*
D175*
X0018909Y0033933D03*
D200*
X0177953Y0383878D03*
X0177953Y0368878D03*
X0294488Y0367106D03*
X0294488Y0382106D03*
X0095276Y0368878D03*
X0095276Y0383878D03*
X0251772Y0381890D03*
X0251772Y0362598D03*
G36*
G01*
X0241339Y0251758D02*
X0242323Y0251758D01*
G75*
G02*
X0242815Y0251266I0000000J-000492D01*
G01*
X0242815Y0251266D01*
G75*
G02*
X0242323Y0250774I-000492J0000000D01*
G01*
X0241339Y0250774D01*
G75*
G02*
X0240846Y0251266I0000000J0000492D01*
G01*
X0240846Y0251266D01*
G75*
G02*
X0241339Y0251758I0000492J0000000D01*
G01*
G37*
G36*
G01*
X0241339Y0254356D02*
X0242323Y0254356D01*
G75*
G02*
X0242815Y0253864I0000000J-000492D01*
G01*
X0242815Y0253864D01*
G75*
G02*
X0242323Y0253372I-000492J0000000D01*
G01*
X0241339Y0253372D01*
G75*
G02*
X0240846Y0253864I0000000J0000492D01*
G01*
X0240846Y0253864D01*
G75*
G02*
X0241339Y0254356I0000492J0000000D01*
G01*
G37*
G36*
G01*
X0241339Y0256955D02*
X0242323Y0256955D01*
G75*
G02*
X0242815Y0256463I0000000J-000492D01*
G01*
X0242815Y0256463D01*
G75*
G02*
X0242323Y0255970I-000492J0000000D01*
G01*
X0241339Y0255970D01*
G75*
G02*
X0240846Y0256463I0000000J0000492D01*
G01*
X0240846Y0256463D01*
G75*
G02*
X0241339Y0256955I0000492J0000000D01*
G01*
G37*
G36*
G01*
X0241339Y0259553D02*
X0242323Y0259553D01*
G75*
G02*
X0242815Y0259061I0000000J-000492D01*
G01*
X0242815Y0259061D01*
G75*
G02*
X0242323Y0258569I-000492J0000000D01*
G01*
X0241339Y0258569D01*
G75*
G02*
X0240846Y0259061I0000000J0000492D01*
G01*
X0240846Y0259061D01*
G75*
G02*
X0241339Y0259553I0000492J0000000D01*
G01*
G37*
G36*
G01*
X0241339Y0272545D02*
X0242323Y0272545D01*
G75*
G02*
X0242815Y0272053I0000000J-000492D01*
G01*
X0242815Y0272053D01*
G75*
G02*
X0242323Y0271561I-000492J0000000D01*
G01*
X0241339Y0271561D01*
G75*
G02*
X0240846Y0272053I0000000J0000492D01*
G01*
X0240846Y0272053D01*
G75*
G02*
X0241339Y0272545I0000492J0000000D01*
G01*
G37*
G36*
G01*
X0354606Y0219400D02*
X0354606Y0220385D01*
G75*
G02*
X0355098Y0220877I0000492J0000000D01*
G01*
X0355098Y0220877D01*
G75*
G02*
X0355591Y0220385I0000000J-000492D01*
G01*
X0355591Y0219400D01*
G75*
G02*
X0355098Y0218908I-000492J0000000D01*
G01*
X0355098Y0218908D01*
G75*
G02*
X0354606Y0219400I0000000J0000492D01*
G01*
G37*
G36*
G01*
X0351260Y0220385D02*
X0351260Y0219400D01*
G75*
G02*
X0350768Y0218908I-000492J0000000D01*
G01*
X0350768Y0218908D01*
G75*
G02*
X0350276Y0219400I0000000J0000492D01*
G01*
X0350276Y0220385D01*
G75*
G02*
X0350768Y0220877I0000492J0000000D01*
G01*
X0350768Y0220877D01*
G75*
G02*
X0351260Y0220385I0000000J-000492D01*
G01*
G37*
G36*
G01*
X0346929Y0220385D02*
X0346929Y0219400D01*
G75*
G02*
X0346437Y0218908I-000492J0000000D01*
G01*
X0346437Y0218908D01*
G75*
G02*
X0345945Y0219400I0000000J0000492D01*
G01*
X0345945Y0220385D01*
G75*
G02*
X0346437Y0220877I0000492J0000000D01*
G01*
X0346437Y0220877D01*
G75*
G02*
X0346929Y0220385I0000000J-000492D01*
G01*
G37*
G36*
G01*
X0342598Y0220385D02*
X0342598Y0219400D01*
G75*
G02*
X0342106Y0218908I-000492J0000000D01*
G01*
X0342106Y0218908D01*
G75*
G02*
X0341614Y0219400I0000000J0000492D01*
G01*
X0341614Y0220385D01*
G75*
G02*
X0342106Y0220877I0000492J0000000D01*
G01*
X0342106Y0220877D01*
G75*
G02*
X0342598Y0220385I0000000J-000492D01*
G01*
G37*
G36*
G01*
X0338268Y0220385D02*
X0338268Y0219400D01*
G75*
G02*
X0337776Y0218908I-000492J0000000D01*
G01*
X0337776Y0218908D01*
G75*
G02*
X0337283Y0219400I0000000J0000492D01*
G01*
X0337283Y0220385D01*
G75*
G02*
X0337776Y0220877I0000492J0000000D01*
G01*
X0337776Y0220877D01*
G75*
G02*
X0338268Y0220385I0000000J-000492D01*
G01*
G37*
G36*
G01*
X0333937Y0220385D02*
X0333937Y0219400D01*
G75*
G02*
X0333445Y0218908I-000492J0000000D01*
G01*
X0333445Y0218908D01*
G75*
G02*
X0332953Y0219400I0000000J0000492D01*
G01*
X0332953Y0220385D01*
G75*
G02*
X0333445Y0220877I0000492J0000000D01*
G01*
X0333445Y0220877D01*
G75*
G02*
X0333937Y0220385I0000000J-000492D01*
G01*
G37*
G36*
G01*
X0329606Y0220385D02*
X0329606Y0219400D01*
G75*
G02*
X0329114Y0218908I-000492J0000000D01*
G01*
X0329114Y0218908D01*
G75*
G02*
X0328622Y0219400I0000000J0000492D01*
G01*
X0328622Y0220385D01*
G75*
G02*
X0329114Y0220877I0000492J0000000D01*
G01*
X0329114Y0220877D01*
G75*
G02*
X0329606Y0220385I0000000J-000492D01*
G01*
G37*
G36*
G01*
X0325276Y0220385D02*
X0325276Y0219400D01*
G75*
G02*
X0324783Y0218908I-000492J0000000D01*
G01*
X0324783Y0218908D01*
G75*
G02*
X0324291Y0219400I0000000J0000492D01*
G01*
X0324291Y0220385D01*
G75*
G02*
X0324783Y0220877I0000492J0000000D01*
G01*
X0324783Y0220877D01*
G75*
G02*
X0325276Y0220385I0000000J-000492D01*
G01*
G37*
G36*
G01*
X0320945Y0220385D02*
X0320945Y0219400D01*
G75*
G02*
X0320453Y0218908I-000492J0000000D01*
G01*
X0320453Y0218908D01*
G75*
G02*
X0319961Y0219400I0000000J0000492D01*
G01*
X0319961Y0220385D01*
G75*
G02*
X0320453Y0220877I0000492J0000000D01*
G01*
X0320453Y0220877D01*
G75*
G02*
X0320945Y0220385I0000000J-000492D01*
G01*
G37*
G36*
G01*
X0316614Y0220385D02*
X0316614Y0219400D01*
G75*
G02*
X0316122Y0218908I-000492J0000000D01*
G01*
X0316122Y0218908D01*
G75*
G02*
X0315630Y0219400I0000000J0000492D01*
G01*
X0315630Y0220385D01*
G75*
G02*
X0316122Y0220877I0000492J0000000D01*
G01*
X0316122Y0220877D01*
G75*
G02*
X0316614Y0220385I0000000J-000492D01*
G01*
G37*
G36*
G01*
X0312284Y0220385D02*
X0312284Y0219400D01*
G75*
G02*
X0311791Y0218908I-000492J0000000D01*
G01*
X0311791Y0218908D01*
G75*
G02*
X0311299Y0219400I0000000J0000492D01*
G01*
X0311299Y0220385D01*
G75*
G02*
X0311791Y0220877I0000492J0000000D01*
G01*
X0311791Y0220877D01*
G75*
G02*
X0312284Y0220385I0000000J-000492D01*
G01*
G37*
G36*
G01*
X0307953Y0220385D02*
X0307953Y0219400D01*
G75*
G02*
X0307461Y0218908I-000492J0000000D01*
G01*
X0307461Y0218908D01*
G75*
G02*
X0306969Y0219400I0000000J0000492D01*
G01*
X0306969Y0220385D01*
G75*
G02*
X0307461Y0220877I0000492J0000000D01*
G01*
X0307461Y0220877D01*
G75*
G02*
X0307953Y0220385I0000000J-000492D01*
G01*
G37*
G36*
G01*
X0303622Y0220385D02*
X0303622Y0219400D01*
G75*
G02*
X0303130Y0218908I-000492J0000000D01*
G01*
X0303130Y0218908D01*
G75*
G02*
X0302638Y0219400I0000000J0000492D01*
G01*
X0302638Y0220385D01*
G75*
G02*
X0303130Y0220877I0000492J0000000D01*
G01*
X0303130Y0220877D01*
G75*
G02*
X0303622Y0220385I0000000J-000492D01*
G01*
G37*
G36*
G01*
X0299291Y0220385D02*
X0299291Y0219400D01*
G75*
G02*
X0298799Y0218908I-000492J0000000D01*
G01*
X0298799Y0218908D01*
G75*
G02*
X0298307Y0219400I0000000J0000492D01*
G01*
X0298307Y0220385D01*
G75*
G02*
X0298799Y0220877I0000492J0000000D01*
G01*
X0298799Y0220877D01*
G75*
G02*
X0299291Y0220385I0000000J-000492D01*
G01*
G37*
G36*
G01*
X0294961Y0220385D02*
X0294961Y0219400D01*
G75*
G02*
X0294469Y0218908I-000492J0000000D01*
G01*
X0294469Y0218908D01*
G75*
G02*
X0293976Y0219400I0000000J0000492D01*
G01*
X0293976Y0220385D01*
G75*
G02*
X0294469Y0220877I0000492J0000000D01*
G01*
X0294469Y0220877D01*
G75*
G02*
X0294961Y0220385I0000000J-000492D01*
G01*
G37*
G36*
G01*
X0290630Y0220385D02*
X0290630Y0219400D01*
G75*
G02*
X0290138Y0218908I-000492J0000000D01*
G01*
X0290138Y0218908D01*
G75*
G02*
X0289646Y0219400I0000000J0000492D01*
G01*
X0289646Y0220385D01*
G75*
G02*
X0290138Y0220877I0000492J0000000D01*
G01*
X0290138Y0220877D01*
G75*
G02*
X0290630Y0220385I0000000J-000492D01*
G01*
G37*
G36*
G01*
X0286299Y0220385D02*
X0286299Y0219400D01*
G75*
G02*
X0285807Y0218908I-000492J0000000D01*
G01*
X0285807Y0218908D01*
G75*
G02*
X0285315Y0219400I0000000J0000492D01*
G01*
X0285315Y0220385D01*
G75*
G02*
X0285807Y0220877I0000492J0000000D01*
G01*
X0285807Y0220877D01*
G75*
G02*
X0286299Y0220385I0000000J-000492D01*
G01*
G37*
G36*
G01*
X0281969Y0220385D02*
X0281969Y0219400D01*
G75*
G02*
X0281476Y0218908I-000492J0000000D01*
G01*
X0281476Y0218908D01*
G75*
G02*
X0280984Y0219400I0000000J0000492D01*
G01*
X0280984Y0220385D01*
G75*
G02*
X0281476Y0220877I0000492J0000000D01*
G01*
X0281476Y0220877D01*
G75*
G02*
X0281969Y0220385I0000000J-000492D01*
G01*
G37*
G36*
G01*
X0277638Y0220385D02*
X0277638Y0219400D01*
G75*
G02*
X0277146Y0218908I-000492J0000000D01*
G01*
X0277146Y0218908D01*
G75*
G02*
X0276654Y0219400I0000000J0000492D01*
G01*
X0276654Y0220385D01*
G75*
G02*
X0277146Y0220877I0000492J0000000D01*
G01*
X0277146Y0220877D01*
G75*
G02*
X0277638Y0220385I0000000J-000492D01*
G01*
G37*
G36*
G01*
X0273307Y0220385D02*
X0273307Y0219400D01*
G75*
G02*
X0272815Y0218908I-000492J0000000D01*
G01*
X0272815Y0218908D01*
G75*
G02*
X0272323Y0219400I0000000J0000492D01*
G01*
X0272323Y0220385D01*
G75*
G02*
X0272815Y0220877I0000492J0000000D01*
G01*
X0272815Y0220877D01*
G75*
G02*
X0273307Y0220385I0000000J-000492D01*
G01*
G37*
G36*
G01*
X0268977Y0220385D02*
X0268977Y0219400D01*
G75*
G02*
X0268484Y0218908I-000492J0000000D01*
G01*
X0268484Y0218908D01*
G75*
G02*
X0267992Y0219400I0000000J0000492D01*
G01*
X0267992Y0220385D01*
G75*
G02*
X0268484Y0220877I0000492J0000000D01*
G01*
X0268484Y0220877D01*
G75*
G02*
X0268977Y0220385I0000000J-000492D01*
G01*
G37*
G36*
G01*
X0264646Y0220385D02*
X0264646Y0219400D01*
G75*
G02*
X0264154Y0218908I-000492J0000000D01*
G01*
X0264154Y0218908D01*
G75*
G02*
X0263662Y0219400I0000000J0000492D01*
G01*
X0263662Y0220385D01*
G75*
G02*
X0264154Y0220877I0000492J0000000D01*
G01*
X0264154Y0220877D01*
G75*
G02*
X0264646Y0220385I0000000J-000492D01*
G01*
G37*
G36*
G01*
X0260315Y0220385D02*
X0260315Y0219400D01*
G75*
G02*
X0259823Y0218908I-000492J0000000D01*
G01*
X0259823Y0218908D01*
G75*
G02*
X0259331Y0219400I0000000J0000492D01*
G01*
X0259331Y0220385D01*
G75*
G02*
X0259823Y0220877I0000492J0000000D01*
G01*
X0259823Y0220877D01*
G75*
G02*
X0260315Y0220385I0000000J-000492D01*
G01*
G37*
G36*
G01*
X0255984Y0220385D02*
X0255984Y0219400D01*
G75*
G02*
X0255492Y0218908I-000492J0000000D01*
G01*
X0255492Y0218908D01*
G75*
G02*
X0255000Y0219400I0000000J0000492D01*
G01*
X0255000Y0220385D01*
G75*
G02*
X0255492Y0220877I0000492J0000000D01*
G01*
X0255492Y0220877D01*
G75*
G02*
X0255984Y0220385I0000000J-000492D01*
G01*
G37*
G36*
G01*
X0251654Y0220385D02*
X0251654Y0219400D01*
G75*
G02*
X0251162Y0218908I-000492J0000000D01*
G01*
X0251162Y0218908D01*
G75*
G02*
X0250669Y0219400I0000000J0000492D01*
G01*
X0250669Y0220385D01*
G75*
G02*
X0251162Y0220877I0000492J0000000D01*
G01*
X0251162Y0220877D01*
G75*
G02*
X0251654Y0220385I0000000J-000492D01*
G01*
G37*
G36*
G01*
X0247323Y0220385D02*
X0247323Y0219400D01*
G75*
G02*
X0246831Y0218908I-000492J0000000D01*
G01*
X0246831Y0218908D01*
G75*
G02*
X0246339Y0219400I0000000J0000492D01*
G01*
X0246339Y0220385D01*
G75*
G02*
X0246831Y0220877I0000492J0000000D01*
G01*
X0246831Y0220877D01*
G75*
G02*
X0247323Y0220385I0000000J-000492D01*
G01*
G37*
G36*
G01*
X0248311Y0275353D02*
X0248311Y0274369D01*
G75*
G02*
X0247819Y0273877I-000492J0000000D01*
G01*
X0247819Y0273877D01*
G75*
G02*
X0247327Y0274369I0000000J0000492D01*
G01*
X0247327Y0275353D01*
G75*
G02*
X0247819Y0275845I0000492J0000000D01*
G01*
X0247819Y0275845D01*
G75*
G02*
X0248311Y0275353I0000000J-000492D01*
G01*
G37*
G36*
G01*
X0250909Y0275353D02*
X0250909Y0274369D01*
G75*
G02*
X0250417Y0273877I-000492J0000000D01*
G01*
X0250417Y0273877D01*
G75*
G02*
X0249925Y0274369I0000000J0000492D01*
G01*
X0249925Y0275353D01*
G75*
G02*
X0250417Y0275845I0000492J0000000D01*
G01*
X0250417Y0275845D01*
G75*
G02*
X0250909Y0275353I0000000J-000492D01*
G01*
G37*
G36*
G01*
X0253508Y0275353D02*
X0253508Y0274369D01*
G75*
G02*
X0253016Y0273877I-000492J0000000D01*
G01*
X0253016Y0273877D01*
G75*
G02*
X0252524Y0274369I0000000J0000492D01*
G01*
X0252524Y0275353D01*
G75*
G02*
X0253016Y0275845I0000492J0000000D01*
G01*
X0253016Y0275845D01*
G75*
G02*
X0253508Y0275353I0000000J-000492D01*
G01*
G37*
G36*
G01*
X0256106Y0275353D02*
X0256106Y0274369D01*
G75*
G02*
X0255614Y0273877I-000492J0000000D01*
G01*
X0255614Y0273877D01*
G75*
G02*
X0255122Y0274369I0000000J0000492D01*
G01*
X0255122Y0275353D01*
G75*
G02*
X0255614Y0275845I0000492J0000000D01*
G01*
X0255614Y0275845D01*
G75*
G02*
X0256106Y0275353I0000000J-000492D01*
G01*
G37*
G36*
G01*
X0258705Y0275353D02*
X0258705Y0274369D01*
G75*
G02*
X0258213Y0273877I-000492J0000000D01*
G01*
X0258213Y0273877D01*
G75*
G02*
X0257720Y0274369I0000000J0000492D01*
G01*
X0257720Y0275353D01*
G75*
G02*
X0258213Y0275845I0000492J0000000D01*
G01*
X0258213Y0275845D01*
G75*
G02*
X0258705Y0275353I0000000J-000492D01*
G01*
G37*
G36*
G01*
X0261303Y0275353D02*
X0261303Y0274369D01*
G75*
G02*
X0260811Y0273877I-000492J0000000D01*
G01*
X0260811Y0273877D01*
G75*
G02*
X0260319Y0274369I0000000J0000492D01*
G01*
X0260319Y0275353D01*
G75*
G02*
X0260811Y0275845I0000492J0000000D01*
G01*
X0260811Y0275845D01*
G75*
G02*
X0261303Y0275353I0000000J-000492D01*
G01*
G37*
G36*
G01*
X0267606Y0275353D02*
X0267606Y0274369D01*
G75*
G02*
X0267114Y0273877I-000492J0000000D01*
G01*
X0267114Y0273877D01*
G75*
G02*
X0266622Y0274369I0000000J0000492D01*
G01*
X0266622Y0275353D01*
G75*
G02*
X0267114Y0275845I0000492J0000000D01*
G01*
X0267114Y0275845D01*
G75*
G02*
X0267606Y0275353I0000000J-000492D01*
G01*
G37*
G36*
G01*
X0270205Y0275353D02*
X0270205Y0274369D01*
G75*
G02*
X0269713Y0273877I-000492J0000000D01*
G01*
X0269713Y0273877D01*
G75*
G02*
X0269220Y0274369I0000000J0000492D01*
G01*
X0269220Y0275353D01*
G75*
G02*
X0269713Y0275845I0000492J0000000D01*
G01*
X0269713Y0275845D01*
G75*
G02*
X0270205Y0275353I0000000J-000492D01*
G01*
G37*
G36*
G01*
X0272803Y0275353D02*
X0272803Y0274369D01*
G75*
G02*
X0272311Y0273877I-000492J0000000D01*
G01*
X0272311Y0273877D01*
G75*
G02*
X0271819Y0274369I0000000J0000492D01*
G01*
X0271819Y0275353D01*
G75*
G02*
X0272311Y0275845I0000492J0000000D01*
G01*
X0272311Y0275845D01*
G75*
G02*
X0272803Y0275353I0000000J-000492D01*
G01*
G37*
G36*
G01*
X0277216Y0275353D02*
X0277216Y0274369D01*
G75*
G02*
X0276724Y0273877I-000492J0000000D01*
G01*
X0276724Y0273877D01*
G75*
G02*
X0276232Y0274369I0000000J0000492D01*
G01*
X0276232Y0275353D01*
G75*
G02*
X0276724Y0275845I0000492J0000000D01*
G01*
X0276724Y0275845D01*
G75*
G02*
X0277216Y0275353I0000000J-000492D01*
G01*
G37*
G36*
G01*
X0279815Y0275353D02*
X0279815Y0274369D01*
G75*
G02*
X0279322Y0273877I-000492J0000000D01*
G01*
X0279322Y0273877D01*
G75*
G02*
X0278830Y0274369I0000000J0000492D01*
G01*
X0278830Y0275353D01*
G75*
G02*
X0279322Y0275845I0000492J0000000D01*
G01*
X0279322Y0275845D01*
G75*
G02*
X0279815Y0275353I0000000J-000492D01*
G01*
G37*
G36*
G01*
X0282413Y0275353D02*
X0282413Y0274369D01*
G75*
G02*
X0281921Y0273877I-000492J0000000D01*
G01*
X0281921Y0273877D01*
G75*
G02*
X0281429Y0274369I0000000J0000492D01*
G01*
X0281429Y0275353D01*
G75*
G02*
X0281921Y0275845I0000492J0000000D01*
G01*
X0281921Y0275845D01*
G75*
G02*
X0282413Y0275353I0000000J-000492D01*
G01*
G37*
G36*
G01*
X0285011Y0275353D02*
X0285011Y0274369D01*
G75*
G02*
X0284519Y0273877I-000492J0000000D01*
G01*
X0284519Y0273877D01*
G75*
G02*
X0284027Y0274369I0000000J0000492D01*
G01*
X0284027Y0275353D01*
G75*
G02*
X0284519Y0275845I0000492J0000000D01*
G01*
X0284519Y0275845D01*
G75*
G02*
X0285011Y0275353I0000000J-000492D01*
G01*
G37*
G36*
G01*
X0298106Y0275353D02*
X0298106Y0274369D01*
G75*
G02*
X0297614Y0273877I-000492J0000000D01*
G01*
X0297614Y0273877D01*
G75*
G02*
X0297122Y0274369I0000000J0000492D01*
G01*
X0297122Y0275353D01*
G75*
G02*
X0297614Y0275845I0000492J0000000D01*
G01*
X0297614Y0275845D01*
G75*
G02*
X0298106Y0275353I0000000J-000492D01*
G01*
G37*
G36*
G01*
X0300705Y0275353D02*
X0300705Y0274369D01*
G75*
G02*
X0300213Y0273877I-000492J0000000D01*
G01*
X0300213Y0273877D01*
G75*
G02*
X0299720Y0274369I0000000J0000492D01*
G01*
X0299720Y0275353D01*
G75*
G02*
X0300213Y0275845I0000492J0000000D01*
G01*
X0300213Y0275845D01*
G75*
G02*
X0300705Y0275353I0000000J-000492D01*
G01*
G37*
G36*
G01*
X0303303Y0275353D02*
X0303303Y0274369D01*
G75*
G02*
X0302811Y0273877I-000492J0000000D01*
G01*
X0302811Y0273877D01*
G75*
G02*
X0302319Y0274369I0000000J0000492D01*
G01*
X0302319Y0275353D01*
G75*
G02*
X0302811Y0275845I0000492J0000000D01*
G01*
X0302811Y0275845D01*
G75*
G02*
X0303303Y0275353I0000000J-000492D01*
G01*
G37*
G36*
G01*
X0313720Y0275353D02*
X0313720Y0274369D01*
G75*
G02*
X0313228Y0273877I-000492J0000000D01*
G01*
X0313228Y0273877D01*
G75*
G02*
X0312736Y0274369I0000000J0000492D01*
G01*
X0312736Y0275353D01*
G75*
G02*
X0313228Y0275845I0000492J0000000D01*
G01*
X0313228Y0275845D01*
G75*
G02*
X0313720Y0275353I0000000J-000492D01*
G01*
G37*
G36*
G01*
X0316319Y0275353D02*
X0316319Y0274369D01*
G75*
G02*
X0315827Y0273877I-000492J0000000D01*
G01*
X0315827Y0273877D01*
G75*
G02*
X0315335Y0274369I0000000J0000492D01*
G01*
X0315335Y0275353D01*
G75*
G02*
X0315827Y0275845I0000492J0000000D01*
G01*
X0315827Y0275845D01*
G75*
G02*
X0316319Y0275353I0000000J-000492D01*
G01*
G37*
G36*
G01*
X0318917Y0275353D02*
X0318917Y0274369D01*
G75*
G02*
X0318425Y0273877I-000492J0000000D01*
G01*
X0318425Y0273877D01*
G75*
G02*
X0317933Y0274369I0000000J0000492D01*
G01*
X0317933Y0275353D01*
G75*
G02*
X0318425Y0275845I0000492J0000000D01*
G01*
X0318425Y0275845D01*
G75*
G02*
X0318917Y0275353I0000000J-000492D01*
G01*
G37*
G36*
G01*
X0321516Y0275353D02*
X0321516Y0274369D01*
G75*
G02*
X0321024Y0273877I-000492J0000000D01*
G01*
X0321024Y0273877D01*
G75*
G02*
X0320531Y0274369I0000000J0000492D01*
G01*
X0320531Y0275353D01*
G75*
G02*
X0321024Y0275845I0000492J0000000D01*
G01*
X0321024Y0275845D01*
G75*
G02*
X0321516Y0275353I0000000J-000492D01*
G01*
G37*
G36*
G01*
X0324114Y0275353D02*
X0324114Y0274369D01*
G75*
G02*
X0323622Y0273877I-000492J0000000D01*
G01*
X0323622Y0273877D01*
G75*
G02*
X0323130Y0274369I0000000J0000492D01*
G01*
X0323130Y0275353D01*
G75*
G02*
X0323622Y0275845I0000492J0000000D01*
G01*
X0323622Y0275845D01*
G75*
G02*
X0324114Y0275353I0000000J-000492D01*
G01*
G37*
G36*
G01*
X0326713Y0275353D02*
X0326713Y0274369D01*
G75*
G02*
X0326220Y0273877I-000492J0000000D01*
G01*
X0326220Y0273877D01*
G75*
G02*
X0325728Y0274369I0000000J0000492D01*
G01*
X0325728Y0275353D01*
G75*
G02*
X0326220Y0275845I0000492J0000000D01*
G01*
X0326220Y0275845D01*
G75*
G02*
X0326713Y0275353I0000000J-000492D01*
G01*
G37*
G36*
G01*
X0329311Y0275353D02*
X0329311Y0274369D01*
G75*
G02*
X0328819Y0273877I-000492J0000000D01*
G01*
X0328819Y0273877D01*
G75*
G02*
X0328327Y0274369I0000000J0000492D01*
G01*
X0328327Y0275353D01*
G75*
G02*
X0328819Y0275845I0000492J0000000D01*
G01*
X0328819Y0275845D01*
G75*
G02*
X0329311Y0275353I0000000J-000492D01*
G01*
G37*
G36*
G01*
X0331909Y0275353D02*
X0331909Y0274369D01*
G75*
G02*
X0331417Y0273877I-000492J0000000D01*
G01*
X0331417Y0273877D01*
G75*
G02*
X0330925Y0274369I0000000J0000492D01*
G01*
X0330925Y0275353D01*
G75*
G02*
X0331417Y0275845I0000492J0000000D01*
G01*
X0331417Y0275845D01*
G75*
G02*
X0331909Y0275353I0000000J-000492D01*
G01*
G37*
G36*
G01*
X0334508Y0275353D02*
X0334508Y0274369D01*
G75*
G02*
X0334016Y0273877I-000492J0000000D01*
G01*
X0334016Y0273877D01*
G75*
G02*
X0333524Y0274369I0000000J0000492D01*
G01*
X0333524Y0275353D01*
G75*
G02*
X0334016Y0275845I0000492J0000000D01*
G01*
X0334016Y0275845D01*
G75*
G02*
X0334508Y0275353I0000000J-000492D01*
G01*
G37*
G36*
G01*
X0337106Y0275353D02*
X0337106Y0274369D01*
G75*
G02*
X0336614Y0273877I-000492J0000000D01*
G01*
X0336614Y0273877D01*
G75*
G02*
X0336122Y0274369I0000000J0000492D01*
G01*
X0336122Y0275353D01*
G75*
G02*
X0336614Y0275845I0000492J0000000D01*
G01*
X0336614Y0275845D01*
G75*
G02*
X0337106Y0275353I0000000J-000492D01*
G01*
G37*
D102*
X0166535Y0421654D03*
X0009843Y0421654D03*
D236*
X0037992Y0398031D03*
X0053740Y0398031D03*
X0067520Y0398031D03*
X0081299Y0398031D03*
X0095079Y0398031D03*
X0108858Y0398031D03*
X0122638Y0398031D03*
X0138386Y0398031D03*
X0037992Y0413780D03*
X0053740Y0413780D03*
X0067520Y0413780D03*
X0081299Y0413780D03*
X0095079Y0413780D03*
X0108858Y0413780D03*
X0122638Y0413780D03*
X0138386Y0413780D03*
X0037992Y0429528D03*
X0053740Y0429528D03*
X0067520Y0429528D03*
X0081299Y0429528D03*
X0095079Y0429528D03*
X0108858Y0429528D03*
X0122638Y0429528D03*
X0138386Y0429528D03*
D200*
X0186417Y0409823D03*
X0186417Y0424823D03*
X0362402Y0366909D03*
X0362402Y0381909D03*
X0170079Y0368878D03*
X0170079Y0383878D03*
D124*
X0125984Y0025591D03*
X0108661Y0025591D03*
D200*
X0013583Y0368353D03*
X0013583Y0383353D03*
X0267913Y0366713D03*
X0267913Y0381713D03*
X0087402Y0368878D03*
X0087402Y0383878D03*
X0284843Y0366909D03*
X0284843Y0381909D03*
X0047047Y0368484D03*
X0047047Y0383484D03*
D106*
X0203740Y0023327D03*
X0207185Y0021260D03*
X0202559Y0018307D03*
X0202854Y0004331D03*
X0109992Y0102693D03*
X0115208Y0070311D03*
X0135809Y0070380D03*
X0137748Y0077791D03*
X0142177Y0048854D03*
X0101476Y0115354D03*
X0131004Y0115354D03*
X0134154Y0115354D03*
X0137303Y0115354D03*
X0108957Y0184350D03*
X0105020Y0184350D03*
D200*
X0260236Y0366713D03*
X0260236Y0381713D03*
X0112205Y0367697D03*
X0112205Y0382697D03*
X0038780Y0368484D03*
X0038780Y0383484D03*
X0129528Y0383464D03*
X0129528Y0364173D03*
X0005305Y0368353D03*
X0005305Y0383353D03*
X0055118Y0368681D03*
X0055118Y0383681D03*
X0212402Y0366713D03*
X0212402Y0381713D03*
X0103346Y0368681D03*
X0103346Y0383681D03*
X0319669Y0381870D03*
X0319669Y0362579D03*
X0353543Y0381713D03*
X0353543Y0366713D03*
X0063189Y0368681D03*
X0063189Y0383681D03*
X0275984Y0381890D03*
X0275984Y0362598D03*
X0022047Y0368287D03*
X0022047Y0383287D03*
X0120866Y0367894D03*
X0120866Y0382894D03*
D175*
X0362000Y0034933D03*
D200*
X0071063Y0368681D03*
X0071063Y0383681D03*
X0079528Y0368878D03*
X0079528Y0383878D03*
X0155906Y0383071D03*
X0155906Y0363779D03*
X0147441Y0368484D03*
X0147441Y0383484D03*
X0186614Y0368878D03*
X0186614Y0383878D03*
G36*
G01*
X0184096Y0085841D02*
X0185081Y0085841D01*
G75*
G02*
X0185573Y0085349I0000000J-000492D01*
G01*
X0185573Y0085349D01*
G75*
G02*
X0185081Y0084857I-000492J0000000D01*
G01*
X0184096Y0084857D01*
G75*
G02*
X0183604Y0085349I0000000J0000492D01*
G01*
X0183604Y0085349D01*
G75*
G02*
X0184096Y0085841I0000492J0000000D01*
G01*
G37*
G36*
G01*
X0185081Y0087455D02*
X0184096Y0087455D01*
G75*
G02*
X0183604Y0087947I0000000J0000492D01*
G01*
X0183604Y0087947D01*
G75*
G02*
X0184096Y0088439I0000492J0000000D01*
G01*
X0185081Y0088439D01*
G75*
G02*
X0185573Y0087947I0000000J-000492D01*
G01*
X0185573Y0087947D01*
G75*
G02*
X0185081Y0087455I-000492J0000000D01*
G01*
G37*
G36*
G01*
X0185081Y0090054D02*
X0184096Y0090054D01*
G75*
G02*
X0183604Y0090546I0000000J0000492D01*
G01*
X0183604Y0090546D01*
G75*
G02*
X0184096Y0091038I0000492J0000000D01*
G01*
X0185081Y0091038D01*
G75*
G02*
X0185573Y0090546I0000000J-000492D01*
G01*
X0185573Y0090546D01*
G75*
G02*
X0185081Y0090054I-000492J0000000D01*
G01*
G37*
G36*
G01*
X0185081Y0092652D02*
X0184096Y0092652D01*
G75*
G02*
X0183604Y0093144I0000000J0000492D01*
G01*
X0183604Y0093144D01*
G75*
G02*
X0184096Y0093636I0000492J0000000D01*
G01*
X0185081Y0093636D01*
G75*
G02*
X0185573Y0093144I0000000J-000492D01*
G01*
X0185573Y0093144D01*
G75*
G02*
X0185081Y0092652I-000492J0000000D01*
G01*
G37*
G36*
G01*
X0185081Y0095250D02*
X0184096Y0095250D01*
G75*
G02*
X0183604Y0095743I0000000J0000492D01*
G01*
X0183604Y0095743D01*
G75*
G02*
X0184096Y0096235I0000492J0000000D01*
G01*
X0185081Y0096235D01*
G75*
G02*
X0185573Y0095743I0000000J-000492D01*
G01*
X0185573Y0095743D01*
G75*
G02*
X0185081Y0095250I-000492J0000000D01*
G01*
G37*
G36*
G01*
X0185081Y0108243D02*
X0184096Y0108243D01*
G75*
G02*
X0183604Y0108735I0000000J0000492D01*
G01*
X0183604Y0108735D01*
G75*
G02*
X0184096Y0109227I0000492J0000000D01*
G01*
X0185081Y0109227D01*
G75*
G02*
X0185573Y0108735I0000000J-000492D01*
G01*
X0185573Y0108735D01*
G75*
G02*
X0185081Y0108243I-000492J0000000D01*
G01*
G37*
G36*
G01*
X0185081Y0110841D02*
X0184096Y0110841D01*
G75*
G02*
X0183604Y0111333I0000000J0000492D01*
G01*
X0183604Y0111333D01*
G75*
G02*
X0184096Y0111825I0000492J0000000D01*
G01*
X0185081Y0111825D01*
G75*
G02*
X0185573Y0111333I0000000J-000492D01*
G01*
X0185573Y0111333D01*
G75*
G02*
X0185081Y0110841I-000492J0000000D01*
G01*
G37*
G36*
G01*
X0185081Y0113439D02*
X0184096Y0113439D01*
G75*
G02*
X0183604Y0113932I0000000J0000492D01*
G01*
X0183604Y0113932D01*
G75*
G02*
X0184096Y0114424I0000492J0000000D01*
G01*
X0185081Y0114424D01*
G75*
G02*
X0185573Y0113932I0000000J-000492D01*
G01*
X0185573Y0113932D01*
G75*
G02*
X0185081Y0113439I-000492J0000000D01*
G01*
G37*
G36*
G01*
X0185081Y0116038D02*
X0184096Y0116038D01*
G75*
G02*
X0183604Y0116530I0000000J0000492D01*
G01*
X0183604Y0116530D01*
G75*
G02*
X0184096Y0117022I0000492J0000000D01*
G01*
X0185081Y0117022D01*
G75*
G02*
X0185573Y0116530I0000000J-000492D01*
G01*
X0185573Y0116530D01*
G75*
G02*
X0185081Y0116038I-000492J0000000D01*
G01*
G37*
G36*
G01*
X0185081Y0118636D02*
X0184096Y0118636D01*
G75*
G02*
X0183604Y0119128I0000000J0000492D01*
G01*
X0183604Y0119128D01*
G75*
G02*
X0184096Y0119621I0000492J0000000D01*
G01*
X0185081Y0119621D01*
G75*
G02*
X0185573Y0119128I0000000J-000492D01*
G01*
X0185573Y0119128D01*
G75*
G02*
X0185081Y0118636I-000492J0000000D01*
G01*
G37*
G36*
G01*
X0185081Y0121235D02*
X0184096Y0121235D01*
G75*
G02*
X0183604Y0121727I0000000J0000492D01*
G01*
X0183604Y0121727D01*
G75*
G02*
X0184096Y0122219I0000492J0000000D01*
G01*
X0185081Y0122219D01*
G75*
G02*
X0185573Y0121727I0000000J-000492D01*
G01*
X0185573Y0121727D01*
G75*
G02*
X0185081Y0121235I-000492J0000000D01*
G01*
G37*
G36*
G01*
X0185081Y0123833D02*
X0184096Y0123833D01*
G75*
G02*
X0183604Y0124325I0000000J0000492D01*
G01*
X0183604Y0124325D01*
G75*
G02*
X0184096Y0124817I0000492J0000000D01*
G01*
X0185081Y0124817D01*
G75*
G02*
X0185573Y0124325I0000000J-000492D01*
G01*
X0185573Y0124325D01*
G75*
G02*
X0185081Y0123833I-000492J0000000D01*
G01*
G37*
G36*
G01*
X0185081Y0126432D02*
X0184096Y0126432D01*
G75*
G02*
X0183604Y0126924I0000000J0000492D01*
G01*
X0183604Y0126924D01*
G75*
G02*
X0184096Y0127416I0000492J0000000D01*
G01*
X0185081Y0127416D01*
G75*
G02*
X0185573Y0126924I0000000J-000492D01*
G01*
X0185573Y0126924D01*
G75*
G02*
X0185081Y0126432I-000492J0000000D01*
G01*
G37*
G36*
G01*
X0185081Y0129030D02*
X0184096Y0129030D01*
G75*
G02*
X0183604Y0129522I0000000J0000492D01*
G01*
X0183604Y0129522D01*
G75*
G02*
X0184096Y0130014I0000492J0000000D01*
G01*
X0185081Y0130014D01*
G75*
G02*
X0185573Y0129522I0000000J-000492D01*
G01*
X0185573Y0129522D01*
G75*
G02*
X0185081Y0129030I-000492J0000000D01*
G01*
G37*
G36*
G01*
X0185081Y0131628D02*
X0184096Y0131628D01*
G75*
G02*
X0183604Y0132121I0000000J0000492D01*
G01*
X0183604Y0132121D01*
G75*
G02*
X0184096Y0132613I0000492J0000000D01*
G01*
X0185081Y0132613D01*
G75*
G02*
X0185573Y0132121I0000000J-000492D01*
G01*
X0185573Y0132121D01*
G75*
G02*
X0185081Y0131628I-000492J0000000D01*
G01*
G37*
G36*
G01*
X0185081Y0134227D02*
X0184096Y0134227D01*
G75*
G02*
X0183604Y0134719I0000000J0000492D01*
G01*
X0183604Y0134719D01*
G75*
G02*
X0184096Y0135211I0000492J0000000D01*
G01*
X0185081Y0135211D01*
G75*
G02*
X0185573Y0134719I0000000J-000492D01*
G01*
X0185573Y0134719D01*
G75*
G02*
X0185081Y0134227I-000492J0000000D01*
G01*
G37*
G36*
G01*
X0185081Y0136825D02*
X0184096Y0136825D01*
G75*
G02*
X0183604Y0137317I0000000J0000492D01*
G01*
X0183604Y0137317D01*
G75*
G02*
X0184096Y0137810I0000492J0000000D01*
G01*
X0185081Y0137810D01*
G75*
G02*
X0185573Y0137317I0000000J-000492D01*
G01*
X0185573Y0137317D01*
G75*
G02*
X0185081Y0136825I-000492J0000000D01*
G01*
G37*
G36*
G01*
X0185081Y0139424D02*
X0184096Y0139424D01*
G75*
G02*
X0183604Y0139916I0000000J0000492D01*
G01*
X0183604Y0139916D01*
G75*
G02*
X0184096Y0140408I0000492J0000000D01*
G01*
X0185081Y0140408D01*
G75*
G02*
X0185573Y0139916I0000000J-000492D01*
G01*
X0185573Y0139916D01*
G75*
G02*
X0185081Y0139424I-000492J0000000D01*
G01*
G37*
G36*
G01*
X0185081Y0142022D02*
X0184096Y0142022D01*
G75*
G02*
X0183604Y0142514I0000000J0000492D01*
G01*
X0183604Y0142514D01*
G75*
G02*
X0184096Y0143006I0000492J0000000D01*
G01*
X0185081Y0143006D01*
G75*
G02*
X0185573Y0142514I0000000J-000492D01*
G01*
X0185573Y0142514D01*
G75*
G02*
X0185081Y0142022I-000492J0000000D01*
G01*
G37*
G36*
G01*
X0185081Y0144621D02*
X0184096Y0144621D01*
G75*
G02*
X0183604Y0145113I0000000J0000492D01*
G01*
X0183604Y0145113D01*
G75*
G02*
X0184096Y0145605I0000492J0000000D01*
G01*
X0185081Y0145605D01*
G75*
G02*
X0185573Y0145113I0000000J-000492D01*
G01*
X0185573Y0145113D01*
G75*
G02*
X0185081Y0144621I-000492J0000000D01*
G01*
G37*
G36*
G01*
X0185081Y0147219D02*
X0184096Y0147219D01*
G75*
G02*
X0183604Y0147711I0000000J0000492D01*
G01*
X0183604Y0147711D01*
G75*
G02*
X0184096Y0148203I0000492J0000000D01*
G01*
X0185081Y0148203D01*
G75*
G02*
X0185573Y0147711I0000000J-000492D01*
G01*
X0185573Y0147711D01*
G75*
G02*
X0185081Y0147219I-000492J0000000D01*
G01*
G37*
G36*
G01*
X0185081Y0149817D02*
X0184096Y0149817D01*
G75*
G02*
X0183604Y0150310I0000000J0000492D01*
G01*
X0183604Y0150310D01*
G75*
G02*
X0184096Y0150802I0000492J0000000D01*
G01*
X0185081Y0150802D01*
G75*
G02*
X0185573Y0150310I0000000J-000492D01*
G01*
X0185573Y0150310D01*
G75*
G02*
X0185081Y0149817I-000492J0000000D01*
G01*
G37*
G36*
G01*
X0185081Y0152416D02*
X0184096Y0152416D01*
G75*
G02*
X0183604Y0152908I0000000J0000492D01*
G01*
X0183604Y0152908D01*
G75*
G02*
X0184096Y0153400I0000492J0000000D01*
G01*
X0185081Y0153400D01*
G75*
G02*
X0185573Y0152908I0000000J-000492D01*
G01*
X0185573Y0152908D01*
G75*
G02*
X0185081Y0152416I-000492J0000000D01*
G01*
G37*
G36*
G01*
X0185081Y0155014D02*
X0184096Y0155014D01*
G75*
G02*
X0183604Y0155506I0000000J0000492D01*
G01*
X0183604Y0155506D01*
G75*
G02*
X0184096Y0155999I0000492J0000000D01*
G01*
X0185081Y0155999D01*
G75*
G02*
X0185573Y0155506I0000000J-000492D01*
G01*
X0185573Y0155506D01*
G75*
G02*
X0185081Y0155014I-000492J0000000D01*
G01*
G37*
G36*
G01*
X0185081Y0157613D02*
X0184096Y0157613D01*
G75*
G02*
X0183604Y0158105I0000000J0000492D01*
G01*
X0183604Y0158105D01*
G75*
G02*
X0184096Y0158597I0000492J0000000D01*
G01*
X0185081Y0158597D01*
G75*
G02*
X0185573Y0158105I0000000J-000492D01*
G01*
X0185573Y0158105D01*
G75*
G02*
X0185081Y0157613I-000492J0000000D01*
G01*
G37*
G36*
G01*
X0185081Y0160211D02*
X0184096Y0160211D01*
G75*
G02*
X0183604Y0160703I0000000J0000492D01*
G01*
X0183604Y0160703D01*
G75*
G02*
X0184096Y0161195I0000492J0000000D01*
G01*
X0185081Y0161195D01*
G75*
G02*
X0185573Y0160703I0000000J-000492D01*
G01*
X0185573Y0160703D01*
G75*
G02*
X0185081Y0160211I-000492J0000000D01*
G01*
G37*
G36*
G01*
X0185081Y0162810D02*
X0184096Y0162810D01*
G75*
G02*
X0183604Y0163302I0000000J0000492D01*
G01*
X0183604Y0163302D01*
G75*
G02*
X0184096Y0163794I0000492J0000000D01*
G01*
X0185081Y0163794D01*
G75*
G02*
X0185573Y0163302I0000000J-000492D01*
G01*
X0185573Y0163302D01*
G75*
G02*
X0185081Y0162810I-000492J0000000D01*
G01*
G37*
G36*
G01*
X0185081Y0165408D02*
X0184096Y0165408D01*
G75*
G02*
X0183604Y0165900I0000000J0000492D01*
G01*
X0183604Y0165900D01*
G75*
G02*
X0184096Y0166392I0000492J0000000D01*
G01*
X0185081Y0166392D01*
G75*
G02*
X0185573Y0165900I0000000J-000492D01*
G01*
X0185573Y0165900D01*
G75*
G02*
X0185081Y0165408I-000492J0000000D01*
G01*
G37*
G36*
G01*
X0185081Y0168006D02*
X0184096Y0168006D01*
G75*
G02*
X0183604Y0168499I0000000J0000492D01*
G01*
X0183604Y0168499D01*
G75*
G02*
X0184096Y0168991I0000492J0000000D01*
G01*
X0185081Y0168991D01*
G75*
G02*
X0185573Y0168499I0000000J-000492D01*
G01*
X0185573Y0168499D01*
G75*
G02*
X0185081Y0168006I-000492J0000000D01*
G01*
G37*
G36*
G01*
X0185081Y0170605D02*
X0184096Y0170605D01*
G75*
G02*
X0183604Y0171097I0000000J0000492D01*
G01*
X0183604Y0171097D01*
G75*
G02*
X0184096Y0171589I0000492J0000000D01*
G01*
X0185081Y0171589D01*
G75*
G02*
X0185573Y0171097I0000000J-000492D01*
G01*
X0185573Y0171097D01*
G75*
G02*
X0185081Y0170605I-000492J0000000D01*
G01*
G37*
G36*
G01*
X0185081Y0173203D02*
X0184096Y0173203D01*
G75*
G02*
X0183604Y0173695I0000000J0000492D01*
G01*
X0183604Y0173695D01*
G75*
G02*
X0184096Y0174188I0000492J0000000D01*
G01*
X0185081Y0174188D01*
G75*
G02*
X0185573Y0173695I0000000J-000492D01*
G01*
X0185573Y0173695D01*
G75*
G02*
X0185081Y0173203I-000492J0000000D01*
G01*
G37*
G36*
G01*
X0185081Y0175802D02*
X0184096Y0175802D01*
G75*
G02*
X0183604Y0176294I0000000J0000492D01*
G01*
X0183604Y0176294D01*
G75*
G02*
X0184096Y0176786I0000492J0000000D01*
G01*
X0185081Y0176786D01*
G75*
G02*
X0185573Y0176294I0000000J-000492D01*
G01*
X0185573Y0176294D01*
G75*
G02*
X0185081Y0175802I-000492J0000000D01*
G01*
G37*
G36*
G01*
X0185081Y0178400D02*
X0184096Y0178400D01*
G75*
G02*
X0183604Y0178892I0000000J0000492D01*
G01*
X0183604Y0178892D01*
G75*
G02*
X0184096Y0179384I0000492J0000000D01*
G01*
X0185081Y0179384D01*
G75*
G02*
X0185573Y0178892I0000000J-000492D01*
G01*
X0185573Y0178892D01*
G75*
G02*
X0185081Y0178400I-000492J0000000D01*
G01*
G37*
G36*
G01*
X0185081Y0180999D02*
X0184096Y0180999D01*
G75*
G02*
X0183604Y0181491I0000000J0000492D01*
G01*
X0183604Y0181491D01*
G75*
G02*
X0184096Y0181983I0000492J0000000D01*
G01*
X0185081Y0181983D01*
G75*
G02*
X0185573Y0181491I0000000J-000492D01*
G01*
X0185573Y0181491D01*
G75*
G02*
X0185081Y0180999I-000492J0000000D01*
G01*
G37*
G36*
G01*
X0317746Y0068609D02*
X0317746Y0069593D01*
G75*
G02*
X0318238Y0070085I0000492J0000000D01*
G01*
X0318238Y0070085D01*
G75*
G02*
X0318730Y0069593I0000000J-000492D01*
G01*
X0318730Y0068609D01*
G75*
G02*
X0318238Y0068117I-000492J0000000D01*
G01*
X0318238Y0068117D01*
G75*
G02*
X0317746Y0068609I0000000J0000492D01*
G01*
G37*
G36*
G01*
X0313533Y0069593D02*
X0313533Y0068609D01*
G75*
G02*
X0313041Y0068117I-000492J0000000D01*
G01*
X0313041Y0068117D01*
G75*
G02*
X0312549Y0068609I0000000J0000492D01*
G01*
X0312549Y0069593D01*
G75*
G02*
X0313041Y0070085I0000492J0000000D01*
G01*
X0313041Y0070085D01*
G75*
G02*
X0313533Y0069593I0000000J-000492D01*
G01*
G37*
G36*
G01*
X0308337Y0069593D02*
X0308337Y0068609D01*
G75*
G02*
X0307844Y0068117I-000492J0000000D01*
G01*
X0307844Y0068117D01*
G75*
G02*
X0307352Y0068609I0000000J0000492D01*
G01*
X0307352Y0069593D01*
G75*
G02*
X0307844Y0070085I0000492J0000000D01*
G01*
X0307844Y0070085D01*
G75*
G02*
X0308337Y0069593I0000000J-000492D01*
G01*
G37*
G36*
G01*
X0305344Y0069593D02*
X0305344Y0068609D01*
G75*
G02*
X0304852Y0068117I-000492J0000000D01*
G01*
X0304852Y0068117D01*
G75*
G02*
X0304360Y0068609I0000000J0000492D01*
G01*
X0304360Y0069593D01*
G75*
G02*
X0304852Y0070085I0000492J0000000D01*
G01*
X0304852Y0070085D01*
G75*
G02*
X0305344Y0069593I0000000J-000492D01*
G01*
G37*
G36*
G01*
X0302726Y0069593D02*
X0302726Y0068609D01*
G75*
G02*
X0302234Y0068117I-000492J0000000D01*
G01*
X0302234Y0068117D01*
G75*
G02*
X0301742Y0068609I0000000J0000492D01*
G01*
X0301742Y0069593D01*
G75*
G02*
X0302234Y0070085I0000492J0000000D01*
G01*
X0302234Y0070085D01*
G75*
G02*
X0302726Y0069593I0000000J-000492D01*
G01*
G37*
G36*
G01*
X0300108Y0069593D02*
X0300108Y0068609D01*
G75*
G02*
X0299616Y0068117I-000492J0000000D01*
G01*
X0299616Y0068117D01*
G75*
G02*
X0299124Y0068609I0000000J0000492D01*
G01*
X0299124Y0069593D01*
G75*
G02*
X0299616Y0070085I0000492J0000000D01*
G01*
X0299616Y0070085D01*
G75*
G02*
X0300108Y0069593I0000000J-000492D01*
G01*
G37*
G36*
G01*
X0297490Y0069593D02*
X0297490Y0068609D01*
G75*
G02*
X0296998Y0068117I-000492J0000000D01*
G01*
X0296998Y0068117D01*
G75*
G02*
X0296506Y0068609I0000000J0000492D01*
G01*
X0296506Y0069593D01*
G75*
G02*
X0296998Y0070085I0000492J0000000D01*
G01*
X0296998Y0070085D01*
G75*
G02*
X0297490Y0069593I0000000J-000492D01*
G01*
G37*
G36*
G01*
X0294439Y0069593D02*
X0294439Y0068609D01*
G75*
G02*
X0293947Y0068117I-000492J0000000D01*
G01*
X0293947Y0068117D01*
G75*
G02*
X0293455Y0068609I0000000J0000492D01*
G01*
X0293455Y0069593D01*
G75*
G02*
X0293947Y0070085I0000492J0000000D01*
G01*
X0293947Y0070085D01*
G75*
G02*
X0294439Y0069593I0000000J-000492D01*
G01*
G37*
G36*
G01*
X0290108Y0069593D02*
X0290108Y0068609D01*
G75*
G02*
X0289616Y0068117I-000492J0000000D01*
G01*
X0289616Y0068117D01*
G75*
G02*
X0289124Y0068609I0000000J0000492D01*
G01*
X0289124Y0069593D01*
G75*
G02*
X0289616Y0070085I0000492J0000000D01*
G01*
X0289616Y0070085D01*
G75*
G02*
X0290108Y0069593I0000000J-000492D01*
G01*
G37*
G36*
G01*
X0285778Y0069593D02*
X0285778Y0068609D01*
G75*
G02*
X0285285Y0068117I-000492J0000000D01*
G01*
X0285285Y0068117D01*
G75*
G02*
X0284793Y0068609I0000000J0000492D01*
G01*
X0284793Y0069593D01*
G75*
G02*
X0285285Y0070085I0000492J0000000D01*
G01*
X0285285Y0070085D01*
G75*
G02*
X0285778Y0069593I0000000J-000492D01*
G01*
G37*
G36*
G01*
X0281447Y0069593D02*
X0281447Y0068609D01*
G75*
G02*
X0280955Y0068117I-000492J0000000D01*
G01*
X0280955Y0068117D01*
G75*
G02*
X0280463Y0068609I0000000J0000492D01*
G01*
X0280463Y0069593D01*
G75*
G02*
X0280955Y0070085I0000492J0000000D01*
G01*
X0280955Y0070085D01*
G75*
G02*
X0281447Y0069593I0000000J-000492D01*
G01*
G37*
G36*
G01*
X0277116Y0069593D02*
X0277116Y0068609D01*
G75*
G02*
X0276624Y0068117I-000492J0000000D01*
G01*
X0276624Y0068117D01*
G75*
G02*
X0276132Y0068609I0000000J0000492D01*
G01*
X0276132Y0069593D01*
G75*
G02*
X0276624Y0070085I0000492J0000000D01*
G01*
X0276624Y0070085D01*
G75*
G02*
X0277116Y0069593I0000000J-000492D01*
G01*
G37*
G36*
G01*
X0272785Y0069593D02*
X0272785Y0068609D01*
G75*
G02*
X0272293Y0068117I-000492J0000000D01*
G01*
X0272293Y0068117D01*
G75*
G02*
X0271801Y0068609I0000000J0000492D01*
G01*
X0271801Y0069593D01*
G75*
G02*
X0272293Y0070085I0000492J0000000D01*
G01*
X0272293Y0070085D01*
G75*
G02*
X0272785Y0069593I0000000J-000492D01*
G01*
G37*
G36*
G01*
X0268455Y0069593D02*
X0268455Y0068609D01*
G75*
G02*
X0267963Y0068117I-000492J0000000D01*
G01*
X0267963Y0068117D01*
G75*
G02*
X0267471Y0068609I0000000J0000492D01*
G01*
X0267471Y0069593D01*
G75*
G02*
X0267963Y0070085I0000492J0000000D01*
G01*
X0267963Y0070085D01*
G75*
G02*
X0268455Y0069593I0000000J-000492D01*
G01*
G37*
G36*
G01*
X0264124Y0069593D02*
X0264124Y0068609D01*
G75*
G02*
X0263632Y0068117I-000492J0000000D01*
G01*
X0263632Y0068117D01*
G75*
G02*
X0263140Y0068609I0000000J0000492D01*
G01*
X0263140Y0069593D01*
G75*
G02*
X0263632Y0070085I0000492J0000000D01*
G01*
X0263632Y0070085D01*
G75*
G02*
X0264124Y0069593I0000000J-000492D01*
G01*
G37*
G36*
G01*
X0259793Y0069593D02*
X0259793Y0068609D01*
G75*
G02*
X0259301Y0068117I-000492J0000000D01*
G01*
X0259301Y0068117D01*
G75*
G02*
X0258809Y0068609I0000000J0000492D01*
G01*
X0258809Y0069593D01*
G75*
G02*
X0259301Y0070085I0000492J0000000D01*
G01*
X0259301Y0070085D01*
G75*
G02*
X0259793Y0069593I0000000J-000492D01*
G01*
G37*
G36*
G01*
X0255463Y0069593D02*
X0255463Y0068609D01*
G75*
G02*
X0254971Y0068117I-000492J0000000D01*
G01*
X0254971Y0068117D01*
G75*
G02*
X0254478Y0068609I0000000J0000492D01*
G01*
X0254478Y0069593D01*
G75*
G02*
X0254971Y0070085I0000492J0000000D01*
G01*
X0254971Y0070085D01*
G75*
G02*
X0255463Y0069593I0000000J-000492D01*
G01*
G37*
G36*
G01*
X0251132Y0069593D02*
X0251132Y0068609D01*
G75*
G02*
X0250640Y0068117I-000492J0000000D01*
G01*
X0250640Y0068117D01*
G75*
G02*
X0250148Y0068609I0000000J0000492D01*
G01*
X0250148Y0069593D01*
G75*
G02*
X0250640Y0070085I0000492J0000000D01*
G01*
X0250640Y0070085D01*
G75*
G02*
X0251132Y0069593I0000000J-000492D01*
G01*
G37*
G36*
G01*
X0246801Y0069593D02*
X0246801Y0068609D01*
G75*
G02*
X0246309Y0068117I-000492J0000000D01*
G01*
X0246309Y0068117D01*
G75*
G02*
X0245817Y0068609I0000000J0000492D01*
G01*
X0245817Y0069593D01*
G75*
G02*
X0246309Y0070085I0000492J0000000D01*
G01*
X0246309Y0070085D01*
G75*
G02*
X0246801Y0069593I0000000J-000492D01*
G01*
G37*
G36*
G01*
X0242471Y0069593D02*
X0242471Y0068609D01*
G75*
G02*
X0241978Y0068117I-000492J0000000D01*
G01*
X0241978Y0068117D01*
G75*
G02*
X0241486Y0068609I0000000J0000492D01*
G01*
X0241486Y0069593D01*
G75*
G02*
X0241978Y0070085I0000492J0000000D01*
G01*
X0241978Y0070085D01*
G75*
G02*
X0242471Y0069593I0000000J-000492D01*
G01*
G37*
G36*
G01*
X0238140Y0069593D02*
X0238140Y0068609D01*
G75*
G02*
X0237648Y0068117I-000492J0000000D01*
G01*
X0237648Y0068117D01*
G75*
G02*
X0237156Y0068609I0000000J0000492D01*
G01*
X0237156Y0069593D01*
G75*
G02*
X0237648Y0070085I0000492J0000000D01*
G01*
X0237648Y0070085D01*
G75*
G02*
X0238140Y0069593I0000000J-000492D01*
G01*
G37*
G36*
G01*
X0233809Y0069593D02*
X0233809Y0068609D01*
G75*
G02*
X0233317Y0068117I-000492J0000000D01*
G01*
X0233317Y0068117D01*
G75*
G02*
X0232825Y0068609I0000000J0000492D01*
G01*
X0232825Y0069593D01*
G75*
G02*
X0233317Y0070085I0000492J0000000D01*
G01*
X0233317Y0070085D01*
G75*
G02*
X0233809Y0069593I0000000J-000492D01*
G01*
G37*
G36*
G01*
X0229478Y0069593D02*
X0229478Y0068609D01*
G75*
G02*
X0228986Y0068117I-000492J0000000D01*
G01*
X0228986Y0068117D01*
G75*
G02*
X0228494Y0068609I0000000J0000492D01*
G01*
X0228494Y0069593D01*
G75*
G02*
X0228986Y0070085I0000492J0000000D01*
G01*
X0228986Y0070085D01*
G75*
G02*
X0229478Y0069593I0000000J-000492D01*
G01*
G37*
G36*
G01*
X0225148Y0069593D02*
X0225148Y0068609D01*
G75*
G02*
X0224656Y0068117I-000492J0000000D01*
G01*
X0224656Y0068117D01*
G75*
G02*
X0224164Y0068609I0000000J0000492D01*
G01*
X0224164Y0069593D01*
G75*
G02*
X0224656Y0070085I0000492J0000000D01*
G01*
X0224656Y0070085D01*
G75*
G02*
X0225148Y0069593I0000000J-000492D01*
G01*
G37*
G36*
G01*
X0220817Y0069593D02*
X0220817Y0068609D01*
G75*
G02*
X0220325Y0068117I-000492J0000000D01*
G01*
X0220325Y0068117D01*
G75*
G02*
X0219833Y0068609I0000000J0000492D01*
G01*
X0219833Y0069593D01*
G75*
G02*
X0220325Y0070085I0000492J0000000D01*
G01*
X0220325Y0070085D01*
G75*
G02*
X0220817Y0069593I0000000J-000492D01*
G01*
G37*
G36*
G01*
X0216486Y0069593D02*
X0216486Y0068609D01*
G75*
G02*
X0215994Y0068117I-000492J0000000D01*
G01*
X0215994Y0068117D01*
G75*
G02*
X0215502Y0068609I0000000J0000492D01*
G01*
X0215502Y0069593D01*
G75*
G02*
X0215994Y0070085I0000492J0000000D01*
G01*
X0215994Y0070085D01*
G75*
G02*
X0216486Y0069593I0000000J-000492D01*
G01*
G37*
G36*
G01*
X0212156Y0069593D02*
X0212156Y0068609D01*
G75*
G02*
X0211664Y0068117I-000492J0000000D01*
G01*
X0211664Y0068117D01*
G75*
G02*
X0211171Y0068609I0000000J0000492D01*
G01*
X0211171Y0069593D01*
G75*
G02*
X0211664Y0070085I0000492J0000000D01*
G01*
X0211664Y0070085D01*
G75*
G02*
X0212156Y0069593I0000000J-000492D01*
G01*
G37*
G36*
G01*
X0207825Y0069593D02*
X0207825Y0068609D01*
G75*
G02*
X0207333Y0068117I-000492J0000000D01*
G01*
X0207333Y0068117D01*
G75*
G02*
X0206841Y0068609I0000000J0000492D01*
G01*
X0206841Y0069593D01*
G75*
G02*
X0207333Y0070085I0000492J0000000D01*
G01*
X0207333Y0070085D01*
G75*
G02*
X0207825Y0069593I0000000J-000492D01*
G01*
G37*
G36*
G01*
X0203494Y0069593D02*
X0203494Y0068609D01*
G75*
G02*
X0203002Y0068117I-000492J0000000D01*
G01*
X0203002Y0068117D01*
G75*
G02*
X0202510Y0068609I0000000J0000492D01*
G01*
X0202510Y0069593D01*
G75*
G02*
X0203002Y0070085I0000492J0000000D01*
G01*
X0203002Y0070085D01*
G75*
G02*
X0203494Y0069593I0000000J-000492D01*
G01*
G37*
G36*
G01*
X0199164Y0069593D02*
X0199164Y0068609D01*
G75*
G02*
X0198671Y0068117I-000492J0000000D01*
G01*
X0198671Y0068117D01*
G75*
G02*
X0198179Y0068609I0000000J0000492D01*
G01*
X0198179Y0069593D01*
G75*
G02*
X0198671Y0070085I0000492J0000000D01*
G01*
X0198671Y0070085D01*
G75*
G02*
X0199164Y0069593I0000000J-000492D01*
G01*
G37*
G36*
G01*
X0194833Y0069593D02*
X0194833Y0068609D01*
G75*
G02*
X0194341Y0068117I-000492J0000000D01*
G01*
X0194341Y0068117D01*
G75*
G02*
X0193849Y0068609I0000000J0000492D01*
G01*
X0193849Y0069593D01*
G75*
G02*
X0194341Y0070085I0000492J0000000D01*
G01*
X0194341Y0070085D01*
G75*
G02*
X0194833Y0069593I0000000J-000492D01*
G01*
G37*
G36*
G01*
X0190502Y0069593D02*
X0190502Y0068609D01*
G75*
G02*
X0190010Y0068117I-000492J0000000D01*
G01*
X0190010Y0068117D01*
G75*
G02*
X0189518Y0068609I0000000J0000492D01*
G01*
X0189518Y0069593D01*
G75*
G02*
X0190010Y0070085I0000492J0000000D01*
G01*
X0190010Y0070085D01*
G75*
G02*
X0190502Y0069593I0000000J-000492D01*
G01*
G37*
G36*
G01*
X0218061Y0211046D02*
X0218061Y0210062D01*
G75*
G02*
X0217569Y0209569I-000492J0000000D01*
G01*
X0217569Y0209569D01*
G75*
G02*
X0217077Y0210062I0000000J0000492D01*
G01*
X0217077Y0211046D01*
G75*
G02*
X0217569Y0211538I0000492J0000000D01*
G01*
X0217569Y0211538D01*
G75*
G02*
X0218061Y0211046I0000000J-000492D01*
G01*
G37*
G36*
G01*
X0222274Y0210062D02*
X0222274Y0211046D01*
G75*
G02*
X0222766Y0211538I0000492J0000000D01*
G01*
X0222766Y0211538D01*
G75*
G02*
X0223258Y0211046I0000000J-000492D01*
G01*
X0223258Y0210062D01*
G75*
G02*
X0222766Y0209569I-000492J0000000D01*
G01*
X0222766Y0209569D01*
G75*
G02*
X0222274Y0210062I0000000J0000492D01*
G01*
G37*
G36*
G01*
X0227470Y0210062D02*
X0227470Y0211046D01*
G75*
G02*
X0227963Y0211538I0000492J0000000D01*
G01*
X0227963Y0211538D01*
G75*
G02*
X0228455Y0211046I0000000J-000492D01*
G01*
X0228455Y0210062D01*
G75*
G02*
X0227963Y0209569I-000492J0000000D01*
G01*
X0227963Y0209569D01*
G75*
G02*
X0227470Y0210062I0000000J0000492D01*
G01*
G37*
G36*
G01*
X0231801Y0210062D02*
X0231801Y0211046D01*
G75*
G02*
X0232293Y0211538I0000492J0000000D01*
G01*
X0232293Y0211538D01*
G75*
G02*
X0232785Y0211046I0000000J-000492D01*
G01*
X0232785Y0210062D01*
G75*
G02*
X0232293Y0209569I-000492J0000000D01*
G01*
X0232293Y0209569D01*
G75*
G02*
X0231801Y0210062I0000000J0000492D01*
G01*
G37*
G36*
G01*
X0236132Y0210062D02*
X0236132Y0211046D01*
G75*
G02*
X0236624Y0211538I0000492J0000000D01*
G01*
X0236624Y0211538D01*
G75*
G02*
X0237116Y0211046I0000000J-000492D01*
G01*
X0237116Y0210062D01*
G75*
G02*
X0236624Y0209569I-000492J0000000D01*
G01*
X0236624Y0209569D01*
G75*
G02*
X0236132Y0210062I0000000J0000492D01*
G01*
G37*
G36*
G01*
X0240463Y0210062D02*
X0240463Y0211046D01*
G75*
G02*
X0240955Y0211538I0000492J0000000D01*
G01*
X0240955Y0211538D01*
G75*
G02*
X0241447Y0211046I0000000J-000492D01*
G01*
X0241447Y0210062D01*
G75*
G02*
X0240955Y0209569I-000492J0000000D01*
G01*
X0240955Y0209569D01*
G75*
G02*
X0240463Y0210062I0000000J0000492D01*
G01*
G37*
G36*
G01*
X0244793Y0210062D02*
X0244793Y0211046D01*
G75*
G02*
X0245285Y0211538I0000492J0000000D01*
G01*
X0245285Y0211538D01*
G75*
G02*
X0245778Y0211046I0000000J-000492D01*
G01*
X0245778Y0210062D01*
G75*
G02*
X0245285Y0209569I-000492J0000000D01*
G01*
X0245285Y0209569D01*
G75*
G02*
X0244793Y0210062I0000000J0000492D01*
G01*
G37*
G36*
G01*
X0249124Y0210062D02*
X0249124Y0211046D01*
G75*
G02*
X0249616Y0211538I0000492J0000000D01*
G01*
X0249616Y0211538D01*
G75*
G02*
X0250108Y0211046I0000000J-000492D01*
G01*
X0250108Y0210062D01*
G75*
G02*
X0249616Y0209569I-000492J0000000D01*
G01*
X0249616Y0209569D01*
G75*
G02*
X0249124Y0210062I0000000J0000492D01*
G01*
G37*
G36*
G01*
X0253455Y0210062D02*
X0253455Y0211046D01*
G75*
G02*
X0253947Y0211538I0000492J0000000D01*
G01*
X0253947Y0211538D01*
G75*
G02*
X0254439Y0211046I0000000J-000492D01*
G01*
X0254439Y0210062D01*
G75*
G02*
X0253947Y0209569I-000492J0000000D01*
G01*
X0253947Y0209569D01*
G75*
G02*
X0253455Y0210062I0000000J0000492D01*
G01*
G37*
G36*
G01*
X0257785Y0210062D02*
X0257785Y0211046D01*
G75*
G02*
X0258278Y0211538I0000492J0000000D01*
G01*
X0258278Y0211538D01*
G75*
G02*
X0258770Y0211046I0000000J-000492D01*
G01*
X0258770Y0210062D01*
G75*
G02*
X0258278Y0209569I-000492J0000000D01*
G01*
X0258278Y0209569D01*
G75*
G02*
X0257785Y0210062I0000000J0000492D01*
G01*
G37*
G36*
G01*
X0262116Y0210062D02*
X0262116Y0211046D01*
G75*
G02*
X0262608Y0211538I0000492J0000000D01*
G01*
X0262608Y0211538D01*
G75*
G02*
X0263100Y0211046I0000000J-000492D01*
G01*
X0263100Y0210062D01*
G75*
G02*
X0262608Y0209569I-000492J0000000D01*
G01*
X0262608Y0209569D01*
G75*
G02*
X0262116Y0210062I0000000J0000492D01*
G01*
G37*
G36*
G01*
X0266447Y0210062D02*
X0266447Y0211046D01*
G75*
G02*
X0266939Y0211538I0000492J0000000D01*
G01*
X0266939Y0211538D01*
G75*
G02*
X0267431Y0211046I0000000J-000492D01*
G01*
X0267431Y0210062D01*
G75*
G02*
X0266939Y0209569I-000492J0000000D01*
G01*
X0266939Y0209569D01*
G75*
G02*
X0266447Y0210062I0000000J0000492D01*
G01*
G37*
G36*
G01*
X0270777Y0210062D02*
X0270777Y0211046D01*
G75*
G02*
X0271270Y0211538I0000492J0000000D01*
G01*
X0271270Y0211538D01*
G75*
G02*
X0271762Y0211046I0000000J-000492D01*
G01*
X0271762Y0210062D01*
G75*
G02*
X0271270Y0209569I-000492J0000000D01*
G01*
X0271270Y0209569D01*
G75*
G02*
X0270777Y0210062I0000000J0000492D01*
G01*
G37*
G36*
G01*
X0275108Y0210062D02*
X0275108Y0211046D01*
G75*
G02*
X0275600Y0211538I0000492J0000000D01*
G01*
X0275600Y0211538D01*
G75*
G02*
X0276092Y0211046I0000000J-000492D01*
G01*
X0276092Y0210062D01*
G75*
G02*
X0275600Y0209569I-000492J0000000D01*
G01*
X0275600Y0209569D01*
G75*
G02*
X0275108Y0210062I0000000J0000492D01*
G01*
G37*
G36*
G01*
X0279439Y0210062D02*
X0279439Y0211046D01*
G75*
G02*
X0279931Y0211538I0000492J0000000D01*
G01*
X0279931Y0211538D01*
G75*
G02*
X0280423Y0211046I0000000J-000492D01*
G01*
X0280423Y0210062D01*
G75*
G02*
X0279931Y0209569I-000492J0000000D01*
G01*
X0279931Y0209569D01*
G75*
G02*
X0279439Y0210062I0000000J0000492D01*
G01*
G37*
G36*
G01*
X0283770Y0210062D02*
X0283770Y0211046D01*
G75*
G02*
X0284262Y0211538I0000492J0000000D01*
G01*
X0284262Y0211538D01*
G75*
G02*
X0284754Y0211046I0000000J-000492D01*
G01*
X0284754Y0210062D01*
G75*
G02*
X0284262Y0209569I-000492J0000000D01*
G01*
X0284262Y0209569D01*
G75*
G02*
X0283770Y0210062I0000000J0000492D01*
G01*
G37*
G36*
G01*
X0288100Y0210062D02*
X0288100Y0211046D01*
G75*
G02*
X0288592Y0211538I0000492J0000000D01*
G01*
X0288592Y0211538D01*
G75*
G02*
X0289085Y0211046I0000000J-000492D01*
G01*
X0289085Y0210062D01*
G75*
G02*
X0288592Y0209569I-000492J0000000D01*
G01*
X0288592Y0209569D01*
G75*
G02*
X0288100Y0210062I0000000J0000492D01*
G01*
G37*
G36*
G01*
X0292431Y0210062D02*
X0292431Y0211046D01*
G75*
G02*
X0292923Y0211538I0000492J0000000D01*
G01*
X0292923Y0211538D01*
G75*
G02*
X0293415Y0211046I0000000J-000492D01*
G01*
X0293415Y0210062D01*
G75*
G02*
X0292923Y0209569I-000492J0000000D01*
G01*
X0292923Y0209569D01*
G75*
G02*
X0292431Y0210062I0000000J0000492D01*
G01*
G37*
G36*
G01*
X0296762Y0210062D02*
X0296762Y0211046D01*
G75*
G02*
X0297254Y0211538I0000492J0000000D01*
G01*
X0297254Y0211538D01*
G75*
G02*
X0297746Y0211046I0000000J-000492D01*
G01*
X0297746Y0210062D01*
G75*
G02*
X0297254Y0209569I-000492J0000000D01*
G01*
X0297254Y0209569D01*
G75*
G02*
X0296762Y0210062I0000000J0000492D01*
G01*
G37*
G36*
G01*
X0301092Y0210062D02*
X0301092Y0211046D01*
G75*
G02*
X0301585Y0211538I0000492J0000000D01*
G01*
X0301585Y0211538D01*
G75*
G02*
X0302077Y0211046I0000000J-000492D01*
G01*
X0302077Y0210062D01*
G75*
G02*
X0301585Y0209569I-000492J0000000D01*
G01*
X0301585Y0209569D01*
G75*
G02*
X0301092Y0210062I0000000J0000492D01*
G01*
G37*
G36*
G01*
X0305423Y0210062D02*
X0305423Y0211046D01*
G75*
G02*
X0305915Y0211538I0000492J0000000D01*
G01*
X0305915Y0211538D01*
G75*
G02*
X0306407Y0211046I0000000J-000492D01*
G01*
X0306407Y0210062D01*
G75*
G02*
X0305915Y0209569I-000492J0000000D01*
G01*
X0305915Y0209569D01*
G75*
G02*
X0305423Y0210062I0000000J0000492D01*
G01*
G37*
G36*
G01*
X0309754Y0210062D02*
X0309754Y0211046D01*
G75*
G02*
X0310246Y0211538I0000492J0000000D01*
G01*
X0310246Y0211538D01*
G75*
G02*
X0310738Y0211046I0000000J-000492D01*
G01*
X0310738Y0210062D01*
G75*
G02*
X0310246Y0209569I-000492J0000000D01*
G01*
X0310246Y0209569D01*
G75*
G02*
X0309754Y0210062I0000000J0000492D01*
G01*
G37*
G36*
G01*
X0314084Y0210062D02*
X0314084Y0211046D01*
G75*
G02*
X0314577Y0211538I0000492J0000000D01*
G01*
X0314577Y0211538D01*
G75*
G02*
X0315069Y0211046I0000000J-000492D01*
G01*
X0315069Y0210062D01*
G75*
G02*
X0314577Y0209569I-000492J0000000D01*
G01*
X0314577Y0209569D01*
G75*
G02*
X0314084Y0210062I0000000J0000492D01*
G01*
G37*
G36*
G01*
X0318415Y0210062D02*
X0318415Y0211046D01*
G75*
G02*
X0318907Y0211538I0000492J0000000D01*
G01*
X0318907Y0211538D01*
G75*
G02*
X0319399Y0211046I0000000J-000492D01*
G01*
X0319399Y0210062D01*
G75*
G02*
X0318907Y0209569I-000492J0000000D01*
G01*
X0318907Y0209569D01*
G75*
G02*
X0318415Y0210062I0000000J0000492D01*
G01*
G37*
G36*
G01*
X0322746Y0210062D02*
X0322746Y0211046D01*
G75*
G02*
X0323238Y0211538I0000492J0000000D01*
G01*
X0323238Y0211538D01*
G75*
G02*
X0323730Y0211046I0000000J-000492D01*
G01*
X0323730Y0210062D01*
G75*
G02*
X0323238Y0209569I-000492J0000000D01*
G01*
X0323238Y0209569D01*
G75*
G02*
X0322746Y0210062I0000000J0000492D01*
G01*
G37*
G36*
G01*
X0327077Y0210062D02*
X0327077Y0211046D01*
G75*
G02*
X0327569Y0211538I0000492J0000000D01*
G01*
X0327569Y0211538D01*
G75*
G02*
X0328061Y0211046I0000000J-000492D01*
G01*
X0328061Y0210062D01*
G75*
G02*
X0327569Y0209569I-000492J0000000D01*
G01*
X0327569Y0209569D01*
G75*
G02*
X0327077Y0210062I0000000J0000492D01*
G01*
G37*
G36*
G01*
X0331407Y0210062D02*
X0331407Y0211046D01*
G75*
G02*
X0331899Y0211538I0000492J0000000D01*
G01*
X0331899Y0211538D01*
G75*
G02*
X0332392Y0211046I0000000J-000492D01*
G01*
X0332392Y0210062D01*
G75*
G02*
X0331899Y0209569I-000492J0000000D01*
G01*
X0331899Y0209569D01*
G75*
G02*
X0331407Y0210062I0000000J0000492D01*
G01*
G37*
G36*
G01*
X0335738Y0210062D02*
X0335738Y0211046D01*
G75*
G02*
X0336230Y0211538I0000492J0000000D01*
G01*
X0336230Y0211538D01*
G75*
G02*
X0336722Y0211046I0000000J-000492D01*
G01*
X0336722Y0210062D01*
G75*
G02*
X0336230Y0209569I-000492J0000000D01*
G01*
X0336230Y0209569D01*
G75*
G02*
X0335738Y0210062I0000000J0000492D01*
G01*
G37*
G36*
G01*
X0340069Y0210062D02*
X0340069Y0211046D01*
G75*
G02*
X0340561Y0211538I0000492J0000000D01*
G01*
X0340561Y0211538D01*
G75*
G02*
X0341053Y0211046I0000000J-000492D01*
G01*
X0341053Y0210062D01*
G75*
G02*
X0340561Y0209569I-000492J0000000D01*
G01*
X0340561Y0209569D01*
G75*
G02*
X0340069Y0210062I0000000J0000492D01*
G01*
G37*
G36*
G01*
X0344399Y0210062D02*
X0344399Y0211046D01*
G75*
G02*
X0344892Y0211538I0000492J0000000D01*
G01*
X0344892Y0211538D01*
G75*
G02*
X0345384Y0211046I0000000J-000492D01*
G01*
X0345384Y0210062D01*
G75*
G02*
X0344892Y0209569I-000492J0000000D01*
G01*
X0344892Y0209569D01*
G75*
G02*
X0344399Y0210062I0000000J0000492D01*
G01*
G37*
G36*
G01*
X0348730Y0210062D02*
X0348730Y0211046D01*
G75*
G02*
X0349222Y0211538I0000492J0000000D01*
G01*
X0349222Y0211538D01*
G75*
G02*
X0349714Y0211046I0000000J-000492D01*
G01*
X0349714Y0210062D01*
G75*
G02*
X0349222Y0209569I-000492J0000000D01*
G01*
X0349222Y0209569D01*
G75*
G02*
X0348730Y0210062I0000000J0000492D01*
G01*
G37*
G36*
G01*
X0353061Y0210062D02*
X0353061Y0211046D01*
G75*
G02*
X0353553Y0211538I0000492J0000000D01*
G01*
X0353553Y0211538D01*
G75*
G02*
X0354045Y0211046I0000000J-000492D01*
G01*
X0354045Y0210062D01*
G75*
G02*
X0353553Y0209569I-000492J0000000D01*
G01*
X0353553Y0209569D01*
G75*
G02*
X0353061Y0210062I0000000J0000492D01*
G01*
G37*
G36*
G01*
X0357391Y0210062D02*
X0357391Y0211046D01*
G75*
G02*
X0357884Y0211538I0000492J0000000D01*
G01*
X0357884Y0211538D01*
G75*
G02*
X0358376Y0211046I0000000J-000492D01*
G01*
X0358376Y0210062D01*
G75*
G02*
X0357884Y0209569I-000492J0000000D01*
G01*
X0357884Y0209569D01*
G75*
G02*
X0357391Y0210062I0000000J0000492D01*
G01*
G37*
G36*
G01*
X0363337Y0092711D02*
X0364321Y0092711D01*
G75*
G02*
X0364813Y0092219I0000000J-000492D01*
G01*
X0364813Y0092219D01*
G75*
G02*
X0364321Y0091727I-000492J0000000D01*
G01*
X0363337Y0091727D01*
G75*
G02*
X0362844Y0092219I0000000J0000492D01*
G01*
X0362844Y0092219D01*
G75*
G02*
X0363337Y0092711I0000492J0000000D01*
G01*
G37*
G36*
G01*
X0363337Y0090113D02*
X0364321Y0090113D01*
G75*
G02*
X0364813Y0089621I0000000J-000492D01*
G01*
X0364813Y0089621D01*
G75*
G02*
X0364321Y0089128I-000492J0000000D01*
G01*
X0363337Y0089128D01*
G75*
G02*
X0362844Y0089621I0000000J0000492D01*
G01*
X0362844Y0089621D01*
G75*
G02*
X0363337Y0090113I0000492J0000000D01*
G01*
G37*
G36*
G01*
X0363337Y0087514D02*
X0364321Y0087514D01*
G75*
G02*
X0364813Y0087022I0000000J-000492D01*
G01*
X0364813Y0087022D01*
G75*
G02*
X0364321Y0086530I-000492J0000000D01*
G01*
X0363337Y0086530D01*
G75*
G02*
X0362844Y0087022I0000000J0000492D01*
G01*
X0362844Y0087022D01*
G75*
G02*
X0363337Y0087514I0000492J0000000D01*
G01*
G37*
G36*
G01*
X0363337Y0084916D02*
X0364321Y0084916D01*
G75*
G02*
X0364813Y0084424I0000000J-000492D01*
G01*
X0364813Y0084424D01*
G75*
G02*
X0364321Y0083932I-000492J0000000D01*
G01*
X0363337Y0083932D01*
G75*
G02*
X0362844Y0084424I0000000J0000492D01*
G01*
X0362844Y0084424D01*
G75*
G02*
X0363337Y0084916I0000492J0000000D01*
G01*
G37*
G36*
G01*
X0363337Y0082317D02*
X0364321Y0082317D01*
G75*
G02*
X0364813Y0081825I0000000J-000492D01*
G01*
X0364813Y0081825D01*
G75*
G02*
X0364321Y0081333I-000492J0000000D01*
G01*
X0363337Y0081333D01*
G75*
G02*
X0362844Y0081825I0000000J0000492D01*
G01*
X0362844Y0081825D01*
G75*
G02*
X0363337Y0082317I0000492J0000000D01*
G01*
G37*
G36*
G01*
X0363337Y0079719D02*
X0364321Y0079719D01*
G75*
G02*
X0364813Y0079227I0000000J-000492D01*
G01*
X0364813Y0079227D01*
G75*
G02*
X0364321Y0078735I-000492J0000000D01*
G01*
X0363337Y0078735D01*
G75*
G02*
X0362844Y0079227I0000000J0000492D01*
G01*
X0362844Y0079227D01*
G75*
G02*
X0363337Y0079719I0000492J0000000D01*
G01*
G37*
G36*
G01*
X0363337Y0077121D02*
X0364321Y0077121D01*
G75*
G02*
X0364813Y0076628I0000000J-000492D01*
G01*
X0364813Y0076628D01*
G75*
G02*
X0364321Y0076136I-000492J0000000D01*
G01*
X0363337Y0076136D01*
G75*
G02*
X0362844Y0076628I0000000J0000492D01*
G01*
X0362844Y0076628D01*
G75*
G02*
X0363337Y0077121I0000492J0000000D01*
G01*
G37*
G36*
G01*
X0363337Y0074522D02*
X0364321Y0074522D01*
G75*
G02*
X0364813Y0074030I0000000J-000492D01*
G01*
X0364813Y0074030D01*
G75*
G02*
X0364321Y0073538I-000492J0000000D01*
G01*
X0363337Y0073538D01*
G75*
G02*
X0362844Y0074030I0000000J0000492D01*
G01*
X0362844Y0074030D01*
G75*
G02*
X0363337Y0074522I0000492J0000000D01*
G01*
G37*
G36*
G01*
X0363337Y0071924D02*
X0364321Y0071924D01*
G75*
G02*
X0364813Y0071432I0000000J-000492D01*
G01*
X0364813Y0071432D01*
G75*
G02*
X0364321Y0070939I-000492J0000000D01*
G01*
X0363337Y0070939D01*
G75*
G02*
X0362844Y0071432I0000000J0000492D01*
G01*
X0362844Y0071432D01*
G75*
G02*
X0363337Y0071924I0000492J0000000D01*
G01*
G37*
G36*
G01*
X0363337Y0069325D02*
X0364321Y0069325D01*
G75*
G02*
X0364813Y0068833I0000000J-000492D01*
G01*
X0364813Y0068833D01*
G75*
G02*
X0364321Y0068341I-000492J0000000D01*
G01*
X0363337Y0068341D01*
G75*
G02*
X0362844Y0068833I0000000J0000492D01*
G01*
X0362844Y0068833D01*
G75*
G02*
X0363337Y0069325I0000492J0000000D01*
G01*
G37*
X0328669Y0366890D03*
X0328669Y0381890D03*
X0030315Y0368287D03*
X0030315Y0383287D03*
X0194488Y0368878D03*
X0194488Y0383878D03*
D106*
X0034154Y0213583D03*
X0063681Y0213583D03*
X0066831Y0213583D03*
X0069980Y0213583D03*
X0041634Y0282579D03*
X0037697Y0282579D03*
D200*
X0139173Y0383268D03*
X0139173Y0363976D03*
X0336669Y0366890D03*
X0336669Y0381890D03*
X0371654Y0367106D03*
X0371654Y0382106D03*
X0344669Y0367079D03*
X0344669Y0382079D03*
D102*
X0370079Y0421654D03*
X0213386Y0421654D03*
D236*
X0241535Y0398031D03*
X0257283Y0398031D03*
X0271063Y0398031D03*
X0284843Y0398031D03*
X0298622Y0398031D03*
X0312402Y0398031D03*
X0326181Y0398031D03*
X0341929Y0398031D03*
X0241535Y0413780D03*
X0257283Y0413780D03*
X0271063Y0413780D03*
X0284843Y0413780D03*
X0298622Y0413780D03*
X0312402Y0413780D03*
X0326181Y0413780D03*
X0341929Y0413780D03*
X0241535Y0429528D03*
X0257283Y0429528D03*
X0271063Y0429528D03*
X0284843Y0429528D03*
X0298622Y0429528D03*
X0312402Y0429528D03*
X0326181Y0429528D03*
X0341929Y0429528D03*
D200*
X0221654Y0381496D03*
X0221654Y0362205D03*
D106*
X0158071Y0034449D03*
X0305170Y0034449D03*
X0256890Y0034449D03*
X0200984Y0034449D03*
X0299705Y0049409D03*
D200*
X0196260Y0409626D03*
X0196260Y0424626D03*
X0243504Y0364941D03*
X0243504Y0379941D03*
X0230906Y0381673D03*
X0230906Y0362382D03*
X0310236Y0382067D03*
X0310236Y0362776D03*
D38*
X0018504Y0010236D03*
X0169834Y0045409D02*
G01*
G75*
D77*
X0135808Y0070380D02*
D03*
X0109992Y0102693D02*
D03*
X0137747Y0077791D02*
D03*
X0142177Y0048854D02*
D03*
X0115208Y0070311D02*
D03*
X0307677Y0061614D02*
G01*
G75*
D77*
X0200984Y0034449D02*
D03*
X0158071Y0034449D02*
D03*
X0299705Y0049409D02*
D03*
X0256890Y0034449D02*
D03*
X0305170Y0034449D02*
D03*
X0098031Y0185827D02*
%LPD*%
G01*
D106*
X0101476Y0115355D03*
X0131003Y0115355D03*
X0134153Y0115355D03*
X0137303Y0115355D03*
X0108956Y0184351D03*
X0105019Y0184351D03*
X0311535Y0004331D02*
G01*
G75*
D77*
X0317834Y0053839D02*
D03*
X0333878Y0052658D02*
D03*
X0341161Y0025591D02*
D03*
X0336004Y0028150D02*
D03*
X0334232Y0034548D02*
D03*
X0341161Y0033268D02*
D03*
X0333937Y0037894D02*
D03*
X0333090Y0041339D02*
D03*
X0341161Y0043504D02*
D03*
X0333937Y0045177D02*
D03*
X0362500Y0276298D02*
G01*
G75*
D348*
X0241831Y0272053D02*
D03*
X0241831Y0251266D02*
D03*
X0241831Y0253864D02*
D03*
X0241831Y0256463D02*
D03*
X0241831Y0259061D02*
D03*
D347*
X0342106Y0219892D02*
D03*
X0346437Y0219892D02*
D03*
X0350768Y0219892D02*
D03*
X0355098Y0219892D02*
D03*
X0247819Y0274861D02*
D03*
X0250417Y0274861D02*
D03*
X0253016Y0274861D02*
D03*
X0255614Y0274861D02*
D03*
X0258213Y0274861D02*
D03*
X0260811Y0274861D02*
D03*
X0267114Y0274861D02*
D03*
X0269713Y0274861D02*
D03*
X0272311Y0274861D02*
D03*
X0276724Y0274861D02*
D03*
X0279322Y0274861D02*
D03*
X0281921Y0274861D02*
D03*
X0284519Y0274861D02*
D03*
X0297614Y0274861D02*
D03*
X0300213Y0274861D02*
D03*
X0302811Y0274861D02*
D03*
X0313228Y0274861D02*
D03*
X0315827Y0274861D02*
D03*
X0318425Y0274861D02*
D03*
X0321024Y0274861D02*
D03*
X0323622Y0274861D02*
D03*
X0326220Y0274861D02*
D03*
X0328819Y0274861D02*
D03*
X0331417Y0274861D02*
D03*
X0334016Y0274861D02*
D03*
X0336614Y0274861D02*
D03*
X0337776Y0219892D02*
D03*
X0333445Y0219892D02*
D03*
X0329114Y0219892D02*
D03*
X0324784Y0219892D02*
D03*
X0320453Y0219892D02*
D03*
X0316122Y0219892D02*
D03*
X0311791Y0219892D02*
D03*
X0307461Y0219892D02*
D03*
X0303130Y0219892D02*
D03*
X0298799Y0219892D02*
D03*
X0294469Y0219892D02*
D03*
X0290138Y0219892D02*
D03*
X0285807Y0219892D02*
D03*
X0281476Y0219892D02*
D03*
X0277146Y0219892D02*
D03*
X0272815Y0219892D02*
D03*
X0268484Y0219892D02*
D03*
X0264154Y0219892D02*
D03*
X0259823Y0219892D02*
D03*
X0255492Y0219892D02*
D03*
X0251162Y0219892D02*
D03*
X0246831Y0219892D02*
D03*
X0365699Y0212613D02*
G01*
G75*
D212*
X0192274Y0097692D02*
D03*
X0188274Y0117692D02*
D03*
X0196274Y0117692D02*
D03*
D347*
X0299616Y0069101D02*
D03*
X0304852Y0069101D02*
D03*
X0203002Y0069101D02*
D03*
X0198672Y0069101D02*
D03*
X0194341Y0069101D02*
D03*
X0340561Y0210554D02*
D03*
X0344892Y0210554D02*
D03*
X0349222Y0210554D02*
D03*
X0353553Y0210554D02*
D03*
X0232294Y0210554D02*
D03*
X0227963Y0210554D02*
D03*
X0222766Y0210554D02*
D03*
X0217569Y0210554D02*
D03*
X0236624Y0210554D02*
D03*
X0240955Y0210554D02*
D03*
X0245286Y0210554D02*
D03*
X0249616Y0210554D02*
D03*
X0253947Y0210554D02*
D03*
X0258278Y0210554D02*
D03*
X0262608Y0210554D02*
D03*
X0266939Y0210554D02*
D03*
X0271270Y0210554D02*
D03*
X0275600Y0210554D02*
D03*
X0279931Y0210554D02*
D03*
X0284262Y0210554D02*
D03*
X0288593Y0210554D02*
D03*
X0292923Y0210554D02*
D03*
X0297254Y0210554D02*
D03*
X0301585Y0210554D02*
D03*
X0305915Y0210554D02*
D03*
X0310246Y0210554D02*
D03*
X0314577Y0210554D02*
D03*
X0318908Y0210554D02*
D03*
X0323238Y0210554D02*
D03*
X0327569Y0210554D02*
D03*
X0302234Y0069101D02*
D03*
X0307845Y0069101D02*
D03*
X0313041Y0069101D02*
D03*
X0318238Y0069101D02*
D03*
X0296998Y0069101D02*
D03*
X0293947Y0069101D02*
D03*
X0289616Y0069101D02*
D03*
X0285286Y0069101D02*
D03*
X0280955Y0069101D02*
D03*
X0276624Y0069101D02*
D03*
X0272294Y0069101D02*
D03*
X0267963Y0069101D02*
D03*
X0263632Y0069101D02*
D03*
X0259301Y0069101D02*
D03*
X0254971Y0069101D02*
D03*
X0250640Y0069101D02*
D03*
X0246309Y0069101D02*
D03*
X0241979Y0069101D02*
D03*
X0237648Y0069101D02*
D03*
X0233317Y0069101D02*
D03*
X0228986Y0069101D02*
D03*
X0224656Y0069101D02*
D03*
X0220325Y0069101D02*
D03*
X0215994Y0069101D02*
D03*
X0211664Y0069101D02*
D03*
X0207333Y0069101D02*
D03*
X0331900Y0210554D02*
D03*
X0336230Y0210554D02*
D03*
X0357884Y0210554D02*
D03*
X0190010Y0069101D02*
D03*
D415*
X0184589Y0163302D02*
D03*
X0184589Y0165900D02*
D03*
X0184589Y0168499D02*
D03*
X0184589Y0171097D02*
D03*
X0184589Y0173696D02*
D03*
X0184589Y0176294D02*
D03*
X0184589Y0178893D02*
D03*
X0184589Y0181491D02*
D03*
X0184589Y0093145D02*
D03*
X0184589Y0090546D02*
D03*
X0184589Y0087948D02*
D03*
X0184589Y0085349D02*
D03*
X0184589Y0095743D02*
D03*
X0184589Y0108735D02*
D03*
X0184589Y0111334D02*
D03*
X0184589Y0113932D02*
D03*
X0184589Y0116530D02*
D03*
X0184589Y0119129D02*
D03*
X0184589Y0121727D02*
D03*
X0184589Y0124326D02*
D03*
X0184589Y0126924D02*
D03*
X0184589Y0129522D02*
D03*
X0184589Y0132121D02*
D03*
X0184589Y0134719D02*
D03*
X0184589Y0137318D02*
D03*
X0184589Y0139916D02*
D03*
X0184589Y0142515D02*
D03*
X0184589Y0145113D02*
D03*
X0184589Y0147711D02*
D03*
X0184589Y0150310D02*
D03*
X0184589Y0152908D02*
D03*
X0184589Y0155507D02*
D03*
X0184589Y0158105D02*
D03*
X0184589Y0160704D02*
D03*
X0363829Y0074030D02*
D03*
X0363829Y0076629D02*
D03*
X0363829Y0079227D02*
D03*
X0363829Y0081826D02*
D03*
X0363829Y0084424D02*
D03*
X0363829Y0087022D02*
D03*
X0363829Y0089621D02*
D03*
X0363829Y0092219D02*
D03*
X0363829Y0068833D02*
D03*
X0363829Y0071432D02*
D03*
X0234055Y0028740D02*
G01*
G75*
D77*
X0202854Y0004331D02*
D03*
X0202559Y0018307D02*
D03*
X0203740Y0023327D02*
D03*
X0207185Y0021260D02*
D03*
X0030709Y0284055D02*
%LPD*%
G01*
D106*
X0034154Y0213583D03*
X0063681Y0213583D03*
X0066831Y0213583D03*
X0069981Y0213583D03*
X0041634Y0282579D03*
X0037697Y0282579D03*
M02*
