M48
INCH,TZ
T01C0.011800
T02C0.019700
T03C0.032000
T04C0.039200
T05C0.059100
T06C0.098400
T07C0.137800
%
T01
X10999Y10269
X11521Y7031
X13581Y7038
X13775Y7779
X14218Y4885
X15807Y3445
X20098Y3445
X20256Y1831
X20285Y433
X20374Y2333
X20719Y2126
X25689Y3445
X29970Y4941
X30517Y3445
X31813Y5384
X33339Y4134
X33417Y5266
X33423Y3789
X33423Y4518
X33453Y3455
X33630Y2815
X34146Y4350
X34146Y3327
X34146Y2559
X177Y16693
X244Y17165
X256Y28425
X295Y25984
X354Y40669
X374Y4528
X394Y11437
X453Y354
X531Y44587
X728Y16772
X748Y14094
X768Y15551
X1000Y17039
X1083Y31831
X1256Y18394
X1358Y16299
X1398Y15374
X1457Y24626
X1504Y19222
X1516Y28287
X1536Y17398
X1614Y21673
X1634Y23504
X1634Y11535
X1654Y16535
X1949Y42264
X1969Y19193
X2008Y18583
X2244Y17835
X2247Y17102
X2323Y25984
X2421Y18248
X2480Y15748
X2854Y21654
X2933Y24370
X2953Y17756
X2992Y13110
X3012Y28189
X3012Y354
X3031Y1870
X3110Y20157
X3130Y14150
X3189Y29055
X3248Y31988
X3287Y15177
X3465Y16929
X3504Y11299
X3740Y31654
X3868Y20030
X3937Y12362
X3976Y13543
X4114Y17165
X4252Y21181
X4291Y19724
X4370Y20650
X4547Y12894
X4567Y29094
X4606Y28622
X4724Y32756
X4724Y32520
X4961Y18287
X4990Y15044
X5000Y17835
X5020Y18642
X5315Y18976
X5335Y13917
X5335Y16909
X5551Y11693
X5591Y14882
X5630Y19902
X5827Y17382
X5886Y11949
X6043Y44547
X6043Y20748
X6358Y16142
X6457Y20295
X6460Y18012
X6496Y11319
X6508Y13215
X6624Y12609
X7050Y15354
X7051Y16535
X7067Y31928
X7126Y19567
X7185Y16102
X7244Y17154
X7362Y19350
X7441Y18464
X7579Y14685
X7677Y28799
X8031Y17972
X8169Y14508
X8189Y15335
X8701Y28701
X8839Y42264
X8839Y40551
X9035Y18071
X9370Y29094
X9390Y8524
X9469Y4311
X9531Y10094
X9685Y29134
X9764Y14409
X9783Y18071
X9823Y4291
X9980Y315
X10000Y2539
X10020Y26988
X10039Y4685
X10256Y26594
X10276Y5650
X10319Y7638
X10379Y20841
X10433Y8780
X10473Y23622
X10591Y4862
X10638Y22106
X10669Y29291
X10669Y21063
X10689Y8445
X10709Y3602
X10768Y28189
X10856Y23081
X10866Y24173
X10984Y25768
X11024Y19843
X11039Y21025
X11083Y19528
X11093Y28724
X11142Y44508
X11280Y30039
X11312Y21672
X11313Y21179
X11339Y19843
X11496Y11339
X11535Y24508
X11575Y29095
X11590Y19654
X11594Y21812
X11634Y23091
X11654Y23661
X11668Y20861
X11790Y21340
X11831Y28130
X11831Y19432
X11909Y21812
X12028Y23661
X12047Y20531
X12081Y19892
X12165Y33504
X12323Y19410
X12323Y29272
X12362Y24409
X12520Y33957
X12539Y25728
X12553Y19888
X12559Y28150
X12677Y24409
X12686Y19410
X12717Y26693
X12815Y32047
X12858Y21555
X12904Y29242
X12911Y18937
X13031Y21083
X13071Y42264
X13169Y32008
X13224Y22283
X13307Y18976
X13311Y19670
X13366Y40650
X13433Y20727
X13445Y2087
X13465Y10846
X13484Y34665
X13504Y35118
X13553Y26112
X13569Y22022
X13583Y22972
X13613Y34252
X13720Y10846
X13819Y21063
X13819Y276
X13898Y32185
X13898Y27717
X13898Y24193
X13917Y23524
X14035Y30689
X14035Y3366
X14121Y22985
X14183Y20364
X14232Y19881
X14240Y3692
X14252Y33366
X14311Y4016
X14370Y3406
X14409Y23110
X14469Y39272
X14508Y34843
X14528Y20709
X14585Y19723
X14630Y30925
X14705Y34095
X14724Y28484
X14744Y30177
X14744Y3602
X14764Y22244
X14783Y26614
X14803Y39272
X14823Y6713
X14823Y4980
X14839Y4118
X14846Y575
X14933Y24870
X14984Y3839
X14984Y35193
X15039Y34528
X15052Y22514
X15079Y33228
X15157Y20413
X15158Y20935
X15197Y30511
X15315Y19252
X15600Y22648
X15610Y28681
X15738Y42082
X15833Y19849
X15846Y20217
X15906Y20689
X15959Y20999
X15965Y22244
X16043Y32283
X16108Y36125
X16260Y21752
X16280Y22224
X16319Y34114
X16323Y36389
X16378Y24173
X16417Y44488
X16417Y30925
X16488Y12632
X16535Y33268
X16614Y26929
X16673Y33563
X16722Y28553
X16801Y30089
X16811Y36417
X16831Y24843
X16831Y217
X16840Y20788
X16922Y11307
X16929Y33268
X16969Y6102
X16985Y11909
X17008Y30925
X17028Y6713
X17087Y34114
X17087Y29291
X17087Y9114
X17154Y20788
X17185Y22736
X17225Y22067
X17247Y27227
X17287Y854
X17315Y1827
X17362Y35512
X17362Y35157
X17362Y34764
X17362Y34409
X17362Y33701
X17362Y33268
X17362Y6102
X17374Y2264
X17402Y23071
X17441Y24463
X17469Y20788
X17500Y15079
X17503Y27969
X17520Y14724
X17520Y19646
X17598Y14134
X17638Y21319
X17657Y25807
X17677Y15689
X17697Y30925
X17736Y6594
X17771Y17657
X17771Y17192
X17894Y22638
X17913Y41181
X17929Y14567
X17933Y9843
X17953Y29134
X17961Y1610
X18028Y807
X18051Y12953
X18086Y11890
X18086Y11575
X18122Y1316
X18268Y29016
X18307Y43307
X18392Y785
X18445Y30768
X18523Y21654
X18583Y35906
X18583Y24823
X18622Y23130
X18720Y335
X18755Y1535
X18839Y26417
X18839Y6634
X19065Y29016
X19154Y22087
X19379Y29036
X19384Y28667
X19488Y27421
X19528Y24705
X19547Y23301
X19567Y24213
X19567Y22067
X19687Y28582
X19803Y35512
X19803Y35157
X19803Y34803
X19803Y34449
X19803Y34094
X19882Y27421
X19885Y28048
X19902Y33209
X19932Y37176
X19983Y29176
X20079Y33720
X20202Y36622
X20236Y30748
X20280Y22791
X20295Y23740
X20315Y26201
X20335Y44724
X20335Y37559
X20433Y33228
X20532Y23043
X20630Y21419
X20650Y24370
X20650Y23602
X20689Y6319
X20709Y39823
X20768Y32283
X20768Y29925
X20782Y33679
X20886Y21634
X21004Y21339
X21063Y34114
X21083Y34902
X21083Y34508
X21102Y21929
X21243Y22211
X21398Y34094
X21417Y34882
X21417Y34488
X21437Y21535
X21514Y30304
X21639Y33110
X21672Y30669
X21757Y21649
X21890Y28327
X21929Y33232
X22047Y3031
X22059Y29158
X22067Y29473
X22087Y32323
X22106Y38937
X22165Y26339
X22165Y23661
X22191Y26712
X22204Y28280
X22244Y25118
X22252Y28909
X22276Y22044
X22402Y22500
X22480Y30610
X22538Y26949
X22549Y24479
X22559Y43307
X22579Y41398
X22615Y33664
X22702Y6350
X22772Y27173
X22785Y34124
X22838Y3025
X22913Y38917
X22953Y32283
X23020Y6346
X23130Y22352
X23173Y2998
X23288Y30453
X23297Y24833
X23339Y6346
X23508Y21654
X23601Y26224
X23661Y25531
X23701Y25925
X23720Y1516
X23740Y33717
X23760Y37283
X23768Y6346
X23822Y27534
X23839Y23031
X23860Y33093
X24016Y3071
X24035Y25118
X24075Y30492
X24201Y6346
X24272Y31299
X24311Y1358
X24331Y3075
X24370Y35217
X24390Y236
X24606Y31673
X24744Y30217
X24789Y29092
X24823Y32106
X24854Y30512
X24960Y3055
X24970Y2215
X24980Y31634
X25079Y40335
X25102Y6339
X25295Y31811
X25343Y29429
X25453Y27776
X25528Y33941
X25626Y1358
X25630Y31378
X25669Y30492
X25748Y32953
X25837Y27718
X25840Y29213
X25984Y807
X26083Y2524
X26161Y35413
X26161Y27736
X26339Y30827
X26362Y28367
X26437Y1232
X26551Y27725
X26563Y3071
X26654Y30847
X26699Y28002
X26794Y32424
X26811Y44724
X26949Y3020
X26988Y30375
X27193Y29551
X27283Y2323
X27303Y3004
X27520Y30529
X27598Y6319
X27618Y29311
X27779Y30350
X27835Y28839
X27992Y6512
X28054Y27779
X28130Y30354
X28189Y31339
X28209Y28819
X28415Y2626
X28450Y27751
X28465Y21437
X28571Y2984
X28622Y32598
X28728Y2657
X28878Y29507
X28996Y35906
X29168Y301
X29193Y32461
X29209Y29106
X29607Y30039
X29760Y29507
X29823Y28189
X29961Y1063
X29983Y2374
X30002Y1874
X30002Y1375
X30059Y29370
X30236Y31102
X30354Y32008
X30485Y2384
X30495Y2689
X30504Y1884
X30504Y1384
X30572Y28838
X30669Y43425
X30713Y6500
X30827Y30394
X30857Y31979
X30938Y2384
X30957Y1884
X30957Y1384
X30957Y884
X30965Y6299
X30974Y4880
X31024Y30669
X31063Y472
X31339Y6378
X31378Y21614
X31398Y28327
X31604Y32018
X31734Y27773
X31857Y29855
X31909Y472
X31929Y31890
X31949Y44724
X32342Y29783
X32343Y474
X32658Y472
X32759Y29196
X32795Y30295
X32841Y29501
X33130Y30020
X34094Y31339
X34213Y32264
X34465Y4622
X34823Y1811
X34892Y21627
X34961Y295
X35039Y1555
X35650Y21614
X35874Y6449
X36063Y31890
X36181Y28256
X36331Y21854
X36469Y25024
X36618Y25570
X36618Y25904
X36764Y26343
X36850Y33937
X36909Y21474
X37185Y44665
X37205Y39685
X37205Y39370
X37205Y39094
X37244Y33921
X37559Y25890
X37598Y33898
X37638Y5492
X37697Y40531
X37740Y25433
X37780Y15465
X37783Y9059
X37791Y35094
X37823Y22256
X3795Y28258
X4189Y28258
X5315Y22579
X5787Y22579
X6260Y22579
X6732Y22579
X10528Y18435
X10921Y18435
X12047Y12756
X12520Y12756
X12992Y12756
X13465Y12756
X24350Y33913
X24902Y33913
X36858Y33406
X36858Y29980
X37213Y29980
X37232Y33406
X37606Y33406
X14217Y4885
X13580Y7038
X13774Y7779
X11520Y7031
X10999Y10269
X29971Y4941
X30517Y3444
X25689Y3444
X20099Y3444
X15807Y3444
X11673Y18445
X13319Y18418
X12490Y18396
X9966Y17674
X10723Y17665
X11525Y17628
X13331Y17591
X11831Y17559
X13303Y17243
X11481Y17191
X10094Y17156
X11791Y17028
X9960Y16851
X13494Y16795
X10701Y16707
X11594Y16703
X13022Y16553
X11973Y16507
X11988Y16142
X12389Y15894
X11583Y15762
X11909Y15709
X11191Y15699
X10108Y15679
X10480Y15629
X10830Y15589
X11488Y15368
X9960Y15059
X11535Y14990
X11959Y14676
X11673Y14557
X11169Y14459
X12632Y14437
X10120Y14394
X11929Y14371
X13303Y14302
X13244Y14006
X11974Y13823
X13473Y13811
X10600Y13484
X10592Y13008
X10423Y12766
X10836Y12756
X9941Y12740
X10921Y18435
X10527Y18435
X13464Y12756
X12992Y12756
X12520Y12756
X12047Y12756
X33630Y2815
X34146Y2559
X34146Y3327
X33453Y3455
X33424Y3789
X33339Y4134
X33424Y4518
X33418Y5266
X34146Y4350
X31813Y5384
X35994Y26902
X35738Y25848
X35581Y25573
X35900Y24613
X35909Y23691
X34871Y23696
X34419Y23319
X34038Y23377
X33484Y23349
X33100Y23411
X32746Y23307
X32362Y23411
X31663Y23457
X31309Y23368
X30866Y23339
X30443Y23486
X30226Y23738
X29980Y23457
X29557Y23349
X29144Y23260
X28681Y23299
X28553Y23742
X28248Y23457
X27854Y23319
X27480Y23408
X26978Y23408
X26565Y23457
X26841Y23752
X27175Y24097
X26713Y24471
X26122Y25356
X25797Y25356
X26211Y25672
X26240Y26065
X26555Y26055
X26917Y26070
X27244Y26124
X27788Y26427
X27805Y25337
X28129Y25337
X28396Y24490
X28848Y24165
X30089Y24490
X30551Y24156
X31821Y24490
X32215Y24165
X31928Y23741
X33484Y24095
X33779Y24469
X33610Y24736
X34272Y25140
X34281Y25455
X34272Y25770
X34331Y26350
X33898Y26055
X33563Y26026
X33241Y26033
X32904Y26049
X32411Y26045
X32096Y26034
X31602Y26050
X31280Y26045
X30758Y25967
X30442Y26044
X29341Y26198
X28875Y26045
X29399Y25345
X29793Y25337
X25394Y26006
X25079Y26026
X24764Y26104
X24478Y26656
X24438Y25483
X24519Y25022
X25010Y24539
X25393Y24223
X25148Y23791
X25256Y23378
X24872Y23457
X24380Y23447
X25856Y23457
X26171Y23253
X35364Y22856
X34862Y24549
X34134Y27148
X36206Y21005
X35596Y20720
X35222Y20739
X34779Y20159
X34257Y19962
X34287Y19647
X34621Y19017
X35448Y19145
X35783Y19657
X35773Y20208
X33755Y20218
X33066Y20228
X32820Y20434
X32407Y20759
X31973Y20769
X32161Y20247
X32633Y19765
X33027Y19716
X32918Y19224
X32446Y19302
X31747Y19667
X31531Y18850
X30979Y18938
X30989Y18456
X30920Y17944
X30900Y17511
X31235Y17531
X31944Y17600
X31737Y17206
X32298Y17275
X32289Y16792
X32013Y16438
X31590Y16005
X31806Y15217
X31618Y14745
X31840Y14460
X32111Y14292
X32160Y13259
X32480Y13342
X31688Y13426
X30077Y13502
X29783Y13377
X29808Y13987
X29651Y14617
X29611Y15119
X30398Y15178
X30448Y14696
X30723Y15748
X30389Y16320
X29907Y16340
X30103Y16084
X31048Y16645
X30517Y17403
X30241Y17885
X29936Y17737
X29887Y18052
X29670Y18495
X29168Y18210
X28853Y18157
X29159Y17718
X29463Y17806
X28172Y17502
X27938Y17718
X27879Y18850
X28676Y18889
X28371Y19312
X28499Y19607
X29316Y19371
X29778Y19233
X30025Y19470
X30468Y19401
X30330Y18840
X30172Y19972
X30930Y19962
X30015Y20651
X27987Y20513
X27761Y20287
X27081Y20355
X27092Y20670
X27111Y19804
X27387Y19253
X26993Y18345
X25900Y17954
X25605Y17796
X24705Y17666
X24689Y17343
X24405Y17491
X24277Y17787
X24287Y18102
X23814Y18102
X23164Y18476
X23155Y19381
X22898Y19598
X22594Y19460
X22239Y19430
X22081Y18958
X21757Y18955
X21441Y18938
X22446Y18958
X22376Y17855
X22052Y17855
X21737Y17846
X21383Y17855
X22810Y17127
X23145Y17127
X23224Y14952
X23391Y14676
X23548Y14401
X23853Y14489
X23962Y14145
X24021Y13476
X25025Y13338
X25132Y12550
X25063Y12234
X24272Y12103
X24276Y12452
X23716Y12531
X23479Y12294
X22377Y12137
X21905Y12167
X21060Y13259
X22082Y13968
X22384Y13853
X21846Y14243
X21535Y14556
X24473Y15247
X25556Y15109
X25783Y16350
X26077Y16507
X26373Y16310
X26659Y16172
X26816Y15897
X27603Y15857
X28096Y15661
X28283Y15277
X28470Y14548
X28735Y14365
X29011Y14115
X28666Y13751
X28617Y13042
X29168Y12865
X29355Y12039
X28538Y12205
X28341Y10778
X28160Y10513
X28105Y10109
X27879Y9883
X28735Y10296
X28637Y10621
X28913Y10779
X29159Y10562
X30527Y10749
X30694Y11220
X31846Y11674
X32082Y11458
X32692Y11625
X34198Y11773
X34109Y12285
X34346Y12501
X35025Y12265
X34710Y11901
X34631Y11064
X34424Y10287
X33804Y10326
X34168Y9423
X34001Y8672
X34050Y8318
X34789Y8190
X35054Y8013
X34976Y7432
X34720Y7619
X33844Y7393
X33568Y7619
X33273Y7905
X32879Y8269
X32859Y7265
X32163Y7448
X31826Y7058
X31501Y7107
X32013Y8043
X31373Y9007
X30103Y9046
X30103Y9361
X29976Y8111
X29661Y8121
X29631Y7285
X29936Y7206
X28509Y7846
X27869Y7924
X27470Y7825
X26983Y7639
X26668Y7668
X26363Y7786
X25940Y7472
X25615Y7688
X24907Y7619
X24907Y7127
X23804Y7934
X23498Y7796
X23194Y7698
X23037Y7974
X22714Y7972
X22397Y7972
X21875Y7304
X21166Y7501
X21111Y8019
X21600Y8397
X21865Y9361
X22239Y9046
X22859Y8770
X23558Y9371
X23558Y9686
X23439Y10070
X24227Y9814
X24257Y11074
X24533Y11231
X25320Y11113
X25566Y11330
X25792Y11615
X25723Y12875
X25881Y13820
X26845Y13672
X27348Y13436
X27593Y13229
X27721Y13918
X28036Y13997
X27790Y14637
X27308Y14617
X26708Y14292
X26510Y12237
X26678Y9046
X27013Y9046
X27653Y6989
X31609Y10159
X32781Y9598
X33312Y9283
X33516Y8940
X35340Y10287
X35950Y10306
X36265Y9598
X35645Y11231
X35979Y12029
X36029Y13141
X36334Y13062
X35743Y13978
X35642Y14292
X35320Y14411
X35350Y15011
X34818Y14794
X34001Y14469
X33900Y15070
X33105Y14883
X33062Y15716
X34513Y15700
X34995Y15779
X35074Y16094
X35861Y16251
X35773Y16763
X34828Y16911
X34198Y16783
X34159Y16261
X33184Y17157
X32830Y17147
X33411Y18318
X36304Y17570
X36216Y14991
X35300Y13633
X35537Y6871
X35192Y6733
X28765Y16409
X24848Y16478
X24680Y18830
X24365Y18810
X25251Y18997
X25960Y18987
X25704Y19883
X25379Y19745
X24985Y19775
X24700Y19922
X24355Y20917
X25891Y20424
X22869Y20070
X22151Y20739
X22299Y9991
X20901Y10424
X20832Y11369
X19883Y11389
X19877Y10602
X19690Y9657
X19641Y8963
X19326Y8997
X19031Y8869
X18844Y9165
X18726Y8653
X19168Y7885
X19523Y8132
X20004Y8652
X20321Y8672
X20788Y8008
X20409Y7206
X20035Y7560
X18952Y7413
X18578Y7531
X18736Y10316
X18755Y10897
X19257Y13594
X19031Y14096
X19699Y13948
X19937Y13948
X20477Y13456
X20261Y16379
X19866Y16586
X19483Y16586
X18991Y16379
X19070Y16025
X18785Y16635
X18814Y18161
X18794Y18879
X19052Y19733
X19454Y19873
X20074Y20109
X20070Y20552
X20576Y19332
X20527Y18279
X20182Y18279
X20355Y17688
X20752Y16536
X20719Y2126
X20375Y2333
X20256Y1831
X20286Y433
X4941Y28268
X6587Y28241
X5758Y28219
X3234Y27497
X3991Y27488
X4793Y27451
X6599Y27414
X5099Y27382
X6571Y27066
X4749Y27014
X3362Y26979
X5059Y26851
X3228Y26674
X6762Y26618
X3969Y26530
X4862Y26526
X6290Y26376
X5241Y26330
X5256Y25965
X5657Y25717
X4851Y25585
X5177Y25532
X4459Y25522
X3376Y25502
X3748Y25452
X4098Y25412
X4756Y25191
X3228Y24882
X4803Y24813
X5227Y24499
X4941Y24380
X4437Y24282
X5900Y24260
X3388Y24217
X5197Y24194
X6571Y24125
X6512Y23829
X5242Y23646
X6741Y23634
X3868Y23307
X3860Y22831
X3691Y22589
X4104Y22579
X3209Y22563
X4189Y28258
X3795Y28258
X6732Y22579
X6260Y22579
X5788Y22579
X5315Y22579
X37753Y29986
X37500Y30138
X37213Y29980
X36858Y29980
X37192Y30982
X37297Y31256
X37084Y31499
X37597Y30949
X36857Y32428
X36858Y33405
X37232Y33405
X37606Y33405
T02
X472Y31240
X492Y28957
X768Y35394
X768Y35000
X768Y34606
X768Y34213
X768Y33819
X768Y33425
X866Y31240
X886Y28957
X1260Y31240
X1280Y28957
X1654Y31240
X1673Y28957
X2047Y31240
X2067Y28957
X2185Y32244
X2441Y31240
X2461Y28957
X2520Y32564
X2717Y35374
X2717Y34980
X2717Y34587
X2717Y34193
X2717Y33799
X2717Y33406
X2835Y32244
X3499Y30906
X3681Y35295
X3681Y34902
X3681Y34508
X3681Y34114
X3681Y33720
X3681Y33327
X4035Y31142
X4055Y30551
X5157Y28681
X5177Y30906
X5315Y32224
X5551Y28681
X5571Y30906
X5591Y32387
X5827Y35335
X5827Y34941
X5827Y34547
X5827Y34154
X5827Y33760
X5827Y33366
X5866Y32185
X5945Y28681
X5965Y30906
X6339Y28681
X6358Y30906
X6457Y35276
X6457Y34882
X6457Y34488
X6457Y34094
X6457Y33701
X6457Y33307
X6732Y28681
X6752Y30906
X8110Y31870
X8445Y32480
X8504Y31201
X8504Y30492
X8661Y35354
X8661Y34961
X8661Y34567
X8661Y34173
X8661Y33780
X8661Y33386
X8819Y31870
X8996Y30846
X9685Y35295
X9685Y34902
X9685Y34508
X9685Y34114
X9685Y33720
X9685Y33327
X11299Y31890
X11614Y31496
X11811Y35276
X11811Y34882
X11811Y34488
X11811Y34094
X11811Y33701
X11811Y33307
X11969Y31890
X27579Y34980
X27579Y34587
X27579Y34193
X27579Y33799
X27579Y33406
X27579Y33012
X29232Y31594
X29460Y31181
X29567Y35000
X29567Y34606
X29567Y34213
X29567Y33819
X29567Y33425
X29567Y33031
X29705Y31594
X30709Y34823
X30709Y34429
X30709Y34035
X30709Y33642
X30709Y33248
X30709Y32854
X32165Y28839
X32283Y28268
X32421Y31457
X32598Y28504
X32697Y31791
X32815Y34783
X32815Y34390
X32815Y33996
X32815Y33602
X32815Y33209
X32815Y32815
X33012Y31457
X33642Y28346
X33661Y34764
X33661Y34370
X33661Y33976
X33661Y33583
X33661Y33189
X33661Y32795
X33701Y30394
X34035Y28346
X34094Y30394
X34429Y28346
X34488Y30394
X34823Y28346
X34882Y30394
X35217Y28346
X35236Y31398
X35276Y30394
X35571Y31776
X35610Y28346
X35669Y30394
X35748Y34764
X35748Y34370
X35748Y33976
X35748Y33583
X35748Y33189
X35748Y32795
X35846Y31378
T03
X4705Y38348
X4705Y36848
X5512Y38368
X5512Y36868
X6319Y38368
X6319Y36868
X7106Y38368
X7106Y36868
X7953Y38388
X7953Y36888
X8740Y38388
X8740Y36888
X9528Y38388
X9528Y36888
X10335Y38368
X10335Y36868
X11220Y38270
X11220Y36770
X12087Y38289
X12087Y36789
X12953Y38346
X12953Y36417
X13917Y38327
X13917Y36398
X14744Y38348
X14744Y36848
X15591Y38307
X15591Y36378
X17008Y38388
X17008Y36888
X17795Y38388
X17795Y36888
X18642Y42482
X18642Y40982
X18661Y38388
X18661Y36888
X19449Y38388
X19449Y36888
X19626Y42463
X19626Y40963
X21240Y38171
X21240Y36671
X22165Y38150
X22165Y36220
X23091Y38167
X23091Y36238
X24350Y37994
X24350Y36494
X25177Y38189
X25177Y36260
X26024Y38171
X26024Y36671
X26791Y38171
X26791Y36671
X27598Y38189
X27598Y36260
X28484Y38191
X28484Y36691
X29449Y38211
X29449Y36711
X30217Y38211
X30217Y36711
X31024Y38207
X31024Y36278
X31967Y38187
X31967Y36258
X32867Y38189
X32867Y36689
X37236Y35943
X37236Y34443
T04
X906Y30177
X1713Y35079
X1713Y33878
X2106Y30177
X4882Y34902
X4882Y33701
X5335Y29902
X6535Y29902
X7559Y34921
X7559Y33720
X10768Y34941
X10768Y33740
X17992Y33392
X17992Y34843
X17992Y34094
X17993Y35545
X19173Y33392
X19173Y34843
X19173Y34094
X19174Y35545
X28563Y34606
X28563Y33406
X31791Y34409
X31791Y33209
X34055Y29409
X34705Y34370
X34705Y33169
X35256Y29409
X10866Y2559
X12598Y2559
X19627Y11769
X18827Y11769
X19227Y9769
T05
X3681Y42953
X3681Y41378
X3681Y39803
X5256Y42953
X5256Y41378
X5256Y39803
X6634Y42953
X6634Y41378
X6634Y39803
X8012Y42953
X8012Y41378
X8012Y39803
X9390Y42953
X9390Y41378
X9390Y39803
X10768Y42953
X10768Y41378
X10768Y39803
X12146Y42953
X12146Y41378
X12146Y39803
X13720Y42953
X13720Y41378
X13720Y39803
X24272Y42953
X24272Y41378
X24272Y39803
X25846Y42953
X25846Y41378
X25846Y39803
X27224Y42953
X27224Y41378
X27224Y39803
X28602Y42953
X28602Y41378
X28602Y39803
X29980Y42953
X29980Y41378
X29980Y39803
X31358Y42953
X31358Y41378
X31358Y39803
X32736Y42953
X32736Y41378
X32736Y39803
X34311Y42953
X34311Y41378
X34311Y39803
T06
X866Y42756G85X866Y41575
X16535Y42756G85X16535Y41575
X21457Y42756G85X21457Y41575
X37126Y42756G85X37126Y41575
T07
X1891Y3393
X36200Y3493
M30
