G04 #@! TF.GenerationSoftware,KiCad,Pcbnew,(6.0.1)*
G04 #@! TF.CreationDate,2022-07-23T16:35:50+03:00*
G04 #@! TF.ProjectId,alphax_4ch,616c7068-6178-45f3-9463-682e6b696361,a*
G04 #@! TF.SameCoordinates,PX141f5e0PYa2cace0*
G04 #@! TF.FileFunction,AssemblyDrawing,Bot*
%FSLAX46Y46*%
G04 Gerber Fmt 4.6, Leading zero omitted, Abs format (unit mm)*
G04 Created by KiCad (PCBNEW (6.0.1)) date 2022-07-23 16:35:50*
%MOMM*%
%LPD*%
G01*
G04 APERTURE LIST*
%ADD10C,0.150000*%
%ADD11C,0.100000*%
G04 APERTURE END LIST*
D10*
G04 #@! TO.C,J9*
X72922380Y8443334D02*
X73636666Y8443334D01*
X73779523Y8490953D01*
X73874761Y8586191D01*
X73922380Y8729048D01*
X73922380Y8824286D01*
X73922380Y7919524D02*
X73922380Y7729048D01*
X73874761Y7633810D01*
X73827142Y7586191D01*
X73684285Y7490953D01*
X73493809Y7443334D01*
X73112857Y7443334D01*
X73017619Y7490953D01*
X72970000Y7538572D01*
X72922380Y7633810D01*
X72922380Y7824286D01*
X72970000Y7919524D01*
X73017619Y7967143D01*
X73112857Y8014762D01*
X73350952Y8014762D01*
X73446190Y7967143D01*
X73493809Y7919524D01*
X73541428Y7824286D01*
X73541428Y7633810D01*
X73493809Y7538572D01*
X73446190Y7490953D01*
X73350952Y7443334D01*
G04 #@! TO.C,J4*
X5033333Y5147620D02*
X5033333Y4433334D01*
X5080952Y4290477D01*
X5176190Y4195239D01*
X5319047Y4147620D01*
X5414285Y4147620D01*
X4128571Y4814286D02*
X4128571Y4147620D01*
X4366666Y5195239D02*
X4604761Y4480953D01*
X3985714Y4480953D01*
D11*
G04 #@! TO.C,J9*
X66620000Y14910000D02*
X80320000Y14910000D01*
X66620000Y1310000D02*
X66620000Y14910000D01*
X80320000Y1310000D02*
X66620000Y1310000D01*
X80320000Y14910000D02*
X80320000Y1310000D01*
G04 #@! TD*
M02*
