G04 #@! TF.GenerationSoftware,KiCad,Pcbnew,7.0.1-115-g2ece2719d0*
G04 #@! TF.CreationDate,2023-04-03T01:52:51+03:00*
G04 #@! TF.ProjectId,alphax_4ch,616c7068-6178-45f3-9463-682e6b696361,G*
G04 #@! TF.SameCoordinates,PX141f5e0PYa2cace0*
G04 #@! TF.FileFunction,AssemblyDrawing,Bot*
%FSLAX46Y46*%
G04 Gerber Fmt 4.6, Leading zero omitted, Abs format (unit mm)*
G04 Created by KiCad (PCBNEW 7.0.1-115-g2ece2719d0) date 2023-04-03 01:52:51*
%MOMM*%
%LPD*%
G01*
G04 APERTURE LIST*
%ADD10C,0.170000*%
%ADD11C,0.050000*%
%ADD12C,0.150000*%
%ADD13C,0.100000*%
G04 APERTURE END LIST*
D10*
G04 #@! TO.C,D49*
X72995713Y77945652D02*
X72995713Y78765652D01*
X72995713Y78765652D02*
X72800475Y78765652D01*
X72800475Y78765652D02*
X72683332Y78726604D01*
X72683332Y78726604D02*
X72605237Y78648509D01*
X72605237Y78648509D02*
X72566190Y78570414D01*
X72566190Y78570414D02*
X72527142Y78414223D01*
X72527142Y78414223D02*
X72527142Y78297080D01*
X72527142Y78297080D02*
X72566190Y78140890D01*
X72566190Y78140890D02*
X72605237Y78062795D01*
X72605237Y78062795D02*
X72683332Y77984699D01*
X72683332Y77984699D02*
X72800475Y77945652D01*
X72800475Y77945652D02*
X72995713Y77945652D01*
X71824285Y78492319D02*
X71824285Y77945652D01*
X72019523Y78804699D02*
X72214761Y78218985D01*
X72214761Y78218985D02*
X71707142Y78218985D01*
X71355714Y77945652D02*
X71199523Y77945652D01*
X71199523Y77945652D02*
X71121428Y77984699D01*
X71121428Y77984699D02*
X71082380Y78023747D01*
X71082380Y78023747D02*
X71004285Y78140890D01*
X71004285Y78140890D02*
X70965238Y78297080D01*
X70965238Y78297080D02*
X70965238Y78609461D01*
X70965238Y78609461D02*
X71004285Y78687557D01*
X71004285Y78687557D02*
X71043333Y78726604D01*
X71043333Y78726604D02*
X71121428Y78765652D01*
X71121428Y78765652D02*
X71277619Y78765652D01*
X71277619Y78765652D02*
X71355714Y78726604D01*
X71355714Y78726604D02*
X71394761Y78687557D01*
X71394761Y78687557D02*
X71433809Y78609461D01*
X71433809Y78609461D02*
X71433809Y78414223D01*
X71433809Y78414223D02*
X71394761Y78336128D01*
X71394761Y78336128D02*
X71355714Y78297080D01*
X71355714Y78297080D02*
X71277619Y78258033D01*
X71277619Y78258033D02*
X71121428Y78258033D01*
X71121428Y78258033D02*
X71043333Y78297080D01*
X71043333Y78297080D02*
X71004285Y78336128D01*
X71004285Y78336128D02*
X70965238Y78414223D01*
D11*
G04 #@! TO.C,Q1*
X42330476Y73721486D02*
X42360952Y73736724D01*
X42360952Y73736724D02*
X42391428Y73767200D01*
X42391428Y73767200D02*
X42437142Y73812915D01*
X42437142Y73812915D02*
X42467619Y73828153D01*
X42467619Y73828153D02*
X42498095Y73828153D01*
X42482857Y73751962D02*
X42513333Y73767200D01*
X42513333Y73767200D02*
X42543809Y73797677D01*
X42543809Y73797677D02*
X42559047Y73858629D01*
X42559047Y73858629D02*
X42559047Y73965296D01*
X42559047Y73965296D02*
X42543809Y74026248D01*
X42543809Y74026248D02*
X42513333Y74056724D01*
X42513333Y74056724D02*
X42482857Y74071962D01*
X42482857Y74071962D02*
X42421904Y74071962D01*
X42421904Y74071962D02*
X42391428Y74056724D01*
X42391428Y74056724D02*
X42360952Y74026248D01*
X42360952Y74026248D02*
X42345714Y73965296D01*
X42345714Y73965296D02*
X42345714Y73858629D01*
X42345714Y73858629D02*
X42360952Y73797677D01*
X42360952Y73797677D02*
X42391428Y73767200D01*
X42391428Y73767200D02*
X42421904Y73751962D01*
X42421904Y73751962D02*
X42482857Y73751962D01*
X42040952Y73751962D02*
X42223809Y73751962D01*
X42132381Y73751962D02*
X42132381Y74071962D01*
X42132381Y74071962D02*
X42162857Y74026248D01*
X42162857Y74026248D02*
X42193333Y73995772D01*
X42193333Y73995772D02*
X42223809Y73980534D01*
D10*
G04 #@! TO.C,D68*
X8599348Y22195714D02*
X7779348Y22195714D01*
X7779348Y22195714D02*
X7779348Y22000476D01*
X7779348Y22000476D02*
X7818396Y21883333D01*
X7818396Y21883333D02*
X7896491Y21805238D01*
X7896491Y21805238D02*
X7974586Y21766191D01*
X7974586Y21766191D02*
X8130777Y21727143D01*
X8130777Y21727143D02*
X8247920Y21727143D01*
X8247920Y21727143D02*
X8404110Y21766191D01*
X8404110Y21766191D02*
X8482205Y21805238D01*
X8482205Y21805238D02*
X8560301Y21883333D01*
X8560301Y21883333D02*
X8599348Y22000476D01*
X8599348Y22000476D02*
X8599348Y22195714D01*
X7779348Y21024286D02*
X7779348Y21180476D01*
X7779348Y21180476D02*
X7818396Y21258572D01*
X7818396Y21258572D02*
X7857443Y21297619D01*
X7857443Y21297619D02*
X7974586Y21375714D01*
X7974586Y21375714D02*
X8130777Y21414762D01*
X8130777Y21414762D02*
X8443158Y21414762D01*
X8443158Y21414762D02*
X8521253Y21375714D01*
X8521253Y21375714D02*
X8560301Y21336667D01*
X8560301Y21336667D02*
X8599348Y21258572D01*
X8599348Y21258572D02*
X8599348Y21102381D01*
X8599348Y21102381D02*
X8560301Y21024286D01*
X8560301Y21024286D02*
X8521253Y20985238D01*
X8521253Y20985238D02*
X8443158Y20946191D01*
X8443158Y20946191D02*
X8247920Y20946191D01*
X8247920Y20946191D02*
X8169824Y20985238D01*
X8169824Y20985238D02*
X8130777Y21024286D01*
X8130777Y21024286D02*
X8091729Y21102381D01*
X8091729Y21102381D02*
X8091729Y21258572D01*
X8091729Y21258572D02*
X8130777Y21336667D01*
X8130777Y21336667D02*
X8169824Y21375714D01*
X8169824Y21375714D02*
X8247920Y21414762D01*
X8130777Y20477620D02*
X8091729Y20555715D01*
X8091729Y20555715D02*
X8052681Y20594762D01*
X8052681Y20594762D02*
X7974586Y20633810D01*
X7974586Y20633810D02*
X7935539Y20633810D01*
X7935539Y20633810D02*
X7857443Y20594762D01*
X7857443Y20594762D02*
X7818396Y20555715D01*
X7818396Y20555715D02*
X7779348Y20477620D01*
X7779348Y20477620D02*
X7779348Y20321429D01*
X7779348Y20321429D02*
X7818396Y20243334D01*
X7818396Y20243334D02*
X7857443Y20204286D01*
X7857443Y20204286D02*
X7935539Y20165239D01*
X7935539Y20165239D02*
X7974586Y20165239D01*
X7974586Y20165239D02*
X8052681Y20204286D01*
X8052681Y20204286D02*
X8091729Y20243334D01*
X8091729Y20243334D02*
X8130777Y20321429D01*
X8130777Y20321429D02*
X8130777Y20477620D01*
X8130777Y20477620D02*
X8169824Y20555715D01*
X8169824Y20555715D02*
X8208872Y20594762D01*
X8208872Y20594762D02*
X8286967Y20633810D01*
X8286967Y20633810D02*
X8443158Y20633810D01*
X8443158Y20633810D02*
X8521253Y20594762D01*
X8521253Y20594762D02*
X8560301Y20555715D01*
X8560301Y20555715D02*
X8599348Y20477620D01*
X8599348Y20477620D02*
X8599348Y20321429D01*
X8599348Y20321429D02*
X8560301Y20243334D01*
X8560301Y20243334D02*
X8521253Y20204286D01*
X8521253Y20204286D02*
X8443158Y20165239D01*
X8443158Y20165239D02*
X8286967Y20165239D01*
X8286967Y20165239D02*
X8208872Y20204286D01*
X8208872Y20204286D02*
X8169824Y20243334D01*
X8169824Y20243334D02*
X8130777Y20321429D01*
G04 #@! TO.C,D65*
X91584348Y70170714D02*
X90764348Y70170714D01*
X90764348Y70170714D02*
X90764348Y69975476D01*
X90764348Y69975476D02*
X90803396Y69858333D01*
X90803396Y69858333D02*
X90881491Y69780238D01*
X90881491Y69780238D02*
X90959586Y69741191D01*
X90959586Y69741191D02*
X91115777Y69702143D01*
X91115777Y69702143D02*
X91232920Y69702143D01*
X91232920Y69702143D02*
X91389110Y69741191D01*
X91389110Y69741191D02*
X91467205Y69780238D01*
X91467205Y69780238D02*
X91545301Y69858333D01*
X91545301Y69858333D02*
X91584348Y69975476D01*
X91584348Y69975476D02*
X91584348Y70170714D01*
X90764348Y68999286D02*
X90764348Y69155476D01*
X90764348Y69155476D02*
X90803396Y69233572D01*
X90803396Y69233572D02*
X90842443Y69272619D01*
X90842443Y69272619D02*
X90959586Y69350714D01*
X90959586Y69350714D02*
X91115777Y69389762D01*
X91115777Y69389762D02*
X91428158Y69389762D01*
X91428158Y69389762D02*
X91506253Y69350714D01*
X91506253Y69350714D02*
X91545301Y69311667D01*
X91545301Y69311667D02*
X91584348Y69233572D01*
X91584348Y69233572D02*
X91584348Y69077381D01*
X91584348Y69077381D02*
X91545301Y68999286D01*
X91545301Y68999286D02*
X91506253Y68960238D01*
X91506253Y68960238D02*
X91428158Y68921191D01*
X91428158Y68921191D02*
X91232920Y68921191D01*
X91232920Y68921191D02*
X91154824Y68960238D01*
X91154824Y68960238D02*
X91115777Y68999286D01*
X91115777Y68999286D02*
X91076729Y69077381D01*
X91076729Y69077381D02*
X91076729Y69233572D01*
X91076729Y69233572D02*
X91115777Y69311667D01*
X91115777Y69311667D02*
X91154824Y69350714D01*
X91154824Y69350714D02*
X91232920Y69389762D01*
X90764348Y68179286D02*
X90764348Y68569762D01*
X90764348Y68569762D02*
X91154824Y68608810D01*
X91154824Y68608810D02*
X91115777Y68569762D01*
X91115777Y68569762D02*
X91076729Y68491667D01*
X91076729Y68491667D02*
X91076729Y68296429D01*
X91076729Y68296429D02*
X91115777Y68218334D01*
X91115777Y68218334D02*
X91154824Y68179286D01*
X91154824Y68179286D02*
X91232920Y68140239D01*
X91232920Y68140239D02*
X91428158Y68140239D01*
X91428158Y68140239D02*
X91506253Y68179286D01*
X91506253Y68179286D02*
X91545301Y68218334D01*
X91545301Y68218334D02*
X91584348Y68296429D01*
X91584348Y68296429D02*
X91584348Y68491667D01*
X91584348Y68491667D02*
X91545301Y68569762D01*
X91545301Y68569762D02*
X91506253Y68608810D01*
D11*
G04 #@! TO.C,Q3*
X34092976Y73721486D02*
X34123452Y73736724D01*
X34123452Y73736724D02*
X34153928Y73767200D01*
X34153928Y73767200D02*
X34199642Y73812915D01*
X34199642Y73812915D02*
X34230119Y73828153D01*
X34230119Y73828153D02*
X34260595Y73828153D01*
X34245357Y73751962D02*
X34275833Y73767200D01*
X34275833Y73767200D02*
X34306309Y73797677D01*
X34306309Y73797677D02*
X34321547Y73858629D01*
X34321547Y73858629D02*
X34321547Y73965296D01*
X34321547Y73965296D02*
X34306309Y74026248D01*
X34306309Y74026248D02*
X34275833Y74056724D01*
X34275833Y74056724D02*
X34245357Y74071962D01*
X34245357Y74071962D02*
X34184404Y74071962D01*
X34184404Y74071962D02*
X34153928Y74056724D01*
X34153928Y74056724D02*
X34123452Y74026248D01*
X34123452Y74026248D02*
X34108214Y73965296D01*
X34108214Y73965296D02*
X34108214Y73858629D01*
X34108214Y73858629D02*
X34123452Y73797677D01*
X34123452Y73797677D02*
X34153928Y73767200D01*
X34153928Y73767200D02*
X34184404Y73751962D01*
X34184404Y73751962D02*
X34245357Y73751962D01*
X34001547Y74071962D02*
X33803452Y74071962D01*
X33803452Y74071962D02*
X33910119Y73950058D01*
X33910119Y73950058D02*
X33864404Y73950058D01*
X33864404Y73950058D02*
X33833928Y73934820D01*
X33833928Y73934820D02*
X33818690Y73919581D01*
X33818690Y73919581D02*
X33803452Y73889105D01*
X33803452Y73889105D02*
X33803452Y73812915D01*
X33803452Y73812915D02*
X33818690Y73782439D01*
X33818690Y73782439D02*
X33833928Y73767200D01*
X33833928Y73767200D02*
X33864404Y73751962D01*
X33864404Y73751962D02*
X33955833Y73751962D01*
X33955833Y73751962D02*
X33986309Y73767200D01*
X33986309Y73767200D02*
X34001547Y73782439D01*
D10*
G04 #@! TO.C,D26*
X71129348Y88333214D02*
X70309348Y88333214D01*
X70309348Y88333214D02*
X70309348Y88137976D01*
X70309348Y88137976D02*
X70348396Y88020833D01*
X70348396Y88020833D02*
X70426491Y87942738D01*
X70426491Y87942738D02*
X70504586Y87903691D01*
X70504586Y87903691D02*
X70660777Y87864643D01*
X70660777Y87864643D02*
X70777920Y87864643D01*
X70777920Y87864643D02*
X70934110Y87903691D01*
X70934110Y87903691D02*
X71012205Y87942738D01*
X71012205Y87942738D02*
X71090301Y88020833D01*
X71090301Y88020833D02*
X71129348Y88137976D01*
X71129348Y88137976D02*
X71129348Y88333214D01*
X70387443Y87552262D02*
X70348396Y87513214D01*
X70348396Y87513214D02*
X70309348Y87435119D01*
X70309348Y87435119D02*
X70309348Y87239881D01*
X70309348Y87239881D02*
X70348396Y87161786D01*
X70348396Y87161786D02*
X70387443Y87122738D01*
X70387443Y87122738D02*
X70465539Y87083691D01*
X70465539Y87083691D02*
X70543634Y87083691D01*
X70543634Y87083691D02*
X70660777Y87122738D01*
X70660777Y87122738D02*
X71129348Y87591310D01*
X71129348Y87591310D02*
X71129348Y87083691D01*
X70309348Y86380834D02*
X70309348Y86537024D01*
X70309348Y86537024D02*
X70348396Y86615120D01*
X70348396Y86615120D02*
X70387443Y86654167D01*
X70387443Y86654167D02*
X70504586Y86732262D01*
X70504586Y86732262D02*
X70660777Y86771310D01*
X70660777Y86771310D02*
X70973158Y86771310D01*
X70973158Y86771310D02*
X71051253Y86732262D01*
X71051253Y86732262D02*
X71090301Y86693215D01*
X71090301Y86693215D02*
X71129348Y86615120D01*
X71129348Y86615120D02*
X71129348Y86458929D01*
X71129348Y86458929D02*
X71090301Y86380834D01*
X71090301Y86380834D02*
X71051253Y86341786D01*
X71051253Y86341786D02*
X70973158Y86302739D01*
X70973158Y86302739D02*
X70777920Y86302739D01*
X70777920Y86302739D02*
X70699824Y86341786D01*
X70699824Y86341786D02*
X70660777Y86380834D01*
X70660777Y86380834D02*
X70621729Y86458929D01*
X70621729Y86458929D02*
X70621729Y86615120D01*
X70621729Y86615120D02*
X70660777Y86693215D01*
X70660777Y86693215D02*
X70699824Y86732262D01*
X70699824Y86732262D02*
X70777920Y86771310D01*
G04 #@! TO.C,D72*
X64695713Y90420652D02*
X64695713Y91240652D01*
X64695713Y91240652D02*
X64500475Y91240652D01*
X64500475Y91240652D02*
X64383332Y91201604D01*
X64383332Y91201604D02*
X64305237Y91123509D01*
X64305237Y91123509D02*
X64266190Y91045414D01*
X64266190Y91045414D02*
X64227142Y90889223D01*
X64227142Y90889223D02*
X64227142Y90772080D01*
X64227142Y90772080D02*
X64266190Y90615890D01*
X64266190Y90615890D02*
X64305237Y90537795D01*
X64305237Y90537795D02*
X64383332Y90459699D01*
X64383332Y90459699D02*
X64500475Y90420652D01*
X64500475Y90420652D02*
X64695713Y90420652D01*
X63953809Y91240652D02*
X63407142Y91240652D01*
X63407142Y91240652D02*
X63758571Y90420652D01*
X63133809Y91162557D02*
X63094761Y91201604D01*
X63094761Y91201604D02*
X63016666Y91240652D01*
X63016666Y91240652D02*
X62821428Y91240652D01*
X62821428Y91240652D02*
X62743333Y91201604D01*
X62743333Y91201604D02*
X62704285Y91162557D01*
X62704285Y91162557D02*
X62665238Y91084461D01*
X62665238Y91084461D02*
X62665238Y91006366D01*
X62665238Y91006366D02*
X62704285Y90889223D01*
X62704285Y90889223D02*
X63172857Y90420652D01*
X63172857Y90420652D02*
X62665238Y90420652D01*
D11*
G04 #@! TO.C,D29*
X40048038Y79826072D02*
X39728038Y79826072D01*
X39728038Y79826072D02*
X39728038Y79749882D01*
X39728038Y79749882D02*
X39743276Y79704167D01*
X39743276Y79704167D02*
X39773752Y79673691D01*
X39773752Y79673691D02*
X39804228Y79658453D01*
X39804228Y79658453D02*
X39865180Y79643215D01*
X39865180Y79643215D02*
X39910895Y79643215D01*
X39910895Y79643215D02*
X39971847Y79658453D01*
X39971847Y79658453D02*
X40002323Y79673691D01*
X40002323Y79673691D02*
X40032800Y79704167D01*
X40032800Y79704167D02*
X40048038Y79749882D01*
X40048038Y79749882D02*
X40048038Y79826072D01*
X39758514Y79521310D02*
X39743276Y79506072D01*
X39743276Y79506072D02*
X39728038Y79475596D01*
X39728038Y79475596D02*
X39728038Y79399405D01*
X39728038Y79399405D02*
X39743276Y79368929D01*
X39743276Y79368929D02*
X39758514Y79353691D01*
X39758514Y79353691D02*
X39788990Y79338453D01*
X39788990Y79338453D02*
X39819466Y79338453D01*
X39819466Y79338453D02*
X39865180Y79353691D01*
X39865180Y79353691D02*
X40048038Y79536548D01*
X40048038Y79536548D02*
X40048038Y79338453D01*
X40048038Y79186072D02*
X40048038Y79125120D01*
X40048038Y79125120D02*
X40032800Y79094643D01*
X40032800Y79094643D02*
X40017561Y79079405D01*
X40017561Y79079405D02*
X39971847Y79048929D01*
X39971847Y79048929D02*
X39910895Y79033691D01*
X39910895Y79033691D02*
X39788990Y79033691D01*
X39788990Y79033691D02*
X39758514Y79048929D01*
X39758514Y79048929D02*
X39743276Y79064167D01*
X39743276Y79064167D02*
X39728038Y79094643D01*
X39728038Y79094643D02*
X39728038Y79155596D01*
X39728038Y79155596D02*
X39743276Y79186072D01*
X39743276Y79186072D02*
X39758514Y79201310D01*
X39758514Y79201310D02*
X39788990Y79216548D01*
X39788990Y79216548D02*
X39865180Y79216548D01*
X39865180Y79216548D02*
X39895657Y79201310D01*
X39895657Y79201310D02*
X39910895Y79186072D01*
X39910895Y79186072D02*
X39926133Y79155596D01*
X39926133Y79155596D02*
X39926133Y79094643D01*
X39926133Y79094643D02*
X39910895Y79064167D01*
X39910895Y79064167D02*
X39895657Y79048929D01*
X39895657Y79048929D02*
X39865180Y79033691D01*
D10*
G04 #@! TO.C,D71*
X62399348Y84695714D02*
X61579348Y84695714D01*
X61579348Y84695714D02*
X61579348Y84500476D01*
X61579348Y84500476D02*
X61618396Y84383333D01*
X61618396Y84383333D02*
X61696491Y84305238D01*
X61696491Y84305238D02*
X61774586Y84266191D01*
X61774586Y84266191D02*
X61930777Y84227143D01*
X61930777Y84227143D02*
X62047920Y84227143D01*
X62047920Y84227143D02*
X62204110Y84266191D01*
X62204110Y84266191D02*
X62282205Y84305238D01*
X62282205Y84305238D02*
X62360301Y84383333D01*
X62360301Y84383333D02*
X62399348Y84500476D01*
X62399348Y84500476D02*
X62399348Y84695714D01*
X61579348Y83953810D02*
X61579348Y83407143D01*
X61579348Y83407143D02*
X62399348Y83758572D01*
X62399348Y82665239D02*
X62399348Y83133810D01*
X62399348Y82899524D02*
X61579348Y82899524D01*
X61579348Y82899524D02*
X61696491Y82977620D01*
X61696491Y82977620D02*
X61774586Y83055715D01*
X61774586Y83055715D02*
X61813634Y83133810D01*
D12*
G04 #@! TO.C,U1*
X47307194Y87377381D02*
X47307194Y86567858D01*
X47307194Y86567858D02*
X47259575Y86472620D01*
X47259575Y86472620D02*
X47211956Y86425000D01*
X47211956Y86425000D02*
X47116718Y86377381D01*
X47116718Y86377381D02*
X46926242Y86377381D01*
X46926242Y86377381D02*
X46831004Y86425000D01*
X46831004Y86425000D02*
X46783385Y86472620D01*
X46783385Y86472620D02*
X46735766Y86567858D01*
X46735766Y86567858D02*
X46735766Y87377381D01*
X45735766Y86377381D02*
X46307194Y86377381D01*
X46021480Y86377381D02*
X46021480Y87377381D01*
X46021480Y87377381D02*
X46116718Y87234524D01*
X46116718Y87234524D02*
X46211956Y87139286D01*
X46211956Y87139286D02*
X46307194Y87091667D01*
D11*
G04 #@! TO.C,Q12*
X81478514Y68182858D02*
X81463276Y68213334D01*
X81463276Y68213334D02*
X81432800Y68243810D01*
X81432800Y68243810D02*
X81387085Y68289524D01*
X81387085Y68289524D02*
X81371847Y68320001D01*
X81371847Y68320001D02*
X81371847Y68350477D01*
X81448038Y68335239D02*
X81432800Y68365715D01*
X81432800Y68365715D02*
X81402323Y68396191D01*
X81402323Y68396191D02*
X81341371Y68411429D01*
X81341371Y68411429D02*
X81234704Y68411429D01*
X81234704Y68411429D02*
X81173752Y68396191D01*
X81173752Y68396191D02*
X81143276Y68365715D01*
X81143276Y68365715D02*
X81128038Y68335239D01*
X81128038Y68335239D02*
X81128038Y68274286D01*
X81128038Y68274286D02*
X81143276Y68243810D01*
X81143276Y68243810D02*
X81173752Y68213334D01*
X81173752Y68213334D02*
X81234704Y68198096D01*
X81234704Y68198096D02*
X81341371Y68198096D01*
X81341371Y68198096D02*
X81402323Y68213334D01*
X81402323Y68213334D02*
X81432800Y68243810D01*
X81432800Y68243810D02*
X81448038Y68274286D01*
X81448038Y68274286D02*
X81448038Y68335239D01*
X81448038Y67893334D02*
X81448038Y68076191D01*
X81448038Y67984763D02*
X81128038Y67984763D01*
X81128038Y67984763D02*
X81173752Y68015239D01*
X81173752Y68015239D02*
X81204228Y68045715D01*
X81204228Y68045715D02*
X81219466Y68076191D01*
X81158514Y67771429D02*
X81143276Y67756191D01*
X81143276Y67756191D02*
X81128038Y67725715D01*
X81128038Y67725715D02*
X81128038Y67649524D01*
X81128038Y67649524D02*
X81143276Y67619048D01*
X81143276Y67619048D02*
X81158514Y67603810D01*
X81158514Y67603810D02*
X81188990Y67588572D01*
X81188990Y67588572D02*
X81219466Y67588572D01*
X81219466Y67588572D02*
X81265180Y67603810D01*
X81265180Y67603810D02*
X81448038Y67786667D01*
X81448038Y67786667D02*
X81448038Y67588572D01*
G04 #@! TO.C,Q2*
X27978514Y38188058D02*
X27963276Y38218534D01*
X27963276Y38218534D02*
X27932800Y38249010D01*
X27932800Y38249010D02*
X27887085Y38294724D01*
X27887085Y38294724D02*
X27871847Y38325201D01*
X27871847Y38325201D02*
X27871847Y38355677D01*
X27948038Y38340439D02*
X27932800Y38370915D01*
X27932800Y38370915D02*
X27902323Y38401391D01*
X27902323Y38401391D02*
X27841371Y38416629D01*
X27841371Y38416629D02*
X27734704Y38416629D01*
X27734704Y38416629D02*
X27673752Y38401391D01*
X27673752Y38401391D02*
X27643276Y38370915D01*
X27643276Y38370915D02*
X27628038Y38340439D01*
X27628038Y38340439D02*
X27628038Y38279486D01*
X27628038Y38279486D02*
X27643276Y38249010D01*
X27643276Y38249010D02*
X27673752Y38218534D01*
X27673752Y38218534D02*
X27734704Y38203296D01*
X27734704Y38203296D02*
X27841371Y38203296D01*
X27841371Y38203296D02*
X27902323Y38218534D01*
X27902323Y38218534D02*
X27932800Y38249010D01*
X27932800Y38249010D02*
X27948038Y38279486D01*
X27948038Y38279486D02*
X27948038Y38340439D01*
X27658514Y38081391D02*
X27643276Y38066153D01*
X27643276Y38066153D02*
X27628038Y38035677D01*
X27628038Y38035677D02*
X27628038Y37959486D01*
X27628038Y37959486D02*
X27643276Y37929010D01*
X27643276Y37929010D02*
X27658514Y37913772D01*
X27658514Y37913772D02*
X27688990Y37898534D01*
X27688990Y37898534D02*
X27719466Y37898534D01*
X27719466Y37898534D02*
X27765180Y37913772D01*
X27765180Y37913772D02*
X27948038Y38096629D01*
X27948038Y38096629D02*
X27948038Y37898534D01*
D10*
G04 #@! TO.C,D64*
X96584348Y84670714D02*
X95764348Y84670714D01*
X95764348Y84670714D02*
X95764348Y84475476D01*
X95764348Y84475476D02*
X95803396Y84358333D01*
X95803396Y84358333D02*
X95881491Y84280238D01*
X95881491Y84280238D02*
X95959586Y84241191D01*
X95959586Y84241191D02*
X96115777Y84202143D01*
X96115777Y84202143D02*
X96232920Y84202143D01*
X96232920Y84202143D02*
X96389110Y84241191D01*
X96389110Y84241191D02*
X96467205Y84280238D01*
X96467205Y84280238D02*
X96545301Y84358333D01*
X96545301Y84358333D02*
X96584348Y84475476D01*
X96584348Y84475476D02*
X96584348Y84670714D01*
X95764348Y83499286D02*
X95764348Y83655476D01*
X95764348Y83655476D02*
X95803396Y83733572D01*
X95803396Y83733572D02*
X95842443Y83772619D01*
X95842443Y83772619D02*
X95959586Y83850714D01*
X95959586Y83850714D02*
X96115777Y83889762D01*
X96115777Y83889762D02*
X96428158Y83889762D01*
X96428158Y83889762D02*
X96506253Y83850714D01*
X96506253Y83850714D02*
X96545301Y83811667D01*
X96545301Y83811667D02*
X96584348Y83733572D01*
X96584348Y83733572D02*
X96584348Y83577381D01*
X96584348Y83577381D02*
X96545301Y83499286D01*
X96545301Y83499286D02*
X96506253Y83460238D01*
X96506253Y83460238D02*
X96428158Y83421191D01*
X96428158Y83421191D02*
X96232920Y83421191D01*
X96232920Y83421191D02*
X96154824Y83460238D01*
X96154824Y83460238D02*
X96115777Y83499286D01*
X96115777Y83499286D02*
X96076729Y83577381D01*
X96076729Y83577381D02*
X96076729Y83733572D01*
X96076729Y83733572D02*
X96115777Y83811667D01*
X96115777Y83811667D02*
X96154824Y83850714D01*
X96154824Y83850714D02*
X96232920Y83889762D01*
X96037681Y82718334D02*
X96584348Y82718334D01*
X95725301Y82913572D02*
X96311015Y83108810D01*
X96311015Y83108810D02*
X96311015Y82601191D01*
D11*
G04 #@! TO.C,Q16*
X24478514Y38340439D02*
X24463276Y38370915D01*
X24463276Y38370915D02*
X24432800Y38401391D01*
X24432800Y38401391D02*
X24387085Y38447105D01*
X24387085Y38447105D02*
X24371847Y38477582D01*
X24371847Y38477582D02*
X24371847Y38508058D01*
X24448038Y38492820D02*
X24432800Y38523296D01*
X24432800Y38523296D02*
X24402323Y38553772D01*
X24402323Y38553772D02*
X24341371Y38569010D01*
X24341371Y38569010D02*
X24234704Y38569010D01*
X24234704Y38569010D02*
X24173752Y38553772D01*
X24173752Y38553772D02*
X24143276Y38523296D01*
X24143276Y38523296D02*
X24128038Y38492820D01*
X24128038Y38492820D02*
X24128038Y38431867D01*
X24128038Y38431867D02*
X24143276Y38401391D01*
X24143276Y38401391D02*
X24173752Y38370915D01*
X24173752Y38370915D02*
X24234704Y38355677D01*
X24234704Y38355677D02*
X24341371Y38355677D01*
X24341371Y38355677D02*
X24402323Y38370915D01*
X24402323Y38370915D02*
X24432800Y38401391D01*
X24432800Y38401391D02*
X24448038Y38431867D01*
X24448038Y38431867D02*
X24448038Y38492820D01*
X24448038Y38050915D02*
X24448038Y38233772D01*
X24448038Y38142344D02*
X24128038Y38142344D01*
X24128038Y38142344D02*
X24173752Y38172820D01*
X24173752Y38172820D02*
X24204228Y38203296D01*
X24204228Y38203296D02*
X24219466Y38233772D01*
X24128038Y37776629D02*
X24128038Y37837582D01*
X24128038Y37837582D02*
X24143276Y37868058D01*
X24143276Y37868058D02*
X24158514Y37883296D01*
X24158514Y37883296D02*
X24204228Y37913772D01*
X24204228Y37913772D02*
X24265180Y37929010D01*
X24265180Y37929010D02*
X24387085Y37929010D01*
X24387085Y37929010D02*
X24417561Y37913772D01*
X24417561Y37913772D02*
X24432800Y37898534D01*
X24432800Y37898534D02*
X24448038Y37868058D01*
X24448038Y37868058D02*
X24448038Y37807105D01*
X24448038Y37807105D02*
X24432800Y37776629D01*
X24432800Y37776629D02*
X24417561Y37761391D01*
X24417561Y37761391D02*
X24387085Y37746153D01*
X24387085Y37746153D02*
X24310895Y37746153D01*
X24310895Y37746153D02*
X24280419Y37761391D01*
X24280419Y37761391D02*
X24265180Y37776629D01*
X24265180Y37776629D02*
X24249942Y37807105D01*
X24249942Y37807105D02*
X24249942Y37868058D01*
X24249942Y37868058D02*
X24265180Y37898534D01*
X24265180Y37898534D02*
X24280419Y37913772D01*
X24280419Y37913772D02*
X24310895Y37929010D01*
D10*
G04 #@! TO.C,D51*
X25845713Y38878233D02*
X25845713Y39698233D01*
X25845713Y39698233D02*
X25650475Y39698233D01*
X25650475Y39698233D02*
X25533332Y39659185D01*
X25533332Y39659185D02*
X25455237Y39581090D01*
X25455237Y39581090D02*
X25416190Y39502995D01*
X25416190Y39502995D02*
X25377142Y39346804D01*
X25377142Y39346804D02*
X25377142Y39229661D01*
X25377142Y39229661D02*
X25416190Y39073471D01*
X25416190Y39073471D02*
X25455237Y38995376D01*
X25455237Y38995376D02*
X25533332Y38917280D01*
X25533332Y38917280D02*
X25650475Y38878233D01*
X25650475Y38878233D02*
X25845713Y38878233D01*
X24635237Y39698233D02*
X25025713Y39698233D01*
X25025713Y39698233D02*
X25064761Y39307757D01*
X25064761Y39307757D02*
X25025713Y39346804D01*
X25025713Y39346804D02*
X24947618Y39385852D01*
X24947618Y39385852D02*
X24752380Y39385852D01*
X24752380Y39385852D02*
X24674285Y39346804D01*
X24674285Y39346804D02*
X24635237Y39307757D01*
X24635237Y39307757D02*
X24596190Y39229661D01*
X24596190Y39229661D02*
X24596190Y39034423D01*
X24596190Y39034423D02*
X24635237Y38956328D01*
X24635237Y38956328D02*
X24674285Y38917280D01*
X24674285Y38917280D02*
X24752380Y38878233D01*
X24752380Y38878233D02*
X24947618Y38878233D01*
X24947618Y38878233D02*
X25025713Y38917280D01*
X25025713Y38917280D02*
X25064761Y38956328D01*
X23815238Y38878233D02*
X24283809Y38878233D01*
X24049523Y38878233D02*
X24049523Y39698233D01*
X24049523Y39698233D02*
X24127619Y39581090D01*
X24127619Y39581090D02*
X24205714Y39502995D01*
X24205714Y39502995D02*
X24283809Y39463947D01*
D11*
G04 #@! TO.C,Q21*
X72028514Y89182858D02*
X72013276Y89213334D01*
X72013276Y89213334D02*
X71982800Y89243810D01*
X71982800Y89243810D02*
X71937085Y89289524D01*
X71937085Y89289524D02*
X71921847Y89320001D01*
X71921847Y89320001D02*
X71921847Y89350477D01*
X71998038Y89335239D02*
X71982800Y89365715D01*
X71982800Y89365715D02*
X71952323Y89396191D01*
X71952323Y89396191D02*
X71891371Y89411429D01*
X71891371Y89411429D02*
X71784704Y89411429D01*
X71784704Y89411429D02*
X71723752Y89396191D01*
X71723752Y89396191D02*
X71693276Y89365715D01*
X71693276Y89365715D02*
X71678038Y89335239D01*
X71678038Y89335239D02*
X71678038Y89274286D01*
X71678038Y89274286D02*
X71693276Y89243810D01*
X71693276Y89243810D02*
X71723752Y89213334D01*
X71723752Y89213334D02*
X71784704Y89198096D01*
X71784704Y89198096D02*
X71891371Y89198096D01*
X71891371Y89198096D02*
X71952323Y89213334D01*
X71952323Y89213334D02*
X71982800Y89243810D01*
X71982800Y89243810D02*
X71998038Y89274286D01*
X71998038Y89274286D02*
X71998038Y89335239D01*
X71708514Y89076191D02*
X71693276Y89060953D01*
X71693276Y89060953D02*
X71678038Y89030477D01*
X71678038Y89030477D02*
X71678038Y88954286D01*
X71678038Y88954286D02*
X71693276Y88923810D01*
X71693276Y88923810D02*
X71708514Y88908572D01*
X71708514Y88908572D02*
X71738990Y88893334D01*
X71738990Y88893334D02*
X71769466Y88893334D01*
X71769466Y88893334D02*
X71815180Y88908572D01*
X71815180Y88908572D02*
X71998038Y89091429D01*
X71998038Y89091429D02*
X71998038Y88893334D01*
X71998038Y88588572D02*
X71998038Y88771429D01*
X71998038Y88680001D02*
X71678038Y88680001D01*
X71678038Y88680001D02*
X71723752Y88710477D01*
X71723752Y88710477D02*
X71754228Y88740953D01*
X71754228Y88740953D02*
X71769466Y88771429D01*
D12*
G04 #@! TO.C,J4*
X95133333Y4237381D02*
X95133333Y3523096D01*
X95133333Y3523096D02*
X95180952Y3380239D01*
X95180952Y3380239D02*
X95276190Y3285000D01*
X95276190Y3285000D02*
X95419047Y3237381D01*
X95419047Y3237381D02*
X95514285Y3237381D01*
X94228571Y3904048D02*
X94228571Y3237381D01*
X94466666Y4285000D02*
X94704761Y3570715D01*
X94704761Y3570715D02*
X94085714Y3570715D01*
D10*
G04 #@! TO.C,D70*
X26874348Y84520714D02*
X26054348Y84520714D01*
X26054348Y84520714D02*
X26054348Y84325476D01*
X26054348Y84325476D02*
X26093396Y84208333D01*
X26093396Y84208333D02*
X26171491Y84130238D01*
X26171491Y84130238D02*
X26249586Y84091191D01*
X26249586Y84091191D02*
X26405777Y84052143D01*
X26405777Y84052143D02*
X26522920Y84052143D01*
X26522920Y84052143D02*
X26679110Y84091191D01*
X26679110Y84091191D02*
X26757205Y84130238D01*
X26757205Y84130238D02*
X26835301Y84208333D01*
X26835301Y84208333D02*
X26874348Y84325476D01*
X26874348Y84325476D02*
X26874348Y84520714D01*
X26054348Y83778810D02*
X26054348Y83232143D01*
X26054348Y83232143D02*
X26874348Y83583572D01*
X26054348Y82763572D02*
X26054348Y82685477D01*
X26054348Y82685477D02*
X26093396Y82607381D01*
X26093396Y82607381D02*
X26132443Y82568334D01*
X26132443Y82568334D02*
X26210539Y82529286D01*
X26210539Y82529286D02*
X26366729Y82490239D01*
X26366729Y82490239D02*
X26561967Y82490239D01*
X26561967Y82490239D02*
X26718158Y82529286D01*
X26718158Y82529286D02*
X26796253Y82568334D01*
X26796253Y82568334D02*
X26835301Y82607381D01*
X26835301Y82607381D02*
X26874348Y82685477D01*
X26874348Y82685477D02*
X26874348Y82763572D01*
X26874348Y82763572D02*
X26835301Y82841667D01*
X26835301Y82841667D02*
X26796253Y82880715D01*
X26796253Y82880715D02*
X26718158Y82919762D01*
X26718158Y82919762D02*
X26561967Y82958810D01*
X26561967Y82958810D02*
X26366729Y82958810D01*
X26366729Y82958810D02*
X26210539Y82919762D01*
X26210539Y82919762D02*
X26132443Y82880715D01*
X26132443Y82880715D02*
X26093396Y82841667D01*
X26093396Y82841667D02*
X26054348Y82763572D01*
G04 #@! TO.C,D67*
X34179348Y84495714D02*
X33359348Y84495714D01*
X33359348Y84495714D02*
X33359348Y84300476D01*
X33359348Y84300476D02*
X33398396Y84183333D01*
X33398396Y84183333D02*
X33476491Y84105238D01*
X33476491Y84105238D02*
X33554586Y84066191D01*
X33554586Y84066191D02*
X33710777Y84027143D01*
X33710777Y84027143D02*
X33827920Y84027143D01*
X33827920Y84027143D02*
X33984110Y84066191D01*
X33984110Y84066191D02*
X34062205Y84105238D01*
X34062205Y84105238D02*
X34140301Y84183333D01*
X34140301Y84183333D02*
X34179348Y84300476D01*
X34179348Y84300476D02*
X34179348Y84495714D01*
X33359348Y83324286D02*
X33359348Y83480476D01*
X33359348Y83480476D02*
X33398396Y83558572D01*
X33398396Y83558572D02*
X33437443Y83597619D01*
X33437443Y83597619D02*
X33554586Y83675714D01*
X33554586Y83675714D02*
X33710777Y83714762D01*
X33710777Y83714762D02*
X34023158Y83714762D01*
X34023158Y83714762D02*
X34101253Y83675714D01*
X34101253Y83675714D02*
X34140301Y83636667D01*
X34140301Y83636667D02*
X34179348Y83558572D01*
X34179348Y83558572D02*
X34179348Y83402381D01*
X34179348Y83402381D02*
X34140301Y83324286D01*
X34140301Y83324286D02*
X34101253Y83285238D01*
X34101253Y83285238D02*
X34023158Y83246191D01*
X34023158Y83246191D02*
X33827920Y83246191D01*
X33827920Y83246191D02*
X33749824Y83285238D01*
X33749824Y83285238D02*
X33710777Y83324286D01*
X33710777Y83324286D02*
X33671729Y83402381D01*
X33671729Y83402381D02*
X33671729Y83558572D01*
X33671729Y83558572D02*
X33710777Y83636667D01*
X33710777Y83636667D02*
X33749824Y83675714D01*
X33749824Y83675714D02*
X33827920Y83714762D01*
X33359348Y82972858D02*
X33359348Y82426191D01*
X33359348Y82426191D02*
X34179348Y82777620D01*
G04 #@! TO.C,D52*
X68745713Y79683152D02*
X68745713Y80503152D01*
X68745713Y80503152D02*
X68550475Y80503152D01*
X68550475Y80503152D02*
X68433332Y80464104D01*
X68433332Y80464104D02*
X68355237Y80386009D01*
X68355237Y80386009D02*
X68316190Y80307914D01*
X68316190Y80307914D02*
X68277142Y80151723D01*
X68277142Y80151723D02*
X68277142Y80034580D01*
X68277142Y80034580D02*
X68316190Y79878390D01*
X68316190Y79878390D02*
X68355237Y79800295D01*
X68355237Y79800295D02*
X68433332Y79722199D01*
X68433332Y79722199D02*
X68550475Y79683152D01*
X68550475Y79683152D02*
X68745713Y79683152D01*
X67535237Y80503152D02*
X67925713Y80503152D01*
X67925713Y80503152D02*
X67964761Y80112676D01*
X67964761Y80112676D02*
X67925713Y80151723D01*
X67925713Y80151723D02*
X67847618Y80190771D01*
X67847618Y80190771D02*
X67652380Y80190771D01*
X67652380Y80190771D02*
X67574285Y80151723D01*
X67574285Y80151723D02*
X67535237Y80112676D01*
X67535237Y80112676D02*
X67496190Y80034580D01*
X67496190Y80034580D02*
X67496190Y79839342D01*
X67496190Y79839342D02*
X67535237Y79761247D01*
X67535237Y79761247D02*
X67574285Y79722199D01*
X67574285Y79722199D02*
X67652380Y79683152D01*
X67652380Y79683152D02*
X67847618Y79683152D01*
X67847618Y79683152D02*
X67925713Y79722199D01*
X67925713Y79722199D02*
X67964761Y79761247D01*
X67183809Y80425057D02*
X67144761Y80464104D01*
X67144761Y80464104D02*
X67066666Y80503152D01*
X67066666Y80503152D02*
X66871428Y80503152D01*
X66871428Y80503152D02*
X66793333Y80464104D01*
X66793333Y80464104D02*
X66754285Y80425057D01*
X66754285Y80425057D02*
X66715238Y80346961D01*
X66715238Y80346961D02*
X66715238Y80268866D01*
X66715238Y80268866D02*
X66754285Y80151723D01*
X66754285Y80151723D02*
X67222857Y79683152D01*
X67222857Y79683152D02*
X66715238Y79683152D01*
G04 #@! TO.C,D66*
X4179348Y84495714D02*
X3359348Y84495714D01*
X3359348Y84495714D02*
X3359348Y84300476D01*
X3359348Y84300476D02*
X3398396Y84183333D01*
X3398396Y84183333D02*
X3476491Y84105238D01*
X3476491Y84105238D02*
X3554586Y84066191D01*
X3554586Y84066191D02*
X3710777Y84027143D01*
X3710777Y84027143D02*
X3827920Y84027143D01*
X3827920Y84027143D02*
X3984110Y84066191D01*
X3984110Y84066191D02*
X4062205Y84105238D01*
X4062205Y84105238D02*
X4140301Y84183333D01*
X4140301Y84183333D02*
X4179348Y84300476D01*
X4179348Y84300476D02*
X4179348Y84495714D01*
X3359348Y83324286D02*
X3359348Y83480476D01*
X3359348Y83480476D02*
X3398396Y83558572D01*
X3398396Y83558572D02*
X3437443Y83597619D01*
X3437443Y83597619D02*
X3554586Y83675714D01*
X3554586Y83675714D02*
X3710777Y83714762D01*
X3710777Y83714762D02*
X4023158Y83714762D01*
X4023158Y83714762D02*
X4101253Y83675714D01*
X4101253Y83675714D02*
X4140301Y83636667D01*
X4140301Y83636667D02*
X4179348Y83558572D01*
X4179348Y83558572D02*
X4179348Y83402381D01*
X4179348Y83402381D02*
X4140301Y83324286D01*
X4140301Y83324286D02*
X4101253Y83285238D01*
X4101253Y83285238D02*
X4023158Y83246191D01*
X4023158Y83246191D02*
X3827920Y83246191D01*
X3827920Y83246191D02*
X3749824Y83285238D01*
X3749824Y83285238D02*
X3710777Y83324286D01*
X3710777Y83324286D02*
X3671729Y83402381D01*
X3671729Y83402381D02*
X3671729Y83558572D01*
X3671729Y83558572D02*
X3710777Y83636667D01*
X3710777Y83636667D02*
X3749824Y83675714D01*
X3749824Y83675714D02*
X3827920Y83714762D01*
X3359348Y82543334D02*
X3359348Y82699524D01*
X3359348Y82699524D02*
X3398396Y82777620D01*
X3398396Y82777620D02*
X3437443Y82816667D01*
X3437443Y82816667D02*
X3554586Y82894762D01*
X3554586Y82894762D02*
X3710777Y82933810D01*
X3710777Y82933810D02*
X4023158Y82933810D01*
X4023158Y82933810D02*
X4101253Y82894762D01*
X4101253Y82894762D02*
X4140301Y82855715D01*
X4140301Y82855715D02*
X4179348Y82777620D01*
X4179348Y82777620D02*
X4179348Y82621429D01*
X4179348Y82621429D02*
X4140301Y82543334D01*
X4140301Y82543334D02*
X4101253Y82504286D01*
X4101253Y82504286D02*
X4023158Y82465239D01*
X4023158Y82465239D02*
X3827920Y82465239D01*
X3827920Y82465239D02*
X3749824Y82504286D01*
X3749824Y82504286D02*
X3710777Y82543334D01*
X3710777Y82543334D02*
X3671729Y82621429D01*
X3671729Y82621429D02*
X3671729Y82777620D01*
X3671729Y82777620D02*
X3710777Y82855715D01*
X3710777Y82855715D02*
X3749824Y82894762D01*
X3749824Y82894762D02*
X3827920Y82933810D01*
G04 #@! TO.C,D69*
X9879348Y35995714D02*
X9059348Y35995714D01*
X9059348Y35995714D02*
X9059348Y35800476D01*
X9059348Y35800476D02*
X9098396Y35683333D01*
X9098396Y35683333D02*
X9176491Y35605238D01*
X9176491Y35605238D02*
X9254586Y35566191D01*
X9254586Y35566191D02*
X9410777Y35527143D01*
X9410777Y35527143D02*
X9527920Y35527143D01*
X9527920Y35527143D02*
X9684110Y35566191D01*
X9684110Y35566191D02*
X9762205Y35605238D01*
X9762205Y35605238D02*
X9840301Y35683333D01*
X9840301Y35683333D02*
X9879348Y35800476D01*
X9879348Y35800476D02*
X9879348Y35995714D01*
X9059348Y34824286D02*
X9059348Y34980476D01*
X9059348Y34980476D02*
X9098396Y35058572D01*
X9098396Y35058572D02*
X9137443Y35097619D01*
X9137443Y35097619D02*
X9254586Y35175714D01*
X9254586Y35175714D02*
X9410777Y35214762D01*
X9410777Y35214762D02*
X9723158Y35214762D01*
X9723158Y35214762D02*
X9801253Y35175714D01*
X9801253Y35175714D02*
X9840301Y35136667D01*
X9840301Y35136667D02*
X9879348Y35058572D01*
X9879348Y35058572D02*
X9879348Y34902381D01*
X9879348Y34902381D02*
X9840301Y34824286D01*
X9840301Y34824286D02*
X9801253Y34785238D01*
X9801253Y34785238D02*
X9723158Y34746191D01*
X9723158Y34746191D02*
X9527920Y34746191D01*
X9527920Y34746191D02*
X9449824Y34785238D01*
X9449824Y34785238D02*
X9410777Y34824286D01*
X9410777Y34824286D02*
X9371729Y34902381D01*
X9371729Y34902381D02*
X9371729Y35058572D01*
X9371729Y35058572D02*
X9410777Y35136667D01*
X9410777Y35136667D02*
X9449824Y35175714D01*
X9449824Y35175714D02*
X9527920Y35214762D01*
X9879348Y34355715D02*
X9879348Y34199524D01*
X9879348Y34199524D02*
X9840301Y34121429D01*
X9840301Y34121429D02*
X9801253Y34082381D01*
X9801253Y34082381D02*
X9684110Y34004286D01*
X9684110Y34004286D02*
X9527920Y33965239D01*
X9527920Y33965239D02*
X9215539Y33965239D01*
X9215539Y33965239D02*
X9137443Y34004286D01*
X9137443Y34004286D02*
X9098396Y34043334D01*
X9098396Y34043334D02*
X9059348Y34121429D01*
X9059348Y34121429D02*
X9059348Y34277620D01*
X9059348Y34277620D02*
X9098396Y34355715D01*
X9098396Y34355715D02*
X9137443Y34394762D01*
X9137443Y34394762D02*
X9215539Y34433810D01*
X9215539Y34433810D02*
X9410777Y34433810D01*
X9410777Y34433810D02*
X9488872Y34394762D01*
X9488872Y34394762D02*
X9527920Y34355715D01*
X9527920Y34355715D02*
X9566967Y34277620D01*
X9566967Y34277620D02*
X9566967Y34121429D01*
X9566967Y34121429D02*
X9527920Y34043334D01*
X9527920Y34043334D02*
X9488872Y34004286D01*
X9488872Y34004286D02*
X9410777Y33965239D01*
D11*
G04 #@! TO.C,Q51*
X23878514Y72420358D02*
X23863276Y72450834D01*
X23863276Y72450834D02*
X23832800Y72481310D01*
X23832800Y72481310D02*
X23787085Y72527024D01*
X23787085Y72527024D02*
X23771847Y72557501D01*
X23771847Y72557501D02*
X23771847Y72587977D01*
X23848038Y72572739D02*
X23832800Y72603215D01*
X23832800Y72603215D02*
X23802323Y72633691D01*
X23802323Y72633691D02*
X23741371Y72648929D01*
X23741371Y72648929D02*
X23634704Y72648929D01*
X23634704Y72648929D02*
X23573752Y72633691D01*
X23573752Y72633691D02*
X23543276Y72603215D01*
X23543276Y72603215D02*
X23528038Y72572739D01*
X23528038Y72572739D02*
X23528038Y72511786D01*
X23528038Y72511786D02*
X23543276Y72481310D01*
X23543276Y72481310D02*
X23573752Y72450834D01*
X23573752Y72450834D02*
X23634704Y72435596D01*
X23634704Y72435596D02*
X23741371Y72435596D01*
X23741371Y72435596D02*
X23802323Y72450834D01*
X23802323Y72450834D02*
X23832800Y72481310D01*
X23832800Y72481310D02*
X23848038Y72511786D01*
X23848038Y72511786D02*
X23848038Y72572739D01*
X23528038Y72146072D02*
X23528038Y72298453D01*
X23528038Y72298453D02*
X23680419Y72313691D01*
X23680419Y72313691D02*
X23665180Y72298453D01*
X23665180Y72298453D02*
X23649942Y72267977D01*
X23649942Y72267977D02*
X23649942Y72191786D01*
X23649942Y72191786D02*
X23665180Y72161310D01*
X23665180Y72161310D02*
X23680419Y72146072D01*
X23680419Y72146072D02*
X23710895Y72130834D01*
X23710895Y72130834D02*
X23787085Y72130834D01*
X23787085Y72130834D02*
X23817561Y72146072D01*
X23817561Y72146072D02*
X23832800Y72161310D01*
X23832800Y72161310D02*
X23848038Y72191786D01*
X23848038Y72191786D02*
X23848038Y72267977D01*
X23848038Y72267977D02*
X23832800Y72298453D01*
X23832800Y72298453D02*
X23817561Y72313691D01*
X23848038Y71826072D02*
X23848038Y72008929D01*
X23848038Y71917501D02*
X23528038Y71917501D01*
X23528038Y71917501D02*
X23573752Y71947977D01*
X23573752Y71947977D02*
X23604228Y71978453D01*
X23604228Y71978453D02*
X23619466Y72008929D01*
D13*
G04 #@! TO.C,Q1*
X42950000Y72450000D02*
X42950000Y75025000D01*
X42950000Y75025000D02*
X42625000Y75350000D01*
X42625000Y75350000D02*
X41650000Y75350000D01*
X41650000Y72450000D02*
X42950000Y72450000D01*
X41650000Y75350000D02*
X41650000Y72450000D01*
G04 #@! TO.C,Q3*
X34712500Y72450000D02*
X34712500Y75025000D01*
X34712500Y75025000D02*
X34387500Y75350000D01*
X34387500Y75350000D02*
X33412500Y75350000D01*
X33412500Y72450000D02*
X34712500Y72450000D01*
X33412500Y75350000D02*
X33412500Y72450000D01*
G04 #@! TO.C,D29*
X41350000Y80087500D02*
X38775000Y80087500D01*
X38775000Y80087500D02*
X38450000Y79762500D01*
X38450000Y79762500D02*
X38450000Y78787500D01*
X41350000Y78787500D02*
X41350000Y80087500D01*
X38450000Y78787500D02*
X41350000Y78787500D01*
G04 #@! TO.C,U1*
X50295290Y83640000D02*
X50295290Y89040000D01*
X49295290Y90040000D02*
X50295290Y89040000D01*
X49295290Y90040000D02*
X47445290Y90040000D01*
X47445290Y82940000D02*
X47445290Y83640000D01*
X47445290Y83640000D02*
X50295290Y83640000D01*
X47445290Y90040000D02*
X47445290Y90740000D01*
X47445290Y90740000D02*
X45645290Y90740000D01*
X45645290Y82940000D02*
X47445290Y82940000D01*
X45645290Y83640000D02*
X45645290Y82940000D01*
X45645290Y90040000D02*
X42795290Y90040000D01*
X45645290Y90740000D02*
X45645290Y90040000D01*
X42795290Y83640000D02*
X45645290Y83640000D01*
X42795290Y90040000D02*
X42795290Y83640000D01*
G04 #@! TO.C,Q12*
X82750000Y68650000D02*
X80175000Y68650000D01*
X80175000Y68650000D02*
X79850000Y68325000D01*
X79850000Y68325000D02*
X79850000Y67350000D01*
X82750000Y67350000D02*
X82750000Y68650000D01*
X79850000Y67350000D02*
X82750000Y67350000D01*
G04 #@! TO.C,Q2*
X26350000Y37507581D02*
X28925000Y37507581D01*
X28925000Y37507581D02*
X29250000Y37832581D01*
X29250000Y37832581D02*
X29250000Y38807581D01*
X26350000Y38807581D02*
X26350000Y37507581D01*
X29250000Y38807581D02*
X26350000Y38807581D01*
G04 #@! TO.C,Q16*
X22850000Y37507581D02*
X25425000Y37507581D01*
X25425000Y37507581D02*
X25750000Y37832581D01*
X25750000Y37832581D02*
X25750000Y38807581D01*
X22850000Y38807581D02*
X22850000Y37507581D01*
X25750000Y38807581D02*
X22850000Y38807581D01*
G04 #@! TO.C,Q21*
X70400000Y88350000D02*
X72975000Y88350000D01*
X72975000Y88350000D02*
X73300000Y88675000D01*
X73300000Y88675000D02*
X73300000Y89650000D01*
X70400000Y89650000D02*
X70400000Y88350000D01*
X73300000Y89650000D02*
X70400000Y89650000D01*
G04 #@! TO.C,Q51*
X25150000Y72887500D02*
X22575000Y72887500D01*
X22575000Y72887500D02*
X22250000Y72562500D01*
X22250000Y72562500D02*
X22250000Y71587500D01*
X25150000Y71587500D02*
X25150000Y72887500D01*
X22250000Y71587500D02*
X25150000Y71587500D01*
G04 #@! TD*
M02*
