M48
; DRILL file {KiCad 7.0.9-7.0.9~ubuntu22.04.1} date Mon Dec 11 02:17:20 2023
; FORMAT={2:4/ absolute / inch / suppress leading zeros}
; #@! TF.CreationDate,2023-12-11T02:17:20+00:00
; #@! TF.GenerationSoftware,Kicad,Pcbnew,7.0.9-7.0.9~ubuntu22.04.1
; #@! TF.FileFunction,MixedPlating,1,4
FMAT,2
INCH,TZ
; #@! TA.AperFunction,Plated,PTH,ComponentDrill
T1C0.0118
; #@! TA.AperFunction,Plated,PTH,ViaDrill
T2C0.0118
; #@! TA.AperFunction,Plated,PTH,ComponentDrill
T3C0.0118
; #@! TA.AperFunction,Plated,PTH,ComponentDrill
T4C0.0236
; #@! TA.AperFunction,Plated,PTH,ComponentDrill
T5C0.0320
; #@! TA.AperFunction,Plated,PTH,ComponentDrill
T6C0.0335
; #@! TA.AperFunction,Plated,PTH,ViaDrill
T7C0.0394
; #@! TA.AperFunction,Plated,PTH,ComponentDrill
T8C0.0394
; #@! TA.AperFunction,Plated,PTH,ComponentDrill
T9C0.0402
; #@! TA.AperFunction,Plated,PTH,ComponentDrill
T10C0.0748
; #@! TA.AperFunction,Plated,PTH,ComponentDrill
T11C0.0984
; #@! TA.AperFunction,Plated,PTH,ComponentDrill
T12C0.1378
; #@! TA.AperFunction,NonPlated,NPTH,ComponentDrill
T13C0.0256
; #@! TA.AperFunction,NonPlated,NPTH,ComponentDrill
T14C0.0402
%
G90
G05
T1
X10461Y9611
X10461Y8843
X10461Y7820
X10976Y9355
X11154Y8715
X11183Y7652
X11183Y8381
X11189Y6904
X11268Y8036
X12793Y6786
X13957Y9596
X13957Y8829
X13957Y7805
X14472Y9341
X14650Y8701
X14679Y7638
X14679Y8366
X14685Y6890
X14764Y8022
X16289Y6772
T2
X197Y34528
X197Y11772
X276Y30276
X354Y40669
X488Y11536
X512Y11102
X531Y44587
X591Y12559
X827Y38189
X827Y28386
X976Y35735
X984Y18701
X984Y18346
X1102Y29606
X1142Y32205
X1142Y29291
X1181Y11339
X1220Y31220
X1299Y23133
X1378Y30472
X1488Y27961
X1496Y5118
X1614Y22758
X1614Y22443
X1614Y6299
X1654Y12520
X1810Y11554
X1811Y35315
X1850Y16378
X1850Y5472
X1949Y42264
X1957Y12884
X1969Y12441
X1969Y31929
X2008Y26855
X2008Y31142
X2008Y7677
X2087Y30669
X2165Y19724
X2205Y6772
X2207Y28235
X2210Y26607
X2283Y31929
X2322Y27085
X2441Y12362
X2441Y12047
X2551Y28444
X2562Y27290
X2568Y12844
X2598Y30669
X2677Y5866
X2776Y19508
X2795Y20000
X2799Y27496
X2807Y10269
X2850Y19094
X2874Y17913
X2874Y16732
X2908Y21443
X2910Y31901
X2953Y36220
X2953Y7520
X2977Y20605
X3031Y21732
X3071Y33031
X3110Y34331
X3113Y27520
X3150Y6772
X3189Y28425
X3189Y32047
X3189Y22506
X3307Y13110
X3404Y12642
X3425Y22244
X3425Y15787
X3426Y21204
X3465Y12165
X3491Y29264
X3534Y20009
X3552Y26424
X3613Y26024
X3659Y20655
X3701Y30433
X3722Y35547
X3780Y28740
X3858Y18228
X4016Y29873
X4213Y19291
X4291Y30551
X4409Y16181
X4449Y25118
X4487Y21497
X4527Y20868
X4801Y28152
X4843Y30394
X4882Y31024
X4882Y19055
X4891Y29882
X4921Y15315
X4982Y20864
X5276Y30630
X5276Y28543
X5355Y29321
X5394Y11969
X5465Y18324
X5512Y32323
X5817Y19134
X5945Y34724
X6043Y44547
X6102Y18898
X6110Y12207
X6120Y34446
X6124Y28207
X6142Y29945
X6181Y36811
X6247Y29264
X6278Y32374
X6457Y38150
X6546Y30247
X6575Y37047
X6766Y30662
X6818Y27592
X6968Y29841
X6969Y28110
X7087Y32244
X7106Y36868
X7165Y30394
X7166Y27606
X7244Y14291
X7424Y30573
X7532Y28167
X7559Y37087
X7559Y35315
X7602Y31059
X7621Y38234
X7662Y27625
X7676Y19084
X7795Y32166
X7834Y29980
X7835Y11890
X7932Y27187
X7992Y36890
X8123Y30209
X8209Y28129
X8228Y29291
X8306Y29905
X8346Y30429
X8346Y27520
X8386Y32165
X8386Y14016
X8504Y27244
X8552Y26921
X8740Y11850
X8781Y30209
X8819Y36693
X8839Y42264
X8839Y40551
X8897Y30898
X8937Y14646
X8976Y28228
X8978Y34498
X9016Y32244
X9016Y13031
X9166Y33976
X9212Y35069
X9331Y29055
X9370Y29528
X9466Y13668
X9483Y5468
X9488Y38228
X9488Y3661
X9488Y3071
X9528Y30897
X9567Y14252
X9646Y36929
X9646Y16260
X9702Y28165
X9724Y5669
X10000Y30394
X10000Y9173
X10007Y32267
X10010Y19842
X10023Y28195
X10039Y10984
X10118Y35433
X10118Y28740
X10118Y26457
X10118Y10157
X10157Y13740
X10236Y15748
X10269Y15039
X10310Y14033
X10315Y20079
X10335Y19280
X10363Y14559
X10394Y18494
X10411Y11959
X10512Y27201
X10669Y20551
X10709Y35354
X10748Y21338
X10748Y20039
X10787Y38071
X10801Y12093
X10827Y37244
X10844Y28543
X10984Y20354
X11024Y22480
X11063Y25755
X11102Y23071
X11125Y44567
X11161Y29823
X11260Y26851
X11280Y26143
X11299Y28031
X11299Y2323
X11339Y827
X11350Y16496
X11378Y28583
X11380Y24252
X11415Y25083
X11417Y5787
X11418Y27481
X11575Y14803
X11575Y14094
X11614Y37205
X11732Y38110
X11771Y35754
X11811Y14409
X11922Y27539
X11936Y5788
X11969Y12008
X12008Y33110
X12087Y34134
X12094Y32808
X12119Y31025
X12120Y20380
X12165Y35076
X12166Y20013
X12244Y12165
X12283Y20669
X12362Y27598
X12382Y2324
X12441Y12442
X12441Y827
X12480Y27914
X12480Y22242
X12520Y20157
X12520Y18150
X12545Y20495
X12677Y16614
X12677Y16024
X12795Y12442
X12835Y42520
X12875Y20157
X12913Y35236
X12953Y31220
X12953Y28386
X12962Y32205
X13071Y4409
X13110Y29449
X13165Y28774
X13228Y20119
X13259Y18336
X13307Y13150
X13425Y38543
X13543Y32165
X13581Y17991
X13583Y8150
X13603Y27086
X13618Y13100
X13622Y10551
X13627Y11736
X13640Y10236
X13640Y8740
X13640Y7205
X13642Y7581
X13680Y27412
X13835Y11973
X13858Y31299
X13927Y13155
X13937Y30394
X14016Y29094
X14076Y4948
X14146Y12016
X14156Y13371
X14169Y906
X14247Y16896
X14252Y32126
X14291Y30395
X14291Y28346
X14291Y26660
X14409Y1732
X14455Y13227
X14488Y16693
X14567Y36220
X14685Y35354
X14685Y16102
X14724Y20197
X14774Y30443
X14801Y32207
X14815Y13324
X14921Y14567
X14921Y4173
X14924Y27580
X14961Y35591
X15000Y30197
X15000Y16693
X15149Y13212
X15264Y30699
X15276Y35630
X15456Y13142
X15512Y32008
X15551Y26791
X15577Y28202
X15669Y42082
X15669Y17126
X15669Y3189
X15748Y30669
X15771Y13150
X15852Y20368
X15866Y37217
X15866Y34780
X15925Y34335
X15945Y33205
X15963Y33992
X15963Y33598
X15984Y26260
X15984Y3346
X16024Y44724
X16024Y38583
X16179Y12441
X16260Y22165
X16339Y35669
X16357Y28738
X16417Y31142
X16417Y30827
X16417Y5551
X16428Y30236
X16442Y29415
X16457Y14528
X16535Y16890
X16644Y3258
X16654Y13947
X16654Y12283
X16671Y20077
X16687Y27939
X16732Y37992
X16850Y28386
X16850Y26772
X16851Y27543
X16890Y2436
X16947Y33992
X16947Y33598
X16947Y33205
X16969Y3268
X17008Y22131
X17027Y29914
X17047Y36811
X17087Y38425
X17087Y35827
X17126Y13268
X17156Y20584
X17205Y20079
X17205Y2126
X17205Y29094
X17283Y16615
X17283Y17087
X17323Y15591
X17323Y14291
X17398Y30048
X17463Y27107
X17638Y31417
X17644Y21943
X17708Y20065
X17784Y29973
X17795Y38388
X17795Y35276
X17835Y42559
X17835Y28407
X17874Y31969
X17897Y27364
X17913Y41181
X17914Y31137
X18097Y21060
X18113Y33107
X18189Y34843
X18189Y32166
X18189Y27480
X18195Y22162
X18543Y31969
X18543Y31181
X18602Y18070
X18661Y36888
X18754Y35685
X18839Y33876
X18922Y31954
X19083Y18158
X19094Y37059
X19186Y22476
X19213Y31181
X19252Y36693
X19252Y20199
X19409Y18150
X19528Y29803
X19567Y22323
X19646Y41339
X19664Y34004
X19703Y33598
X19703Y33205
X19764Y43701
X19803Y22087
X19843Y35142
X19882Y31181
X20000Y20514
X20039Y40628
X20157Y30354
X20157Y22165
X20236Y31417
X20315Y20514
X20335Y44724
X20354Y42480
X20354Y39882
X20394Y38228
X20423Y29922
X20512Y36575
X20687Y33205
X20728Y18937
X20748Y33598
X20748Y22244
X20750Y32108
X20770Y33992
X20799Y20669
X20945Y35748
X20945Y29921
X21063Y31850
X21063Y20000
X21102Y34094
X21102Y33150
X21201Y31023
X21220Y31378
X21273Y32338
X21320Y34310
X21417Y29960
X21476Y18937
X21575Y20140
X21776Y22087
X21813Y30479
X21929Y22717
X22045Y39646
X22087Y35315
X22087Y32283
X22106Y38944
X22126Y40669
X22224Y18898
X22244Y20236
X22255Y22152
X22402Y35709
X22559Y43307
X22579Y41398
X22751Y22166
X22835Y17835
X22874Y30079
X22919Y38944
X22955Y39646
X22972Y18898
X22992Y31575
X22992Y30906
X22992Y20236
X23189Y30079
X23306Y32322
X23504Y18583
X23583Y42323
X23614Y22162
X23673Y35267
X23720Y18898
X23728Y37717
X23817Y20396
X23976Y18268
X24055Y31535
X24153Y35318
X24371Y30620
X24380Y38031
X24457Y18167
X24469Y18898
X24488Y29606
X24540Y20064
X24593Y21023
X24646Y36078
X24650Y30472
X24671Y34702
X24692Y33921
X24950Y18259
X25000Y1417
X25079Y40335
X25157Y33819
X25185Y35283
X25217Y20981
X25433Y18828
X25604Y21706
X25653Y31102
X25866Y38071
X25906Y18543
X25945Y36850
X25945Y31378
X25965Y18898
X25999Y20177
X26059Y22441
X26077Y20999
X26181Y32480
X26217Y18588
X26339Y31850
X26341Y20178
X26457Y37767
X26693Y26220
X26693Y31575
X26710Y29515
X26713Y18898
X26716Y24094
X26729Y20166
X26790Y21141
X26791Y38171
X26811Y44724
X26850Y31260
X26969Y34582
X27047Y35408
X27047Y34094
X27092Y20201
X27182Y29489
X27283Y34331
X27381Y22254
X27461Y18898
X27486Y20197
X27649Y21176
X27698Y22181
X27812Y29646
X27835Y23170
X27835Y551
X27840Y22516
X27865Y18071
X28031Y32087
X28093Y35866
X28113Y22181
X28134Y34450
X28209Y20197
X28209Y18898
X28216Y30899
X28307Y21333
X28346Y34685
X28371Y32900
X28520Y22461
X28538Y33788
X28543Y32126
X28545Y21953
X28613Y18228
X28661Y31614
X28668Y31285
X28740Y35551
X28789Y22625
X28898Y18386
X29173Y18625
X29196Y23249
X29213Y36181
X29213Y18976
X29291Y17913
X29323Y19575
X29331Y20315
X29387Y38041
X29518Y38461
X29518Y23596
X29528Y1417
X29646Y32323
X29661Y24198
X29692Y23859
X29882Y18976
X29961Y38010
X30000Y29803
X30050Y19535
X30118Y37283
X30118Y30827
X30118Y27323
X30118Y25394
X30118Y26417
X30170Y21170
X30174Y31859
X30354Y28504
X30438Y20773
X30551Y43543
X30591Y35748
X30630Y38701
X30630Y19567
X30786Y18195
X30792Y32283
X30866Y23228
X30945Y27362
X30954Y29843
X30981Y19572
X31114Y32283
X31156Y31353
X31197Y23231
X31398Y27593
X31429Y32283
X31457Y25245
X31535Y22121
X31596Y30667
X31655Y20691
X31895Y18110
X31929Y33976
X31929Y33346
X31949Y44724
X31969Y42205
X31969Y32362
X31984Y31378
X31986Y26817
X31988Y28504
X32005Y22016
X32008Y28150
X32047Y40472
X32047Y27126
X32123Y29455
X32130Y20873
X32197Y34567
X32283Y18189
X32416Y29843
X32480Y38898
X32480Y20694
X32598Y24693
X32638Y32402
X32677Y27835
X32717Y37008
X32791Y21943
X32835Y18150
X32835Y1378
X33026Y21332
X33031Y37205
X33031Y35984
X33050Y29805
X33071Y20354
X33110Y23543
X33160Y38435
X33304Y38017
X33307Y30669
X33425Y20236
X33425Y18976
X33425Y43071
X33465Y17402
X33478Y30088
X33543Y26535
X33576Y29618
X33633Y20739
X33661Y36457
X33701Y31378
X33745Y18040
X33780Y32362
X34027Y30317
X34055Y25817
X34094Y36220
X34094Y315
X34134Y18976
X34173Y20236
X34173Y21693
X34252Y24134
X34291Y16772
X34331Y30725
X34331Y15000
X34370Y7205
X34409Y18189
X34409Y12244
X34409Y4843
X34449Y5669
X34449Y315
X34547Y19500
X34567Y30433
X34685Y26638
X34724Y472
X34764Y25787
X34843Y18976
X34925Y20236
X34925Y20945
X34925Y20551
X34961Y25433
X34961Y23537
X34961Y11772
X34961Y23222
X35004Y26178
X35014Y596
X35039Y14016
X35055Y29765
X35079Y21655
X35197Y24685
X35197Y1693
X35199Y23743
X35264Y17511
X35276Y24057
X35329Y12537
X35354Y630
X35433Y15157
X35440Y10873
X35460Y18158
X35472Y6457
X35591Y32008
X35591Y12362
X35663Y11096
X35709Y19488
X35748Y354
X35750Y35393
X35756Y20221
X35765Y17103
X35781Y18155
X35781Y17480
X35845Y29859
X35984Y36919
X36007Y22947
X36021Y37288
X36299Y28583
X36299Y748
X36323Y22808
X36339Y44331
X36339Y10157
X36339Y8976
X36378Y7126
X36378Y10591
X36382Y8577
X36419Y15157
X36435Y23127
X36457Y13858
X36457Y11693
X36457Y9567
X36496Y28110
X36535Y30197
X36556Y8315
X36575Y236
X36636Y923
X36700Y24014
X36929Y31339
X36929Y2087
X36963Y16924
X37087Y5000
X37126Y35276
X37128Y22377
X37134Y21399
X37136Y21775
X37166Y23227
X37185Y44665
X37323Y5866
X37362Y17427
X37401Y24016
X37402Y30748
X37480Y32008
X37516Y18676
X37657Y18394
X37677Y35709
X37697Y40531
X37794Y18109
X37795Y29429
X37795Y197
X37815Y31969
X37815Y28228
X37815Y1339
T3
X4715Y23917
X4715Y23445
X4715Y22972
X4715Y22500
X10394Y25437
X10394Y25043
X11762Y23436
X11762Y23042
X17441Y25979
X17441Y25507
X17441Y25034
X17441Y24562
X17598Y16260
X17598Y13307
X17598Y12992
X17598Y12677
X17598Y12362
X17598Y12047
X17598Y11417
X17598Y11102
X17598Y10787
X17598Y10472
X17598Y10157
X17598Y9843
X17598Y9528
X17598Y9213
X17598Y8898
X17598Y8583
X17598Y7638
X17598Y7323
X17598Y7008
X17598Y5748
X17598Y5433
X17598Y5118
X17598Y4803
X17598Y3858
X17598Y3543
X17598Y3228
X17598Y2913
X17598Y2598
X17598Y1575
X17598Y15945
X17598Y11732
X17598Y8268
X17598Y7953
X17598Y6693
X17598Y6378
X17598Y6063
X17598Y4488
X17598Y4173
X17835Y17126
X17913Y1575
X18228Y1575
X18307Y17126
X18543Y1575
X18780Y17126
X18858Y1575
X19173Y1575
X19252Y17126
X19488Y1575
X19724Y17126
X19803Y1575
X19803Y22982
X20118Y1575
X20157Y17126
X20197Y22982
X20433Y1575
X20630Y17126
X20748Y1575
X21063Y1575
X21102Y17126
X21378Y1575
X21575Y17126
X21693Y1575
X22008Y1575
X22047Y17126
X22323Y1575
X22520Y17126
X22638Y1575
X22953Y1575
X22992Y17126
X23268Y1575
X23465Y17126
X23583Y1575
X23898Y1575
X23937Y17126
X24213Y1575
X24409Y17126
X24528Y1575
X24882Y17126
X25354Y17126
X25827Y17126
X26299Y17126
X26693Y1575
X26772Y17126
X27008Y1575
X27244Y17126
X27323Y1575
X27638Y1575
X27717Y17126
X27953Y1575
X28189Y17126
X28661Y17126
X29134Y17126
X29606Y17126
X30079Y17126
X30551Y17126
X31024Y17126
X31024Y1575
X31339Y1575
X31496Y17126
X31654Y1575
X31969Y17126
X32441Y17126
X32913Y17126
X33858Y17126
X34016Y13228
X34016Y10472
X34016Y10079
X34016Y9685
X34016Y9291
X34016Y8898
X34016Y8504
X34016Y8110
X34016Y7717
X34016Y6496
X34016Y6181
X34016Y1575
X34016Y16142
X34016Y15748
X36447Y24498
X36821Y24498
X36841Y27923
X37195Y27923
X37195Y24498
T5
X5512Y38368
X5512Y36868
X8205Y18287
X8205Y16358
X8205Y15020
X8205Y13091
X12953Y38346
X12953Y36417
X13917Y38327
X13917Y36398
X15591Y38307
X15591Y36378
X22165Y38150
X22165Y36220
X23091Y38167
X23091Y36238
X25177Y38189
X25177Y36260
X27598Y38189
X27598Y36260
X31024Y38207
X31024Y36278
X31967Y38187
X31967Y36258
X37165Y30159
X37165Y28659
T6
X10630Y4685
X11614Y4685
X12598Y4685
X13583Y4685
X14567Y4685
T7
X14016Y20236
X18268Y35315
X18543Y33307
T8
X16496Y4409
X18465Y394
X18681Y23159
X18858Y29262
X20039Y394
X21142Y23159
X21811Y394
X22835Y23159
X23583Y394
X23583Y23159
X23602Y29262
X25354Y394
X25551Y29262
X26102Y23159
X26280Y29262
X27126Y394
X28386Y23898
X28898Y394
X30630Y394
X35079Y16811
X35079Y15630
X35079Y10157
X35079Y8976
T9
X5512Y17835
X5512Y16654
X5512Y15472
X5512Y14291
X5512Y13110
X6693Y17835
X6693Y16654
X6693Y15472
X6693Y14291
X6693Y13110
T12
X1891Y3393
X36200Y3493
T13
X10634Y2528
X12909Y2528
T14
X7063Y19016
X7063Y11929
T4
X10071Y2941G85X10071Y2508
G05
X10071Y1197G85X10071Y961
G05
X13472Y2941G85X13472Y2508
G05
X13472Y1197G85X13472Y961
G05
T10
X3681Y43031G85X3681Y43031
G05
X3681Y41437G85X3681Y41437
G05
X3681Y39803G85X3681Y39803
G05
X5295Y43031G85X5295Y43031
G05
X5295Y41437G85X5295Y41437
G05
X5295Y39803G85X5295Y39803
G05
X6634Y43031G85X6634Y43031
G05
X6634Y41437G85X6634Y41437
G05
X6634Y39803G85X6634Y39803
G05
X7972Y43031G85X7972Y43031
G05
X7972Y41437G85X7972Y41437
G05
X7972Y39803G85X7972Y39803
G05
X9311Y43031G85X9311Y43031
G05
X9311Y41437G85X9311Y41437
G05
X9311Y39803G85X9311Y39803
G05
X10650Y43031G85X10650Y43031
G05
X10650Y41437G85X10650Y41437
G05
X10650Y39803G85X10650Y39803
G05
X12008Y43031G85X12008Y43031
G05
X12008Y41437G85X12008Y41437
G05
X12008Y39803G85X12008Y39803
G05
X13622Y43031G85X13622Y43031
G05
X13622Y41437G85X13622Y41437
G05
X13622Y39803G85X13622Y39803
G05
X24272Y43031G85X24272Y43031
G05
X24272Y41437G85X24272Y41437
G05
X24272Y39803G85X24272Y39803
G05
X25886Y43031G85X25886Y43031
G05
X25886Y41437G85X25886Y41437
G05
X25886Y39803G85X25886Y39803
G05
X27224Y43031G85X27224Y43031
G05
X27224Y41437G85X27224Y41437
G05
X27224Y39803G85X27224Y39803
G05
X28563Y43031G85X28563Y43031
G05
X28563Y41437G85X28563Y41437
G05
X28563Y39803G85X28563Y39803
G05
X29902Y43031G85X29902Y43031
G05
X29902Y41437G85X29902Y41437
G05
X29902Y39803G85X29902Y39803
G05
X31240Y43031G85X31240Y43031
G05
X31240Y41437G85X31240Y41437
G05
X31240Y39803G85X31240Y39803
G05
X32598Y43031G85X32598Y43031
G05
X32598Y41437G85X32598Y41437
G05
X32598Y39803G85X32598Y39803
G05
X34213Y43031G85X34213Y43031
G05
X34213Y41437G85X34213Y41437
G05
X34213Y39803G85X34213Y39803
G05
T11
X807Y42756G85X807Y41575
G05
X16476Y42756G85X16476Y41575
G05
X21398Y42756G85X21398Y41575
G05
X37067Y42756G85X37067Y41575
G05
T0
M30
