G04 #@! TF.GenerationSoftware,KiCad,Pcbnew,7.0.1-115-g2ece2719d0*
G04 #@! TF.CreationDate,2023-04-03T01:08:23+03:00*
G04 #@! TF.ProjectId,alphax_4ch,616c7068-6178-45f3-9463-682e6b696361,G*
G04 #@! TF.SameCoordinates,PX141f5e0PYa2cace0*
G04 #@! TF.FileFunction,Paste,Top*
G04 #@! TF.FilePolarity,Positive*
%FSLAX46Y46*%
G04 Gerber Fmt 4.6, Leading zero omitted, Abs format (unit mm)*
G04 Created by KiCad (PCBNEW 7.0.1-115-g2ece2719d0) date 2023-04-03 01:08:23*
%MOMM*%
%LPD*%
G01*
G04 APERTURE LIST*
%ADD10R,2.750000X3.050000*%
%ADD11R,0.300000X1.150000*%
%ADD12R,0.200000X2.300000*%
%ADD13R,0.200000X10.700000*%
%ADD14R,0.200000X2.100000*%
%ADD15R,0.200000X6.000000*%
%ADD16R,0.200000X5.400000*%
%ADD17R,1.400000X0.200000*%
%ADD18R,5.000000X0.200000*%
%ADD19R,6.800000X0.200000*%
%ADD20R,4.500000X0.200000*%
%ADD21R,0.200000X1.600000*%
%ADD22R,0.200000X5.700000*%
%ADD23R,0.200000X2.000000*%
%ADD24R,1.300000X1.000000*%
%ADD25R,0.740000X2.400000*%
G04 APERTURE END LIST*
G04 #@! TO.C,R1113*
G36*
G01*
X38750000Y76347500D02*
X38750000Y77127500D01*
G75*
G02*
X38820000Y77197500I70000J0D01*
G01*
X39380000Y77197500D01*
G75*
G02*
X39450000Y77127500I0J-70000D01*
G01*
X39450000Y76347500D01*
G75*
G02*
X39380000Y76277500I-70000J0D01*
G01*
X38820000Y76277500D01*
G75*
G02*
X38750000Y76347500I0J70000D01*
G01*
G37*
G36*
G01*
X40350000Y76347500D02*
X40350000Y77127500D01*
G75*
G02*
X40420000Y77197500I70000J0D01*
G01*
X40980000Y77197500D01*
G75*
G02*
X41050000Y77127500I0J-70000D01*
G01*
X41050000Y76347500D01*
G75*
G02*
X40980000Y76277500I-70000J0D01*
G01*
X40420000Y76277500D01*
G75*
G02*
X40350000Y76347500I0J70000D01*
G01*
G37*
G04 #@! TD*
G04 #@! TO.C,R1109*
G36*
G01*
X55170000Y76310000D02*
X55170000Y77090000D01*
G75*
G02*
X55240000Y77160000I70000J0D01*
G01*
X55800000Y77160000D01*
G75*
G02*
X55870000Y77090000I0J-70000D01*
G01*
X55870000Y76310000D01*
G75*
G02*
X55800000Y76240000I-70000J0D01*
G01*
X55240000Y76240000D01*
G75*
G02*
X55170000Y76310000I0J70000D01*
G01*
G37*
G36*
G01*
X56770000Y76310000D02*
X56770000Y77090000D01*
G75*
G02*
X56840000Y77160000I70000J0D01*
G01*
X57400000Y77160000D01*
G75*
G02*
X57470000Y77090000I0J-70000D01*
G01*
X57470000Y76310000D01*
G75*
G02*
X57400000Y76240000I-70000J0D01*
G01*
X56840000Y76240000D01*
G75*
G02*
X56770000Y76310000I0J70000D01*
G01*
G37*
G04 #@! TD*
G04 #@! TO.C,R1108*
G36*
G01*
X24050000Y76110000D02*
X24050000Y76890000D01*
G75*
G02*
X24120000Y76960000I70000J0D01*
G01*
X24680000Y76960000D01*
G75*
G02*
X24750000Y76890000I0J-70000D01*
G01*
X24750000Y76110000D01*
G75*
G02*
X24680000Y76040000I-70000J0D01*
G01*
X24120000Y76040000D01*
G75*
G02*
X24050000Y76110000I0J70000D01*
G01*
G37*
G36*
G01*
X25650000Y76110000D02*
X25650000Y76890000D01*
G75*
G02*
X25720000Y76960000I70000J0D01*
G01*
X26280000Y76960000D01*
G75*
G02*
X26350000Y76890000I0J-70000D01*
G01*
X26350000Y76110000D01*
G75*
G02*
X26280000Y76040000I-70000J0D01*
G01*
X25720000Y76040000D01*
G75*
G02*
X25650000Y76110000I0J70000D01*
G01*
G37*
G04 #@! TD*
G04 #@! TO.C,R1107*
G36*
G01*
X2650000Y27610000D02*
X2650000Y28390000D01*
G75*
G02*
X2720000Y28460000I70000J0D01*
G01*
X3280000Y28460000D01*
G75*
G02*
X3350000Y28390000I0J-70000D01*
G01*
X3350000Y27610000D01*
G75*
G02*
X3280000Y27540000I-70000J0D01*
G01*
X2720000Y27540000D01*
G75*
G02*
X2650000Y27610000I0J70000D01*
G01*
G37*
G36*
G01*
X4250000Y27610000D02*
X4250000Y28390000D01*
G75*
G02*
X4320000Y28460000I70000J0D01*
G01*
X4880000Y28460000D01*
G75*
G02*
X4950000Y28390000I0J-70000D01*
G01*
X4950000Y27610000D01*
G75*
G02*
X4880000Y27540000I-70000J0D01*
G01*
X4320000Y27540000D01*
G75*
G02*
X4250000Y27610000I0J70000D01*
G01*
G37*
G04 #@! TD*
G04 #@! TO.C,R1106*
G36*
G01*
X1870000Y13810000D02*
X1870000Y14590000D01*
G75*
G02*
X1940000Y14660000I70000J0D01*
G01*
X2500000Y14660000D01*
G75*
G02*
X2570000Y14590000I0J-70000D01*
G01*
X2570000Y13810000D01*
G75*
G02*
X2500000Y13740000I-70000J0D01*
G01*
X1940000Y13740000D01*
G75*
G02*
X1870000Y13810000I0J70000D01*
G01*
G37*
G36*
G01*
X3470000Y13810000D02*
X3470000Y14590000D01*
G75*
G02*
X3540000Y14660000I70000J0D01*
G01*
X4100000Y14660000D01*
G75*
G02*
X4170000Y14590000I0J-70000D01*
G01*
X4170000Y13810000D01*
G75*
G02*
X4100000Y13740000I-70000J0D01*
G01*
X3540000Y13740000D01*
G75*
G02*
X3470000Y13810000I0J70000D01*
G01*
G37*
G04 #@! TD*
G04 #@! TO.C,R1105*
G36*
G01*
X33150000Y76110000D02*
X33150000Y76890000D01*
G75*
G02*
X33220000Y76960000I70000J0D01*
G01*
X33780000Y76960000D01*
G75*
G02*
X33850000Y76890000I0J-70000D01*
G01*
X33850000Y76110000D01*
G75*
G02*
X33780000Y76040000I-70000J0D01*
G01*
X33220000Y76040000D01*
G75*
G02*
X33150000Y76110000I0J70000D01*
G01*
G37*
G36*
G01*
X31550000Y76110000D02*
X31550000Y76890000D01*
G75*
G02*
X31620000Y76960000I70000J0D01*
G01*
X32180000Y76960000D01*
G75*
G02*
X32250000Y76890000I0J-70000D01*
G01*
X32250000Y76110000D01*
G75*
G02*
X32180000Y76040000I-70000J0D01*
G01*
X31620000Y76040000D01*
G75*
G02*
X31550000Y76110000I0J70000D01*
G01*
G37*
G04 #@! TD*
G04 #@! TO.C,R1104*
G36*
G01*
X3150000Y76110000D02*
X3150000Y76890000D01*
G75*
G02*
X3220000Y76960000I70000J0D01*
G01*
X3780000Y76960000D01*
G75*
G02*
X3850000Y76890000I0J-70000D01*
G01*
X3850000Y76110000D01*
G75*
G02*
X3780000Y76040000I-70000J0D01*
G01*
X3220000Y76040000D01*
G75*
G02*
X3150000Y76110000I0J70000D01*
G01*
G37*
G36*
G01*
X1550000Y76110000D02*
X1550000Y76890000D01*
G75*
G02*
X1620000Y76960000I70000J0D01*
G01*
X2180000Y76960000D01*
G75*
G02*
X2250000Y76890000I0J-70000D01*
G01*
X2250000Y76110000D01*
G75*
G02*
X2180000Y76040000I-70000J0D01*
G01*
X1620000Y76040000D01*
G75*
G02*
X1550000Y76110000I0J70000D01*
G01*
G37*
G04 #@! TD*
G04 #@! TO.C,R1103*
G36*
G01*
X85050000Y61810000D02*
X85050000Y62590000D01*
G75*
G02*
X85120000Y62660000I70000J0D01*
G01*
X85680000Y62660000D01*
G75*
G02*
X85750000Y62590000I0J-70000D01*
G01*
X85750000Y61810000D01*
G75*
G02*
X85680000Y61740000I-70000J0D01*
G01*
X85120000Y61740000D01*
G75*
G02*
X85050000Y61810000I0J70000D01*
G01*
G37*
G36*
G01*
X86650000Y61810000D02*
X86650000Y62590000D01*
G75*
G02*
X86720000Y62660000I70000J0D01*
G01*
X87280000Y62660000D01*
G75*
G02*
X87350000Y62590000I0J-70000D01*
G01*
X87350000Y61810000D01*
G75*
G02*
X87280000Y61740000I-70000J0D01*
G01*
X86720000Y61740000D01*
G75*
G02*
X86650000Y61810000I0J70000D01*
G01*
G37*
G04 #@! TD*
G04 #@! TO.C,R1102*
G36*
G01*
X90050000Y76310000D02*
X90050000Y77090000D01*
G75*
G02*
X90120000Y77160000I70000J0D01*
G01*
X90680000Y77160000D01*
G75*
G02*
X90750000Y77090000I0J-70000D01*
G01*
X90750000Y76310000D01*
G75*
G02*
X90680000Y76240000I-70000J0D01*
G01*
X90120000Y76240000D01*
G75*
G02*
X90050000Y76310000I0J70000D01*
G01*
G37*
G36*
G01*
X91650000Y76310000D02*
X91650000Y77090000D01*
G75*
G02*
X91720000Y77160000I70000J0D01*
G01*
X92280000Y77160000D01*
G75*
G02*
X92350000Y77090000I0J-70000D01*
G01*
X92350000Y76310000D01*
G75*
G02*
X92280000Y76240000I-70000J0D01*
G01*
X91720000Y76240000D01*
G75*
G02*
X91650000Y76310000I0J70000D01*
G01*
G37*
G04 #@! TD*
G04 #@! TO.C,R1101*
G36*
G01*
X9050000Y76110000D02*
X9050000Y76890000D01*
G75*
G02*
X9120000Y76960000I70000J0D01*
G01*
X9680000Y76960000D01*
G75*
G02*
X9750000Y76890000I0J-70000D01*
G01*
X9750000Y76110000D01*
G75*
G02*
X9680000Y76040000I-70000J0D01*
G01*
X9120000Y76040000D01*
G75*
G02*
X9050000Y76110000I0J70000D01*
G01*
G37*
G36*
G01*
X10650000Y76110000D02*
X10650000Y76890000D01*
G75*
G02*
X10720000Y76960000I70000J0D01*
G01*
X11280000Y76960000D01*
G75*
G02*
X11350000Y76890000I0J-70000D01*
G01*
X11350000Y76110000D01*
G75*
G02*
X11280000Y76040000I-70000J0D01*
G01*
X10720000Y76040000D01*
G75*
G02*
X10650000Y76110000I0J70000D01*
G01*
G37*
G04 #@! TD*
G04 #@! TO.C,R1100*
G36*
G01*
X16550000Y76110000D02*
X16550000Y76890000D01*
G75*
G02*
X16620000Y76960000I70000J0D01*
G01*
X17180000Y76960000D01*
G75*
G02*
X17250000Y76890000I0J-70000D01*
G01*
X17250000Y76110000D01*
G75*
G02*
X17180000Y76040000I-70000J0D01*
G01*
X16620000Y76040000D01*
G75*
G02*
X16550000Y76110000I0J70000D01*
G01*
G37*
G36*
G01*
X18150000Y76110000D02*
X18150000Y76890000D01*
G75*
G02*
X18220000Y76960000I70000J0D01*
G01*
X18780000Y76960000D01*
G75*
G02*
X18850000Y76890000I0J-70000D01*
G01*
X18850000Y76110000D01*
G75*
G02*
X18780000Y76040000I-70000J0D01*
G01*
X18220000Y76040000D01*
G75*
G02*
X18150000Y76110000I0J70000D01*
G01*
G37*
G04 #@! TD*
G04 #@! TO.C,R8*
G36*
G01*
X77375000Y93699999D02*
X76125000Y93699999D01*
G75*
G02*
X76025000Y93799999I0J100000D01*
G01*
X76025000Y94599999D01*
G75*
G02*
X76125000Y94699999I100000J0D01*
G01*
X77375000Y94699999D01*
G75*
G02*
X77475000Y94599999I0J-100000D01*
G01*
X77475000Y93799999D01*
G75*
G02*
X77375000Y93699999I-100000J0D01*
G01*
G37*
G36*
G01*
X77375000Y95600021D02*
X76125000Y95600021D01*
G75*
G02*
X76025000Y95700021I0J100000D01*
G01*
X76025000Y96500021D01*
G75*
G02*
X76125000Y96600021I100000J0D01*
G01*
X77375000Y96600021D01*
G75*
G02*
X77475000Y96500021I0J-100000D01*
G01*
X77475000Y95700021D01*
G75*
G02*
X77375000Y95600021I-100000J0D01*
G01*
G37*
G04 #@! TD*
G04 #@! TO.C,F10*
G36*
G01*
X21740000Y34594990D02*
X21740000Y33904990D01*
G75*
G02*
X21510000Y33674990I-230000J0D01*
G01*
X20170000Y33674990D01*
G75*
G02*
X19940000Y33904990I0J230000D01*
G01*
X19940000Y34594990D01*
G75*
G02*
X20170000Y34824990I230000J0D01*
G01*
X21510000Y34824990D01*
G75*
G02*
X21740000Y34594990I0J-230000D01*
G01*
G37*
G36*
G01*
X21740000Y37495010D02*
X21740000Y36805010D01*
G75*
G02*
X21510000Y36575010I-230000J0D01*
G01*
X20170000Y36575010D01*
G75*
G02*
X19940000Y36805010I0J230000D01*
G01*
X19940000Y37495010D01*
G75*
G02*
X20170000Y37725010I230000J0D01*
G01*
X21510000Y37725010D01*
G75*
G02*
X21740000Y37495010I0J-230000D01*
G01*
G37*
G04 #@! TD*
G04 #@! TO.C,R2*
G36*
G01*
X82300000Y44965000D02*
X82300000Y45635000D01*
G75*
G02*
X82365000Y45700000I65000J0D01*
G01*
X82885000Y45700000D01*
G75*
G02*
X82950000Y45635000I0J-65000D01*
G01*
X82950000Y44965000D01*
G75*
G02*
X82885000Y44900000I-65000J0D01*
G01*
X82365000Y44900000D01*
G75*
G02*
X82300000Y44965000I0J65000D01*
G01*
G37*
G36*
G01*
X83275000Y44945000D02*
X83275000Y45655000D01*
G75*
G02*
X83320000Y45700000I45000J0D01*
G01*
X83680000Y45700000D01*
G75*
G02*
X83725000Y45655000I0J-45000D01*
G01*
X83725000Y44945000D01*
G75*
G02*
X83680000Y44900000I-45000J0D01*
G01*
X83320000Y44900000D01*
G75*
G02*
X83275000Y44945000I0J45000D01*
G01*
G37*
G36*
G01*
X84075000Y44945000D02*
X84075000Y45655000D01*
G75*
G02*
X84120000Y45700000I45000J0D01*
G01*
X84480000Y45700000D01*
G75*
G02*
X84525000Y45655000I0J-45000D01*
G01*
X84525000Y44945000D01*
G75*
G02*
X84480000Y44900000I-45000J0D01*
G01*
X84120000Y44900000D01*
G75*
G02*
X84075000Y44945000I0J45000D01*
G01*
G37*
G36*
G01*
X84850000Y44965000D02*
X84850000Y45635000D01*
G75*
G02*
X84915000Y45700000I65000J0D01*
G01*
X85435000Y45700000D01*
G75*
G02*
X85500000Y45635000I0J-65000D01*
G01*
X85500000Y44965000D01*
G75*
G02*
X85435000Y44900000I-65000J0D01*
G01*
X84915000Y44900000D01*
G75*
G02*
X84850000Y44965000I0J65000D01*
G01*
G37*
G36*
G01*
X84850000Y46765000D02*
X84850000Y47435000D01*
G75*
G02*
X84915000Y47500000I65000J0D01*
G01*
X85435000Y47500000D01*
G75*
G02*
X85500000Y47435000I0J-65000D01*
G01*
X85500000Y46765000D01*
G75*
G02*
X85435000Y46700000I-65000J0D01*
G01*
X84915000Y46700000D01*
G75*
G02*
X84850000Y46765000I0J65000D01*
G01*
G37*
G36*
G01*
X84075000Y46745000D02*
X84075000Y47455000D01*
G75*
G02*
X84120000Y47500000I45000J0D01*
G01*
X84480000Y47500000D01*
G75*
G02*
X84525000Y47455000I0J-45000D01*
G01*
X84525000Y46745000D01*
G75*
G02*
X84480000Y46700000I-45000J0D01*
G01*
X84120000Y46700000D01*
G75*
G02*
X84075000Y46745000I0J45000D01*
G01*
G37*
G36*
G01*
X83275000Y46745000D02*
X83275000Y47455000D01*
G75*
G02*
X83320000Y47500000I45000J0D01*
G01*
X83680000Y47500000D01*
G75*
G02*
X83725000Y47455000I0J-45000D01*
G01*
X83725000Y46745000D01*
G75*
G02*
X83680000Y46700000I-45000J0D01*
G01*
X83320000Y46700000D01*
G75*
G02*
X83275000Y46745000I0J45000D01*
G01*
G37*
G36*
G01*
X82300000Y46765000D02*
X82300000Y47435000D01*
G75*
G02*
X82365000Y47500000I65000J0D01*
G01*
X82885000Y47500000D01*
G75*
G02*
X82950000Y47435000I0J-65000D01*
G01*
X82950000Y46765000D01*
G75*
G02*
X82885000Y46700000I-65000J0D01*
G01*
X82365000Y46700000D01*
G75*
G02*
X82300000Y46765000I0J65000D01*
G01*
G37*
G04 #@! TD*
G04 #@! TO.C,D36*
G36*
G01*
X51199998Y48300001D02*
X50299998Y48300001D01*
G75*
G02*
X50199998Y48400001I0J100000D01*
G01*
X50199998Y49200001D01*
G75*
G02*
X50299998Y49300001I100000J0D01*
G01*
X51199998Y49300001D01*
G75*
G02*
X51299998Y49200001I0J-100000D01*
G01*
X51299998Y48400001D01*
G75*
G02*
X51199998Y48300001I-100000J0D01*
G01*
G37*
G36*
G01*
X51199998Y50000001D02*
X50299998Y50000001D01*
G75*
G02*
X50199998Y50100001I0J100000D01*
G01*
X50199998Y50900001D01*
G75*
G02*
X50299998Y51000001I100000J0D01*
G01*
X51199998Y51000001D01*
G75*
G02*
X51299998Y50900001I0J-100000D01*
G01*
X51299998Y50100001D01*
G75*
G02*
X51199998Y50000001I-100000J0D01*
G01*
G37*
G04 #@! TD*
G04 #@! TO.C,R93*
G36*
G01*
X4350000Y42110000D02*
X4350000Y42890000D01*
G75*
G02*
X4420000Y42960000I70000J0D01*
G01*
X4980000Y42960000D01*
G75*
G02*
X5050000Y42890000I0J-70000D01*
G01*
X5050000Y42110000D01*
G75*
G02*
X4980000Y42040000I-70000J0D01*
G01*
X4420000Y42040000D01*
G75*
G02*
X4350000Y42110000I0J70000D01*
G01*
G37*
G36*
G01*
X5950000Y42110000D02*
X5950000Y42890000D01*
G75*
G02*
X6020000Y42960000I70000J0D01*
G01*
X6580000Y42960000D01*
G75*
G02*
X6650000Y42890000I0J-70000D01*
G01*
X6650000Y42110000D01*
G75*
G02*
X6580000Y42040000I-70000J0D01*
G01*
X6020000Y42040000D01*
G75*
G02*
X5950000Y42110000I0J70000D01*
G01*
G37*
G04 #@! TD*
G04 #@! TO.C,D34*
G36*
G01*
X47399998Y48300001D02*
X46499998Y48300001D01*
G75*
G02*
X46399998Y48400001I0J100000D01*
G01*
X46399998Y49200001D01*
G75*
G02*
X46499998Y49300001I100000J0D01*
G01*
X47399998Y49300001D01*
G75*
G02*
X47499998Y49200001I0J-100000D01*
G01*
X47499998Y48400001D01*
G75*
G02*
X47399998Y48300001I-100000J0D01*
G01*
G37*
G36*
G01*
X47399998Y50000001D02*
X46499998Y50000001D01*
G75*
G02*
X46399998Y50100001I0J100000D01*
G01*
X46399998Y50900001D01*
G75*
G02*
X46499998Y51000001I100000J0D01*
G01*
X47399998Y51000001D01*
G75*
G02*
X47499998Y50900001I0J-100000D01*
G01*
X47499998Y50100001D01*
G75*
G02*
X47399998Y50000001I-100000J0D01*
G01*
G37*
G04 #@! TD*
G04 #@! TO.C,R59*
G36*
G01*
X44575000Y97050001D02*
X45825000Y97050001D01*
G75*
G02*
X45925000Y96950001I0J-100000D01*
G01*
X45925000Y96150001D01*
G75*
G02*
X45825000Y96050001I-100000J0D01*
G01*
X44575000Y96050001D01*
G75*
G02*
X44475000Y96150001I0J100000D01*
G01*
X44475000Y96950001D01*
G75*
G02*
X44575000Y97050001I100000J0D01*
G01*
G37*
G36*
G01*
X44575000Y95149979D02*
X45825000Y95149979D01*
G75*
G02*
X45925000Y95049979I0J-100000D01*
G01*
X45925000Y94249979D01*
G75*
G02*
X45825000Y94149979I-100000J0D01*
G01*
X44575000Y94149979D01*
G75*
G02*
X44475000Y94249979I0J100000D01*
G01*
X44475000Y95049979D01*
G75*
G02*
X44575000Y95149979I100000J0D01*
G01*
G37*
G04 #@! TD*
G04 #@! TO.C,R9*
G36*
G01*
X75425000Y93699999D02*
X74175000Y93699999D01*
G75*
G02*
X74075000Y93799999I0J100000D01*
G01*
X74075000Y94599999D01*
G75*
G02*
X74175000Y94699999I100000J0D01*
G01*
X75425000Y94699999D01*
G75*
G02*
X75525000Y94599999I0J-100000D01*
G01*
X75525000Y93799999D01*
G75*
G02*
X75425000Y93699999I-100000J0D01*
G01*
G37*
G36*
G01*
X75425000Y95600021D02*
X74175000Y95600021D01*
G75*
G02*
X74075000Y95700021I0J100000D01*
G01*
X74075000Y96500021D01*
G75*
G02*
X74175000Y96600021I100000J0D01*
G01*
X75425000Y96600021D01*
G75*
G02*
X75525000Y96500021I0J-100000D01*
G01*
X75525000Y95700021D01*
G75*
G02*
X75425000Y95600021I-100000J0D01*
G01*
G37*
G04 #@! TD*
G04 #@! TO.C,R68*
G36*
G01*
X24825000Y94149999D02*
X23575000Y94149999D01*
G75*
G02*
X23475000Y94249999I0J100000D01*
G01*
X23475000Y95049999D01*
G75*
G02*
X23575000Y95149999I100000J0D01*
G01*
X24825000Y95149999D01*
G75*
G02*
X24925000Y95049999I0J-100000D01*
G01*
X24925000Y94249999D01*
G75*
G02*
X24825000Y94149999I-100000J0D01*
G01*
G37*
G36*
G01*
X24825000Y96050021D02*
X23575000Y96050021D01*
G75*
G02*
X23475000Y96150021I0J100000D01*
G01*
X23475000Y96950021D01*
G75*
G02*
X23575000Y97050021I100000J0D01*
G01*
X24825000Y97050021D01*
G75*
G02*
X24925000Y96950021I0J-100000D01*
G01*
X24925000Y96150021D01*
G75*
G02*
X24825000Y96050021I-100000J0D01*
G01*
G37*
G04 #@! TD*
D10*
G04 #@! TO.C,Q47*
X25155000Y84125000D03*
X28205000Y84125000D03*
X25155000Y87475000D03*
X28205000Y87475000D03*
G36*
G01*
X24880000Y78400000D02*
X23920000Y78400000D01*
G75*
G02*
X23800000Y78520000I0J120000D01*
G01*
X23800000Y80480000D01*
G75*
G02*
X23920000Y80600000I120000J0D01*
G01*
X24880000Y80600000D01*
G75*
G02*
X25000000Y80480000I0J-120000D01*
G01*
X25000000Y78520000D01*
G75*
G02*
X24880000Y78400000I-120000J0D01*
G01*
G37*
G36*
G01*
X29440000Y78400000D02*
X28480000Y78400000D01*
G75*
G02*
X28360000Y78520000I0J120000D01*
G01*
X28360000Y80480000D01*
G75*
G02*
X28480000Y80600000I120000J0D01*
G01*
X29440000Y80600000D01*
G75*
G02*
X29560000Y80480000I0J-120000D01*
G01*
X29560000Y78520000D01*
G75*
G02*
X29440000Y78400000I-120000J0D01*
G01*
G37*
G04 #@! TD*
G04 #@! TO.C,F4*
G36*
G01*
X63050000Y95655010D02*
X63050000Y96345010D01*
G75*
G02*
X63280000Y96575010I230000J0D01*
G01*
X64620000Y96575010D01*
G75*
G02*
X64850000Y96345010I0J-230000D01*
G01*
X64850000Y95655010D01*
G75*
G02*
X64620000Y95425010I-230000J0D01*
G01*
X63280000Y95425010D01*
G75*
G02*
X63050000Y95655010I0J230000D01*
G01*
G37*
G36*
G01*
X63050000Y92754990D02*
X63050000Y93444990D01*
G75*
G02*
X63280000Y93674990I230000J0D01*
G01*
X64620000Y93674990D01*
G75*
G02*
X64850000Y93444990I0J-230000D01*
G01*
X64850000Y92754990D01*
G75*
G02*
X64620000Y92524990I-230000J0D01*
G01*
X63280000Y92524990D01*
G75*
G02*
X63050000Y92754990I0J230000D01*
G01*
G37*
G04 #@! TD*
G04 #@! TO.C,Q13*
G36*
G01*
X80500000Y67725000D02*
X80200000Y67725000D01*
G75*
G02*
X80050000Y67875000I0J150000D01*
G01*
X80050000Y69050000D01*
G75*
G02*
X80200000Y69200000I150000J0D01*
G01*
X80500000Y69200000D01*
G75*
G02*
X80650000Y69050000I0J-150000D01*
G01*
X80650000Y67875000D01*
G75*
G02*
X80500000Y67725000I-150000J0D01*
G01*
G37*
G36*
G01*
X81450000Y69600000D02*
X81150000Y69600000D01*
G75*
G02*
X81000000Y69750000I0J150000D01*
G01*
X81000000Y70925000D01*
G75*
G02*
X81150000Y71075000I150000J0D01*
G01*
X81450000Y71075000D01*
G75*
G02*
X81600000Y70925000I0J-150000D01*
G01*
X81600000Y69750000D01*
G75*
G02*
X81450000Y69600000I-150000J0D01*
G01*
G37*
G36*
G01*
X82400000Y67725000D02*
X82100000Y67725000D01*
G75*
G02*
X81950000Y67875000I0J150000D01*
G01*
X81950000Y69050000D01*
G75*
G02*
X82100000Y69200000I150000J0D01*
G01*
X82400000Y69200000D01*
G75*
G02*
X82550000Y69050000I0J-150000D01*
G01*
X82550000Y67875000D01*
G75*
G02*
X82400000Y67725000I-150000J0D01*
G01*
G37*
G04 #@! TD*
G04 #@! TO.C,R91*
G36*
G01*
X95025000Y73249999D02*
X93775000Y73249999D01*
G75*
G02*
X93675000Y73349999I0J100000D01*
G01*
X93675000Y74149999D01*
G75*
G02*
X93775000Y74249999I100000J0D01*
G01*
X95025000Y74249999D01*
G75*
G02*
X95125000Y74149999I0J-100000D01*
G01*
X95125000Y73349999D01*
G75*
G02*
X95025000Y73249999I-100000J0D01*
G01*
G37*
G36*
G01*
X95025000Y75150021D02*
X93775000Y75150021D01*
G75*
G02*
X93675000Y75250021I0J100000D01*
G01*
X93675000Y76050021D01*
G75*
G02*
X93775000Y76150021I100000J0D01*
G01*
X95025000Y76150021D01*
G75*
G02*
X95125000Y76050021I0J-100000D01*
G01*
X95125000Y75250021D01*
G75*
G02*
X95025000Y75150021I-100000J0D01*
G01*
G37*
G04 #@! TD*
G04 #@! TO.C,R98*
G36*
G01*
X75050000Y76310000D02*
X75050000Y77090000D01*
G75*
G02*
X75120000Y77160000I70000J0D01*
G01*
X75680000Y77160000D01*
G75*
G02*
X75750000Y77090000I0J-70000D01*
G01*
X75750000Y76310000D01*
G75*
G02*
X75680000Y76240000I-70000J0D01*
G01*
X75120000Y76240000D01*
G75*
G02*
X75050000Y76310000I0J70000D01*
G01*
G37*
G36*
G01*
X76650000Y76310000D02*
X76650000Y77090000D01*
G75*
G02*
X76720000Y77160000I70000J0D01*
G01*
X77280000Y77160000D01*
G75*
G02*
X77350000Y77090000I0J-70000D01*
G01*
X77350000Y76310000D01*
G75*
G02*
X77280000Y76240000I-70000J0D01*
G01*
X76720000Y76240000D01*
G75*
G02*
X76650000Y76310000I0J70000D01*
G01*
G37*
G04 #@! TD*
G04 #@! TO.C,Q49*
G36*
G01*
X45375000Y73100000D02*
X45375000Y72800000D01*
G75*
G02*
X45225000Y72650000I-150000J0D01*
G01*
X44050000Y72650000D01*
G75*
G02*
X43900000Y72800000I0J150000D01*
G01*
X43900000Y73100000D01*
G75*
G02*
X44050000Y73250000I150000J0D01*
G01*
X45225000Y73250000D01*
G75*
G02*
X45375000Y73100000I0J-150000D01*
G01*
G37*
G36*
G01*
X43500000Y74050000D02*
X43500000Y73750000D01*
G75*
G02*
X43350000Y73600000I-150000J0D01*
G01*
X42175000Y73600000D01*
G75*
G02*
X42025000Y73750000I0J150000D01*
G01*
X42025000Y74050000D01*
G75*
G02*
X42175000Y74200000I150000J0D01*
G01*
X43350000Y74200000D01*
G75*
G02*
X43500000Y74050000I0J-150000D01*
G01*
G37*
G36*
G01*
X45375000Y75000000D02*
X45375000Y74700000D01*
G75*
G02*
X45225000Y74550000I-150000J0D01*
G01*
X44050000Y74550000D01*
G75*
G02*
X43900000Y74700000I0J150000D01*
G01*
X43900000Y75000000D01*
G75*
G02*
X44050000Y75150000I150000J0D01*
G01*
X45225000Y75150000D01*
G75*
G02*
X45375000Y75000000I0J-150000D01*
G01*
G37*
G04 #@! TD*
G04 #@! TO.C,D15*
G36*
G01*
X66399998Y48300001D02*
X65499998Y48300001D01*
G75*
G02*
X65399998Y48400001I0J100000D01*
G01*
X65399998Y49200001D01*
G75*
G02*
X65499998Y49300001I100000J0D01*
G01*
X66399998Y49300001D01*
G75*
G02*
X66499998Y49200001I0J-100000D01*
G01*
X66499998Y48400001D01*
G75*
G02*
X66399998Y48300001I-100000J0D01*
G01*
G37*
G36*
G01*
X66399998Y50000001D02*
X65499998Y50000001D01*
G75*
G02*
X65399998Y50100001I0J100000D01*
G01*
X65399998Y50900001D01*
G75*
G02*
X65499998Y51000001I100000J0D01*
G01*
X66399998Y51000001D01*
G75*
G02*
X66499998Y50900001I0J-100000D01*
G01*
X66499998Y50100001D01*
G75*
G02*
X66399998Y50000001I-100000J0D01*
G01*
G37*
G04 #@! TD*
G04 #@! TO.C,C4*
G36*
G01*
X52860000Y90215001D02*
X53540000Y90215001D01*
G75*
G02*
X53625000Y90130001I0J-85000D01*
G01*
X53625000Y89450001D01*
G75*
G02*
X53540000Y89365001I-85000J0D01*
G01*
X52860000Y89365001D01*
G75*
G02*
X52775000Y89450001I0J85000D01*
G01*
X52775000Y90130001D01*
G75*
G02*
X52860000Y90215001I85000J0D01*
G01*
G37*
G36*
G01*
X52860000Y88634999D02*
X53540000Y88634999D01*
G75*
G02*
X53625000Y88549999I0J-85000D01*
G01*
X53625000Y87869999D01*
G75*
G02*
X53540000Y87784999I-85000J0D01*
G01*
X52860000Y87784999D01*
G75*
G02*
X52775000Y87869999I0J85000D01*
G01*
X52775000Y88549999D01*
G75*
G02*
X52860000Y88634999I85000J0D01*
G01*
G37*
G04 #@! TD*
G04 #@! TO.C,Q48*
X56275000Y84325000D03*
X59325000Y84325000D03*
X56275000Y87675000D03*
X59325000Y87675000D03*
G36*
G01*
X56000000Y78600000D02*
X55040000Y78600000D01*
G75*
G02*
X54920000Y78720000I0J120000D01*
G01*
X54920000Y80680000D01*
G75*
G02*
X55040000Y80800000I120000J0D01*
G01*
X56000000Y80800000D01*
G75*
G02*
X56120000Y80680000I0J-120000D01*
G01*
X56120000Y78720000D01*
G75*
G02*
X56000000Y78600000I-120000J0D01*
G01*
G37*
G36*
G01*
X60560000Y78600000D02*
X59600000Y78600000D01*
G75*
G02*
X59480000Y78720000I0J120000D01*
G01*
X59480000Y80680000D01*
G75*
G02*
X59600000Y80800000I120000J0D01*
G01*
X60560000Y80800000D01*
G75*
G02*
X60680000Y80680000I0J-120000D01*
G01*
X60680000Y78720000D01*
G75*
G02*
X60560000Y78600000I-120000J0D01*
G01*
G37*
G04 #@! TD*
G04 #@! TO.C,R50*
G36*
G01*
X60500000Y44965000D02*
X60500000Y45635000D01*
G75*
G02*
X60565000Y45700000I65000J0D01*
G01*
X61085000Y45700000D01*
G75*
G02*
X61150000Y45635000I0J-65000D01*
G01*
X61150000Y44965000D01*
G75*
G02*
X61085000Y44900000I-65000J0D01*
G01*
X60565000Y44900000D01*
G75*
G02*
X60500000Y44965000I0J65000D01*
G01*
G37*
G36*
G01*
X61475000Y44945000D02*
X61475000Y45655000D01*
G75*
G02*
X61520000Y45700000I45000J0D01*
G01*
X61880000Y45700000D01*
G75*
G02*
X61925000Y45655000I0J-45000D01*
G01*
X61925000Y44945000D01*
G75*
G02*
X61880000Y44900000I-45000J0D01*
G01*
X61520000Y44900000D01*
G75*
G02*
X61475000Y44945000I0J45000D01*
G01*
G37*
G36*
G01*
X62275000Y44945000D02*
X62275000Y45655000D01*
G75*
G02*
X62320000Y45700000I45000J0D01*
G01*
X62680000Y45700000D01*
G75*
G02*
X62725000Y45655000I0J-45000D01*
G01*
X62725000Y44945000D01*
G75*
G02*
X62680000Y44900000I-45000J0D01*
G01*
X62320000Y44900000D01*
G75*
G02*
X62275000Y44945000I0J45000D01*
G01*
G37*
G36*
G01*
X63050000Y44965000D02*
X63050000Y45635000D01*
G75*
G02*
X63115000Y45700000I65000J0D01*
G01*
X63635000Y45700000D01*
G75*
G02*
X63700000Y45635000I0J-65000D01*
G01*
X63700000Y44965000D01*
G75*
G02*
X63635000Y44900000I-65000J0D01*
G01*
X63115000Y44900000D01*
G75*
G02*
X63050000Y44965000I0J65000D01*
G01*
G37*
G36*
G01*
X63050000Y46765000D02*
X63050000Y47435000D01*
G75*
G02*
X63115000Y47500000I65000J0D01*
G01*
X63635000Y47500000D01*
G75*
G02*
X63700000Y47435000I0J-65000D01*
G01*
X63700000Y46765000D01*
G75*
G02*
X63635000Y46700000I-65000J0D01*
G01*
X63115000Y46700000D01*
G75*
G02*
X63050000Y46765000I0J65000D01*
G01*
G37*
G36*
G01*
X62275000Y46745000D02*
X62275000Y47455000D01*
G75*
G02*
X62320000Y47500000I45000J0D01*
G01*
X62680000Y47500000D01*
G75*
G02*
X62725000Y47455000I0J-45000D01*
G01*
X62725000Y46745000D01*
G75*
G02*
X62680000Y46700000I-45000J0D01*
G01*
X62320000Y46700000D01*
G75*
G02*
X62275000Y46745000I0J45000D01*
G01*
G37*
G36*
G01*
X61475000Y46745000D02*
X61475000Y47455000D01*
G75*
G02*
X61520000Y47500000I45000J0D01*
G01*
X61880000Y47500000D01*
G75*
G02*
X61925000Y47455000I0J-45000D01*
G01*
X61925000Y46745000D01*
G75*
G02*
X61880000Y46700000I-45000J0D01*
G01*
X61520000Y46700000D01*
G75*
G02*
X61475000Y46745000I0J45000D01*
G01*
G37*
G36*
G01*
X60500000Y46765000D02*
X60500000Y47435000D01*
G75*
G02*
X60565000Y47500000I65000J0D01*
G01*
X61085000Y47500000D01*
G75*
G02*
X61150000Y47435000I0J-65000D01*
G01*
X61150000Y46765000D01*
G75*
G02*
X61085000Y46700000I-65000J0D01*
G01*
X60565000Y46700000D01*
G75*
G02*
X60500000Y46765000I0J65000D01*
G01*
G37*
G04 #@! TD*
G04 #@! TO.C,D28*
G36*
G01*
X26609999Y72325000D02*
X26309999Y72325000D01*
G75*
G02*
X26159999Y72475000I0J150000D01*
G01*
X26159999Y73650000D01*
G75*
G02*
X26309999Y73800000I150000J0D01*
G01*
X26609999Y73800000D01*
G75*
G02*
X26759999Y73650000I0J-150000D01*
G01*
X26759999Y72475000D01*
G75*
G02*
X26609999Y72325000I-150000J0D01*
G01*
G37*
G36*
G01*
X27559999Y74200000D02*
X27259999Y74200000D01*
G75*
G02*
X27109999Y74350000I0J150000D01*
G01*
X27109999Y75525000D01*
G75*
G02*
X27259999Y75675000I150000J0D01*
G01*
X27559999Y75675000D01*
G75*
G02*
X27709999Y75525000I0J-150000D01*
G01*
X27709999Y74350000D01*
G75*
G02*
X27559999Y74200000I-150000J0D01*
G01*
G37*
G36*
G01*
X28509999Y72325000D02*
X28209999Y72325000D01*
G75*
G02*
X28059999Y72475000I0J150000D01*
G01*
X28059999Y73650000D01*
G75*
G02*
X28209999Y73800000I150000J0D01*
G01*
X28509999Y73800000D01*
G75*
G02*
X28659999Y73650000I0J-150000D01*
G01*
X28659999Y72475000D01*
G75*
G02*
X28509999Y72325000I-150000J0D01*
G01*
G37*
G04 #@! TD*
G04 #@! TO.C,D12*
G36*
G01*
X73950000Y48300000D02*
X73050000Y48300000D01*
G75*
G02*
X72950000Y48400000I0J100000D01*
G01*
X72950000Y49200000D01*
G75*
G02*
X73050000Y49300000I100000J0D01*
G01*
X73950000Y49300000D01*
G75*
G02*
X74050000Y49200000I0J-100000D01*
G01*
X74050000Y48400000D01*
G75*
G02*
X73950000Y48300000I-100000J0D01*
G01*
G37*
G36*
G01*
X73950000Y50000000D02*
X73050000Y50000000D01*
G75*
G02*
X72950000Y50100000I0J100000D01*
G01*
X72950000Y50900000D01*
G75*
G02*
X73050000Y51000000I100000J0D01*
G01*
X73950000Y51000000D01*
G75*
G02*
X74050000Y50900000I0J-100000D01*
G01*
X74050000Y50100000D01*
G75*
G02*
X73950000Y50000000I-100000J0D01*
G01*
G37*
G04 #@! TD*
G04 #@! TO.C,D11*
G36*
G01*
X75799998Y48300001D02*
X74899998Y48300001D01*
G75*
G02*
X74799998Y48400001I0J100000D01*
G01*
X74799998Y49200001D01*
G75*
G02*
X74899998Y49300001I100000J0D01*
G01*
X75799998Y49300001D01*
G75*
G02*
X75899998Y49200001I0J-100000D01*
G01*
X75899998Y48400001D01*
G75*
G02*
X75799998Y48300001I-100000J0D01*
G01*
G37*
G36*
G01*
X75799998Y50000001D02*
X74899998Y50000001D01*
G75*
G02*
X74799998Y50100001I0J100000D01*
G01*
X74799998Y50900001D01*
G75*
G02*
X74899998Y51000001I100000J0D01*
G01*
X75799998Y51000001D01*
G75*
G02*
X75899998Y50900001I0J-100000D01*
G01*
X75899998Y50100001D01*
G75*
G02*
X75799998Y50000001I-100000J0D01*
G01*
G37*
G04 #@! TD*
G04 #@! TO.C,R11*
G36*
G01*
X47975000Y104549999D02*
X46725000Y104549999D01*
G75*
G02*
X46625000Y104649999I0J100000D01*
G01*
X46625000Y105449999D01*
G75*
G02*
X46725000Y105549999I100000J0D01*
G01*
X47975000Y105549999D01*
G75*
G02*
X48075000Y105449999I0J-100000D01*
G01*
X48075000Y104649999D01*
G75*
G02*
X47975000Y104549999I-100000J0D01*
G01*
G37*
G36*
G01*
X47975000Y106450021D02*
X46725000Y106450021D01*
G75*
G02*
X46625000Y106550021I0J100000D01*
G01*
X46625000Y107350021D01*
G75*
G02*
X46725000Y107450021I100000J0D01*
G01*
X47975000Y107450021D01*
G75*
G02*
X48075000Y107350021I0J-100000D01*
G01*
X48075000Y106550021D01*
G75*
G02*
X47975000Y106450021I-100000J0D01*
G01*
G37*
G04 #@! TD*
G04 #@! TO.C,Q35*
G36*
G01*
X37137500Y73100000D02*
X37137500Y72800000D01*
G75*
G02*
X36987500Y72650000I-150000J0D01*
G01*
X35812500Y72650000D01*
G75*
G02*
X35662500Y72800000I0J150000D01*
G01*
X35662500Y73100000D01*
G75*
G02*
X35812500Y73250000I150000J0D01*
G01*
X36987500Y73250000D01*
G75*
G02*
X37137500Y73100000I0J-150000D01*
G01*
G37*
G36*
G01*
X35262500Y74050000D02*
X35262500Y73750000D01*
G75*
G02*
X35112500Y73600000I-150000J0D01*
G01*
X33937500Y73600000D01*
G75*
G02*
X33787500Y73750000I0J150000D01*
G01*
X33787500Y74050000D01*
G75*
G02*
X33937500Y74200000I150000J0D01*
G01*
X35112500Y74200000D01*
G75*
G02*
X35262500Y74050000I0J-150000D01*
G01*
G37*
G36*
G01*
X37137500Y75000000D02*
X37137500Y74700000D01*
G75*
G02*
X36987500Y74550000I-150000J0D01*
G01*
X35812500Y74550000D01*
G75*
G02*
X35662500Y74700000I0J150000D01*
G01*
X35662500Y75000000D01*
G75*
G02*
X35812500Y75150000I150000J0D01*
G01*
X36987500Y75150000D01*
G75*
G02*
X37137500Y75000000I0J-150000D01*
G01*
G37*
G04 #@! TD*
G04 #@! TO.C,R60*
G36*
G01*
X43825000Y94149999D02*
X42575000Y94149999D01*
G75*
G02*
X42475000Y94249999I0J100000D01*
G01*
X42475000Y95049999D01*
G75*
G02*
X42575000Y95149999I100000J0D01*
G01*
X43825000Y95149999D01*
G75*
G02*
X43925000Y95049999I0J-100000D01*
G01*
X43925000Y94249999D01*
G75*
G02*
X43825000Y94149999I-100000J0D01*
G01*
G37*
G36*
G01*
X43825000Y96050021D02*
X42575000Y96050021D01*
G75*
G02*
X42475000Y96150021I0J100000D01*
G01*
X42475000Y96950021D01*
G75*
G02*
X42575000Y97050021I100000J0D01*
G01*
X43825000Y97050021D01*
G75*
G02*
X43925000Y96950021I0J-100000D01*
G01*
X43925000Y96150021D01*
G75*
G02*
X43825000Y96050021I-100000J0D01*
G01*
G37*
G04 #@! TD*
D11*
G04 #@! TO.C,J1*
X26550000Y7485000D03*
X27350000Y7485000D03*
X28650000Y7485000D03*
X29650000Y7485000D03*
X30150000Y7485000D03*
X31150000Y7485000D03*
X32450000Y7485000D03*
X33250000Y7485000D03*
X32950000Y7485000D03*
X32150000Y7485000D03*
X31650000Y7485000D03*
X30650000Y7485000D03*
X29150000Y7485000D03*
X28150000Y7485000D03*
X27650000Y7485000D03*
X26850000Y7485000D03*
G04 #@! TD*
D10*
G04 #@! TO.C,Q45*
X2975000Y21825000D03*
X6025000Y21825000D03*
X2975000Y25175000D03*
X6025000Y25175000D03*
G36*
G01*
X2700000Y16100000D02*
X1740000Y16100000D01*
G75*
G02*
X1620000Y16220000I0J120000D01*
G01*
X1620000Y18180000D01*
G75*
G02*
X1740000Y18300000I120000J0D01*
G01*
X2700000Y18300000D01*
G75*
G02*
X2820000Y18180000I0J-120000D01*
G01*
X2820000Y16220000D01*
G75*
G02*
X2700000Y16100000I-120000J0D01*
G01*
G37*
G36*
G01*
X7260000Y16100000D02*
X6300000Y16100000D01*
G75*
G02*
X6180000Y16220000I0J120000D01*
G01*
X6180000Y18180000D01*
G75*
G02*
X6300000Y18300000I120000J0D01*
G01*
X7260000Y18300000D01*
G75*
G02*
X7380000Y18180000I0J-120000D01*
G01*
X7380000Y16220000D01*
G75*
G02*
X7260000Y16100000I-120000J0D01*
G01*
G37*
G04 #@! TD*
G04 #@! TO.C,Q8*
G36*
G01*
X15800000Y71925000D02*
X15500000Y71925000D01*
G75*
G02*
X15350000Y72075000I0J150000D01*
G01*
X15350000Y73250000D01*
G75*
G02*
X15500000Y73400000I150000J0D01*
G01*
X15800000Y73400000D01*
G75*
G02*
X15950000Y73250000I0J-150000D01*
G01*
X15950000Y72075000D01*
G75*
G02*
X15800000Y71925000I-150000J0D01*
G01*
G37*
G36*
G01*
X16750000Y73800000D02*
X16450000Y73800000D01*
G75*
G02*
X16300000Y73950000I0J150000D01*
G01*
X16300000Y75125000D01*
G75*
G02*
X16450000Y75275000I150000J0D01*
G01*
X16750000Y75275000D01*
G75*
G02*
X16900000Y75125000I0J-150000D01*
G01*
X16900000Y73950000D01*
G75*
G02*
X16750000Y73800000I-150000J0D01*
G01*
G37*
G36*
G01*
X17700000Y71925000D02*
X17400000Y71925000D01*
G75*
G02*
X17250000Y72075000I0J150000D01*
G01*
X17250000Y73250000D01*
G75*
G02*
X17400000Y73400000I150000J0D01*
G01*
X17700000Y73400000D01*
G75*
G02*
X17850000Y73250000I0J-150000D01*
G01*
X17850000Y72075000D01*
G75*
G02*
X17700000Y71925000I-150000J0D01*
G01*
G37*
G04 #@! TD*
G04 #@! TO.C,Q4*
G36*
G01*
X27000000Y34982581D02*
X26700000Y34982581D01*
G75*
G02*
X26550000Y35132581I0J150000D01*
G01*
X26550000Y36307581D01*
G75*
G02*
X26700000Y36457581I150000J0D01*
G01*
X27000000Y36457581D01*
G75*
G02*
X27150000Y36307581I0J-150000D01*
G01*
X27150000Y35132581D01*
G75*
G02*
X27000000Y34982581I-150000J0D01*
G01*
G37*
G36*
G01*
X27950000Y36857581D02*
X27650000Y36857581D01*
G75*
G02*
X27500000Y37007581I0J150000D01*
G01*
X27500000Y38182581D01*
G75*
G02*
X27650000Y38332581I150000J0D01*
G01*
X27950000Y38332581D01*
G75*
G02*
X28100000Y38182581I0J-150000D01*
G01*
X28100000Y37007581D01*
G75*
G02*
X27950000Y36857581I-150000J0D01*
G01*
G37*
G36*
G01*
X28900000Y34982581D02*
X28600000Y34982581D01*
G75*
G02*
X28450000Y35132581I0J150000D01*
G01*
X28450000Y36307581D01*
G75*
G02*
X28600000Y36457581I150000J0D01*
G01*
X28900000Y36457581D01*
G75*
G02*
X29050000Y36307581I0J-150000D01*
G01*
X29050000Y35132581D01*
G75*
G02*
X28900000Y34982581I-150000J0D01*
G01*
G37*
G04 #@! TD*
G04 #@! TO.C,R30*
G36*
G01*
X80150000Y66310000D02*
X80150000Y67090000D01*
G75*
G02*
X80220000Y67160000I70000J0D01*
G01*
X80780000Y67160000D01*
G75*
G02*
X80850000Y67090000I0J-70000D01*
G01*
X80850000Y66310000D01*
G75*
G02*
X80780000Y66240000I-70000J0D01*
G01*
X80220000Y66240000D01*
G75*
G02*
X80150000Y66310000I0J70000D01*
G01*
G37*
G36*
G01*
X81750000Y66310000D02*
X81750000Y67090000D01*
G75*
G02*
X81820000Y67160000I70000J0D01*
G01*
X82380000Y67160000D01*
G75*
G02*
X82450000Y67090000I0J-70000D01*
G01*
X82450000Y66310000D01*
G75*
G02*
X82380000Y66240000I-70000J0D01*
G01*
X81820000Y66240000D01*
G75*
G02*
X81750000Y66310000I0J70000D01*
G01*
G37*
G04 #@! TD*
G04 #@! TO.C,Q15*
G36*
G01*
X62900000Y77825000D02*
X62600000Y77825000D01*
G75*
G02*
X62450000Y77975000I0J150000D01*
G01*
X62450000Y79150000D01*
G75*
G02*
X62600000Y79300000I150000J0D01*
G01*
X62900000Y79300000D01*
G75*
G02*
X63050000Y79150000I0J-150000D01*
G01*
X63050000Y77975000D01*
G75*
G02*
X62900000Y77825000I-150000J0D01*
G01*
G37*
G36*
G01*
X63850000Y79700000D02*
X63550000Y79700000D01*
G75*
G02*
X63400000Y79850000I0J150000D01*
G01*
X63400000Y81025000D01*
G75*
G02*
X63550000Y81175000I150000J0D01*
G01*
X63850000Y81175000D01*
G75*
G02*
X64000000Y81025000I0J-150000D01*
G01*
X64000000Y79850000D01*
G75*
G02*
X63850000Y79700000I-150000J0D01*
G01*
G37*
G36*
G01*
X64800000Y77825000D02*
X64500000Y77825000D01*
G75*
G02*
X64350000Y77975000I0J150000D01*
G01*
X64350000Y79150000D01*
G75*
G02*
X64500000Y79300000I150000J0D01*
G01*
X64800000Y79300000D01*
G75*
G02*
X64950000Y79150000I0J-150000D01*
G01*
X64950000Y77975000D01*
G75*
G02*
X64800000Y77825000I-150000J0D01*
G01*
G37*
G04 #@! TD*
G04 #@! TO.C,R17*
G36*
G01*
X68675000Y93599999D02*
X67425000Y93599999D01*
G75*
G02*
X67325000Y93699999I0J100000D01*
G01*
X67325000Y94499999D01*
G75*
G02*
X67425000Y94599999I100000J0D01*
G01*
X68675000Y94599999D01*
G75*
G02*
X68775000Y94499999I0J-100000D01*
G01*
X68775000Y93699999D01*
G75*
G02*
X68675000Y93599999I-100000J0D01*
G01*
G37*
G36*
G01*
X68675000Y95500021D02*
X67425000Y95500021D01*
G75*
G02*
X67325000Y95600021I0J100000D01*
G01*
X67325000Y96400021D01*
G75*
G02*
X67425000Y96500021I100000J0D01*
G01*
X68675000Y96500021D01*
G75*
G02*
X68775000Y96400021I0J-100000D01*
G01*
X68775000Y95600021D01*
G75*
G02*
X68675000Y95500021I-100000J0D01*
G01*
G37*
G04 #@! TD*
G04 #@! TO.C,D47*
G36*
G01*
X70199998Y48300001D02*
X69299998Y48300001D01*
G75*
G02*
X69199998Y48400001I0J100000D01*
G01*
X69199998Y49200001D01*
G75*
G02*
X69299998Y49300001I100000J0D01*
G01*
X70199998Y49300001D01*
G75*
G02*
X70299998Y49200001I0J-100000D01*
G01*
X70299998Y48400001D01*
G75*
G02*
X70199998Y48300001I-100000J0D01*
G01*
G37*
G36*
G01*
X70199998Y50000001D02*
X69299998Y50000001D01*
G75*
G02*
X69199998Y50100001I0J100000D01*
G01*
X69199998Y50900001D01*
G75*
G02*
X69299998Y51000001I100000J0D01*
G01*
X70199998Y51000001D01*
G75*
G02*
X70299998Y50900001I0J-100000D01*
G01*
X70299998Y50100001D01*
G75*
G02*
X70199998Y50000001I-100000J0D01*
G01*
G37*
G04 #@! TD*
G04 #@! TO.C,D39*
G36*
G01*
X53099998Y48300001D02*
X52199998Y48300001D01*
G75*
G02*
X52099998Y48400001I0J100000D01*
G01*
X52099998Y49200001D01*
G75*
G02*
X52199998Y49300001I100000J0D01*
G01*
X53099998Y49300001D01*
G75*
G02*
X53199998Y49200001I0J-100000D01*
G01*
X53199998Y48400001D01*
G75*
G02*
X53099998Y48300001I-100000J0D01*
G01*
G37*
G36*
G01*
X53099998Y50000001D02*
X52199998Y50000001D01*
G75*
G02*
X52099998Y50100001I0J100000D01*
G01*
X52099998Y50900001D01*
G75*
G02*
X52199998Y51000001I100000J0D01*
G01*
X53099998Y51000001D01*
G75*
G02*
X53199998Y50900001I0J-100000D01*
G01*
X53199998Y50100001D01*
G75*
G02*
X53099998Y50000001I-100000J0D01*
G01*
G37*
G04 #@! TD*
G04 #@! TO.C,R63*
G36*
G01*
X22825000Y94149999D02*
X21575000Y94149999D01*
G75*
G02*
X21475000Y94249999I0J100000D01*
G01*
X21475000Y95049999D01*
G75*
G02*
X21575000Y95149999I100000J0D01*
G01*
X22825000Y95149999D01*
G75*
G02*
X22925000Y95049999I0J-100000D01*
G01*
X22925000Y94249999D01*
G75*
G02*
X22825000Y94149999I-100000J0D01*
G01*
G37*
G36*
G01*
X22825000Y96050021D02*
X21575000Y96050021D01*
G75*
G02*
X21475000Y96150021I0J100000D01*
G01*
X21475000Y96950021D01*
G75*
G02*
X21575000Y97050021I100000J0D01*
G01*
X22825000Y97050021D01*
G75*
G02*
X22925000Y96950021I0J-100000D01*
G01*
X22925000Y96150021D01*
G75*
G02*
X22825000Y96050021I-100000J0D01*
G01*
G37*
G04 #@! TD*
G04 #@! TO.C,R74*
G36*
G01*
X4350000Y48110000D02*
X4350000Y48890000D01*
G75*
G02*
X4420000Y48960000I70000J0D01*
G01*
X4980000Y48960000D01*
G75*
G02*
X5050000Y48890000I0J-70000D01*
G01*
X5050000Y48110000D01*
G75*
G02*
X4980000Y48040000I-70000J0D01*
G01*
X4420000Y48040000D01*
G75*
G02*
X4350000Y48110000I0J70000D01*
G01*
G37*
G36*
G01*
X5950000Y48110000D02*
X5950000Y48890000D01*
G75*
G02*
X6020000Y48960000I70000J0D01*
G01*
X6580000Y48960000D01*
G75*
G02*
X6650000Y48890000I0J-70000D01*
G01*
X6650000Y48110000D01*
G75*
G02*
X6580000Y48040000I-70000J0D01*
G01*
X6020000Y48040000D01*
G75*
G02*
X5950000Y48110000I0J70000D01*
G01*
G37*
G04 #@! TD*
G04 #@! TO.C,D48*
G36*
G01*
X72099998Y48300001D02*
X71199998Y48300001D01*
G75*
G02*
X71099998Y48400001I0J100000D01*
G01*
X71099998Y49200001D01*
G75*
G02*
X71199998Y49300001I100000J0D01*
G01*
X72099998Y49300001D01*
G75*
G02*
X72199998Y49200001I0J-100000D01*
G01*
X72199998Y48400001D01*
G75*
G02*
X72099998Y48300001I-100000J0D01*
G01*
G37*
G36*
G01*
X72099998Y50000001D02*
X71199998Y50000001D01*
G75*
G02*
X71099998Y50100001I0J100000D01*
G01*
X71099998Y50900001D01*
G75*
G02*
X71199998Y51000001I100000J0D01*
G01*
X72099998Y51000001D01*
G75*
G02*
X72199998Y50900001I0J-100000D01*
G01*
X72199998Y50100001D01*
G75*
G02*
X72099998Y50000001I-100000J0D01*
G01*
G37*
G04 #@! TD*
G04 #@! TO.C,R16*
G36*
G01*
X72975000Y93649999D02*
X71725000Y93649999D01*
G75*
G02*
X71625000Y93749999I0J100000D01*
G01*
X71625000Y94549999D01*
G75*
G02*
X71725000Y94649999I100000J0D01*
G01*
X72975000Y94649999D01*
G75*
G02*
X73075000Y94549999I0J-100000D01*
G01*
X73075000Y93749999D01*
G75*
G02*
X72975000Y93649999I-100000J0D01*
G01*
G37*
G36*
G01*
X72975000Y95550021D02*
X71725000Y95550021D01*
G75*
G02*
X71625000Y95650021I0J100000D01*
G01*
X71625000Y96450021D01*
G75*
G02*
X71725000Y96550021I100000J0D01*
G01*
X72975000Y96550021D01*
G75*
G02*
X73075000Y96450021I0J-100000D01*
G01*
X73075000Y95650021D01*
G75*
G02*
X72975000Y95550021I-100000J0D01*
G01*
G37*
G04 #@! TD*
G04 #@! TO.C,C21*
G36*
G01*
X32160000Y70515001D02*
X32840000Y70515001D01*
G75*
G02*
X32925000Y70430001I0J-85000D01*
G01*
X32925000Y69750001D01*
G75*
G02*
X32840000Y69665001I-85000J0D01*
G01*
X32160000Y69665001D01*
G75*
G02*
X32075000Y69750001I0J85000D01*
G01*
X32075000Y70430001D01*
G75*
G02*
X32160000Y70515001I85000J0D01*
G01*
G37*
G36*
G01*
X32160000Y68934999D02*
X32840000Y68934999D01*
G75*
G02*
X32925000Y68849999I0J-85000D01*
G01*
X32925000Y68169999D01*
G75*
G02*
X32840000Y68084999I-85000J0D01*
G01*
X32160000Y68084999D01*
G75*
G02*
X32075000Y68169999I0J85000D01*
G01*
X32075000Y68849999D01*
G75*
G02*
X32160000Y68934999I85000J0D01*
G01*
G37*
G04 #@! TD*
G04 #@! TO.C,R70*
G36*
G01*
X12575000Y94049999D02*
X11325000Y94049999D01*
G75*
G02*
X11225000Y94149999I0J100000D01*
G01*
X11225000Y94949999D01*
G75*
G02*
X11325000Y95049999I100000J0D01*
G01*
X12575000Y95049999D01*
G75*
G02*
X12675000Y94949999I0J-100000D01*
G01*
X12675000Y94149999D01*
G75*
G02*
X12575000Y94049999I-100000J0D01*
G01*
G37*
G36*
G01*
X12575000Y95950021D02*
X11325000Y95950021D01*
G75*
G02*
X11225000Y96050021I0J100000D01*
G01*
X11225000Y96850021D01*
G75*
G02*
X11325000Y96950021I100000J0D01*
G01*
X12575000Y96950021D01*
G75*
G02*
X12675000Y96850021I0J-100000D01*
G01*
X12675000Y96050021D01*
G75*
G02*
X12575000Y95950021I-100000J0D01*
G01*
G37*
G04 #@! TD*
G04 #@! TO.C,D33*
G36*
G01*
X79599998Y48300001D02*
X78699998Y48300001D01*
G75*
G02*
X78599998Y48400001I0J100000D01*
G01*
X78599998Y49200001D01*
G75*
G02*
X78699998Y49300001I100000J0D01*
G01*
X79599998Y49300001D01*
G75*
G02*
X79699998Y49200001I0J-100000D01*
G01*
X79699998Y48400001D01*
G75*
G02*
X79599998Y48300001I-100000J0D01*
G01*
G37*
G36*
G01*
X79599998Y50000001D02*
X78699998Y50000001D01*
G75*
G02*
X78599998Y50100001I0J100000D01*
G01*
X78599998Y50900001D01*
G75*
G02*
X78699998Y51000001I100000J0D01*
G01*
X79599998Y51000001D01*
G75*
G02*
X79699998Y50900001I0J-100000D01*
G01*
X79699998Y50100001D01*
G75*
G02*
X79599998Y50000001I-100000J0D01*
G01*
G37*
G04 #@! TD*
D12*
G04 #@! TO.C,M7*
X86600005Y42649999D03*
D13*
X86600003Y9850001D03*
D14*
X86600003Y18050000D03*
D15*
X86600003Y30099999D03*
D16*
X86600003Y36799996D03*
D17*
X84799996Y43700002D03*
D18*
X83400001Y3800001D03*
D19*
X74899998Y3800001D03*
D20*
X65049995Y3800001D03*
D21*
X44500000Y5300000D03*
D22*
X44500000Y37150003D03*
D23*
X44500000Y42799996D03*
G04 #@! TD*
G04 #@! TO.C,D9*
G36*
G01*
X60699998Y48300001D02*
X59799998Y48300001D01*
G75*
G02*
X59699998Y48400001I0J100000D01*
G01*
X59699998Y49200001D01*
G75*
G02*
X59799998Y49300001I100000J0D01*
G01*
X60699998Y49300001D01*
G75*
G02*
X60799998Y49200001I0J-100000D01*
G01*
X60799998Y48400001D01*
G75*
G02*
X60699998Y48300001I-100000J0D01*
G01*
G37*
G36*
G01*
X60699998Y50000001D02*
X59799998Y50000001D01*
G75*
G02*
X59699998Y50100001I0J100000D01*
G01*
X59699998Y50900001D01*
G75*
G02*
X59799998Y51000001I100000J0D01*
G01*
X60699998Y51000001D01*
G75*
G02*
X60799998Y50900001I0J-100000D01*
G01*
X60799998Y50100001D01*
G75*
G02*
X60699998Y50000001I-100000J0D01*
G01*
G37*
G04 #@! TD*
G04 #@! TO.C,D44*
G36*
G01*
X64499998Y48300001D02*
X63599998Y48300001D01*
G75*
G02*
X63499998Y48400001I0J100000D01*
G01*
X63499998Y49200001D01*
G75*
G02*
X63599998Y49300001I100000J0D01*
G01*
X64499998Y49300001D01*
G75*
G02*
X64599998Y49200001I0J-100000D01*
G01*
X64599998Y48400001D01*
G75*
G02*
X64499998Y48300001I-100000J0D01*
G01*
G37*
G36*
G01*
X64499998Y50000001D02*
X63599998Y50000001D01*
G75*
G02*
X63499998Y50100001I0J100000D01*
G01*
X63499998Y50900001D01*
G75*
G02*
X63599998Y51000001I100000J0D01*
G01*
X64499998Y51000001D01*
G75*
G02*
X64599998Y50900001I0J-100000D01*
G01*
X64599998Y50100001D01*
G75*
G02*
X64499998Y50000001I-100000J0D01*
G01*
G37*
G04 #@! TD*
D10*
G04 #@! TO.C,Q30*
X10155000Y84125000D03*
X13205000Y84125000D03*
X10155000Y87475000D03*
X13205000Y87475000D03*
G36*
G01*
X9880000Y78400000D02*
X8920000Y78400000D01*
G75*
G02*
X8800000Y78520000I0J120000D01*
G01*
X8800000Y80480000D01*
G75*
G02*
X8920000Y80600000I120000J0D01*
G01*
X9880000Y80600000D01*
G75*
G02*
X10000000Y80480000I0J-120000D01*
G01*
X10000000Y78520000D01*
G75*
G02*
X9880000Y78400000I-120000J0D01*
G01*
G37*
G36*
G01*
X14440000Y78400000D02*
X13480000Y78400000D01*
G75*
G02*
X13360000Y78520000I0J120000D01*
G01*
X13360000Y80480000D01*
G75*
G02*
X13480000Y80600000I120000J0D01*
G01*
X14440000Y80600000D01*
G75*
G02*
X14560000Y80480000I0J-120000D01*
G01*
X14560000Y78520000D01*
G75*
G02*
X14440000Y78400000I-120000J0D01*
G01*
G37*
G04 #@! TD*
G04 #@! TO.C,R49*
G36*
G01*
X47600000Y44965000D02*
X47600000Y45635000D01*
G75*
G02*
X47665000Y45700000I65000J0D01*
G01*
X48185000Y45700000D01*
G75*
G02*
X48250000Y45635000I0J-65000D01*
G01*
X48250000Y44965000D01*
G75*
G02*
X48185000Y44900000I-65000J0D01*
G01*
X47665000Y44900000D01*
G75*
G02*
X47600000Y44965000I0J65000D01*
G01*
G37*
G36*
G01*
X48575000Y44945000D02*
X48575000Y45655000D01*
G75*
G02*
X48620000Y45700000I45000J0D01*
G01*
X48980000Y45700000D01*
G75*
G02*
X49025000Y45655000I0J-45000D01*
G01*
X49025000Y44945000D01*
G75*
G02*
X48980000Y44900000I-45000J0D01*
G01*
X48620000Y44900000D01*
G75*
G02*
X48575000Y44945000I0J45000D01*
G01*
G37*
G36*
G01*
X49375000Y44945000D02*
X49375000Y45655000D01*
G75*
G02*
X49420000Y45700000I45000J0D01*
G01*
X49780000Y45700000D01*
G75*
G02*
X49825000Y45655000I0J-45000D01*
G01*
X49825000Y44945000D01*
G75*
G02*
X49780000Y44900000I-45000J0D01*
G01*
X49420000Y44900000D01*
G75*
G02*
X49375000Y44945000I0J45000D01*
G01*
G37*
G36*
G01*
X50150000Y44965000D02*
X50150000Y45635000D01*
G75*
G02*
X50215000Y45700000I65000J0D01*
G01*
X50735000Y45700000D01*
G75*
G02*
X50800000Y45635000I0J-65000D01*
G01*
X50800000Y44965000D01*
G75*
G02*
X50735000Y44900000I-65000J0D01*
G01*
X50215000Y44900000D01*
G75*
G02*
X50150000Y44965000I0J65000D01*
G01*
G37*
G36*
G01*
X50150000Y46765000D02*
X50150000Y47435000D01*
G75*
G02*
X50215000Y47500000I65000J0D01*
G01*
X50735000Y47500000D01*
G75*
G02*
X50800000Y47435000I0J-65000D01*
G01*
X50800000Y46765000D01*
G75*
G02*
X50735000Y46700000I-65000J0D01*
G01*
X50215000Y46700000D01*
G75*
G02*
X50150000Y46765000I0J65000D01*
G01*
G37*
G36*
G01*
X49375000Y46745000D02*
X49375000Y47455000D01*
G75*
G02*
X49420000Y47500000I45000J0D01*
G01*
X49780000Y47500000D01*
G75*
G02*
X49825000Y47455000I0J-45000D01*
G01*
X49825000Y46745000D01*
G75*
G02*
X49780000Y46700000I-45000J0D01*
G01*
X49420000Y46700000D01*
G75*
G02*
X49375000Y46745000I0J45000D01*
G01*
G37*
G36*
G01*
X48575000Y46745000D02*
X48575000Y47455000D01*
G75*
G02*
X48620000Y47500000I45000J0D01*
G01*
X48980000Y47500000D01*
G75*
G02*
X49025000Y47455000I0J-45000D01*
G01*
X49025000Y46745000D01*
G75*
G02*
X48980000Y46700000I-45000J0D01*
G01*
X48620000Y46700000D01*
G75*
G02*
X48575000Y46745000I0J45000D01*
G01*
G37*
G36*
G01*
X47600000Y46765000D02*
X47600000Y47435000D01*
G75*
G02*
X47665000Y47500000I65000J0D01*
G01*
X48185000Y47500000D01*
G75*
G02*
X48250000Y47435000I0J-65000D01*
G01*
X48250000Y46765000D01*
G75*
G02*
X48185000Y46700000I-65000J0D01*
G01*
X47665000Y46700000D01*
G75*
G02*
X47600000Y46765000I0J65000D01*
G01*
G37*
G04 #@! TD*
G04 #@! TO.C,D14*
G36*
G01*
X83399998Y48300001D02*
X82499998Y48300001D01*
G75*
G02*
X82399998Y48400001I0J100000D01*
G01*
X82399998Y49200001D01*
G75*
G02*
X82499998Y49300001I100000J0D01*
G01*
X83399998Y49300001D01*
G75*
G02*
X83499998Y49200001I0J-100000D01*
G01*
X83499998Y48400001D01*
G75*
G02*
X83399998Y48300001I-100000J0D01*
G01*
G37*
G36*
G01*
X83399998Y50000001D02*
X82499998Y50000001D01*
G75*
G02*
X82399998Y50100001I0J100000D01*
G01*
X82399998Y50900001D01*
G75*
G02*
X82499998Y51000001I100000J0D01*
G01*
X83399998Y51000001D01*
G75*
G02*
X83499998Y50900001I0J-100000D01*
G01*
X83499998Y50100001D01*
G75*
G02*
X83399998Y50000001I-100000J0D01*
G01*
G37*
G04 #@! TD*
G04 #@! TO.C,R39*
G36*
G01*
X68850000Y90890000D02*
X68850000Y90110000D01*
G75*
G02*
X68780000Y90040000I-70000J0D01*
G01*
X68220000Y90040000D01*
G75*
G02*
X68150000Y90110000I0J70000D01*
G01*
X68150000Y90890000D01*
G75*
G02*
X68220000Y90960000I70000J0D01*
G01*
X68780000Y90960000D01*
G75*
G02*
X68850000Y90890000I0J-70000D01*
G01*
G37*
G36*
G01*
X67250000Y90890000D02*
X67250000Y90110000D01*
G75*
G02*
X67180000Y90040000I-70000J0D01*
G01*
X66620000Y90040000D01*
G75*
G02*
X66550000Y90110000I0J70000D01*
G01*
X66550000Y90890000D01*
G75*
G02*
X66620000Y90960000I70000J0D01*
G01*
X67180000Y90960000D01*
G75*
G02*
X67250000Y90890000I0J-70000D01*
G01*
G37*
G04 #@! TD*
G04 #@! TO.C,Q14*
G36*
G01*
X80500000Y71725000D02*
X80200000Y71725000D01*
G75*
G02*
X80050000Y71875000I0J150000D01*
G01*
X80050000Y73050000D01*
G75*
G02*
X80200000Y73200000I150000J0D01*
G01*
X80500000Y73200000D01*
G75*
G02*
X80650000Y73050000I0J-150000D01*
G01*
X80650000Y71875000D01*
G75*
G02*
X80500000Y71725000I-150000J0D01*
G01*
G37*
G36*
G01*
X81450000Y73600000D02*
X81150000Y73600000D01*
G75*
G02*
X81000000Y73750000I0J150000D01*
G01*
X81000000Y74925000D01*
G75*
G02*
X81150000Y75075000I150000J0D01*
G01*
X81450000Y75075000D01*
G75*
G02*
X81600000Y74925000I0J-150000D01*
G01*
X81600000Y73750000D01*
G75*
G02*
X81450000Y73600000I-150000J0D01*
G01*
G37*
G36*
G01*
X82400000Y71725000D02*
X82100000Y71725000D01*
G75*
G02*
X81950000Y71875000I0J150000D01*
G01*
X81950000Y73050000D01*
G75*
G02*
X82100000Y73200000I150000J0D01*
G01*
X82400000Y73200000D01*
G75*
G02*
X82550000Y73050000I0J-150000D01*
G01*
X82550000Y71875000D01*
G75*
G02*
X82400000Y71725000I-150000J0D01*
G01*
G37*
G04 #@! TD*
G04 #@! TO.C,Q27*
G36*
G01*
X62900000Y86225000D02*
X62600000Y86225000D01*
G75*
G02*
X62450000Y86375000I0J150000D01*
G01*
X62450000Y87550000D01*
G75*
G02*
X62600000Y87700000I150000J0D01*
G01*
X62900000Y87700000D01*
G75*
G02*
X63050000Y87550000I0J-150000D01*
G01*
X63050000Y86375000D01*
G75*
G02*
X62900000Y86225000I-150000J0D01*
G01*
G37*
G36*
G01*
X63850000Y88100000D02*
X63550000Y88100000D01*
G75*
G02*
X63400000Y88250000I0J150000D01*
G01*
X63400000Y89425000D01*
G75*
G02*
X63550000Y89575000I150000J0D01*
G01*
X63850000Y89575000D01*
G75*
G02*
X64000000Y89425000I0J-150000D01*
G01*
X64000000Y88250000D01*
G75*
G02*
X63850000Y88100000I-150000J0D01*
G01*
G37*
G36*
G01*
X64800000Y86225000D02*
X64500000Y86225000D01*
G75*
G02*
X64350000Y86375000I0J150000D01*
G01*
X64350000Y87550000D01*
G75*
G02*
X64500000Y87700000I150000J0D01*
G01*
X64800000Y87700000D01*
G75*
G02*
X64950000Y87550000I0J-150000D01*
G01*
X64950000Y86375000D01*
G75*
G02*
X64800000Y86225000I-150000J0D01*
G01*
G37*
G04 #@! TD*
G04 #@! TO.C,D32*
G36*
G01*
X87199998Y48300001D02*
X86299998Y48300001D01*
G75*
G02*
X86199998Y48400001I0J100000D01*
G01*
X86199998Y49200001D01*
G75*
G02*
X86299998Y49300001I100000J0D01*
G01*
X87199998Y49300001D01*
G75*
G02*
X87299998Y49200001I0J-100000D01*
G01*
X87299998Y48400001D01*
G75*
G02*
X87199998Y48300001I-100000J0D01*
G01*
G37*
G36*
G01*
X87199998Y50000001D02*
X86299998Y50000001D01*
G75*
G02*
X86199998Y50100001I0J100000D01*
G01*
X86199998Y50900001D01*
G75*
G02*
X86299998Y51000001I100000J0D01*
G01*
X87199998Y51000001D01*
G75*
G02*
X87299998Y50900001I0J-100000D01*
G01*
X87299998Y50100001D01*
G75*
G02*
X87199998Y50000001I-100000J0D01*
G01*
G37*
G04 #@! TD*
G04 #@! TO.C,D16*
G36*
G01*
X68299998Y48300001D02*
X67399998Y48300001D01*
G75*
G02*
X67299998Y48400001I0J100000D01*
G01*
X67299998Y49200001D01*
G75*
G02*
X67399998Y49300001I100000J0D01*
G01*
X68299998Y49300001D01*
G75*
G02*
X68399998Y49200001I0J-100000D01*
G01*
X68399998Y48400001D01*
G75*
G02*
X68299998Y48300001I-100000J0D01*
G01*
G37*
G36*
G01*
X68299998Y50000001D02*
X67399998Y50000001D01*
G75*
G02*
X67299998Y50100001I0J100000D01*
G01*
X67299998Y50900001D01*
G75*
G02*
X67399998Y51000001I100000J0D01*
G01*
X68299998Y51000001D01*
G75*
G02*
X68399998Y50900001I0J-100000D01*
G01*
X68399998Y50100001D01*
G75*
G02*
X68299998Y50000001I-100000J0D01*
G01*
G37*
G04 #@! TD*
G04 #@! TO.C,D50*
G36*
G01*
X29300000Y41767581D02*
X29300000Y40747581D01*
G75*
G02*
X29210000Y40657581I-90000J0D01*
G01*
X28490000Y40657581D01*
G75*
G02*
X28400000Y40747581I0J90000D01*
G01*
X28400000Y41767581D01*
G75*
G02*
X28490000Y41857581I90000J0D01*
G01*
X29210000Y41857581D01*
G75*
G02*
X29300000Y41767581I0J-90000D01*
G01*
G37*
G36*
G01*
X26000000Y41767581D02*
X26000000Y40747581D01*
G75*
G02*
X25910000Y40657581I-90000J0D01*
G01*
X25190000Y40657581D01*
G75*
G02*
X25100000Y40747581I0J90000D01*
G01*
X25100000Y41767581D01*
G75*
G02*
X25190000Y41857581I90000J0D01*
G01*
X25910000Y41857581D01*
G75*
G02*
X26000000Y41767581I0J-90000D01*
G01*
G37*
G04 #@! TD*
G04 #@! TO.C,R10*
G36*
G01*
X66725000Y93599999D02*
X65475000Y93599999D01*
G75*
G02*
X65375000Y93699999I0J100000D01*
G01*
X65375000Y94499999D01*
G75*
G02*
X65475000Y94599999I100000J0D01*
G01*
X66725000Y94599999D01*
G75*
G02*
X66825000Y94499999I0J-100000D01*
G01*
X66825000Y93699999D01*
G75*
G02*
X66725000Y93599999I-100000J0D01*
G01*
G37*
G36*
G01*
X66725000Y95500021D02*
X65475000Y95500021D01*
G75*
G02*
X65375000Y95600021I0J100000D01*
G01*
X65375000Y96400021D01*
G75*
G02*
X65475000Y96500021I100000J0D01*
G01*
X66725000Y96500021D01*
G75*
G02*
X66825000Y96400021I0J-100000D01*
G01*
X66825000Y95600021D01*
G75*
G02*
X66725000Y95500021I-100000J0D01*
G01*
G37*
G04 #@! TD*
G04 #@! TO.C,R76*
G36*
G01*
X4350000Y45110000D02*
X4350000Y45890000D01*
G75*
G02*
X4420000Y45960000I70000J0D01*
G01*
X4980000Y45960000D01*
G75*
G02*
X5050000Y45890000I0J-70000D01*
G01*
X5050000Y45110000D01*
G75*
G02*
X4980000Y45040000I-70000J0D01*
G01*
X4420000Y45040000D01*
G75*
G02*
X4350000Y45110000I0J70000D01*
G01*
G37*
G36*
G01*
X5950000Y45110000D02*
X5950000Y45890000D01*
G75*
G02*
X6020000Y45960000I70000J0D01*
G01*
X6580000Y45960000D01*
G75*
G02*
X6650000Y45890000I0J-70000D01*
G01*
X6650000Y45110000D01*
G75*
G02*
X6580000Y45040000I-70000J0D01*
G01*
X6020000Y45040000D01*
G75*
G02*
X5950000Y45110000I0J70000D01*
G01*
G37*
G04 #@! TD*
G04 #@! TO.C,R62*
G36*
G01*
X29125000Y93849999D02*
X27875000Y93849999D01*
G75*
G02*
X27775000Y93949999I0J100000D01*
G01*
X27775000Y94749999D01*
G75*
G02*
X27875000Y94849999I100000J0D01*
G01*
X29125000Y94849999D01*
G75*
G02*
X29225000Y94749999I0J-100000D01*
G01*
X29225000Y93949999D01*
G75*
G02*
X29125000Y93849999I-100000J0D01*
G01*
G37*
G36*
G01*
X29125000Y95750021D02*
X27875000Y95750021D01*
G75*
G02*
X27775000Y95850021I0J100000D01*
G01*
X27775000Y96650021D01*
G75*
G02*
X27875000Y96750021I100000J0D01*
G01*
X29125000Y96750021D01*
G75*
G02*
X29225000Y96650021I0J-100000D01*
G01*
X29225000Y95850021D01*
G75*
G02*
X29125000Y95750021I-100000J0D01*
G01*
G37*
G04 #@! TD*
G04 #@! TO.C,Q42*
X86155000Y69825000D03*
X89205000Y69825000D03*
X86155000Y73175000D03*
X89205000Y73175000D03*
G36*
G01*
X85880000Y64100000D02*
X84920000Y64100000D01*
G75*
G02*
X84800000Y64220000I0J120000D01*
G01*
X84800000Y66180000D01*
G75*
G02*
X84920000Y66300000I120000J0D01*
G01*
X85880000Y66300000D01*
G75*
G02*
X86000000Y66180000I0J-120000D01*
G01*
X86000000Y64220000D01*
G75*
G02*
X85880000Y64100000I-120000J0D01*
G01*
G37*
G36*
G01*
X90440000Y64100000D02*
X89480000Y64100000D01*
G75*
G02*
X89360000Y64220000I0J120000D01*
G01*
X89360000Y66180000D01*
G75*
G02*
X89480000Y66300000I120000J0D01*
G01*
X90440000Y66300000D01*
G75*
G02*
X90560000Y66180000I0J-120000D01*
G01*
X90560000Y64220000D01*
G75*
G02*
X90440000Y64100000I-120000J0D01*
G01*
G37*
G04 #@! TD*
G04 #@! TO.C,F7*
G36*
G01*
X32000000Y96054989D02*
X32000000Y96744989D01*
G75*
G02*
X32230000Y96974989I230000J0D01*
G01*
X33570000Y96974989D01*
G75*
G02*
X33800000Y96744989I0J-230000D01*
G01*
X33800000Y96054989D01*
G75*
G02*
X33570000Y95824989I-230000J0D01*
G01*
X32230000Y95824989D01*
G75*
G02*
X32000000Y96054989I0J230000D01*
G01*
G37*
G36*
G01*
X32000000Y93154969D02*
X32000000Y93844969D01*
G75*
G02*
X32230000Y94074969I230000J0D01*
G01*
X33570000Y94074969D01*
G75*
G02*
X33800000Y93844969I0J-230000D01*
G01*
X33800000Y93154969D01*
G75*
G02*
X33570000Y92924969I-230000J0D01*
G01*
X32230000Y92924969D01*
G75*
G02*
X32000000Y93154969I0J230000D01*
G01*
G37*
G04 #@! TD*
G04 #@! TO.C,Q17*
G36*
G01*
X23500000Y34982581D02*
X23200000Y34982581D01*
G75*
G02*
X23050000Y35132581I0J150000D01*
G01*
X23050000Y36307581D01*
G75*
G02*
X23200000Y36457581I150000J0D01*
G01*
X23500000Y36457581D01*
G75*
G02*
X23650000Y36307581I0J-150000D01*
G01*
X23650000Y35132581D01*
G75*
G02*
X23500000Y34982581I-150000J0D01*
G01*
G37*
G36*
G01*
X24450000Y36857581D02*
X24150000Y36857581D01*
G75*
G02*
X24000000Y37007581I0J150000D01*
G01*
X24000000Y38182581D01*
G75*
G02*
X24150000Y38332581I150000J0D01*
G01*
X24450000Y38332581D01*
G75*
G02*
X24600000Y38182581I0J-150000D01*
G01*
X24600000Y37007581D01*
G75*
G02*
X24450000Y36857581I-150000J0D01*
G01*
G37*
G36*
G01*
X25400000Y34982581D02*
X25100000Y34982581D01*
G75*
G02*
X24950000Y35132581I0J150000D01*
G01*
X24950000Y36307581D01*
G75*
G02*
X25100000Y36457581I150000J0D01*
G01*
X25400000Y36457581D01*
G75*
G02*
X25550000Y36307581I0J-150000D01*
G01*
X25550000Y35132581D01*
G75*
G02*
X25400000Y34982581I-150000J0D01*
G01*
G37*
G04 #@! TD*
G04 #@! TO.C,R5*
G36*
G01*
X53900000Y44965000D02*
X53900000Y45635000D01*
G75*
G02*
X53965000Y45700000I65000J0D01*
G01*
X54485000Y45700000D01*
G75*
G02*
X54550000Y45635000I0J-65000D01*
G01*
X54550000Y44965000D01*
G75*
G02*
X54485000Y44900000I-65000J0D01*
G01*
X53965000Y44900000D01*
G75*
G02*
X53900000Y44965000I0J65000D01*
G01*
G37*
G36*
G01*
X54875000Y44945000D02*
X54875000Y45655000D01*
G75*
G02*
X54920000Y45700000I45000J0D01*
G01*
X55280000Y45700000D01*
G75*
G02*
X55325000Y45655000I0J-45000D01*
G01*
X55325000Y44945000D01*
G75*
G02*
X55280000Y44900000I-45000J0D01*
G01*
X54920000Y44900000D01*
G75*
G02*
X54875000Y44945000I0J45000D01*
G01*
G37*
G36*
G01*
X55675000Y44945000D02*
X55675000Y45655000D01*
G75*
G02*
X55720000Y45700000I45000J0D01*
G01*
X56080000Y45700000D01*
G75*
G02*
X56125000Y45655000I0J-45000D01*
G01*
X56125000Y44945000D01*
G75*
G02*
X56080000Y44900000I-45000J0D01*
G01*
X55720000Y44900000D01*
G75*
G02*
X55675000Y44945000I0J45000D01*
G01*
G37*
G36*
G01*
X56450000Y44965000D02*
X56450000Y45635000D01*
G75*
G02*
X56515000Y45700000I65000J0D01*
G01*
X57035000Y45700000D01*
G75*
G02*
X57100000Y45635000I0J-65000D01*
G01*
X57100000Y44965000D01*
G75*
G02*
X57035000Y44900000I-65000J0D01*
G01*
X56515000Y44900000D01*
G75*
G02*
X56450000Y44965000I0J65000D01*
G01*
G37*
G36*
G01*
X56450000Y46765000D02*
X56450000Y47435000D01*
G75*
G02*
X56515000Y47500000I65000J0D01*
G01*
X57035000Y47500000D01*
G75*
G02*
X57100000Y47435000I0J-65000D01*
G01*
X57100000Y46765000D01*
G75*
G02*
X57035000Y46700000I-65000J0D01*
G01*
X56515000Y46700000D01*
G75*
G02*
X56450000Y46765000I0J65000D01*
G01*
G37*
G36*
G01*
X55675000Y46745000D02*
X55675000Y47455000D01*
G75*
G02*
X55720000Y47500000I45000J0D01*
G01*
X56080000Y47500000D01*
G75*
G02*
X56125000Y47455000I0J-45000D01*
G01*
X56125000Y46745000D01*
G75*
G02*
X56080000Y46700000I-45000J0D01*
G01*
X55720000Y46700000D01*
G75*
G02*
X55675000Y46745000I0J45000D01*
G01*
G37*
G36*
G01*
X54875000Y46745000D02*
X54875000Y47455000D01*
G75*
G02*
X54920000Y47500000I45000J0D01*
G01*
X55280000Y47500000D01*
G75*
G02*
X55325000Y47455000I0J-45000D01*
G01*
X55325000Y46745000D01*
G75*
G02*
X55280000Y46700000I-45000J0D01*
G01*
X54920000Y46700000D01*
G75*
G02*
X54875000Y46745000I0J45000D01*
G01*
G37*
G36*
G01*
X53900000Y46765000D02*
X53900000Y47435000D01*
G75*
G02*
X53965000Y47500000I65000J0D01*
G01*
X54485000Y47500000D01*
G75*
G02*
X54550000Y47435000I0J-65000D01*
G01*
X54550000Y46765000D01*
G75*
G02*
X54485000Y46700000I-65000J0D01*
G01*
X53965000Y46700000D01*
G75*
G02*
X53900000Y46765000I0J65000D01*
G01*
G37*
G04 #@! TD*
G04 #@! TO.C,D43*
G36*
G01*
X62599998Y48300001D02*
X61699998Y48300001D01*
G75*
G02*
X61599998Y48400001I0J100000D01*
G01*
X61599998Y49200001D01*
G75*
G02*
X61699998Y49300001I100000J0D01*
G01*
X62599998Y49300001D01*
G75*
G02*
X62699998Y49200001I0J-100000D01*
G01*
X62699998Y48400001D01*
G75*
G02*
X62599998Y48300001I-100000J0D01*
G01*
G37*
G36*
G01*
X62599998Y50000001D02*
X61699998Y50000001D01*
G75*
G02*
X61599998Y50100001I0J100000D01*
G01*
X61599998Y50900001D01*
G75*
G02*
X61699998Y51000001I100000J0D01*
G01*
X62599998Y51000001D01*
G75*
G02*
X62699998Y50900001I0J-100000D01*
G01*
X62699998Y50100001D01*
G75*
G02*
X62599998Y50000001I-100000J0D01*
G01*
G37*
G04 #@! TD*
G04 #@! TO.C,D10*
G36*
G01*
X77699998Y48300001D02*
X76799998Y48300001D01*
G75*
G02*
X76699998Y48400001I0J100000D01*
G01*
X76699998Y49200001D01*
G75*
G02*
X76799998Y49300001I100000J0D01*
G01*
X77699998Y49300001D01*
G75*
G02*
X77799998Y49200001I0J-100000D01*
G01*
X77799998Y48400001D01*
G75*
G02*
X77699998Y48300001I-100000J0D01*
G01*
G37*
G36*
G01*
X77699998Y50000001D02*
X76799998Y50000001D01*
G75*
G02*
X76699998Y50100001I0J100000D01*
G01*
X76699998Y50900001D01*
G75*
G02*
X76799998Y51000001I100000J0D01*
G01*
X77699998Y51000001D01*
G75*
G02*
X77799998Y50900001I0J-100000D01*
G01*
X77799998Y50100001D01*
G75*
G02*
X77699998Y50000001I-100000J0D01*
G01*
G37*
G04 #@! TD*
G04 #@! TO.C,R56*
G36*
G01*
X14625000Y94099999D02*
X13375000Y94099999D01*
G75*
G02*
X13275000Y94199999I0J100000D01*
G01*
X13275000Y94999999D01*
G75*
G02*
X13375000Y95099999I100000J0D01*
G01*
X14625000Y95099999D01*
G75*
G02*
X14725000Y94999999I0J-100000D01*
G01*
X14725000Y94199999D01*
G75*
G02*
X14625000Y94099999I-100000J0D01*
G01*
G37*
G36*
G01*
X14625000Y96000021D02*
X13375000Y96000021D01*
G75*
G02*
X13275000Y96100021I0J100000D01*
G01*
X13275000Y96900021D01*
G75*
G02*
X13375000Y97000021I100000J0D01*
G01*
X14625000Y97000021D01*
G75*
G02*
X14725000Y96900021I0J-100000D01*
G01*
X14725000Y96100021D01*
G75*
G02*
X14625000Y96000021I-100000J0D01*
G01*
G37*
G04 #@! TD*
G04 #@! TO.C,Q20*
G36*
G01*
X71050000Y81962500D02*
X70750000Y81962500D01*
G75*
G02*
X70600000Y82112500I0J150000D01*
G01*
X70600000Y83287500D01*
G75*
G02*
X70750000Y83437500I150000J0D01*
G01*
X71050000Y83437500D01*
G75*
G02*
X71200000Y83287500I0J-150000D01*
G01*
X71200000Y82112500D01*
G75*
G02*
X71050000Y81962500I-150000J0D01*
G01*
G37*
G36*
G01*
X72000000Y83837500D02*
X71700000Y83837500D01*
G75*
G02*
X71550000Y83987500I0J150000D01*
G01*
X71550000Y85162500D01*
G75*
G02*
X71700000Y85312500I150000J0D01*
G01*
X72000000Y85312500D01*
G75*
G02*
X72150000Y85162500I0J-150000D01*
G01*
X72150000Y83987500D01*
G75*
G02*
X72000000Y83837500I-150000J0D01*
G01*
G37*
G36*
G01*
X72950000Y81962500D02*
X72650000Y81962500D01*
G75*
G02*
X72500000Y82112500I0J150000D01*
G01*
X72500000Y83287500D01*
G75*
G02*
X72650000Y83437500I150000J0D01*
G01*
X72950000Y83437500D01*
G75*
G02*
X73100000Y83287500I0J-150000D01*
G01*
X73100000Y82112500D01*
G75*
G02*
X72950000Y81962500I-150000J0D01*
G01*
G37*
G04 #@! TD*
G04 #@! TO.C,Q26*
X17655000Y84125000D03*
X20705000Y84125000D03*
X17655000Y87475000D03*
X20705000Y87475000D03*
G36*
G01*
X17380000Y78400000D02*
X16420000Y78400000D01*
G75*
G02*
X16300000Y78520000I0J120000D01*
G01*
X16300000Y80480000D01*
G75*
G02*
X16420000Y80600000I120000J0D01*
G01*
X17380000Y80600000D01*
G75*
G02*
X17500000Y80480000I0J-120000D01*
G01*
X17500000Y78520000D01*
G75*
G02*
X17380000Y78400000I-120000J0D01*
G01*
G37*
G36*
G01*
X21940000Y78400000D02*
X20980000Y78400000D01*
G75*
G02*
X20860000Y78520000I0J120000D01*
G01*
X20860000Y80480000D01*
G75*
G02*
X20980000Y80600000I120000J0D01*
G01*
X21940000Y80600000D01*
G75*
G02*
X22060000Y80480000I0J-120000D01*
G01*
X22060000Y78520000D01*
G75*
G02*
X21940000Y78400000I-120000J0D01*
G01*
G37*
G04 #@! TD*
G04 #@! TO.C,D17*
G36*
G01*
X54999998Y48300001D02*
X54099998Y48300001D01*
G75*
G02*
X53999998Y48400001I0J100000D01*
G01*
X53999998Y49200001D01*
G75*
G02*
X54099998Y49300001I100000J0D01*
G01*
X54999998Y49300001D01*
G75*
G02*
X55099998Y49200001I0J-100000D01*
G01*
X55099998Y48400001D01*
G75*
G02*
X54999998Y48300001I-100000J0D01*
G01*
G37*
G36*
G01*
X54999998Y50000001D02*
X54099998Y50000001D01*
G75*
G02*
X53999998Y50100001I0J100000D01*
G01*
X53999998Y50900001D01*
G75*
G02*
X54099998Y51000001I100000J0D01*
G01*
X54999998Y51000001D01*
G75*
G02*
X55099998Y50900001I0J-100000D01*
G01*
X55099998Y50100001D01*
G75*
G02*
X54999998Y50000001I-100000J0D01*
G01*
G37*
G04 #@! TD*
G04 #@! TO.C,R89*
G36*
G01*
X7850000Y42110000D02*
X7850000Y42890000D01*
G75*
G02*
X7920000Y42960000I70000J0D01*
G01*
X8480000Y42960000D01*
G75*
G02*
X8550000Y42890000I0J-70000D01*
G01*
X8550000Y42110000D01*
G75*
G02*
X8480000Y42040000I-70000J0D01*
G01*
X7920000Y42040000D01*
G75*
G02*
X7850000Y42110000I0J70000D01*
G01*
G37*
G36*
G01*
X9450000Y42110000D02*
X9450000Y42890000D01*
G75*
G02*
X9520000Y42960000I70000J0D01*
G01*
X10080000Y42960000D01*
G75*
G02*
X10150000Y42890000I0J-70000D01*
G01*
X10150000Y42110000D01*
G75*
G02*
X10080000Y42040000I-70000J0D01*
G01*
X9520000Y42040000D01*
G75*
G02*
X9450000Y42110000I0J70000D01*
G01*
G37*
G04 #@! TD*
G04 #@! TO.C,R19*
G36*
G01*
X54575000Y93599999D02*
X53325000Y93599999D01*
G75*
G02*
X53225000Y93699999I0J100000D01*
G01*
X53225000Y94499999D01*
G75*
G02*
X53325000Y94599999I100000J0D01*
G01*
X54575000Y94599999D01*
G75*
G02*
X54675000Y94499999I0J-100000D01*
G01*
X54675000Y93699999D01*
G75*
G02*
X54575000Y93599999I-100000J0D01*
G01*
G37*
G36*
G01*
X54575000Y95500021D02*
X53325000Y95500021D01*
G75*
G02*
X53225000Y95600021I0J100000D01*
G01*
X53225000Y96400021D01*
G75*
G02*
X53325000Y96500021I100000J0D01*
G01*
X54575000Y96500021D01*
G75*
G02*
X54675000Y96400021I0J-100000D01*
G01*
X54675000Y95600021D01*
G75*
G02*
X54575000Y95500021I-100000J0D01*
G01*
G37*
G04 #@! TD*
G04 #@! TO.C,Q5*
G36*
G01*
X62900000Y82025000D02*
X62600000Y82025000D01*
G75*
G02*
X62450000Y82175000I0J150000D01*
G01*
X62450000Y83350000D01*
G75*
G02*
X62600000Y83500000I150000J0D01*
G01*
X62900000Y83500000D01*
G75*
G02*
X63050000Y83350000I0J-150000D01*
G01*
X63050000Y82175000D01*
G75*
G02*
X62900000Y82025000I-150000J0D01*
G01*
G37*
G36*
G01*
X63850000Y83900000D02*
X63550000Y83900000D01*
G75*
G02*
X63400000Y84050000I0J150000D01*
G01*
X63400000Y85225000D01*
G75*
G02*
X63550000Y85375000I150000J0D01*
G01*
X63850000Y85375000D01*
G75*
G02*
X64000000Y85225000I0J-150000D01*
G01*
X64000000Y84050000D01*
G75*
G02*
X63850000Y83900000I-150000J0D01*
G01*
G37*
G36*
G01*
X64800000Y82025000D02*
X64500000Y82025000D01*
G75*
G02*
X64350000Y82175000I0J150000D01*
G01*
X64350000Y83350000D01*
G75*
G02*
X64500000Y83500000I150000J0D01*
G01*
X64800000Y83500000D01*
G75*
G02*
X64950000Y83350000I0J-150000D01*
G01*
X64950000Y82175000D01*
G75*
G02*
X64800000Y82025000I-150000J0D01*
G01*
G37*
G04 #@! TD*
G04 #@! TO.C,R20*
G36*
G01*
X25450000Y39647581D02*
X25450000Y38867581D01*
G75*
G02*
X25380000Y38797581I-70000J0D01*
G01*
X24820000Y38797581D01*
G75*
G02*
X24750000Y38867581I0J70000D01*
G01*
X24750000Y39647581D01*
G75*
G02*
X24820000Y39717581I70000J0D01*
G01*
X25380000Y39717581D01*
G75*
G02*
X25450000Y39647581I0J-70000D01*
G01*
G37*
G36*
G01*
X23850000Y39647581D02*
X23850000Y38867581D01*
G75*
G02*
X23780000Y38797581I-70000J0D01*
G01*
X23220000Y38797581D01*
G75*
G02*
X23150000Y38867581I0J70000D01*
G01*
X23150000Y39647581D01*
G75*
G02*
X23220000Y39717581I70000J0D01*
G01*
X23780000Y39717581D01*
G75*
G02*
X23850000Y39647581I0J-70000D01*
G01*
G37*
G04 #@! TD*
G04 #@! TO.C,U3*
G36*
G01*
X39690000Y49448700D02*
X39690000Y48941300D01*
G75*
G02*
X39648700Y48900000I-41300J0D01*
G01*
X37711300Y48900000D01*
G75*
G02*
X37670000Y48941300I0J41300D01*
G01*
X37670000Y49448700D01*
G75*
G02*
X37711300Y49490000I41300J0D01*
G01*
X39648700Y49490000D01*
G75*
G02*
X39690000Y49448700I0J-41300D01*
G01*
G37*
G36*
G01*
X39690000Y50718700D02*
X39690000Y50211300D01*
G75*
G02*
X39648700Y50170000I-41300J0D01*
G01*
X37711300Y50170000D01*
G75*
G02*
X37670000Y50211300I0J41300D01*
G01*
X37670000Y50718700D01*
G75*
G02*
X37711300Y50760000I41300J0D01*
G01*
X39648700Y50760000D01*
G75*
G02*
X39690000Y50718700I0J-41300D01*
G01*
G37*
G36*
G01*
X39690000Y51988700D02*
X39690000Y51481300D01*
G75*
G02*
X39648700Y51440000I-41300J0D01*
G01*
X37711300Y51440000D01*
G75*
G02*
X37670000Y51481300I0J41300D01*
G01*
X37670000Y51988700D01*
G75*
G02*
X37711300Y52030000I41300J0D01*
G01*
X39648700Y52030000D01*
G75*
G02*
X39690000Y51988700I0J-41300D01*
G01*
G37*
G36*
G01*
X39690000Y53258700D02*
X39690000Y52751300D01*
G75*
G02*
X39648700Y52710000I-41300J0D01*
G01*
X37711300Y52710000D01*
G75*
G02*
X37670000Y52751300I0J41300D01*
G01*
X37670000Y53258700D01*
G75*
G02*
X37711300Y53300000I41300J0D01*
G01*
X39648700Y53300000D01*
G75*
G02*
X39690000Y53258700I0J-41300D01*
G01*
G37*
G36*
G01*
X30330000Y53258700D02*
X30330000Y52751300D01*
G75*
G02*
X30288700Y52710000I-41300J0D01*
G01*
X28351300Y52710000D01*
G75*
G02*
X28310000Y52751300I0J41300D01*
G01*
X28310000Y53258700D01*
G75*
G02*
X28351300Y53300000I41300J0D01*
G01*
X30288700Y53300000D01*
G75*
G02*
X30330000Y53258700I0J-41300D01*
G01*
G37*
G36*
G01*
X30330000Y51988700D02*
X30330000Y51481300D01*
G75*
G02*
X30288700Y51440000I-41300J0D01*
G01*
X28351300Y51440000D01*
G75*
G02*
X28310000Y51481300I0J41300D01*
G01*
X28310000Y51988700D01*
G75*
G02*
X28351300Y52030000I41300J0D01*
G01*
X30288700Y52030000D01*
G75*
G02*
X30330000Y51988700I0J-41300D01*
G01*
G37*
G36*
G01*
X30330000Y50718700D02*
X30330000Y50211300D01*
G75*
G02*
X30288700Y50170000I-41300J0D01*
G01*
X28351300Y50170000D01*
G75*
G02*
X28310000Y50211300I0J41300D01*
G01*
X28310000Y50718700D01*
G75*
G02*
X28351300Y50760000I41300J0D01*
G01*
X30288700Y50760000D01*
G75*
G02*
X30330000Y50718700I0J-41300D01*
G01*
G37*
G36*
G01*
X30330000Y49448700D02*
X30330000Y48941300D01*
G75*
G02*
X30288700Y48900000I-41300J0D01*
G01*
X28351300Y48900000D01*
G75*
G02*
X28310000Y48941300I0J41300D01*
G01*
X28310000Y49448700D01*
G75*
G02*
X28351300Y49490000I41300J0D01*
G01*
X30288700Y49490000D01*
G75*
G02*
X30330000Y49448700I0J-41300D01*
G01*
G37*
G04 #@! TD*
G04 #@! TO.C,R48*
G36*
G01*
X7850000Y48110000D02*
X7850000Y48890000D01*
G75*
G02*
X7920000Y48960000I70000J0D01*
G01*
X8480000Y48960000D01*
G75*
G02*
X8550000Y48890000I0J-70000D01*
G01*
X8550000Y48110000D01*
G75*
G02*
X8480000Y48040000I-70000J0D01*
G01*
X7920000Y48040000D01*
G75*
G02*
X7850000Y48110000I0J70000D01*
G01*
G37*
G36*
G01*
X9450000Y48110000D02*
X9450000Y48890000D01*
G75*
G02*
X9520000Y48960000I70000J0D01*
G01*
X10080000Y48960000D01*
G75*
G02*
X10150000Y48890000I0J-70000D01*
G01*
X10150000Y48110000D01*
G75*
G02*
X10080000Y48040000I-70000J0D01*
G01*
X9520000Y48040000D01*
G75*
G02*
X9450000Y48110000I0J70000D01*
G01*
G37*
G04 #@! TD*
G04 #@! TO.C,R67*
G36*
G01*
X26875000Y94099999D02*
X25625000Y94099999D01*
G75*
G02*
X25525000Y94199999I0J100000D01*
G01*
X25525000Y94999999D01*
G75*
G02*
X25625000Y95099999I100000J0D01*
G01*
X26875000Y95099999D01*
G75*
G02*
X26975000Y94999999I0J-100000D01*
G01*
X26975000Y94199999D01*
G75*
G02*
X26875000Y94099999I-100000J0D01*
G01*
G37*
G36*
G01*
X26875000Y96000021D02*
X25625000Y96000021D01*
G75*
G02*
X25525000Y96100021I0J100000D01*
G01*
X25525000Y96900021D01*
G75*
G02*
X25625000Y97000021I100000J0D01*
G01*
X26875000Y97000021D01*
G75*
G02*
X26975000Y96900021I0J-100000D01*
G01*
X26975000Y96100021D01*
G75*
G02*
X26875000Y96000021I-100000J0D01*
G01*
G37*
G04 #@! TD*
G04 #@! TO.C,Q46*
X3755000Y35625000D03*
X6805000Y35625000D03*
X3755000Y38975000D03*
X6805000Y38975000D03*
G36*
G01*
X3480000Y29900000D02*
X2520000Y29900000D01*
G75*
G02*
X2400000Y30020000I0J120000D01*
G01*
X2400000Y31980000D01*
G75*
G02*
X2520000Y32100000I120000J0D01*
G01*
X3480000Y32100000D01*
G75*
G02*
X3600000Y31980000I0J-120000D01*
G01*
X3600000Y30020000D01*
G75*
G02*
X3480000Y29900000I-120000J0D01*
G01*
G37*
G36*
G01*
X8040000Y29900000D02*
X7080000Y29900000D01*
G75*
G02*
X6960000Y30020000I0J120000D01*
G01*
X6960000Y31980000D01*
G75*
G02*
X7080000Y32100000I120000J0D01*
G01*
X8040000Y32100000D01*
G75*
G02*
X8160000Y31980000I0J-120000D01*
G01*
X8160000Y30020000D01*
G75*
G02*
X8040000Y29900000I-120000J0D01*
G01*
G37*
G04 #@! TD*
G04 #@! TO.C,R7*
G36*
G01*
X28950000Y39647581D02*
X28950000Y38867581D01*
G75*
G02*
X28880000Y38797581I-70000J0D01*
G01*
X28320000Y38797581D01*
G75*
G02*
X28250000Y38867581I0J70000D01*
G01*
X28250000Y39647581D01*
G75*
G02*
X28320000Y39717581I70000J0D01*
G01*
X28880000Y39717581D01*
G75*
G02*
X28950000Y39647581I0J-70000D01*
G01*
G37*
G36*
G01*
X27350000Y39647581D02*
X27350000Y38867581D01*
G75*
G02*
X27280000Y38797581I-70000J0D01*
G01*
X26720000Y38797581D01*
G75*
G02*
X26650000Y38867581I0J70000D01*
G01*
X26650000Y39647581D01*
G75*
G02*
X26720000Y39717581I70000J0D01*
G01*
X27280000Y39717581D01*
G75*
G02*
X27350000Y39647581I0J-70000D01*
G01*
G37*
G04 #@! TD*
D24*
G04 #@! TO.C,U4*
X22700000Y7775000D03*
X22700000Y9275000D03*
X22700000Y10775000D03*
X22700000Y12275000D03*
X22700000Y13775000D03*
X22700000Y15275000D03*
X22700000Y16775000D03*
X22700000Y18275000D03*
X22700000Y19775000D03*
X22700000Y21275000D03*
X22700000Y22775000D03*
X22700000Y24275000D03*
X22700000Y25775000D03*
X10000000Y25775000D03*
X10000000Y24275000D03*
X10000000Y22775000D03*
X10000000Y21275000D03*
X10000000Y19775000D03*
X10000000Y18275000D03*
X10000000Y16775000D03*
X10000000Y15275000D03*
X10000000Y13775000D03*
X10000000Y12275000D03*
X10000000Y10775000D03*
X10000000Y9275000D03*
X10000000Y7775000D03*
G04 #@! TD*
G04 #@! TO.C,R99*
G36*
G01*
X82550000Y76310000D02*
X82550000Y77090000D01*
G75*
G02*
X82620000Y77160000I70000J0D01*
G01*
X83180000Y77160000D01*
G75*
G02*
X83250000Y77090000I0J-70000D01*
G01*
X83250000Y76310000D01*
G75*
G02*
X83180000Y76240000I-70000J0D01*
G01*
X82620000Y76240000D01*
G75*
G02*
X82550000Y76310000I0J70000D01*
G01*
G37*
G36*
G01*
X84150000Y76310000D02*
X84150000Y77090000D01*
G75*
G02*
X84220000Y77160000I70000J0D01*
G01*
X84780000Y77160000D01*
G75*
G02*
X84850000Y77090000I0J-70000D01*
G01*
X84850000Y76310000D01*
G75*
G02*
X84780000Y76240000I-70000J0D01*
G01*
X84220000Y76240000D01*
G75*
G02*
X84150000Y76310000I0J70000D01*
G01*
G37*
G04 #@! TD*
G04 #@! TO.C,Q50*
G36*
G01*
X41375000Y73100000D02*
X41375000Y72800000D01*
G75*
G02*
X41225000Y72650000I-150000J0D01*
G01*
X40050000Y72650000D01*
G75*
G02*
X39900000Y72800000I0J150000D01*
G01*
X39900000Y73100000D01*
G75*
G02*
X40050000Y73250000I150000J0D01*
G01*
X41225000Y73250000D01*
G75*
G02*
X41375000Y73100000I0J-150000D01*
G01*
G37*
G36*
G01*
X39500000Y74050000D02*
X39500000Y73750000D01*
G75*
G02*
X39350000Y73600000I-150000J0D01*
G01*
X38175000Y73600000D01*
G75*
G02*
X38025000Y73750000I0J150000D01*
G01*
X38025000Y74050000D01*
G75*
G02*
X38175000Y74200000I150000J0D01*
G01*
X39350000Y74200000D01*
G75*
G02*
X39500000Y74050000I0J-150000D01*
G01*
G37*
G36*
G01*
X41375000Y75000000D02*
X41375000Y74700000D01*
G75*
G02*
X41225000Y74550000I-150000J0D01*
G01*
X40050000Y74550000D01*
G75*
G02*
X39900000Y74700000I0J150000D01*
G01*
X39900000Y75000000D01*
G75*
G02*
X40050000Y75150000I150000J0D01*
G01*
X41225000Y75150000D01*
G75*
G02*
X41375000Y75000000I0J-150000D01*
G01*
G37*
G04 #@! TD*
G04 #@! TO.C,F1*
G36*
G01*
X80296000Y95650010D02*
X80296000Y96340010D01*
G75*
G02*
X80526000Y96570010I230000J0D01*
G01*
X81866000Y96570010D01*
G75*
G02*
X82096000Y96340010I0J-230000D01*
G01*
X82096000Y95650010D01*
G75*
G02*
X81866000Y95420010I-230000J0D01*
G01*
X80526000Y95420010D01*
G75*
G02*
X80296000Y95650010I0J230000D01*
G01*
G37*
G36*
G01*
X80296000Y92749990D02*
X80296000Y93439990D01*
G75*
G02*
X80526000Y93669990I230000J0D01*
G01*
X81866000Y93669990D01*
G75*
G02*
X82096000Y93439990I0J-230000D01*
G01*
X82096000Y92749990D01*
G75*
G02*
X81866000Y92519990I-230000J0D01*
G01*
X80526000Y92519990D01*
G75*
G02*
X80296000Y92749990I0J230000D01*
G01*
G37*
G04 #@! TD*
G04 #@! TO.C,R85*
G36*
G01*
X41890000Y93350000D02*
X41110000Y93350000D01*
G75*
G02*
X41040000Y93420000I0J70000D01*
G01*
X41040000Y93980000D01*
G75*
G02*
X41110000Y94050000I70000J0D01*
G01*
X41890000Y94050000D01*
G75*
G02*
X41960000Y93980000I0J-70000D01*
G01*
X41960000Y93420000D01*
G75*
G02*
X41890000Y93350000I-70000J0D01*
G01*
G37*
G36*
G01*
X41890000Y94950000D02*
X41110000Y94950000D01*
G75*
G02*
X41040000Y95020000I0J70000D01*
G01*
X41040000Y95580000D01*
G75*
G02*
X41110000Y95650000I70000J0D01*
G01*
X41890000Y95650000D01*
G75*
G02*
X41960000Y95580000I0J-70000D01*
G01*
X41960000Y95020000D01*
G75*
G02*
X41890000Y94950000I-70000J0D01*
G01*
G37*
G04 #@! TD*
G04 #@! TO.C,R64*
G36*
G01*
X16675000Y94099999D02*
X15425000Y94099999D01*
G75*
G02*
X15325000Y94199999I0J100000D01*
G01*
X15325000Y94999999D01*
G75*
G02*
X15425000Y95099999I100000J0D01*
G01*
X16675000Y95099999D01*
G75*
G02*
X16775000Y94999999I0J-100000D01*
G01*
X16775000Y94199999D01*
G75*
G02*
X16675000Y94099999I-100000J0D01*
G01*
G37*
G36*
G01*
X16675000Y96000021D02*
X15425000Y96000021D01*
G75*
G02*
X15325000Y96100021I0J100000D01*
G01*
X15325000Y96900021D01*
G75*
G02*
X15425000Y97000021I100000J0D01*
G01*
X16675000Y97000021D01*
G75*
G02*
X16775000Y96900021I0J-100000D01*
G01*
X16775000Y96100021D01*
G75*
G02*
X16675000Y96000021I-100000J0D01*
G01*
G37*
G04 #@! TD*
G04 #@! TO.C,D31*
G36*
G01*
X85299998Y48300001D02*
X84399998Y48300001D01*
G75*
G02*
X84299998Y48400001I0J100000D01*
G01*
X84299998Y49200001D01*
G75*
G02*
X84399998Y49300001I100000J0D01*
G01*
X85299998Y49300001D01*
G75*
G02*
X85399998Y49200001I0J-100000D01*
G01*
X85399998Y48400001D01*
G75*
G02*
X85299998Y48300001I-100000J0D01*
G01*
G37*
G36*
G01*
X85299998Y50000001D02*
X84399998Y50000001D01*
G75*
G02*
X84299998Y50100001I0J100000D01*
G01*
X84299998Y50900001D01*
G75*
G02*
X84399998Y51000001I100000J0D01*
G01*
X85299998Y51000001D01*
G75*
G02*
X85399998Y50900001I0J-100000D01*
G01*
X85399998Y50100001D01*
G75*
G02*
X85299998Y50000001I-100000J0D01*
G01*
G37*
G04 #@! TD*
G04 #@! TO.C,R13*
G36*
G01*
X7850000Y51110000D02*
X7850000Y51890000D01*
G75*
G02*
X7920000Y51960000I70000J0D01*
G01*
X8480000Y51960000D01*
G75*
G02*
X8550000Y51890000I0J-70000D01*
G01*
X8550000Y51110000D01*
G75*
G02*
X8480000Y51040000I-70000J0D01*
G01*
X7920000Y51040000D01*
G75*
G02*
X7850000Y51110000I0J70000D01*
G01*
G37*
G36*
G01*
X9450000Y51110000D02*
X9450000Y51890000D01*
G75*
G02*
X9520000Y51960000I70000J0D01*
G01*
X10080000Y51960000D01*
G75*
G02*
X10150000Y51890000I0J-70000D01*
G01*
X10150000Y51110000D01*
G75*
G02*
X10080000Y51040000I-70000J0D01*
G01*
X9520000Y51040000D01*
G75*
G02*
X9450000Y51110000I0J70000D01*
G01*
G37*
G04 #@! TD*
G04 #@! TO.C,F3*
G36*
G01*
X69200000Y95655010D02*
X69200000Y96345010D01*
G75*
G02*
X69430000Y96575010I230000J0D01*
G01*
X70770000Y96575010D01*
G75*
G02*
X71000000Y96345010I0J-230000D01*
G01*
X71000000Y95655010D01*
G75*
G02*
X70770000Y95425010I-230000J0D01*
G01*
X69430000Y95425010D01*
G75*
G02*
X69200000Y95655010I0J230000D01*
G01*
G37*
G36*
G01*
X69200000Y92754990D02*
X69200000Y93444990D01*
G75*
G02*
X69430000Y93674990I230000J0D01*
G01*
X70770000Y93674990D01*
G75*
G02*
X71000000Y93444990I0J-230000D01*
G01*
X71000000Y92754990D01*
G75*
G02*
X70770000Y92524990I-230000J0D01*
G01*
X69430000Y92524990D01*
G75*
G02*
X69200000Y92754990I0J230000D01*
G01*
G37*
G04 #@! TD*
G04 #@! TO.C,R61*
G36*
G01*
X31325000Y93899999D02*
X30075000Y93899999D01*
G75*
G02*
X29975000Y93999999I0J100000D01*
G01*
X29975000Y94799999D01*
G75*
G02*
X30075000Y94899999I100000J0D01*
G01*
X31325000Y94899999D01*
G75*
G02*
X31425000Y94799999I0J-100000D01*
G01*
X31425000Y93999999D01*
G75*
G02*
X31325000Y93899999I-100000J0D01*
G01*
G37*
G36*
G01*
X31325000Y95800021D02*
X30075000Y95800021D01*
G75*
G02*
X29975000Y95900021I0J100000D01*
G01*
X29975000Y96700021D01*
G75*
G02*
X30075000Y96800021I100000J0D01*
G01*
X31325000Y96800021D01*
G75*
G02*
X31425000Y96700021I0J-100000D01*
G01*
X31425000Y95900021D01*
G75*
G02*
X31325000Y95800021I-100000J0D01*
G01*
G37*
G04 #@! TD*
D10*
G04 #@! TO.C,Q7*
X83655000Y84325000D03*
X86705000Y84325000D03*
X83655000Y87675000D03*
X86705000Y87675000D03*
G36*
G01*
X83380000Y78600000D02*
X82420000Y78600000D01*
G75*
G02*
X82300000Y78720000I0J120000D01*
G01*
X82300000Y80680000D01*
G75*
G02*
X82420000Y80800000I120000J0D01*
G01*
X83380000Y80800000D01*
G75*
G02*
X83500000Y80680000I0J-120000D01*
G01*
X83500000Y78720000D01*
G75*
G02*
X83380000Y78600000I-120000J0D01*
G01*
G37*
G36*
G01*
X87940000Y78600000D02*
X86980000Y78600000D01*
G75*
G02*
X86860000Y78720000I0J120000D01*
G01*
X86860000Y80680000D01*
G75*
G02*
X86980000Y80800000I120000J0D01*
G01*
X87940000Y80800000D01*
G75*
G02*
X88060000Y80680000I0J-120000D01*
G01*
X88060000Y78720000D01*
G75*
G02*
X87940000Y78600000I-120000J0D01*
G01*
G37*
G04 #@! TD*
G04 #@! TO.C,Q6*
X76155000Y84325000D03*
X79205000Y84325000D03*
X76155000Y87675000D03*
X79205000Y87675000D03*
G36*
G01*
X75880000Y78600000D02*
X74920000Y78600000D01*
G75*
G02*
X74800000Y78720000I0J120000D01*
G01*
X74800000Y80680000D01*
G75*
G02*
X74920000Y80800000I120000J0D01*
G01*
X75880000Y80800000D01*
G75*
G02*
X76000000Y80680000I0J-120000D01*
G01*
X76000000Y78720000D01*
G75*
G02*
X75880000Y78600000I-120000J0D01*
G01*
G37*
G36*
G01*
X80440000Y78600000D02*
X79480000Y78600000D01*
G75*
G02*
X79360000Y78720000I0J120000D01*
G01*
X79360000Y80680000D01*
G75*
G02*
X79480000Y80800000I120000J0D01*
G01*
X80440000Y80800000D01*
G75*
G02*
X80560000Y80680000I0J-120000D01*
G01*
X80560000Y78720000D01*
G75*
G02*
X80440000Y78600000I-120000J0D01*
G01*
G37*
G04 #@! TD*
G04 #@! TO.C,D20*
G36*
G01*
X58799998Y48300001D02*
X57899998Y48300001D01*
G75*
G02*
X57799998Y48400001I0J100000D01*
G01*
X57799998Y49200001D01*
G75*
G02*
X57899998Y49300001I100000J0D01*
G01*
X58799998Y49300001D01*
G75*
G02*
X58899998Y49200001I0J-100000D01*
G01*
X58899998Y48400001D01*
G75*
G02*
X58799998Y48300001I-100000J0D01*
G01*
G37*
G36*
G01*
X58799998Y50000001D02*
X57899998Y50000001D01*
G75*
G02*
X57799998Y50100001I0J100000D01*
G01*
X57799998Y50900001D01*
G75*
G02*
X57899998Y51000001I100000J0D01*
G01*
X58799998Y51000001D01*
G75*
G02*
X58899998Y50900001I0J-100000D01*
G01*
X58899998Y50100001D01*
G75*
G02*
X58799998Y50000001I-100000J0D01*
G01*
G37*
G04 #@! TD*
G04 #@! TO.C,D27*
G36*
G01*
X69260000Y85237500D02*
X68240000Y85237500D01*
G75*
G02*
X68150000Y85327500I0J90000D01*
G01*
X68150000Y86047500D01*
G75*
G02*
X68240000Y86137500I90000J0D01*
G01*
X69260000Y86137500D01*
G75*
G02*
X69350000Y86047500I0J-90000D01*
G01*
X69350000Y85327500D01*
G75*
G02*
X69260000Y85237500I-90000J0D01*
G01*
G37*
G36*
G01*
X69260000Y88537500D02*
X68240000Y88537500D01*
G75*
G02*
X68150000Y88627500I0J90000D01*
G01*
X68150000Y89347500D01*
G75*
G02*
X68240000Y89437500I90000J0D01*
G01*
X69260000Y89437500D01*
G75*
G02*
X69350000Y89347500I0J-90000D01*
G01*
X69350000Y88627500D01*
G75*
G02*
X69260000Y88537500I-90000J0D01*
G01*
G37*
G04 #@! TD*
G04 #@! TO.C,Q44*
X32655000Y84125000D03*
X35705000Y84125000D03*
X32655000Y87475000D03*
X35705000Y87475000D03*
G36*
G01*
X32380000Y78400000D02*
X31420000Y78400000D01*
G75*
G02*
X31300000Y78520000I0J120000D01*
G01*
X31300000Y80480000D01*
G75*
G02*
X31420000Y80600000I120000J0D01*
G01*
X32380000Y80600000D01*
G75*
G02*
X32500000Y80480000I0J-120000D01*
G01*
X32500000Y78520000D01*
G75*
G02*
X32380000Y78400000I-120000J0D01*
G01*
G37*
G36*
G01*
X36940000Y78400000D02*
X35980000Y78400000D01*
G75*
G02*
X35860000Y78520000I0J120000D01*
G01*
X35860000Y80480000D01*
G75*
G02*
X35980000Y80600000I120000J0D01*
G01*
X36940000Y80600000D01*
G75*
G02*
X37060000Y80480000I0J-120000D01*
G01*
X37060000Y78520000D01*
G75*
G02*
X36940000Y78400000I-120000J0D01*
G01*
G37*
G04 #@! TD*
G04 #@! TO.C,D35*
G36*
G01*
X49299998Y48300001D02*
X48399998Y48300001D01*
G75*
G02*
X48299998Y48400001I0J100000D01*
G01*
X48299998Y49200001D01*
G75*
G02*
X48399998Y49300001I100000J0D01*
G01*
X49299998Y49300001D01*
G75*
G02*
X49399998Y49200001I0J-100000D01*
G01*
X49399998Y48400001D01*
G75*
G02*
X49299998Y48300001I-100000J0D01*
G01*
G37*
G36*
G01*
X49299998Y50000001D02*
X48399998Y50000001D01*
G75*
G02*
X48299998Y50100001I0J100000D01*
G01*
X48299998Y50900001D01*
G75*
G02*
X48399998Y51000001I100000J0D01*
G01*
X49299998Y51000001D01*
G75*
G02*
X49399998Y50900001I0J-100000D01*
G01*
X49399998Y50100001D01*
G75*
G02*
X49299998Y50000001I-100000J0D01*
G01*
G37*
G04 #@! TD*
G04 #@! TO.C,Q24*
G36*
G01*
X68650000Y80637500D02*
X68950000Y80637500D01*
G75*
G02*
X69100000Y80487500I0J-150000D01*
G01*
X69100000Y79312500D01*
G75*
G02*
X68950000Y79162500I-150000J0D01*
G01*
X68650000Y79162500D01*
G75*
G02*
X68500000Y79312500I0J150000D01*
G01*
X68500000Y80487500D01*
G75*
G02*
X68650000Y80637500I150000J0D01*
G01*
G37*
G36*
G01*
X67700000Y78762500D02*
X68000000Y78762500D01*
G75*
G02*
X68150000Y78612500I0J-150000D01*
G01*
X68150000Y77437500D01*
G75*
G02*
X68000000Y77287500I-150000J0D01*
G01*
X67700000Y77287500D01*
G75*
G02*
X67550000Y77437500I0J150000D01*
G01*
X67550000Y78612500D01*
G75*
G02*
X67700000Y78762500I150000J0D01*
G01*
G37*
G36*
G01*
X66750000Y80637500D02*
X67050000Y80637500D01*
G75*
G02*
X67200000Y80487500I0J-150000D01*
G01*
X67200000Y79312500D01*
G75*
G02*
X67050000Y79162500I-150000J0D01*
G01*
X66750000Y79162500D01*
G75*
G02*
X66600000Y79312500I0J150000D01*
G01*
X66600000Y80487500D01*
G75*
G02*
X66750000Y80637500I150000J0D01*
G01*
G37*
G04 #@! TD*
G04 #@! TO.C,R45*
G36*
G01*
X67925000Y84687501D02*
X69175000Y84687501D01*
G75*
G02*
X69275000Y84587501I0J-100000D01*
G01*
X69275000Y83787501D01*
G75*
G02*
X69175000Y83687501I-100000J0D01*
G01*
X67925000Y83687501D01*
G75*
G02*
X67825000Y83787501I0J100000D01*
G01*
X67825000Y84587501D01*
G75*
G02*
X67925000Y84687501I100000J0D01*
G01*
G37*
G36*
G01*
X67925000Y82787479D02*
X69175000Y82787479D01*
G75*
G02*
X69275000Y82687479I0J-100000D01*
G01*
X69275000Y81887479D01*
G75*
G02*
X69175000Y81787479I-100000J0D01*
G01*
X67925000Y81787479D01*
G75*
G02*
X67825000Y81887479I0J100000D01*
G01*
X67825000Y82687479D01*
G75*
G02*
X67925000Y82787479I100000J0D01*
G01*
G37*
G04 #@! TD*
G04 #@! TO.C,C10*
G36*
G01*
X51632590Y81481624D02*
X50218376Y80067410D01*
G75*
G02*
X49864822Y80067410I-176777J176777D01*
G01*
X47107106Y82825126D01*
G75*
G02*
X47107106Y83178680I176777J176777D01*
G01*
X48521320Y84592894D01*
G75*
G02*
X48874874Y84592894I176777J-176777D01*
G01*
X51632590Y81835178D01*
G75*
G02*
X51632590Y81481624I-176777J-176777D01*
G01*
G37*
G36*
G01*
X45692894Y87421320D02*
X44278680Y86007106D01*
G75*
G02*
X43925126Y86007106I-176777J176777D01*
G01*
X41167410Y88764822D01*
G75*
G02*
X41167410Y89118376I176777J176777D01*
G01*
X42581624Y90532590D01*
G75*
G02*
X42935178Y90532590I176777J-176777D01*
G01*
X45692894Y87774874D01*
G75*
G02*
X45692894Y87421320I-176777J-176777D01*
G01*
G37*
G04 #@! TD*
G04 #@! TO.C,Q52*
G36*
G01*
X24500000Y75312500D02*
X24800000Y75312500D01*
G75*
G02*
X24950000Y75162500I0J-150000D01*
G01*
X24950000Y73987500D01*
G75*
G02*
X24800000Y73837500I-150000J0D01*
G01*
X24500000Y73837500D01*
G75*
G02*
X24350000Y73987500I0J150000D01*
G01*
X24350000Y75162500D01*
G75*
G02*
X24500000Y75312500I150000J0D01*
G01*
G37*
G36*
G01*
X23550000Y73437500D02*
X23850000Y73437500D01*
G75*
G02*
X24000000Y73287500I0J-150000D01*
G01*
X24000000Y72112500D01*
G75*
G02*
X23850000Y71962500I-150000J0D01*
G01*
X23550000Y71962500D01*
G75*
G02*
X23400000Y72112500I0J150000D01*
G01*
X23400000Y73287500D01*
G75*
G02*
X23550000Y73437500I150000J0D01*
G01*
G37*
G36*
G01*
X22600000Y75312500D02*
X22900000Y75312500D01*
G75*
G02*
X23050000Y75162500I0J-150000D01*
G01*
X23050000Y73987500D01*
G75*
G02*
X22900000Y73837500I-150000J0D01*
G01*
X22600000Y73837500D01*
G75*
G02*
X22450000Y73987500I0J150000D01*
G01*
X22450000Y75162500D01*
G75*
G02*
X22600000Y75312500I150000J0D01*
G01*
G37*
G04 #@! TD*
G04 #@! TO.C,R75*
G36*
G01*
X7850000Y45110000D02*
X7850000Y45890000D01*
G75*
G02*
X7920000Y45960000I70000J0D01*
G01*
X8480000Y45960000D01*
G75*
G02*
X8550000Y45890000I0J-70000D01*
G01*
X8550000Y45110000D01*
G75*
G02*
X8480000Y45040000I-70000J0D01*
G01*
X7920000Y45040000D01*
G75*
G02*
X7850000Y45110000I0J70000D01*
G01*
G37*
G36*
G01*
X9450000Y45110000D02*
X9450000Y45890000D01*
G75*
G02*
X9520000Y45960000I70000J0D01*
G01*
X10080000Y45960000D01*
G75*
G02*
X10150000Y45890000I0J-70000D01*
G01*
X10150000Y45110000D01*
G75*
G02*
X10080000Y45040000I-70000J0D01*
G01*
X9520000Y45040000D01*
G75*
G02*
X9450000Y45110000I0J70000D01*
G01*
G37*
G04 #@! TD*
G04 #@! TO.C,R69*
G36*
G01*
X18675000Y94099999D02*
X17425000Y94099999D01*
G75*
G02*
X17325000Y94199999I0J100000D01*
G01*
X17325000Y94999999D01*
G75*
G02*
X17425000Y95099999I100000J0D01*
G01*
X18675000Y95099999D01*
G75*
G02*
X18775000Y94999999I0J-100000D01*
G01*
X18775000Y94199999D01*
G75*
G02*
X18675000Y94099999I-100000J0D01*
G01*
G37*
G36*
G01*
X18675000Y96000021D02*
X17425000Y96000021D01*
G75*
G02*
X17325000Y96100021I0J100000D01*
G01*
X17325000Y96900021D01*
G75*
G02*
X17425000Y97000021I100000J0D01*
G01*
X18675000Y97000021D01*
G75*
G02*
X18775000Y96900021I0J-100000D01*
G01*
X18775000Y96100021D01*
G75*
G02*
X18675000Y96000021I-100000J0D01*
G01*
G37*
G04 #@! TD*
G04 #@! TO.C,R55*
G36*
G01*
X20825000Y94149999D02*
X19575000Y94149999D01*
G75*
G02*
X19475000Y94249999I0J100000D01*
G01*
X19475000Y95049999D01*
G75*
G02*
X19575000Y95149999I100000J0D01*
G01*
X20825000Y95149999D01*
G75*
G02*
X20925000Y95049999I0J-100000D01*
G01*
X20925000Y94249999D01*
G75*
G02*
X20825000Y94149999I-100000J0D01*
G01*
G37*
G36*
G01*
X20825000Y96050021D02*
X19575000Y96050021D01*
G75*
G02*
X19475000Y96150021I0J100000D01*
G01*
X19475000Y96950021D01*
G75*
G02*
X19575000Y97050021I100000J0D01*
G01*
X20825000Y97050021D01*
G75*
G02*
X20925000Y96950021I0J-100000D01*
G01*
X20925000Y96150021D01*
G75*
G02*
X20825000Y96050021I-100000J0D01*
G01*
G37*
G04 #@! TD*
G04 #@! TO.C,F8*
G36*
G01*
X38700000Y95954989D02*
X38700000Y96644989D01*
G75*
G02*
X38930000Y96874989I230000J0D01*
G01*
X40270000Y96874989D01*
G75*
G02*
X40500000Y96644989I0J-230000D01*
G01*
X40500000Y95954989D01*
G75*
G02*
X40270000Y95724989I-230000J0D01*
G01*
X38930000Y95724989D01*
G75*
G02*
X38700000Y95954989I0J230000D01*
G01*
G37*
G36*
G01*
X38700000Y93054969D02*
X38700000Y93744969D01*
G75*
G02*
X38930000Y93974969I230000J0D01*
G01*
X40270000Y93974969D01*
G75*
G02*
X40500000Y93744969I0J-230000D01*
G01*
X40500000Y93054969D01*
G75*
G02*
X40270000Y92824969I-230000J0D01*
G01*
X38930000Y92824969D01*
G75*
G02*
X38700000Y93054969I0J230000D01*
G01*
G37*
G04 #@! TD*
G04 #@! TO.C,R54*
G36*
G01*
X38075000Y94049999D02*
X36825000Y94049999D01*
G75*
G02*
X36725000Y94149999I0J100000D01*
G01*
X36725000Y94949999D01*
G75*
G02*
X36825000Y95049999I100000J0D01*
G01*
X38075000Y95049999D01*
G75*
G02*
X38175000Y94949999I0J-100000D01*
G01*
X38175000Y94149999D01*
G75*
G02*
X38075000Y94049999I-100000J0D01*
G01*
G37*
G36*
G01*
X38075000Y95950021D02*
X36825000Y95950021D01*
G75*
G02*
X36725000Y96050021I0J100000D01*
G01*
X36725000Y96850021D01*
G75*
G02*
X36825000Y96950021I100000J0D01*
G01*
X38075000Y96950021D01*
G75*
G02*
X38175000Y96850021I0J-100000D01*
G01*
X38175000Y96050021D01*
G75*
G02*
X38075000Y95950021I-100000J0D01*
G01*
G37*
G04 #@! TD*
G04 #@! TO.C,R52*
G36*
G01*
X48025000Y94149999D02*
X46775000Y94149999D01*
G75*
G02*
X46675000Y94249999I0J100000D01*
G01*
X46675000Y95049999D01*
G75*
G02*
X46775000Y95149999I100000J0D01*
G01*
X48025000Y95149999D01*
G75*
G02*
X48125000Y95049999I0J-100000D01*
G01*
X48125000Y94249999D01*
G75*
G02*
X48025000Y94149999I-100000J0D01*
G01*
G37*
G36*
G01*
X48025000Y96050021D02*
X46775000Y96050021D01*
G75*
G02*
X46675000Y96150021I0J100000D01*
G01*
X46675000Y96950021D01*
G75*
G02*
X46775000Y97050021I100000J0D01*
G01*
X48025000Y97050021D01*
G75*
G02*
X48125000Y96950021I0J-100000D01*
G01*
X48125000Y96150021D01*
G75*
G02*
X48025000Y96050021I-100000J0D01*
G01*
G37*
G04 #@! TD*
G04 #@! TO.C,R46*
G36*
G01*
X4350000Y51110000D02*
X4350000Y51890000D01*
G75*
G02*
X4420000Y51960000I70000J0D01*
G01*
X4980000Y51960000D01*
G75*
G02*
X5050000Y51890000I0J-70000D01*
G01*
X5050000Y51110000D01*
G75*
G02*
X4980000Y51040000I-70000J0D01*
G01*
X4420000Y51040000D01*
G75*
G02*
X4350000Y51110000I0J70000D01*
G01*
G37*
G36*
G01*
X5950000Y51110000D02*
X5950000Y51890000D01*
G75*
G02*
X6020000Y51960000I70000J0D01*
G01*
X6580000Y51960000D01*
G75*
G02*
X6650000Y51890000I0J-70000D01*
G01*
X6650000Y51110000D01*
G75*
G02*
X6580000Y51040000I-70000J0D01*
G01*
X6020000Y51040000D01*
G75*
G02*
X5950000Y51110000I0J70000D01*
G01*
G37*
G04 #@! TD*
G04 #@! TO.C,Q10*
G36*
G01*
X39100000Y77762500D02*
X38800000Y77762500D01*
G75*
G02*
X38650000Y77912500I0J150000D01*
G01*
X38650000Y79087500D01*
G75*
G02*
X38800000Y79237500I150000J0D01*
G01*
X39100000Y79237500D01*
G75*
G02*
X39250000Y79087500I0J-150000D01*
G01*
X39250000Y77912500D01*
G75*
G02*
X39100000Y77762500I-150000J0D01*
G01*
G37*
G36*
G01*
X40050000Y79637500D02*
X39750000Y79637500D01*
G75*
G02*
X39600000Y79787500I0J150000D01*
G01*
X39600000Y80962500D01*
G75*
G02*
X39750000Y81112500I150000J0D01*
G01*
X40050000Y81112500D01*
G75*
G02*
X40200000Y80962500I0J-150000D01*
G01*
X40200000Y79787500D01*
G75*
G02*
X40050000Y79637500I-150000J0D01*
G01*
G37*
G36*
G01*
X41000000Y77762500D02*
X40700000Y77762500D01*
G75*
G02*
X40550000Y77912500I0J150000D01*
G01*
X40550000Y79087500D01*
G75*
G02*
X40700000Y79237500I150000J0D01*
G01*
X41000000Y79237500D01*
G75*
G02*
X41150000Y79087500I0J-150000D01*
G01*
X41150000Y77912500D01*
G75*
G02*
X41000000Y77762500I-150000J0D01*
G01*
G37*
G04 #@! TD*
G04 #@! TO.C,C19*
G36*
G01*
X24660000Y26215001D02*
X25340000Y26215001D01*
G75*
G02*
X25425000Y26130001I0J-85000D01*
G01*
X25425000Y25450001D01*
G75*
G02*
X25340000Y25365001I-85000J0D01*
G01*
X24660000Y25365001D01*
G75*
G02*
X24575000Y25450001I0J85000D01*
G01*
X24575000Y26130001D01*
G75*
G02*
X24660000Y26215001I85000J0D01*
G01*
G37*
G36*
G01*
X24660000Y24634999D02*
X25340000Y24634999D01*
G75*
G02*
X25425000Y24549999I0J-85000D01*
G01*
X25425000Y23869999D01*
G75*
G02*
X25340000Y23784999I-85000J0D01*
G01*
X24660000Y23784999D01*
G75*
G02*
X24575000Y23869999I0J85000D01*
G01*
X24575000Y24549999D01*
G75*
G02*
X24660000Y24634999I85000J0D01*
G01*
G37*
G04 #@! TD*
G04 #@! TO.C,R15*
G36*
G01*
X84107000Y93644999D02*
X82857000Y93644999D01*
G75*
G02*
X82757000Y93744999I0J100000D01*
G01*
X82757000Y94544999D01*
G75*
G02*
X82857000Y94644999I100000J0D01*
G01*
X84107000Y94644999D01*
G75*
G02*
X84207000Y94544999I0J-100000D01*
G01*
X84207000Y93744999D01*
G75*
G02*
X84107000Y93644999I-100000J0D01*
G01*
G37*
G36*
G01*
X84107000Y95545021D02*
X82857000Y95545021D01*
G75*
G02*
X82757000Y95645021I0J100000D01*
G01*
X82757000Y96445021D01*
G75*
G02*
X82857000Y96545021I100000J0D01*
G01*
X84107000Y96545021D01*
G75*
G02*
X84207000Y96445021I0J-100000D01*
G01*
X84207000Y95645021D01*
G75*
G02*
X84107000Y95545021I-100000J0D01*
G01*
G37*
G04 #@! TD*
G04 #@! TO.C,Q36*
G36*
G01*
X33137500Y73100000D02*
X33137500Y72800000D01*
G75*
G02*
X32987500Y72650000I-150000J0D01*
G01*
X31812500Y72650000D01*
G75*
G02*
X31662500Y72800000I0J150000D01*
G01*
X31662500Y73100000D01*
G75*
G02*
X31812500Y73250000I150000J0D01*
G01*
X32987500Y73250000D01*
G75*
G02*
X33137500Y73100000I0J-150000D01*
G01*
G37*
G36*
G01*
X31262500Y74050000D02*
X31262500Y73750000D01*
G75*
G02*
X31112500Y73600000I-150000J0D01*
G01*
X29937500Y73600000D01*
G75*
G02*
X29787500Y73750000I0J150000D01*
G01*
X29787500Y74050000D01*
G75*
G02*
X29937500Y74200000I150000J0D01*
G01*
X31112500Y74200000D01*
G75*
G02*
X31262500Y74050000I0J-150000D01*
G01*
G37*
G36*
G01*
X33137500Y75000000D02*
X33137500Y74700000D01*
G75*
G02*
X32987500Y74550000I-150000J0D01*
G01*
X31812500Y74550000D01*
G75*
G02*
X31662500Y74700000I0J150000D01*
G01*
X31662500Y75000000D01*
G75*
G02*
X31812500Y75150000I150000J0D01*
G01*
X32987500Y75150000D01*
G75*
G02*
X33137500Y75000000I0J-150000D01*
G01*
G37*
G04 #@! TD*
G04 #@! TO.C,Q53*
G36*
G01*
X24500000Y71312500D02*
X24800000Y71312500D01*
G75*
G02*
X24950000Y71162500I0J-150000D01*
G01*
X24950000Y69987500D01*
G75*
G02*
X24800000Y69837500I-150000J0D01*
G01*
X24500000Y69837500D01*
G75*
G02*
X24350000Y69987500I0J150000D01*
G01*
X24350000Y71162500D01*
G75*
G02*
X24500000Y71312500I150000J0D01*
G01*
G37*
G36*
G01*
X23550000Y69437500D02*
X23850000Y69437500D01*
G75*
G02*
X24000000Y69287500I0J-150000D01*
G01*
X24000000Y68112500D01*
G75*
G02*
X23850000Y67962500I-150000J0D01*
G01*
X23550000Y67962500D01*
G75*
G02*
X23400000Y68112500I0J150000D01*
G01*
X23400000Y69287500D01*
G75*
G02*
X23550000Y69437500I150000J0D01*
G01*
G37*
G36*
G01*
X22600000Y71312500D02*
X22900000Y71312500D01*
G75*
G02*
X23050000Y71162500I0J-150000D01*
G01*
X23050000Y69987500D01*
G75*
G02*
X22900000Y69837500I-150000J0D01*
G01*
X22600000Y69837500D01*
G75*
G02*
X22450000Y69987500I0J150000D01*
G01*
X22450000Y71162500D01*
G75*
G02*
X22600000Y71312500I150000J0D01*
G01*
G37*
G04 #@! TD*
G04 #@! TO.C,Q41*
X91155000Y84325000D03*
X94205000Y84325000D03*
X91155000Y87675000D03*
X94205000Y87675000D03*
G36*
G01*
X90880000Y78600000D02*
X89920000Y78600000D01*
G75*
G02*
X89800000Y78720000I0J120000D01*
G01*
X89800000Y80680000D01*
G75*
G02*
X89920000Y80800000I120000J0D01*
G01*
X90880000Y80800000D01*
G75*
G02*
X91000000Y80680000I0J-120000D01*
G01*
X91000000Y78720000D01*
G75*
G02*
X90880000Y78600000I-120000J0D01*
G01*
G37*
G36*
G01*
X95440000Y78600000D02*
X94480000Y78600000D01*
G75*
G02*
X94360000Y78720000I0J120000D01*
G01*
X94360000Y80680000D01*
G75*
G02*
X94480000Y80800000I120000J0D01*
G01*
X95440000Y80800000D01*
G75*
G02*
X95560000Y80680000I0J-120000D01*
G01*
X95560000Y78720000D01*
G75*
G02*
X95440000Y78600000I-120000J0D01*
G01*
G37*
G04 #@! TD*
G04 #@! TO.C,R53*
G36*
G01*
X50025000Y94149999D02*
X48775000Y94149999D01*
G75*
G02*
X48675000Y94249999I0J100000D01*
G01*
X48675000Y95049999D01*
G75*
G02*
X48775000Y95149999I100000J0D01*
G01*
X50025000Y95149999D01*
G75*
G02*
X50125000Y95049999I0J-100000D01*
G01*
X50125000Y94249999D01*
G75*
G02*
X50025000Y94149999I-100000J0D01*
G01*
G37*
G36*
G01*
X50025000Y96050021D02*
X48775000Y96050021D01*
G75*
G02*
X48675000Y96150021I0J100000D01*
G01*
X48675000Y96950021D01*
G75*
G02*
X48775000Y97050021I100000J0D01*
G01*
X50025000Y97050021D01*
G75*
G02*
X50125000Y96950021I0J-100000D01*
G01*
X50125000Y96150021D01*
G75*
G02*
X50025000Y96050021I-100000J0D01*
G01*
G37*
G04 #@! TD*
G04 #@! TO.C,Q11*
G36*
G01*
X71200000Y77750000D02*
X70900000Y77750000D01*
G75*
G02*
X70750000Y77900000I0J150000D01*
G01*
X70750000Y79075000D01*
G75*
G02*
X70900000Y79225000I150000J0D01*
G01*
X71200000Y79225000D01*
G75*
G02*
X71350000Y79075000I0J-150000D01*
G01*
X71350000Y77900000D01*
G75*
G02*
X71200000Y77750000I-150000J0D01*
G01*
G37*
G36*
G01*
X72150000Y79625000D02*
X71850000Y79625000D01*
G75*
G02*
X71700000Y79775000I0J150000D01*
G01*
X71700000Y80950000D01*
G75*
G02*
X71850000Y81100000I150000J0D01*
G01*
X72150000Y81100000D01*
G75*
G02*
X72300000Y80950000I0J-150000D01*
G01*
X72300000Y79775000D01*
G75*
G02*
X72150000Y79625000I-150000J0D01*
G01*
G37*
G36*
G01*
X73100000Y77750000D02*
X72800000Y77750000D01*
G75*
G02*
X72650000Y77900000I0J150000D01*
G01*
X72650000Y79075000D01*
G75*
G02*
X72800000Y79225000I150000J0D01*
G01*
X73100000Y79225000D01*
G75*
G02*
X73250000Y79075000I0J-150000D01*
G01*
X73250000Y77900000D01*
G75*
G02*
X73100000Y77750000I-150000J0D01*
G01*
G37*
G04 #@! TD*
G04 #@! TO.C,F9*
G36*
G01*
X34450000Y96004989D02*
X34450000Y96694989D01*
G75*
G02*
X34680000Y96924989I230000J0D01*
G01*
X36020000Y96924989D01*
G75*
G02*
X36250000Y96694989I0J-230000D01*
G01*
X36250000Y96004989D01*
G75*
G02*
X36020000Y95774989I-230000J0D01*
G01*
X34680000Y95774989D01*
G75*
G02*
X34450000Y96004989I0J230000D01*
G01*
G37*
G36*
G01*
X34450000Y93104969D02*
X34450000Y93794969D01*
G75*
G02*
X34680000Y94024969I230000J0D01*
G01*
X36020000Y94024969D01*
G75*
G02*
X36250000Y93794969I0J-230000D01*
G01*
X36250000Y93104969D01*
G75*
G02*
X36020000Y92874969I-230000J0D01*
G01*
X34680000Y92874969D01*
G75*
G02*
X34450000Y93104969I0J230000D01*
G01*
G37*
G04 #@! TD*
G04 #@! TO.C,D40*
G36*
G01*
X56899998Y48300001D02*
X55999998Y48300001D01*
G75*
G02*
X55899998Y48400001I0J100000D01*
G01*
X55899998Y49200001D01*
G75*
G02*
X55999998Y49300001I100000J0D01*
G01*
X56899998Y49300001D01*
G75*
G02*
X56999998Y49200001I0J-100000D01*
G01*
X56999998Y48400001D01*
G75*
G02*
X56899998Y48300001I-100000J0D01*
G01*
G37*
G36*
G01*
X56899998Y50000001D02*
X55999998Y50000001D01*
G75*
G02*
X55899998Y50100001I0J100000D01*
G01*
X55899998Y50900001D01*
G75*
G02*
X55999998Y51000001I100000J0D01*
G01*
X56899998Y51000001D01*
G75*
G02*
X56999998Y50900001I0J-100000D01*
G01*
X56999998Y50100001D01*
G75*
G02*
X56899998Y50000001I-100000J0D01*
G01*
G37*
G04 #@! TD*
G04 #@! TO.C,R1*
G36*
G01*
X74700000Y44965000D02*
X74700000Y45635000D01*
G75*
G02*
X74765000Y45700000I65000J0D01*
G01*
X75285000Y45700000D01*
G75*
G02*
X75350000Y45635000I0J-65000D01*
G01*
X75350000Y44965000D01*
G75*
G02*
X75285000Y44900000I-65000J0D01*
G01*
X74765000Y44900000D01*
G75*
G02*
X74700000Y44965000I0J65000D01*
G01*
G37*
G36*
G01*
X75675000Y44945000D02*
X75675000Y45655000D01*
G75*
G02*
X75720000Y45700000I45000J0D01*
G01*
X76080000Y45700000D01*
G75*
G02*
X76125000Y45655000I0J-45000D01*
G01*
X76125000Y44945000D01*
G75*
G02*
X76080000Y44900000I-45000J0D01*
G01*
X75720000Y44900000D01*
G75*
G02*
X75675000Y44945000I0J45000D01*
G01*
G37*
G36*
G01*
X76475000Y44945000D02*
X76475000Y45655000D01*
G75*
G02*
X76520000Y45700000I45000J0D01*
G01*
X76880000Y45700000D01*
G75*
G02*
X76925000Y45655000I0J-45000D01*
G01*
X76925000Y44945000D01*
G75*
G02*
X76880000Y44900000I-45000J0D01*
G01*
X76520000Y44900000D01*
G75*
G02*
X76475000Y44945000I0J45000D01*
G01*
G37*
G36*
G01*
X77250000Y44965000D02*
X77250000Y45635000D01*
G75*
G02*
X77315000Y45700000I65000J0D01*
G01*
X77835000Y45700000D01*
G75*
G02*
X77900000Y45635000I0J-65000D01*
G01*
X77900000Y44965000D01*
G75*
G02*
X77835000Y44900000I-65000J0D01*
G01*
X77315000Y44900000D01*
G75*
G02*
X77250000Y44965000I0J65000D01*
G01*
G37*
G36*
G01*
X77250000Y46765000D02*
X77250000Y47435000D01*
G75*
G02*
X77315000Y47500000I65000J0D01*
G01*
X77835000Y47500000D01*
G75*
G02*
X77900000Y47435000I0J-65000D01*
G01*
X77900000Y46765000D01*
G75*
G02*
X77835000Y46700000I-65000J0D01*
G01*
X77315000Y46700000D01*
G75*
G02*
X77250000Y46765000I0J65000D01*
G01*
G37*
G36*
G01*
X76475000Y46745000D02*
X76475000Y47455000D01*
G75*
G02*
X76520000Y47500000I45000J0D01*
G01*
X76880000Y47500000D01*
G75*
G02*
X76925000Y47455000I0J-45000D01*
G01*
X76925000Y46745000D01*
G75*
G02*
X76880000Y46700000I-45000J0D01*
G01*
X76520000Y46700000D01*
G75*
G02*
X76475000Y46745000I0J45000D01*
G01*
G37*
G36*
G01*
X75675000Y46745000D02*
X75675000Y47455000D01*
G75*
G02*
X75720000Y47500000I45000J0D01*
G01*
X76080000Y47500000D01*
G75*
G02*
X76125000Y47455000I0J-45000D01*
G01*
X76125000Y46745000D01*
G75*
G02*
X76080000Y46700000I-45000J0D01*
G01*
X75720000Y46700000D01*
G75*
G02*
X75675000Y46745000I0J45000D01*
G01*
G37*
G36*
G01*
X74700000Y46765000D02*
X74700000Y47435000D01*
G75*
G02*
X74765000Y47500000I65000J0D01*
G01*
X75285000Y47500000D01*
G75*
G02*
X75350000Y47435000I0J-65000D01*
G01*
X75350000Y46765000D01*
G75*
G02*
X75285000Y46700000I-65000J0D01*
G01*
X74765000Y46700000D01*
G75*
G02*
X74700000Y46765000I0J65000D01*
G01*
G37*
G04 #@! TD*
G04 #@! TO.C,D25*
G36*
G01*
X71050000Y87325000D02*
X70750000Y87325000D01*
G75*
G02*
X70600000Y87475000I0J150000D01*
G01*
X70600000Y88650000D01*
G75*
G02*
X70750000Y88800000I150000J0D01*
G01*
X71050000Y88800000D01*
G75*
G02*
X71200000Y88650000I0J-150000D01*
G01*
X71200000Y87475000D01*
G75*
G02*
X71050000Y87325000I-150000J0D01*
G01*
G37*
G36*
G01*
X72000000Y89200000D02*
X71700000Y89200000D01*
G75*
G02*
X71550000Y89350000I0J150000D01*
G01*
X71550000Y90525000D01*
G75*
G02*
X71700000Y90675000I150000J0D01*
G01*
X72000000Y90675000D01*
G75*
G02*
X72150000Y90525000I0J-150000D01*
G01*
X72150000Y89350000D01*
G75*
G02*
X72000000Y89200000I-150000J0D01*
G01*
G37*
G36*
G01*
X72950000Y87325000D02*
X72650000Y87325000D01*
G75*
G02*
X72500000Y87475000I0J150000D01*
G01*
X72500000Y88650000D01*
G75*
G02*
X72650000Y88800000I150000J0D01*
G01*
X72950000Y88800000D01*
G75*
G02*
X73100000Y88650000I0J-150000D01*
G01*
X73100000Y87475000D01*
G75*
G02*
X72950000Y87325000I-150000J0D01*
G01*
G37*
G04 #@! TD*
G04 #@! TO.C,Q43*
X2655000Y84125000D03*
X5705000Y84125000D03*
X2655000Y87475000D03*
X5705000Y87475000D03*
G36*
G01*
X2380000Y78400000D02*
X1420000Y78400000D01*
G75*
G02*
X1300000Y78520000I0J120000D01*
G01*
X1300000Y80480000D01*
G75*
G02*
X1420000Y80600000I120000J0D01*
G01*
X2380000Y80600000D01*
G75*
G02*
X2500000Y80480000I0J-120000D01*
G01*
X2500000Y78520000D01*
G75*
G02*
X2380000Y78400000I-120000J0D01*
G01*
G37*
G36*
G01*
X6940000Y78400000D02*
X5980000Y78400000D01*
G75*
G02*
X5860000Y78520000I0J120000D01*
G01*
X5860000Y80480000D01*
G75*
G02*
X5980000Y80600000I120000J0D01*
G01*
X6940000Y80600000D01*
G75*
G02*
X7060000Y80480000I0J-120000D01*
G01*
X7060000Y78520000D01*
G75*
G02*
X6940000Y78400000I-120000J0D01*
G01*
G37*
G04 #@! TD*
G04 #@! TO.C,Q23*
G36*
G01*
X8800000Y71925000D02*
X8500000Y71925000D01*
G75*
G02*
X8350000Y72075000I0J150000D01*
G01*
X8350000Y73250000D01*
G75*
G02*
X8500000Y73400000I150000J0D01*
G01*
X8800000Y73400000D01*
G75*
G02*
X8950000Y73250000I0J-150000D01*
G01*
X8950000Y72075000D01*
G75*
G02*
X8800000Y71925000I-150000J0D01*
G01*
G37*
G36*
G01*
X9750000Y73800000D02*
X9450000Y73800000D01*
G75*
G02*
X9300000Y73950000I0J150000D01*
G01*
X9300000Y75125000D01*
G75*
G02*
X9450000Y75275000I150000J0D01*
G01*
X9750000Y75275000D01*
G75*
G02*
X9900000Y75125000I0J-150000D01*
G01*
X9900000Y73950000D01*
G75*
G02*
X9750000Y73800000I-150000J0D01*
G01*
G37*
G36*
G01*
X10700000Y71925000D02*
X10400000Y71925000D01*
G75*
G02*
X10250000Y72075000I0J150000D01*
G01*
X10250000Y73250000D01*
G75*
G02*
X10400000Y73400000I150000J0D01*
G01*
X10700000Y73400000D01*
G75*
G02*
X10850000Y73250000I0J-150000D01*
G01*
X10850000Y72075000D01*
G75*
G02*
X10700000Y71925000I-150000J0D01*
G01*
G37*
G04 #@! TD*
G04 #@! TO.C,Q22*
G36*
G01*
X19300000Y71925000D02*
X19000000Y71925000D01*
G75*
G02*
X18850000Y72075000I0J150000D01*
G01*
X18850000Y73250000D01*
G75*
G02*
X19000000Y73400000I150000J0D01*
G01*
X19300000Y73400000D01*
G75*
G02*
X19450000Y73250000I0J-150000D01*
G01*
X19450000Y72075000D01*
G75*
G02*
X19300000Y71925000I-150000J0D01*
G01*
G37*
G36*
G01*
X20250000Y73800000D02*
X19950000Y73800000D01*
G75*
G02*
X19800000Y73950000I0J150000D01*
G01*
X19800000Y75125000D01*
G75*
G02*
X19950000Y75275000I150000J0D01*
G01*
X20250000Y75275000D01*
G75*
G02*
X20400000Y75125000I0J-150000D01*
G01*
X20400000Y73950000D01*
G75*
G02*
X20250000Y73800000I-150000J0D01*
G01*
G37*
G36*
G01*
X21200000Y71925000D02*
X20900000Y71925000D01*
G75*
G02*
X20750000Y72075000I0J150000D01*
G01*
X20750000Y73250000D01*
G75*
G02*
X20900000Y73400000I150000J0D01*
G01*
X21200000Y73400000D01*
G75*
G02*
X21350000Y73250000I0J-150000D01*
G01*
X21350000Y72075000D01*
G75*
G02*
X21200000Y71925000I-150000J0D01*
G01*
G37*
G04 #@! TD*
G04 #@! TO.C,F6*
G36*
G01*
X55400000Y95555010D02*
X55400000Y96245010D01*
G75*
G02*
X55630000Y96475010I230000J0D01*
G01*
X56970000Y96475010D01*
G75*
G02*
X57200000Y96245010I0J-230000D01*
G01*
X57200000Y95555010D01*
G75*
G02*
X56970000Y95325010I-230000J0D01*
G01*
X55630000Y95325010D01*
G75*
G02*
X55400000Y95555010I0J230000D01*
G01*
G37*
G36*
G01*
X55400000Y92654990D02*
X55400000Y93344990D01*
G75*
G02*
X55630000Y93574990I230000J0D01*
G01*
X56970000Y93574990D01*
G75*
G02*
X57200000Y93344990I0J-230000D01*
G01*
X57200000Y92654990D01*
G75*
G02*
X56970000Y92424990I-230000J0D01*
G01*
X55630000Y92424990D01*
G75*
G02*
X55400000Y92654990I0J230000D01*
G01*
G37*
G04 #@! TD*
G04 #@! TO.C,C2*
G36*
G01*
X41060000Y52415001D02*
X41740000Y52415001D01*
G75*
G02*
X41825000Y52330001I0J-85000D01*
G01*
X41825000Y51650001D01*
G75*
G02*
X41740000Y51565001I-85000J0D01*
G01*
X41060000Y51565001D01*
G75*
G02*
X40975000Y51650001I0J85000D01*
G01*
X40975000Y52330001D01*
G75*
G02*
X41060000Y52415001I85000J0D01*
G01*
G37*
G36*
G01*
X41060000Y50834999D02*
X41740000Y50834999D01*
G75*
G02*
X41825000Y50749999I0J-85000D01*
G01*
X41825000Y50069999D01*
G75*
G02*
X41740000Y49984999I-85000J0D01*
G01*
X41060000Y49984999D01*
G75*
G02*
X40975000Y50069999I0J85000D01*
G01*
X40975000Y50749999D01*
G75*
G02*
X41060000Y50834999I85000J0D01*
G01*
G37*
G04 #@! TD*
G04 #@! TO.C,R12*
G36*
G01*
X50475000Y104499999D02*
X49225000Y104499999D01*
G75*
G02*
X49125000Y104599999I0J100000D01*
G01*
X49125000Y105399999D01*
G75*
G02*
X49225000Y105499999I100000J0D01*
G01*
X50475000Y105499999D01*
G75*
G02*
X50575000Y105399999I0J-100000D01*
G01*
X50575000Y104599999D01*
G75*
G02*
X50475000Y104499999I-100000J0D01*
G01*
G37*
G36*
G01*
X50475000Y106400021D02*
X49225000Y106400021D01*
G75*
G02*
X49125000Y106500021I0J100000D01*
G01*
X49125000Y107300021D01*
G75*
G02*
X49225000Y107400021I100000J0D01*
G01*
X50475000Y107400021D01*
G75*
G02*
X50575000Y107300021I0J-100000D01*
G01*
X50575000Y106500021D01*
G75*
G02*
X50475000Y106400021I-100000J0D01*
G01*
G37*
G04 #@! TD*
G04 #@! TO.C,R18*
G36*
G01*
X62475000Y93149999D02*
X61225000Y93149999D01*
G75*
G02*
X61125000Y93249999I0J100000D01*
G01*
X61125000Y94049999D01*
G75*
G02*
X61225000Y94149999I100000J0D01*
G01*
X62475000Y94149999D01*
G75*
G02*
X62575000Y94049999I0J-100000D01*
G01*
X62575000Y93249999D01*
G75*
G02*
X62475000Y93149999I-100000J0D01*
G01*
G37*
G36*
G01*
X62475000Y95050021D02*
X61225000Y95050021D01*
G75*
G02*
X61125000Y95150021I0J100000D01*
G01*
X61125000Y95950021D01*
G75*
G02*
X61225000Y96050021I100000J0D01*
G01*
X62475000Y96050021D01*
G75*
G02*
X62575000Y95950021I0J-100000D01*
G01*
X62575000Y95150021D01*
G75*
G02*
X62475000Y95050021I-100000J0D01*
G01*
G37*
G04 #@! TD*
G04 #@! TO.C,D13*
G36*
G01*
X81499998Y48300001D02*
X80599998Y48300001D01*
G75*
G02*
X80499998Y48400001I0J100000D01*
G01*
X80499998Y49200001D01*
G75*
G02*
X80599998Y49300001I100000J0D01*
G01*
X81499998Y49300001D01*
G75*
G02*
X81599998Y49200001I0J-100000D01*
G01*
X81599998Y48400001D01*
G75*
G02*
X81499998Y48300001I-100000J0D01*
G01*
G37*
G36*
G01*
X81499998Y50000001D02*
X80599998Y50000001D01*
G75*
G02*
X80499998Y50100001I0J100000D01*
G01*
X80499998Y50900001D01*
G75*
G02*
X80599998Y51000001I100000J0D01*
G01*
X81499998Y51000001D01*
G75*
G02*
X81599998Y50900001I0J-100000D01*
G01*
X81599998Y50100001D01*
G75*
G02*
X81499998Y50000001I-100000J0D01*
G01*
G37*
G04 #@! TD*
G04 #@! TO.C,Q9*
G36*
G01*
X12300000Y71925000D02*
X12000000Y71925000D01*
G75*
G02*
X11850000Y72075000I0J150000D01*
G01*
X11850000Y73250000D01*
G75*
G02*
X12000000Y73400000I150000J0D01*
G01*
X12300000Y73400000D01*
G75*
G02*
X12450000Y73250000I0J-150000D01*
G01*
X12450000Y72075000D01*
G75*
G02*
X12300000Y71925000I-150000J0D01*
G01*
G37*
G36*
G01*
X13250000Y73800000D02*
X12950000Y73800000D01*
G75*
G02*
X12800000Y73950000I0J150000D01*
G01*
X12800000Y75125000D01*
G75*
G02*
X12950000Y75275000I150000J0D01*
G01*
X13250000Y75275000D01*
G75*
G02*
X13400000Y75125000I0J-150000D01*
G01*
X13400000Y73950000D01*
G75*
G02*
X13250000Y73800000I-150000J0D01*
G01*
G37*
G36*
G01*
X14200000Y71925000D02*
X13900000Y71925000D01*
G75*
G02*
X13750000Y72075000I0J150000D01*
G01*
X13750000Y73250000D01*
G75*
G02*
X13900000Y73400000I150000J0D01*
G01*
X14200000Y73400000D01*
G75*
G02*
X14350000Y73250000I0J-150000D01*
G01*
X14350000Y72075000D01*
G75*
G02*
X14200000Y71925000I-150000J0D01*
G01*
G37*
G04 #@! TD*
D25*
G04 #@! TO.C,J2*
X41940000Y6250000D03*
X41940000Y2350000D03*
X40670000Y6250000D03*
X40670000Y2350000D03*
X39400000Y6250000D03*
X39400000Y2350000D03*
X38130000Y6250000D03*
X38130000Y2350000D03*
X36860000Y6250000D03*
X36860000Y2350000D03*
G04 #@! TD*
G04 #@! TO.C,F5*
G36*
G01*
X57750000Y95600010D02*
X57750000Y96290010D01*
G75*
G02*
X57980000Y96520010I230000J0D01*
G01*
X59320000Y96520010D01*
G75*
G02*
X59550000Y96290010I0J-230000D01*
G01*
X59550000Y95600010D01*
G75*
G02*
X59320000Y95370010I-230000J0D01*
G01*
X57980000Y95370010D01*
G75*
G02*
X57750000Y95600010I0J230000D01*
G01*
G37*
G36*
G01*
X57750000Y92699990D02*
X57750000Y93389990D01*
G75*
G02*
X57980000Y93619990I230000J0D01*
G01*
X59320000Y93619990D01*
G75*
G02*
X59550000Y93389990I0J-230000D01*
G01*
X59550000Y92699990D01*
G75*
G02*
X59320000Y92469990I-230000J0D01*
G01*
X57980000Y92469990D01*
G75*
G02*
X57750000Y92699990I0J230000D01*
G01*
G37*
G04 #@! TD*
G04 #@! TO.C,R51*
G36*
G01*
X67200000Y44965000D02*
X67200000Y45635000D01*
G75*
G02*
X67265000Y45700000I65000J0D01*
G01*
X67785000Y45700000D01*
G75*
G02*
X67850000Y45635000I0J-65000D01*
G01*
X67850000Y44965000D01*
G75*
G02*
X67785000Y44900000I-65000J0D01*
G01*
X67265000Y44900000D01*
G75*
G02*
X67200000Y44965000I0J65000D01*
G01*
G37*
G36*
G01*
X68175000Y44945000D02*
X68175000Y45655000D01*
G75*
G02*
X68220000Y45700000I45000J0D01*
G01*
X68580000Y45700000D01*
G75*
G02*
X68625000Y45655000I0J-45000D01*
G01*
X68625000Y44945000D01*
G75*
G02*
X68580000Y44900000I-45000J0D01*
G01*
X68220000Y44900000D01*
G75*
G02*
X68175000Y44945000I0J45000D01*
G01*
G37*
G36*
G01*
X68975000Y44945000D02*
X68975000Y45655000D01*
G75*
G02*
X69020000Y45700000I45000J0D01*
G01*
X69380000Y45700000D01*
G75*
G02*
X69425000Y45655000I0J-45000D01*
G01*
X69425000Y44945000D01*
G75*
G02*
X69380000Y44900000I-45000J0D01*
G01*
X69020000Y44900000D01*
G75*
G02*
X68975000Y44945000I0J45000D01*
G01*
G37*
G36*
G01*
X69750000Y44965000D02*
X69750000Y45635000D01*
G75*
G02*
X69815000Y45700000I65000J0D01*
G01*
X70335000Y45700000D01*
G75*
G02*
X70400000Y45635000I0J-65000D01*
G01*
X70400000Y44965000D01*
G75*
G02*
X70335000Y44900000I-65000J0D01*
G01*
X69815000Y44900000D01*
G75*
G02*
X69750000Y44965000I0J65000D01*
G01*
G37*
G36*
G01*
X69750000Y46765000D02*
X69750000Y47435000D01*
G75*
G02*
X69815000Y47500000I65000J0D01*
G01*
X70335000Y47500000D01*
G75*
G02*
X70400000Y47435000I0J-65000D01*
G01*
X70400000Y46765000D01*
G75*
G02*
X70335000Y46700000I-65000J0D01*
G01*
X69815000Y46700000D01*
G75*
G02*
X69750000Y46765000I0J65000D01*
G01*
G37*
G36*
G01*
X68975000Y46745000D02*
X68975000Y47455000D01*
G75*
G02*
X69020000Y47500000I45000J0D01*
G01*
X69380000Y47500000D01*
G75*
G02*
X69425000Y47455000I0J-45000D01*
G01*
X69425000Y46745000D01*
G75*
G02*
X69380000Y46700000I-45000J0D01*
G01*
X69020000Y46700000D01*
G75*
G02*
X68975000Y46745000I0J45000D01*
G01*
G37*
G36*
G01*
X68175000Y46745000D02*
X68175000Y47455000D01*
G75*
G02*
X68220000Y47500000I45000J0D01*
G01*
X68580000Y47500000D01*
G75*
G02*
X68625000Y47455000I0J-45000D01*
G01*
X68625000Y46745000D01*
G75*
G02*
X68580000Y46700000I-45000J0D01*
G01*
X68220000Y46700000D01*
G75*
G02*
X68175000Y46745000I0J45000D01*
G01*
G37*
G36*
G01*
X67200000Y46765000D02*
X67200000Y47435000D01*
G75*
G02*
X67265000Y47500000I65000J0D01*
G01*
X67785000Y47500000D01*
G75*
G02*
X67850000Y47435000I0J-65000D01*
G01*
X67850000Y46765000D01*
G75*
G02*
X67785000Y46700000I-65000J0D01*
G01*
X67265000Y46700000D01*
G75*
G02*
X67200000Y46765000I0J65000D01*
G01*
G37*
G04 #@! TD*
G04 #@! TO.C,F11*
G36*
G01*
X21740000Y42894990D02*
X21740000Y42204990D01*
G75*
G02*
X21510000Y41974990I-230000J0D01*
G01*
X20170000Y41974990D01*
G75*
G02*
X19940000Y42204990I0J230000D01*
G01*
X19940000Y42894990D01*
G75*
G02*
X20170000Y43124990I230000J0D01*
G01*
X21510000Y43124990D01*
G75*
G02*
X21740000Y42894990I0J-230000D01*
G01*
G37*
G36*
G01*
X21740000Y45795010D02*
X21740000Y45105010D01*
G75*
G02*
X21510000Y44875010I-230000J0D01*
G01*
X20170000Y44875010D01*
G75*
G02*
X19940000Y45105010I0J230000D01*
G01*
X19940000Y45795010D01*
G75*
G02*
X20170000Y46025010I230000J0D01*
G01*
X21510000Y46025010D01*
G75*
G02*
X21740000Y45795010I0J-230000D01*
G01*
G37*
G04 #@! TD*
G04 #@! TO.C,F2*
G36*
G01*
X77900000Y95700010D02*
X77900000Y96390010D01*
G75*
G02*
X78130000Y96620010I230000J0D01*
G01*
X79470000Y96620010D01*
G75*
G02*
X79700000Y96390010I0J-230000D01*
G01*
X79700000Y95700010D01*
G75*
G02*
X79470000Y95470010I-230000J0D01*
G01*
X78130000Y95470010D01*
G75*
G02*
X77900000Y95700010I0J230000D01*
G01*
G37*
G36*
G01*
X77900000Y92799990D02*
X77900000Y93489990D01*
G75*
G02*
X78130000Y93719990I230000J0D01*
G01*
X79470000Y93719990D01*
G75*
G02*
X79700000Y93489990I0J-230000D01*
G01*
X79700000Y92799990D01*
G75*
G02*
X79470000Y92569990I-230000J0D01*
G01*
X78130000Y92569990D01*
G75*
G02*
X77900000Y92799990I0J230000D01*
G01*
G37*
G04 #@! TD*
M02*
