M48
; DRILL file {KiCad 7.0.1-115-g2ece2719d0} date Mon Apr  3 01:52:53 2023
; FORMAT={2:4/ absolute / inch / suppress leading zeros}
; #@! TF.CreationDate,2023-04-03T01:52:53+03:00
; #@! TF.GenerationSoftware,Kicad,Pcbnew,7.0.1-115-g2ece2719d0
; #@! TF.FileFunction,MixedPlating,1,4
FMAT,2
INCH,TZ
; #@! TA.AperFunction,Plated,PTH,ComponentDrill
T1C0.0118
; #@! TA.AperFunction,Plated,PTH,ViaDrill
T2C0.0118
; #@! TA.AperFunction,Plated,PTH,ComponentDrill
T3C0.0118
; #@! TA.AperFunction,Plated,PTH,ComponentDrill
T4C0.0236
; #@! TA.AperFunction,Plated,PTH,ComponentDrill
T5C0.0320
; #@! TA.AperFunction,Plated,PTH,ComponentDrill
T6C0.0335
; #@! TA.AperFunction,Plated,PTH,ViaDrill
T7C0.0394
; #@! TA.AperFunction,Plated,PTH,ComponentDrill
T8C0.0394
; #@! TA.AperFunction,Plated,PTH,ComponentDrill
T9C0.0591
; #@! TA.AperFunction,Plated,PTH,ComponentDrill
T10C0.0984
; #@! TA.AperFunction,Plated,PTH,ComponentDrill
T11C0.1378
; #@! TA.AperFunction,NonPlated,NPTH,ComponentDrill
T12C0.0256
; #@! TA.AperFunction,NonPlated,NPTH,ComponentDrill
T13C0.0394
%
G90
G05
T1
X10461Y9611
X10461Y8843
X10461Y7820
X10976Y9355
X11154Y8715
X11183Y7652
X11183Y8381
X11189Y6904
X11268Y8036
X12793Y6786
X13957Y9596
X13957Y8829
X13957Y7805
X14472Y9341
X14650Y8701
X14679Y7638
X14679Y8366
X14685Y6890
X14764Y8022
X16289Y6772
T2
X197Y34528
X197Y11772
X276Y30276
X354Y40669
X488Y11536
X512Y11102
X531Y44587
X591Y12559
X827Y38189
X827Y28386
X976Y35735
X984Y18701
X984Y18346
X1102Y29606
X1142Y32205
X1142Y29291
X1181Y11339
X1220Y31220
X1299Y23133
X1378Y30472
X1488Y27961
X1496Y5118
X1614Y22758
X1614Y22443
X1614Y6299
X1654Y12520
X1810Y11554
X1811Y35315
X1850Y16378
X1850Y5472
X1949Y42264
X1957Y12884
X1969Y12441
X1969Y31929
X2008Y26855
X2008Y31142
X2008Y7677
X2087Y30669
X2165Y19724
X2205Y6772
X2207Y28235
X2210Y26607
X2283Y31929
X2322Y27085
X2441Y12362
X2441Y12047
X2551Y28444
X2562Y27290
X2568Y12844
X2598Y30669
X2677Y5866
X2776Y19508
X2795Y20000
X2799Y27496
X2807Y10269
X2850Y19094
X2874Y17913
X2874Y16732
X2908Y21443
X2910Y31901
X2953Y7520
X2977Y20605
X3031Y21732
X3113Y27520
X3150Y6772
X3189Y28425
X3189Y32047
X3189Y22506
X3307Y13110
X3404Y12642
X3425Y22244
X3425Y15787
X3426Y21204
X3465Y12165
X3491Y29264
X3534Y20009
X3552Y26434
X3613Y26024
X3659Y20655
X3701Y30433
X3780Y28740
X3858Y18228
X4016Y29873
X4213Y19291
X4291Y30551
X4409Y16181
X4449Y25118
X4487Y21497
X4527Y20868
X4801Y28152
X4843Y30394
X4882Y31024
X4882Y19055
X4891Y29882
X4982Y20864
X5276Y30630
X5276Y28543
X5355Y29321
X5394Y11969
X5465Y18324
X5512Y32323
X5817Y19134
X5945Y34724
X6043Y44547
X6110Y12207
X6120Y34446
X6124Y28207
X6142Y29945
X6142Y18898
X6247Y29264
X6278Y32374
X6546Y30247
X6766Y30662
X6818Y27592
X6968Y29841
X6969Y28110
X7165Y30394
X7166Y27606
X7244Y14291
X7424Y30573
X7532Y28167
X7606Y31064
X7717Y27559
X7795Y32166
X7834Y29980
X7835Y11890
X7992Y27126
X8124Y30211
X8228Y29291
X8228Y28110
X8306Y29905
X8346Y30434
X8386Y32165
X8386Y14016
X8407Y27091
X8677Y26929
X8740Y11850
X8781Y30209
X8839Y42264
X8839Y40551
X8890Y34409
X8897Y30912
X8937Y14646
X8976Y28228
X9000Y34704
X9016Y13031
X9212Y35069
X9331Y29055
X9370Y29528
X9466Y13668
X9483Y5468
X9488Y3661
X9488Y3071
X9528Y30897
X9567Y14252
X9646Y16260
X9702Y28165
X9724Y5669
X10000Y30394
X10000Y9173
X10007Y32267
X10010Y19842
X10023Y28195
X10039Y10984
X10118Y28740
X10118Y26457
X10118Y10157
X10157Y13740
X10236Y15748
X10269Y15039
X10310Y14033
X10315Y20079
X10335Y19280
X10363Y14559
X10394Y18494
X10411Y11959
X10512Y27201
X10669Y20551
X10709Y35354
X10748Y21338
X10748Y20039
X10801Y12093
X10844Y28543
X10984Y20354
X11024Y22480
X11079Y26051
X11102Y23071
X11125Y44567
X11161Y29823
X11260Y26851
X11299Y28031
X11299Y2323
X11339Y25118
X11339Y24252
X11339Y827
X11350Y16496
X11368Y26260
X11378Y28583
X11417Y5787
X11418Y27481
X11575Y14803
X11575Y14094
X11850Y35787
X11922Y27539
X11936Y5788
X11969Y12008
X12087Y34134
X12087Y32835
X12119Y31025
X12120Y20380
X12165Y35076
X12166Y20013
X12244Y12165
X12283Y20669
X12362Y27598
X12382Y2324
X12441Y12442
X12441Y827
X12480Y27914
X12480Y22242
X12520Y20157
X12520Y18150
X12545Y20495
X12677Y16614
X12677Y16024
X12795Y12442
X12875Y20157
X12953Y31220
X12953Y28386
X12962Y32205
X13071Y42264
X13071Y4409
X13110Y29449
X13165Y28774
X13228Y20119
X13259Y18336
X13307Y13150
X13366Y40650
X13581Y17991
X13583Y8150
X13618Y13100
X13622Y10551
X13627Y11736
X13640Y10236
X13640Y8740
X13640Y7205
X13642Y7581
X13689Y26977
X13835Y11973
X13858Y31299
X13898Y32165
X13927Y13155
X13937Y30394
X14016Y29094
X14076Y4948
X14146Y12016
X14156Y13371
X14169Y906
X14291Y30395
X14291Y28346
X14400Y16880
X14409Y1732
X14449Y20748
X14455Y13227
X14469Y39272
X14620Y20368
X14630Y27292
X14685Y35354
X14685Y16102
X14774Y30443
X14801Y32207
X14803Y39272
X14815Y13324
X14921Y14567
X14921Y4173
X14946Y27535
X14961Y35591
X15000Y30197
X15000Y16693
X15149Y13212
X15264Y30699
X15276Y35630
X15456Y13142
X15512Y32008
X15551Y26791
X15669Y17126
X15669Y3189
X15738Y42082
X15748Y30669
X15771Y13150
X15852Y20368
X15866Y37244
X15866Y34780
X15925Y34335
X15945Y33205
X15963Y33992
X15963Y33598
X15984Y26260
X15984Y3346
X16024Y38583
X16031Y44095
X16179Y12441
X16260Y22165
X16339Y35669
X16357Y28738
X16417Y5551
X16428Y30236
X16442Y29415
X16457Y31142
X16457Y30827
X16457Y14528
X16535Y16890
X16644Y3258
X16654Y12283
X16687Y27939
X16693Y20067
X16772Y13937
X16850Y28386
X16850Y26772
X16851Y27543
X16890Y2436
X16947Y33992
X16947Y33598
X16947Y33205
X16969Y3268
X17008Y22131
X17047Y29921
X17087Y35827
X17156Y20584
X17205Y2126
X17205Y29094
X17275Y16614
X17283Y17087
X17284Y13583
X17323Y15591
X17323Y14291
X17441Y31654
X17441Y30039
X17463Y27107
X17644Y21943
X17708Y20065
X17795Y35276
X17835Y29055
X17874Y31969
X17874Y31181
X17874Y29921
X17897Y27364
X17913Y41181
X18071Y33150
X18097Y21060
X18189Y34843
X18189Y32166
X18189Y27480
X18195Y22162
X18307Y43307
X18543Y31969
X18543Y31181
X18602Y18070
X18780Y33898
X18898Y35551
X18922Y31954
X19083Y18158
X19186Y22476
X19213Y31181
X19252Y20199
X19409Y18150
X19528Y29803
X19567Y22323
X19664Y34004
X19703Y33598
X19703Y33205
X19724Y35157
X19803Y22087
X19882Y43228
X19882Y31181
X20000Y20514
X20157Y30354
X20157Y22165
X20236Y31417
X20315Y20514
X20335Y44724
X20394Y43740
X20423Y29922
X20472Y40866
X20687Y33205
X20709Y39823
X20736Y18976
X20748Y33598
X20748Y22244
X20750Y32108
X20770Y33992
X20799Y20669
X20945Y35748
X20945Y29921
X21063Y31850
X21063Y20000
X21102Y34094
X21142Y33189
X21201Y31023
X21220Y31378
X21273Y32338
X21320Y34310
X21417Y29960
X21476Y18937
X21575Y20140
X21776Y22087
X21813Y30479
X21850Y39843
X21929Y22717
X22047Y35315
X22087Y32283
X22106Y38944
X22126Y40669
X22224Y18898
X22244Y20236
X22255Y22152
X22402Y35709
X22559Y43307
X22579Y41398
X22751Y22166
X22835Y17835
X22874Y30079
X22913Y39724
X22919Y38944
X22972Y18898
X22992Y31575
X22992Y30906
X22992Y20236
X23189Y30079
X23306Y32322
X23504Y18583
X23583Y42323
X23614Y22127
X23701Y35296
X23720Y18898
X23740Y37638
X23760Y30416
X23817Y20396
X23976Y18268
X24086Y30433
X24173Y35354
X24409Y33898
X24449Y32520
X24449Y31890
X24457Y18167
X24469Y18898
X24488Y29606
X24510Y20132
X24565Y31530
X24593Y21023
X24645Y33385
X24646Y36063
X24764Y34961
X24888Y33921
X24950Y18259
X24958Y30759
X25000Y1417
X25079Y40335
X25175Y21023
X25321Y35675
X25433Y18828
X25588Y31696
X25604Y21706
X25709Y34134
X25709Y32638
X25878Y31065
X25906Y18543
X25945Y22493
X25965Y18898
X25997Y20197
X26077Y20999
X26160Y33732
X26217Y18588
X26339Y31850
X26339Y20197
X26395Y30970
X26634Y35118
X26693Y31575
X26710Y29516
X26713Y18898
X26732Y20197
X26772Y26299
X26772Y24094
X26790Y21141
X26811Y44724
X26850Y31260
X26969Y34582
X27047Y34094
X27092Y20201
X27182Y29489
X27283Y34331
X27340Y22205
X27461Y18898
X27480Y20236
X27649Y21237
X27698Y22181
X27795Y22481
X27812Y29646
X27835Y551
X27865Y18071
X27913Y24488
X28031Y32087
X28113Y22181
X28134Y34450
X28209Y21299
X28209Y20236
X28209Y18898
X28221Y30905
X28249Y30276
X28346Y34685
X28371Y32900
X28465Y30022
X28484Y35866
X28518Y22424
X28538Y33788
X28543Y32126
X28543Y21952
X28590Y18425
X28661Y31614
X28668Y31285
X28780Y22638
X28816Y18644
X28921Y18941
X28950Y20197
X28976Y24685
X29203Y18735
X29309Y25060
X29437Y25438
X29528Y32402
X29528Y1417
X29593Y25711
X29621Y20197
X29646Y28583
X29646Y27283
X29685Y18910
X30031Y20186
X30066Y32140
X30249Y21023
X30315Y29764
X30367Y18189
X30381Y36066
X30394Y20512
X30551Y21950
X30669Y43425
X30807Y32341
X30890Y24814
X30954Y29843
X31024Y31378
X31039Y18504
X31101Y18196
X31121Y32321
X31161Y21654
X31181Y24606
X31339Y23307
X31378Y27520
X31452Y32395
X31496Y30556
X31496Y21942
X31732Y20512
X31850Y32362
X31909Y20236
X31909Y18898
X31949Y44724
X31969Y42205
X31986Y26817
X31986Y31396
X31988Y28504
X32008Y28150
X32047Y40472
X32047Y27126
X32122Y23318
X32123Y29455
X32283Y18071
X32362Y20630
X32416Y29843
X32651Y21383
X32657Y20236
X32657Y18898
X32677Y27835
X32835Y1378
X32874Y35630
X33075Y29830
X33229Y21693
X33346Y17362
X33406Y18898
X33425Y36969
X33425Y20236
X33504Y43071
X33543Y30197
X33543Y26535
X33661Y20748
X33740Y24094
X33780Y31343
X33819Y37992
X33917Y30320
X33976Y32323
X34094Y315
X34134Y26142
X34134Y23504
X34141Y18910
X34154Y20236
X34291Y16772
X34311Y30535
X34331Y15000
X34370Y35630
X34370Y7205
X34409Y12244
X34409Y4843
X34449Y5669
X34449Y315
X34685Y26638
X34724Y472
X34747Y25120
X34764Y18149
X34764Y25945
X34843Y17657
X34882Y29919
X34960Y24166
X34961Y21654
X34961Y11772
X34999Y24478
X35000Y25748
X35004Y26178
X35014Y596
X35039Y14016
X35078Y18129
X35138Y24771
X35197Y1693
X35322Y25027
X35329Y12537
X35354Y630
X35433Y15157
X35440Y10873
X35472Y6457
X35591Y12362
X35630Y35748
X35663Y11096
X35748Y354
X35845Y29859
X35866Y36969
X35984Y23504
X35984Y37283
X36024Y23875
X36299Y28583
X36299Y748
X36339Y44331
X36339Y10157
X36339Y8976
X36378Y7126
X36378Y10591
X36382Y8577
X36419Y15157
X36457Y13858
X36457Y11693
X36457Y9567
X36496Y28110
X36535Y30197
X36556Y8315
X36575Y236
X36636Y923
X36654Y17756
X36700Y24014
X36929Y31339
X36929Y2087
X37008Y22402
X37027Y21797
X37027Y21419
X37042Y23189
X37087Y5000
X37126Y35276
X37185Y44665
X37322Y17421
X37323Y5866
X37401Y24016
X37402Y30748
X37480Y18679
X37480Y32008
X37647Y18413
X37677Y35709
X37697Y40531
X37770Y18085
X37795Y29429
X37795Y197
X37815Y31969
X37815Y28228
X37815Y1339
T3
X4715Y23917
X4715Y23445
X4715Y22972
X4715Y22500
X10394Y25437
X10394Y25043
X11762Y23436
X11762Y23042
X17441Y25979
X17441Y25507
X17441Y25034
X17441Y24562
X17598Y16260
X17598Y13307
X17598Y12992
X17598Y12677
X17598Y12362
X17598Y12047
X17598Y11417
X17598Y11102
X17598Y10787
X17598Y10472
X17598Y10157
X17598Y9843
X17598Y9528
X17598Y9213
X17598Y8898
X17598Y8583
X17598Y7638
X17598Y7323
X17598Y7008
X17598Y5748
X17598Y5433
X17598Y5118
X17598Y4803
X17598Y3858
X17598Y3543
X17598Y3228
X17598Y2913
X17598Y2598
X17598Y1575
X17598Y15945
X17598Y11732
X17598Y8268
X17598Y7953
X17598Y6693
X17598Y6378
X17598Y6063
X17598Y4488
X17598Y4173
X17835Y17126
X17913Y1575
X18228Y1575
X18307Y17126
X18543Y1575
X18780Y17126
X18858Y1575
X19173Y1575
X19252Y17126
X19488Y1575
X19724Y17126
X19803Y1575
X19803Y22982
X20118Y1575
X20157Y17126
X20197Y22982
X20433Y1575
X20630Y17126
X20748Y1575
X21063Y1575
X21102Y17126
X21378Y1575
X21575Y17126
X21693Y1575
X22008Y1575
X22047Y17126
X22323Y1575
X22520Y17126
X22638Y1575
X22953Y1575
X22992Y17126
X23268Y1575
X23465Y17126
X23583Y1575
X23898Y1575
X23937Y17126
X24213Y1575
X24409Y17126
X24528Y1575
X24882Y17126
X25354Y17126
X25827Y17126
X26299Y17126
X26693Y1575
X26772Y17126
X27008Y1575
X27244Y17126
X27323Y1575
X27638Y1575
X27717Y17126
X27953Y1575
X28189Y17126
X28661Y17126
X29134Y17126
X29606Y17126
X30079Y17126
X30551Y17126
X31024Y17126
X31024Y1575
X31339Y1575
X31496Y17126
X31654Y1575
X31969Y17126
X32441Y17126
X32913Y17126
X33858Y17126
X34016Y13228
X34016Y10472
X34016Y10079
X34016Y9685
X34016Y9291
X34016Y8898
X34016Y8504
X34016Y8110
X34016Y7717
X34016Y6496
X34016Y6181
X34016Y1575
X34016Y16142
X34016Y15748
X36447Y24498
X36821Y24498
X36841Y27923
X37195Y27923
X37195Y24498
T5
X4705Y38348
X4705Y36848
X5512Y38368
X5512Y36868
X6319Y38368
X6319Y36868
X7106Y38368
X7106Y36868
X7953Y38388
X7953Y36888
X8205Y18287
X8205Y16358
X8205Y15020
X8205Y13091
X8740Y38388
X8740Y36888
X9528Y38388
X9528Y36888
X10335Y38368
X10335Y36868
X11220Y38270
X11220Y36770
X12087Y38289
X12087Y36789
X12953Y38346
X12953Y36417
X13917Y38327
X13917Y36398
X14744Y38348
X14744Y36848
X15591Y38307
X15591Y36378
X17008Y38388
X17008Y36888
X17795Y38388
X17795Y36888
X18642Y42482
X18642Y40982
X18661Y38388
X18661Y36888
X19449Y38388
X19449Y36888
X19626Y42463
X19626Y40963
X21240Y38171
X21240Y36671
X22165Y38150
X22165Y36220
X23091Y38167
X23091Y36238
X24350Y37994
X24350Y36494
X25177Y38189
X25177Y36260
X26024Y38171
X26024Y36671
X26791Y38171
X26791Y36671
X27598Y38189
X27598Y36260
X28484Y38191
X28484Y36691
X29449Y38211
X29449Y36711
X30217Y38211
X30217Y36711
X31024Y38207
X31024Y36278
X31967Y38187
X31967Y36258
X32867Y38189
X32867Y36689
X37165Y30159
X37165Y28659
T6
X10630Y4685
X11614Y4685
X12598Y4685
X13583Y4685
X14567Y4685
T7
X14016Y20236
X18268Y35315
X18543Y33307
T8
X5512Y17835
X5512Y16654
X5512Y15472
X5512Y14291
X5512Y13110
X6693Y17835
X6693Y16654
X6693Y15472
X6693Y14291
X6693Y13110
X16496Y4409
X18465Y394
X18681Y23159
X18858Y29262
X20039Y394
X21142Y23159
X21811Y394
X22835Y23159
X23583Y394
X23583Y23159
X23602Y29262
X25354Y394
X25551Y29262
X26102Y23159
X26280Y29262
X27126Y394
X28898Y394
X29409Y23898
X30551Y23150
X30630Y394
X35079Y16811
X35079Y15630
X35079Y10157
X35079Y8976
T9
X3681Y42953
X3681Y41378
X3681Y39803
X5256Y42953
X5256Y41378
X5256Y39803
X6634Y42953
X6634Y41378
X6634Y39803
X8012Y42953
X8012Y41378
X8012Y39803
X9390Y42953
X9390Y41378
X9390Y39803
X10768Y42953
X10768Y41378
X10768Y39803
X12146Y42953
X12146Y41378
X12146Y39803
X13720Y42953
X13720Y41378
X13720Y39803
X24272Y42953
X24272Y41378
X24272Y39803
X25846Y42953
X25846Y41378
X25846Y39803
X27224Y42953
X27224Y41378
X27224Y39803
X28602Y42953
X28602Y41378
X28602Y39803
X29980Y42953
X29980Y41378
X29980Y39803
X31358Y42953
X31358Y41378
X31358Y39803
X32736Y42953
X32736Y41378
X32736Y39803
X34311Y42953
X34311Y41378
X34311Y39803
T11
X1891Y3393
X36200Y3493
T12
X10634Y2528
X12909Y2528
T13
X7063Y19016
X7063Y11929
T4
X10071Y2941G85X10071Y2508
G05
X10071Y1197G85X10071Y961
G05
X13472Y2941G85X13472Y2508
G05
X13472Y1197G85X13472Y961
G05
T10
X866Y42756G85X866Y41575
G05
X16535Y42756G85X16535Y41575
G05
X21457Y42756G85X21457Y41575
G05
X37126Y42756G85X37126Y41575
G05
T0
M30
