G04 #@! TF.GenerationSoftware,KiCad,Pcbnew,(6.0.9)*
G04 #@! TF.CreationDate,2023-02-02T22:17:03+03:00*
G04 #@! TF.ProjectId,alphax_4ch,616c7068-6178-45f3-9463-682e6b696361,a*
G04 #@! TF.SameCoordinates,PX141f5e0PYa2cace0*
G04 #@! TF.FileFunction,AssemblyDrawing,Bot*
%FSLAX46Y46*%
G04 Gerber Fmt 4.6, Leading zero omitted, Abs format (unit mm)*
G04 Created by KiCad (PCBNEW (6.0.9)) date 2023-02-02 22:17:03*
%MOMM*%
%LPD*%
G01*
G04 APERTURE LIST*
%ADD10C,0.150000*%
%ADD11C,0.050000*%
%ADD12C,0.100000*%
G04 APERTURE END LIST*
D10*
G04 #@! TO.C,J10*
X27639523Y60257620D02*
X27639523Y59543334D01*
X27687142Y59400477D01*
X27782380Y59305239D01*
X27925238Y59257620D01*
X28020476Y59257620D01*
X26639523Y59257620D02*
X27210952Y59257620D01*
X26925238Y59257620D02*
X26925238Y60257620D01*
X27020476Y60114762D01*
X27115714Y60019524D01*
X27210952Y59971905D01*
X26020476Y60257620D02*
X25925238Y60257620D01*
X25830000Y60210000D01*
X25782380Y60162381D01*
X25734761Y60067143D01*
X25687142Y59876667D01*
X25687142Y59638572D01*
X25734761Y59448096D01*
X25782380Y59352858D01*
X25830000Y59305239D01*
X25925238Y59257620D01*
X26020476Y59257620D01*
X26115714Y59305239D01*
X26163333Y59352858D01*
X26210952Y59448096D01*
X26258571Y59638572D01*
X26258571Y59876667D01*
X26210952Y60067143D01*
X26163333Y60162381D01*
X26115714Y60210000D01*
X26020476Y60257620D01*
G04 #@! TO.C,J11*
X30709523Y59737620D02*
X30709523Y59023334D01*
X30757142Y58880477D01*
X30852380Y58785239D01*
X30995238Y58737620D01*
X31090476Y58737620D01*
X29709523Y58737620D02*
X30280952Y58737620D01*
X29995238Y58737620D02*
X29995238Y59737620D01*
X30090476Y59594762D01*
X30185714Y59499524D01*
X30280952Y59451905D01*
X28757142Y58737620D02*
X29328571Y58737620D01*
X29042857Y58737620D02*
X29042857Y59737620D01*
X29138095Y59594762D01*
X29233333Y59499524D01*
X29328571Y59451905D01*
D11*
G04 #@! TO.C,D58*
X2034761Y49238572D02*
X1714761Y49238572D01*
X1714761Y49162381D01*
X1730000Y49116667D01*
X1760476Y49086191D01*
X1790952Y49070953D01*
X1851904Y49055715D01*
X1897619Y49055715D01*
X1958571Y49070953D01*
X1989047Y49086191D01*
X2019523Y49116667D01*
X2034761Y49162381D01*
X2034761Y49238572D01*
X1714761Y48766191D02*
X1714761Y48918572D01*
X1867142Y48933810D01*
X1851904Y48918572D01*
X1836666Y48888096D01*
X1836666Y48811905D01*
X1851904Y48781429D01*
X1867142Y48766191D01*
X1897619Y48750953D01*
X1973809Y48750953D01*
X2004285Y48766191D01*
X2019523Y48781429D01*
X2034761Y48811905D01*
X2034761Y48888096D01*
X2019523Y48918572D01*
X2004285Y48933810D01*
X1851904Y48568096D02*
X1836666Y48598572D01*
X1821428Y48613810D01*
X1790952Y48629048D01*
X1775714Y48629048D01*
X1745238Y48613810D01*
X1730000Y48598572D01*
X1714761Y48568096D01*
X1714761Y48507143D01*
X1730000Y48476667D01*
X1745238Y48461429D01*
X1775714Y48446191D01*
X1790952Y48446191D01*
X1821428Y48461429D01*
X1836666Y48476667D01*
X1851904Y48507143D01*
X1851904Y48568096D01*
X1867142Y48598572D01*
X1882380Y48613810D01*
X1912857Y48629048D01*
X1973809Y48629048D01*
X2004285Y48613810D01*
X2019523Y48598572D01*
X2034761Y48568096D01*
X2034761Y48507143D01*
X2019523Y48476667D01*
X2004285Y48461429D01*
X1973809Y48446191D01*
X1912857Y48446191D01*
X1882380Y48461429D01*
X1867142Y48476667D01*
X1851904Y48507143D01*
D10*
G04 #@! TO.C,J9*
X72922380Y8443334D02*
X73636666Y8443334D01*
X73779523Y8490953D01*
X73874761Y8586191D01*
X73922380Y8729048D01*
X73922380Y8824286D01*
X73922380Y7919524D02*
X73922380Y7729048D01*
X73874761Y7633810D01*
X73827142Y7586191D01*
X73684285Y7490953D01*
X73493809Y7443334D01*
X73112857Y7443334D01*
X73017619Y7490953D01*
X72970000Y7538572D01*
X72922380Y7633810D01*
X72922380Y7824286D01*
X72970000Y7919524D01*
X73017619Y7967143D01*
X73112857Y8014762D01*
X73350952Y8014762D01*
X73446190Y7967143D01*
X73493809Y7919524D01*
X73541428Y7824286D01*
X73541428Y7633810D01*
X73493809Y7538572D01*
X73446190Y7490953D01*
X73350952Y7443334D01*
D11*
G04 #@! TO.C,D57*
X2034761Y45238572D02*
X1714761Y45238572D01*
X1714761Y45162381D01*
X1730000Y45116667D01*
X1760476Y45086191D01*
X1790952Y45070953D01*
X1851904Y45055715D01*
X1897619Y45055715D01*
X1958571Y45070953D01*
X1989047Y45086191D01*
X2019523Y45116667D01*
X2034761Y45162381D01*
X2034761Y45238572D01*
X1714761Y44766191D02*
X1714761Y44918572D01*
X1867142Y44933810D01*
X1851904Y44918572D01*
X1836666Y44888096D01*
X1836666Y44811905D01*
X1851904Y44781429D01*
X1867142Y44766191D01*
X1897619Y44750953D01*
X1973809Y44750953D01*
X2004285Y44766191D01*
X2019523Y44781429D01*
X2034761Y44811905D01*
X2034761Y44888096D01*
X2019523Y44918572D01*
X2004285Y44933810D01*
X1714761Y44644286D02*
X1714761Y44430953D01*
X2034761Y44568096D01*
D10*
G04 #@! TO.C,J4*
X5033333Y5147620D02*
X5033333Y4433334D01*
X5080952Y4290477D01*
X5176190Y4195239D01*
X5319047Y4147620D01*
X5414285Y4147620D01*
X4128571Y4814286D02*
X4128571Y4147620D01*
X4366666Y5195239D02*
X4604761Y4480953D01*
X3985714Y4480953D01*
D11*
G04 #@! TO.C,D59*
X17574761Y43628572D02*
X17254761Y43628572D01*
X17254761Y43552381D01*
X17270000Y43506667D01*
X17300476Y43476191D01*
X17330952Y43460953D01*
X17391904Y43445715D01*
X17437619Y43445715D01*
X17498571Y43460953D01*
X17529047Y43476191D01*
X17559523Y43506667D01*
X17574761Y43552381D01*
X17574761Y43628572D01*
X17254761Y43156191D02*
X17254761Y43308572D01*
X17407142Y43323810D01*
X17391904Y43308572D01*
X17376666Y43278096D01*
X17376666Y43201905D01*
X17391904Y43171429D01*
X17407142Y43156191D01*
X17437619Y43140953D01*
X17513809Y43140953D01*
X17544285Y43156191D01*
X17559523Y43171429D01*
X17574761Y43201905D01*
X17574761Y43278096D01*
X17559523Y43308572D01*
X17544285Y43323810D01*
X17574761Y42988572D02*
X17574761Y42927620D01*
X17559523Y42897143D01*
X17544285Y42881905D01*
X17498571Y42851429D01*
X17437619Y42836191D01*
X17315714Y42836191D01*
X17285238Y42851429D01*
X17270000Y42866667D01*
X17254761Y42897143D01*
X17254761Y42958096D01*
X17270000Y42988572D01*
X17285238Y43003810D01*
X17315714Y43019048D01*
X17391904Y43019048D01*
X17422380Y43003810D01*
X17437619Y42988572D01*
X17452857Y42958096D01*
X17452857Y42897143D01*
X17437619Y42866667D01*
X17422380Y42851429D01*
X17391904Y42836191D01*
D12*
G04 #@! TO.C,D58*
X3340000Y48200000D02*
X3340000Y49500000D01*
X765000Y49500000D02*
X440000Y49175000D01*
X440000Y49175000D02*
X440000Y48200000D01*
X440000Y48200000D02*
X3340000Y48200000D01*
X3340000Y49500000D02*
X765000Y49500000D01*
G04 #@! TO.C,J9*
X66620000Y1310000D02*
X66620000Y14910000D01*
X80320000Y14910000D02*
X80320000Y1310000D01*
X80320000Y1310000D02*
X66620000Y1310000D01*
X66620000Y14910000D02*
X80320000Y14910000D01*
G04 #@! TO.C,D57*
X440000Y44200000D02*
X3340000Y44200000D01*
X765000Y45500000D02*
X440000Y45175000D01*
X3340000Y45500000D02*
X765000Y45500000D01*
X3340000Y44200000D02*
X3340000Y45500000D01*
X440000Y45175000D02*
X440000Y44200000D01*
G04 #@! TO.C,D59*
X15980000Y42590000D02*
X18555000Y42590000D01*
X15980000Y43890000D02*
X15980000Y42590000D01*
X18880000Y43890000D02*
X15980000Y43890000D01*
X18880000Y42915000D02*
X18880000Y43890000D01*
X18555000Y42590000D02*
X18880000Y42915000D01*
G04 #@! TD*
M02*
