G04 #@! TF.GenerationSoftware,KiCad,Pcbnew,(6.0.9)*
G04 #@! TF.CreationDate,2023-02-02T22:17:02+03:00*
G04 #@! TF.ProjectId,alphax_4ch,616c7068-6178-45f3-9463-682e6b696361,a*
G04 #@! TF.SameCoordinates,PX141f5e0PYa2cace0*
G04 #@! TF.FileFunction,Paste,Bot*
G04 #@! TF.FilePolarity,Positive*
%FSLAX46Y46*%
G04 Gerber Fmt 4.6, Leading zero omitted, Abs format (unit mm)*
G04 Created by KiCad (PCBNEW (6.0.9)) date 2023-02-02 22:17:02*
%MOMM*%
%LPD*%
G01*
G04 APERTURE LIST*
%ADD10R,1.500000X0.800000*%
%ADD11R,2.000000X1.450000*%
G04 APERTURE END LIST*
G04 #@! TO.C,M5*
G36*
G01*
X90070000Y55727684D02*
X90070000Y55977684D01*
G75*
G02*
X90195000Y56102684I125000J0D01*
G01*
X90195000Y56102684D01*
G75*
G02*
X90320000Y55977684I0J-125000D01*
G01*
X90320000Y55727684D01*
G75*
G02*
X90195000Y55602684I-125000J0D01*
G01*
X90195000Y55602684D01*
G75*
G02*
X90070000Y55727684I0J125000D01*
G01*
G37*
G36*
G01*
X89219996Y55977684D02*
X89219996Y55727684D01*
G75*
G02*
X89094996Y55602684I-125000J0D01*
G01*
X89094996Y55602684D01*
G75*
G02*
X88969996Y55727684I0J125000D01*
G01*
X88969996Y55977684D01*
G75*
G02*
X89094996Y56102684I125000J0D01*
G01*
X89094996Y56102684D01*
G75*
G02*
X89219996Y55977684I0J-125000D01*
G01*
G37*
G36*
G01*
X88119995Y55977684D02*
X88119995Y55727684D01*
G75*
G02*
X87994995Y55602684I-125000J0D01*
G01*
X87994995Y55602684D01*
G75*
G02*
X87869995Y55727684I0J125000D01*
G01*
X87869995Y55977684D01*
G75*
G02*
X87994995Y56102684I125000J0D01*
G01*
X87994995Y56102684D01*
G75*
G02*
X88119995Y55977684I0J-125000D01*
G01*
G37*
G36*
G01*
X87019998Y55977684D02*
X87019998Y55727684D01*
G75*
G02*
X86894998Y55602684I-125000J0D01*
G01*
X86894998Y55602684D01*
G75*
G02*
X86769998Y55727684I0J125000D01*
G01*
X86769998Y55977684D01*
G75*
G02*
X86894998Y56102684I125000J0D01*
G01*
X86894998Y56102684D01*
G75*
G02*
X87019998Y55977684I0J-125000D01*
G01*
G37*
G36*
G01*
X85920000Y55977684D02*
X85920000Y55727684D01*
G75*
G02*
X85795000Y55602684I-125000J0D01*
G01*
X85795000Y55602684D01*
G75*
G02*
X85670000Y55727684I0J125000D01*
G01*
X85670000Y55977684D01*
G75*
G02*
X85795000Y56102684I125000J0D01*
G01*
X85795000Y56102684D01*
G75*
G02*
X85920000Y55977684I0J-125000D01*
G01*
G37*
G36*
G01*
X84820002Y55977684D02*
X84820002Y55727684D01*
G75*
G02*
X84695002Y55602684I-125000J0D01*
G01*
X84695002Y55602684D01*
G75*
G02*
X84570002Y55727684I0J125000D01*
G01*
X84570002Y55977684D01*
G75*
G02*
X84695002Y56102684I125000J0D01*
G01*
X84695002Y56102684D01*
G75*
G02*
X84820002Y55977684I0J-125000D01*
G01*
G37*
G36*
G01*
X83720004Y55977684D02*
X83720004Y55727684D01*
G75*
G02*
X83595004Y55602684I-125000J0D01*
G01*
X83595004Y55602684D01*
G75*
G02*
X83470004Y55727684I0J125000D01*
G01*
X83470004Y55977684D01*
G75*
G02*
X83595004Y56102684I125000J0D01*
G01*
X83595004Y56102684D01*
G75*
G02*
X83720004Y55977684I0J-125000D01*
G01*
G37*
G36*
G01*
X82620006Y55977684D02*
X82620006Y55727684D01*
G75*
G02*
X82495006Y55602684I-125000J0D01*
G01*
X82495006Y55602684D01*
G75*
G02*
X82370006Y55727684I0J125000D01*
G01*
X82370006Y55977684D01*
G75*
G02*
X82495006Y56102684I125000J0D01*
G01*
X82495006Y56102684D01*
G75*
G02*
X82620006Y55977684I0J-125000D01*
G01*
G37*
G36*
G01*
X81520009Y55977684D02*
X81520009Y55727684D01*
G75*
G02*
X81395009Y55602684I-125000J0D01*
G01*
X81395009Y55602684D01*
G75*
G02*
X81270009Y55727684I0J125000D01*
G01*
X81270009Y55977684D01*
G75*
G02*
X81395009Y56102684I125000J0D01*
G01*
X81395009Y56102684D01*
G75*
G02*
X81520009Y55977684I0J-125000D01*
G01*
G37*
G36*
G01*
X80420011Y55977684D02*
X80420011Y55727684D01*
G75*
G02*
X80295011Y55602684I-125000J0D01*
G01*
X80295011Y55602684D01*
G75*
G02*
X80170011Y55727684I0J125000D01*
G01*
X80170011Y55977684D01*
G75*
G02*
X80295011Y56102684I125000J0D01*
G01*
X80295011Y56102684D01*
G75*
G02*
X80420011Y55977684I0J-125000D01*
G01*
G37*
G36*
G01*
X79320013Y55977684D02*
X79320013Y55727684D01*
G75*
G02*
X79195013Y55602684I-125000J0D01*
G01*
X79195013Y55602684D01*
G75*
G02*
X79070013Y55727684I0J125000D01*
G01*
X79070013Y55977684D01*
G75*
G02*
X79195013Y56102684I125000J0D01*
G01*
X79195013Y56102684D01*
G75*
G02*
X79320013Y55977684I0J-125000D01*
G01*
G37*
G36*
G01*
X78220015Y55977684D02*
X78220015Y55727684D01*
G75*
G02*
X78095015Y55602684I-125000J0D01*
G01*
X78095015Y55602684D01*
G75*
G02*
X77970015Y55727684I0J125000D01*
G01*
X77970015Y55977684D01*
G75*
G02*
X78095015Y56102684I125000J0D01*
G01*
X78095015Y56102684D01*
G75*
G02*
X78220015Y55977684I0J-125000D01*
G01*
G37*
G36*
G01*
X77120017Y55977684D02*
X77120017Y55727684D01*
G75*
G02*
X76995017Y55602684I-125000J0D01*
G01*
X76995017Y55602684D01*
G75*
G02*
X76870017Y55727684I0J125000D01*
G01*
X76870017Y55977684D01*
G75*
G02*
X76995017Y56102684I125000J0D01*
G01*
X76995017Y56102684D01*
G75*
G02*
X77120017Y55977684I0J-125000D01*
G01*
G37*
G36*
G01*
X76020020Y55977684D02*
X76020020Y55727684D01*
G75*
G02*
X75895020Y55602684I-125000J0D01*
G01*
X75895020Y55602684D01*
G75*
G02*
X75770020Y55727684I0J125000D01*
G01*
X75770020Y55977684D01*
G75*
G02*
X75895020Y56102684I125000J0D01*
G01*
X75895020Y56102684D01*
G75*
G02*
X76020020Y55977684I0J-125000D01*
G01*
G37*
G36*
G01*
X74920022Y55977684D02*
X74920022Y55727684D01*
G75*
G02*
X74795022Y55602684I-125000J0D01*
G01*
X74795022Y55602684D01*
G75*
G02*
X74670022Y55727684I0J125000D01*
G01*
X74670022Y55977684D01*
G75*
G02*
X74795022Y56102684I125000J0D01*
G01*
X74795022Y56102684D01*
G75*
G02*
X74920022Y55977684I0J-125000D01*
G01*
G37*
G36*
G01*
X73820024Y55977684D02*
X73820024Y55727684D01*
G75*
G02*
X73695024Y55602684I-125000J0D01*
G01*
X73695024Y55602684D01*
G75*
G02*
X73570024Y55727684I0J125000D01*
G01*
X73570024Y55977684D01*
G75*
G02*
X73695024Y56102684I125000J0D01*
G01*
X73695024Y56102684D01*
G75*
G02*
X73820024Y55977684I0J-125000D01*
G01*
G37*
G36*
G01*
X72720026Y55977684D02*
X72720026Y55727684D01*
G75*
G02*
X72595026Y55602684I-125000J0D01*
G01*
X72595026Y55602684D01*
G75*
G02*
X72470026Y55727684I0J125000D01*
G01*
X72470026Y55977684D01*
G75*
G02*
X72595026Y56102684I125000J0D01*
G01*
X72595026Y56102684D01*
G75*
G02*
X72720026Y55977684I0J-125000D01*
G01*
G37*
G36*
G01*
X71620028Y55977684D02*
X71620028Y55727684D01*
G75*
G02*
X71495028Y55602684I-125000J0D01*
G01*
X71495028Y55602684D01*
G75*
G02*
X71370028Y55727684I0J125000D01*
G01*
X71370028Y55977684D01*
G75*
G02*
X71495028Y56102684I125000J0D01*
G01*
X71495028Y56102684D01*
G75*
G02*
X71620028Y55977684I0J-125000D01*
G01*
G37*
G36*
G01*
X70520031Y55977684D02*
X70520031Y55727684D01*
G75*
G02*
X70395031Y55602684I-125000J0D01*
G01*
X70395031Y55602684D01*
G75*
G02*
X70270031Y55727684I0J125000D01*
G01*
X70270031Y55977684D01*
G75*
G02*
X70395031Y56102684I125000J0D01*
G01*
X70395031Y56102684D01*
G75*
G02*
X70520031Y55977684I0J-125000D01*
G01*
G37*
G36*
G01*
X69420033Y55977684D02*
X69420033Y55727684D01*
G75*
G02*
X69295033Y55602684I-125000J0D01*
G01*
X69295033Y55602684D01*
G75*
G02*
X69170033Y55727684I0J125000D01*
G01*
X69170033Y55977684D01*
G75*
G02*
X69295033Y56102684I125000J0D01*
G01*
X69295033Y56102684D01*
G75*
G02*
X69420033Y55977684I0J-125000D01*
G01*
G37*
G36*
G01*
X68320035Y55977684D02*
X68320035Y55727684D01*
G75*
G02*
X68195035Y55602684I-125000J0D01*
G01*
X68195035Y55602684D01*
G75*
G02*
X68070035Y55727684I0J125000D01*
G01*
X68070035Y55977684D01*
G75*
G02*
X68195035Y56102684I125000J0D01*
G01*
X68195035Y56102684D01*
G75*
G02*
X68320035Y55977684I0J-125000D01*
G01*
G37*
G36*
G01*
X67220037Y55977684D02*
X67220037Y55727684D01*
G75*
G02*
X67095037Y55602684I-125000J0D01*
G01*
X67095037Y55602684D01*
G75*
G02*
X66970037Y55727684I0J125000D01*
G01*
X66970037Y55977684D01*
G75*
G02*
X67095037Y56102684I125000J0D01*
G01*
X67095037Y56102684D01*
G75*
G02*
X67220037Y55977684I0J-125000D01*
G01*
G37*
G36*
G01*
X66120039Y55977684D02*
X66120039Y55727684D01*
G75*
G02*
X65995039Y55602684I-125000J0D01*
G01*
X65995039Y55602684D01*
G75*
G02*
X65870039Y55727684I0J125000D01*
G01*
X65870039Y55977684D01*
G75*
G02*
X65995039Y56102684I125000J0D01*
G01*
X65995039Y56102684D01*
G75*
G02*
X66120039Y55977684I0J-125000D01*
G01*
G37*
G36*
G01*
X65020042Y55977684D02*
X65020042Y55727684D01*
G75*
G02*
X64895042Y55602684I-125000J0D01*
G01*
X64895042Y55602684D01*
G75*
G02*
X64770042Y55727684I0J125000D01*
G01*
X64770042Y55977684D01*
G75*
G02*
X64895042Y56102684I125000J0D01*
G01*
X64895042Y56102684D01*
G75*
G02*
X65020042Y55977684I0J-125000D01*
G01*
G37*
G36*
G01*
X63920044Y55977684D02*
X63920044Y55727684D01*
G75*
G02*
X63795044Y55602684I-125000J0D01*
G01*
X63795044Y55602684D01*
G75*
G02*
X63670044Y55727684I0J125000D01*
G01*
X63670044Y55977684D01*
G75*
G02*
X63795044Y56102684I125000J0D01*
G01*
X63795044Y56102684D01*
G75*
G02*
X63920044Y55977684I0J-125000D01*
G01*
G37*
G36*
G01*
X62820046Y55977684D02*
X62820046Y55727684D01*
G75*
G02*
X62695046Y55602684I-125000J0D01*
G01*
X62695046Y55602684D01*
G75*
G02*
X62570046Y55727684I0J125000D01*
G01*
X62570046Y55977684D01*
G75*
G02*
X62695046Y56102684I125000J0D01*
G01*
X62695046Y56102684D01*
G75*
G02*
X62820046Y55977684I0J-125000D01*
G01*
G37*
G04 #@! TD*
G04 #@! TO.C,R96*
G36*
G01*
X60780000Y13150000D02*
X60000000Y13150000D01*
G75*
G02*
X59930000Y13220000I0J70000D01*
G01*
X59930000Y13780000D01*
G75*
G02*
X60000000Y13850000I70000J0D01*
G01*
X60780000Y13850000D01*
G75*
G02*
X60850000Y13780000I0J-70000D01*
G01*
X60850000Y13220000D01*
G75*
G02*
X60780000Y13150000I-70000J0D01*
G01*
G37*
G36*
G01*
X60780000Y14750000D02*
X60000000Y14750000D01*
G75*
G02*
X59930000Y14820000I0J70000D01*
G01*
X59930000Y15380000D01*
G75*
G02*
X60000000Y15450000I70000J0D01*
G01*
X60780000Y15450000D01*
G75*
G02*
X60850000Y15380000I0J-70000D01*
G01*
X60850000Y14820000D01*
G75*
G02*
X60780000Y14750000I-70000J0D01*
G01*
G37*
G04 #@! TD*
G04 #@! TO.C,D58*
G36*
G01*
X790000Y50525000D02*
X1090000Y50525000D01*
G75*
G02*
X1240000Y50375000I0J-150000D01*
G01*
X1240000Y49200000D01*
G75*
G02*
X1090000Y49050000I-150000J0D01*
G01*
X790000Y49050000D01*
G75*
G02*
X640000Y49200000I0J150000D01*
G01*
X640000Y50375000D01*
G75*
G02*
X790000Y50525000I150000J0D01*
G01*
G37*
G36*
G01*
X2690000Y50525000D02*
X2990000Y50525000D01*
G75*
G02*
X3140000Y50375000I0J-150000D01*
G01*
X3140000Y49200000D01*
G75*
G02*
X2990000Y49050000I-150000J0D01*
G01*
X2690000Y49050000D01*
G75*
G02*
X2540000Y49200000I0J150000D01*
G01*
X2540000Y50375000D01*
G75*
G02*
X2690000Y50525000I150000J0D01*
G01*
G37*
G36*
G01*
X1740000Y48650000D02*
X2040000Y48650000D01*
G75*
G02*
X2190000Y48500000I0J-150000D01*
G01*
X2190000Y47325000D01*
G75*
G02*
X2040000Y47175000I-150000J0D01*
G01*
X1740000Y47175000D01*
G75*
G02*
X1590000Y47325000I0J150000D01*
G01*
X1590000Y48500000D01*
G75*
G02*
X1740000Y48650000I150000J0D01*
G01*
G37*
G04 #@! TD*
D10*
G04 #@! TO.C,J9*
X70770000Y11310000D03*
X70770000Y10210000D03*
X70770000Y9110000D03*
X70770000Y8010000D03*
X70770000Y6910000D03*
X70770000Y5810000D03*
X70770000Y4710000D03*
X70770000Y3610000D03*
D11*
X68170000Y14985000D03*
X68170000Y1235000D03*
X76470000Y1235000D03*
X76470000Y14985000D03*
G04 #@! TD*
G04 #@! TO.C,D57*
G36*
G01*
X790000Y46525000D02*
X1090000Y46525000D01*
G75*
G02*
X1240000Y46375000I0J-150000D01*
G01*
X1240000Y45200000D01*
G75*
G02*
X1090000Y45050000I-150000J0D01*
G01*
X790000Y45050000D01*
G75*
G02*
X640000Y45200000I0J150000D01*
G01*
X640000Y46375000D01*
G75*
G02*
X790000Y46525000I150000J0D01*
G01*
G37*
G36*
G01*
X2690000Y46525000D02*
X2990000Y46525000D01*
G75*
G02*
X3140000Y46375000I0J-150000D01*
G01*
X3140000Y45200000D01*
G75*
G02*
X2990000Y45050000I-150000J0D01*
G01*
X2690000Y45050000D01*
G75*
G02*
X2540000Y45200000I0J150000D01*
G01*
X2540000Y46375000D01*
G75*
G02*
X2690000Y46525000I150000J0D01*
G01*
G37*
G36*
G01*
X1740000Y44650000D02*
X2040000Y44650000D01*
G75*
G02*
X2190000Y44500000I0J-150000D01*
G01*
X2190000Y43325000D01*
G75*
G02*
X2040000Y43175000I-150000J0D01*
G01*
X1740000Y43175000D01*
G75*
G02*
X1590000Y43325000I0J150000D01*
G01*
X1590000Y44500000D01*
G75*
G02*
X1740000Y44650000I150000J0D01*
G01*
G37*
G04 #@! TD*
G04 #@! TO.C,D59*
G36*
G01*
X18530000Y41565000D02*
X18230000Y41565000D01*
G75*
G02*
X18080000Y41715000I0J150000D01*
G01*
X18080000Y42890000D01*
G75*
G02*
X18230000Y43040000I150000J0D01*
G01*
X18530000Y43040000D01*
G75*
G02*
X18680000Y42890000I0J-150000D01*
G01*
X18680000Y41715000D01*
G75*
G02*
X18530000Y41565000I-150000J0D01*
G01*
G37*
G36*
G01*
X16630000Y41565000D02*
X16330000Y41565000D01*
G75*
G02*
X16180000Y41715000I0J150000D01*
G01*
X16180000Y42890000D01*
G75*
G02*
X16330000Y43040000I150000J0D01*
G01*
X16630000Y43040000D01*
G75*
G02*
X16780000Y42890000I0J-150000D01*
G01*
X16780000Y41715000D01*
G75*
G02*
X16630000Y41565000I-150000J0D01*
G01*
G37*
G36*
G01*
X17580000Y43440000D02*
X17280000Y43440000D01*
G75*
G02*
X17130000Y43590000I0J150000D01*
G01*
X17130000Y44765000D01*
G75*
G02*
X17280000Y44915000I150000J0D01*
G01*
X17580000Y44915000D01*
G75*
G02*
X17730000Y44765000I0J-150000D01*
G01*
X17730000Y43590000D01*
G75*
G02*
X17580000Y43440000I-150000J0D01*
G01*
G37*
G04 #@! TD*
M02*
