M48
; DRILL file {KiCad (6.0.1)} date Mon Sep  5 21:28:16 2022
; FORMAT={2:4/ absolute / inch / suppress leading zeros}
; #@! TF.CreationDate,2022-09-05T21:28:16+03:00
; #@! TF.GenerationSoftware,Kicad,Pcbnew,(6.0.1)
; #@! TF.FileFunction,MixedPlating,1,4
FMAT,2
INCH,TZ
; #@! TA.AperFunction,Plated,PTH,ComponentDrill
T1C0.0118
; #@! TA.AperFunction,Plated,PTH,ViaDrill
T2C0.0118
; #@! TA.AperFunction,Plated,PTH,ComponentDrill
T3C0.0118
; #@! TA.AperFunction,Plated,PTH,ViaDrill
T4C0.0197
; #@! TA.AperFunction,Plated,PTH,ComponentDrill
T5C0.0320
; #@! TA.AperFunction,Plated,PTH,ViaDrill
T6C0.0394
; #@! TA.AperFunction,Plated,PTH,ComponentDrill
T7C0.0591
; #@! TA.AperFunction,Plated,PTH,ComponentDrill
T8C0.0984
; #@! TA.AperFunction,Plated,PTH,ComponentDrill
T9C0.1378
; #@! TA.AperFunction,NonPlated,NPTH,ComponentDrill
T10C0.0394
%
G90
G05
T1
X3415Y21358
X3770Y28258
X4163Y28258
X6368Y21358
X6683Y21358
X6998Y21358
X10148Y11535
X10502Y18435
X10896Y18435
X10999Y10269
X11521Y7031
X13100Y11535
X13415Y11535
X13581Y7038
X13730Y11535
X13775Y7779
X14218Y4885
X15807Y3445
X20098Y3445
X20256Y1831
X20285Y433
X20374Y2333
X20719Y2126
X25689Y3445
X29970Y4941
X30517Y3445
X31813Y5384
X33339Y4134
X33417Y5266
X33423Y3789
X33423Y4518
X33453Y3455
X33630Y2815
X34146Y4350
X34146Y3327
X34146Y2559
T2
X177Y16693
X244Y17165
X256Y28425
X295Y25984
X354Y40669
X374Y4528
X394Y11437
X453Y354
X531Y44587
X728Y16772
X748Y14094
X768Y15551
X945Y37593
X1000Y17039
X1083Y31831
X1256Y18394
X1358Y16299
X1398Y15374
X1457Y24626
X1457Y24626
X1504Y19222
X1516Y28287
X1536Y17398
X1614Y21673
X1634Y23504
X1634Y11535
X1654Y16535
X1949Y42264
X1969Y19193
X2008Y18583
X2244Y17835
X2247Y17102
X2323Y25984
X2421Y18248
X2480Y15748
X2854Y21654
X2933Y24370
X2992Y13110
X3012Y28189
X3012Y354
X3031Y1870
X3091Y17854
X3110Y20157
X3130Y14150
X3189Y29055
X3248Y31988
X3287Y15177
X3465Y16929
X3504Y11299
X3740Y31654
X3868Y20030
X3937Y12362
X3976Y13543
X4114Y17165
X4252Y21181
X4291Y19724
X4370Y20650
X4469Y29075
X4547Y12894
X4567Y42264
X4606Y28622
X4724Y32756
X4724Y32520
X4961Y18287
X4990Y15044
X5000Y17835
X5020Y18642
X5315Y18976
X5335Y13917
X5335Y16909
X5551Y11693
X5591Y14882
X5630Y19902
X5827Y17382
X5886Y11949
X6043Y44547
X6043Y20748
X6358Y16142
X6457Y20295
X6460Y18012
X6496Y11319
X6508Y13215
X6624Y12609
X7050Y15354
X7051Y16535
X7067Y31928
X7126Y19567
X7185Y16102
X7244Y17154
X7362Y19350
X7441Y18464
X7579Y14685
X7677Y28799
X8031Y17972
X8169Y14508
X8189Y15335
X8701Y28701
X8839Y42264
X8839Y40551
X9035Y18071
X9370Y29094
X9390Y8524
X9469Y4311
X9531Y10094
X9685Y29134
X9764Y14409
X9783Y18071
X9823Y4291
X9980Y315
X10000Y2539
X10020Y26988
X10039Y4685
X10256Y26594
X10276Y5650
X10319Y7638
X10433Y8780
X10473Y23622
X10591Y4862
X10638Y22106
X10669Y29291
X10689Y8445
X10709Y3602
X10764Y20975
X10768Y28189
X10833Y21490
X10856Y23081
X10866Y24173
X10984Y25768
X11004Y19843
X11007Y21751
X11083Y19528
X11093Y28724
X11142Y44508
X11280Y30039
X11312Y21672
X11335Y21200
X11339Y19803
X11496Y11339
X11535Y24508
X11575Y19558
X11575Y29095
X11594Y21812
X11634Y23091
X11654Y23661
X11668Y20861
X11790Y21340
X11829Y19373
X11831Y28130
X11909Y21812
X12028Y23661
X12047Y20531
X12081Y19892
X12165Y33504
X12323Y29272
X12358Y19342
X12362Y24409
X12520Y33957
X12539Y25728
X12553Y19888
X12559Y28150
X12677Y24409
X12686Y19410
X12717Y26693
X12815Y32047
X12858Y21555
X12904Y29242
X12967Y19015
X13031Y21083
X13071Y42264
X13169Y32008
X13224Y22283
X13268Y18917
X13311Y19670
X13366Y40650
X13433Y20727
X13445Y2087
X13465Y10846
X13484Y34665
X13504Y35118
X13553Y26112
X13569Y22022
X13583Y22972
X13613Y34252
X13720Y10846
X13819Y21063
X13819Y276
X13898Y32185
X13898Y27717
X13898Y24193
X13917Y23524
X14035Y30689
X14035Y3366
X14121Y22985
X14183Y20364
X14232Y19881
X14240Y3692
X14252Y33366
X14311Y4016
X14370Y3406
X14409Y23110
X14469Y39272
X14508Y34843
X14528Y20709
X14585Y19723
X14630Y30925
X14705Y34095
X14724Y28484
X14744Y30177
X14744Y3602
X14764Y22244
X14783Y26614
X14803Y39272
X14823Y6713
X14823Y4980
X14839Y4118
X14846Y575
X14933Y24870
X14984Y3839
X14984Y35193
X15039Y34528
X15052Y22514
X15079Y33228
X15157Y20413
X15158Y20935
X15197Y30511
X15315Y19252
X15600Y22648
X15610Y28681
X15738Y42082
X15833Y19849
X15846Y20217
X15906Y20689
X15959Y20999
X15965Y22244
X16043Y32283
X16108Y36125
X16260Y21752
X16280Y22224
X16319Y34114
X16323Y36389
X16378Y24173
X16417Y44488
X16417Y30925
X16488Y12632
X16535Y33268
X16614Y26929
X16673Y33563
X16722Y28553
X16801Y30089
X16811Y36417
X16831Y24843
X16831Y217
X16840Y20788
X16922Y11307
X16929Y33268
X16969Y6102
X16985Y11909
X17008Y30925
X17028Y6713
X17087Y34114
X17087Y29291
X17087Y9114
X17154Y20788
X17185Y22736
X17225Y22067
X17247Y27227
X17287Y854
X17315Y1827
X17362Y35512
X17362Y35157
X17362Y34764
X17362Y34409
X17362Y33701
X17362Y33268
X17362Y6102
X17374Y2264
X17402Y23071
X17441Y24463
X17469Y20788
X17500Y15079
X17503Y27969
X17520Y14724
X17520Y19646
X17598Y14134
X17638Y21319
X17657Y25807
X17677Y15689
X17697Y30925
X17736Y6594
X17771Y17657
X17771Y17192
X17894Y22638
X17913Y41181
X17929Y14567
X17933Y9843
X17953Y29134
X17961Y1610
X18028Y807
X18051Y12953
X18086Y11890
X18086Y11575
X18122Y1316
X18268Y29016
X18307Y43307
X18392Y785
X18445Y30768
X18523Y21654
X18583Y35906
X18583Y24823
X18622Y23130
X18720Y335
X18755Y1535
X18839Y26417
X18839Y6634
X19065Y29016
X19154Y22087
X19379Y29036
X19384Y28667
X19488Y27421
X19528Y24705
X19547Y23301
X19567Y24213
X19567Y22067
X19687Y28582
X19803Y35512
X19803Y35157
X19803Y34803
X19803Y34449
X19803Y34094
X19882Y27421
X19885Y28048
X19902Y33209
X19932Y37176
X19983Y29176
X20079Y33720
X20202Y36622
X20236Y30748
X20280Y22791
X20295Y23740
X20315Y26201
X20335Y44724
X20335Y37559
X20433Y33228
X20532Y23043
X20630Y21419
X20650Y24370
X20650Y23602
X20689Y6319
X20709Y39823
X20768Y32283
X20768Y29925
X20782Y33679
X20886Y21634
X21004Y21339
X21063Y34114
X21083Y34902
X21083Y34508
X21102Y21929
X21243Y22211
X21398Y34094
X21417Y34882
X21417Y34488
X21437Y21535
X21514Y30304
X21639Y33110
X21672Y30669
X21757Y21649
X21890Y28327
X21929Y33232
X22047Y3031
X22059Y29158
X22067Y29473
X22087Y32323
X22106Y38937
X22165Y26339
X22165Y23661
X22191Y26712
X22204Y28280
X22244Y25118
X22252Y28909
X22276Y22044
X22402Y22500
X22480Y30610
X22538Y26949
X22549Y24479
X22559Y43307
X22579Y41398
X22615Y33664
X22702Y6350
X22772Y27173
X22785Y34124
X22838Y3025
X22913Y38917
X22953Y32283
X23020Y6346
X23130Y22352
X23173Y2998
X23288Y30453
X23297Y24833
X23339Y6346
X23508Y21654
X23601Y26224
X23661Y25531
X23701Y25925
X23720Y1516
X23740Y33717
X23760Y37283
X23768Y6346
X23822Y27534
X23839Y23031
X23860Y33093
X24016Y3071
X24035Y25118
X24075Y30492
X24201Y6346
X24272Y31299
X24311Y1358
X24331Y3075
X24370Y35217
X24390Y236
X24606Y31673
X24744Y30217
X24789Y29092
X24823Y32106
X24854Y30512
X24960Y3055
X24970Y2215
X24980Y31634
X25079Y40335
X25102Y6339
X25295Y31811
X25343Y29429
X25453Y27776
X25528Y33941
X25626Y1358
X25630Y31378
X25669Y30492
X25748Y32953
X25837Y27718
X25840Y29213
X25984Y807
X26083Y2524
X26161Y35413
X26161Y27736
X26339Y30827
X26362Y28367
X26437Y1232
X26551Y27725
X26563Y3071
X26654Y30847
X26699Y28002
X26794Y32424
X26811Y44724
X26949Y3020
X26988Y30375
X27193Y29551
X27303Y3004
X27520Y30529
X27598Y6319
X27618Y29311
X27779Y30350
X27835Y28839
X27992Y6512
X28054Y27779
X28130Y30354
X28189Y31339
X28209Y28819
X28415Y2626
X28450Y27751
X28465Y21437
X28571Y2984
X28622Y32598
X28728Y2657
X28878Y29507
X28996Y35906
X29134Y256
X29193Y32461
X29209Y29106
X29607Y30039
X29760Y29507
X29823Y28189
X30059Y29370
X30236Y31102
X30354Y32008
X30572Y28838
X30669Y43425
X30713Y6500
X30827Y30394
X30857Y31979
X30945Y492
X30965Y6299
X30974Y4880
X31024Y30669
X31339Y6378
X31378Y21614
X31398Y28327
X31604Y32018
X31738Y27777
X31857Y29855
X31909Y472
X31929Y31890
X31949Y44724
X32342Y29783
X32343Y474
X32658Y472
X32759Y29196
X32795Y30295
X32841Y29501
X33130Y30020
X34094Y31339
X34213Y32264
X34465Y4622
X34823Y1811
X34902Y21634
X34961Y295
X35039Y1555
X35650Y21614
X35874Y6449
X36181Y28256
X36242Y32048
X36331Y21854
X36469Y25024
X36618Y25570
X36618Y25904
X36764Y26343
X36823Y33925
X36909Y21474
X37173Y33846
X37185Y44665
X37497Y33883
X37559Y25890
X37638Y5492
X37697Y40531
X37740Y25433
X37748Y36087
X37780Y15465
X37783Y9059
X37791Y35094
X37815Y26283
X37823Y22256
T3
X24350Y33913
X24902Y33913
T4
X472Y31240
X492Y28957
X768Y35394
X768Y35000
X768Y34606
X768Y34213
X768Y33819
X768Y33425
X866Y31240
X886Y28957
X1260Y31240
X1280Y28957
X1654Y31240
X1673Y28957
X2047Y31240
X2067Y28957
X2185Y32244
X2441Y31240
X2461Y28957
X2520Y32564
X2717Y35374
X2717Y34980
X2717Y34587
X2717Y34193
X2717Y33799
X2717Y33406
X2835Y32244
X3499Y30906
X3681Y35295
X3681Y34902
X3681Y34508
X3681Y34114
X3681Y33720
X3681Y33327
X4035Y31142
X4055Y30551
X5157Y28681
X5177Y30906
X5315Y32224
X5551Y28681
X5571Y30906
X5591Y32387
X5827Y35335
X5827Y34941
X5827Y34547
X5827Y34154
X5827Y33760
X5827Y33366
X5866Y32185
X5945Y28681
X5965Y30906
X6339Y28681
X6358Y30906
X6457Y35276
X6457Y34882
X6457Y34488
X6457Y34094
X6457Y33701
X6457Y33307
X6732Y28681
X6752Y30906
X8110Y31870
X8445Y32480
X8504Y31201
X8504Y30492
X8661Y35354
X8661Y34961
X8661Y34567
X8661Y34173
X8661Y33780
X8661Y33386
X8819Y31870
X8996Y30846
X9685Y35295
X9685Y34902
X9685Y34508
X9685Y34114
X9685Y33720
X9685Y33327
X11299Y31890
X11614Y31496
X11811Y35276
X11811Y34882
X11811Y34488
X11811Y34094
X11811Y33701
X11811Y33307
X11969Y31890
X27579Y34980
X27579Y34587
X27579Y34193
X27579Y33799
X27579Y33406
X27579Y33012
X29232Y31594
X29460Y31181
X29567Y35000
X29567Y34606
X29567Y34213
X29567Y33819
X29567Y33425
X29567Y33031
X29705Y31594
X30709Y34823
X30709Y34429
X30709Y34035
X30709Y33642
X30709Y33248
X30709Y32854
X32165Y28839
X32283Y28268
X32421Y31457
X32598Y28504
X32697Y31791
X32815Y34783
X32815Y34390
X32815Y33996
X32815Y33602
X32815Y33209
X32815Y32815
X33012Y31457
X33642Y28346
X33661Y34764
X33661Y34370
X33661Y33976
X33661Y33583
X33661Y33189
X33661Y32795
X33701Y30394
X34035Y28346
X34094Y30394
X34429Y28346
X34488Y30394
X34823Y28346
X34882Y30394
X35217Y28346
X35236Y31398
X35276Y30394
X35571Y31776
X35610Y28346
X35669Y30394
X35748Y34764
X35748Y34370
X35748Y33976
X35748Y33583
X35748Y33189
X35748Y32795
X35846Y31378
T5
X530Y38335
X530Y36835
X1358Y38335
X1358Y36835
X2205Y38329
X2205Y36829
X3031Y38329
X3031Y36829
X3878Y38348
X3878Y36848
X4705Y38348
X4705Y36848
X5512Y38368
X5512Y36868
X6319Y38368
X6319Y36868
X7106Y38368
X7106Y36868
X7953Y38388
X7953Y36888
X8740Y38388
X8740Y36888
X9528Y38388
X9528Y36888
X10335Y38368
X10335Y36868
X11220Y38270
X11220Y36770
X12087Y38289
X12087Y36789
X12953Y38346
X12953Y36417
X13917Y38327
X13917Y36398
X14744Y38348
X14744Y36848
X15591Y38307
X15591Y36378
X17008Y38388
X17008Y36888
X17795Y38388
X17795Y36888
X18642Y42482
X18642Y40982
X18661Y38388
X18661Y36888
X19449Y38388
X19449Y36888
X19626Y42463
X19626Y40963
X21240Y38171
X21240Y36671
X22165Y38150
X22165Y36220
X23091Y38167
X23091Y36238
X24350Y37994
X24350Y36494
X25177Y38189
X25177Y36260
X26024Y38171
X26024Y36671
X26791Y38171
X26791Y36671
X27598Y38189
X27598Y36260
X28484Y38191
X28484Y36691
X29449Y38211
X29449Y36711
X30217Y38211
X30217Y36711
X31024Y38207
X31024Y36278
X31967Y38187
X31967Y36258
X32867Y38189
X32867Y36689
X33667Y38189
X33667Y36689
X34467Y38208
X34467Y36708
X35354Y38171
X35354Y36671
X36240Y38191
X36240Y36691
X37165Y38211
X37165Y36711
X37236Y35943
X37236Y34443
T6
X906Y30177
X1713Y35079
X1713Y33878
X2106Y30177
X4882Y34902
X4882Y33701
X5335Y29902
X6535Y29902
X7559Y34921
X7559Y33720
X10768Y34941
X10768Y33740
X17992Y33392
X17992Y34843
X17992Y34094
X17993Y35545
X19173Y33392
X19173Y34843
X19173Y34094
X19174Y35545
X28563Y34606
X28563Y33406
X31791Y34409
X31791Y33209
X34055Y29409
X34705Y34370
X34705Y33169
X35256Y29409
T7
X3681Y42953
X3681Y41378
X3681Y39803
X5256Y42953
X5256Y41378
X5256Y39803
X6634Y42953
X6634Y41378
X6634Y39803
X8012Y42953
X8012Y41378
X8012Y39803
X9390Y42953
X9390Y41378
X9390Y39803
X10768Y42953
X10768Y41378
X10768Y39803
X12146Y42953
X12146Y41378
X12146Y39803
X13720Y42953
X13720Y41378
X13720Y39803
X24272Y42953
X24272Y41378
X24272Y39803
X25846Y42953
X25846Y41378
X25846Y39803
X27224Y42953
X27224Y41378
X27224Y39803
X28602Y42953
X28602Y41378
X28602Y39803
X29980Y42953
X29980Y41378
X29980Y39803
X31358Y42953
X31358Y41378
X31358Y39803
X32736Y42953
X32736Y41378
X32736Y39803
X34311Y42953
X34311Y41378
X34311Y39803
T9
X1891Y3393
X36200Y3493
T10
X10866Y2559
X12598Y2559
T8
X866Y42756G85X866Y41575
G05
X16535Y42756G85X16535Y41575
G05
X21457Y42756G85X21457Y41575
G05
X37126Y42756G85X37126Y41575
G05
T0
M30
