G04 #@! TF.GenerationSoftware,KiCad,Pcbnew,(6.0.1)*
G04 #@! TF.CreationDate,2022-04-27T16:07:10+03:00*
G04 #@! TF.ProjectId,alphax_4ch,616c7068-6178-45f3-9463-682e6b696361,a*
G04 #@! TF.SameCoordinates,PX141f5e0PYa2cace0*
G04 #@! TF.FileFunction,Soldermask,Bot*
G04 #@! TF.FilePolarity,Negative*
%FSLAX46Y46*%
G04 Gerber Fmt 4.6, Leading zero omitted, Abs format (unit mm)*
G04 Created by KiCad (PCBNEW (6.0.1)) date 2022-04-27 16:07:10*
%MOMM*%
%LPD*%
G01*
G04 APERTURE LIST*
%ADD10C,0.120000*%
%ADD11C,0.599999*%
%ADD12C,1.524000*%
%ADD13C,6.000000*%
%ADD14O,2.900000X5.900000*%
%ADD15O,2.400000X2.900000*%
%ADD16C,1.000000*%
%ADD17C,2.000000*%
G04 APERTURE END LIST*
D10*
G04 #@! TO.C,U4*
X9850000Y200000D02*
X9850000Y7200000D01*
X9850000Y7200000D02*
X22850000Y7200000D01*
X22850000Y7200000D02*
X22850000Y200000D01*
X22850000Y200000D02*
X9850000Y200000D01*
G36*
X22850000Y200000D02*
G01*
X9850000Y200000D01*
X9850000Y7200000D01*
X22850000Y7200000D01*
X22850000Y200000D01*
G37*
X22850000Y200000D02*
X9850000Y200000D01*
X9850000Y7200000D01*
X22850000Y7200000D01*
X22850000Y200000D01*
G04 #@! TD*
D11*
G04 #@! TO.C,M4*
X84879890Y13375000D03*
X80804884Y13675002D03*
X86729899Y6499999D03*
X85419899Y7150016D03*
X86729899Y8449983D03*
X84969893Y8774999D03*
X84894886Y9625022D03*
X84679891Y10499981D03*
X86729899Y11049978D03*
X84894889Y11474986D03*
G04 #@! TD*
D12*
G04 #@! TO.C,R8*
X76750000Y93245000D03*
X76750000Y97055000D03*
G04 #@! TD*
D13*
G04 #@! TO.C,J8*
X4803000Y8619000D03*
G04 #@! TD*
D12*
G04 #@! TO.C,R59*
X45200000Y97505000D03*
X45200000Y93695000D03*
G04 #@! TD*
G04 #@! TO.C,R9*
X74800000Y93245000D03*
X74800000Y97055000D03*
G04 #@! TD*
G04 #@! TO.C,R68*
X24200000Y93695000D03*
X24200000Y97505000D03*
G04 #@! TD*
G04 #@! TO.C,F4*
X63950000Y97000000D03*
X63950000Y92100000D03*
G04 #@! TD*
G04 #@! TO.C,R91*
X94580000Y87485000D03*
X94580000Y91295000D03*
G04 #@! TD*
G04 #@! TO.C,M5*
G36*
G01*
X61299998Y63946477D02*
X61549998Y63946477D01*
G75*
G02*
X61674998Y63821477I0J-125000D01*
G01*
X61674998Y63821477D01*
G75*
G02*
X61549998Y63696477I-125000J0D01*
G01*
X61299998Y63696477D01*
G75*
G02*
X61174998Y63821477I0J125000D01*
G01*
X61174998Y63821477D01*
G75*
G02*
X61299998Y63946477I125000J0D01*
G01*
G37*
G36*
G01*
X61299998Y64606478D02*
X61549998Y64606478D01*
G75*
G02*
X61674998Y64481478I0J-125000D01*
G01*
X61674998Y64481478D01*
G75*
G02*
X61549998Y64356478I-125000J0D01*
G01*
X61299998Y64356478D01*
G75*
G02*
X61174998Y64481478I0J125000D01*
G01*
X61174998Y64481478D01*
G75*
G02*
X61299998Y64606478I125000J0D01*
G01*
G37*
G36*
G01*
X61299998Y65266479D02*
X61549998Y65266479D01*
G75*
G02*
X61674998Y65141479I0J-125000D01*
G01*
X61674998Y65141479D01*
G75*
G02*
X61549998Y65016479I-125000J0D01*
G01*
X61299998Y65016479D01*
G75*
G02*
X61174998Y65141479I0J125000D01*
G01*
X61174998Y65141479D01*
G75*
G02*
X61299998Y65266479I125000J0D01*
G01*
G37*
G36*
G01*
X61299998Y65926480D02*
X61549998Y65926480D01*
G75*
G02*
X61674998Y65801480I0J-125000D01*
G01*
X61674998Y65801480D01*
G75*
G02*
X61549998Y65676480I-125000J0D01*
G01*
X61299998Y65676480D01*
G75*
G02*
X61174998Y65801480I0J125000D01*
G01*
X61174998Y65801480D01*
G75*
G02*
X61299998Y65926480I125000J0D01*
G01*
G37*
G36*
G01*
X61299998Y69226487D02*
X61549998Y69226487D01*
G75*
G02*
X61674998Y69101487I0J-125000D01*
G01*
X61674998Y69101487D01*
G75*
G02*
X61549998Y68976487I-125000J0D01*
G01*
X61299998Y68976487D01*
G75*
G02*
X61174998Y69101487I0J125000D01*
G01*
X61174998Y69101487D01*
G75*
G02*
X61299998Y69226487I125000J0D01*
G01*
G37*
G36*
G01*
X90070000Y55727684D02*
X90070000Y55977684D01*
G75*
G02*
X90195000Y56102684I125000J0D01*
G01*
X90195000Y56102684D01*
G75*
G02*
X90320000Y55977684I0J-125000D01*
G01*
X90320000Y55727684D01*
G75*
G02*
X90195000Y55602684I-125000J0D01*
G01*
X90195000Y55602684D01*
G75*
G02*
X90070000Y55727684I0J125000D01*
G01*
G37*
G36*
G01*
X89219996Y55977684D02*
X89219996Y55727684D01*
G75*
G02*
X89094996Y55602684I-125000J0D01*
G01*
X89094996Y55602684D01*
G75*
G02*
X88969996Y55727684I0J125000D01*
G01*
X88969996Y55977684D01*
G75*
G02*
X89094996Y56102684I125000J0D01*
G01*
X89094996Y56102684D01*
G75*
G02*
X89219996Y55977684I0J-125000D01*
G01*
G37*
G36*
G01*
X88119995Y55977684D02*
X88119995Y55727684D01*
G75*
G02*
X87994995Y55602684I-125000J0D01*
G01*
X87994995Y55602684D01*
G75*
G02*
X87869995Y55727684I0J125000D01*
G01*
X87869995Y55977684D01*
G75*
G02*
X87994995Y56102684I125000J0D01*
G01*
X87994995Y56102684D01*
G75*
G02*
X88119995Y55977684I0J-125000D01*
G01*
G37*
G36*
G01*
X87019998Y55977684D02*
X87019998Y55727684D01*
G75*
G02*
X86894998Y55602684I-125000J0D01*
G01*
X86894998Y55602684D01*
G75*
G02*
X86769998Y55727684I0J125000D01*
G01*
X86769998Y55977684D01*
G75*
G02*
X86894998Y56102684I125000J0D01*
G01*
X86894998Y56102684D01*
G75*
G02*
X87019998Y55977684I0J-125000D01*
G01*
G37*
G36*
G01*
X85920000Y55977684D02*
X85920000Y55727684D01*
G75*
G02*
X85795000Y55602684I-125000J0D01*
G01*
X85795000Y55602684D01*
G75*
G02*
X85670000Y55727684I0J125000D01*
G01*
X85670000Y55977684D01*
G75*
G02*
X85795000Y56102684I125000J0D01*
G01*
X85795000Y56102684D01*
G75*
G02*
X85920000Y55977684I0J-125000D01*
G01*
G37*
G36*
G01*
X84820002Y55977684D02*
X84820002Y55727684D01*
G75*
G02*
X84695002Y55602684I-125000J0D01*
G01*
X84695002Y55602684D01*
G75*
G02*
X84570002Y55727684I0J125000D01*
G01*
X84570002Y55977684D01*
G75*
G02*
X84695002Y56102684I125000J0D01*
G01*
X84695002Y56102684D01*
G75*
G02*
X84820002Y55977684I0J-125000D01*
G01*
G37*
G36*
G01*
X83720004Y55977684D02*
X83720004Y55727684D01*
G75*
G02*
X83595004Y55602684I-125000J0D01*
G01*
X83595004Y55602684D01*
G75*
G02*
X83470004Y55727684I0J125000D01*
G01*
X83470004Y55977684D01*
G75*
G02*
X83595004Y56102684I125000J0D01*
G01*
X83595004Y56102684D01*
G75*
G02*
X83720004Y55977684I0J-125000D01*
G01*
G37*
G36*
G01*
X82620006Y55977684D02*
X82620006Y55727684D01*
G75*
G02*
X82495006Y55602684I-125000J0D01*
G01*
X82495006Y55602684D01*
G75*
G02*
X82370006Y55727684I0J125000D01*
G01*
X82370006Y55977684D01*
G75*
G02*
X82495006Y56102684I125000J0D01*
G01*
X82495006Y56102684D01*
G75*
G02*
X82620006Y55977684I0J-125000D01*
G01*
G37*
G36*
G01*
X81520009Y55977684D02*
X81520009Y55727684D01*
G75*
G02*
X81395009Y55602684I-125000J0D01*
G01*
X81395009Y55602684D01*
G75*
G02*
X81270009Y55727684I0J125000D01*
G01*
X81270009Y55977684D01*
G75*
G02*
X81395009Y56102684I125000J0D01*
G01*
X81395009Y56102684D01*
G75*
G02*
X81520009Y55977684I0J-125000D01*
G01*
G37*
G36*
G01*
X80420011Y55977684D02*
X80420011Y55727684D01*
G75*
G02*
X80295011Y55602684I-125000J0D01*
G01*
X80295011Y55602684D01*
G75*
G02*
X80170011Y55727684I0J125000D01*
G01*
X80170011Y55977684D01*
G75*
G02*
X80295011Y56102684I125000J0D01*
G01*
X80295011Y56102684D01*
G75*
G02*
X80420011Y55977684I0J-125000D01*
G01*
G37*
G36*
G01*
X79320013Y55977684D02*
X79320013Y55727684D01*
G75*
G02*
X79195013Y55602684I-125000J0D01*
G01*
X79195013Y55602684D01*
G75*
G02*
X79070013Y55727684I0J125000D01*
G01*
X79070013Y55977684D01*
G75*
G02*
X79195013Y56102684I125000J0D01*
G01*
X79195013Y56102684D01*
G75*
G02*
X79320013Y55977684I0J-125000D01*
G01*
G37*
G36*
G01*
X78220015Y55977684D02*
X78220015Y55727684D01*
G75*
G02*
X78095015Y55602684I-125000J0D01*
G01*
X78095015Y55602684D01*
G75*
G02*
X77970015Y55727684I0J125000D01*
G01*
X77970015Y55977684D01*
G75*
G02*
X78095015Y56102684I125000J0D01*
G01*
X78095015Y56102684D01*
G75*
G02*
X78220015Y55977684I0J-125000D01*
G01*
G37*
G36*
G01*
X77120017Y55977684D02*
X77120017Y55727684D01*
G75*
G02*
X76995017Y55602684I-125000J0D01*
G01*
X76995017Y55602684D01*
G75*
G02*
X76870017Y55727684I0J125000D01*
G01*
X76870017Y55977684D01*
G75*
G02*
X76995017Y56102684I125000J0D01*
G01*
X76995017Y56102684D01*
G75*
G02*
X77120017Y55977684I0J-125000D01*
G01*
G37*
G36*
G01*
X76020020Y55977684D02*
X76020020Y55727684D01*
G75*
G02*
X75895020Y55602684I-125000J0D01*
G01*
X75895020Y55602684D01*
G75*
G02*
X75770020Y55727684I0J125000D01*
G01*
X75770020Y55977684D01*
G75*
G02*
X75895020Y56102684I125000J0D01*
G01*
X75895020Y56102684D01*
G75*
G02*
X76020020Y55977684I0J-125000D01*
G01*
G37*
G36*
G01*
X74920022Y55977684D02*
X74920022Y55727684D01*
G75*
G02*
X74795022Y55602684I-125000J0D01*
G01*
X74795022Y55602684D01*
G75*
G02*
X74670022Y55727684I0J125000D01*
G01*
X74670022Y55977684D01*
G75*
G02*
X74795022Y56102684I125000J0D01*
G01*
X74795022Y56102684D01*
G75*
G02*
X74920022Y55977684I0J-125000D01*
G01*
G37*
G36*
G01*
X73820024Y55977684D02*
X73820024Y55727684D01*
G75*
G02*
X73695024Y55602684I-125000J0D01*
G01*
X73695024Y55602684D01*
G75*
G02*
X73570024Y55727684I0J125000D01*
G01*
X73570024Y55977684D01*
G75*
G02*
X73695024Y56102684I125000J0D01*
G01*
X73695024Y56102684D01*
G75*
G02*
X73820024Y55977684I0J-125000D01*
G01*
G37*
G36*
G01*
X72720026Y55977684D02*
X72720026Y55727684D01*
G75*
G02*
X72595026Y55602684I-125000J0D01*
G01*
X72595026Y55602684D01*
G75*
G02*
X72470026Y55727684I0J125000D01*
G01*
X72470026Y55977684D01*
G75*
G02*
X72595026Y56102684I125000J0D01*
G01*
X72595026Y56102684D01*
G75*
G02*
X72720026Y55977684I0J-125000D01*
G01*
G37*
G36*
G01*
X71620028Y55977684D02*
X71620028Y55727684D01*
G75*
G02*
X71495028Y55602684I-125000J0D01*
G01*
X71495028Y55602684D01*
G75*
G02*
X71370028Y55727684I0J125000D01*
G01*
X71370028Y55977684D01*
G75*
G02*
X71495028Y56102684I125000J0D01*
G01*
X71495028Y56102684D01*
G75*
G02*
X71620028Y55977684I0J-125000D01*
G01*
G37*
G36*
G01*
X70520031Y55977684D02*
X70520031Y55727684D01*
G75*
G02*
X70395031Y55602684I-125000J0D01*
G01*
X70395031Y55602684D01*
G75*
G02*
X70270031Y55727684I0J125000D01*
G01*
X70270031Y55977684D01*
G75*
G02*
X70395031Y56102684I125000J0D01*
G01*
X70395031Y56102684D01*
G75*
G02*
X70520031Y55977684I0J-125000D01*
G01*
G37*
G36*
G01*
X69420033Y55977684D02*
X69420033Y55727684D01*
G75*
G02*
X69295033Y55602684I-125000J0D01*
G01*
X69295033Y55602684D01*
G75*
G02*
X69170033Y55727684I0J125000D01*
G01*
X69170033Y55977684D01*
G75*
G02*
X69295033Y56102684I125000J0D01*
G01*
X69295033Y56102684D01*
G75*
G02*
X69420033Y55977684I0J-125000D01*
G01*
G37*
G36*
G01*
X68320035Y55977684D02*
X68320035Y55727684D01*
G75*
G02*
X68195035Y55602684I-125000J0D01*
G01*
X68195035Y55602684D01*
G75*
G02*
X68070035Y55727684I0J125000D01*
G01*
X68070035Y55977684D01*
G75*
G02*
X68195035Y56102684I125000J0D01*
G01*
X68195035Y56102684D01*
G75*
G02*
X68320035Y55977684I0J-125000D01*
G01*
G37*
G36*
G01*
X67220037Y55977684D02*
X67220037Y55727684D01*
G75*
G02*
X67095037Y55602684I-125000J0D01*
G01*
X67095037Y55602684D01*
G75*
G02*
X66970037Y55727684I0J125000D01*
G01*
X66970037Y55977684D01*
G75*
G02*
X67095037Y56102684I125000J0D01*
G01*
X67095037Y56102684D01*
G75*
G02*
X67220037Y55977684I0J-125000D01*
G01*
G37*
G36*
G01*
X66120039Y55977684D02*
X66120039Y55727684D01*
G75*
G02*
X65995039Y55602684I-125000J0D01*
G01*
X65995039Y55602684D01*
G75*
G02*
X65870039Y55727684I0J125000D01*
G01*
X65870039Y55977684D01*
G75*
G02*
X65995039Y56102684I125000J0D01*
G01*
X65995039Y56102684D01*
G75*
G02*
X66120039Y55977684I0J-125000D01*
G01*
G37*
G36*
G01*
X65020042Y55977684D02*
X65020042Y55727684D01*
G75*
G02*
X64895042Y55602684I-125000J0D01*
G01*
X64895042Y55602684D01*
G75*
G02*
X64770042Y55727684I0J125000D01*
G01*
X64770042Y55977684D01*
G75*
G02*
X64895042Y56102684I125000J0D01*
G01*
X64895042Y56102684D01*
G75*
G02*
X65020042Y55977684I0J-125000D01*
G01*
G37*
G36*
G01*
X63920044Y55977684D02*
X63920044Y55727684D01*
G75*
G02*
X63795044Y55602684I-125000J0D01*
G01*
X63795044Y55602684D01*
G75*
G02*
X63670044Y55727684I0J125000D01*
G01*
X63670044Y55977684D01*
G75*
G02*
X63795044Y56102684I125000J0D01*
G01*
X63795044Y56102684D01*
G75*
G02*
X63920044Y55977684I0J-125000D01*
G01*
G37*
G36*
G01*
X62820046Y55977684D02*
X62820046Y55727684D01*
G75*
G02*
X62695046Y55602684I-125000J0D01*
G01*
X62695046Y55602684D01*
G75*
G02*
X62570046Y55727684I0J125000D01*
G01*
X62570046Y55977684D01*
G75*
G02*
X62695046Y56102684I125000J0D01*
G01*
X62695046Y56102684D01*
G75*
G02*
X62820046Y55977684I0J-125000D01*
G01*
G37*
G36*
G01*
X63070990Y69939683D02*
X63070990Y69689683D01*
G75*
G02*
X62945990Y69564683I-125000J0D01*
G01*
X62945990Y69564683D01*
G75*
G02*
X62820990Y69689683I0J125000D01*
G01*
X62820990Y69939683D01*
G75*
G02*
X62945990Y70064683I125000J0D01*
G01*
X62945990Y70064683D01*
G75*
G02*
X63070990Y69939683I0J-125000D01*
G01*
G37*
G36*
G01*
X63730992Y69939683D02*
X63730992Y69689683D01*
G75*
G02*
X63605992Y69564683I-125000J0D01*
G01*
X63605992Y69564683D01*
G75*
G02*
X63480992Y69689683I0J125000D01*
G01*
X63480992Y69939683D01*
G75*
G02*
X63605992Y70064683I125000J0D01*
G01*
X63605992Y70064683D01*
G75*
G02*
X63730992Y69939683I0J-125000D01*
G01*
G37*
G36*
G01*
X64390993Y69939683D02*
X64390993Y69689683D01*
G75*
G02*
X64265993Y69564683I-125000J0D01*
G01*
X64265993Y69564683D01*
G75*
G02*
X64140993Y69689683I0J125000D01*
G01*
X64140993Y69939683D01*
G75*
G02*
X64265993Y70064683I125000J0D01*
G01*
X64265993Y70064683D01*
G75*
G02*
X64390993Y69939683I0J-125000D01*
G01*
G37*
G36*
G01*
X65050994Y69939683D02*
X65050994Y69689683D01*
G75*
G02*
X64925994Y69564683I-125000J0D01*
G01*
X64925994Y69564683D01*
G75*
G02*
X64800994Y69689683I0J125000D01*
G01*
X64800994Y69939683D01*
G75*
G02*
X64925994Y70064683I125000J0D01*
G01*
X64925994Y70064683D01*
G75*
G02*
X65050994Y69939683I0J-125000D01*
G01*
G37*
G36*
G01*
X65710995Y69939683D02*
X65710995Y69689683D01*
G75*
G02*
X65585995Y69564683I-125000J0D01*
G01*
X65585995Y69564683D01*
G75*
G02*
X65460995Y69689683I0J125000D01*
G01*
X65460995Y69939683D01*
G75*
G02*
X65585995Y70064683I125000J0D01*
G01*
X65585995Y70064683D01*
G75*
G02*
X65710995Y69939683I0J-125000D01*
G01*
G37*
G36*
G01*
X66370997Y69939683D02*
X66370997Y69689683D01*
G75*
G02*
X66245997Y69564683I-125000J0D01*
G01*
X66245997Y69564683D01*
G75*
G02*
X66120997Y69689683I0J125000D01*
G01*
X66120997Y69939683D01*
G75*
G02*
X66245997Y70064683I125000J0D01*
G01*
X66245997Y70064683D01*
G75*
G02*
X66370997Y69939683I0J-125000D01*
G01*
G37*
G36*
G01*
X67971994Y69939683D02*
X67971994Y69689683D01*
G75*
G02*
X67846994Y69564683I-125000J0D01*
G01*
X67846994Y69564683D01*
G75*
G02*
X67721994Y69689683I0J125000D01*
G01*
X67721994Y69939683D01*
G75*
G02*
X67846994Y70064683I125000J0D01*
G01*
X67846994Y70064683D01*
G75*
G02*
X67971994Y69939683I0J-125000D01*
G01*
G37*
G36*
G01*
X68631995Y69939683D02*
X68631995Y69689683D01*
G75*
G02*
X68506995Y69564683I-125000J0D01*
G01*
X68506995Y69564683D01*
G75*
G02*
X68381995Y69689683I0J125000D01*
G01*
X68381995Y69939683D01*
G75*
G02*
X68506995Y70064683I125000J0D01*
G01*
X68506995Y70064683D01*
G75*
G02*
X68631995Y69939683I0J-125000D01*
G01*
G37*
G36*
G01*
X69291997Y69939683D02*
X69291997Y69689683D01*
G75*
G02*
X69166997Y69564683I-125000J0D01*
G01*
X69166997Y69564683D01*
G75*
G02*
X69041997Y69689683I0J125000D01*
G01*
X69041997Y69939683D01*
G75*
G02*
X69166997Y70064683I125000J0D01*
G01*
X69166997Y70064683D01*
G75*
G02*
X69291997Y69939683I0J-125000D01*
G01*
G37*
G36*
G01*
X70412896Y69939683D02*
X70412896Y69689683D01*
G75*
G02*
X70287896Y69564683I-125000J0D01*
G01*
X70287896Y69564683D01*
G75*
G02*
X70162896Y69689683I0J125000D01*
G01*
X70162896Y69939683D01*
G75*
G02*
X70287896Y70064683I125000J0D01*
G01*
X70287896Y70064683D01*
G75*
G02*
X70412896Y69939683I0J-125000D01*
G01*
G37*
G36*
G01*
X71072897Y69939683D02*
X71072897Y69689683D01*
G75*
G02*
X70947897Y69564683I-125000J0D01*
G01*
X70947897Y69564683D01*
G75*
G02*
X70822897Y69689683I0J125000D01*
G01*
X70822897Y69939683D01*
G75*
G02*
X70947897Y70064683I125000J0D01*
G01*
X70947897Y70064683D01*
G75*
G02*
X71072897Y69939683I0J-125000D01*
G01*
G37*
G36*
G01*
X71732898Y69939683D02*
X71732898Y69689683D01*
G75*
G02*
X71607898Y69564683I-125000J0D01*
G01*
X71607898Y69564683D01*
G75*
G02*
X71482898Y69689683I0J125000D01*
G01*
X71482898Y69939683D01*
G75*
G02*
X71607898Y70064683I125000J0D01*
G01*
X71607898Y70064683D01*
G75*
G02*
X71732898Y69939683I0J-125000D01*
G01*
G37*
G36*
G01*
X72392900Y69939683D02*
X72392900Y69689683D01*
G75*
G02*
X72267900Y69564683I-125000J0D01*
G01*
X72267900Y69564683D01*
G75*
G02*
X72142900Y69689683I0J125000D01*
G01*
X72142900Y69939683D01*
G75*
G02*
X72267900Y70064683I125000J0D01*
G01*
X72267900Y70064683D01*
G75*
G02*
X72392900Y69939683I0J-125000D01*
G01*
G37*
G36*
G01*
X75718994Y69939683D02*
X75718994Y69689683D01*
G75*
G02*
X75593994Y69564683I-125000J0D01*
G01*
X75593994Y69564683D01*
G75*
G02*
X75468994Y69689683I0J125000D01*
G01*
X75468994Y69939683D01*
G75*
G02*
X75593994Y70064683I125000J0D01*
G01*
X75593994Y70064683D01*
G75*
G02*
X75718994Y69939683I0J-125000D01*
G01*
G37*
G36*
G01*
X76378995Y69939683D02*
X76378995Y69689683D01*
G75*
G02*
X76253995Y69564683I-125000J0D01*
G01*
X76253995Y69564683D01*
G75*
G02*
X76128995Y69689683I0J125000D01*
G01*
X76128995Y69939683D01*
G75*
G02*
X76253995Y70064683I125000J0D01*
G01*
X76253995Y70064683D01*
G75*
G02*
X76378995Y69939683I0J-125000D01*
G01*
G37*
G36*
G01*
X77038997Y69939683D02*
X77038997Y69689683D01*
G75*
G02*
X76913997Y69564683I-125000J0D01*
G01*
X76913997Y69564683D01*
G75*
G02*
X76788997Y69689683I0J125000D01*
G01*
X76788997Y69939683D01*
G75*
G02*
X76913997Y70064683I125000J0D01*
G01*
X76913997Y70064683D01*
G75*
G02*
X77038997Y69939683I0J-125000D01*
G01*
G37*
G36*
G01*
X79684988Y69939683D02*
X79684988Y69689683D01*
G75*
G02*
X79559988Y69564683I-125000J0D01*
G01*
X79559988Y69564683D01*
G75*
G02*
X79434988Y69689683I0J125000D01*
G01*
X79434988Y69939683D01*
G75*
G02*
X79559988Y70064683I125000J0D01*
G01*
X79559988Y70064683D01*
G75*
G02*
X79684988Y69939683I0J-125000D01*
G01*
G37*
G36*
G01*
X80344989Y69939683D02*
X80344989Y69689683D01*
G75*
G02*
X80219989Y69564683I-125000J0D01*
G01*
X80219989Y69564683D01*
G75*
G02*
X80094989Y69689683I0J125000D01*
G01*
X80094989Y69939683D01*
G75*
G02*
X80219989Y70064683I125000J0D01*
G01*
X80219989Y70064683D01*
G75*
G02*
X80344989Y69939683I0J-125000D01*
G01*
G37*
G36*
G01*
X81004991Y69939683D02*
X81004991Y69689683D01*
G75*
G02*
X80879991Y69564683I-125000J0D01*
G01*
X80879991Y69564683D01*
G75*
G02*
X80754991Y69689683I0J125000D01*
G01*
X80754991Y69939683D01*
G75*
G02*
X80879991Y70064683I125000J0D01*
G01*
X80879991Y70064683D01*
G75*
G02*
X81004991Y69939683I0J-125000D01*
G01*
G37*
G36*
G01*
X81664992Y69939683D02*
X81664992Y69689683D01*
G75*
G02*
X81539992Y69564683I-125000J0D01*
G01*
X81539992Y69564683D01*
G75*
G02*
X81414992Y69689683I0J125000D01*
G01*
X81414992Y69939683D01*
G75*
G02*
X81539992Y70064683I125000J0D01*
G01*
X81539992Y70064683D01*
G75*
G02*
X81664992Y69939683I0J-125000D01*
G01*
G37*
G36*
G01*
X82324993Y69939683D02*
X82324993Y69689683D01*
G75*
G02*
X82199993Y69564683I-125000J0D01*
G01*
X82199993Y69564683D01*
G75*
G02*
X82074993Y69689683I0J125000D01*
G01*
X82074993Y69939683D01*
G75*
G02*
X82199993Y70064683I125000J0D01*
G01*
X82199993Y70064683D01*
G75*
G02*
X82324993Y69939683I0J-125000D01*
G01*
G37*
G36*
G01*
X82984994Y69939683D02*
X82984994Y69689683D01*
G75*
G02*
X82859994Y69564683I-125000J0D01*
G01*
X82859994Y69564683D01*
G75*
G02*
X82734994Y69689683I0J125000D01*
G01*
X82734994Y69939683D01*
G75*
G02*
X82859994Y70064683I125000J0D01*
G01*
X82859994Y70064683D01*
G75*
G02*
X82984994Y69939683I0J-125000D01*
G01*
G37*
G36*
G01*
X83644996Y69939683D02*
X83644996Y69689683D01*
G75*
G02*
X83519996Y69564683I-125000J0D01*
G01*
X83519996Y69564683D01*
G75*
G02*
X83394996Y69689683I0J125000D01*
G01*
X83394996Y69939683D01*
G75*
G02*
X83519996Y70064683I125000J0D01*
G01*
X83519996Y70064683D01*
G75*
G02*
X83644996Y69939683I0J-125000D01*
G01*
G37*
G36*
G01*
X84304997Y69939683D02*
X84304997Y69689683D01*
G75*
G02*
X84179997Y69564683I-125000J0D01*
G01*
X84179997Y69564683D01*
G75*
G02*
X84054997Y69689683I0J125000D01*
G01*
X84054997Y69939683D01*
G75*
G02*
X84179997Y70064683I125000J0D01*
G01*
X84179997Y70064683D01*
G75*
G02*
X84304997Y69939683I0J-125000D01*
G01*
G37*
G36*
G01*
X84964998Y69939683D02*
X84964998Y69689683D01*
G75*
G02*
X84839998Y69564683I-125000J0D01*
G01*
X84839998Y69564683D01*
G75*
G02*
X84714998Y69689683I0J125000D01*
G01*
X84714998Y69939683D01*
G75*
G02*
X84839998Y70064683I125000J0D01*
G01*
X84839998Y70064683D01*
G75*
G02*
X84964998Y69939683I0J-125000D01*
G01*
G37*
G36*
G01*
X85625000Y69939683D02*
X85625000Y69689683D01*
G75*
G02*
X85500000Y69564683I-125000J0D01*
G01*
X85500000Y69564683D01*
G75*
G02*
X85375000Y69689683I0J125000D01*
G01*
X85375000Y69939683D01*
G75*
G02*
X85500000Y70064683I125000J0D01*
G01*
X85500000Y70064683D01*
G75*
G02*
X85625000Y69939683I0J-125000D01*
G01*
G37*
G04 #@! TD*
D14*
G04 #@! TO.C,P2*
X42300000Y107100000D03*
X2500000Y107100000D03*
D15*
X9650000Y101100000D03*
X13650000Y101100000D03*
X17150000Y101100000D03*
X20650000Y101100000D03*
X24150000Y101100000D03*
X27650000Y101100000D03*
X31150000Y101100000D03*
X35150000Y101100000D03*
X9650000Y105100000D03*
X13650000Y105100000D03*
X17150000Y105100000D03*
X20650000Y105100000D03*
X24150000Y105100000D03*
X27650000Y105100000D03*
X31150000Y105100000D03*
X35150000Y105100000D03*
X9650000Y109100000D03*
X13650000Y109100000D03*
X17150000Y109100000D03*
X20650000Y109100000D03*
X24150000Y109100000D03*
X27650000Y109100000D03*
X31150000Y109100000D03*
X35150000Y109100000D03*
G04 #@! TD*
D12*
G04 #@! TO.C,R11*
X47350000Y104095000D03*
X47350000Y107905000D03*
G04 #@! TD*
G04 #@! TO.C,R6*
X92050000Y93195000D03*
X92050000Y97005000D03*
G04 #@! TD*
G04 #@! TO.C,R60*
X43200000Y93695000D03*
X43200000Y97505000D03*
G04 #@! TD*
D16*
G04 #@! TO.C,J1*
X32000000Y6500000D03*
X27600000Y6500000D03*
G04 #@! TD*
D12*
G04 #@! TO.C,R66*
X3450000Y93561701D03*
X3450000Y97371701D03*
G04 #@! TD*
G04 #@! TO.C,R17*
X68050000Y93145000D03*
X68050000Y96955000D03*
G04 #@! TD*
G04 #@! TO.C,R63*
X22200000Y93695000D03*
X22200000Y97505000D03*
G04 #@! TD*
G04 #@! TO.C,R16*
X72350000Y93195000D03*
X72350000Y97005000D03*
G04 #@! TD*
G04 #@! TO.C,R70*
X11950000Y93595000D03*
X11950000Y97405000D03*
G04 #@! TD*
D11*
G04 #@! TO.C,M7*
X51750003Y5925001D03*
X52625005Y5400001D03*
X51450001Y4650003D03*
X51525004Y1100002D03*
G04 #@! TD*
G04 #@! TO.C,M1*
X27937888Y26083984D03*
X29262892Y17858984D03*
X34495386Y17876489D03*
X34987892Y19758985D03*
X36112878Y12408992D03*
G04 #@! TD*
G04 #@! TO.C,M3*
X25775000Y29300000D03*
X33275000Y29300000D03*
X34075000Y29300000D03*
X34875000Y29300000D03*
X27675000Y46825000D03*
X26675000Y46825000D03*
G04 #@! TD*
D12*
G04 #@! TO.C,R10*
X66100000Y93145000D03*
X66100000Y96955000D03*
G04 #@! TD*
G04 #@! TO.C,R62*
X28500000Y93395000D03*
X28500000Y97205000D03*
G04 #@! TD*
G04 #@! TO.C,R65*
X9850000Y93595000D03*
X9850000Y97405000D03*
G04 #@! TD*
G04 #@! TO.C,F7*
X32900000Y97399979D03*
X32900000Y92499979D03*
G04 #@! TD*
G04 #@! TO.C,R58*
X1347390Y93561701D03*
X1347390Y97371701D03*
G04 #@! TD*
G04 #@! TO.C,R56*
X14000000Y93645000D03*
X14000000Y97455000D03*
G04 #@! TD*
G04 #@! TO.C,R19*
X53950000Y93145000D03*
X53950000Y96955000D03*
G04 #@! TD*
G04 #@! TO.C,R67*
X26250000Y93645000D03*
X26250000Y97455000D03*
G04 #@! TD*
G04 #@! TO.C,F1*
X81196000Y96995000D03*
X81196000Y92095000D03*
G04 #@! TD*
G04 #@! TO.C,R14*
X89800000Y96955000D03*
X89800000Y93145000D03*
G04 #@! TD*
G04 #@! TO.C,R64*
X16050000Y93645000D03*
X16050000Y97455000D03*
G04 #@! TD*
G04 #@! TO.C,F3*
X70100000Y97000000D03*
X70100000Y92100000D03*
G04 #@! TD*
G04 #@! TO.C,R71*
X5600000Y93545000D03*
X5600000Y97355000D03*
G04 #@! TD*
G04 #@! TO.C,R61*
X30700000Y93445000D03*
X30700000Y97255000D03*
G04 #@! TD*
D13*
G04 #@! TO.C,J7*
X91948000Y8873000D03*
G04 #@! TD*
D12*
G04 #@! TO.C,R69*
X18050000Y93645000D03*
X18050000Y97455000D03*
G04 #@! TD*
G04 #@! TO.C,R55*
X20200000Y93695000D03*
X20200000Y97505000D03*
G04 #@! TD*
G04 #@! TO.C,F8*
X39600000Y97299979D03*
X39600000Y92399979D03*
G04 #@! TD*
G04 #@! TO.C,R54*
X37450000Y93595000D03*
X37450000Y97405000D03*
G04 #@! TD*
G04 #@! TO.C,R52*
X47400000Y93695000D03*
X47400000Y97505000D03*
G04 #@! TD*
G04 #@! TO.C,M6*
G36*
G01*
X46760503Y21803625D02*
X47010503Y21803625D01*
G75*
G02*
X47135503Y21678625I0J-125000D01*
G01*
X47135503Y21678625D01*
G75*
G02*
X47010503Y21553625I-125000J0D01*
G01*
X46760503Y21553625D01*
G75*
G02*
X46635503Y21678625I0J125000D01*
G01*
X46635503Y21678625D01*
G75*
G02*
X46760503Y21803625I125000J0D01*
G01*
G37*
G36*
G01*
X47010503Y22213623D02*
X46760503Y22213623D01*
G75*
G02*
X46635503Y22338623I0J125000D01*
G01*
X46635503Y22338623D01*
G75*
G02*
X46760503Y22463623I125000J0D01*
G01*
X47010503Y22463623D01*
G75*
G02*
X47135503Y22338623I0J-125000D01*
G01*
X47135503Y22338623D01*
G75*
G02*
X47010503Y22213623I-125000J0D01*
G01*
G37*
G36*
G01*
X47010503Y22873628D02*
X46760503Y22873628D01*
G75*
G02*
X46635503Y22998628I0J125000D01*
G01*
X46635503Y22998628D01*
G75*
G02*
X46760503Y23123628I125000J0D01*
G01*
X47010503Y23123628D01*
G75*
G02*
X47135503Y22998628I0J-125000D01*
G01*
X47135503Y22998628D01*
G75*
G02*
X47010503Y22873628I-125000J0D01*
G01*
G37*
G36*
G01*
X47010503Y23533623D02*
X46760503Y23533623D01*
G75*
G02*
X46635503Y23658623I0J125000D01*
G01*
X46635503Y23658623D01*
G75*
G02*
X46760503Y23783623I125000J0D01*
G01*
X47010503Y23783623D01*
G75*
G02*
X47135503Y23658623I0J-125000D01*
G01*
X47135503Y23658623D01*
G75*
G02*
X47010503Y23533623I-125000J0D01*
G01*
G37*
G36*
G01*
X47010503Y24193625D02*
X46760503Y24193625D01*
G75*
G02*
X46635503Y24318625I0J125000D01*
G01*
X46635503Y24318625D01*
G75*
G02*
X46760503Y24443625I125000J0D01*
G01*
X47010503Y24443625D01*
G75*
G02*
X47135503Y24318625I0J-125000D01*
G01*
X47135503Y24318625D01*
G75*
G02*
X47010503Y24193625I-125000J0D01*
G01*
G37*
G36*
G01*
X47010503Y27493626D02*
X46760503Y27493626D01*
G75*
G02*
X46635503Y27618626I0J125000D01*
G01*
X46635503Y27618626D01*
G75*
G02*
X46760503Y27743626I125000J0D01*
G01*
X47010503Y27743626D01*
G75*
G02*
X47135503Y27618626I0J-125000D01*
G01*
X47135503Y27618626D01*
G75*
G02*
X47010503Y27493626I-125000J0D01*
G01*
G37*
G36*
G01*
X47010503Y28153627D02*
X46760503Y28153627D01*
G75*
G02*
X46635503Y28278627I0J125000D01*
G01*
X46635503Y28278627D01*
G75*
G02*
X46760503Y28403627I125000J0D01*
G01*
X47010503Y28403627D01*
G75*
G02*
X47135503Y28278627I0J-125000D01*
G01*
X47135503Y28278627D01*
G75*
G02*
X47010503Y28153627I-125000J0D01*
G01*
G37*
G36*
G01*
X47010503Y28813629D02*
X46760503Y28813629D01*
G75*
G02*
X46635503Y28938629I0J125000D01*
G01*
X46635503Y28938629D01*
G75*
G02*
X46760503Y29063629I125000J0D01*
G01*
X47010503Y29063629D01*
G75*
G02*
X47135503Y28938629I0J-125000D01*
G01*
X47135503Y28938629D01*
G75*
G02*
X47010503Y28813629I-125000J0D01*
G01*
G37*
G36*
G01*
X47010503Y29473627D02*
X46760503Y29473627D01*
G75*
G02*
X46635503Y29598627I0J125000D01*
G01*
X46635503Y29598627D01*
G75*
G02*
X46760503Y29723627I125000J0D01*
G01*
X47010503Y29723627D01*
G75*
G02*
X47135503Y29598627I0J-125000D01*
G01*
X47135503Y29598627D01*
G75*
G02*
X47010503Y29473627I-125000J0D01*
G01*
G37*
G36*
G01*
X47010503Y30133629D02*
X46760503Y30133629D01*
G75*
G02*
X46635503Y30258629I0J125000D01*
G01*
X46635503Y30258629D01*
G75*
G02*
X46760503Y30383629I125000J0D01*
G01*
X47010503Y30383629D01*
G75*
G02*
X47135503Y30258629I0J-125000D01*
G01*
X47135503Y30258629D01*
G75*
G02*
X47010503Y30133629I-125000J0D01*
G01*
G37*
G36*
G01*
X47010503Y30793627D02*
X46760503Y30793627D01*
G75*
G02*
X46635503Y30918627I0J125000D01*
G01*
X46635503Y30918627D01*
G75*
G02*
X46760503Y31043627I125000J0D01*
G01*
X47010503Y31043627D01*
G75*
G02*
X47135503Y30918627I0J-125000D01*
G01*
X47135503Y30918627D01*
G75*
G02*
X47010503Y30793627I-125000J0D01*
G01*
G37*
G36*
G01*
X47010503Y31453628D02*
X46760503Y31453628D01*
G75*
G02*
X46635503Y31578628I0J125000D01*
G01*
X46635503Y31578628D01*
G75*
G02*
X46760503Y31703628I125000J0D01*
G01*
X47010503Y31703628D01*
G75*
G02*
X47135503Y31578628I0J-125000D01*
G01*
X47135503Y31578628D01*
G75*
G02*
X47010503Y31453628I-125000J0D01*
G01*
G37*
G36*
G01*
X47010503Y32113627D02*
X46760503Y32113627D01*
G75*
G02*
X46635503Y32238627I0J125000D01*
G01*
X46635503Y32238627D01*
G75*
G02*
X46760503Y32363627I125000J0D01*
G01*
X47010503Y32363627D01*
G75*
G02*
X47135503Y32238627I0J-125000D01*
G01*
X47135503Y32238627D01*
G75*
G02*
X47010503Y32113627I-125000J0D01*
G01*
G37*
G36*
G01*
X47010503Y32773628D02*
X46760503Y32773628D01*
G75*
G02*
X46635503Y32898628I0J125000D01*
G01*
X46635503Y32898628D01*
G75*
G02*
X46760503Y33023628I125000J0D01*
G01*
X47010503Y33023628D01*
G75*
G02*
X47135503Y32898628I0J-125000D01*
G01*
X47135503Y32898628D01*
G75*
G02*
X47010503Y32773628I-125000J0D01*
G01*
G37*
G36*
G01*
X47010503Y33433627D02*
X46760503Y33433627D01*
G75*
G02*
X46635503Y33558627I0J125000D01*
G01*
X46635503Y33558627D01*
G75*
G02*
X46760503Y33683627I125000J0D01*
G01*
X47010503Y33683627D01*
G75*
G02*
X47135503Y33558627I0J-125000D01*
G01*
X47135503Y33558627D01*
G75*
G02*
X47010503Y33433627I-125000J0D01*
G01*
G37*
G36*
G01*
X47010503Y34093628D02*
X46760503Y34093628D01*
G75*
G02*
X46635503Y34218628I0J125000D01*
G01*
X46635503Y34218628D01*
G75*
G02*
X46760503Y34343628I125000J0D01*
G01*
X47010503Y34343628D01*
G75*
G02*
X47135503Y34218628I0J-125000D01*
G01*
X47135503Y34218628D01*
G75*
G02*
X47010503Y34093628I-125000J0D01*
G01*
G37*
G36*
G01*
X47010503Y34753627D02*
X46760503Y34753627D01*
G75*
G02*
X46635503Y34878627I0J125000D01*
G01*
X46635503Y34878627D01*
G75*
G02*
X46760503Y35003627I125000J0D01*
G01*
X47010503Y35003627D01*
G75*
G02*
X47135503Y34878627I0J-125000D01*
G01*
X47135503Y34878627D01*
G75*
G02*
X47010503Y34753627I-125000J0D01*
G01*
G37*
G36*
G01*
X47010503Y35413628D02*
X46760503Y35413628D01*
G75*
G02*
X46635503Y35538628I0J125000D01*
G01*
X46635503Y35538628D01*
G75*
G02*
X46760503Y35663628I125000J0D01*
G01*
X47010503Y35663628D01*
G75*
G02*
X47135503Y35538628I0J-125000D01*
G01*
X47135503Y35538628D01*
G75*
G02*
X47010503Y35413628I-125000J0D01*
G01*
G37*
G36*
G01*
X47010503Y36073627D02*
X46760503Y36073627D01*
G75*
G02*
X46635503Y36198627I0J125000D01*
G01*
X46635503Y36198627D01*
G75*
G02*
X46760503Y36323627I125000J0D01*
G01*
X47010503Y36323627D01*
G75*
G02*
X47135503Y36198627I0J-125000D01*
G01*
X47135503Y36198627D01*
G75*
G02*
X47010503Y36073627I-125000J0D01*
G01*
G37*
G36*
G01*
X47010503Y36733628D02*
X46760503Y36733628D01*
G75*
G02*
X46635503Y36858628I0J125000D01*
G01*
X46635503Y36858628D01*
G75*
G02*
X46760503Y36983628I125000J0D01*
G01*
X47010503Y36983628D01*
G75*
G02*
X47135503Y36858628I0J-125000D01*
G01*
X47135503Y36858628D01*
G75*
G02*
X47010503Y36733628I-125000J0D01*
G01*
G37*
G36*
G01*
X47010503Y37393627D02*
X46760503Y37393627D01*
G75*
G02*
X46635503Y37518627I0J125000D01*
G01*
X46635503Y37518627D01*
G75*
G02*
X46760503Y37643627I125000J0D01*
G01*
X47010503Y37643627D01*
G75*
G02*
X47135503Y37518627I0J-125000D01*
G01*
X47135503Y37518627D01*
G75*
G02*
X47010503Y37393627I-125000J0D01*
G01*
G37*
G36*
G01*
X47010503Y38053628D02*
X46760503Y38053628D01*
G75*
G02*
X46635503Y38178628I0J125000D01*
G01*
X46635503Y38178628D01*
G75*
G02*
X46760503Y38303628I125000J0D01*
G01*
X47010503Y38303628D01*
G75*
G02*
X47135503Y38178628I0J-125000D01*
G01*
X47135503Y38178628D01*
G75*
G02*
X47010503Y38053628I-125000J0D01*
G01*
G37*
G36*
G01*
X47010503Y38713627D02*
X46760503Y38713627D01*
G75*
G02*
X46635503Y38838627I0J125000D01*
G01*
X46635503Y38838627D01*
G75*
G02*
X46760503Y38963627I125000J0D01*
G01*
X47010503Y38963627D01*
G75*
G02*
X47135503Y38838627I0J-125000D01*
G01*
X47135503Y38838627D01*
G75*
G02*
X47010503Y38713627I-125000J0D01*
G01*
G37*
G36*
G01*
X47010503Y39373628D02*
X46760503Y39373628D01*
G75*
G02*
X46635503Y39498628I0J125000D01*
G01*
X46635503Y39498628D01*
G75*
G02*
X46760503Y39623628I125000J0D01*
G01*
X47010503Y39623628D01*
G75*
G02*
X47135503Y39498628I0J-125000D01*
G01*
X47135503Y39498628D01*
G75*
G02*
X47010503Y39373628I-125000J0D01*
G01*
G37*
G36*
G01*
X47010503Y40033627D02*
X46760503Y40033627D01*
G75*
G02*
X46635503Y40158627I0J125000D01*
G01*
X46635503Y40158627D01*
G75*
G02*
X46760503Y40283627I125000J0D01*
G01*
X47010503Y40283627D01*
G75*
G02*
X47135503Y40158627I0J-125000D01*
G01*
X47135503Y40158627D01*
G75*
G02*
X47010503Y40033627I-125000J0D01*
G01*
G37*
G36*
G01*
X47010503Y40693628D02*
X46760503Y40693628D01*
G75*
G02*
X46635503Y40818628I0J125000D01*
G01*
X46635503Y40818628D01*
G75*
G02*
X46760503Y40943628I125000J0D01*
G01*
X47010503Y40943628D01*
G75*
G02*
X47135503Y40818628I0J-125000D01*
G01*
X47135503Y40818628D01*
G75*
G02*
X47010503Y40693628I-125000J0D01*
G01*
G37*
G36*
G01*
X47010503Y41353626D02*
X46760503Y41353626D01*
G75*
G02*
X46635503Y41478626I0J125000D01*
G01*
X46635503Y41478626D01*
G75*
G02*
X46760503Y41603626I125000J0D01*
G01*
X47010503Y41603626D01*
G75*
G02*
X47135503Y41478626I0J-125000D01*
G01*
X47135503Y41478626D01*
G75*
G02*
X47010503Y41353626I-125000J0D01*
G01*
G37*
G36*
G01*
X47010503Y42013628D02*
X46760503Y42013628D01*
G75*
G02*
X46635503Y42138628I0J125000D01*
G01*
X46635503Y42138628D01*
G75*
G02*
X46760503Y42263628I125000J0D01*
G01*
X47010503Y42263628D01*
G75*
G02*
X47135503Y42138628I0J-125000D01*
G01*
X47135503Y42138628D01*
G75*
G02*
X47010503Y42013628I-125000J0D01*
G01*
G37*
G36*
G01*
X47010503Y42673626D02*
X46760503Y42673626D01*
G75*
G02*
X46635503Y42798626I0J125000D01*
G01*
X46635503Y42798626D01*
G75*
G02*
X46760503Y42923626I125000J0D01*
G01*
X47010503Y42923626D01*
G75*
G02*
X47135503Y42798626I0J-125000D01*
G01*
X47135503Y42798626D01*
G75*
G02*
X47010503Y42673626I-125000J0D01*
G01*
G37*
G36*
G01*
X47010503Y43333628D02*
X46760503Y43333628D01*
G75*
G02*
X46635503Y43458628I0J125000D01*
G01*
X46635503Y43458628D01*
G75*
G02*
X46760503Y43583628I125000J0D01*
G01*
X47010503Y43583628D01*
G75*
G02*
X47135503Y43458628I0J-125000D01*
G01*
X47135503Y43458628D01*
G75*
G02*
X47010503Y43333628I-125000J0D01*
G01*
G37*
G36*
G01*
X47010503Y43993626D02*
X46760503Y43993626D01*
G75*
G02*
X46635503Y44118626I0J125000D01*
G01*
X46635503Y44118626D01*
G75*
G02*
X46760503Y44243626I125000J0D01*
G01*
X47010503Y44243626D01*
G75*
G02*
X47135503Y44118626I0J-125000D01*
G01*
X47135503Y44118626D01*
G75*
G02*
X47010503Y43993626I-125000J0D01*
G01*
G37*
G36*
G01*
X47010503Y44653627D02*
X46760503Y44653627D01*
G75*
G02*
X46635503Y44778627I0J125000D01*
G01*
X46635503Y44778627D01*
G75*
G02*
X46760503Y44903627I125000J0D01*
G01*
X47010503Y44903627D01*
G75*
G02*
X47135503Y44778627I0J-125000D01*
G01*
X47135503Y44778627D01*
G75*
G02*
X47010503Y44653627I-125000J0D01*
G01*
G37*
G36*
G01*
X47010503Y45313626D02*
X46760503Y45313626D01*
G75*
G02*
X46635503Y45438626I0J125000D01*
G01*
X46635503Y45438626D01*
G75*
G02*
X46760503Y45563626I125000J0D01*
G01*
X47010503Y45563626D01*
G75*
G02*
X47135503Y45438626I0J-125000D01*
G01*
X47135503Y45438626D01*
G75*
G02*
X47010503Y45313626I-125000J0D01*
G01*
G37*
G36*
G01*
X47010503Y45973627D02*
X46760503Y45973627D01*
G75*
G02*
X46635503Y46098627I0J125000D01*
G01*
X46635503Y46098627D01*
G75*
G02*
X46760503Y46223627I125000J0D01*
G01*
X47010503Y46223627D01*
G75*
G02*
X47135503Y46098627I0J-125000D01*
G01*
X47135503Y46098627D01*
G75*
G02*
X47010503Y45973627I-125000J0D01*
G01*
G37*
G36*
G01*
X80707501Y17426623D02*
X80707501Y17676623D01*
G75*
G02*
X80832501Y17801623I125000J0D01*
G01*
X80832501Y17801623D01*
G75*
G02*
X80957501Y17676623I0J-125000D01*
G01*
X80957501Y17426623D01*
G75*
G02*
X80832501Y17301623I-125000J0D01*
G01*
X80832501Y17301623D01*
G75*
G02*
X80707501Y17426623I0J125000D01*
G01*
G37*
G36*
G01*
X79637499Y17676623D02*
X79637499Y17426623D01*
G75*
G02*
X79512499Y17301623I-125000J0D01*
G01*
X79512499Y17301623D01*
G75*
G02*
X79387499Y17426623I0J125000D01*
G01*
X79387499Y17676623D01*
G75*
G02*
X79512499Y17801623I125000J0D01*
G01*
X79512499Y17801623D01*
G75*
G02*
X79637499Y17676623I0J-125000D01*
G01*
G37*
G36*
G01*
X78317496Y17676623D02*
X78317496Y17426623D01*
G75*
G02*
X78192496Y17301623I-125000J0D01*
G01*
X78192496Y17301623D01*
G75*
G02*
X78067496Y17426623I0J125000D01*
G01*
X78067496Y17676623D01*
G75*
G02*
X78192496Y17801623I125000J0D01*
G01*
X78192496Y17801623D01*
G75*
G02*
X78317496Y17676623I0J-125000D01*
G01*
G37*
G36*
G01*
X77557498Y17676623D02*
X77557498Y17426623D01*
G75*
G02*
X77432498Y17301623I-125000J0D01*
G01*
X77432498Y17301623D01*
G75*
G02*
X77307498Y17426623I0J125000D01*
G01*
X77307498Y17676623D01*
G75*
G02*
X77432498Y17801623I125000J0D01*
G01*
X77432498Y17801623D01*
G75*
G02*
X77557498Y17676623I0J-125000D01*
G01*
G37*
G36*
G01*
X76892495Y17676623D02*
X76892495Y17426623D01*
G75*
G02*
X76767495Y17301623I-125000J0D01*
G01*
X76767495Y17301623D01*
G75*
G02*
X76642495Y17426623I0J125000D01*
G01*
X76642495Y17676623D01*
G75*
G02*
X76767495Y17801623I125000J0D01*
G01*
X76767495Y17801623D01*
G75*
G02*
X76892495Y17676623I0J-125000D01*
G01*
G37*
G36*
G01*
X76227493Y17676623D02*
X76227493Y17426623D01*
G75*
G02*
X76102493Y17301623I-125000J0D01*
G01*
X76102493Y17301623D01*
G75*
G02*
X75977493Y17426623I0J125000D01*
G01*
X75977493Y17676623D01*
G75*
G02*
X76102493Y17801623I125000J0D01*
G01*
X76102493Y17801623D01*
G75*
G02*
X76227493Y17676623I0J-125000D01*
G01*
G37*
G36*
G01*
X75562503Y17676623D02*
X75562503Y17426623D01*
G75*
G02*
X75437503Y17301623I-125000J0D01*
G01*
X75437503Y17301623D01*
G75*
G02*
X75312503Y17426623I0J125000D01*
G01*
X75312503Y17676623D01*
G75*
G02*
X75437503Y17801623I125000J0D01*
G01*
X75437503Y17801623D01*
G75*
G02*
X75562503Y17676623I0J-125000D01*
G01*
G37*
G36*
G01*
X74787503Y17676623D02*
X74787503Y17426623D01*
G75*
G02*
X74662503Y17301623I-125000J0D01*
G01*
X74662503Y17301623D01*
G75*
G02*
X74537503Y17426623I0J125000D01*
G01*
X74537503Y17676623D01*
G75*
G02*
X74662503Y17801623I125000J0D01*
G01*
X74662503Y17801623D01*
G75*
G02*
X74787503Y17676623I0J-125000D01*
G01*
G37*
G36*
G01*
X73687505Y17676623D02*
X73687505Y17426623D01*
G75*
G02*
X73562505Y17301623I-125000J0D01*
G01*
X73562505Y17301623D01*
G75*
G02*
X73437505Y17426623I0J125000D01*
G01*
X73437505Y17676623D01*
G75*
G02*
X73562505Y17801623I125000J0D01*
G01*
X73562505Y17801623D01*
G75*
G02*
X73687505Y17676623I0J-125000D01*
G01*
G37*
G36*
G01*
X72587508Y17676623D02*
X72587508Y17426623D01*
G75*
G02*
X72462508Y17301623I-125000J0D01*
G01*
X72462508Y17301623D01*
G75*
G02*
X72337508Y17426623I0J125000D01*
G01*
X72337508Y17676623D01*
G75*
G02*
X72462508Y17801623I125000J0D01*
G01*
X72462508Y17801623D01*
G75*
G02*
X72587508Y17676623I0J-125000D01*
G01*
G37*
G36*
G01*
X71487510Y17676623D02*
X71487510Y17426623D01*
G75*
G02*
X71362510Y17301623I-125000J0D01*
G01*
X71362510Y17301623D01*
G75*
G02*
X71237510Y17426623I0J125000D01*
G01*
X71237510Y17676623D01*
G75*
G02*
X71362510Y17801623I125000J0D01*
G01*
X71362510Y17801623D01*
G75*
G02*
X71487510Y17676623I0J-125000D01*
G01*
G37*
G36*
G01*
X70387512Y17676623D02*
X70387512Y17426623D01*
G75*
G02*
X70262512Y17301623I-125000J0D01*
G01*
X70262512Y17301623D01*
G75*
G02*
X70137512Y17426623I0J125000D01*
G01*
X70137512Y17676623D01*
G75*
G02*
X70262512Y17801623I125000J0D01*
G01*
X70262512Y17801623D01*
G75*
G02*
X70387512Y17676623I0J-125000D01*
G01*
G37*
G36*
G01*
X69287514Y17676623D02*
X69287514Y17426623D01*
G75*
G02*
X69162514Y17301623I-125000J0D01*
G01*
X69162514Y17301623D01*
G75*
G02*
X69037514Y17426623I0J125000D01*
G01*
X69037514Y17676623D01*
G75*
G02*
X69162514Y17801623I125000J0D01*
G01*
X69162514Y17801623D01*
G75*
G02*
X69287514Y17676623I0J-125000D01*
G01*
G37*
G36*
G01*
X68187516Y17676623D02*
X68187516Y17426623D01*
G75*
G02*
X68062516Y17301623I-125000J0D01*
G01*
X68062516Y17301623D01*
G75*
G02*
X67937516Y17426623I0J125000D01*
G01*
X67937516Y17676623D01*
G75*
G02*
X68062516Y17801623I125000J0D01*
G01*
X68062516Y17801623D01*
G75*
G02*
X68187516Y17676623I0J-125000D01*
G01*
G37*
G36*
G01*
X67087519Y17676623D02*
X67087519Y17426623D01*
G75*
G02*
X66962519Y17301623I-125000J0D01*
G01*
X66962519Y17301623D01*
G75*
G02*
X66837519Y17426623I0J125000D01*
G01*
X66837519Y17676623D01*
G75*
G02*
X66962519Y17801623I125000J0D01*
G01*
X66962519Y17801623D01*
G75*
G02*
X67087519Y17676623I0J-125000D01*
G01*
G37*
G36*
G01*
X65987521Y17676623D02*
X65987521Y17426623D01*
G75*
G02*
X65862521Y17301623I-125000J0D01*
G01*
X65862521Y17301623D01*
G75*
G02*
X65737521Y17426623I0J125000D01*
G01*
X65737521Y17676623D01*
G75*
G02*
X65862521Y17801623I125000J0D01*
G01*
X65862521Y17801623D01*
G75*
G02*
X65987521Y17676623I0J-125000D01*
G01*
G37*
G36*
G01*
X64887523Y17676623D02*
X64887523Y17426623D01*
G75*
G02*
X64762523Y17301623I-125000J0D01*
G01*
X64762523Y17301623D01*
G75*
G02*
X64637523Y17426623I0J125000D01*
G01*
X64637523Y17676623D01*
G75*
G02*
X64762523Y17801623I125000J0D01*
G01*
X64762523Y17801623D01*
G75*
G02*
X64887523Y17676623I0J-125000D01*
G01*
G37*
G36*
G01*
X63787525Y17676623D02*
X63787525Y17426623D01*
G75*
G02*
X63662525Y17301623I-125000J0D01*
G01*
X63662525Y17301623D01*
G75*
G02*
X63537525Y17426623I0J125000D01*
G01*
X63537525Y17676623D01*
G75*
G02*
X63662525Y17801623I125000J0D01*
G01*
X63662525Y17801623D01*
G75*
G02*
X63787525Y17676623I0J-125000D01*
G01*
G37*
G36*
G01*
X62687527Y17676623D02*
X62687527Y17426623D01*
G75*
G02*
X62562527Y17301623I-125000J0D01*
G01*
X62562527Y17301623D01*
G75*
G02*
X62437527Y17426623I0J125000D01*
G01*
X62437527Y17676623D01*
G75*
G02*
X62562527Y17801623I125000J0D01*
G01*
X62562527Y17801623D01*
G75*
G02*
X62687527Y17676623I0J-125000D01*
G01*
G37*
G36*
G01*
X61587530Y17676623D02*
X61587530Y17426623D01*
G75*
G02*
X61462530Y17301623I-125000J0D01*
G01*
X61462530Y17301623D01*
G75*
G02*
X61337530Y17426623I0J125000D01*
G01*
X61337530Y17676623D01*
G75*
G02*
X61462530Y17801623I125000J0D01*
G01*
X61462530Y17801623D01*
G75*
G02*
X61587530Y17676623I0J-125000D01*
G01*
G37*
G36*
G01*
X60487532Y17676623D02*
X60487532Y17426623D01*
G75*
G02*
X60362532Y17301623I-125000J0D01*
G01*
X60362532Y17301623D01*
G75*
G02*
X60237532Y17426623I0J125000D01*
G01*
X60237532Y17676623D01*
G75*
G02*
X60362532Y17801623I125000J0D01*
G01*
X60362532Y17801623D01*
G75*
G02*
X60487532Y17676623I0J-125000D01*
G01*
G37*
G36*
G01*
X59387534Y17676623D02*
X59387534Y17426623D01*
G75*
G02*
X59262534Y17301623I-125000J0D01*
G01*
X59262534Y17301623D01*
G75*
G02*
X59137534Y17426623I0J125000D01*
G01*
X59137534Y17676623D01*
G75*
G02*
X59262534Y17801623I125000J0D01*
G01*
X59262534Y17801623D01*
G75*
G02*
X59387534Y17676623I0J-125000D01*
G01*
G37*
G36*
G01*
X58287536Y17676623D02*
X58287536Y17426623D01*
G75*
G02*
X58162536Y17301623I-125000J0D01*
G01*
X58162536Y17301623D01*
G75*
G02*
X58037536Y17426623I0J125000D01*
G01*
X58037536Y17676623D01*
G75*
G02*
X58162536Y17801623I125000J0D01*
G01*
X58162536Y17801623D01*
G75*
G02*
X58287536Y17676623I0J-125000D01*
G01*
G37*
G36*
G01*
X57187538Y17676623D02*
X57187538Y17426623D01*
G75*
G02*
X57062538Y17301623I-125000J0D01*
G01*
X57062538Y17301623D01*
G75*
G02*
X56937538Y17426623I0J125000D01*
G01*
X56937538Y17676623D01*
G75*
G02*
X57062538Y17801623I125000J0D01*
G01*
X57062538Y17801623D01*
G75*
G02*
X57187538Y17676623I0J-125000D01*
G01*
G37*
G36*
G01*
X56087541Y17676623D02*
X56087541Y17426623D01*
G75*
G02*
X55962541Y17301623I-125000J0D01*
G01*
X55962541Y17301623D01*
G75*
G02*
X55837541Y17426623I0J125000D01*
G01*
X55837541Y17676623D01*
G75*
G02*
X55962541Y17801623I125000J0D01*
G01*
X55962541Y17801623D01*
G75*
G02*
X56087541Y17676623I0J-125000D01*
G01*
G37*
G36*
G01*
X54987543Y17676623D02*
X54987543Y17426623D01*
G75*
G02*
X54862543Y17301623I-125000J0D01*
G01*
X54862543Y17301623D01*
G75*
G02*
X54737543Y17426623I0J125000D01*
G01*
X54737543Y17676623D01*
G75*
G02*
X54862543Y17801623I125000J0D01*
G01*
X54862543Y17801623D01*
G75*
G02*
X54987543Y17676623I0J-125000D01*
G01*
G37*
G36*
G01*
X53887545Y17676623D02*
X53887545Y17426623D01*
G75*
G02*
X53762545Y17301623I-125000J0D01*
G01*
X53762545Y17301623D01*
G75*
G02*
X53637545Y17426623I0J125000D01*
G01*
X53637545Y17676623D01*
G75*
G02*
X53762545Y17801623I125000J0D01*
G01*
X53762545Y17801623D01*
G75*
G02*
X53887545Y17676623I0J-125000D01*
G01*
G37*
G36*
G01*
X52787547Y17676623D02*
X52787547Y17426623D01*
G75*
G02*
X52662547Y17301623I-125000J0D01*
G01*
X52662547Y17301623D01*
G75*
G02*
X52537547Y17426623I0J125000D01*
G01*
X52537547Y17676623D01*
G75*
G02*
X52662547Y17801623I125000J0D01*
G01*
X52662547Y17801623D01*
G75*
G02*
X52787547Y17676623I0J-125000D01*
G01*
G37*
G36*
G01*
X51687549Y17676623D02*
X51687549Y17426623D01*
G75*
G02*
X51562549Y17301623I-125000J0D01*
G01*
X51562549Y17301623D01*
G75*
G02*
X51437549Y17426623I0J125000D01*
G01*
X51437549Y17676623D01*
G75*
G02*
X51562549Y17801623I125000J0D01*
G01*
X51562549Y17801623D01*
G75*
G02*
X51687549Y17676623I0J-125000D01*
G01*
G37*
G36*
G01*
X50587552Y17676623D02*
X50587552Y17426623D01*
G75*
G02*
X50462552Y17301623I-125000J0D01*
G01*
X50462552Y17301623D01*
G75*
G02*
X50337552Y17426623I0J125000D01*
G01*
X50337552Y17676623D01*
G75*
G02*
X50462552Y17801623I125000J0D01*
G01*
X50462552Y17801623D01*
G75*
G02*
X50587552Y17676623I0J-125000D01*
G01*
G37*
G36*
G01*
X49487554Y17676623D02*
X49487554Y17426623D01*
G75*
G02*
X49362554Y17301623I-125000J0D01*
G01*
X49362554Y17301623D01*
G75*
G02*
X49237554Y17426623I0J125000D01*
G01*
X49237554Y17676623D01*
G75*
G02*
X49362554Y17801623I125000J0D01*
G01*
X49362554Y17801623D01*
G75*
G02*
X49487554Y17676623I0J-125000D01*
G01*
G37*
G36*
G01*
X48387556Y17676623D02*
X48387556Y17426623D01*
G75*
G02*
X48262556Y17301623I-125000J0D01*
G01*
X48262556Y17301623D01*
G75*
G02*
X48137556Y17426623I0J125000D01*
G01*
X48137556Y17676623D01*
G75*
G02*
X48262556Y17801623I125000J0D01*
G01*
X48262556Y17801623D01*
G75*
G02*
X48387556Y17676623I0J-125000D01*
G01*
G37*
G36*
G01*
X55387499Y53605623D02*
X55387499Y53355623D01*
G75*
G02*
X55262499Y53230623I-125000J0D01*
G01*
X55262499Y53230623D01*
G75*
G02*
X55137499Y53355623I0J125000D01*
G01*
X55137499Y53605623D01*
G75*
G02*
X55262499Y53730623I125000J0D01*
G01*
X55262499Y53730623D01*
G75*
G02*
X55387499Y53605623I0J-125000D01*
G01*
G37*
G36*
G01*
X56457501Y53355623D02*
X56457501Y53605623D01*
G75*
G02*
X56582501Y53730623I125000J0D01*
G01*
X56582501Y53730623D01*
G75*
G02*
X56707501Y53605623I0J-125000D01*
G01*
X56707501Y53355623D01*
G75*
G02*
X56582501Y53230623I-125000J0D01*
G01*
X56582501Y53230623D01*
G75*
G02*
X56457501Y53355623I0J125000D01*
G01*
G37*
G36*
G01*
X57777504Y53355623D02*
X57777504Y53605623D01*
G75*
G02*
X57902504Y53730623I125000J0D01*
G01*
X57902504Y53730623D01*
G75*
G02*
X58027504Y53605623I0J-125000D01*
G01*
X58027504Y53355623D01*
G75*
G02*
X57902504Y53230623I-125000J0D01*
G01*
X57902504Y53230623D01*
G75*
G02*
X57777504Y53355623I0J125000D01*
G01*
G37*
G36*
G01*
X58877501Y53355623D02*
X58877501Y53605623D01*
G75*
G02*
X59002501Y53730623I125000J0D01*
G01*
X59002501Y53730623D01*
G75*
G02*
X59127501Y53605623I0J-125000D01*
G01*
X59127501Y53355623D01*
G75*
G02*
X59002501Y53230623I-125000J0D01*
G01*
X59002501Y53230623D01*
G75*
G02*
X58877501Y53355623I0J125000D01*
G01*
G37*
G36*
G01*
X59977499Y53355623D02*
X59977499Y53605623D01*
G75*
G02*
X60102499Y53730623I125000J0D01*
G01*
X60102499Y53730623D01*
G75*
G02*
X60227499Y53605623I0J-125000D01*
G01*
X60227499Y53355623D01*
G75*
G02*
X60102499Y53230623I-125000J0D01*
G01*
X60102499Y53230623D01*
G75*
G02*
X59977499Y53355623I0J125000D01*
G01*
G37*
G36*
G01*
X61077497Y53355623D02*
X61077497Y53605623D01*
G75*
G02*
X61202497Y53730623I125000J0D01*
G01*
X61202497Y53730623D01*
G75*
G02*
X61327497Y53605623I0J-125000D01*
G01*
X61327497Y53355623D01*
G75*
G02*
X61202497Y53230623I-125000J0D01*
G01*
X61202497Y53230623D01*
G75*
G02*
X61077497Y53355623I0J125000D01*
G01*
G37*
G36*
G01*
X62177495Y53355623D02*
X62177495Y53605623D01*
G75*
G02*
X62302495Y53730623I125000J0D01*
G01*
X62302495Y53730623D01*
G75*
G02*
X62427495Y53605623I0J-125000D01*
G01*
X62427495Y53355623D01*
G75*
G02*
X62302495Y53230623I-125000J0D01*
G01*
X62302495Y53230623D01*
G75*
G02*
X62177495Y53355623I0J125000D01*
G01*
G37*
G36*
G01*
X63277493Y53355623D02*
X63277493Y53605623D01*
G75*
G02*
X63402493Y53730623I125000J0D01*
G01*
X63402493Y53730623D01*
G75*
G02*
X63527493Y53605623I0J-125000D01*
G01*
X63527493Y53355623D01*
G75*
G02*
X63402493Y53230623I-125000J0D01*
G01*
X63402493Y53230623D01*
G75*
G02*
X63277493Y53355623I0J125000D01*
G01*
G37*
G36*
G01*
X64377490Y53355623D02*
X64377490Y53605623D01*
G75*
G02*
X64502490Y53730623I125000J0D01*
G01*
X64502490Y53730623D01*
G75*
G02*
X64627490Y53605623I0J-125000D01*
G01*
X64627490Y53355623D01*
G75*
G02*
X64502490Y53230623I-125000J0D01*
G01*
X64502490Y53230623D01*
G75*
G02*
X64377490Y53355623I0J125000D01*
G01*
G37*
G36*
G01*
X65477488Y53355623D02*
X65477488Y53605623D01*
G75*
G02*
X65602488Y53730623I125000J0D01*
G01*
X65602488Y53730623D01*
G75*
G02*
X65727488Y53605623I0J-125000D01*
G01*
X65727488Y53355623D01*
G75*
G02*
X65602488Y53230623I-125000J0D01*
G01*
X65602488Y53230623D01*
G75*
G02*
X65477488Y53355623I0J125000D01*
G01*
G37*
G36*
G01*
X66577486Y53355623D02*
X66577486Y53605623D01*
G75*
G02*
X66702486Y53730623I125000J0D01*
G01*
X66702486Y53730623D01*
G75*
G02*
X66827486Y53605623I0J-125000D01*
G01*
X66827486Y53355623D01*
G75*
G02*
X66702486Y53230623I-125000J0D01*
G01*
X66702486Y53230623D01*
G75*
G02*
X66577486Y53355623I0J125000D01*
G01*
G37*
G36*
G01*
X67677484Y53355623D02*
X67677484Y53605623D01*
G75*
G02*
X67802484Y53730623I125000J0D01*
G01*
X67802484Y53730623D01*
G75*
G02*
X67927484Y53605623I0J-125000D01*
G01*
X67927484Y53355623D01*
G75*
G02*
X67802484Y53230623I-125000J0D01*
G01*
X67802484Y53230623D01*
G75*
G02*
X67677484Y53355623I0J125000D01*
G01*
G37*
G36*
G01*
X68777482Y53355623D02*
X68777482Y53605623D01*
G75*
G02*
X68902482Y53730623I125000J0D01*
G01*
X68902482Y53730623D01*
G75*
G02*
X69027482Y53605623I0J-125000D01*
G01*
X69027482Y53355623D01*
G75*
G02*
X68902482Y53230623I-125000J0D01*
G01*
X68902482Y53230623D01*
G75*
G02*
X68777482Y53355623I0J125000D01*
G01*
G37*
G36*
G01*
X69877479Y53355623D02*
X69877479Y53605623D01*
G75*
G02*
X70002479Y53730623I125000J0D01*
G01*
X70002479Y53730623D01*
G75*
G02*
X70127479Y53605623I0J-125000D01*
G01*
X70127479Y53355623D01*
G75*
G02*
X70002479Y53230623I-125000J0D01*
G01*
X70002479Y53230623D01*
G75*
G02*
X69877479Y53355623I0J125000D01*
G01*
G37*
G36*
G01*
X70977477Y53355623D02*
X70977477Y53605623D01*
G75*
G02*
X71102477Y53730623I125000J0D01*
G01*
X71102477Y53730623D01*
G75*
G02*
X71227477Y53605623I0J-125000D01*
G01*
X71227477Y53355623D01*
G75*
G02*
X71102477Y53230623I-125000J0D01*
G01*
X71102477Y53230623D01*
G75*
G02*
X70977477Y53355623I0J125000D01*
G01*
G37*
G36*
G01*
X72077475Y53355623D02*
X72077475Y53605623D01*
G75*
G02*
X72202475Y53730623I125000J0D01*
G01*
X72202475Y53730623D01*
G75*
G02*
X72327475Y53605623I0J-125000D01*
G01*
X72327475Y53355623D01*
G75*
G02*
X72202475Y53230623I-125000J0D01*
G01*
X72202475Y53230623D01*
G75*
G02*
X72077475Y53355623I0J125000D01*
G01*
G37*
G36*
G01*
X73177473Y53355623D02*
X73177473Y53605623D01*
G75*
G02*
X73302473Y53730623I125000J0D01*
G01*
X73302473Y53730623D01*
G75*
G02*
X73427473Y53605623I0J-125000D01*
G01*
X73427473Y53355623D01*
G75*
G02*
X73302473Y53230623I-125000J0D01*
G01*
X73302473Y53230623D01*
G75*
G02*
X73177473Y53355623I0J125000D01*
G01*
G37*
G36*
G01*
X74277471Y53355623D02*
X74277471Y53605623D01*
G75*
G02*
X74402471Y53730623I125000J0D01*
G01*
X74402471Y53730623D01*
G75*
G02*
X74527471Y53605623I0J-125000D01*
G01*
X74527471Y53355623D01*
G75*
G02*
X74402471Y53230623I-125000J0D01*
G01*
X74402471Y53230623D01*
G75*
G02*
X74277471Y53355623I0J125000D01*
G01*
G37*
G36*
G01*
X75377468Y53355623D02*
X75377468Y53605623D01*
G75*
G02*
X75502468Y53730623I125000J0D01*
G01*
X75502468Y53730623D01*
G75*
G02*
X75627468Y53605623I0J-125000D01*
G01*
X75627468Y53355623D01*
G75*
G02*
X75502468Y53230623I-125000J0D01*
G01*
X75502468Y53230623D01*
G75*
G02*
X75377468Y53355623I0J125000D01*
G01*
G37*
G36*
G01*
X76477466Y53355623D02*
X76477466Y53605623D01*
G75*
G02*
X76602466Y53730623I125000J0D01*
G01*
X76602466Y53730623D01*
G75*
G02*
X76727466Y53605623I0J-125000D01*
G01*
X76727466Y53355623D01*
G75*
G02*
X76602466Y53230623I-125000J0D01*
G01*
X76602466Y53230623D01*
G75*
G02*
X76477466Y53355623I0J125000D01*
G01*
G37*
G36*
G01*
X77577464Y53355623D02*
X77577464Y53605623D01*
G75*
G02*
X77702464Y53730623I125000J0D01*
G01*
X77702464Y53730623D01*
G75*
G02*
X77827464Y53605623I0J-125000D01*
G01*
X77827464Y53355623D01*
G75*
G02*
X77702464Y53230623I-125000J0D01*
G01*
X77702464Y53230623D01*
G75*
G02*
X77577464Y53355623I0J125000D01*
G01*
G37*
G36*
G01*
X78677462Y53355623D02*
X78677462Y53605623D01*
G75*
G02*
X78802462Y53730623I125000J0D01*
G01*
X78802462Y53730623D01*
G75*
G02*
X78927462Y53605623I0J-125000D01*
G01*
X78927462Y53355623D01*
G75*
G02*
X78802462Y53230623I-125000J0D01*
G01*
X78802462Y53230623D01*
G75*
G02*
X78677462Y53355623I0J125000D01*
G01*
G37*
G36*
G01*
X79777460Y53355623D02*
X79777460Y53605623D01*
G75*
G02*
X79902460Y53730623I125000J0D01*
G01*
X79902460Y53730623D01*
G75*
G02*
X80027460Y53605623I0J-125000D01*
G01*
X80027460Y53355623D01*
G75*
G02*
X79902460Y53230623I-125000J0D01*
G01*
X79902460Y53230623D01*
G75*
G02*
X79777460Y53355623I0J125000D01*
G01*
G37*
G36*
G01*
X80877457Y53355623D02*
X80877457Y53605623D01*
G75*
G02*
X81002457Y53730623I125000J0D01*
G01*
X81002457Y53730623D01*
G75*
G02*
X81127457Y53605623I0J-125000D01*
G01*
X81127457Y53355623D01*
G75*
G02*
X81002457Y53230623I-125000J0D01*
G01*
X81002457Y53230623D01*
G75*
G02*
X80877457Y53355623I0J125000D01*
G01*
G37*
G36*
G01*
X81977455Y53355623D02*
X81977455Y53605623D01*
G75*
G02*
X82102455Y53730623I125000J0D01*
G01*
X82102455Y53730623D01*
G75*
G02*
X82227455Y53605623I0J-125000D01*
G01*
X82227455Y53355623D01*
G75*
G02*
X82102455Y53230623I-125000J0D01*
G01*
X82102455Y53230623D01*
G75*
G02*
X81977455Y53355623I0J125000D01*
G01*
G37*
G36*
G01*
X83077453Y53355623D02*
X83077453Y53605623D01*
G75*
G02*
X83202453Y53730623I125000J0D01*
G01*
X83202453Y53730623D01*
G75*
G02*
X83327453Y53605623I0J-125000D01*
G01*
X83327453Y53355623D01*
G75*
G02*
X83202453Y53230623I-125000J0D01*
G01*
X83202453Y53230623D01*
G75*
G02*
X83077453Y53355623I0J125000D01*
G01*
G37*
G36*
G01*
X84177451Y53355623D02*
X84177451Y53605623D01*
G75*
G02*
X84302451Y53730623I125000J0D01*
G01*
X84302451Y53730623D01*
G75*
G02*
X84427451Y53605623I0J-125000D01*
G01*
X84427451Y53355623D01*
G75*
G02*
X84302451Y53230623I-125000J0D01*
G01*
X84302451Y53230623D01*
G75*
G02*
X84177451Y53355623I0J125000D01*
G01*
G37*
G36*
G01*
X85277449Y53355623D02*
X85277449Y53605623D01*
G75*
G02*
X85402449Y53730623I125000J0D01*
G01*
X85402449Y53730623D01*
G75*
G02*
X85527449Y53605623I0J-125000D01*
G01*
X85527449Y53355623D01*
G75*
G02*
X85402449Y53230623I-125000J0D01*
G01*
X85402449Y53230623D01*
G75*
G02*
X85277449Y53355623I0J125000D01*
G01*
G37*
G36*
G01*
X86377446Y53355623D02*
X86377446Y53605623D01*
G75*
G02*
X86502446Y53730623I125000J0D01*
G01*
X86502446Y53730623D01*
G75*
G02*
X86627446Y53605623I0J-125000D01*
G01*
X86627446Y53355623D01*
G75*
G02*
X86502446Y53230623I-125000J0D01*
G01*
X86502446Y53230623D01*
G75*
G02*
X86377446Y53355623I0J125000D01*
G01*
G37*
G36*
G01*
X87477444Y53355623D02*
X87477444Y53605623D01*
G75*
G02*
X87602444Y53730623I125000J0D01*
G01*
X87602444Y53730623D01*
G75*
G02*
X87727444Y53605623I0J-125000D01*
G01*
X87727444Y53355623D01*
G75*
G02*
X87602444Y53230623I-125000J0D01*
G01*
X87602444Y53230623D01*
G75*
G02*
X87477444Y53355623I0J125000D01*
G01*
G37*
G36*
G01*
X88577442Y53355623D02*
X88577442Y53605623D01*
G75*
G02*
X88702442Y53730623I125000J0D01*
G01*
X88702442Y53730623D01*
G75*
G02*
X88827442Y53605623I0J-125000D01*
G01*
X88827442Y53355623D01*
G75*
G02*
X88702442Y53230623I-125000J0D01*
G01*
X88702442Y53230623D01*
G75*
G02*
X88577442Y53355623I0J125000D01*
G01*
G37*
G36*
G01*
X89677440Y53355623D02*
X89677440Y53605623D01*
G75*
G02*
X89802440Y53730623I125000J0D01*
G01*
X89802440Y53730623D01*
G75*
G02*
X89927440Y53605623I0J-125000D01*
G01*
X89927440Y53355623D01*
G75*
G02*
X89802440Y53230623I-125000J0D01*
G01*
X89802440Y53230623D01*
G75*
G02*
X89677440Y53355623I0J125000D01*
G01*
G37*
G36*
G01*
X90777438Y53355623D02*
X90777438Y53605623D01*
G75*
G02*
X90902438Y53730623I125000J0D01*
G01*
X90902438Y53730623D01*
G75*
G02*
X91027438Y53605623I0J-125000D01*
G01*
X91027438Y53355623D01*
G75*
G02*
X90902438Y53230623I-125000J0D01*
G01*
X90902438Y53230623D01*
G75*
G02*
X90777438Y53355623I0J125000D01*
G01*
G37*
G36*
G01*
X92287501Y23548623D02*
X92537501Y23548623D01*
G75*
G02*
X92662501Y23423623I0J-125000D01*
G01*
X92662501Y23423623D01*
G75*
G02*
X92537501Y23298623I-125000J0D01*
G01*
X92287501Y23298623D01*
G75*
G02*
X92162501Y23423623I0J125000D01*
G01*
X92162501Y23423623D01*
G75*
G02*
X92287501Y23548623I125000J0D01*
G01*
G37*
G36*
G01*
X92287501Y22888623D02*
X92537501Y22888623D01*
G75*
G02*
X92662501Y22763623I0J-125000D01*
G01*
X92662501Y22763623D01*
G75*
G02*
X92537501Y22638623I-125000J0D01*
G01*
X92287501Y22638623D01*
G75*
G02*
X92162501Y22763623I0J125000D01*
G01*
X92162501Y22763623D01*
G75*
G02*
X92287501Y22888623I125000J0D01*
G01*
G37*
G36*
G01*
X92287501Y22228621D02*
X92537501Y22228621D01*
G75*
G02*
X92662501Y22103621I0J-125000D01*
G01*
X92662501Y22103621D01*
G75*
G02*
X92537501Y21978621I-125000J0D01*
G01*
X92287501Y21978621D01*
G75*
G02*
X92162501Y22103621I0J125000D01*
G01*
X92162501Y22103621D01*
G75*
G02*
X92287501Y22228621I125000J0D01*
G01*
G37*
G36*
G01*
X92287501Y21568620D02*
X92537501Y21568620D01*
G75*
G02*
X92662501Y21443620I0J-125000D01*
G01*
X92662501Y21443620D01*
G75*
G02*
X92537501Y21318620I-125000J0D01*
G01*
X92287501Y21318620D01*
G75*
G02*
X92162501Y21443620I0J125000D01*
G01*
X92162501Y21443620D01*
G75*
G02*
X92287501Y21568620I125000J0D01*
G01*
G37*
G36*
G01*
X92287501Y20908618D02*
X92537501Y20908618D01*
G75*
G02*
X92662501Y20783618I0J-125000D01*
G01*
X92662501Y20783618D01*
G75*
G02*
X92537501Y20658618I-125000J0D01*
G01*
X92287501Y20658618D01*
G75*
G02*
X92162501Y20783618I0J125000D01*
G01*
X92162501Y20783618D01*
G75*
G02*
X92287501Y20908618I125000J0D01*
G01*
G37*
G36*
G01*
X92287501Y20248617D02*
X92537501Y20248617D01*
G75*
G02*
X92662501Y20123617I0J-125000D01*
G01*
X92662501Y20123617D01*
G75*
G02*
X92537501Y19998617I-125000J0D01*
G01*
X92287501Y19998617D01*
G75*
G02*
X92162501Y20123617I0J125000D01*
G01*
X92162501Y20123617D01*
G75*
G02*
X92287501Y20248617I125000J0D01*
G01*
G37*
G36*
G01*
X92287501Y19588616D02*
X92537501Y19588616D01*
G75*
G02*
X92662501Y19463616I0J-125000D01*
G01*
X92662501Y19463616D01*
G75*
G02*
X92537501Y19338616I-125000J0D01*
G01*
X92287501Y19338616D01*
G75*
G02*
X92162501Y19463616I0J125000D01*
G01*
X92162501Y19463616D01*
G75*
G02*
X92287501Y19588616I125000J0D01*
G01*
G37*
G36*
G01*
X92287501Y18928615D02*
X92537501Y18928615D01*
G75*
G02*
X92662501Y18803615I0J-125000D01*
G01*
X92662501Y18803615D01*
G75*
G02*
X92537501Y18678615I-125000J0D01*
G01*
X92287501Y18678615D01*
G75*
G02*
X92162501Y18803615I0J125000D01*
G01*
X92162501Y18803615D01*
G75*
G02*
X92287501Y18928615I125000J0D01*
G01*
G37*
G36*
G01*
X92287501Y18268613D02*
X92537501Y18268613D01*
G75*
G02*
X92662501Y18143613I0J-125000D01*
G01*
X92662501Y18143613D01*
G75*
G02*
X92537501Y18018613I-125000J0D01*
G01*
X92287501Y18018613D01*
G75*
G02*
X92162501Y18143613I0J125000D01*
G01*
X92162501Y18143613D01*
G75*
G02*
X92287501Y18268613I125000J0D01*
G01*
G37*
G36*
G01*
X92287501Y17608612D02*
X92537501Y17608612D01*
G75*
G02*
X92662501Y17483612I0J-125000D01*
G01*
X92662501Y17483612D01*
G75*
G02*
X92537501Y17358612I-125000J0D01*
G01*
X92287501Y17358612D01*
G75*
G02*
X92162501Y17483612I0J125000D01*
G01*
X92162501Y17483612D01*
G75*
G02*
X92287501Y17608612I125000J0D01*
G01*
G37*
G04 #@! TD*
G04 #@! TO.C,R15*
X83482000Y93190000D03*
X83482000Y97000000D03*
G04 #@! TD*
G04 #@! TO.C,R57*
X7700000Y93545000D03*
X7700000Y97355000D03*
G04 #@! TD*
G04 #@! TO.C,R53*
X49400000Y93695000D03*
X49400000Y97505000D03*
G04 #@! TD*
D11*
G04 #@! TO.C,M8*
X8675000Y54250000D03*
X16175000Y54250000D03*
X16975000Y54250000D03*
X17775000Y54250000D03*
X10575000Y71775000D03*
X9575000Y71775000D03*
G04 #@! TD*
D12*
G04 #@! TO.C,F9*
X35350000Y97349979D03*
X35350000Y92449979D03*
G04 #@! TD*
G04 #@! TO.C,R7*
X85514000Y93190000D03*
X85514000Y97000000D03*
G04 #@! TD*
G04 #@! TO.C,R13*
X94400000Y93245000D03*
X94400000Y97055000D03*
G04 #@! TD*
G04 #@! TO.C,R20*
X87546000Y93238000D03*
X87546000Y97048000D03*
G04 #@! TD*
D14*
G04 #@! TO.C,P1*
X94000000Y107100000D03*
X54200000Y107100000D03*
D15*
X61350000Y101100000D03*
X65350000Y101100000D03*
X68850000Y101100000D03*
X72350000Y101100000D03*
X75850000Y101100000D03*
X79350000Y101100000D03*
X82850000Y101100000D03*
X86850000Y101100000D03*
X61350000Y105100000D03*
X65350000Y105100000D03*
X68850000Y105100000D03*
X72350000Y105100000D03*
X75850000Y105100000D03*
X79350000Y105100000D03*
X82850000Y105100000D03*
X86850000Y105100000D03*
X61350000Y109100000D03*
X65350000Y109100000D03*
X68850000Y109100000D03*
X72350000Y109100000D03*
X75850000Y109100000D03*
X79350000Y109100000D03*
X82850000Y109100000D03*
X86850000Y109100000D03*
G04 #@! TD*
D12*
G04 #@! TO.C,F6*
X56300000Y96900000D03*
X56300000Y92000000D03*
G04 #@! TD*
D11*
G04 #@! TO.C,M2*
X40150002Y8749981D03*
X77513268Y8749981D03*
X65250000Y8749981D03*
X51050001Y8749981D03*
X76124995Y12549993D03*
G04 #@! TD*
D12*
G04 #@! TO.C,R12*
X49850000Y104045000D03*
X49850000Y107855000D03*
G04 #@! TD*
G04 #@! TO.C,R18*
X61850000Y92695000D03*
X61850000Y96505000D03*
G04 #@! TD*
G04 #@! TO.C,F5*
X58650000Y96945000D03*
X58650000Y92045000D03*
G04 #@! TD*
G04 #@! TO.C,F2*
X78800000Y97045000D03*
X78800000Y92145000D03*
G04 #@! TD*
D17*
G04 #@! TO.C,J4*
X4700000Y2600000D03*
G04 #@! TD*
M02*
