G75*
G70*
%OFA0B0*%
%FSLAX25Y25*%
%IPPOS*%
%LPD*%
%AMOC8*
5,1,8,0,0,1.08239X$1,22.5*
%
%AMM150*
21,1,0.038980,0.026770,-0.000000,-0.000000,180.000000*
21,1,0.026770,0.038980,-0.000000,-0.000000,180.000000*
1,1,0.012210,-0.013390,0.013390*
1,1,0.012210,0.013390,0.013390*
1,1,0.012210,0.013390,-0.013390*
1,1,0.012210,-0.013390,-0.013390*
%
%AMM178*
21,1,0.080320,0.083460,0.000000,-0.000000,270.000000*
21,1,0.059840,0.103940,0.000000,-0.000000,270.000000*
1,1,0.020470,-0.041730,-0.029920*
1,1,0.020470,-0.041730,0.029920*
1,1,0.020470,0.041730,0.029920*
1,1,0.020470,0.041730,-0.029920*
%
%AMM179*
21,1,0.092130,0.073230,0.000000,-0.000000,180.000000*
21,1,0.069290,0.096060,0.000000,-0.000000,180.000000*
1,1,0.022840,-0.034650,0.036610*
1,1,0.022840,0.034650,0.036610*
1,1,0.022840,0.034650,-0.036610*
1,1,0.022840,-0.034650,-0.036610*
%
%AMM180*
21,1,0.084250,0.053540,0.000000,-0.000000,90.000000*
21,1,0.065350,0.072440,0.000000,-0.000000,90.000000*
1,1,0.018900,0.026770,0.032680*
1,1,0.018900,0.026770,-0.032680*
1,1,0.018900,-0.026770,-0.032680*
1,1,0.018900,-0.026770,0.032680*
%
%AMM181*
21,1,0.040950,0.030320,0.000000,-0.000000,0.000000*
21,1,0.028350,0.042910,0.000000,-0.000000,0.000000*
1,1,0.012600,0.014170,-0.015160*
1,1,0.012600,-0.014170,-0.015160*
1,1,0.012600,-0.014170,0.015160*
1,1,0.012600,0.014170,0.015160*
%
%AMM182*
21,1,0.027170,0.052760,0.000000,-0.000000,180.000000*
21,1,0.017320,0.062600,0.000000,-0.000000,180.000000*
1,1,0.009840,-0.008660,0.026380*
1,1,0.009840,0.008660,0.026380*
1,1,0.009840,0.008660,-0.026380*
1,1,0.009840,-0.008660,-0.026380*
%
%AMM183*
21,1,0.041340,0.026770,0.000000,-0.000000,270.000000*
21,1,0.029130,0.038980,0.000000,-0.000000,270.000000*
1,1,0.012210,-0.013390,-0.014570*
1,1,0.012210,-0.013390,0.014570*
1,1,0.012210,0.013390,0.014570*
1,1,0.012210,0.013390,-0.014570*
%
%AMM184*
21,1,0.100000,0.111020,0.000000,-0.000000,270.000000*
21,1,0.075590,0.135430,0.000000,-0.000000,270.000000*
1,1,0.024410,-0.055510,-0.037800*
1,1,0.024410,-0.055510,0.037800*
1,1,0.024410,0.055510,0.037800*
1,1,0.024410,0.055510,-0.037800*
%
%AMM185*
21,1,0.076380,0.036220,0.000000,-0.000000,0.000000*
21,1,0.061810,0.050790,0.000000,-0.000000,0.000000*
1,1,0.014570,0.030910,-0.018110*
1,1,0.014570,-0.030910,-0.018110*
1,1,0.014570,-0.030910,0.018110*
1,1,0.014570,0.030910,0.018110*
%
%AMM186*
21,1,0.038980,0.026770,0.000000,-0.000000,270.000000*
21,1,0.026770,0.038980,0.000000,-0.000000,270.000000*
1,1,0.012210,-0.013390,-0.013390*
1,1,0.012210,-0.013390,0.013390*
1,1,0.012210,0.013390,0.013390*
1,1,0.012210,0.013390,-0.013390*
%
%AMM187*
21,1,0.021260,0.016540,0.000000,-0.000000,180.000000*
21,1,0.012600,0.025200,0.000000,-0.000000,180.000000*
1,1,0.008660,-0.006300,0.008270*
1,1,0.008660,0.006300,0.008270*
1,1,0.008660,0.006300,-0.008270*
1,1,0.008660,-0.006300,-0.008270*
%
%AMM188*
21,1,0.029130,0.018900,0.000000,-0.000000,0.000000*
21,1,0.018900,0.029130,0.000000,-0.000000,0.000000*
1,1,0.010240,0.009450,-0.009450*
1,1,0.010240,-0.009450,-0.009450*
1,1,0.010240,-0.009450,0.009450*
1,1,0.010240,0.009450,0.009450*
%
%AMM189*
21,1,0.025200,0.019680,0.000000,-0.000000,270.000000*
21,1,0.015750,0.029130,0.000000,-0.000000,270.000000*
1,1,0.009450,-0.009840,-0.007870*
1,1,0.009450,-0.009840,0.007870*
1,1,0.009450,0.009840,0.007870*
1,1,0.009450,0.009840,-0.007870*
%
%AMM190*
21,1,0.025200,0.019680,0.000000,-0.000000,180.000000*
21,1,0.015750,0.029130,0.000000,-0.000000,180.000000*
1,1,0.009450,-0.007870,0.009840*
1,1,0.009450,0.007870,0.009840*
1,1,0.009450,0.007870,-0.009840*
1,1,0.009450,-0.007870,-0.009840*
%
%AMM209*
21,1,0.033070,0.030710,-0.000000,-0.000000,180.000000*
21,1,0.022050,0.041730,-0.000000,-0.000000,180.000000*
1,1,0.011020,-0.011020,0.015350*
1,1,0.011020,0.011020,0.015350*
1,1,0.011020,0.011020,-0.015350*
1,1,0.011020,-0.011020,-0.015350*
%
%AMM210*
21,1,0.033070,0.030710,-0.000000,-0.000000,90.000000*
21,1,0.022050,0.041730,-0.000000,-0.000000,90.000000*
1,1,0.011020,0.015350,0.011020*
1,1,0.011020,0.015350,-0.011020*
1,1,0.011020,-0.015350,-0.011020*
1,1,0.011020,-0.015350,0.011020*
%
%AMM277*
21,1,0.039370,0.030320,-0.000000,-0.000000,270.000000*
21,1,0.028350,0.041340,-0.000000,-0.000000,270.000000*
1,1,0.011020,-0.015160,-0.014170*
1,1,0.011020,-0.015160,0.014170*
1,1,0.011020,0.015160,0.014170*
1,1,0.011020,0.015160,-0.014170*
%
%AMM278*
21,1,0.047240,0.075980,-0.000000,-0.000000,180.000000*
21,1,0.034650,0.088580,-0.000000,-0.000000,180.000000*
1,1,0.012600,-0.017320,0.037990*
1,1,0.012600,0.017320,0.037990*
1,1,0.012600,0.017320,-0.037990*
1,1,0.012600,-0.017320,-0.037990*
%
%AMM279*
21,1,0.047240,0.075990,-0.000000,-0.000000,180.000000*
21,1,0.034650,0.088580,-0.000000,-0.000000,180.000000*
1,1,0.012600,-0.017320,0.037990*
1,1,0.012600,0.017320,0.037990*
1,1,0.012600,0.017320,-0.037990*
1,1,0.012600,-0.017320,-0.037990*
%
%AMM280*
21,1,0.141730,0.067720,-0.000000,-0.000000,180.000000*
21,1,0.120870,0.088580,-0.000000,-0.000000,180.000000*
1,1,0.020870,-0.060430,0.033860*
1,1,0.020870,0.060430,0.033860*
1,1,0.020870,0.060430,-0.033860*
1,1,0.020870,-0.060430,-0.033860*
%
%AMM281*
21,1,0.043310,0.035430,-0.000000,-0.000000,180.000000*
21,1,0.031500,0.047240,-0.000000,-0.000000,180.000000*
1,1,0.011810,-0.015750,0.017720*
1,1,0.011810,0.015750,0.017720*
1,1,0.011810,0.015750,-0.017720*
1,1,0.011810,-0.015750,-0.017720*
%
%AMM282*
21,1,0.027560,0.030710,-0.000000,-0.000000,0.000000*
21,1,0.018900,0.039370,-0.000000,-0.000000,0.000000*
1,1,0.008660,0.009450,-0.015350*
1,1,0.008660,-0.009450,-0.015350*
1,1,0.008660,-0.009450,0.015350*
1,1,0.008660,0.009450,0.015350*
%
%AMM283*
21,1,0.031500,0.018900,-0.000000,-0.000000,0.000000*
21,1,0.022840,0.027560,-0.000000,-0.000000,0.000000*
1,1,0.008660,0.011420,-0.009450*
1,1,0.008660,-0.011420,-0.009450*
1,1,0.008660,-0.011420,0.009450*
1,1,0.008660,0.011420,0.009450*
%
%AMM284*
21,1,0.027560,0.030710,-0.000000,-0.000000,90.000000*
21,1,0.018900,0.039370,-0.000000,-0.000000,90.000000*
1,1,0.008660,0.015350,0.009450*
1,1,0.008660,0.015350,-0.009450*
1,1,0.008660,-0.015350,-0.009450*
1,1,0.008660,-0.015350,0.009450*
%
%AMM285*
21,1,0.090550,0.073230,-0.000000,-0.000000,270.000000*
21,1,0.069290,0.094490,-0.000000,-0.000000,270.000000*
1,1,0.021260,-0.036610,-0.034650*
1,1,0.021260,-0.036610,0.034650*
1,1,0.021260,0.036610,0.034650*
1,1,0.021260,0.036610,-0.034650*
%
%AMM286*
21,1,0.029530,0.026380,-0.000000,-0.000000,270.000000*
21,1,0.020470,0.035430,-0.000000,-0.000000,270.000000*
1,1,0.009060,-0.013190,-0.010240*
1,1,0.009060,-0.013190,0.010240*
1,1,0.009060,0.013190,0.010240*
1,1,0.009060,0.013190,-0.010240*
%
%AMM287*
21,1,0.021650,0.027950,-0.000000,-0.000000,270.000000*
21,1,0.014170,0.035430,-0.000000,-0.000000,270.000000*
1,1,0.007480,-0.013980,-0.007090*
1,1,0.007480,-0.013980,0.007090*
1,1,0.007480,0.013980,0.007090*
1,1,0.007480,0.013980,-0.007090*
%
%AMM288*
21,1,0.035430,0.072440,-0.000000,-0.000000,270.000000*
21,1,0.025200,0.082680,-0.000000,-0.000000,270.000000*
1,1,0.010240,-0.036220,-0.012600*
1,1,0.010240,-0.036220,0.012600*
1,1,0.010240,0.036220,0.012600*
1,1,0.010240,0.036220,-0.012600*
%
%AMM289*
21,1,0.016540,0.028980,-0.000000,-0.000000,270.000000*
21,1,0.010080,0.035430,-0.000000,-0.000000,270.000000*
1,1,0.006460,-0.014490,-0.005040*
1,1,0.006460,-0.014490,0.005040*
1,1,0.006460,0.014490,0.005040*
1,1,0.006460,0.014490,-0.005040*
%
%AMM290*
21,1,0.016540,0.028980,-0.000000,-0.000000,0.000000*
21,1,0.010080,0.035430,-0.000000,-0.000000,0.000000*
1,1,0.006460,0.005040,-0.014490*
1,1,0.006460,-0.005040,-0.014490*
1,1,0.006460,-0.005040,0.014490*
1,1,0.006460,0.005040,0.014490*
%
%AMM291*
21,1,0.043310,0.035430,-0.000000,-0.000000,90.000000*
21,1,0.031500,0.047240,-0.000000,-0.000000,90.000000*
1,1,0.011810,0.017720,0.015750*
1,1,0.011810,0.017720,-0.015750*
1,1,0.011810,-0.017720,-0.015750*
1,1,0.011810,-0.017720,0.015750*
%
%AMM292*
21,1,0.031500,0.018900,-0.000000,-0.000000,270.000000*
21,1,0.022840,0.027560,-0.000000,-0.000000,270.000000*
1,1,0.008660,-0.009450,-0.011420*
1,1,0.008660,-0.009450,0.011420*
1,1,0.008660,0.009450,0.011420*
1,1,0.008660,0.009450,-0.011420*
%
%ADD10C,0.02362*%
%ADD119C,0.02913*%
%ADD120C,0.06457*%
%ADD140O,0.01339X0.02126*%
%ADD141O,0.05512X0.01535*%
%ADD144R,0.02559X0.01575*%
%ADD145R,0.01575X0.02559*%
%ADD174O,0.01260X0.05512*%
%ADD175O,0.05512X0.01260*%
%ADD182C,0.03494*%
%ADD186C,0.03543*%
%ADD190O,0.01575X0.04724*%
%ADD191O,0.04724X0.01575*%
%ADD193O,0.09055X0.02756*%
%ADD195R,0.01870X0.01772*%
%ADD196R,0.01772X0.01870*%
%ADD199C,0.04294*%
%ADD23C,0.06000*%
%ADD24C,0.06693*%
%ADD25C,0.23622*%
%ADD26R,0.22835X0.25197*%
%ADD27O,0.06693X0.07283*%
%ADD295M150*%
%ADD30R,0.01181X0.04528*%
%ADD31O,0.03937X0.08268*%
%ADD32O,0.03937X0.06299*%
%ADD323M178*%
%ADD324M179*%
%ADD325M180*%
%ADD326M181*%
%ADD327M182*%
%ADD328M183*%
%ADD329M184*%
%ADD33C,0.05906*%
%ADD330M185*%
%ADD331M186*%
%ADD332M187*%
%ADD333M188*%
%ADD334M189*%
%ADD335M190*%
%ADD360M209*%
%ADD361M210*%
%ADD453M277*%
%ADD454M278*%
%ADD455M279*%
%ADD456M280*%
%ADD457M281*%
%ADD458M282*%
%ADD459M283*%
%ADD460M284*%
%ADD461M285*%
%ADD462M286*%
%ADD463M287*%
%ADD464M288*%
%ADD465M289*%
%ADD466M290*%
%ADD467M291*%
%ADD468M292*%
%ADD48R,0.05118X0.03937*%
%ADD49C,0.07874*%
%ADD54O,0.00787X0.01575*%
%ADD55R,0.02913X0.09449*%
%ADD59C,0.03937*%
%ADD64C,0.04724*%
%ADD65C,0.00472*%
%ADD66O,0.11417X0.23228*%
%ADD67O,0.09449X0.11417*%
%ADD68C,0.02559*%
X0000000Y0000000D02*
%LPD*%
G01*
D65*
X0089961Y0000787D02*
X0038780Y0000787D01*
X0038780Y0028346D01*
X0089961Y0028346D01*
X0089961Y0000787D01*
G36*
X0089961Y0000787D02*
G01*
X0038780Y0000787D01*
X0038780Y0028346D01*
X0089961Y0028346D01*
X0089961Y0000787D01*
G37*
D23*
X0302165Y0367106D03*
G36*
G01*
X0304626Y0368898D02*
X0299705Y0368898D01*
G75*
G02*
X0299311Y0369291I0000000J0000394D01*
G01*
X0299311Y0372441D01*
G75*
G02*
X0299705Y0372835I0000394J0000000D01*
G01*
X0304626Y0372835D01*
G75*
G02*
X0305020Y0372441I0000000J-000394D01*
G01*
X0305020Y0369291D01*
G75*
G02*
X0304626Y0368898I-000394J0000000D01*
G01*
G37*
G36*
G01*
X0304626Y0376378D02*
X0299705Y0376378D01*
G75*
G02*
X0299311Y0376772I0000000J0000394D01*
G01*
X0299311Y0379921D01*
G75*
G02*
X0299705Y0380315I0000394J0000000D01*
G01*
X0304626Y0380315D01*
G75*
G02*
X0305020Y0379921I0000000J-000394D01*
G01*
X0305020Y0376772D01*
G75*
G02*
X0304626Y0376378I-000394J0000000D01*
G01*
G37*
X0302165Y0382106D03*
D24*
X0350787Y0156299D03*
D23*
X0082047Y0130906D03*
G36*
G01*
X0085591Y0136201D02*
X0085591Y0133484D01*
G75*
G02*
X0084685Y0132579I-000906J0000000D01*
G01*
X0079409Y0132579D01*
G75*
G02*
X0078504Y0133484I0000000J0000906D01*
G01*
X0078504Y0136201D01*
G75*
G02*
X0079409Y0137106I0000906J0000000D01*
G01*
X0084685Y0137106D01*
G75*
G02*
X0085591Y0136201I0000000J-000906D01*
G01*
G37*
G36*
G01*
X0085591Y0147618D02*
X0085591Y0144902D01*
G75*
G02*
X0084685Y0143996I-000906J0000000D01*
G01*
X0079409Y0143996D01*
G75*
G02*
X0078504Y0144902I0000000J0000906D01*
G01*
X0078504Y0147618D01*
G75*
G02*
X0079409Y0148524I0000906J0000000D01*
G01*
X0084685Y0148524D01*
G75*
G02*
X0085591Y0147618I0000000J-000906D01*
G01*
G37*
X0082047Y0150197D03*
G36*
G01*
X0324016Y0177028D02*
X0324016Y0179665D01*
G75*
G02*
X0324272Y0179921I0000256J0000000D01*
G01*
X0326319Y0179921D01*
G75*
G02*
X0326575Y0179665I0000000J-000256D01*
G01*
X0326575Y0177028D01*
G75*
G02*
X0326319Y0176772I-000256J0000000D01*
G01*
X0324272Y0176772D01*
G75*
G02*
X0324016Y0177028I0000000J0000256D01*
G01*
G37*
G36*
G01*
X0327854Y0176949D02*
X0327854Y0179744D01*
G75*
G02*
X0328031Y0179921I0000177J0000000D01*
G01*
X0329449Y0179921D01*
G75*
G02*
X0329626Y0179744I0000000J-000177D01*
G01*
X0329626Y0176949D01*
G75*
G02*
X0329449Y0176772I-000177J0000000D01*
G01*
X0328031Y0176772D01*
G75*
G02*
X0327854Y0176949I0000000J0000177D01*
G01*
G37*
G36*
G01*
X0331004Y0176949D02*
X0331004Y0179744D01*
G75*
G02*
X0331181Y0179921I0000177J0000000D01*
G01*
X0332598Y0179921D01*
G75*
G02*
X0332776Y0179744I0000000J-000177D01*
G01*
X0332776Y0176949D01*
G75*
G02*
X0332598Y0176772I-000177J0000000D01*
G01*
X0331181Y0176772D01*
G75*
G02*
X0331004Y0176949I0000000J0000177D01*
G01*
G37*
G36*
G01*
X0334055Y0177028D02*
X0334055Y0179665D01*
G75*
G02*
X0334311Y0179921I0000256J0000000D01*
G01*
X0336358Y0179921D01*
G75*
G02*
X0336614Y0179665I0000000J-000256D01*
G01*
X0336614Y0177028D01*
G75*
G02*
X0336358Y0176772I-000256J0000000D01*
G01*
X0334311Y0176772D01*
G75*
G02*
X0334055Y0177028I0000000J0000256D01*
G01*
G37*
G36*
G01*
X0334055Y0184114D02*
X0334055Y0186752D01*
G75*
G02*
X0334311Y0187008I0000256J0000000D01*
G01*
X0336358Y0187008D01*
G75*
G02*
X0336614Y0186752I0000000J-000256D01*
G01*
X0336614Y0184114D01*
G75*
G02*
X0336358Y0183858I-000256J0000000D01*
G01*
X0334311Y0183858D01*
G75*
G02*
X0334055Y0184114I0000000J0000256D01*
G01*
G37*
G36*
G01*
X0331004Y0184035D02*
X0331004Y0186831D01*
G75*
G02*
X0331181Y0187008I0000177J0000000D01*
G01*
X0332598Y0187008D01*
G75*
G02*
X0332776Y0186831I0000000J-000177D01*
G01*
X0332776Y0184035D01*
G75*
G02*
X0332598Y0183858I-000177J0000000D01*
G01*
X0331181Y0183858D01*
G75*
G02*
X0331004Y0184035I0000000J0000177D01*
G01*
G37*
G36*
G01*
X0327854Y0184035D02*
X0327854Y0186831D01*
G75*
G02*
X0328031Y0187008I0000177J0000000D01*
G01*
X0329449Y0187008D01*
G75*
G02*
X0329626Y0186831I0000000J-000177D01*
G01*
X0329626Y0184035D01*
G75*
G02*
X0329449Y0183858I-000177J0000000D01*
G01*
X0328031Y0183858D01*
G75*
G02*
X0327854Y0184035I0000000J0000177D01*
G01*
G37*
G36*
G01*
X0324016Y0184114D02*
X0324016Y0186752D01*
G75*
G02*
X0324272Y0187008I0000256J0000000D01*
G01*
X0326319Y0187008D01*
G75*
G02*
X0326575Y0186752I0000000J-000256D01*
G01*
X0326575Y0184114D01*
G75*
G02*
X0326319Y0183858I-000256J0000000D01*
G01*
X0324272Y0183858D01*
G75*
G02*
X0324016Y0184114I0000000J0000256D01*
G01*
G37*
G36*
G01*
X0201575Y0190157D02*
X0198031Y0190157D01*
G75*
G02*
X0197638Y0190551I0000000J0000394D01*
G01*
X0197638Y0193701D01*
G75*
G02*
X0198031Y0194094I0000394J0000000D01*
G01*
X0201575Y0194094D01*
G75*
G02*
X0201968Y0193701I0000000J-000394D01*
G01*
X0201968Y0190551D01*
G75*
G02*
X0201575Y0190157I-000394J0000000D01*
G01*
G37*
G36*
G01*
X0201575Y0196850D02*
X0198031Y0196850D01*
G75*
G02*
X0197638Y0197244I0000000J0000394D01*
G01*
X0197638Y0200394D01*
G75*
G02*
X0198031Y0200787I0000394J0000000D01*
G01*
X0201575Y0200787D01*
G75*
G02*
X0201968Y0200394I0000000J-000394D01*
G01*
X0201968Y0197244D01*
G75*
G02*
X0201575Y0196850I-000394J0000000D01*
G01*
G37*
D24*
X0235827Y0003937D03*
G36*
G01*
X0170866Y0277972D02*
X0170866Y0280689D01*
G75*
G02*
X0171772Y0281595I0000906J0000000D01*
G01*
X0177047Y0281595D01*
G75*
G02*
X0177953Y0280689I0000000J-000906D01*
G01*
X0177953Y0277972D01*
G75*
G02*
X0177047Y0277067I-000906J0000000D01*
G01*
X0171772Y0277067D01*
G75*
G02*
X0170866Y0277972I0000000J0000906D01*
G01*
G37*
G36*
G01*
X0170866Y0266555D02*
X0170866Y0269272D01*
G75*
G02*
X0171772Y0270177I0000906J0000000D01*
G01*
X0177047Y0270177D01*
G75*
G02*
X0177953Y0269272I0000000J-000906D01*
G01*
X0177953Y0266555D01*
G75*
G02*
X0177047Y0265650I-000906J0000000D01*
G01*
X0171772Y0265650D01*
G75*
G02*
X0170866Y0266555I0000000J0000906D01*
G01*
G37*
G36*
G01*
X0124213Y0299646D02*
X0124213Y0302717D01*
G75*
G02*
X0124488Y0302992I0000276J0000000D01*
G01*
X0126693Y0302992D01*
G75*
G02*
X0126969Y0302717I0000000J-000276D01*
G01*
X0126969Y0299646D01*
G75*
G02*
X0126693Y0299370I-000276J0000000D01*
G01*
X0124488Y0299370D01*
G75*
G02*
X0124213Y0299646I0000000J0000276D01*
G01*
G37*
G36*
G01*
X0130512Y0299646D02*
X0130512Y0302717D01*
G75*
G02*
X0130787Y0302992I0000276J0000000D01*
G01*
X0132992Y0302992D01*
G75*
G02*
X0133268Y0302717I0000000J-000276D01*
G01*
X0133268Y0299646D01*
G75*
G02*
X0132992Y0299370I-000276J0000000D01*
G01*
X0130787Y0299370D01*
G75*
G02*
X0130512Y0299646I0000000J0000276D01*
G01*
G37*
G36*
G01*
X0017126Y0165787D02*
X0017126Y0168858D01*
G75*
G02*
X0017402Y0169134I0000276J0000000D01*
G01*
X0019606Y0169134D01*
G75*
G02*
X0019882Y0168858I0000000J-000276D01*
G01*
X0019882Y0165787D01*
G75*
G02*
X0019606Y0165512I-000276J0000000D01*
G01*
X0017402Y0165512D01*
G75*
G02*
X0017126Y0165787I0000000J0000276D01*
G01*
G37*
G36*
G01*
X0023425Y0165787D02*
X0023425Y0168858D01*
G75*
G02*
X0023701Y0169134I0000276J0000000D01*
G01*
X0025906Y0169134D01*
G75*
G02*
X0026181Y0168858I0000000J-000276D01*
G01*
X0026181Y0165787D01*
G75*
G02*
X0025906Y0165512I-000276J0000000D01*
G01*
X0023701Y0165512D01*
G75*
G02*
X0023425Y0165787I0000000J0000276D01*
G01*
G37*
D25*
X0018909Y0033933D03*
G36*
G01*
X0186614Y0190157D02*
X0183071Y0190157D01*
G75*
G02*
X0182677Y0190551I0000000J0000394D01*
G01*
X0182677Y0193701D01*
G75*
G02*
X0183071Y0194094I0000394J0000000D01*
G01*
X0186614Y0194094D01*
G75*
G02*
X0187008Y0193701I0000000J-000394D01*
G01*
X0187008Y0190551D01*
G75*
G02*
X0186614Y0190157I-000394J0000000D01*
G01*
G37*
G36*
G01*
X0186614Y0196850D02*
X0183071Y0196850D01*
G75*
G02*
X0182677Y0197244I0000000J0000394D01*
G01*
X0182677Y0200394D01*
G75*
G02*
X0183071Y0200787I0000394J0000000D01*
G01*
X0186614Y0200787D01*
G75*
G02*
X0187008Y0200394I0000000J-000394D01*
G01*
X0187008Y0197244D01*
G75*
G02*
X0186614Y0196850I-000394J0000000D01*
G01*
G37*
D23*
X0177953Y0383878D03*
G36*
G01*
X0175492Y0382087D02*
X0180413Y0382087D01*
G75*
G02*
X0180807Y0381693I0000000J-000394D01*
G01*
X0180807Y0378543D01*
G75*
G02*
X0180413Y0378150I-000394J0000000D01*
G01*
X0175492Y0378150D01*
G75*
G02*
X0175098Y0378543I0000000J0000394D01*
G01*
X0175098Y0381693D01*
G75*
G02*
X0175492Y0382087I0000394J0000000D01*
G01*
G37*
G36*
G01*
X0175492Y0374606D02*
X0180413Y0374606D01*
G75*
G02*
X0180807Y0374213I0000000J-000394D01*
G01*
X0180807Y0371063D01*
G75*
G02*
X0180413Y0370669I-000394J0000000D01*
G01*
X0175492Y0370669D01*
G75*
G02*
X0175098Y0371063I0000000J0000394D01*
G01*
X0175098Y0374213D01*
G75*
G02*
X0175492Y0374606I0000394J0000000D01*
G01*
G37*
X0177953Y0368878D03*
X0294488Y0367106D03*
G36*
G01*
X0296949Y0368898D02*
X0292028Y0368898D01*
G75*
G02*
X0291634Y0369291I0000000J0000394D01*
G01*
X0291634Y0372441D01*
G75*
G02*
X0292028Y0372835I0000394J0000000D01*
G01*
X0296949Y0372835D01*
G75*
G02*
X0297343Y0372441I0000000J-000394D01*
G01*
X0297343Y0369291D01*
G75*
G02*
X0296949Y0368898I-000394J0000000D01*
G01*
G37*
G36*
G01*
X0296949Y0376378D02*
X0292028Y0376378D01*
G75*
G02*
X0291634Y0376772I0000000J0000394D01*
G01*
X0291634Y0379921D01*
G75*
G02*
X0292028Y0380315I0000394J0000000D01*
G01*
X0296949Y0380315D01*
G75*
G02*
X0297343Y0379921I0000000J-000394D01*
G01*
X0297343Y0376772D01*
G75*
G02*
X0296949Y0376378I-000394J0000000D01*
G01*
G37*
X0294488Y0382106D03*
X0095276Y0368878D03*
G36*
G01*
X0097736Y0370669D02*
X0092815Y0370669D01*
G75*
G02*
X0092421Y0371063I0000000J0000394D01*
G01*
X0092421Y0374213D01*
G75*
G02*
X0092815Y0374606I0000394J0000000D01*
G01*
X0097736Y0374606D01*
G75*
G02*
X0098130Y0374213I0000000J-000394D01*
G01*
X0098130Y0371063D01*
G75*
G02*
X0097736Y0370669I-000394J0000000D01*
G01*
G37*
G36*
G01*
X0097736Y0378150D02*
X0092815Y0378150D01*
G75*
G02*
X0092421Y0378543I0000000J0000394D01*
G01*
X0092421Y0381693D01*
G75*
G02*
X0092815Y0382087I0000394J0000000D01*
G01*
X0097736Y0382087D01*
G75*
G02*
X0098130Y0381693I0000000J-000394D01*
G01*
X0098130Y0378543D01*
G75*
G02*
X0097736Y0378150I-000394J0000000D01*
G01*
G37*
X0095276Y0383878D03*
G36*
G01*
X0097953Y0308661D02*
X0094173Y0308661D01*
G75*
G02*
X0093701Y0309134I0000000J0000472D01*
G01*
X0093701Y0316850D01*
G75*
G02*
X0094173Y0317323I0000472J0000000D01*
G01*
X0097953Y0317323D01*
G75*
G02*
X0098425Y0316850I0000000J-000472D01*
G01*
X0098425Y0309134D01*
G75*
G02*
X0097953Y0308661I-000472J0000000D01*
G01*
G37*
D26*
X0105039Y0337795D03*
G36*
G01*
X0115906Y0308661D02*
X0112126Y0308661D01*
G75*
G02*
X0111654Y0309134I0000000J0000472D01*
G01*
X0111654Y0316850D01*
G75*
G02*
X0112126Y0317323I0000472J0000000D01*
G01*
X0115906Y0317323D01*
G75*
G02*
X0116378Y0316850I0000000J-000472D01*
G01*
X0116378Y0309134D01*
G75*
G02*
X0115906Y0308661I-000472J0000000D01*
G01*
G37*
G36*
G01*
X0102953Y0044193D02*
X0102953Y0049508D01*
G75*
G02*
X0103937Y0050492I0000984J0000000D01*
G01*
X0108661Y0050492D01*
G75*
G02*
X0109646Y0049508I0000000J-000984D01*
G01*
X0109646Y0044193D01*
G75*
G02*
X0108661Y0043209I-000984J0000000D01*
G01*
X0103937Y0043209D01*
G75*
G02*
X0102953Y0044193I0000000J0000984D01*
G01*
G37*
D27*
X0116142Y0046850D03*
X0125984Y0046850D03*
X0135827Y0046850D03*
X0145669Y0046850D03*
D23*
X0251772Y0381890D03*
G36*
G01*
X0248228Y0376595D02*
X0248228Y0379311D01*
G75*
G02*
X0249134Y0380217I0000906J0000000D01*
G01*
X0254409Y0380217D01*
G75*
G02*
X0255315Y0379311I0000000J-000906D01*
G01*
X0255315Y0376595D01*
G75*
G02*
X0254409Y0375689I-000906J0000000D01*
G01*
X0249134Y0375689D01*
G75*
G02*
X0248228Y0376595I0000000J0000906D01*
G01*
G37*
G36*
G01*
X0248228Y0365177D02*
X0248228Y0367894D01*
G75*
G02*
X0249134Y0368799I0000906J0000000D01*
G01*
X0254409Y0368799D01*
G75*
G02*
X0255315Y0367894I0000000J-000906D01*
G01*
X0255315Y0365177D01*
G75*
G02*
X0254409Y0364272I-000906J0000000D01*
G01*
X0249134Y0364272D01*
G75*
G02*
X0248228Y0365177I0000000J0000906D01*
G01*
G37*
X0251772Y0362598D03*
G36*
G01*
X0316929Y0266634D02*
X0315748Y0266634D01*
G75*
G02*
X0315157Y0267224I0000000J0000591D01*
G01*
X0315157Y0271850D01*
G75*
G02*
X0315748Y0272441I0000591J0000000D01*
G01*
X0316929Y0272441D01*
G75*
G02*
X0317520Y0271850I0000000J-000591D01*
G01*
X0317520Y0267224D01*
G75*
G02*
X0316929Y0266634I-000591J0000000D01*
G01*
G37*
G36*
G01*
X0320669Y0274016D02*
X0319488Y0274016D01*
G75*
G02*
X0318898Y0274606I0000000J0000591D01*
G01*
X0318898Y0279232D01*
G75*
G02*
X0319488Y0279823I0000591J0000000D01*
G01*
X0320669Y0279823D01*
G75*
G02*
X0321260Y0279232I0000000J-000591D01*
G01*
X0321260Y0274606D01*
G75*
G02*
X0320669Y0274016I-000591J0000000D01*
G01*
G37*
G36*
G01*
X0324409Y0266634D02*
X0323228Y0266634D01*
G75*
G02*
X0322638Y0267224I0000000J0000591D01*
G01*
X0322638Y0271850D01*
G75*
G02*
X0323228Y0272441I0000591J0000000D01*
G01*
X0324409Y0272441D01*
G75*
G02*
X0325000Y0271850I0000000J-000591D01*
G01*
X0325000Y0267224D01*
G75*
G02*
X0324409Y0266634I-000591J0000000D01*
G01*
G37*
X0371654Y0286594D03*
G36*
G01*
X0374114Y0288386D02*
X0369193Y0288386D01*
G75*
G02*
X0368799Y0288780I0000000J0000394D01*
G01*
X0368799Y0291929D01*
G75*
G02*
X0369193Y0292323I0000394J0000000D01*
G01*
X0374114Y0292323D01*
G75*
G02*
X0374508Y0291929I0000000J-000394D01*
G01*
X0374508Y0288780D01*
G75*
G02*
X0374114Y0288386I-000394J0000000D01*
G01*
G37*
G36*
G01*
X0374114Y0295866D02*
X0369193Y0295866D01*
G75*
G02*
X0368799Y0296260I0000000J0000394D01*
G01*
X0368799Y0299410D01*
G75*
G02*
X0369193Y0299803I0000394J0000000D01*
G01*
X0374114Y0299803D01*
G75*
G02*
X0374508Y0299410I0000000J-000394D01*
G01*
X0374508Y0296260D01*
G75*
G02*
X0374114Y0295866I-000394J0000000D01*
G01*
G37*
X0371654Y0301594D03*
G36*
G01*
X0295472Y0300433D02*
X0295472Y0303504D01*
G75*
G02*
X0295748Y0303780I0000276J0000000D01*
G01*
X0297953Y0303780D01*
G75*
G02*
X0298228Y0303504I0000000J-000276D01*
G01*
X0298228Y0300433D01*
G75*
G02*
X0297953Y0300157I-000276J0000000D01*
G01*
X0295748Y0300157D01*
G75*
G02*
X0295472Y0300433I0000000J0000276D01*
G01*
G37*
G36*
G01*
X0301772Y0300433D02*
X0301772Y0303504D01*
G75*
G02*
X0302047Y0303780I0000276J0000000D01*
G01*
X0304252Y0303780D01*
G75*
G02*
X0304528Y0303504I0000000J-000276D01*
G01*
X0304528Y0300433D01*
G75*
G02*
X0304252Y0300157I-000276J0000000D01*
G01*
X0302047Y0300157D01*
G75*
G02*
X0301772Y0300433I0000000J0000276D01*
G01*
G37*
G36*
G01*
X0178642Y0287795D02*
X0178642Y0286614D01*
G75*
G02*
X0178051Y0286024I-000591J0000000D01*
G01*
X0173425Y0286024D01*
G75*
G02*
X0172835Y0286614I0000000J0000591D01*
G01*
X0172835Y0287795D01*
G75*
G02*
X0173425Y0288386I0000591J0000000D01*
G01*
X0178051Y0288386D01*
G75*
G02*
X0178642Y0287795I0000000J-000591D01*
G01*
G37*
G36*
G01*
X0171260Y0291535D02*
X0171260Y0290354D01*
G75*
G02*
X0170669Y0289764I-000591J0000000D01*
G01*
X0166043Y0289764D01*
G75*
G02*
X0165453Y0290354I0000000J0000591D01*
G01*
X0165453Y0291535D01*
G75*
G02*
X0166043Y0292126I0000591J0000000D01*
G01*
X0170669Y0292126D01*
G75*
G02*
X0171260Y0291535I0000000J-000591D01*
G01*
G37*
G36*
G01*
X0178642Y0295276D02*
X0178642Y0294094D01*
G75*
G02*
X0178051Y0293504I-000591J0000000D01*
G01*
X0173425Y0293504D01*
G75*
G02*
X0172835Y0294094I0000000J0000591D01*
G01*
X0172835Y0295276D01*
G75*
G02*
X0173425Y0295866I0000591J0000000D01*
G01*
X0178051Y0295866D01*
G75*
G02*
X0178642Y0295276I0000000J-000591D01*
G01*
G37*
G36*
G01*
X0261417Y0190157D02*
X0257874Y0190157D01*
G75*
G02*
X0257480Y0190551I0000000J0000394D01*
G01*
X0257480Y0193701D01*
G75*
G02*
X0257874Y0194094I0000394J0000000D01*
G01*
X0261417Y0194094D01*
G75*
G02*
X0261811Y0193701I0000000J-000394D01*
G01*
X0261811Y0190551D01*
G75*
G02*
X0261417Y0190157I-000394J0000000D01*
G01*
G37*
G36*
G01*
X0261417Y0196850D02*
X0257874Y0196850D01*
G75*
G02*
X0257480Y0197244I0000000J0000394D01*
G01*
X0257480Y0200394D01*
G75*
G02*
X0257874Y0200787I0000394J0000000D01*
G01*
X0261417Y0200787D01*
G75*
G02*
X0261811Y0200394I0000000J-000394D01*
G01*
X0261811Y0197244D01*
G75*
G02*
X0261417Y0196850I-000394J0000000D01*
G01*
G37*
G36*
G01*
X0208110Y0355177D02*
X0210787Y0355177D01*
G75*
G02*
X0211122Y0354843I0000000J-000335D01*
G01*
X0211122Y0352165D01*
G75*
G02*
X0210787Y0351831I-000335J0000000D01*
G01*
X0208110Y0351831D01*
G75*
G02*
X0207776Y0352165I0000000J0000335D01*
G01*
X0207776Y0354843D01*
G75*
G02*
X0208110Y0355177I0000335J0000000D01*
G01*
G37*
G36*
G01*
X0208110Y0348957D02*
X0210787Y0348957D01*
G75*
G02*
X0211122Y0348622I0000000J-000335D01*
G01*
X0211122Y0345945D01*
G75*
G02*
X0210787Y0345610I-000335J0000000D01*
G01*
X0208110Y0345610D01*
G75*
G02*
X0207776Y0345945I0000000J0000335D01*
G01*
X0207776Y0348622D01*
G75*
G02*
X0208110Y0348957I0000335J0000000D01*
G01*
G37*
G36*
G01*
X0354528Y0300433D02*
X0354528Y0303504D01*
G75*
G02*
X0354803Y0303780I0000276J0000000D01*
G01*
X0357008Y0303780D01*
G75*
G02*
X0357283Y0303504I0000000J-000276D01*
G01*
X0357283Y0300433D01*
G75*
G02*
X0357008Y0300157I-000276J0000000D01*
G01*
X0354803Y0300157D01*
G75*
G02*
X0354528Y0300433I0000000J0000276D01*
G01*
G37*
G36*
G01*
X0360827Y0300433D02*
X0360827Y0303504D01*
G75*
G02*
X0361102Y0303780I0000276J0000000D01*
G01*
X0363307Y0303780D01*
G75*
G02*
X0363583Y0303504I0000000J-000276D01*
G01*
X0363583Y0300433D01*
G75*
G02*
X0363307Y0300157I-000276J0000000D01*
G01*
X0361102Y0300157D01*
G75*
G02*
X0360827Y0300433I0000000J0000276D01*
G01*
G37*
G36*
G01*
X0220472Y0309449D02*
X0216693Y0309449D01*
G75*
G02*
X0216220Y0309921I0000000J0000472D01*
G01*
X0216220Y0317638D01*
G75*
G02*
X0216693Y0318110I0000472J0000000D01*
G01*
X0220472Y0318110D01*
G75*
G02*
X0220945Y0317638I0000000J-000472D01*
G01*
X0220945Y0309921D01*
G75*
G02*
X0220472Y0309449I-000472J0000000D01*
G01*
G37*
D26*
X0227559Y0338583D03*
G36*
G01*
X0238425Y0309449D02*
X0234646Y0309449D01*
G75*
G02*
X0234173Y0309921I0000000J0000472D01*
G01*
X0234173Y0317638D01*
G75*
G02*
X0234646Y0318110I0000472J0000000D01*
G01*
X0238425Y0318110D01*
G75*
G02*
X0238898Y0317638I0000000J-000472D01*
G01*
X0238898Y0309921D01*
G75*
G02*
X0238425Y0309449I-000472J0000000D01*
G01*
G37*
G36*
G01*
X0238189Y0177028D02*
X0238189Y0179665D01*
G75*
G02*
X0238445Y0179921I0000256J0000000D01*
G01*
X0240492Y0179921D01*
G75*
G02*
X0240748Y0179665I0000000J-000256D01*
G01*
X0240748Y0177028D01*
G75*
G02*
X0240492Y0176772I-000256J0000000D01*
G01*
X0238445Y0176772D01*
G75*
G02*
X0238189Y0177028I0000000J0000256D01*
G01*
G37*
G36*
G01*
X0242028Y0176949D02*
X0242028Y0179744D01*
G75*
G02*
X0242205Y0179921I0000177J0000000D01*
G01*
X0243622Y0179921D01*
G75*
G02*
X0243799Y0179744I0000000J-000177D01*
G01*
X0243799Y0176949D01*
G75*
G02*
X0243622Y0176772I-000177J0000000D01*
G01*
X0242205Y0176772D01*
G75*
G02*
X0242028Y0176949I0000000J0000177D01*
G01*
G37*
G36*
G01*
X0245177Y0176949D02*
X0245177Y0179744D01*
G75*
G02*
X0245354Y0179921I0000177J0000000D01*
G01*
X0246772Y0179921D01*
G75*
G02*
X0246949Y0179744I0000000J-000177D01*
G01*
X0246949Y0176949D01*
G75*
G02*
X0246772Y0176772I-000177J0000000D01*
G01*
X0245354Y0176772D01*
G75*
G02*
X0245177Y0176949I0000000J0000177D01*
G01*
G37*
G36*
G01*
X0248228Y0177028D02*
X0248228Y0179665D01*
G75*
G02*
X0248484Y0179921I0000256J0000000D01*
G01*
X0250531Y0179921D01*
G75*
G02*
X0250787Y0179665I0000000J-000256D01*
G01*
X0250787Y0177028D01*
G75*
G02*
X0250531Y0176772I-000256J0000000D01*
G01*
X0248484Y0176772D01*
G75*
G02*
X0248228Y0177028I0000000J0000256D01*
G01*
G37*
G36*
G01*
X0248228Y0184114D02*
X0248228Y0186752D01*
G75*
G02*
X0248484Y0187008I0000256J0000000D01*
G01*
X0250531Y0187008D01*
G75*
G02*
X0250787Y0186752I0000000J-000256D01*
G01*
X0250787Y0184114D01*
G75*
G02*
X0250531Y0183858I-000256J0000000D01*
G01*
X0248484Y0183858D01*
G75*
G02*
X0248228Y0184114I0000000J0000256D01*
G01*
G37*
G36*
G01*
X0245177Y0184035D02*
X0245177Y0186831D01*
G75*
G02*
X0245354Y0187008I0000177J0000000D01*
G01*
X0246772Y0187008D01*
G75*
G02*
X0246949Y0186831I0000000J-000177D01*
G01*
X0246949Y0184035D01*
G75*
G02*
X0246772Y0183858I-000177J0000000D01*
G01*
X0245354Y0183858D01*
G75*
G02*
X0245177Y0184035I0000000J0000177D01*
G01*
G37*
G36*
G01*
X0242028Y0184035D02*
X0242028Y0186831D01*
G75*
G02*
X0242205Y0187008I0000177J0000000D01*
G01*
X0243622Y0187008D01*
G75*
G02*
X0243799Y0186831I0000000J-000177D01*
G01*
X0243799Y0184035D01*
G75*
G02*
X0243622Y0183858I-000177J0000000D01*
G01*
X0242205Y0183858D01*
G75*
G02*
X0242028Y0184035I0000000J0000177D01*
G01*
G37*
G36*
G01*
X0238189Y0184114D02*
X0238189Y0186752D01*
G75*
G02*
X0238445Y0187008I0000256J0000000D01*
G01*
X0240492Y0187008D01*
G75*
G02*
X0240748Y0186752I0000000J-000256D01*
G01*
X0240748Y0184114D01*
G75*
G02*
X0240492Y0183858I-000256J0000000D01*
G01*
X0238445Y0183858D01*
G75*
G02*
X0238189Y0184114I0000000J0000256D01*
G01*
G37*
G36*
G01*
X0104764Y0284744D02*
X0103583Y0284744D01*
G75*
G02*
X0102992Y0285335I0000000J0000591D01*
G01*
X0102992Y0289961D01*
G75*
G02*
X0103583Y0290551I0000591J0000000D01*
G01*
X0104764Y0290551D01*
G75*
G02*
X0105354Y0289961I0000000J-000591D01*
G01*
X0105354Y0285335D01*
G75*
G02*
X0104764Y0284744I-000591J0000000D01*
G01*
G37*
G36*
G01*
X0108504Y0292126D02*
X0107323Y0292126D01*
G75*
G02*
X0106732Y0292717I0000000J0000591D01*
G01*
X0106732Y0297343D01*
G75*
G02*
X0107323Y0297933I0000591J0000000D01*
G01*
X0108504Y0297933D01*
G75*
G02*
X0109094Y0297343I0000000J-000591D01*
G01*
X0109094Y0292717D01*
G75*
G02*
X0108504Y0292126I-000591J0000000D01*
G01*
G37*
G36*
G01*
X0112244Y0284744D02*
X0111063Y0284744D01*
G75*
G02*
X0110472Y0285335I0000000J0000591D01*
G01*
X0110472Y0289961D01*
G75*
G02*
X0111063Y0290551I0000591J0000000D01*
G01*
X0112244Y0290551D01*
G75*
G02*
X0112835Y0289961I0000000J-000591D01*
G01*
X0112835Y0285335D01*
G75*
G02*
X0112244Y0284744I-000591J0000000D01*
G01*
G37*
G36*
G01*
X0291142Y0190157D02*
X0287598Y0190157D01*
G75*
G02*
X0287205Y0190551I0000000J0000394D01*
G01*
X0287205Y0193701D01*
G75*
G02*
X0287598Y0194094I0000394J0000000D01*
G01*
X0291142Y0194094D01*
G75*
G02*
X0291535Y0193701I0000000J-000394D01*
G01*
X0291535Y0190551D01*
G75*
G02*
X0291142Y0190157I-000394J0000000D01*
G01*
G37*
G36*
G01*
X0291142Y0196850D02*
X0287598Y0196850D01*
G75*
G02*
X0287205Y0197244I0000000J0000394D01*
G01*
X0287205Y0200394D01*
G75*
G02*
X0287598Y0200787I0000394J0000000D01*
G01*
X0291142Y0200787D01*
G75*
G02*
X0291535Y0200394I0000000J-000394D01*
G01*
X0291535Y0197244D01*
G75*
G02*
X0291142Y0196850I-000394J0000000D01*
G01*
G37*
D66*
X0008661Y0421654D03*
X0165354Y0421654D03*
D67*
X0036811Y0398031D03*
X0052559Y0398031D03*
X0066339Y0398031D03*
X0080118Y0398031D03*
X0093898Y0398031D03*
X0107677Y0398031D03*
X0121457Y0398031D03*
X0137205Y0398031D03*
X0036811Y0413780D03*
X0052559Y0413780D03*
X0066339Y0413780D03*
X0080118Y0413780D03*
X0093898Y0413780D03*
X0107677Y0413780D03*
X0121457Y0413780D03*
X0137205Y0413780D03*
X0036811Y0429528D03*
X0052559Y0429528D03*
X0066339Y0429528D03*
X0080118Y0429528D03*
X0093898Y0429528D03*
X0107677Y0429528D03*
X0121457Y0429528D03*
X0137205Y0429528D03*
G36*
G01*
X0298425Y0190157D02*
X0294882Y0190157D01*
G75*
G02*
X0294488Y0190551I0000000J0000394D01*
G01*
X0294488Y0193701D01*
G75*
G02*
X0294882Y0194094I0000394J0000000D01*
G01*
X0298425Y0194094D01*
G75*
G02*
X0298819Y0193701I0000000J-000394D01*
G01*
X0298819Y0190551D01*
G75*
G02*
X0298425Y0190157I-000394J0000000D01*
G01*
G37*
G36*
G01*
X0298425Y0196850D02*
X0294882Y0196850D01*
G75*
G02*
X0294488Y0197244I0000000J0000394D01*
G01*
X0294488Y0200394D01*
G75*
G02*
X0294882Y0200787I0000394J0000000D01*
G01*
X0298425Y0200787D01*
G75*
G02*
X0298819Y0200394I0000000J-000394D01*
G01*
X0298819Y0197244D01*
G75*
G02*
X0298425Y0196850I-000394J0000000D01*
G01*
G37*
D24*
X0164961Y0044094D03*
G36*
G01*
X0094685Y0299646D02*
X0094685Y0302717D01*
G75*
G02*
X0094961Y0302992I0000276J0000000D01*
G01*
X0097165Y0302992D01*
G75*
G02*
X0097441Y0302717I0000000J-000276D01*
G01*
X0097441Y0299646D01*
G75*
G02*
X0097165Y0299370I-000276J0000000D01*
G01*
X0094961Y0299370D01*
G75*
G02*
X0094685Y0299646I0000000J0000276D01*
G01*
G37*
G36*
G01*
X0100984Y0299646D02*
X0100984Y0302717D01*
G75*
G02*
X0101260Y0302992I0000276J0000000D01*
G01*
X0103465Y0302992D01*
G75*
G02*
X0103740Y0302717I0000000J-000276D01*
G01*
X0103740Y0299646D01*
G75*
G02*
X0103465Y0299370I-000276J0000000D01*
G01*
X0101260Y0299370D01*
G75*
G02*
X0100984Y0299646I0000000J0000276D01*
G01*
G37*
D23*
X0186417Y0409823D03*
G36*
G01*
X0188878Y0411614D02*
X0183957Y0411614D01*
G75*
G02*
X0183563Y0412008I0000000J0000394D01*
G01*
X0183563Y0415157D01*
G75*
G02*
X0183957Y0415551I0000394J0000000D01*
G01*
X0188878Y0415551D01*
G75*
G02*
X0189272Y0415157I0000000J-000394D01*
G01*
X0189272Y0412008D01*
G75*
G02*
X0188878Y0411614I-000394J0000000D01*
G01*
G37*
G36*
G01*
X0188878Y0419095D02*
X0183957Y0419095D01*
G75*
G02*
X0183563Y0419488I0000000J0000394D01*
G01*
X0183563Y0422638D01*
G75*
G02*
X0183957Y0423032I0000394J0000000D01*
G01*
X0188878Y0423032D01*
G75*
G02*
X0189272Y0422638I0000000J-000394D01*
G01*
X0189272Y0419488D01*
G75*
G02*
X0188878Y0419095I-000394J0000000D01*
G01*
G37*
X0186417Y0424823D03*
G36*
G01*
X0146211Y0287795D02*
X0146211Y0286614D01*
G75*
G02*
X0145620Y0286024I-000591J0000000D01*
G01*
X0140994Y0286024D01*
G75*
G02*
X0140404Y0286614I0000000J0000591D01*
G01*
X0140404Y0287795D01*
G75*
G02*
X0140994Y0288386I0000591J0000000D01*
G01*
X0145620Y0288386D01*
G75*
G02*
X0146211Y0287795I0000000J-000591D01*
G01*
G37*
G36*
G01*
X0138829Y0291535D02*
X0138829Y0290354D01*
G75*
G02*
X0138238Y0289764I-000591J0000000D01*
G01*
X0133612Y0289764D01*
G75*
G02*
X0133022Y0290354I0000000J0000591D01*
G01*
X0133022Y0291535D01*
G75*
G02*
X0133612Y0292126I0000591J0000000D01*
G01*
X0138238Y0292126D01*
G75*
G02*
X0138829Y0291535I0000000J-000591D01*
G01*
G37*
G36*
G01*
X0146211Y0295276D02*
X0146211Y0294094D01*
G75*
G02*
X0145620Y0293504I-000591J0000000D01*
G01*
X0140994Y0293504D01*
G75*
G02*
X0140404Y0294094I0000000J0000591D01*
G01*
X0140404Y0295276D01*
G75*
G02*
X0140994Y0295866I0000591J0000000D01*
G01*
X0145620Y0295866D01*
G75*
G02*
X0146211Y0295276I0000000J-000591D01*
G01*
G37*
D24*
X0253543Y0003937D03*
D23*
X0170079Y0368878D03*
G36*
G01*
X0172539Y0370669D02*
X0167618Y0370669D01*
G75*
G02*
X0167224Y0371063I0000000J0000394D01*
G01*
X0167224Y0374213D01*
G75*
G02*
X0167618Y0374606I0000394J0000000D01*
G01*
X0172539Y0374606D01*
G75*
G02*
X0172933Y0374213I0000000J-000394D01*
G01*
X0172933Y0371063D01*
G75*
G02*
X0172539Y0370669I-000394J0000000D01*
G01*
G37*
G36*
G01*
X0172539Y0378150D02*
X0167618Y0378150D01*
G75*
G02*
X0167224Y0378543I0000000J0000394D01*
G01*
X0167224Y0381693D01*
G75*
G02*
X0167618Y0382087I0000394J0000000D01*
G01*
X0172539Y0382087D01*
G75*
G02*
X0172933Y0381693I0000000J-000394D01*
G01*
X0172933Y0378543D01*
G75*
G02*
X0172539Y0378150I-000394J0000000D01*
G01*
G37*
X0170079Y0383878D03*
D68*
X0106339Y0025276D03*
X0129094Y0025276D03*
D30*
X0104528Y0029469D03*
X0107677Y0029469D03*
X0112795Y0029469D03*
X0116732Y0029469D03*
X0118701Y0029469D03*
X0122638Y0029469D03*
X0127756Y0029469D03*
X0130906Y0029469D03*
X0129724Y0029469D03*
X0126575Y0029469D03*
X0124606Y0029469D03*
X0120669Y0029469D03*
X0114764Y0029469D03*
X0110827Y0029469D03*
X0108858Y0029469D03*
X0105709Y0029469D03*
D31*
X0100709Y0027244D03*
D32*
X0100709Y0010787D03*
D31*
X0134724Y0027244D03*
D32*
X0134724Y0010787D03*
G36*
G01*
X0152559Y0300581D02*
X0152559Y0303652D01*
G75*
G02*
X0152835Y0303927I0000276J0000000D01*
G01*
X0155039Y0303927D01*
G75*
G02*
X0155315Y0303652I0000000J-000276D01*
G01*
X0155315Y0300581D01*
G75*
G02*
X0155039Y0300305I-000276J0000000D01*
G01*
X0152835Y0300305D01*
G75*
G02*
X0152559Y0300581I0000000J0000276D01*
G01*
G37*
G36*
G01*
X0158858Y0300581D02*
X0158858Y0303652D01*
G75*
G02*
X0159134Y0303927I0000276J0000000D01*
G01*
X0161339Y0303927D01*
G75*
G02*
X0161614Y0303652I0000000J-000276D01*
G01*
X0161614Y0300581D01*
G75*
G02*
X0161339Y0300305I-000276J0000000D01*
G01*
X0159134Y0300305D01*
G75*
G02*
X0158858Y0300581I0000000J0000276D01*
G01*
G37*
D24*
X0350787Y0089764D03*
G36*
G01*
X0010630Y0063386D02*
X0006850Y0063386D01*
G75*
G02*
X0006378Y0063858I0000000J0000472D01*
G01*
X0006378Y0071575D01*
G75*
G02*
X0006850Y0072047I0000472J0000000D01*
G01*
X0010630Y0072047D01*
G75*
G02*
X0011102Y0071575I0000000J-000472D01*
G01*
X0011102Y0063858D01*
G75*
G02*
X0010630Y0063386I-000472J0000000D01*
G01*
G37*
D26*
X0017717Y0092520D03*
G36*
G01*
X0028583Y0063386D02*
X0024803Y0063386D01*
G75*
G02*
X0024331Y0063858I0000000J0000472D01*
G01*
X0024331Y0071575D01*
G75*
G02*
X0024803Y0072047I0000472J0000000D01*
G01*
X0028583Y0072047D01*
G75*
G02*
X0029055Y0071575I0000000J-000472D01*
G01*
X0029055Y0063858D01*
G75*
G02*
X0028583Y0063386I-000472J0000000D01*
G01*
G37*
D24*
X0200394Y0003937D03*
G36*
G01*
X0062205Y0283169D02*
X0061024Y0283169D01*
G75*
G02*
X0060433Y0283760I0000000J0000591D01*
G01*
X0060433Y0288386D01*
G75*
G02*
X0061024Y0288976I0000591J0000000D01*
G01*
X0062205Y0288976D01*
G75*
G02*
X0062795Y0288386I0000000J-000591D01*
G01*
X0062795Y0283760D01*
G75*
G02*
X0062205Y0283169I-000591J0000000D01*
G01*
G37*
G36*
G01*
X0065945Y0290551D02*
X0064764Y0290551D01*
G75*
G02*
X0064173Y0291142I0000000J0000591D01*
G01*
X0064173Y0295768D01*
G75*
G02*
X0064764Y0296358I0000591J0000000D01*
G01*
X0065945Y0296358D01*
G75*
G02*
X0066535Y0295768I0000000J-000591D01*
G01*
X0066535Y0291142D01*
G75*
G02*
X0065945Y0290551I-000591J0000000D01*
G01*
G37*
G36*
G01*
X0069685Y0283169D02*
X0068504Y0283169D01*
G75*
G02*
X0067913Y0283760I0000000J0000591D01*
G01*
X0067913Y0288386D01*
G75*
G02*
X0068504Y0288976I0000591J0000000D01*
G01*
X0069685Y0288976D01*
G75*
G02*
X0070276Y0288386I0000000J-000591D01*
G01*
X0070276Y0283760D01*
G75*
G02*
X0069685Y0283169I-000591J0000000D01*
G01*
G37*
G36*
G01*
X0106299Y0137727D02*
X0105118Y0137727D01*
G75*
G02*
X0104528Y0138317I0000000J0000591D01*
G01*
X0104528Y0142943D01*
G75*
G02*
X0105118Y0143534I0000591J0000000D01*
G01*
X0106299Y0143534D01*
G75*
G02*
X0106890Y0142943I0000000J-000591D01*
G01*
X0106890Y0138317D01*
G75*
G02*
X0106299Y0137727I-000591J0000000D01*
G01*
G37*
G36*
G01*
X0110039Y0145109D02*
X0108858Y0145109D01*
G75*
G02*
X0108268Y0145699I0000000J0000591D01*
G01*
X0108268Y0150325D01*
G75*
G02*
X0108858Y0150916I0000591J0000000D01*
G01*
X0110039Y0150916D01*
G75*
G02*
X0110630Y0150325I0000000J-000591D01*
G01*
X0110630Y0145699D01*
G75*
G02*
X0110039Y0145109I-000591J0000000D01*
G01*
G37*
G36*
G01*
X0113780Y0137727D02*
X0112598Y0137727D01*
G75*
G02*
X0112008Y0138317I0000000J0000591D01*
G01*
X0112008Y0142943D01*
G75*
G02*
X0112598Y0143534I0000591J0000000D01*
G01*
X0113780Y0143534D01*
G75*
G02*
X0114370Y0142943I0000000J-000591D01*
G01*
X0114370Y0138317D01*
G75*
G02*
X0113780Y0137727I-000591J0000000D01*
G01*
G37*
G36*
G01*
X0315551Y0261063D02*
X0315551Y0264134D01*
G75*
G02*
X0315827Y0264409I0000276J0000000D01*
G01*
X0318031Y0264409D01*
G75*
G02*
X0318307Y0264134I0000000J-000276D01*
G01*
X0318307Y0261063D01*
G75*
G02*
X0318031Y0260787I-000276J0000000D01*
G01*
X0315827Y0260787D01*
G75*
G02*
X0315551Y0261063I0000000J0000276D01*
G01*
G37*
G36*
G01*
X0321850Y0261063D02*
X0321850Y0264134D01*
G75*
G02*
X0322126Y0264409I0000276J0000000D01*
G01*
X0324331Y0264409D01*
G75*
G02*
X0324606Y0264134I0000000J-000276D01*
G01*
X0324606Y0261063D01*
G75*
G02*
X0324331Y0260787I-000276J0000000D01*
G01*
X0322126Y0260787D01*
G75*
G02*
X0321850Y0261063I0000000J0000276D01*
G01*
G37*
G36*
G01*
X0035630Y0299646D02*
X0035630Y0302717D01*
G75*
G02*
X0035906Y0302992I0000276J0000000D01*
G01*
X0038110Y0302992D01*
G75*
G02*
X0038386Y0302717I0000000J-000276D01*
G01*
X0038386Y0299646D01*
G75*
G02*
X0038110Y0299370I-000276J0000000D01*
G01*
X0035906Y0299370D01*
G75*
G02*
X0035630Y0299646I0000000J0000276D01*
G01*
G37*
G36*
G01*
X0041929Y0299646D02*
X0041929Y0302717D01*
G75*
G02*
X0042205Y0302992I0000276J0000000D01*
G01*
X0044409Y0302992D01*
G75*
G02*
X0044685Y0302717I0000000J-000276D01*
G01*
X0044685Y0299646D01*
G75*
G02*
X0044409Y0299370I-000276J0000000D01*
G01*
X0042205Y0299370D01*
G75*
G02*
X0041929Y0299646I0000000J0000276D01*
G01*
G37*
G36*
G01*
X0247638Y0306398D02*
X0246457Y0306398D01*
G75*
G02*
X0245866Y0306988I0000000J0000591D01*
G01*
X0245866Y0311614D01*
G75*
G02*
X0246457Y0312205I0000591J0000000D01*
G01*
X0247638Y0312205D01*
G75*
G02*
X0248228Y0311614I0000000J-000591D01*
G01*
X0248228Y0306988D01*
G75*
G02*
X0247638Y0306398I-000591J0000000D01*
G01*
G37*
G36*
G01*
X0251378Y0313780D02*
X0250197Y0313780D01*
G75*
G02*
X0249606Y0314370I0000000J0000591D01*
G01*
X0249606Y0318996D01*
G75*
G02*
X0250197Y0319587I0000591J0000000D01*
G01*
X0251378Y0319587D01*
G75*
G02*
X0251969Y0318996I0000000J-000591D01*
G01*
X0251969Y0314370D01*
G75*
G02*
X0251378Y0313780I-000591J0000000D01*
G01*
G37*
G36*
G01*
X0255118Y0306398D02*
X0253937Y0306398D01*
G75*
G02*
X0253346Y0306988I0000000J0000591D01*
G01*
X0253346Y0311614D01*
G75*
G02*
X0253937Y0312205I0000591J0000000D01*
G01*
X0255118Y0312205D01*
G75*
G02*
X0255709Y0311614I0000000J-000591D01*
G01*
X0255709Y0306988D01*
G75*
G02*
X0255118Y0306398I-000591J0000000D01*
G01*
G37*
D23*
X0267913Y0366713D03*
G36*
G01*
X0270374Y0368504D02*
X0265453Y0368504D01*
G75*
G02*
X0265059Y0368898I0000000J0000394D01*
G01*
X0265059Y0372047D01*
G75*
G02*
X0265453Y0372441I0000394J0000000D01*
G01*
X0270374Y0372441D01*
G75*
G02*
X0270768Y0372047I0000000J-000394D01*
G01*
X0270768Y0368898D01*
G75*
G02*
X0270374Y0368504I-000394J0000000D01*
G01*
G37*
G36*
G01*
X0270374Y0375984D02*
X0265453Y0375984D01*
G75*
G02*
X0265059Y0376378I0000000J0000394D01*
G01*
X0265059Y0379528D01*
G75*
G02*
X0265453Y0379921I0000394J0000000D01*
G01*
X0270374Y0379921D01*
G75*
G02*
X0270768Y0379528I0000000J-000394D01*
G01*
X0270768Y0376378D01*
G75*
G02*
X0270374Y0375984I-000394J0000000D01*
G01*
G37*
X0267913Y0381713D03*
G36*
G01*
X0276378Y0190157D02*
X0272835Y0190157D01*
G75*
G02*
X0272441Y0190551I0000000J0000394D01*
G01*
X0272441Y0193701D01*
G75*
G02*
X0272835Y0194094I0000394J0000000D01*
G01*
X0276378Y0194094D01*
G75*
G02*
X0276772Y0193701I0000000J-000394D01*
G01*
X0276772Y0190551D01*
G75*
G02*
X0276378Y0190157I-000394J0000000D01*
G01*
G37*
G36*
G01*
X0276378Y0196850D02*
X0272835Y0196850D01*
G75*
G02*
X0272441Y0197244I0000000J0000394D01*
G01*
X0272441Y0200394D01*
G75*
G02*
X0272835Y0200787I0000394J0000000D01*
G01*
X0276378Y0200787D01*
G75*
G02*
X0276772Y0200394I0000000J-000394D01*
G01*
X0276772Y0197244D01*
G75*
G02*
X0276378Y0196850I-000394J0000000D01*
G01*
G37*
G36*
G01*
X0209055Y0190157D02*
X0205512Y0190157D01*
G75*
G02*
X0205118Y0190551I0000000J0000394D01*
G01*
X0205118Y0193701D01*
G75*
G02*
X0205512Y0194094I0000394J0000000D01*
G01*
X0209055Y0194094D01*
G75*
G02*
X0209449Y0193701I0000000J-000394D01*
G01*
X0209449Y0190551D01*
G75*
G02*
X0209055Y0190157I-000394J0000000D01*
G01*
G37*
G36*
G01*
X0209055Y0196850D02*
X0205512Y0196850D01*
G75*
G02*
X0205118Y0197244I0000000J0000394D01*
G01*
X0205118Y0200394D01*
G75*
G02*
X0205512Y0200787I0000394J0000000D01*
G01*
X0209055Y0200787D01*
G75*
G02*
X0209449Y0200394I0000000J-000394D01*
G01*
X0209449Y0197244D01*
G75*
G02*
X0209055Y0196850I-000394J0000000D01*
G01*
G37*
X0087402Y0368878D03*
G36*
G01*
X0089862Y0370669D02*
X0084941Y0370669D01*
G75*
G02*
X0084547Y0371063I0000000J0000394D01*
G01*
X0084547Y0374213D01*
G75*
G02*
X0084941Y0374606I0000394J0000000D01*
G01*
X0089862Y0374606D01*
G75*
G02*
X0090256Y0374213I0000000J-000394D01*
G01*
X0090256Y0371063D01*
G75*
G02*
X0089862Y0370669I-000394J0000000D01*
G01*
G37*
G36*
G01*
X0089862Y0378150D02*
X0084941Y0378150D01*
G75*
G02*
X0084547Y0378543I0000000J0000394D01*
G01*
X0084547Y0381693D01*
G75*
G02*
X0084941Y0382087I0000394J0000000D01*
G01*
X0089862Y0382087D01*
G75*
G02*
X0090256Y0381693I0000000J-000394D01*
G01*
X0090256Y0378543D01*
G75*
G02*
X0089862Y0378150I-000394J0000000D01*
G01*
G37*
X0087402Y0383878D03*
G36*
G01*
X0017126Y0189409D02*
X0017126Y0192480D01*
G75*
G02*
X0017402Y0192756I0000276J0000000D01*
G01*
X0019606Y0192756D01*
G75*
G02*
X0019882Y0192480I0000000J-000276D01*
G01*
X0019882Y0189409D01*
G75*
G02*
X0019606Y0189134I-000276J0000000D01*
G01*
X0017402Y0189134D01*
G75*
G02*
X0017126Y0189409I0000000J0000276D01*
G01*
G37*
G36*
G01*
X0023425Y0189409D02*
X0023425Y0192480D01*
G75*
G02*
X0023701Y0192756I0000276J0000000D01*
G01*
X0025906Y0192756D01*
G75*
G02*
X0026181Y0192480I0000000J-000276D01*
G01*
X0026181Y0189409D01*
G75*
G02*
X0025906Y0189134I-000276J0000000D01*
G01*
X0023701Y0189134D01*
G75*
G02*
X0023425Y0189409I0000000J0000276D01*
G01*
G37*
G36*
G01*
X0283858Y0190157D02*
X0280315Y0190157D01*
G75*
G02*
X0279921Y0190551I0000000J0000394D01*
G01*
X0279921Y0193701D01*
G75*
G02*
X0280315Y0194094I0000394J0000000D01*
G01*
X0283858Y0194094D01*
G75*
G02*
X0284252Y0193701I0000000J-000394D01*
G01*
X0284252Y0190551D01*
G75*
G02*
X0283858Y0190157I-000394J0000000D01*
G01*
G37*
G36*
G01*
X0283858Y0196850D02*
X0280315Y0196850D01*
G75*
G02*
X0279921Y0197244I0000000J0000394D01*
G01*
X0279921Y0200394D01*
G75*
G02*
X0280315Y0200787I0000394J0000000D01*
G01*
X0283858Y0200787D01*
G75*
G02*
X0284252Y0200394I0000000J-000394D01*
G01*
X0284252Y0197244D01*
G75*
G02*
X0283858Y0196850I-000394J0000000D01*
G01*
G37*
D24*
X0184646Y0003937D03*
X0306299Y0003937D03*
D23*
X0284843Y0366909D03*
G36*
G01*
X0287303Y0368701D02*
X0282382Y0368701D01*
G75*
G02*
X0281988Y0369094I0000000J0000394D01*
G01*
X0281988Y0372244D01*
G75*
G02*
X0282382Y0372638I0000394J0000000D01*
G01*
X0287303Y0372638D01*
G75*
G02*
X0287697Y0372244I0000000J-000394D01*
G01*
X0287697Y0369094D01*
G75*
G02*
X0287303Y0368701I-000394J0000000D01*
G01*
G37*
G36*
G01*
X0287303Y0376181D02*
X0282382Y0376181D01*
G75*
G02*
X0281988Y0376575I0000000J0000394D01*
G01*
X0281988Y0379724D01*
G75*
G02*
X0282382Y0380118I0000394J0000000D01*
G01*
X0287303Y0380118D01*
G75*
G02*
X0287697Y0379724I0000000J-000394D01*
G01*
X0287697Y0376575D01*
G75*
G02*
X0287303Y0376181I-000394J0000000D01*
G01*
G37*
X0284843Y0381909D03*
G36*
G01*
X0126614Y0277618D02*
X0129291Y0277618D01*
G75*
G02*
X0129626Y0277283I0000000J-000335D01*
G01*
X0129626Y0274606D01*
G75*
G02*
X0129291Y0274272I-000335J0000000D01*
G01*
X0126614Y0274272D01*
G75*
G02*
X0126280Y0274606I0000000J0000335D01*
G01*
X0126280Y0277283D01*
G75*
G02*
X0126614Y0277618I0000335J0000000D01*
G01*
G37*
G36*
G01*
X0126614Y0271398D02*
X0129291Y0271398D01*
G75*
G02*
X0129626Y0271063I0000000J-000335D01*
G01*
X0129626Y0268386D01*
G75*
G02*
X0129291Y0268051I-000335J0000000D01*
G01*
X0126614Y0268051D01*
G75*
G02*
X0126280Y0268386I0000000J0000335D01*
G01*
X0126280Y0271063D01*
G75*
G02*
X0126614Y0271398I0000335J0000000D01*
G01*
G37*
X0047047Y0368484D03*
G36*
G01*
X0049508Y0370276D02*
X0044587Y0370276D01*
G75*
G02*
X0044193Y0370669I0000000J0000394D01*
G01*
X0044193Y0373819D01*
G75*
G02*
X0044587Y0374213I0000394J0000000D01*
G01*
X0049508Y0374213D01*
G75*
G02*
X0049902Y0373819I0000000J-000394D01*
G01*
X0049902Y0370669D01*
G75*
G02*
X0049508Y0370276I-000394J0000000D01*
G01*
G37*
G36*
G01*
X0049508Y0377756D02*
X0044587Y0377756D01*
G75*
G02*
X0044193Y0378150I0000000J0000394D01*
G01*
X0044193Y0381299D01*
G75*
G02*
X0044587Y0381693I0000394J0000000D01*
G01*
X0049508Y0381693D01*
G75*
G02*
X0049902Y0381299I0000000J-000394D01*
G01*
X0049902Y0378150D01*
G75*
G02*
X0049508Y0377756I-000394J0000000D01*
G01*
G37*
X0047047Y0383484D03*
G36*
G01*
X0313386Y0190157D02*
X0309843Y0190157D01*
G75*
G02*
X0309449Y0190551I0000000J0000394D01*
G01*
X0309449Y0193701D01*
G75*
G02*
X0309843Y0194094I0000394J0000000D01*
G01*
X0313386Y0194094D01*
G75*
G02*
X0313780Y0193701I0000000J-000394D01*
G01*
X0313780Y0190551D01*
G75*
G02*
X0313386Y0190157I-000394J0000000D01*
G01*
G37*
G36*
G01*
X0313386Y0196850D02*
X0309843Y0196850D01*
G75*
G02*
X0309449Y0197244I0000000J0000394D01*
G01*
X0309449Y0200394D01*
G75*
G02*
X0309843Y0200787I0000394J0000000D01*
G01*
X0313386Y0200787D01*
G75*
G02*
X0313780Y0200394I0000000J-000394D01*
G01*
X0313780Y0197244D01*
G75*
G02*
X0313386Y0196850I-000394J0000000D01*
G01*
G37*
G36*
G01*
X0238976Y0190157D02*
X0235433Y0190157D01*
G75*
G02*
X0235039Y0190551I0000000J0000394D01*
G01*
X0235039Y0193701D01*
G75*
G02*
X0235433Y0194094I0000394J0000000D01*
G01*
X0238976Y0194094D01*
G75*
G02*
X0239370Y0193701I0000000J-000394D01*
G01*
X0239370Y0190551D01*
G75*
G02*
X0238976Y0190157I-000394J0000000D01*
G01*
G37*
G36*
G01*
X0238976Y0196850D02*
X0235433Y0196850D01*
G75*
G02*
X0235039Y0197244I0000000J0000394D01*
G01*
X0235039Y0200394D01*
G75*
G02*
X0235433Y0200787I0000394J0000000D01*
G01*
X0238976Y0200787D01*
G75*
G02*
X0239370Y0200394I0000000J-000394D01*
G01*
X0239370Y0197244D01*
G75*
G02*
X0238976Y0196850I-000394J0000000D01*
G01*
G37*
G36*
G01*
X0006102Y0299646D02*
X0006102Y0302717D01*
G75*
G02*
X0006378Y0302992I0000276J0000000D01*
G01*
X0008583Y0302992D01*
G75*
G02*
X0008858Y0302717I0000000J-000276D01*
G01*
X0008858Y0299646D01*
G75*
G02*
X0008583Y0299370I-000276J0000000D01*
G01*
X0006378Y0299370D01*
G75*
G02*
X0006102Y0299646I0000000J0000276D01*
G01*
G37*
G36*
G01*
X0012402Y0299646D02*
X0012402Y0302717D01*
G75*
G02*
X0012677Y0302992I0000276J0000000D01*
G01*
X0014882Y0302992D01*
G75*
G02*
X0015157Y0302717I0000000J-000276D01*
G01*
X0015157Y0299646D01*
G75*
G02*
X0014882Y0299370I-000276J0000000D01*
G01*
X0012677Y0299370D01*
G75*
G02*
X0012402Y0299646I0000000J0000276D01*
G01*
G37*
G36*
G01*
X0334843Y0243346D02*
X0334843Y0246417D01*
G75*
G02*
X0335118Y0246693I0000276J0000000D01*
G01*
X0337323Y0246693D01*
G75*
G02*
X0337598Y0246417I0000000J-000276D01*
G01*
X0337598Y0243346D01*
G75*
G02*
X0337323Y0243071I-000276J0000000D01*
G01*
X0335118Y0243071D01*
G75*
G02*
X0334843Y0243346I0000000J0000276D01*
G01*
G37*
G36*
G01*
X0341142Y0243346D02*
X0341142Y0246417D01*
G75*
G02*
X0341417Y0246693I0000276J0000000D01*
G01*
X0343622Y0246693D01*
G75*
G02*
X0343898Y0246417I0000000J-000276D01*
G01*
X0343898Y0243346D01*
G75*
G02*
X0343622Y0243071I-000276J0000000D01*
G01*
X0341417Y0243071D01*
G75*
G02*
X0341142Y0243346I0000000J0000276D01*
G01*
G37*
G36*
G01*
X0253937Y0190157D02*
X0250394Y0190157D01*
G75*
G02*
X0250000Y0190551I0000000J0000394D01*
G01*
X0250000Y0193701D01*
G75*
G02*
X0250394Y0194094I0000394J0000000D01*
G01*
X0253937Y0194094D01*
G75*
G02*
X0254331Y0193701I0000000J-000394D01*
G01*
X0254331Y0190551D01*
G75*
G02*
X0253937Y0190157I-000394J0000000D01*
G01*
G37*
G36*
G01*
X0253937Y0196850D02*
X0250394Y0196850D01*
G75*
G02*
X0250000Y0197244I0000000J0000394D01*
G01*
X0250000Y0200394D01*
G75*
G02*
X0250394Y0200787I0000394J0000000D01*
G01*
X0253937Y0200787D01*
G75*
G02*
X0254331Y0200394I0000000J-000394D01*
G01*
X0254331Y0197244D01*
G75*
G02*
X0253937Y0196850I-000394J0000000D01*
G01*
G37*
D24*
X0294094Y0238976D03*
G36*
G01*
X0038898Y0308661D02*
X0035118Y0308661D01*
G75*
G02*
X0034646Y0309134I0000000J0000472D01*
G01*
X0034646Y0316850D01*
G75*
G02*
X0035118Y0317323I0000472J0000000D01*
G01*
X0038898Y0317323D01*
G75*
G02*
X0039370Y0316850I0000000J-000472D01*
G01*
X0039370Y0309134D01*
G75*
G02*
X0038898Y0308661I-000472J0000000D01*
G01*
G37*
D26*
X0045984Y0337795D03*
G36*
G01*
X0056850Y0308661D02*
X0053071Y0308661D01*
G75*
G02*
X0052598Y0309134I0000000J0000472D01*
G01*
X0052598Y0316850D01*
G75*
G02*
X0053071Y0317323I0000472J0000000D01*
G01*
X0056850Y0317323D01*
G75*
G02*
X0057323Y0316850I0000000J-000472D01*
G01*
X0057323Y0309134D01*
G75*
G02*
X0056850Y0308661I-000472J0000000D01*
G01*
G37*
D59*
X0070630Y0119291D03*
X0070630Y0190157D03*
G36*
G01*
X0057087Y0128150D02*
X0053150Y0128150D01*
G75*
G02*
X0052165Y0129134I0000000J0000984D01*
G01*
X0052165Y0133071D01*
G75*
G02*
X0053150Y0134055I0000984J0000000D01*
G01*
X0057087Y0134055D01*
G75*
G02*
X0058071Y0133071I0000000J-000984D01*
G01*
X0058071Y0129134D01*
G75*
G02*
X0057087Y0128150I-000984J0000000D01*
G01*
G37*
D33*
X0055118Y0142913D03*
X0055118Y0154724D03*
X0055118Y0166535D03*
X0055118Y0178346D03*
X0066929Y0131102D03*
X0066929Y0142913D03*
X0066929Y0154724D03*
X0066929Y0166535D03*
X0066929Y0178346D03*
G36*
G01*
X0187402Y0177028D02*
X0187402Y0179665D01*
G75*
G02*
X0187657Y0179921I0000256J0000000D01*
G01*
X0189705Y0179921D01*
G75*
G02*
X0189961Y0179665I0000000J-000256D01*
G01*
X0189961Y0177028D01*
G75*
G02*
X0189705Y0176772I-000256J0000000D01*
G01*
X0187657Y0176772D01*
G75*
G02*
X0187402Y0177028I0000000J0000256D01*
G01*
G37*
G36*
G01*
X0191240Y0176949D02*
X0191240Y0179744D01*
G75*
G02*
X0191417Y0179921I0000177J0000000D01*
G01*
X0192835Y0179921D01*
G75*
G02*
X0193012Y0179744I0000000J-000177D01*
G01*
X0193012Y0176949D01*
G75*
G02*
X0192835Y0176772I-000177J0000000D01*
G01*
X0191417Y0176772D01*
G75*
G02*
X0191240Y0176949I0000000J0000177D01*
G01*
G37*
G36*
G01*
X0194390Y0176949D02*
X0194390Y0179744D01*
G75*
G02*
X0194567Y0179921I0000177J0000000D01*
G01*
X0195984Y0179921D01*
G75*
G02*
X0196161Y0179744I0000000J-000177D01*
G01*
X0196161Y0176949D01*
G75*
G02*
X0195984Y0176772I-000177J0000000D01*
G01*
X0194567Y0176772D01*
G75*
G02*
X0194390Y0176949I0000000J0000177D01*
G01*
G37*
G36*
G01*
X0197441Y0177028D02*
X0197441Y0179665D01*
G75*
G02*
X0197697Y0179921I0000256J0000000D01*
G01*
X0199744Y0179921D01*
G75*
G02*
X0200000Y0179665I0000000J-000256D01*
G01*
X0200000Y0177028D01*
G75*
G02*
X0199744Y0176772I-000256J0000000D01*
G01*
X0197697Y0176772D01*
G75*
G02*
X0197441Y0177028I0000000J0000256D01*
G01*
G37*
G36*
G01*
X0197441Y0184114D02*
X0197441Y0186752D01*
G75*
G02*
X0197697Y0187008I0000256J0000000D01*
G01*
X0199744Y0187008D01*
G75*
G02*
X0200000Y0186752I0000000J-000256D01*
G01*
X0200000Y0184114D01*
G75*
G02*
X0199744Y0183858I-000256J0000000D01*
G01*
X0197697Y0183858D01*
G75*
G02*
X0197441Y0184114I0000000J0000256D01*
G01*
G37*
G36*
G01*
X0194390Y0184035D02*
X0194390Y0186831D01*
G75*
G02*
X0194567Y0187008I0000177J0000000D01*
G01*
X0195984Y0187008D01*
G75*
G02*
X0196161Y0186831I0000000J-000177D01*
G01*
X0196161Y0184035D01*
G75*
G02*
X0195984Y0183858I-000177J0000000D01*
G01*
X0194567Y0183858D01*
G75*
G02*
X0194390Y0184035I0000000J0000177D01*
G01*
G37*
G36*
G01*
X0191240Y0184035D02*
X0191240Y0186831D01*
G75*
G02*
X0191417Y0187008I0000177J0000000D01*
G01*
X0192835Y0187008D01*
G75*
G02*
X0193012Y0186831I0000000J-000177D01*
G01*
X0193012Y0184035D01*
G75*
G02*
X0192835Y0183858I-000177J0000000D01*
G01*
X0191417Y0183858D01*
G75*
G02*
X0191240Y0184035I0000000J0000177D01*
G01*
G37*
G36*
G01*
X0187402Y0184114D02*
X0187402Y0186752D01*
G75*
G02*
X0187657Y0187008I0000256J0000000D01*
G01*
X0189705Y0187008D01*
G75*
G02*
X0189961Y0186752I0000000J-000256D01*
G01*
X0189961Y0184114D01*
G75*
G02*
X0189705Y0183858I-000256J0000000D01*
G01*
X0187657Y0183858D01*
G75*
G02*
X0187402Y0184114I0000000J0000256D01*
G01*
G37*
D24*
X0288976Y0003937D03*
G36*
G01*
X0328346Y0190157D02*
X0324803Y0190157D01*
G75*
G02*
X0324409Y0190551I0000000J0000394D01*
G01*
X0324409Y0193701D01*
G75*
G02*
X0324803Y0194094I0000394J0000000D01*
G01*
X0328346Y0194094D01*
G75*
G02*
X0328740Y0193701I0000000J-000394D01*
G01*
X0328740Y0190551D01*
G75*
G02*
X0328346Y0190157I-000394J0000000D01*
G01*
G37*
G36*
G01*
X0328346Y0196850D02*
X0324803Y0196850D01*
G75*
G02*
X0324409Y0197244I0000000J0000394D01*
G01*
X0324409Y0200394D01*
G75*
G02*
X0324803Y0200787I0000394J0000000D01*
G01*
X0328346Y0200787D01*
G75*
G02*
X0328740Y0200394I0000000J-000394D01*
G01*
X0328740Y0197244D01*
G75*
G02*
X0328346Y0196850I-000394J0000000D01*
G01*
G37*
D33*
X0261024Y0231595D03*
X0235827Y0231595D03*
X0228346Y0231595D03*
X0211417Y0231595D03*
D10*
X0201969Y0229823D03*
X0198032Y0229823D03*
D33*
X0186811Y0231595D03*
X0262795Y0292618D03*
X0255512Y0292618D03*
X0236024Y0292618D03*
X0188583Y0292618D03*
G36*
G01*
X0158268Y0277972D02*
X0158268Y0280689D01*
G75*
G02*
X0159173Y0281595I0000906J0000000D01*
G01*
X0164449Y0281595D01*
G75*
G02*
X0165354Y0280689I0000000J-000906D01*
G01*
X0165354Y0277972D01*
G75*
G02*
X0164449Y0277067I-000906J0000000D01*
G01*
X0159173Y0277067D01*
G75*
G02*
X0158268Y0277972I0000000J0000906D01*
G01*
G37*
G36*
G01*
X0158268Y0266555D02*
X0158268Y0269272D01*
G75*
G02*
X0159173Y0270177I0000906J0000000D01*
G01*
X0164449Y0270177D01*
G75*
G02*
X0165354Y0269272I0000000J-000906D01*
G01*
X0165354Y0266555D01*
G75*
G02*
X0164449Y0265650I-000906J0000000D01*
G01*
X0159173Y0265650D01*
G75*
G02*
X0158268Y0266555I0000000J0000906D01*
G01*
G37*
G36*
G01*
X0271063Y0357835D02*
X0271063Y0354764D01*
G75*
G02*
X0270787Y0354488I-000276J0000000D01*
G01*
X0268583Y0354488D01*
G75*
G02*
X0268307Y0354764I0000000J0000276D01*
G01*
X0268307Y0357835D01*
G75*
G02*
X0268583Y0358110I0000276J0000000D01*
G01*
X0270787Y0358110D01*
G75*
G02*
X0271063Y0357835I0000000J-000276D01*
G01*
G37*
G36*
G01*
X0264764Y0357835D02*
X0264764Y0354764D01*
G75*
G02*
X0264488Y0354488I-000276J0000000D01*
G01*
X0262283Y0354488D01*
G75*
G02*
X0262008Y0354764I0000000J0000276D01*
G01*
X0262008Y0357835D01*
G75*
G02*
X0262283Y0358110I0000276J0000000D01*
G01*
X0264488Y0358110D01*
G75*
G02*
X0264764Y0357835I0000000J-000276D01*
G01*
G37*
G36*
G01*
X0316929Y0282382D02*
X0315748Y0282382D01*
G75*
G02*
X0315157Y0282972I0000000J0000591D01*
G01*
X0315157Y0287598D01*
G75*
G02*
X0315748Y0288189I0000591J0000000D01*
G01*
X0316929Y0288189D01*
G75*
G02*
X0317520Y0287598I0000000J-000591D01*
G01*
X0317520Y0282972D01*
G75*
G02*
X0316929Y0282382I-000591J0000000D01*
G01*
G37*
G36*
G01*
X0320669Y0289764D02*
X0319488Y0289764D01*
G75*
G02*
X0318898Y0290354I0000000J0000591D01*
G01*
X0318898Y0294980D01*
G75*
G02*
X0319488Y0295571I0000591J0000000D01*
G01*
X0320669Y0295571D01*
G75*
G02*
X0321260Y0294980I0000000J-000591D01*
G01*
X0321260Y0290354D01*
G75*
G02*
X0320669Y0289764I-000591J0000000D01*
G01*
G37*
G36*
G01*
X0324409Y0282382D02*
X0323228Y0282382D01*
G75*
G02*
X0322638Y0282972I0000000J0000591D01*
G01*
X0322638Y0287598D01*
G75*
G02*
X0323228Y0288189I0000591J0000000D01*
G01*
X0324409Y0288189D01*
G75*
G02*
X0325000Y0287598I0000000J-000591D01*
G01*
X0325000Y0282972D01*
G75*
G02*
X0324409Y0282382I-000591J0000000D01*
G01*
G37*
G36*
G01*
X0247638Y0339469D02*
X0246457Y0339469D01*
G75*
G02*
X0245866Y0340059I0000000J0000591D01*
G01*
X0245866Y0344685D01*
G75*
G02*
X0246457Y0345276I0000591J0000000D01*
G01*
X0247638Y0345276D01*
G75*
G02*
X0248228Y0344685I0000000J-000591D01*
G01*
X0248228Y0340059D01*
G75*
G02*
X0247638Y0339469I-000591J0000000D01*
G01*
G37*
G36*
G01*
X0251378Y0346850D02*
X0250197Y0346850D01*
G75*
G02*
X0249606Y0347441I0000000J0000591D01*
G01*
X0249606Y0352067D01*
G75*
G02*
X0250197Y0352657I0000591J0000000D01*
G01*
X0251378Y0352657D01*
G75*
G02*
X0251969Y0352067I0000000J-000591D01*
G01*
X0251969Y0347441D01*
G75*
G02*
X0251378Y0346850I-000591J0000000D01*
G01*
G37*
G36*
G01*
X0255118Y0339469D02*
X0253937Y0339469D01*
G75*
G02*
X0253346Y0340059I0000000J0000591D01*
G01*
X0253346Y0344685D01*
G75*
G02*
X0253937Y0345276I0000591J0000000D01*
G01*
X0255118Y0345276D01*
G75*
G02*
X0255709Y0344685I0000000J-000591D01*
G01*
X0255709Y0340059D01*
G75*
G02*
X0255118Y0339469I-000591J0000000D01*
G01*
G37*
G36*
G01*
X0343307Y0190157D02*
X0339764Y0190157D01*
G75*
G02*
X0339370Y0190551I0000000J0000394D01*
G01*
X0339370Y0193701D01*
G75*
G02*
X0339764Y0194094I0000394J0000000D01*
G01*
X0343307Y0194094D01*
G75*
G02*
X0343701Y0193701I0000000J-000394D01*
G01*
X0343701Y0190551D01*
G75*
G02*
X0343307Y0190157I-000394J0000000D01*
G01*
G37*
G36*
G01*
X0343307Y0196850D02*
X0339764Y0196850D01*
G75*
G02*
X0339370Y0197244I0000000J0000394D01*
G01*
X0339370Y0200394D01*
G75*
G02*
X0339764Y0200787I0000394J0000000D01*
G01*
X0343307Y0200787D01*
G75*
G02*
X0343701Y0200394I0000000J-000394D01*
G01*
X0343701Y0197244D01*
G75*
G02*
X0343307Y0196850I-000394J0000000D01*
G01*
G37*
G36*
G01*
X0102756Y0277972D02*
X0102756Y0280689D01*
G75*
G02*
X0103661Y0281595I0000906J0000000D01*
G01*
X0108937Y0281595D01*
G75*
G02*
X0109843Y0280689I0000000J-000906D01*
G01*
X0109843Y0277972D01*
G75*
G02*
X0108937Y0277067I-000906J0000000D01*
G01*
X0103661Y0277067D01*
G75*
G02*
X0102756Y0277972I0000000J0000906D01*
G01*
G37*
G36*
G01*
X0102756Y0266555D02*
X0102756Y0269272D01*
G75*
G02*
X0103661Y0270177I0000906J0000000D01*
G01*
X0108937Y0270177D01*
G75*
G02*
X0109843Y0269272I0000000J-000906D01*
G01*
X0109843Y0266555D01*
G75*
G02*
X0108937Y0265650I-000906J0000000D01*
G01*
X0103661Y0265650D01*
G75*
G02*
X0102756Y0266555I0000000J0000906D01*
G01*
G37*
G36*
G01*
X0268898Y0190157D02*
X0265354Y0190157D01*
G75*
G02*
X0264961Y0190551I0000000J0000394D01*
G01*
X0264961Y0193701D01*
G75*
G02*
X0265354Y0194094I0000394J0000000D01*
G01*
X0268898Y0194094D01*
G75*
G02*
X0269291Y0193701I0000000J-000394D01*
G01*
X0269291Y0190551D01*
G75*
G02*
X0268898Y0190157I-000394J0000000D01*
G01*
G37*
G36*
G01*
X0268898Y0196850D02*
X0265354Y0196850D01*
G75*
G02*
X0264961Y0197244I0000000J0000394D01*
G01*
X0264961Y0200394D01*
G75*
G02*
X0265354Y0200787I0000394J0000000D01*
G01*
X0268898Y0200787D01*
G75*
G02*
X0269291Y0200394I0000000J-000394D01*
G01*
X0269291Y0197244D01*
G75*
G02*
X0268898Y0196850I-000394J0000000D01*
G01*
G37*
D10*
X0047146Y0234449D03*
X0047146Y0239173D03*
X0047146Y0229724D03*
X0047146Y0225000D03*
X0103937Y0250433D03*
X0103937Y0254370D03*
G36*
G01*
X0115354Y0164439D02*
X0115354Y0160424D01*
G75*
G02*
X0115000Y0160069I-000354J0000000D01*
G01*
X0112165Y0160069D01*
G75*
G02*
X0111811Y0160424I0000000J0000354D01*
G01*
X0111811Y0164439D01*
G75*
G02*
X0112165Y0164794I0000354J0000000D01*
G01*
X0115000Y0164794D01*
G75*
G02*
X0115354Y0164439I0000000J-000354D01*
G01*
G37*
G36*
G01*
X0102362Y0164439D02*
X0102362Y0160424D01*
G75*
G02*
X0102008Y0160069I-000354J0000000D01*
G01*
X0099173Y0160069D01*
G75*
G02*
X0098819Y0160424I0000000J0000354D01*
G01*
X0098819Y0164439D01*
G75*
G02*
X0099173Y0164794I0000354J0000000D01*
G01*
X0102008Y0164794D01*
G75*
G02*
X0102362Y0164439I0000000J-000354D01*
G01*
G37*
D23*
X0260236Y0366713D03*
G36*
G01*
X0262697Y0368504D02*
X0257776Y0368504D01*
G75*
G02*
X0257382Y0368898I0000000J0000394D01*
G01*
X0257382Y0372047D01*
G75*
G02*
X0257776Y0372441I0000394J0000000D01*
G01*
X0262697Y0372441D01*
G75*
G02*
X0263091Y0372047I0000000J-000394D01*
G01*
X0263091Y0368898D01*
G75*
G02*
X0262697Y0368504I-000394J0000000D01*
G01*
G37*
G36*
G01*
X0262697Y0375984D02*
X0257776Y0375984D01*
G75*
G02*
X0257382Y0376378I0000000J0000394D01*
G01*
X0257382Y0379528D01*
G75*
G02*
X0257776Y0379921I0000394J0000000D01*
G01*
X0262697Y0379921D01*
G75*
G02*
X0263091Y0379528I0000000J-000394D01*
G01*
X0263091Y0376378D01*
G75*
G02*
X0262697Y0375984I-000394J0000000D01*
G01*
G37*
X0260236Y0381713D03*
G36*
G01*
X0017126Y0177598D02*
X0017126Y0180669D01*
G75*
G02*
X0017402Y0180945I0000276J0000000D01*
G01*
X0019606Y0180945D01*
G75*
G02*
X0019882Y0180669I0000000J-000276D01*
G01*
X0019882Y0177598D01*
G75*
G02*
X0019606Y0177323I-000276J0000000D01*
G01*
X0017402Y0177323D01*
G75*
G02*
X0017126Y0177598I0000000J0000276D01*
G01*
G37*
G36*
G01*
X0023425Y0177598D02*
X0023425Y0180669D01*
G75*
G02*
X0023701Y0180945I0000276J0000000D01*
G01*
X0025906Y0180945D01*
G75*
G02*
X0026181Y0180669I0000000J-000276D01*
G01*
X0026181Y0177598D01*
G75*
G02*
X0025906Y0177323I-000276J0000000D01*
G01*
X0023701Y0177323D01*
G75*
G02*
X0023425Y0177598I0000000J0000276D01*
G01*
G37*
X0112205Y0367697D03*
G36*
G01*
X0114665Y0369488D02*
X0109744Y0369488D01*
G75*
G02*
X0109350Y0369882I0000000J0000394D01*
G01*
X0109350Y0373031D01*
G75*
G02*
X0109744Y0373425I0000394J0000000D01*
G01*
X0114665Y0373425D01*
G75*
G02*
X0115059Y0373031I0000000J-000394D01*
G01*
X0115059Y0369882D01*
G75*
G02*
X0114665Y0369488I-000394J0000000D01*
G01*
G37*
G36*
G01*
X0114665Y0376969D02*
X0109744Y0376969D01*
G75*
G02*
X0109350Y0377362I0000000J0000394D01*
G01*
X0109350Y0380512D01*
G75*
G02*
X0109744Y0380906I0000394J0000000D01*
G01*
X0114665Y0380906D01*
G75*
G02*
X0115059Y0380512I0000000J-000394D01*
G01*
X0115059Y0377362D01*
G75*
G02*
X0114665Y0376969I-000394J0000000D01*
G01*
G37*
X0112205Y0382697D03*
G36*
G01*
X0338110Y0252362D02*
X0334331Y0252362D01*
G75*
G02*
X0333858Y0252835I0000000J0000472D01*
G01*
X0333858Y0260551D01*
G75*
G02*
X0334331Y0261024I0000472J0000000D01*
G01*
X0338110Y0261024D01*
G75*
G02*
X0338583Y0260551I0000000J-000472D01*
G01*
X0338583Y0252835D01*
G75*
G02*
X0338110Y0252362I-000472J0000000D01*
G01*
G37*
D26*
X0345197Y0281496D03*
G36*
G01*
X0356063Y0252362D02*
X0352283Y0252362D01*
G75*
G02*
X0351811Y0252835I0000000J0000472D01*
G01*
X0351811Y0260551D01*
G75*
G02*
X0352283Y0261024I0000472J0000000D01*
G01*
X0356063Y0261024D01*
G75*
G02*
X0356535Y0260551I0000000J-000472D01*
G01*
X0356535Y0252835D01*
G75*
G02*
X0356063Y0252362I-000472J0000000D01*
G01*
G37*
D23*
X0129528Y0383464D03*
G36*
G01*
X0125984Y0378169D02*
X0125984Y0380886D01*
G75*
G02*
X0126890Y0381791I0000906J0000000D01*
G01*
X0132165Y0381791D01*
G75*
G02*
X0133071Y0380886I0000000J-000906D01*
G01*
X0133071Y0378169D01*
G75*
G02*
X0132165Y0377264I-000906J0000000D01*
G01*
X0126890Y0377264D01*
G75*
G02*
X0125984Y0378169I0000000J0000906D01*
G01*
G37*
G36*
G01*
X0125984Y0366752D02*
X0125984Y0369468D01*
G75*
G02*
X0126890Y0370374I0000906J0000000D01*
G01*
X0132165Y0370374D01*
G75*
G02*
X0133071Y0369468I0000000J-000906D01*
G01*
X0133071Y0366752D01*
G75*
G02*
X0132165Y0365846I-000906J0000000D01*
G01*
X0126890Y0365846D01*
G75*
G02*
X0125984Y0366752I0000000J0000906D01*
G01*
G37*
X0129528Y0364173D03*
G36*
G01*
X0092520Y0137727D02*
X0091339Y0137727D01*
G75*
G02*
X0090748Y0138317I0000000J0000591D01*
G01*
X0090748Y0142943D01*
G75*
G02*
X0091339Y0143534I0000591J0000000D01*
G01*
X0092520Y0143534D01*
G75*
G02*
X0093110Y0142943I0000000J-000591D01*
G01*
X0093110Y0138317D01*
G75*
G02*
X0092520Y0137727I-000591J0000000D01*
G01*
G37*
G36*
G01*
X0096260Y0145109D02*
X0095079Y0145109D01*
G75*
G02*
X0094488Y0145699I0000000J0000591D01*
G01*
X0094488Y0150325D01*
G75*
G02*
X0095079Y0150916I0000591J0000000D01*
G01*
X0096260Y0150916D01*
G75*
G02*
X0096850Y0150325I0000000J-000591D01*
G01*
X0096850Y0145699D01*
G75*
G02*
X0096260Y0145109I-000591J0000000D01*
G01*
G37*
G36*
G01*
X0100000Y0137727D02*
X0098819Y0137727D01*
G75*
G02*
X0098228Y0138317I0000000J0000591D01*
G01*
X0098228Y0142943D01*
G75*
G02*
X0098819Y0143534I0000591J0000000D01*
G01*
X0100000Y0143534D01*
G75*
G02*
X0100591Y0142943I0000000J-000591D01*
G01*
X0100591Y0138317D01*
G75*
G02*
X0100000Y0137727I-000591J0000000D01*
G01*
G37*
G36*
G01*
X0212205Y0177028D02*
X0212205Y0179665D01*
G75*
G02*
X0212461Y0179921I0000256J0000000D01*
G01*
X0214508Y0179921D01*
G75*
G02*
X0214764Y0179665I0000000J-000256D01*
G01*
X0214764Y0177028D01*
G75*
G02*
X0214508Y0176772I-000256J0000000D01*
G01*
X0212461Y0176772D01*
G75*
G02*
X0212205Y0177028I0000000J0000256D01*
G01*
G37*
G36*
G01*
X0216043Y0176949D02*
X0216043Y0179744D01*
G75*
G02*
X0216220Y0179921I0000177J0000000D01*
G01*
X0217638Y0179921D01*
G75*
G02*
X0217815Y0179744I0000000J-000177D01*
G01*
X0217815Y0176949D01*
G75*
G02*
X0217638Y0176772I-000177J0000000D01*
G01*
X0216220Y0176772D01*
G75*
G02*
X0216043Y0176949I0000000J0000177D01*
G01*
G37*
G36*
G01*
X0219193Y0176949D02*
X0219193Y0179744D01*
G75*
G02*
X0219370Y0179921I0000177J0000000D01*
G01*
X0220787Y0179921D01*
G75*
G02*
X0220965Y0179744I0000000J-000177D01*
G01*
X0220965Y0176949D01*
G75*
G02*
X0220787Y0176772I-000177J0000000D01*
G01*
X0219370Y0176772D01*
G75*
G02*
X0219193Y0176949I0000000J0000177D01*
G01*
G37*
G36*
G01*
X0222244Y0177028D02*
X0222244Y0179665D01*
G75*
G02*
X0222500Y0179921I0000256J0000000D01*
G01*
X0224547Y0179921D01*
G75*
G02*
X0224803Y0179665I0000000J-000256D01*
G01*
X0224803Y0177028D01*
G75*
G02*
X0224547Y0176772I-000256J0000000D01*
G01*
X0222500Y0176772D01*
G75*
G02*
X0222244Y0177028I0000000J0000256D01*
G01*
G37*
G36*
G01*
X0222244Y0184114D02*
X0222244Y0186752D01*
G75*
G02*
X0222500Y0187008I0000256J0000000D01*
G01*
X0224547Y0187008D01*
G75*
G02*
X0224803Y0186752I0000000J-000256D01*
G01*
X0224803Y0184114D01*
G75*
G02*
X0224547Y0183858I-000256J0000000D01*
G01*
X0222500Y0183858D01*
G75*
G02*
X0222244Y0184114I0000000J0000256D01*
G01*
G37*
G36*
G01*
X0219193Y0184035D02*
X0219193Y0186831D01*
G75*
G02*
X0219370Y0187008I0000177J0000000D01*
G01*
X0220787Y0187008D01*
G75*
G02*
X0220965Y0186831I0000000J-000177D01*
G01*
X0220965Y0184035D01*
G75*
G02*
X0220787Y0183858I-000177J0000000D01*
G01*
X0219370Y0183858D01*
G75*
G02*
X0219193Y0184035I0000000J0000177D01*
G01*
G37*
G36*
G01*
X0216043Y0184035D02*
X0216043Y0186831D01*
G75*
G02*
X0216220Y0187008I0000177J0000000D01*
G01*
X0217638Y0187008D01*
G75*
G02*
X0217815Y0186831I0000000J-000177D01*
G01*
X0217815Y0184035D01*
G75*
G02*
X0217638Y0183858I-000177J0000000D01*
G01*
X0216220Y0183858D01*
G75*
G02*
X0216043Y0184035I0000000J0000177D01*
G01*
G37*
G36*
G01*
X0212205Y0184114D02*
X0212205Y0186752D01*
G75*
G02*
X0212461Y0187008I0000256J0000000D01*
G01*
X0214508Y0187008D01*
G75*
G02*
X0214764Y0186752I0000000J-000256D01*
G01*
X0214764Y0184114D01*
G75*
G02*
X0214508Y0183858I-000256J0000000D01*
G01*
X0212461Y0183858D01*
G75*
G02*
X0212205Y0184114I0000000J0000256D01*
G01*
G37*
G36*
G01*
X0246457Y0190157D02*
X0242913Y0190157D01*
G75*
G02*
X0242520Y0190551I0000000J0000394D01*
G01*
X0242520Y0193701D01*
G75*
G02*
X0242913Y0194094I0000394J0000000D01*
G01*
X0246457Y0194094D01*
G75*
G02*
X0246850Y0193701I0000000J-000394D01*
G01*
X0246850Y0190551D01*
G75*
G02*
X0246457Y0190157I-000394J0000000D01*
G01*
G37*
G36*
G01*
X0246457Y0196850D02*
X0242913Y0196850D01*
G75*
G02*
X0242520Y0197244I0000000J0000394D01*
G01*
X0242520Y0200394D01*
G75*
G02*
X0242913Y0200787I0000394J0000000D01*
G01*
X0246457Y0200787D01*
G75*
G02*
X0246850Y0200394I0000000J-000394D01*
G01*
X0246850Y0197244D01*
G75*
G02*
X0246457Y0196850I-000394J0000000D01*
G01*
G37*
G36*
G01*
X0305906Y0190157D02*
X0302362Y0190157D01*
G75*
G02*
X0301968Y0190551I0000000J0000394D01*
G01*
X0301968Y0193701D01*
G75*
G02*
X0302362Y0194094I0000394J0000000D01*
G01*
X0305906Y0194094D01*
G75*
G02*
X0306299Y0193701I0000000J-000394D01*
G01*
X0306299Y0190551D01*
G75*
G02*
X0305906Y0190157I-000394J0000000D01*
G01*
G37*
G36*
G01*
X0305906Y0196850D02*
X0302362Y0196850D01*
G75*
G02*
X0301968Y0197244I0000000J0000394D01*
G01*
X0301968Y0200394D01*
G75*
G02*
X0302362Y0200787I0000394J0000000D01*
G01*
X0305906Y0200787D01*
G75*
G02*
X0306299Y0200394I0000000J-000394D01*
G01*
X0306299Y0197244D01*
G75*
G02*
X0305906Y0196850I-000394J0000000D01*
G01*
G37*
G36*
G01*
X0115354Y0277972D02*
X0115354Y0280689D01*
G75*
G02*
X0116260Y0281595I0000906J0000000D01*
G01*
X0121535Y0281595D01*
G75*
G02*
X0122441Y0280689I0000000J-000906D01*
G01*
X0122441Y0277972D01*
G75*
G02*
X0121535Y0277067I-000906J0000000D01*
G01*
X0116260Y0277067D01*
G75*
G02*
X0115354Y0277972I0000000J0000906D01*
G01*
G37*
G36*
G01*
X0115354Y0266555D02*
X0115354Y0269272D01*
G75*
G02*
X0116260Y0270177I0000906J0000000D01*
G01*
X0121535Y0270177D01*
G75*
G02*
X0122441Y0269272I0000000J-000906D01*
G01*
X0122441Y0266555D01*
G75*
G02*
X0121535Y0265650I-000906J0000000D01*
G01*
X0116260Y0265650D01*
G75*
G02*
X0115354Y0266555I0000000J0000906D01*
G01*
G37*
X0055118Y0368681D03*
G36*
G01*
X0057579Y0370472D02*
X0052657Y0370472D01*
G75*
G02*
X0052264Y0370866I0000000J0000394D01*
G01*
X0052264Y0374016D01*
G75*
G02*
X0052657Y0374409I0000394J0000000D01*
G01*
X0057579Y0374409D01*
G75*
G02*
X0057972Y0374016I0000000J-000394D01*
G01*
X0057972Y0370866D01*
G75*
G02*
X0057579Y0370472I-000394J0000000D01*
G01*
G37*
G36*
G01*
X0057579Y0377953D02*
X0052657Y0377953D01*
G75*
G02*
X0052264Y0378347I0000000J0000394D01*
G01*
X0052264Y0381496D01*
G75*
G02*
X0052657Y0381890I0000394J0000000D01*
G01*
X0057579Y0381890D01*
G75*
G02*
X0057972Y0381496I0000000J-000394D01*
G01*
X0057972Y0378347D01*
G75*
G02*
X0057579Y0377953I-000394J0000000D01*
G01*
G37*
X0055118Y0383681D03*
G36*
G01*
X0279724Y0322687D02*
X0278543Y0322687D01*
G75*
G02*
X0277953Y0323278I0000000J0000591D01*
G01*
X0277953Y0327904D01*
G75*
G02*
X0278543Y0328494I0000591J0000000D01*
G01*
X0279724Y0328494D01*
G75*
G02*
X0280315Y0327904I0000000J-000591D01*
G01*
X0280315Y0323278D01*
G75*
G02*
X0279724Y0322687I-000591J0000000D01*
G01*
G37*
G36*
G01*
X0283465Y0330069D02*
X0282283Y0330069D01*
G75*
G02*
X0281693Y0330659I0000000J0000591D01*
G01*
X0281693Y0335285D01*
G75*
G02*
X0282283Y0335876I0000591J0000000D01*
G01*
X0283465Y0335876D01*
G75*
G02*
X0284055Y0335285I0000000J-000591D01*
G01*
X0284055Y0330659D01*
G75*
G02*
X0283465Y0330069I-000591J0000000D01*
G01*
G37*
G36*
G01*
X0287205Y0322687D02*
X0286024Y0322687D01*
G75*
G02*
X0285433Y0323278I0000000J0000591D01*
G01*
X0285433Y0327904D01*
G75*
G02*
X0286024Y0328494I0000591J0000000D01*
G01*
X0287205Y0328494D01*
G75*
G02*
X0287795Y0327904I0000000J-000591D01*
G01*
X0287795Y0323278D01*
G75*
G02*
X0287205Y0322687I-000591J0000000D01*
G01*
G37*
G36*
G01*
X0068425Y0308661D02*
X0064646Y0308661D01*
G75*
G02*
X0064173Y0309134I0000000J0000472D01*
G01*
X0064173Y0316850D01*
G75*
G02*
X0064646Y0317323I0000472J0000000D01*
G01*
X0068425Y0317323D01*
G75*
G02*
X0068898Y0316850I0000000J-000472D01*
G01*
X0068898Y0309134D01*
G75*
G02*
X0068425Y0308661I-000472J0000000D01*
G01*
G37*
D26*
X0075512Y0337795D03*
G36*
G01*
X0086378Y0308661D02*
X0082598Y0308661D01*
G75*
G02*
X0082126Y0309134I0000000J0000472D01*
G01*
X0082126Y0316850D01*
G75*
G02*
X0082598Y0317323I0000472J0000000D01*
G01*
X0086378Y0317323D01*
G75*
G02*
X0086850Y0316850I0000000J-000472D01*
G01*
X0086850Y0309134D01*
G75*
G02*
X0086378Y0308661I-000472J0000000D01*
G01*
G37*
G36*
G01*
X0216535Y0190157D02*
X0212992Y0190157D01*
G75*
G02*
X0212598Y0190551I0000000J0000394D01*
G01*
X0212598Y0193701D01*
G75*
G02*
X0212992Y0194094I0000394J0000000D01*
G01*
X0216535Y0194094D01*
G75*
G02*
X0216929Y0193701I0000000J-000394D01*
G01*
X0216929Y0190551D01*
G75*
G02*
X0216535Y0190157I-000394J0000000D01*
G01*
G37*
G36*
G01*
X0216535Y0196850D02*
X0212992Y0196850D01*
G75*
G02*
X0212598Y0197244I0000000J0000394D01*
G01*
X0212598Y0200394D01*
G75*
G02*
X0212992Y0200787I0000394J0000000D01*
G01*
X0216535Y0200787D01*
G75*
G02*
X0216929Y0200394I0000000J-000394D01*
G01*
X0216929Y0197244D01*
G75*
G02*
X0216535Y0196850I-000394J0000000D01*
G01*
G37*
G36*
G01*
X0030906Y0165787D02*
X0030906Y0168858D01*
G75*
G02*
X0031181Y0169134I0000276J0000000D01*
G01*
X0033386Y0169134D01*
G75*
G02*
X0033661Y0168858I0000000J-000276D01*
G01*
X0033661Y0165787D01*
G75*
G02*
X0033386Y0165512I-000276J0000000D01*
G01*
X0031181Y0165512D01*
G75*
G02*
X0030906Y0165787I0000000J0000276D01*
G01*
G37*
G36*
G01*
X0037205Y0165787D02*
X0037205Y0168858D01*
G75*
G02*
X0037480Y0169134I0000276J0000000D01*
G01*
X0039685Y0169134D01*
G75*
G02*
X0039961Y0168858I0000000J-000276D01*
G01*
X0039961Y0165787D01*
G75*
G02*
X0039685Y0165512I-000276J0000000D01*
G01*
X0037480Y0165512D01*
G75*
G02*
X0037205Y0165787I0000000J0000276D01*
G01*
G37*
D23*
X0212402Y0366713D03*
G36*
G01*
X0214862Y0368504D02*
X0209941Y0368504D01*
G75*
G02*
X0209547Y0368898I0000000J0000394D01*
G01*
X0209547Y0372047D01*
G75*
G02*
X0209941Y0372441I0000394J0000000D01*
G01*
X0214862Y0372441D01*
G75*
G02*
X0215256Y0372047I0000000J-000394D01*
G01*
X0215256Y0368898D01*
G75*
G02*
X0214862Y0368504I-000394J0000000D01*
G01*
G37*
G36*
G01*
X0214862Y0375984D02*
X0209941Y0375984D01*
G75*
G02*
X0209547Y0376378I0000000J0000394D01*
G01*
X0209547Y0379528D01*
G75*
G02*
X0209941Y0379921I0000394J0000000D01*
G01*
X0214862Y0379921D01*
G75*
G02*
X0215256Y0379528I0000000J-000394D01*
G01*
X0215256Y0376378D01*
G75*
G02*
X0214862Y0375984I-000394J0000000D01*
G01*
G37*
X0212402Y0381713D03*
G36*
G01*
X0247638Y0322933D02*
X0246457Y0322933D01*
G75*
G02*
X0245866Y0323524I0000000J0000591D01*
G01*
X0245866Y0328150D01*
G75*
G02*
X0246457Y0328740I0000591J0000000D01*
G01*
X0247638Y0328740D01*
G75*
G02*
X0248228Y0328150I0000000J-000591D01*
G01*
X0248228Y0323524D01*
G75*
G02*
X0247638Y0322933I-000591J0000000D01*
G01*
G37*
G36*
G01*
X0251378Y0330315D02*
X0250197Y0330315D01*
G75*
G02*
X0249606Y0330906I0000000J0000591D01*
G01*
X0249606Y0335531D01*
G75*
G02*
X0250197Y0336122I0000591J0000000D01*
G01*
X0251378Y0336122D01*
G75*
G02*
X0251969Y0335531I0000000J-000591D01*
G01*
X0251969Y0330906D01*
G75*
G02*
X0251378Y0330315I-000591J0000000D01*
G01*
G37*
G36*
G01*
X0255118Y0322933D02*
X0253937Y0322933D01*
G75*
G02*
X0253346Y0323524I0000000J0000591D01*
G01*
X0253346Y0328150D01*
G75*
G02*
X0253937Y0328740I0000591J0000000D01*
G01*
X0255118Y0328740D01*
G75*
G02*
X0255709Y0328150I0000000J-000591D01*
G01*
X0255709Y0323524D01*
G75*
G02*
X0255118Y0322933I-000591J0000000D01*
G01*
G37*
G36*
G01*
X0100197Y0156093D02*
X0100197Y0153022D01*
G75*
G02*
X0099921Y0152746I-000276J0000000D01*
G01*
X0097717Y0152746D01*
G75*
G02*
X0097441Y0153022I0000000J0000276D01*
G01*
X0097441Y0156093D01*
G75*
G02*
X0097717Y0156368I0000276J0000000D01*
G01*
X0099921Y0156368D01*
G75*
G02*
X0100197Y0156093I0000000J-000276D01*
G01*
G37*
G36*
G01*
X0093898Y0156093D02*
X0093898Y0153022D01*
G75*
G02*
X0093622Y0152746I-000276J0000000D01*
G01*
X0091417Y0152746D01*
G75*
G02*
X0091142Y0153022I0000000J0000276D01*
G01*
X0091142Y0156093D01*
G75*
G02*
X0091417Y0156368I0000276J0000000D01*
G01*
X0093622Y0156368D01*
G75*
G02*
X0093898Y0156093I0000000J-000276D01*
G01*
G37*
G36*
G01*
X0156260Y0194680D02*
X0156260Y0192682D01*
G75*
G02*
X0156097Y0192520I-000163J0000000D01*
G01*
X0148470Y0192520D01*
G75*
G02*
X0148307Y0192682I0000000J0000163D01*
G01*
X0148307Y0194680D01*
G75*
G02*
X0148470Y0194843I0000163J0000000D01*
G01*
X0156097Y0194843D01*
G75*
G02*
X0156260Y0194680I0000000J-000163D01*
G01*
G37*
G36*
G01*
X0156260Y0199680D02*
X0156260Y0197682D01*
G75*
G02*
X0156097Y0197520I-000163J0000000D01*
G01*
X0148470Y0197520D01*
G75*
G02*
X0148307Y0197682I0000000J0000163D01*
G01*
X0148307Y0199680D01*
G75*
G02*
X0148470Y0199843I0000163J0000000D01*
G01*
X0156097Y0199843D01*
G75*
G02*
X0156260Y0199680I0000000J-000163D01*
G01*
G37*
G36*
G01*
X0156260Y0204680D02*
X0156260Y0202682D01*
G75*
G02*
X0156097Y0202520I-000163J0000000D01*
G01*
X0148470Y0202520D01*
G75*
G02*
X0148307Y0202682I0000000J0000163D01*
G01*
X0148307Y0204680D01*
G75*
G02*
X0148470Y0204843I0000163J0000000D01*
G01*
X0156097Y0204843D01*
G75*
G02*
X0156260Y0204680I0000000J-000163D01*
G01*
G37*
G36*
G01*
X0156260Y0209680D02*
X0156260Y0207682D01*
G75*
G02*
X0156097Y0207520I-000163J0000000D01*
G01*
X0148470Y0207520D01*
G75*
G02*
X0148307Y0207682I0000000J0000163D01*
G01*
X0148307Y0209680D01*
G75*
G02*
X0148470Y0209843I0000163J0000000D01*
G01*
X0156097Y0209843D01*
G75*
G02*
X0156260Y0209680I0000000J-000163D01*
G01*
G37*
G36*
G01*
X0119409Y0209680D02*
X0119409Y0207682D01*
G75*
G02*
X0119247Y0207520I-000163J0000000D01*
G01*
X0111619Y0207520D01*
G75*
G02*
X0111457Y0207682I0000000J0000163D01*
G01*
X0111457Y0209680D01*
G75*
G02*
X0111619Y0209843I0000163J0000000D01*
G01*
X0119247Y0209843D01*
G75*
G02*
X0119409Y0209680I0000000J-000163D01*
G01*
G37*
G36*
G01*
X0119409Y0204680D02*
X0119409Y0202682D01*
G75*
G02*
X0119247Y0202520I-000163J0000000D01*
G01*
X0111619Y0202520D01*
G75*
G02*
X0111457Y0202682I0000000J0000163D01*
G01*
X0111457Y0204680D01*
G75*
G02*
X0111619Y0204843I0000163J0000000D01*
G01*
X0119247Y0204843D01*
G75*
G02*
X0119409Y0204680I0000000J-000163D01*
G01*
G37*
G36*
G01*
X0119409Y0199680D02*
X0119409Y0197682D01*
G75*
G02*
X0119247Y0197520I-000163J0000000D01*
G01*
X0111619Y0197520D01*
G75*
G02*
X0111457Y0197682I0000000J0000163D01*
G01*
X0111457Y0199680D01*
G75*
G02*
X0111619Y0199843I0000163J0000000D01*
G01*
X0119247Y0199843D01*
G75*
G02*
X0119409Y0199680I0000000J-000163D01*
G01*
G37*
G36*
G01*
X0119409Y0194680D02*
X0119409Y0192682D01*
G75*
G02*
X0119247Y0192520I-000163J0000000D01*
G01*
X0111619Y0192520D01*
G75*
G02*
X0111457Y0192682I0000000J0000163D01*
G01*
X0111457Y0194680D01*
G75*
G02*
X0111619Y0194843I0000163J0000000D01*
G01*
X0119247Y0194843D01*
G75*
G02*
X0119409Y0194680I0000000J-000163D01*
G01*
G37*
G36*
G01*
X0030906Y0189409D02*
X0030906Y0192480D01*
G75*
G02*
X0031181Y0192756I0000276J0000000D01*
G01*
X0033386Y0192756D01*
G75*
G02*
X0033661Y0192480I0000000J-000276D01*
G01*
X0033661Y0189409D01*
G75*
G02*
X0033386Y0189134I-000276J0000000D01*
G01*
X0031181Y0189134D01*
G75*
G02*
X0030906Y0189409I0000000J0000276D01*
G01*
G37*
G36*
G01*
X0037205Y0189409D02*
X0037205Y0192480D01*
G75*
G02*
X0037480Y0192756I0000276J0000000D01*
G01*
X0039685Y0192756D01*
G75*
G02*
X0039961Y0192480I0000000J-000276D01*
G01*
X0039961Y0189409D01*
G75*
G02*
X0039685Y0189134I-000276J0000000D01*
G01*
X0037480Y0189134D01*
G75*
G02*
X0037205Y0189409I0000000J0000276D01*
G01*
G37*
X0103346Y0368681D03*
G36*
G01*
X0105807Y0370472D02*
X0100886Y0370472D01*
G75*
G02*
X0100492Y0370866I0000000J0000394D01*
G01*
X0100492Y0374016D01*
G75*
G02*
X0100886Y0374409I0000394J0000000D01*
G01*
X0105807Y0374409D01*
G75*
G02*
X0106201Y0374016I0000000J-000394D01*
G01*
X0106201Y0370866D01*
G75*
G02*
X0105807Y0370472I-000394J0000000D01*
G01*
G37*
G36*
G01*
X0105807Y0377953D02*
X0100886Y0377953D01*
G75*
G02*
X0100492Y0378347I0000000J0000394D01*
G01*
X0100492Y0381496D01*
G75*
G02*
X0100886Y0381890I0000394J0000000D01*
G01*
X0105807Y0381890D01*
G75*
G02*
X0106201Y0381496I0000000J-000394D01*
G01*
X0106201Y0378347D01*
G75*
G02*
X0105807Y0377953I-000394J0000000D01*
G01*
G37*
X0103346Y0383681D03*
G36*
G01*
X0013701Y0117717D02*
X0009921Y0117717D01*
G75*
G02*
X0009449Y0118189I0000000J0000472D01*
G01*
X0009449Y0125906D01*
G75*
G02*
X0009921Y0126378I0000472J0000000D01*
G01*
X0013701Y0126378D01*
G75*
G02*
X0014173Y0125906I0000000J-000472D01*
G01*
X0014173Y0118189D01*
G75*
G02*
X0013701Y0117717I-000472J0000000D01*
G01*
G37*
D26*
X0020787Y0146850D03*
G36*
G01*
X0031654Y0117717D02*
X0027874Y0117717D01*
G75*
G02*
X0027402Y0118189I0000000J0000472D01*
G01*
X0027402Y0125906D01*
G75*
G02*
X0027874Y0126378I0000472J0000000D01*
G01*
X0031654Y0126378D01*
G75*
G02*
X0032126Y0125906I0000000J-000472D01*
G01*
X0032126Y0118189D01*
G75*
G02*
X0031654Y0117717I-000472J0000000D01*
G01*
G37*
G36*
G01*
X0113976Y0156093D02*
X0113976Y0153022D01*
G75*
G02*
X0113701Y0152746I-000276J0000000D01*
G01*
X0111496Y0152746D01*
G75*
G02*
X0111220Y0153022I0000000J0000276D01*
G01*
X0111220Y0156093D01*
G75*
G02*
X0111496Y0156368I0000276J0000000D01*
G01*
X0113701Y0156368D01*
G75*
G02*
X0113976Y0156093I0000000J-000276D01*
G01*
G37*
G36*
G01*
X0107677Y0156093D02*
X0107677Y0153022D01*
G75*
G02*
X0107402Y0152746I-000276J0000000D01*
G01*
X0105197Y0152746D01*
G75*
G02*
X0104921Y0153022I0000000J0000276D01*
G01*
X0104921Y0156093D01*
G75*
G02*
X0105197Y0156368I0000276J0000000D01*
G01*
X0107402Y0156368D01*
G75*
G02*
X0107677Y0156093I0000000J-000276D01*
G01*
G37*
D48*
X0089370Y0030610D03*
X0089370Y0036516D03*
X0089370Y0042421D03*
X0089370Y0048327D03*
X0089370Y0054232D03*
X0089370Y0060138D03*
X0089370Y0066043D03*
X0089370Y0071949D03*
X0089370Y0077854D03*
X0089370Y0083760D03*
X0089370Y0089665D03*
X0089370Y0095571D03*
X0089370Y0101476D03*
X0039370Y0101476D03*
X0039370Y0095571D03*
X0039370Y0089665D03*
X0039370Y0083760D03*
X0039370Y0077854D03*
X0039370Y0071949D03*
X0039370Y0066043D03*
X0039370Y0060138D03*
X0039370Y0054232D03*
X0039370Y0048327D03*
X0039370Y0042421D03*
X0039370Y0036516D03*
X0039370Y0030610D03*
G36*
G01*
X0325000Y0300433D02*
X0325000Y0303504D01*
G75*
G02*
X0325276Y0303780I0000276J0000000D01*
G01*
X0327480Y0303780D01*
G75*
G02*
X0327756Y0303504I0000000J-000276D01*
G01*
X0327756Y0300433D01*
G75*
G02*
X0327480Y0300157I-000276J0000000D01*
G01*
X0325276Y0300157D01*
G75*
G02*
X0325000Y0300433I0000000J0000276D01*
G01*
G37*
G36*
G01*
X0331299Y0300433D02*
X0331299Y0303504D01*
G75*
G02*
X0331575Y0303780I0000276J0000000D01*
G01*
X0333780Y0303780D01*
G75*
G02*
X0334055Y0303504I0000000J-000276D01*
G01*
X0334055Y0300433D01*
G75*
G02*
X0333780Y0300157I-000276J0000000D01*
G01*
X0331575Y0300157D01*
G75*
G02*
X0331299Y0300433I0000000J0000276D01*
G01*
G37*
G36*
G01*
X0162894Y0287795D02*
X0162894Y0286614D01*
G75*
G02*
X0162303Y0286024I-000591J0000000D01*
G01*
X0157677Y0286024D01*
G75*
G02*
X0157087Y0286614I0000000J0000591D01*
G01*
X0157087Y0287795D01*
G75*
G02*
X0157677Y0288386I0000591J0000000D01*
G01*
X0162303Y0288386D01*
G75*
G02*
X0162894Y0287795I0000000J-000591D01*
G01*
G37*
G36*
G01*
X0155512Y0291535D02*
X0155512Y0290354D01*
G75*
G02*
X0154921Y0289764I-000591J0000000D01*
G01*
X0150295Y0289764D01*
G75*
G02*
X0149705Y0290354I0000000J0000591D01*
G01*
X0149705Y0291535D01*
G75*
G02*
X0150295Y0292126I0000591J0000000D01*
G01*
X0154921Y0292126D01*
G75*
G02*
X0155512Y0291535I0000000J-000591D01*
G01*
G37*
G36*
G01*
X0162894Y0295276D02*
X0162894Y0294094D01*
G75*
G02*
X0162303Y0293504I-000591J0000000D01*
G01*
X0157677Y0293504D01*
G75*
G02*
X0157087Y0294094I0000000J0000591D01*
G01*
X0157087Y0295276D01*
G75*
G02*
X0157677Y0295866I0000591J0000000D01*
G01*
X0162303Y0295866D01*
G75*
G02*
X0162894Y0295276I0000000J-000591D01*
G01*
G37*
D23*
X0319669Y0381870D03*
G36*
G01*
X0316126Y0376575D02*
X0316126Y0379291D01*
G75*
G02*
X0317031Y0380197I0000906J0000000D01*
G01*
X0322307Y0380197D01*
G75*
G02*
X0323213Y0379291I0000000J-000906D01*
G01*
X0323213Y0376575D01*
G75*
G02*
X0322307Y0375669I-000906J0000000D01*
G01*
X0317031Y0375669D01*
G75*
G02*
X0316126Y0376575I0000000J0000906D01*
G01*
G37*
G36*
G01*
X0316126Y0365157D02*
X0316126Y0367874D01*
G75*
G02*
X0317031Y0368779I0000906J0000000D01*
G01*
X0322307Y0368779D01*
G75*
G02*
X0323213Y0367874I0000000J-000906D01*
G01*
X0323213Y0365157D01*
G75*
G02*
X0322307Y0364252I-000906J0000000D01*
G01*
X0317031Y0364252D01*
G75*
G02*
X0316126Y0365157I0000000J0000906D01*
G01*
G37*
X0319669Y0362579D03*
G36*
G01*
X0164921Y0367520D02*
X0161850Y0367520D01*
G75*
G02*
X0161575Y0367795I0000000J0000276D01*
G01*
X0161575Y0370000D01*
G75*
G02*
X0161850Y0370276I0000276J0000000D01*
G01*
X0164921Y0370276D01*
G75*
G02*
X0165197Y0370000I0000000J-000276D01*
G01*
X0165197Y0367795D01*
G75*
G02*
X0164921Y0367520I-000276J0000000D01*
G01*
G37*
G36*
G01*
X0164921Y0373819D02*
X0161850Y0373819D01*
G75*
G02*
X0161575Y0374094I0000000J0000276D01*
G01*
X0161575Y0376299D01*
G75*
G02*
X0161850Y0376575I0000276J0000000D01*
G01*
X0164921Y0376575D01*
G75*
G02*
X0165197Y0376299I0000000J-000276D01*
G01*
X0165197Y0374094D01*
G75*
G02*
X0164921Y0373819I-000276J0000000D01*
G01*
G37*
X0063189Y0368681D03*
G36*
G01*
X0065650Y0370472D02*
X0060728Y0370472D01*
G75*
G02*
X0060335Y0370866I0000000J0000394D01*
G01*
X0060335Y0374016D01*
G75*
G02*
X0060728Y0374409I0000394J0000000D01*
G01*
X0065650Y0374409D01*
G75*
G02*
X0066043Y0374016I0000000J-000394D01*
G01*
X0066043Y0370866D01*
G75*
G02*
X0065650Y0370472I-000394J0000000D01*
G01*
G37*
G36*
G01*
X0065650Y0377953D02*
X0060728Y0377953D01*
G75*
G02*
X0060335Y0378347I0000000J0000394D01*
G01*
X0060335Y0381496D01*
G75*
G02*
X0060728Y0381890I0000394J0000000D01*
G01*
X0065650Y0381890D01*
G75*
G02*
X0066043Y0381496I0000000J-000394D01*
G01*
X0066043Y0378347D01*
G75*
G02*
X0065650Y0377953I-000394J0000000D01*
G01*
G37*
X0063189Y0383681D03*
G36*
G01*
X0335827Y0190157D02*
X0332283Y0190157D01*
G75*
G02*
X0331890Y0190551I0000000J0000394D01*
G01*
X0331890Y0193701D01*
G75*
G02*
X0332283Y0194094I0000394J0000000D01*
G01*
X0335827Y0194094D01*
G75*
G02*
X0336220Y0193701I0000000J-000394D01*
G01*
X0336220Y0190551D01*
G75*
G02*
X0335827Y0190157I-000394J0000000D01*
G01*
G37*
G36*
G01*
X0335827Y0196850D02*
X0332283Y0196850D01*
G75*
G02*
X0331890Y0197244I0000000J0000394D01*
G01*
X0331890Y0200394D01*
G75*
G02*
X0332283Y0200787I0000394J0000000D01*
G01*
X0335827Y0200787D01*
G75*
G02*
X0336220Y0200394I0000000J-000394D01*
G01*
X0336220Y0197244D01*
G75*
G02*
X0335827Y0196850I-000394J0000000D01*
G01*
G37*
G36*
G01*
X0030906Y0201220D02*
X0030906Y0204291D01*
G75*
G02*
X0031181Y0204567I0000276J0000000D01*
G01*
X0033386Y0204567D01*
G75*
G02*
X0033661Y0204291I0000000J-000276D01*
G01*
X0033661Y0201220D01*
G75*
G02*
X0033386Y0200945I-000276J0000000D01*
G01*
X0031181Y0200945D01*
G75*
G02*
X0030906Y0201220I0000000J0000276D01*
G01*
G37*
G36*
G01*
X0037205Y0201220D02*
X0037205Y0204291D01*
G75*
G02*
X0037480Y0204567I0000276J0000000D01*
G01*
X0039685Y0204567D01*
G75*
G02*
X0039961Y0204291I0000000J-000276D01*
G01*
X0039961Y0201220D01*
G75*
G02*
X0039685Y0200945I-000276J0000000D01*
G01*
X0037480Y0200945D01*
G75*
G02*
X0037205Y0201220I0000000J0000276D01*
G01*
G37*
X0275984Y0381890D03*
G36*
G01*
X0272441Y0376595D02*
X0272441Y0379311D01*
G75*
G02*
X0273346Y0380217I0000906J0000000D01*
G01*
X0278622Y0380217D01*
G75*
G02*
X0279528Y0379311I0000000J-000906D01*
G01*
X0279528Y0376595D01*
G75*
G02*
X0278622Y0375689I-000906J0000000D01*
G01*
X0273346Y0375689D01*
G75*
G02*
X0272441Y0376595I0000000J0000906D01*
G01*
G37*
G36*
G01*
X0272441Y0365177D02*
X0272441Y0367894D01*
G75*
G02*
X0273346Y0368799I0000906J0000000D01*
G01*
X0278622Y0368799D01*
G75*
G02*
X0279528Y0367894I0000000J-000906D01*
G01*
X0279528Y0365177D01*
G75*
G02*
X0278622Y0364272I-000906J0000000D01*
G01*
X0273346Y0364272D01*
G75*
G02*
X0272441Y0365177I0000000J0000906D01*
G01*
G37*
X0275984Y0362598D03*
G36*
G01*
X0207894Y0307087D02*
X0210610Y0307087D01*
G75*
G02*
X0211516Y0306181I0000000J-000906D01*
G01*
X0211516Y0300906D01*
G75*
G02*
X0210610Y0300000I-000906J0000000D01*
G01*
X0207894Y0300000D01*
G75*
G02*
X0206988Y0300906I0000000J0000906D01*
G01*
X0206988Y0306181D01*
G75*
G02*
X0207894Y0307087I0000906J0000000D01*
G01*
G37*
G36*
G01*
X0196476Y0307087D02*
X0199193Y0307087D01*
G75*
G02*
X0200098Y0306181I0000000J-000906D01*
G01*
X0200098Y0300906D01*
G75*
G02*
X0199193Y0300000I-000906J0000000D01*
G01*
X0196476Y0300000D01*
G75*
G02*
X0195571Y0300906I0000000J0000906D01*
G01*
X0195571Y0306181D01*
G75*
G02*
X0196476Y0307087I0000906J0000000D01*
G01*
G37*
X0120866Y0367894D03*
G36*
G01*
X0123327Y0369685D02*
X0118406Y0369685D01*
G75*
G02*
X0118012Y0370079I0000000J0000394D01*
G01*
X0118012Y0373228D01*
G75*
G02*
X0118406Y0373622I0000394J0000000D01*
G01*
X0123327Y0373622D01*
G75*
G02*
X0123720Y0373228I0000000J-000394D01*
G01*
X0123720Y0370079D01*
G75*
G02*
X0123327Y0369685I-000394J0000000D01*
G01*
G37*
G36*
G01*
X0123327Y0377165D02*
X0118406Y0377165D01*
G75*
G02*
X0118012Y0377559I0000000J0000394D01*
G01*
X0118012Y0380709D01*
G75*
G02*
X0118406Y0381102I0000394J0000000D01*
G01*
X0123327Y0381102D01*
G75*
G02*
X0123720Y0380709I0000000J-000394D01*
G01*
X0123720Y0377559D01*
G75*
G02*
X0123327Y0377165I-000394J0000000D01*
G01*
G37*
X0120866Y0382894D03*
G36*
G01*
X0328268Y0309449D02*
X0324488Y0309449D01*
G75*
G02*
X0324016Y0309921I0000000J0000472D01*
G01*
X0324016Y0317638D01*
G75*
G02*
X0324488Y0318110I0000472J0000000D01*
G01*
X0328268Y0318110D01*
G75*
G02*
X0328740Y0317638I0000000J-000472D01*
G01*
X0328740Y0309921D01*
G75*
G02*
X0328268Y0309449I-000472J0000000D01*
G01*
G37*
D26*
X0335354Y0338583D03*
G36*
G01*
X0346220Y0309449D02*
X0342441Y0309449D01*
G75*
G02*
X0341969Y0309921I0000000J0000472D01*
G01*
X0341969Y0317638D01*
G75*
G02*
X0342441Y0318110I0000472J0000000D01*
G01*
X0346220Y0318110D01*
G75*
G02*
X0346693Y0317638I0000000J-000472D01*
G01*
X0346693Y0309921D01*
G75*
G02*
X0346220Y0309449I-000472J0000000D01*
G01*
G37*
G36*
G01*
X0298740Y0309449D02*
X0294961Y0309449D01*
G75*
G02*
X0294488Y0309921I0000000J0000472D01*
G01*
X0294488Y0317638D01*
G75*
G02*
X0294961Y0318110I0000472J0000000D01*
G01*
X0298740Y0318110D01*
G75*
G02*
X0299213Y0317638I0000000J-000472D01*
G01*
X0299213Y0309921D01*
G75*
G02*
X0298740Y0309449I-000472J0000000D01*
G01*
G37*
X0305827Y0338583D03*
G36*
G01*
X0316693Y0309449D02*
X0312913Y0309449D01*
G75*
G02*
X0312441Y0309921I0000000J0000472D01*
G01*
X0312441Y0317638D01*
G75*
G02*
X0312913Y0318110I0000472J0000000D01*
G01*
X0316693Y0318110D01*
G75*
G02*
X0317165Y0317638I0000000J-000472D01*
G01*
X0317165Y0309921D01*
G75*
G02*
X0316693Y0309449I-000472J0000000D01*
G01*
G37*
D49*
X0373228Y0006693D03*
D24*
X0218110Y0003937D03*
G36*
G01*
X0231496Y0190157D02*
X0227953Y0190157D01*
G75*
G02*
X0227559Y0190551I0000000J0000394D01*
G01*
X0227559Y0193701D01*
G75*
G02*
X0227953Y0194094I0000394J0000000D01*
G01*
X0231496Y0194094D01*
G75*
G02*
X0231890Y0193701I0000000J-000394D01*
G01*
X0231890Y0190551D01*
G75*
G02*
X0231496Y0190157I-000394J0000000D01*
G01*
G37*
G36*
G01*
X0231496Y0196850D02*
X0227953Y0196850D01*
G75*
G02*
X0227559Y0197244I0000000J0000394D01*
G01*
X0227559Y0200394D01*
G75*
G02*
X0227953Y0200787I0000394J0000000D01*
G01*
X0231496Y0200787D01*
G75*
G02*
X0231890Y0200394I0000000J-000394D01*
G01*
X0231890Y0197244D01*
G75*
G02*
X0231496Y0196850I-000394J0000000D01*
G01*
G37*
G36*
G01*
X0272677Y0335581D02*
X0268661Y0335581D01*
G75*
G02*
X0268307Y0335935I0000000J0000354D01*
G01*
X0268307Y0338770D01*
G75*
G02*
X0268661Y0339124I0000354J0000000D01*
G01*
X0272677Y0339124D01*
G75*
G02*
X0273031Y0338770I0000000J-000354D01*
G01*
X0273031Y0335935D01*
G75*
G02*
X0272677Y0335581I-000354J0000000D01*
G01*
G37*
G36*
G01*
X0272677Y0348573D02*
X0268661Y0348573D01*
G75*
G02*
X0268307Y0348927I0000000J0000354D01*
G01*
X0268307Y0351762D01*
G75*
G02*
X0268661Y0352116I0000354J0000000D01*
G01*
X0272677Y0352116D01*
G75*
G02*
X0273031Y0351762I0000000J-000354D01*
G01*
X0273031Y0348927D01*
G75*
G02*
X0272677Y0348573I-000354J0000000D01*
G01*
G37*
G36*
G01*
X0127480Y0308661D02*
X0123701Y0308661D01*
G75*
G02*
X0123228Y0309134I0000000J0000472D01*
G01*
X0123228Y0316850D01*
G75*
G02*
X0123701Y0317323I0000472J0000000D01*
G01*
X0127480Y0317323D01*
G75*
G02*
X0127953Y0316850I0000000J-000472D01*
G01*
X0127953Y0309134D01*
G75*
G02*
X0127480Y0308661I-000472J0000000D01*
G01*
G37*
D26*
X0134567Y0337795D03*
G36*
G01*
X0145433Y0308661D02*
X0141654Y0308661D01*
G75*
G02*
X0141181Y0309134I0000000J0000472D01*
G01*
X0141181Y0316850D01*
G75*
G02*
X0141654Y0317323I0000472J0000000D01*
G01*
X0145433Y0317323D01*
G75*
G02*
X0145906Y0316850I0000000J-000472D01*
G01*
X0145906Y0309134D01*
G75*
G02*
X0145433Y0308661I-000472J0000000D01*
G01*
G37*
G36*
G01*
X0007362Y0054370D02*
X0007362Y0057441D01*
G75*
G02*
X0007638Y0057717I0000276J0000000D01*
G01*
X0009843Y0057717D01*
G75*
G02*
X0010118Y0057441I0000000J-000276D01*
G01*
X0010118Y0054370D01*
G75*
G02*
X0009843Y0054094I-000276J0000000D01*
G01*
X0007638Y0054094D01*
G75*
G02*
X0007362Y0054370I0000000J0000276D01*
G01*
G37*
G36*
G01*
X0013661Y0054370D02*
X0013661Y0057441D01*
G75*
G02*
X0013937Y0057717I0000276J0000000D01*
G01*
X0016142Y0057717D01*
G75*
G02*
X0016417Y0057441I0000000J-000276D01*
G01*
X0016417Y0054370D01*
G75*
G02*
X0016142Y0054094I-000276J0000000D01*
G01*
X0013937Y0054094D01*
G75*
G02*
X0013661Y0054370I0000000J0000276D01*
G01*
G37*
D25*
X0362000Y0034933D03*
G36*
G01*
X0145669Y0277972D02*
X0145669Y0280689D01*
G75*
G02*
X0146575Y0281595I0000906J0000000D01*
G01*
X0151850Y0281595D01*
G75*
G02*
X0152756Y0280689I0000000J-000906D01*
G01*
X0152756Y0277972D01*
G75*
G02*
X0151850Y0277067I-000906J0000000D01*
G01*
X0146575Y0277067D01*
G75*
G02*
X0145669Y0277972I0000000J0000906D01*
G01*
G37*
G36*
G01*
X0145669Y0266555D02*
X0145669Y0269272D01*
G75*
G02*
X0146575Y0270177I0000906J0000000D01*
G01*
X0151850Y0270177D01*
G75*
G02*
X0152756Y0269272I0000000J-000906D01*
G01*
X0152756Y0266555D01*
G75*
G02*
X0151850Y0265650I-000906J0000000D01*
G01*
X0146575Y0265650D01*
G75*
G02*
X0145669Y0266555I0000000J0000906D01*
G01*
G37*
G36*
G01*
X0194094Y0190157D02*
X0190551Y0190157D01*
G75*
G02*
X0190157Y0190551I0000000J0000394D01*
G01*
X0190157Y0193701D01*
G75*
G02*
X0190551Y0194094I0000394J0000000D01*
G01*
X0194094Y0194094D01*
G75*
G02*
X0194488Y0193701I0000000J-000394D01*
G01*
X0194488Y0190551D01*
G75*
G02*
X0194094Y0190157I-000394J0000000D01*
G01*
G37*
G36*
G01*
X0194094Y0196850D02*
X0190551Y0196850D01*
G75*
G02*
X0190157Y0197244I0000000J0000394D01*
G01*
X0190157Y0200394D01*
G75*
G02*
X0190551Y0200787I0000394J0000000D01*
G01*
X0194094Y0200787D01*
G75*
G02*
X0194488Y0200394I0000000J-000394D01*
G01*
X0194488Y0197244D01*
G75*
G02*
X0194094Y0196850I-000394J0000000D01*
G01*
G37*
G36*
G01*
X0270276Y0317470D02*
X0271457Y0317470D01*
G75*
G02*
X0272047Y0316880I0000000J-000591D01*
G01*
X0272047Y0312254D01*
G75*
G02*
X0271457Y0311663I-000591J0000000D01*
G01*
X0270276Y0311663D01*
G75*
G02*
X0269685Y0312254I0000000J0000591D01*
G01*
X0269685Y0316880D01*
G75*
G02*
X0270276Y0317470I0000591J0000000D01*
G01*
G37*
G36*
G01*
X0266535Y0310089D02*
X0267717Y0310089D01*
G75*
G02*
X0268307Y0309498I0000000J-000591D01*
G01*
X0268307Y0304872D01*
G75*
G02*
X0267717Y0304281I-000591J0000000D01*
G01*
X0266535Y0304281D01*
G75*
G02*
X0265945Y0304872I0000000J0000591D01*
G01*
X0265945Y0309498D01*
G75*
G02*
X0266535Y0310089I0000591J0000000D01*
G01*
G37*
G36*
G01*
X0262795Y0317470D02*
X0263976Y0317470D01*
G75*
G02*
X0264567Y0316880I0000000J-000591D01*
G01*
X0264567Y0312254D01*
G75*
G02*
X0263976Y0311663I-000591J0000000D01*
G01*
X0262795Y0311663D01*
G75*
G02*
X0262205Y0312254I0000000J0000591D01*
G01*
X0262205Y0316880D01*
G75*
G02*
X0262795Y0317470I0000591J0000000D01*
G01*
G37*
G36*
G01*
X0267421Y0333415D02*
X0272343Y0333415D01*
G75*
G02*
X0272736Y0333022I0000000J-000394D01*
G01*
X0272736Y0329872D01*
G75*
G02*
X0272343Y0329478I-000394J0000000D01*
G01*
X0267421Y0329478D01*
G75*
G02*
X0267028Y0329872I0000000J0000394D01*
G01*
X0267028Y0333022D01*
G75*
G02*
X0267421Y0333415I0000394J0000000D01*
G01*
G37*
G36*
G01*
X0267421Y0325935D02*
X0272343Y0325935D01*
G75*
G02*
X0272736Y0325541I0000000J-000394D01*
G01*
X0272736Y0322392D01*
G75*
G02*
X0272343Y0321998I-000394J0000000D01*
G01*
X0267421Y0321998D01*
G75*
G02*
X0267028Y0322392I0000000J0000394D01*
G01*
X0267028Y0325541D01*
G75*
G02*
X0267421Y0325935I0000394J0000000D01*
G01*
G37*
G36*
G01*
X0203278Y0320794D02*
X0197710Y0315226D01*
G75*
G02*
X0196318Y0315226I-000696J0000696D01*
G01*
X0185461Y0326083D01*
G75*
G02*
X0185461Y0327475I0000696J0000696D01*
G01*
X0191029Y0333043D01*
G75*
G02*
X0192421Y0333043I0000696J-000696D01*
G01*
X0203278Y0322186D01*
G75*
G02*
X0203278Y0320794I-000696J-000696D01*
G01*
G37*
G36*
G01*
X0179893Y0344178D02*
X0174326Y0338611D01*
G75*
G02*
X0172934Y0338611I-000696J0000696D01*
G01*
X0162076Y0349468D01*
G75*
G02*
X0162076Y0350860I0000696J0000696D01*
G01*
X0167644Y0356428D01*
G75*
G02*
X0169036Y0356428I0000696J-000696D01*
G01*
X0179893Y0345570D01*
G75*
G02*
X0179893Y0344178I-000696J-000696D01*
G01*
G37*
G36*
G01*
X0096457Y0296506D02*
X0097638Y0296506D01*
G75*
G02*
X0098228Y0295915I0000000J-000591D01*
G01*
X0098228Y0291289D01*
G75*
G02*
X0097638Y0290699I-000591J0000000D01*
G01*
X0096457Y0290699D01*
G75*
G02*
X0095866Y0291289I0000000J0000591D01*
G01*
X0095866Y0295915D01*
G75*
G02*
X0096457Y0296506I0000591J0000000D01*
G01*
G37*
G36*
G01*
X0092717Y0289124D02*
X0093898Y0289124D01*
G75*
G02*
X0094488Y0288533I0000000J-000591D01*
G01*
X0094488Y0283907D01*
G75*
G02*
X0093898Y0283317I-000591J0000000D01*
G01*
X0092717Y0283317D01*
G75*
G02*
X0092126Y0283907I0000000J0000591D01*
G01*
X0092126Y0288533D01*
G75*
G02*
X0092717Y0289124I0000591J0000000D01*
G01*
G37*
G36*
G01*
X0088976Y0296506D02*
X0090157Y0296506D01*
G75*
G02*
X0090748Y0295915I0000000J-000591D01*
G01*
X0090748Y0291289D01*
G75*
G02*
X0090157Y0290699I-000591J0000000D01*
G01*
X0088976Y0290699D01*
G75*
G02*
X0088386Y0291289I0000000J0000591D01*
G01*
X0088386Y0295915D01*
G75*
G02*
X0088976Y0296506I0000591J0000000D01*
G01*
G37*
D24*
X0350787Y0168110D03*
G36*
G01*
X0030906Y0177598D02*
X0030906Y0180669D01*
G75*
G02*
X0031181Y0180945I0000276J0000000D01*
G01*
X0033386Y0180945D01*
G75*
G02*
X0033661Y0180669I0000000J-000276D01*
G01*
X0033661Y0177598D01*
G75*
G02*
X0033386Y0177323I-000276J0000000D01*
G01*
X0031181Y0177323D01*
G75*
G02*
X0030906Y0177598I0000000J0000276D01*
G01*
G37*
G36*
G01*
X0037205Y0177598D02*
X0037205Y0180669D01*
G75*
G02*
X0037480Y0180945I0000276J0000000D01*
G01*
X0039685Y0180945D01*
G75*
G02*
X0039961Y0180669I0000000J-000276D01*
G01*
X0039961Y0177598D01*
G75*
G02*
X0039685Y0177323I-000276J0000000D01*
G01*
X0037480Y0177323D01*
G75*
G02*
X0037205Y0177598I0000000J0000276D01*
G01*
G37*
G36*
G01*
X0010433Y0108701D02*
X0010433Y0111772D01*
G75*
G02*
X0010709Y0112047I0000276J0000000D01*
G01*
X0012913Y0112047D01*
G75*
G02*
X0013189Y0111772I0000000J-000276D01*
G01*
X0013189Y0108701D01*
G75*
G02*
X0012913Y0108425I-000276J0000000D01*
G01*
X0010709Y0108425D01*
G75*
G02*
X0010433Y0108701I0000000J0000276D01*
G01*
G37*
G36*
G01*
X0016732Y0108701D02*
X0016732Y0111772D01*
G75*
G02*
X0017008Y0112047I0000276J0000000D01*
G01*
X0019213Y0112047D01*
G75*
G02*
X0019488Y0111772I0000000J-000276D01*
G01*
X0019488Y0108701D01*
G75*
G02*
X0019213Y0108425I-000276J0000000D01*
G01*
X0017008Y0108425D01*
G75*
G02*
X0016732Y0108701I0000000J0000276D01*
G01*
G37*
D23*
X0071063Y0368681D03*
G36*
G01*
X0073524Y0370472D02*
X0068602Y0370472D01*
G75*
G02*
X0068209Y0370866I0000000J0000394D01*
G01*
X0068209Y0374016D01*
G75*
G02*
X0068602Y0374409I0000394J0000000D01*
G01*
X0073524Y0374409D01*
G75*
G02*
X0073917Y0374016I0000000J-000394D01*
G01*
X0073917Y0370866D01*
G75*
G02*
X0073524Y0370472I-000394J0000000D01*
G01*
G37*
G36*
G01*
X0073524Y0377953D02*
X0068602Y0377953D01*
G75*
G02*
X0068209Y0378347I0000000J0000394D01*
G01*
X0068209Y0381496D01*
G75*
G02*
X0068602Y0381890I0000394J0000000D01*
G01*
X0073524Y0381890D01*
G75*
G02*
X0073917Y0381496I0000000J-000394D01*
G01*
X0073917Y0378347D01*
G75*
G02*
X0073524Y0377953I-000394J0000000D01*
G01*
G37*
X0071063Y0383681D03*
X0079528Y0368878D03*
G36*
G01*
X0081988Y0370669D02*
X0077067Y0370669D01*
G75*
G02*
X0076673Y0371063I0000000J0000394D01*
G01*
X0076673Y0374213D01*
G75*
G02*
X0077067Y0374606I0000394J0000000D01*
G01*
X0081988Y0374606D01*
G75*
G02*
X0082382Y0374213I0000000J-000394D01*
G01*
X0082382Y0371063D01*
G75*
G02*
X0081988Y0370669I-000394J0000000D01*
G01*
G37*
G36*
G01*
X0081988Y0378150D02*
X0077067Y0378150D01*
G75*
G02*
X0076673Y0378543I0000000J0000394D01*
G01*
X0076673Y0381693D01*
G75*
G02*
X0077067Y0382087I0000394J0000000D01*
G01*
X0081988Y0382087D01*
G75*
G02*
X0082382Y0381693I0000000J-000394D01*
G01*
X0082382Y0378543D01*
G75*
G02*
X0081988Y0378150I-000394J0000000D01*
G01*
G37*
X0079528Y0383878D03*
X0155906Y0383071D03*
G36*
G01*
X0152362Y0377776D02*
X0152362Y0380492D01*
G75*
G02*
X0153268Y0381398I0000906J0000000D01*
G01*
X0158543Y0381398D01*
G75*
G02*
X0159449Y0380492I0000000J-000906D01*
G01*
X0159449Y0377776D01*
G75*
G02*
X0158543Y0376870I-000906J0000000D01*
G01*
X0153268Y0376870D01*
G75*
G02*
X0152362Y0377776I0000000J0000906D01*
G01*
G37*
G36*
G01*
X0152362Y0366358D02*
X0152362Y0369075D01*
G75*
G02*
X0153268Y0369980I0000906J0000000D01*
G01*
X0158543Y0369980D01*
G75*
G02*
X0159449Y0369075I0000000J-000906D01*
G01*
X0159449Y0366358D01*
G75*
G02*
X0158543Y0365453I-000906J0000000D01*
G01*
X0153268Y0365453D01*
G75*
G02*
X0152362Y0366358I0000000J0000906D01*
G01*
G37*
X0155906Y0363779D03*
D24*
X0271260Y0003937D03*
D23*
X0147441Y0368484D03*
G36*
G01*
X0149902Y0370276D02*
X0144980Y0370276D01*
G75*
G02*
X0144587Y0370669I0000000J0000394D01*
G01*
X0144587Y0373819D01*
G75*
G02*
X0144980Y0374213I0000394J0000000D01*
G01*
X0149902Y0374213D01*
G75*
G02*
X0150295Y0373819I0000000J-000394D01*
G01*
X0150295Y0370669D01*
G75*
G02*
X0149902Y0370276I-000394J0000000D01*
G01*
G37*
G36*
G01*
X0149902Y0377756D02*
X0144980Y0377756D01*
G75*
G02*
X0144587Y0378150I0000000J0000394D01*
G01*
X0144587Y0381299D01*
G75*
G02*
X0144980Y0381693I0000394J0000000D01*
G01*
X0149902Y0381693D01*
G75*
G02*
X0150295Y0381299I0000000J-000394D01*
G01*
X0150295Y0378150D01*
G75*
G02*
X0149902Y0377756I-000394J0000000D01*
G01*
G37*
X0147441Y0383484D03*
X0186614Y0368878D03*
G36*
G01*
X0189075Y0370669D02*
X0184154Y0370669D01*
G75*
G02*
X0183760Y0371063I0000000J0000394D01*
G01*
X0183760Y0374213D01*
G75*
G02*
X0184154Y0374606I0000394J0000000D01*
G01*
X0189075Y0374606D01*
G75*
G02*
X0189469Y0374213I0000000J-000394D01*
G01*
X0189469Y0371063D01*
G75*
G02*
X0189075Y0370669I-000394J0000000D01*
G01*
G37*
G36*
G01*
X0189075Y0378150D02*
X0184154Y0378150D01*
G75*
G02*
X0183760Y0378543I0000000J0000394D01*
G01*
X0183760Y0381693D01*
G75*
G02*
X0184154Y0382087I0000394J0000000D01*
G01*
X0189075Y0382087D01*
G75*
G02*
X0189469Y0381693I0000000J-000394D01*
G01*
X0189469Y0378543D01*
G75*
G02*
X0189075Y0378150I-000394J0000000D01*
G01*
G37*
X0186614Y0383878D03*
D10*
X0371949Y0244980D03*
X0368209Y0244980D03*
X0364469Y0244980D03*
X0368406Y0279232D03*
X0371949Y0279232D03*
D54*
X0138878Y0116140D03*
X0141870Y0116140D03*
X0146496Y0116140D03*
X0151122Y0116140D03*
X0154429Y0116140D03*
X0157382Y0116140D03*
X0162008Y0116140D03*
X0166634Y0116140D03*
D10*
X0146791Y0076378D03*
X0139567Y0078051D03*
X0147638Y0080217D03*
X0146791Y0083661D03*
X0146496Y0087008D03*
X0139567Y0088287D03*
X0144724Y0093405D03*
X0139567Y0095965D03*
X0162894Y0067717D03*
X0146850Y0068898D03*
G36*
G01*
X0017126Y0201220D02*
X0017126Y0204291D01*
G75*
G02*
X0017402Y0204567I0000276J0000000D01*
G01*
X0019606Y0204567D01*
G75*
G02*
X0019882Y0204291I0000000J-000276D01*
G01*
X0019882Y0201220D01*
G75*
G02*
X0019606Y0200945I-000276J0000000D01*
G01*
X0017402Y0200945D01*
G75*
G02*
X0017126Y0201220I0000000J0000276D01*
G01*
G37*
G36*
G01*
X0023425Y0201220D02*
X0023425Y0204291D01*
G75*
G02*
X0023701Y0204567I0000276J0000000D01*
G01*
X0025906Y0204567D01*
G75*
G02*
X0026181Y0204291I0000000J-000276D01*
G01*
X0026181Y0201220D01*
G75*
G02*
X0025906Y0200945I-000276J0000000D01*
G01*
X0023701Y0200945D01*
G75*
G02*
X0023425Y0201220I0000000J0000276D01*
G01*
G37*
G36*
G01*
X0153937Y0306152D02*
X0152756Y0306152D01*
G75*
G02*
X0152165Y0306742I0000000J0000591D01*
G01*
X0152165Y0311368D01*
G75*
G02*
X0152756Y0311959I0000591J0000000D01*
G01*
X0153937Y0311959D01*
G75*
G02*
X0154528Y0311368I0000000J-000591D01*
G01*
X0154528Y0306742D01*
G75*
G02*
X0153937Y0306152I-000591J0000000D01*
G01*
G37*
G36*
G01*
X0157677Y0313533D02*
X0156496Y0313533D01*
G75*
G02*
X0155906Y0314124I0000000J0000591D01*
G01*
X0155906Y0318750D01*
G75*
G02*
X0156496Y0319341I0000591J0000000D01*
G01*
X0157677Y0319341D01*
G75*
G02*
X0158268Y0318750I0000000J-000591D01*
G01*
X0158268Y0314124D01*
G75*
G02*
X0157677Y0313533I-000591J0000000D01*
G01*
G37*
G36*
G01*
X0161417Y0306152D02*
X0160236Y0306152D01*
G75*
G02*
X0159646Y0306742I0000000J0000591D01*
G01*
X0159646Y0311368D01*
G75*
G02*
X0160236Y0311959I0000591J0000000D01*
G01*
X0161417Y0311959D01*
G75*
G02*
X0162008Y0311368I0000000J-000591D01*
G01*
X0162008Y0306742D01*
G75*
G02*
X0161417Y0306152I-000591J0000000D01*
G01*
G37*
G36*
G01*
X0097087Y0103209D02*
X0099764Y0103209D01*
G75*
G02*
X0100098Y0102874I0000000J-000335D01*
G01*
X0100098Y0100197D01*
G75*
G02*
X0099764Y0099862I-000335J0000000D01*
G01*
X0097087Y0099862D01*
G75*
G02*
X0096752Y0100197I0000000J0000335D01*
G01*
X0096752Y0102874D01*
G75*
G02*
X0097087Y0103209I0000335J0000000D01*
G01*
G37*
G36*
G01*
X0097087Y0096988D02*
X0099764Y0096988D01*
G75*
G02*
X0100098Y0096654I0000000J-000335D01*
G01*
X0100098Y0093976D01*
G75*
G02*
X0099764Y0093642I-000335J0000000D01*
G01*
X0097087Y0093642D01*
G75*
G02*
X0096752Y0093976I0000000J0000335D01*
G01*
X0096752Y0096654D01*
G75*
G02*
X0097087Y0096988I0000335J0000000D01*
G01*
G37*
D23*
X0328669Y0366890D03*
G36*
G01*
X0331130Y0368681D02*
X0326209Y0368681D01*
G75*
G02*
X0325815Y0369075I0000000J0000394D01*
G01*
X0325815Y0372224D01*
G75*
G02*
X0326209Y0372618I0000394J0000000D01*
G01*
X0331130Y0372618D01*
G75*
G02*
X0331524Y0372224I0000000J-000394D01*
G01*
X0331524Y0369075D01*
G75*
G02*
X0331130Y0368681I-000394J0000000D01*
G01*
G37*
G36*
G01*
X0331130Y0376162D02*
X0326209Y0376162D01*
G75*
G02*
X0325815Y0376555I0000000J0000394D01*
G01*
X0325815Y0379705D01*
G75*
G02*
X0326209Y0380099I0000394J0000000D01*
G01*
X0331130Y0380099D01*
G75*
G02*
X0331524Y0379705I0000000J-000394D01*
G01*
X0331524Y0376555D01*
G75*
G02*
X0331130Y0376162I-000394J0000000D01*
G01*
G37*
X0328669Y0381890D03*
G36*
G01*
X0130463Y0287795D02*
X0130463Y0286614D01*
G75*
G02*
X0129872Y0286024I-000591J0000000D01*
G01*
X0125246Y0286024D01*
G75*
G02*
X0124656Y0286614I0000000J0000591D01*
G01*
X0124656Y0287795D01*
G75*
G02*
X0125246Y0288386I0000591J0000000D01*
G01*
X0129872Y0288386D01*
G75*
G02*
X0130463Y0287795I0000000J-000591D01*
G01*
G37*
G36*
G01*
X0123081Y0291535D02*
X0123081Y0290354D01*
G75*
G02*
X0122490Y0289764I-000591J0000000D01*
G01*
X0117864Y0289764D01*
G75*
G02*
X0117274Y0290354I0000000J0000591D01*
G01*
X0117274Y0291535D01*
G75*
G02*
X0117864Y0292126I0000591J0000000D01*
G01*
X0122490Y0292126D01*
G75*
G02*
X0123081Y0291535I0000000J-000591D01*
G01*
G37*
G36*
G01*
X0130463Y0295276D02*
X0130463Y0294094D01*
G75*
G02*
X0129872Y0293504I-000591J0000000D01*
G01*
X0125246Y0293504D01*
G75*
G02*
X0124656Y0294094I0000000J0000591D01*
G01*
X0124656Y0295276D01*
G75*
G02*
X0125246Y0295866I0000591J0000000D01*
G01*
X0129872Y0295866D01*
G75*
G02*
X0130463Y0295276I0000000J-000591D01*
G01*
G37*
G36*
G01*
X0096457Y0280758D02*
X0097638Y0280758D01*
G75*
G02*
X0098228Y0280167I0000000J-000591D01*
G01*
X0098228Y0275541D01*
G75*
G02*
X0097638Y0274951I-000591J0000000D01*
G01*
X0096457Y0274951D01*
G75*
G02*
X0095866Y0275541I0000000J0000591D01*
G01*
X0095866Y0280167D01*
G75*
G02*
X0096457Y0280758I0000591J0000000D01*
G01*
G37*
G36*
G01*
X0092717Y0273376D02*
X0093898Y0273376D01*
G75*
G02*
X0094488Y0272785I0000000J-000591D01*
G01*
X0094488Y0268159D01*
G75*
G02*
X0093898Y0267569I-000591J0000000D01*
G01*
X0092717Y0267569D01*
G75*
G02*
X0092126Y0268159I0000000J0000591D01*
G01*
X0092126Y0272785D01*
G75*
G02*
X0092717Y0273376I0000591J0000000D01*
G01*
G37*
G36*
G01*
X0088976Y0280758D02*
X0090157Y0280758D01*
G75*
G02*
X0090748Y0280167I0000000J-000591D01*
G01*
X0090748Y0275541D01*
G75*
G02*
X0090157Y0274951I-000591J0000000D01*
G01*
X0088976Y0274951D01*
G75*
G02*
X0088386Y0275541I0000000J0000591D01*
G01*
X0088386Y0280167D01*
G75*
G02*
X0088976Y0280758I0000591J0000000D01*
G01*
G37*
G36*
G01*
X0357795Y0309449D02*
X0354016Y0309449D01*
G75*
G02*
X0353543Y0309921I0000000J0000472D01*
G01*
X0353543Y0317638D01*
G75*
G02*
X0354016Y0318110I0000472J0000000D01*
G01*
X0357795Y0318110D01*
G75*
G02*
X0358268Y0317638I0000000J-000472D01*
G01*
X0358268Y0309921D01*
G75*
G02*
X0357795Y0309449I-000472J0000000D01*
G01*
G37*
D26*
X0364882Y0338583D03*
G36*
G01*
X0375748Y0309449D02*
X0371969Y0309449D01*
G75*
G02*
X0371496Y0309921I0000000J0000472D01*
G01*
X0371496Y0317638D01*
G75*
G02*
X0371969Y0318110I0000472J0000000D01*
G01*
X0375748Y0318110D01*
G75*
G02*
X0376220Y0317638I0000000J-000472D01*
G01*
X0376220Y0309921D01*
G75*
G02*
X0375748Y0309449I-000472J0000000D01*
G01*
G37*
D23*
X0194488Y0368878D03*
G36*
G01*
X0196949Y0370669D02*
X0192028Y0370669D01*
G75*
G02*
X0191634Y0371063I0000000J0000394D01*
G01*
X0191634Y0374213D01*
G75*
G02*
X0192028Y0374606I0000394J0000000D01*
G01*
X0196949Y0374606D01*
G75*
G02*
X0197343Y0374213I0000000J-000394D01*
G01*
X0197343Y0371063D01*
G75*
G02*
X0196949Y0370669I-000394J0000000D01*
G01*
G37*
G36*
G01*
X0196949Y0378150D02*
X0192028Y0378150D01*
G75*
G02*
X0191634Y0378543I0000000J0000394D01*
G01*
X0191634Y0381693D01*
G75*
G02*
X0192028Y0382087I0000394J0000000D01*
G01*
X0196949Y0382087D01*
G75*
G02*
X0197343Y0381693I0000000J-000394D01*
G01*
X0197343Y0378543D01*
G75*
G02*
X0196949Y0378150I-000394J0000000D01*
G01*
G37*
X0194488Y0383878D03*
D10*
X0174409Y0250344D03*
X0174409Y0245620D03*
X0174409Y0255069D03*
X0174409Y0259793D03*
X0117618Y0234360D03*
X0117618Y0230423D03*
G36*
G01*
X0217205Y0300433D02*
X0217205Y0303504D01*
G75*
G02*
X0217480Y0303780I0000276J0000000D01*
G01*
X0219685Y0303780D01*
G75*
G02*
X0219961Y0303504I0000000J-000276D01*
G01*
X0219961Y0300433D01*
G75*
G02*
X0219685Y0300157I-000276J0000000D01*
G01*
X0217480Y0300157D01*
G75*
G02*
X0217205Y0300433I0000000J0000276D01*
G01*
G37*
G36*
G01*
X0223504Y0300433D02*
X0223504Y0303504D01*
G75*
G02*
X0223780Y0303780I0000276J0000000D01*
G01*
X0225984Y0303780D01*
G75*
G02*
X0226260Y0303504I0000000J-000276D01*
G01*
X0226260Y0300433D01*
G75*
G02*
X0225984Y0300157I-000276J0000000D01*
G01*
X0223780Y0300157D01*
G75*
G02*
X0223504Y0300433I0000000J0000276D01*
G01*
G37*
G36*
G01*
X0065157Y0299646D02*
X0065157Y0302717D01*
G75*
G02*
X0065433Y0302992I0000276J0000000D01*
G01*
X0067638Y0302992D01*
G75*
G02*
X0067913Y0302717I0000000J-000276D01*
G01*
X0067913Y0299646D01*
G75*
G02*
X0067638Y0299370I-000276J0000000D01*
G01*
X0065433Y0299370D01*
G75*
G02*
X0065157Y0299646I0000000J0000276D01*
G01*
G37*
G36*
G01*
X0071457Y0299646D02*
X0071457Y0302717D01*
G75*
G02*
X0071732Y0302992I0000276J0000000D01*
G01*
X0073937Y0302992D01*
G75*
G02*
X0074213Y0302717I0000000J-000276D01*
G01*
X0074213Y0299646D01*
G75*
G02*
X0073937Y0299370I-000276J0000000D01*
G01*
X0071732Y0299370D01*
G75*
G02*
X0071457Y0299646I0000000J0000276D01*
G01*
G37*
G36*
G01*
X0280315Y0306102D02*
X0279134Y0306102D01*
G75*
G02*
X0278543Y0306693I0000000J0000591D01*
G01*
X0278543Y0311319D01*
G75*
G02*
X0279134Y0311909I0000591J0000000D01*
G01*
X0280315Y0311909D01*
G75*
G02*
X0280906Y0311319I0000000J-000591D01*
G01*
X0280906Y0306693D01*
G75*
G02*
X0280315Y0306102I-000591J0000000D01*
G01*
G37*
G36*
G01*
X0284055Y0313484D02*
X0282874Y0313484D01*
G75*
G02*
X0282283Y0314075I0000000J0000591D01*
G01*
X0282283Y0318701D01*
G75*
G02*
X0282874Y0319291I0000591J0000000D01*
G01*
X0284055Y0319291D01*
G75*
G02*
X0284646Y0318701I0000000J-000591D01*
G01*
X0284646Y0314075D01*
G75*
G02*
X0284055Y0313484I-000591J0000000D01*
G01*
G37*
G36*
G01*
X0287795Y0306102D02*
X0286614Y0306102D01*
G75*
G02*
X0286024Y0306693I0000000J0000591D01*
G01*
X0286024Y0311319D01*
G75*
G02*
X0286614Y0311909I0000591J0000000D01*
G01*
X0287795Y0311909D01*
G75*
G02*
X0288386Y0311319I0000000J-000591D01*
G01*
X0288386Y0306693D01*
G75*
G02*
X0287795Y0306102I-000591J0000000D01*
G01*
G37*
D23*
X0139173Y0383268D03*
G36*
G01*
X0135630Y0377972D02*
X0135630Y0380689D01*
G75*
G02*
X0136535Y0381594I0000906J0000000D01*
G01*
X0141811Y0381594D01*
G75*
G02*
X0142717Y0380689I0000000J-000906D01*
G01*
X0142717Y0377972D01*
G75*
G02*
X0141811Y0377067I-000906J0000000D01*
G01*
X0136535Y0377067D01*
G75*
G02*
X0135630Y0377972I0000000J0000906D01*
G01*
G37*
G36*
G01*
X0135630Y0366555D02*
X0135630Y0369272D01*
G75*
G02*
X0136535Y0370177I0000906J0000000D01*
G01*
X0141811Y0370177D01*
G75*
G02*
X0142717Y0369272I0000000J-000906D01*
G01*
X0142717Y0366555D01*
G75*
G02*
X0141811Y0365649I-000906J0000000D01*
G01*
X0136535Y0365649D01*
G75*
G02*
X0135630Y0366555I0000000J0000906D01*
G01*
G37*
X0139173Y0363976D03*
G36*
G01*
X0224016Y0190157D02*
X0220472Y0190157D01*
G75*
G02*
X0220079Y0190551I0000000J0000394D01*
G01*
X0220079Y0193701D01*
G75*
G02*
X0220472Y0194094I0000394J0000000D01*
G01*
X0224016Y0194094D01*
G75*
G02*
X0224409Y0193701I0000000J-000394D01*
G01*
X0224409Y0190551D01*
G75*
G02*
X0224016Y0190157I-000394J0000000D01*
G01*
G37*
G36*
G01*
X0224016Y0196850D02*
X0220472Y0196850D01*
G75*
G02*
X0220079Y0197244I0000000J0000394D01*
G01*
X0220079Y0200394D01*
G75*
G02*
X0220472Y0200787I0000394J0000000D01*
G01*
X0224016Y0200787D01*
G75*
G02*
X0224409Y0200394I0000000J-000394D01*
G01*
X0224409Y0197244D01*
G75*
G02*
X0224016Y0196850I-000394J0000000D01*
G01*
G37*
G36*
G01*
X0294094Y0177028D02*
X0294094Y0179665D01*
G75*
G02*
X0294350Y0179921I0000256J0000000D01*
G01*
X0296398Y0179921D01*
G75*
G02*
X0296654Y0179665I0000000J-000256D01*
G01*
X0296654Y0177028D01*
G75*
G02*
X0296398Y0176772I-000256J0000000D01*
G01*
X0294350Y0176772D01*
G75*
G02*
X0294094Y0177028I0000000J0000256D01*
G01*
G37*
G36*
G01*
X0297933Y0176949D02*
X0297933Y0179744D01*
G75*
G02*
X0298110Y0179921I0000177J0000000D01*
G01*
X0299528Y0179921D01*
G75*
G02*
X0299705Y0179744I0000000J-000177D01*
G01*
X0299705Y0176949D01*
G75*
G02*
X0299528Y0176772I-000177J0000000D01*
G01*
X0298110Y0176772D01*
G75*
G02*
X0297933Y0176949I0000000J0000177D01*
G01*
G37*
G36*
G01*
X0301083Y0176949D02*
X0301083Y0179744D01*
G75*
G02*
X0301260Y0179921I0000177J0000000D01*
G01*
X0302677Y0179921D01*
G75*
G02*
X0302854Y0179744I0000000J-000177D01*
G01*
X0302854Y0176949D01*
G75*
G02*
X0302677Y0176772I-000177J0000000D01*
G01*
X0301260Y0176772D01*
G75*
G02*
X0301083Y0176949I0000000J0000177D01*
G01*
G37*
G36*
G01*
X0304134Y0177028D02*
X0304134Y0179665D01*
G75*
G02*
X0304390Y0179921I0000256J0000000D01*
G01*
X0306437Y0179921D01*
G75*
G02*
X0306693Y0179665I0000000J-000256D01*
G01*
X0306693Y0177028D01*
G75*
G02*
X0306437Y0176772I-000256J0000000D01*
G01*
X0304390Y0176772D01*
G75*
G02*
X0304134Y0177028I0000000J0000256D01*
G01*
G37*
G36*
G01*
X0304134Y0184114D02*
X0304134Y0186752D01*
G75*
G02*
X0304390Y0187008I0000256J0000000D01*
G01*
X0306437Y0187008D01*
G75*
G02*
X0306693Y0186752I0000000J-000256D01*
G01*
X0306693Y0184114D01*
G75*
G02*
X0306437Y0183858I-000256J0000000D01*
G01*
X0304390Y0183858D01*
G75*
G02*
X0304134Y0184114I0000000J0000256D01*
G01*
G37*
G36*
G01*
X0301083Y0184035D02*
X0301083Y0186831D01*
G75*
G02*
X0301260Y0187008I0000177J0000000D01*
G01*
X0302677Y0187008D01*
G75*
G02*
X0302854Y0186831I0000000J-000177D01*
G01*
X0302854Y0184035D01*
G75*
G02*
X0302677Y0183858I-000177J0000000D01*
G01*
X0301260Y0183858D01*
G75*
G02*
X0301083Y0184035I0000000J0000177D01*
G01*
G37*
G36*
G01*
X0297933Y0184035D02*
X0297933Y0186831D01*
G75*
G02*
X0298110Y0187008I0000177J0000000D01*
G01*
X0299528Y0187008D01*
G75*
G02*
X0299705Y0186831I0000000J-000177D01*
G01*
X0299705Y0184035D01*
G75*
G02*
X0299528Y0183858I-000177J0000000D01*
G01*
X0298110Y0183858D01*
G75*
G02*
X0297933Y0184035I0000000J0000177D01*
G01*
G37*
G36*
G01*
X0294094Y0184114D02*
X0294094Y0186752D01*
G75*
G02*
X0294350Y0187008I0000256J0000000D01*
G01*
X0296398Y0187008D01*
G75*
G02*
X0296654Y0186752I0000000J-000256D01*
G01*
X0296654Y0184114D01*
G75*
G02*
X0296398Y0183858I-000256J0000000D01*
G01*
X0294350Y0183858D01*
G75*
G02*
X0294094Y0184114I0000000J0000256D01*
G01*
G37*
G36*
G01*
X0279724Y0343799D02*
X0278543Y0343799D01*
G75*
G02*
X0277953Y0344390I0000000J0000591D01*
G01*
X0277953Y0349016D01*
G75*
G02*
X0278543Y0349606I0000591J0000000D01*
G01*
X0279724Y0349606D01*
G75*
G02*
X0280315Y0349016I0000000J-000591D01*
G01*
X0280315Y0344390D01*
G75*
G02*
X0279724Y0343799I-000591J0000000D01*
G01*
G37*
G36*
G01*
X0283465Y0351181D02*
X0282283Y0351181D01*
G75*
G02*
X0281693Y0351772I0000000J0000591D01*
G01*
X0281693Y0356398D01*
G75*
G02*
X0282283Y0356988I0000591J0000000D01*
G01*
X0283465Y0356988D01*
G75*
G02*
X0284055Y0356398I0000000J-000591D01*
G01*
X0284055Y0351772D01*
G75*
G02*
X0283465Y0351181I-000591J0000000D01*
G01*
G37*
G36*
G01*
X0287205Y0343799D02*
X0286024Y0343799D01*
G75*
G02*
X0285433Y0344390I0000000J0000591D01*
G01*
X0285433Y0349016D01*
G75*
G02*
X0286024Y0349606I0000591J0000000D01*
G01*
X0287205Y0349606D01*
G75*
G02*
X0287795Y0349016I0000000J-000591D01*
G01*
X0287795Y0344390D01*
G75*
G02*
X0287205Y0343799I-000591J0000000D01*
G01*
G37*
D24*
X0350787Y0101575D03*
G36*
G01*
X0009370Y0308661D02*
X0005591Y0308661D01*
G75*
G02*
X0005118Y0309134I0000000J0000472D01*
G01*
X0005118Y0316850D01*
G75*
G02*
X0005591Y0317323I0000472J0000000D01*
G01*
X0009370Y0317323D01*
G75*
G02*
X0009843Y0316850I0000000J-000472D01*
G01*
X0009843Y0309134D01*
G75*
G02*
X0009370Y0308661I-000472J0000000D01*
G01*
G37*
D26*
X0016457Y0337795D03*
G36*
G01*
X0027323Y0308661D02*
X0023543Y0308661D01*
G75*
G02*
X0023071Y0309134I0000000J0000472D01*
G01*
X0023071Y0316850D01*
G75*
G02*
X0023543Y0317323I0000472J0000000D01*
G01*
X0027323Y0317323D01*
G75*
G02*
X0027795Y0316850I0000000J-000472D01*
G01*
X0027795Y0309134D01*
G75*
G02*
X0027323Y0308661I-000472J0000000D01*
G01*
G37*
G36*
G01*
X0034646Y0283169D02*
X0033465Y0283169D01*
G75*
G02*
X0032874Y0283760I0000000J0000591D01*
G01*
X0032874Y0288386D01*
G75*
G02*
X0033465Y0288976I0000591J0000000D01*
G01*
X0034646Y0288976D01*
G75*
G02*
X0035236Y0288386I0000000J-000591D01*
G01*
X0035236Y0283760D01*
G75*
G02*
X0034646Y0283169I-000591J0000000D01*
G01*
G37*
G36*
G01*
X0038386Y0290551D02*
X0037205Y0290551D01*
G75*
G02*
X0036614Y0291142I0000000J0000591D01*
G01*
X0036614Y0295768D01*
G75*
G02*
X0037205Y0296358I0000591J0000000D01*
G01*
X0038386Y0296358D01*
G75*
G02*
X0038976Y0295768I0000000J-000591D01*
G01*
X0038976Y0291142D01*
G75*
G02*
X0038386Y0290551I-000591J0000000D01*
G01*
G37*
G36*
G01*
X0042126Y0283169D02*
X0040945Y0283169D01*
G75*
G02*
X0040354Y0283760I0000000J0000591D01*
G01*
X0040354Y0288386D01*
G75*
G02*
X0040945Y0288976I0000591J0000000D01*
G01*
X0042126Y0288976D01*
G75*
G02*
X0042717Y0288386I0000000J-000591D01*
G01*
X0042717Y0283760D01*
G75*
G02*
X0042126Y0283169I-000591J0000000D01*
G01*
G37*
G36*
G01*
X0075984Y0283169D02*
X0074803Y0283169D01*
G75*
G02*
X0074213Y0283760I0000000J0000591D01*
G01*
X0074213Y0288386D01*
G75*
G02*
X0074803Y0288976I0000591J0000000D01*
G01*
X0075984Y0288976D01*
G75*
G02*
X0076575Y0288386I0000000J-000591D01*
G01*
X0076575Y0283760D01*
G75*
G02*
X0075984Y0283169I-000591J0000000D01*
G01*
G37*
G36*
G01*
X0079724Y0290551D02*
X0078543Y0290551D01*
G75*
G02*
X0077953Y0291142I0000000J0000591D01*
G01*
X0077953Y0295768D01*
G75*
G02*
X0078543Y0296358I0000591J0000000D01*
G01*
X0079724Y0296358D01*
G75*
G02*
X0080315Y0295768I0000000J-000591D01*
G01*
X0080315Y0291142D01*
G75*
G02*
X0079724Y0290551I-000591J0000000D01*
G01*
G37*
G36*
G01*
X0083465Y0283169D02*
X0082283Y0283169D01*
G75*
G02*
X0081693Y0283760I0000000J0000591D01*
G01*
X0081693Y0288386D01*
G75*
G02*
X0082283Y0288976I0000591J0000000D01*
G01*
X0083465Y0288976D01*
G75*
G02*
X0084055Y0288386I0000000J-000591D01*
G01*
X0084055Y0283760D01*
G75*
G02*
X0083465Y0283169I-000591J0000000D01*
G01*
G37*
D66*
X0214567Y0421654D03*
X0371260Y0421654D03*
D67*
X0242717Y0398031D03*
X0258465Y0398031D03*
X0272244Y0398031D03*
X0286024Y0398031D03*
X0299803Y0398031D03*
X0313583Y0398031D03*
X0327362Y0398031D03*
X0343110Y0398031D03*
X0242717Y0413780D03*
X0258465Y0413780D03*
X0272244Y0413780D03*
X0286024Y0413780D03*
X0299803Y0413780D03*
X0313583Y0413780D03*
X0327362Y0413780D03*
X0343110Y0413780D03*
X0242717Y0429528D03*
X0258465Y0429528D03*
X0272244Y0429528D03*
X0286024Y0429528D03*
X0299803Y0429528D03*
X0313583Y0429528D03*
X0327362Y0429528D03*
X0343110Y0429528D03*
D23*
X0221654Y0381496D03*
G36*
G01*
X0218110Y0376201D02*
X0218110Y0378917D01*
G75*
G02*
X0219016Y0379823I0000906J0000000D01*
G01*
X0224291Y0379823D01*
G75*
G02*
X0225197Y0378917I0000000J-000906D01*
G01*
X0225197Y0376201D01*
G75*
G02*
X0224291Y0375295I-000906J0000000D01*
G01*
X0219016Y0375295D01*
G75*
G02*
X0218110Y0376201I0000000J0000906D01*
G01*
G37*
G36*
G01*
X0218110Y0364783D02*
X0218110Y0367500D01*
G75*
G02*
X0219016Y0368405I0000906J0000000D01*
G01*
X0224291Y0368405D01*
G75*
G02*
X0225197Y0367500I0000000J-000906D01*
G01*
X0225197Y0364783D01*
G75*
G02*
X0224291Y0363878I-000906J0000000D01*
G01*
X0219016Y0363878D01*
G75*
G02*
X0218110Y0364783I0000000J0000906D01*
G01*
G37*
X0221654Y0362205D03*
G36*
G01*
X0161654Y0206358D02*
X0164331Y0206358D01*
G75*
G02*
X0164665Y0206024I0000000J-000335D01*
G01*
X0164665Y0203346D01*
G75*
G02*
X0164331Y0203012I-000335J0000000D01*
G01*
X0161654Y0203012D01*
G75*
G02*
X0161319Y0203346I0000000J0000335D01*
G01*
X0161319Y0206024D01*
G75*
G02*
X0161654Y0206358I0000335J0000000D01*
G01*
G37*
G36*
G01*
X0161654Y0200138D02*
X0164331Y0200138D01*
G75*
G02*
X0164665Y0199803I0000000J-000335D01*
G01*
X0164665Y0197126D01*
G75*
G02*
X0164331Y0196791I-000335J0000000D01*
G01*
X0161654Y0196791D01*
G75*
G02*
X0161319Y0197126I0000000J0000335D01*
G01*
X0161319Y0199803D01*
G75*
G02*
X0161654Y0200138I0000335J0000000D01*
G01*
G37*
D54*
X0103918Y0116285D03*
X0106910Y0116285D03*
X0111536Y0116285D03*
X0116162Y0116285D03*
X0119469Y0116285D03*
X0122422Y0116285D03*
X0127048Y0116285D03*
X0131674Y0116285D03*
D10*
X0111831Y0076523D03*
X0104607Y0078196D03*
X0112678Y0080362D03*
X0111831Y0083806D03*
X0111536Y0087153D03*
X0104607Y0088433D03*
X0109764Y0093551D03*
X0104607Y0096110D03*
X0127934Y0067862D03*
X0111890Y0069043D03*
D23*
X0196260Y0409626D03*
G36*
G01*
X0198720Y0411417D02*
X0193799Y0411417D01*
G75*
G02*
X0193406Y0411811I0000000J0000394D01*
G01*
X0193406Y0414961D01*
G75*
G02*
X0193799Y0415354I0000394J0000000D01*
G01*
X0198720Y0415354D01*
G75*
G02*
X0199114Y0414961I0000000J-000394D01*
G01*
X0199114Y0411811D01*
G75*
G02*
X0198720Y0411417I-000394J0000000D01*
G01*
G37*
G36*
G01*
X0198720Y0418898D02*
X0193799Y0418898D01*
G75*
G02*
X0193406Y0419291I0000000J0000394D01*
G01*
X0193406Y0422441D01*
G75*
G02*
X0193799Y0422835I0000394J0000000D01*
G01*
X0198720Y0422835D01*
G75*
G02*
X0199114Y0422441I0000000J-000394D01*
G01*
X0199114Y0419291D01*
G75*
G02*
X0198720Y0418898I-000394J0000000D01*
G01*
G37*
X0196260Y0424626D03*
X0243504Y0364941D03*
G36*
G01*
X0245965Y0366732D02*
X0241043Y0366732D01*
G75*
G02*
X0240650Y0367126I0000000J0000394D01*
G01*
X0240650Y0370276D01*
G75*
G02*
X0241043Y0370669I0000394J0000000D01*
G01*
X0245965Y0370669D01*
G75*
G02*
X0246358Y0370276I0000000J-000394D01*
G01*
X0246358Y0367126D01*
G75*
G02*
X0245965Y0366732I-000394J0000000D01*
G01*
G37*
G36*
G01*
X0245965Y0374213D02*
X0241043Y0374213D01*
G75*
G02*
X0240650Y0374606I0000000J0000394D01*
G01*
X0240650Y0377756D01*
G75*
G02*
X0241043Y0378150I0000394J0000000D01*
G01*
X0245965Y0378150D01*
G75*
G02*
X0246358Y0377756I0000000J-000394D01*
G01*
X0246358Y0374606D01*
G75*
G02*
X0245965Y0374213I-000394J0000000D01*
G01*
G37*
X0243504Y0379941D03*
D24*
X0305512Y0231496D03*
G36*
G01*
X0320866Y0190157D02*
X0317323Y0190157D01*
G75*
G02*
X0316929Y0190551I0000000J0000394D01*
G01*
X0316929Y0193701D01*
G75*
G02*
X0317323Y0194094I0000394J0000000D01*
G01*
X0320866Y0194094D01*
G75*
G02*
X0321260Y0193701I0000000J-000394D01*
G01*
X0321260Y0190551D01*
G75*
G02*
X0320866Y0190157I-000394J0000000D01*
G01*
G37*
G36*
G01*
X0320866Y0196850D02*
X0317323Y0196850D01*
G75*
G02*
X0316929Y0197244I0000000J0000394D01*
G01*
X0316929Y0200394D01*
G75*
G02*
X0317323Y0200787I0000394J0000000D01*
G01*
X0320866Y0200787D01*
G75*
G02*
X0321260Y0200394I0000000J-000394D01*
G01*
X0321260Y0197244D01*
G75*
G02*
X0320866Y0196850I-000394J0000000D01*
G01*
G37*
G36*
G01*
X0048425Y0283169D02*
X0047244Y0283169D01*
G75*
G02*
X0046654Y0283760I0000000J0000591D01*
G01*
X0046654Y0288386D01*
G75*
G02*
X0047244Y0288976I0000591J0000000D01*
G01*
X0048425Y0288976D01*
G75*
G02*
X0049016Y0288386I0000000J-000591D01*
G01*
X0049016Y0283760D01*
G75*
G02*
X0048425Y0283169I-000591J0000000D01*
G01*
G37*
G36*
G01*
X0052165Y0290551D02*
X0050984Y0290551D01*
G75*
G02*
X0050394Y0291142I0000000J0000591D01*
G01*
X0050394Y0295768D01*
G75*
G02*
X0050984Y0296358I0000591J0000000D01*
G01*
X0052165Y0296358D01*
G75*
G02*
X0052756Y0295768I0000000J-000591D01*
G01*
X0052756Y0291142D01*
G75*
G02*
X0052165Y0290551I-000591J0000000D01*
G01*
G37*
G36*
G01*
X0055906Y0283169D02*
X0054724Y0283169D01*
G75*
G02*
X0054134Y0283760I0000000J0000591D01*
G01*
X0054134Y0288386D01*
G75*
G02*
X0054724Y0288976I0000591J0000000D01*
G01*
X0055906Y0288976D01*
G75*
G02*
X0056496Y0288386I0000000J-000591D01*
G01*
X0056496Y0283760D01*
G75*
G02*
X0055906Y0283169I-000591J0000000D01*
G01*
G37*
D55*
X0165118Y0024606D03*
X0165118Y0009252D03*
X0160118Y0024606D03*
X0160118Y0009252D03*
X0155118Y0024606D03*
X0155118Y0009252D03*
X0150118Y0024606D03*
X0150118Y0009252D03*
X0145118Y0024606D03*
X0145118Y0009252D03*
D23*
X0230906Y0381673D03*
G36*
G01*
X0227362Y0376378D02*
X0227362Y0379095D01*
G75*
G02*
X0228268Y0380000I0000906J0000000D01*
G01*
X0233543Y0380000D01*
G75*
G02*
X0234449Y0379095I0000000J-000906D01*
G01*
X0234449Y0376378D01*
G75*
G02*
X0233543Y0375472I-000906J0000000D01*
G01*
X0228268Y0375472D01*
G75*
G02*
X0227362Y0376378I0000000J0000906D01*
G01*
G37*
G36*
G01*
X0227362Y0364961D02*
X0227362Y0367677D01*
G75*
G02*
X0228268Y0368583I0000906J0000000D01*
G01*
X0233543Y0368583D01*
G75*
G02*
X0234449Y0367677I0000000J-000906D01*
G01*
X0234449Y0364961D01*
G75*
G02*
X0233543Y0364055I-000906J0000000D01*
G01*
X0228268Y0364055D01*
G75*
G02*
X0227362Y0364961I0000000J0000906D01*
G01*
G37*
X0230906Y0362382D03*
G36*
G01*
X0133071Y0277972D02*
X0133071Y0280689D01*
G75*
G02*
X0133976Y0281595I0000906J0000000D01*
G01*
X0139252Y0281595D01*
G75*
G02*
X0140157Y0280689I0000000J-000906D01*
G01*
X0140157Y0277972D01*
G75*
G02*
X0139252Y0277067I-000906J0000000D01*
G01*
X0133976Y0277067D01*
G75*
G02*
X0133071Y0277972I0000000J0000906D01*
G01*
G37*
G36*
G01*
X0133071Y0266555D02*
X0133071Y0269272D01*
G75*
G02*
X0133976Y0270177I0000906J0000000D01*
G01*
X0139252Y0270177D01*
G75*
G02*
X0140157Y0269272I0000000J-000906D01*
G01*
X0140157Y0266555D01*
G75*
G02*
X0139252Y0265650I-000906J0000000D01*
G01*
X0133976Y0265650D01*
G75*
G02*
X0133071Y0266555I0000000J0000906D01*
G01*
G37*
G36*
G01*
X0264567Y0177028D02*
X0264567Y0179665D01*
G75*
G02*
X0264823Y0179921I0000256J0000000D01*
G01*
X0266870Y0179921D01*
G75*
G02*
X0267126Y0179665I0000000J-000256D01*
G01*
X0267126Y0177028D01*
G75*
G02*
X0266870Y0176772I-000256J0000000D01*
G01*
X0264823Y0176772D01*
G75*
G02*
X0264567Y0177028I0000000J0000256D01*
G01*
G37*
G36*
G01*
X0268406Y0176949D02*
X0268406Y0179744D01*
G75*
G02*
X0268583Y0179921I0000177J0000000D01*
G01*
X0270000Y0179921D01*
G75*
G02*
X0270177Y0179744I0000000J-000177D01*
G01*
X0270177Y0176949D01*
G75*
G02*
X0270000Y0176772I-000177J0000000D01*
G01*
X0268583Y0176772D01*
G75*
G02*
X0268406Y0176949I0000000J0000177D01*
G01*
G37*
G36*
G01*
X0271555Y0176949D02*
X0271555Y0179744D01*
G75*
G02*
X0271732Y0179921I0000177J0000000D01*
G01*
X0273150Y0179921D01*
G75*
G02*
X0273327Y0179744I0000000J-000177D01*
G01*
X0273327Y0176949D01*
G75*
G02*
X0273150Y0176772I-000177J0000000D01*
G01*
X0271732Y0176772D01*
G75*
G02*
X0271555Y0176949I0000000J0000177D01*
G01*
G37*
G36*
G01*
X0274606Y0177028D02*
X0274606Y0179665D01*
G75*
G02*
X0274862Y0179921I0000256J0000000D01*
G01*
X0276909Y0179921D01*
G75*
G02*
X0277165Y0179665I0000000J-000256D01*
G01*
X0277165Y0177028D01*
G75*
G02*
X0276909Y0176772I-000256J0000000D01*
G01*
X0274862Y0176772D01*
G75*
G02*
X0274606Y0177028I0000000J0000256D01*
G01*
G37*
G36*
G01*
X0274606Y0184114D02*
X0274606Y0186752D01*
G75*
G02*
X0274862Y0187008I0000256J0000000D01*
G01*
X0276909Y0187008D01*
G75*
G02*
X0277165Y0186752I0000000J-000256D01*
G01*
X0277165Y0184114D01*
G75*
G02*
X0276909Y0183858I-000256J0000000D01*
G01*
X0274862Y0183858D01*
G75*
G02*
X0274606Y0184114I0000000J0000256D01*
G01*
G37*
G36*
G01*
X0271555Y0184035D02*
X0271555Y0186831D01*
G75*
G02*
X0271732Y0187008I0000177J0000000D01*
G01*
X0273150Y0187008D01*
G75*
G02*
X0273327Y0186831I0000000J-000177D01*
G01*
X0273327Y0184035D01*
G75*
G02*
X0273150Y0183858I-000177J0000000D01*
G01*
X0271732Y0183858D01*
G75*
G02*
X0271555Y0184035I0000000J0000177D01*
G01*
G37*
G36*
G01*
X0268406Y0184035D02*
X0268406Y0186831D01*
G75*
G02*
X0268583Y0187008I0000177J0000000D01*
G01*
X0270000Y0187008D01*
G75*
G02*
X0270177Y0186831I0000000J-000177D01*
G01*
X0270177Y0184035D01*
G75*
G02*
X0270000Y0183858I-000177J0000000D01*
G01*
X0268583Y0183858D01*
G75*
G02*
X0268406Y0184035I0000000J0000177D01*
G01*
G37*
G36*
G01*
X0264567Y0184114D02*
X0264567Y0186752D01*
G75*
G02*
X0264823Y0187008I0000256J0000000D01*
G01*
X0266870Y0187008D01*
G75*
G02*
X0267126Y0186752I0000000J-000256D01*
G01*
X0267126Y0184114D01*
G75*
G02*
X0266870Y0183858I-000256J0000000D01*
G01*
X0264823Y0183858D01*
G75*
G02*
X0264567Y0184114I0000000J0000256D01*
G01*
G37*
X0082047Y0163583D03*
G36*
G01*
X0085591Y0168878D02*
X0085591Y0166161D01*
G75*
G02*
X0084685Y0165256I-000906J0000000D01*
G01*
X0079409Y0165256D01*
G75*
G02*
X0078504Y0166161I0000000J0000906D01*
G01*
X0078504Y0168878D01*
G75*
G02*
X0079409Y0169783I0000906J0000000D01*
G01*
X0084685Y0169783D01*
G75*
G02*
X0085591Y0168878I0000000J-000906D01*
G01*
G37*
G36*
G01*
X0085591Y0180295D02*
X0085591Y0177579D01*
G75*
G02*
X0084685Y0176673I-000906J0000000D01*
G01*
X0079409Y0176673D01*
G75*
G02*
X0078504Y0177579I0000000J0000906D01*
G01*
X0078504Y0180295D01*
G75*
G02*
X0079409Y0181201I0000906J0000000D01*
G01*
X0084685Y0181201D01*
G75*
G02*
X0085591Y0180295I0000000J-000906D01*
G01*
G37*
X0082047Y0182874D03*
X0310236Y0382067D03*
G36*
G01*
X0306693Y0376772D02*
X0306693Y0379488D01*
G75*
G02*
X0307598Y0380394I0000906J0000000D01*
G01*
X0312874Y0380394D01*
G75*
G02*
X0313780Y0379488I0000000J-000906D01*
G01*
X0313780Y0376772D01*
G75*
G02*
X0312874Y0375866I-000906J0000000D01*
G01*
X0307598Y0375866D01*
G75*
G02*
X0306693Y0376772I0000000J0000906D01*
G01*
G37*
G36*
G01*
X0306693Y0365354D02*
X0306693Y0368071D01*
G75*
G02*
X0307598Y0368976I0000906J0000000D01*
G01*
X0312874Y0368976D01*
G75*
G02*
X0313780Y0368071I0000000J-000906D01*
G01*
X0313780Y0365354D01*
G75*
G02*
X0312874Y0364449I-000906J0000000D01*
G01*
X0307598Y0364449D01*
G75*
G02*
X0306693Y0365354I0000000J0000906D01*
G01*
G37*
X0310236Y0362776D03*
X0183858Y0295571D02*
G01*
G75*
D323*
X0209449Y0265059D02*
D03*
X0209449Y0281201D02*
D03*
D324*
X0190508Y0250492D02*
D03*
X0208225Y0250492D02*
D03*
D325*
X0191338Y0263288D02*
D03*
X0191338Y0279036D02*
D03*
D326*
X0253116Y0286227D02*
D03*
X0249376Y0276975D02*
D03*
D326*
X0256856Y0276975D02*
D03*
D327*
X0262795Y0254140D02*
D03*
D327*
X0259055Y0254140D02*
D03*
X0255315Y0254140D02*
D03*
X0255315Y0245676D02*
D03*
X0262795Y0245676D02*
D03*
D328*
X0248794Y0241824D02*
D03*
X0248794Y0254816D02*
D03*
D329*
X0232677Y0281181D02*
D03*
X0232677Y0253819D02*
D03*
D330*
X0249082Y0260110D02*
D03*
X0249082Y0271528D02*
D03*
D331*
X0216535Y0240925D02*
D03*
X0216535Y0247146D02*
D03*
X0216535Y0251516D02*
D03*
X0216535Y0257736D02*
D03*
D332*
X0193646Y0291602D02*
D03*
X0197780Y0291602D02*
D03*
X0235520Y0241047D02*
D03*
X0239654Y0241047D02*
D03*
X0230807Y0241047D02*
D03*
X0226673Y0241047D02*
D03*
X0211158Y0240155D02*
D03*
X0207024Y0240155D02*
D03*
D333*
X0255365Y0259258D02*
D03*
X0259302Y0259258D02*
D03*
X0256267Y0272933D02*
D03*
X0256267Y0264272D02*
D03*
X0262664Y0272933D02*
D03*
X0262664Y0264272D02*
D03*
D334*
X0262795Y0281306D02*
D03*
X0262795Y0277762D02*
D03*
D335*
X0239457Y0245305D02*
D03*
X0235913Y0245305D02*
D03*
X0230413Y0245305D02*
D03*
X0226870Y0245305D02*
D03*
X0198857Y0240155D02*
D03*
X0202401Y0240155D02*
D03*
D119*
X0201968Y0229823D02*
D03*
X0198031Y0229823D02*
D03*
D120*
X0255511Y0292618D02*
D03*
X0188582Y0292618D02*
D03*
X0236023Y0292618D02*
D03*
X0235826Y0231595D02*
D03*
X0261023Y0231595D02*
D03*
X0211417Y0231595D02*
D03*
X0228346Y0231595D02*
D03*
X0186811Y0231595D02*
D03*
X0262795Y0292618D02*
D03*
X0134528Y0117370D02*
G01*
G75*
D140*
X0131674Y0116286D02*
D03*
X0127048Y0116286D02*
D03*
X0103918Y0116286D02*
D03*
X0106910Y0116286D02*
D03*
X0111536Y0116286D02*
D03*
X0122422Y0116286D02*
D03*
X0116162Y0116286D02*
D03*
X0119469Y0116286D02*
D03*
D141*
X0107185Y0098669D02*
D03*
X0107185Y0096110D02*
D03*
X0107185Y0093551D02*
D03*
X0107185Y0090992D02*
D03*
X0107185Y0088433D02*
D03*
X0107185Y0085874D02*
D03*
X0107185Y0083315D02*
D03*
X0107185Y0080756D02*
D03*
X0107185Y0078197D02*
D03*
X0107185Y0075638D02*
D03*
X0107185Y0073079D02*
D03*
X0107185Y0070520D02*
D03*
X0130178Y0098669D02*
D03*
X0130178Y0096110D02*
D03*
X0130178Y0093551D02*
D03*
X0130178Y0090992D02*
D03*
X0130178Y0088433D02*
D03*
X0130178Y0085874D02*
D03*
X0130178Y0083315D02*
D03*
X0130178Y0080756D02*
D03*
X0130178Y0078197D02*
D03*
X0130178Y0075638D02*
D03*
X0130178Y0073079D02*
D03*
X0130178Y0070520D02*
D03*
D295*
X0130158Y0066583D02*
D03*
X0123937Y0066583D02*
D03*
X0113406Y0066583D02*
D03*
X0119627Y0066583D02*
D03*
D360*
X0111398Y0103787D02*
D03*
X0105099Y0103787D02*
D03*
X0124390Y0104181D02*
D03*
X0118091Y0104181D02*
D03*
D361*
X0116315Y0114811D02*
D03*
X0116315Y0108512D02*
D03*
X0122638Y0108512D02*
D03*
X0122638Y0114811D02*
D03*
X0127264Y0114811D02*
D03*
X0127264Y0108512D02*
D03*
X0107087Y0108610D02*
D03*
X0107087Y0114909D02*
D03*
X0131890Y0108512D02*
D03*
X0131890Y0114811D02*
D03*
X0111693Y0108512D02*
D03*
X0111693Y0114811D02*
D03*
D119*
X0127934Y0067862D02*
D03*
X0111890Y0069043D02*
D03*
X0104607Y0096110D02*
D03*
X0109764Y0093551D02*
D03*
X0111536Y0087153D02*
D03*
X0104607Y0088433D02*
D03*
X0111831Y0083807D02*
D03*
X0112678Y0080362D02*
D03*
X0104607Y0078197D02*
D03*
X0111831Y0076524D02*
D03*
X0105413Y0261614D02*
%LPD*%
G01*
G36*
G01*
X0051319Y0245787D02*
X0051319Y0247126D01*
G75*
G02*
X0051870Y0247677I0000551J0000000D01*
G01*
X0052972Y0247677D01*
G75*
G02*
X0053523Y0247126I0000000J-000551D01*
G01*
X0053523Y0245787D01*
G75*
G02*
X0052972Y0245236I-000551J0000000D01*
G01*
X0051870Y0245236D01*
G75*
G02*
X0051319Y0245787I0000000J0000551D01*
G01*
G37*
G36*
G01*
X0047539Y0245787D02*
X0047539Y0247126D01*
G75*
G02*
X0048090Y0247677I0000551J0000000D01*
G01*
X0049193Y0247677D01*
G75*
G02*
X0049744Y0247126I0000000J-000551D01*
G01*
X0049744Y0245787D01*
G75*
G02*
X0049193Y0245236I-000551J0000000D01*
G01*
X0048090Y0245236D01*
G75*
G02*
X0047539Y0245787I0000000J0000551D01*
G01*
G37*
G36*
G01*
X0077815Y0231023D02*
X0079153Y0231023D01*
G75*
G02*
X0079704Y0230472I0000000J-000551D01*
G01*
X0079704Y0229370D01*
G75*
G02*
X0079153Y0228819I-000551J0000000D01*
G01*
X0077815Y0228819D01*
G75*
G02*
X0077263Y0229370I0000000J0000551D01*
G01*
X0077263Y0230472D01*
G75*
G02*
X0077815Y0231023I0000551J0000000D01*
G01*
G37*
G36*
G01*
X0077815Y0234803D02*
X0079153Y0234803D01*
G75*
G02*
X0079704Y0234252I0000000J-000551D01*
G01*
X0079704Y0233149D01*
G75*
G02*
X0079153Y0232598I-000551J0000000D01*
G01*
X0077815Y0232598D01*
G75*
G02*
X0077263Y0233149I0000000J0000551D01*
G01*
X0077263Y0234252D01*
G75*
G02*
X0077815Y0234803I0000551J0000000D01*
G01*
G37*
G36*
G01*
X0064724Y0259685D02*
X0066181Y0259685D01*
G75*
G02*
X0066712Y0259153I0000000J-000531D01*
G01*
X0066712Y0258090D01*
G75*
G02*
X0066181Y0257559I-000531J0000000D01*
G01*
X0064724Y0257559D01*
G75*
G02*
X0064193Y0258090I0000000J0000531D01*
G01*
X0064193Y0259153D01*
G75*
G02*
X0064724Y0259685I0000531J0000000D01*
G01*
G37*
G36*
G01*
X0064724Y0255669D02*
X0066181Y0255669D01*
G75*
G02*
X0066712Y0255138I0000000J-000531D01*
G01*
X0066712Y0254075D01*
G75*
G02*
X0066181Y0253543I-000531J0000000D01*
G01*
X0064724Y0253543D01*
G75*
G02*
X0064193Y0254075I0000000J0000531D01*
G01*
X0064193Y0255138D01*
G75*
G02*
X0064724Y0255669I0000531J0000000D01*
G01*
G37*
G36*
G01*
X0075696Y0227342D02*
X0075696Y0226161D01*
G75*
G02*
X0075106Y0225571I-000591J0000000D01*
G01*
X0068610Y0225571D01*
G75*
G02*
X0068019Y0226161I0000000J0000591D01*
G01*
X0068019Y0227342D01*
G75*
G02*
X0068610Y0227933I0000591J0000000D01*
G01*
X0075106Y0227933D01*
G75*
G02*
X0075696Y0227342I0000000J-000591D01*
G01*
G37*
G36*
G01*
X0075696Y0232342D02*
X0075696Y0231161D01*
G75*
G02*
X0075106Y0230571I-000591J0000000D01*
G01*
X0068610Y0230571D01*
G75*
G02*
X0068019Y0231161I0000000J0000591D01*
G01*
X0068019Y0232342D01*
G75*
G02*
X0068610Y0232933I0000591J0000000D01*
G01*
X0075106Y0232933D01*
G75*
G02*
X0075696Y0232342I0000000J-000591D01*
G01*
G37*
G36*
G01*
X0075696Y0237342D02*
X0075696Y0236161D01*
G75*
G02*
X0075106Y0235571I-000591J0000000D01*
G01*
X0068610Y0235571D01*
G75*
G02*
X0068019Y0236161I0000000J0000591D01*
G01*
X0068019Y0237342D01*
G75*
G02*
X0068610Y0237933I0000591J0000000D01*
G01*
X0075106Y0237933D01*
G75*
G02*
X0075696Y0237342I0000000J-000591D01*
G01*
G37*
G36*
G01*
X0075696Y0242342D02*
X0075696Y0241161D01*
G75*
G02*
X0075106Y0240571I-000591J0000000D01*
G01*
X0068610Y0240571D01*
G75*
G02*
X0068019Y0241161I0000000J0000591D01*
G01*
X0068019Y0242342D01*
G75*
G02*
X0068610Y0242933I0000591J0000000D01*
G01*
X0075106Y0242933D01*
G75*
G02*
X0075696Y0242342I0000000J-000591D01*
G01*
G37*
G36*
G01*
X0056208Y0242342D02*
X0056208Y0241161D01*
G75*
G02*
X0055618Y0240571I-000591J0000000D01*
G01*
X0049122Y0240571D01*
G75*
G02*
X0048531Y0241161I0000000J0000591D01*
G01*
X0048531Y0242342D01*
G75*
G02*
X0049122Y0242933I0000591J0000000D01*
G01*
X0055618Y0242933D01*
G75*
G02*
X0056208Y0242342I0000000J-000591D01*
G01*
G37*
G36*
G01*
X0056208Y0237342D02*
X0056208Y0236161D01*
G75*
G02*
X0055618Y0235571I-000591J0000000D01*
G01*
X0049122Y0235571D01*
G75*
G02*
X0048531Y0236161I0000000J0000591D01*
G01*
X0048531Y0237342D01*
G75*
G02*
X0049122Y0237933I0000591J0000000D01*
G01*
X0055618Y0237933D01*
G75*
G02*
X0056208Y0237342I0000000J-000591D01*
G01*
G37*
G36*
G01*
X0056208Y0232342D02*
X0056208Y0231161D01*
G75*
G02*
X0055618Y0230571I-000591J0000000D01*
G01*
X0049122Y0230571D01*
G75*
G02*
X0048531Y0231161I0000000J0000591D01*
G01*
X0048531Y0232342D01*
G75*
G02*
X0049122Y0232933I0000591J0000000D01*
G01*
X0055618Y0232933D01*
G75*
G02*
X0056208Y0232342I0000000J-000591D01*
G01*
G37*
G36*
G01*
X0056208Y0227342D02*
X0056208Y0226161D01*
G75*
G02*
X0055618Y0225571I-000591J0000000D01*
G01*
X0049122Y0225571D01*
G75*
G02*
X0048531Y0226161I0000000J0000591D01*
G01*
X0048531Y0227342D01*
G75*
G02*
X0049122Y0227933I0000591J0000000D01*
G01*
X0055618Y0227933D01*
G75*
G02*
X0056208Y0227342I0000000J-000591D01*
G01*
G37*
D144*
X0090216Y0226614D03*
X0090216Y0229173D03*
X0090216Y0231732D03*
X0082736Y0231732D03*
X0082736Y0229173D03*
X0082736Y0226614D03*
D10*
X0047145Y0234449D03*
X0047145Y0239173D03*
X0047145Y0229724D03*
X0047145Y0225000D03*
X0103937Y0250433D03*
X0103937Y0254370D03*
G36*
G01*
X0074055Y0245702D02*
X0072598Y0245702D01*
G75*
G02*
X0072067Y0246234I0000000J0000531D01*
G01*
X0072067Y0247297D01*
G75*
G02*
X0072598Y0247828I0000531J0000000D01*
G01*
X0074055Y0247828D01*
G75*
G02*
X0074586Y0247297I0000000J-000531D01*
G01*
X0074586Y0246234D01*
G75*
G02*
X0074055Y0245702I-000531J0000000D01*
G01*
G37*
G36*
G01*
X0074055Y0249718D02*
X0072598Y0249718D01*
G75*
G02*
X0072067Y0250249I0000000J0000531D01*
G01*
X0072067Y0251312D01*
G75*
G02*
X0072598Y0251844I0000531J0000000D01*
G01*
X0074055Y0251844D01*
G75*
G02*
X0074586Y0251312I0000000J-000531D01*
G01*
X0074586Y0250249D01*
G75*
G02*
X0074055Y0249718I-000531J0000000D01*
G01*
G37*
G36*
G01*
X0068720Y0251765D02*
X0070059Y0251765D01*
G75*
G02*
X0070610Y0251214I0000000J-000551D01*
G01*
X0070610Y0250112D01*
G75*
G02*
X0070059Y0249560I-000551J0000000D01*
G01*
X0068720Y0249560D01*
G75*
G02*
X0068169Y0250112I0000000J0000551D01*
G01*
X0068169Y0251214D01*
G75*
G02*
X0068720Y0251765I0000551J0000000D01*
G01*
G37*
G36*
G01*
X0068720Y0247986D02*
X0070059Y0247986D01*
G75*
G02*
X0070610Y0247434I0000000J-000551D01*
G01*
X0070610Y0246332D01*
G75*
G02*
X0070059Y0245781I-000551J0000000D01*
G01*
X0068720Y0245781D01*
G75*
G02*
X0068169Y0246332I0000000J0000551D01*
G01*
X0068169Y0247434D01*
G75*
G02*
X0068720Y0247986I0000551J0000000D01*
G01*
G37*
G36*
G01*
X0072598Y0259685D02*
X0074055Y0259685D01*
G75*
G02*
X0074586Y0259153I0000000J-000531D01*
G01*
X0074586Y0258090D01*
G75*
G02*
X0074055Y0257559I-000531J0000000D01*
G01*
X0072598Y0257559D01*
G75*
G02*
X0072067Y0258090I0000000J0000531D01*
G01*
X0072067Y0259153D01*
G75*
G02*
X0072598Y0259685I0000531J0000000D01*
G01*
G37*
G36*
G01*
X0072598Y0255669D02*
X0074055Y0255669D01*
G75*
G02*
X0074586Y0255138I0000000J-000531D01*
G01*
X0074586Y0254075D01*
G75*
G02*
X0074055Y0253543I-000531J0000000D01*
G01*
X0072598Y0253543D01*
G75*
G02*
X0072067Y0254075I0000000J0000531D01*
G01*
X0072067Y0255138D01*
G75*
G02*
X0072598Y0255669I0000531J0000000D01*
G01*
G37*
G36*
G01*
X0061004Y0253622D02*
X0059665Y0253622D01*
G75*
G02*
X0059114Y0254173I0000000J0000551D01*
G01*
X0059114Y0255275D01*
G75*
G02*
X0059665Y0255827I0000551J0000000D01*
G01*
X0061004Y0255827D01*
G75*
G02*
X0061555Y0255275I0000000J-000551D01*
G01*
X0061555Y0254173D01*
G75*
G02*
X0061004Y0253622I-000551J0000000D01*
G01*
G37*
G36*
G01*
X0061004Y0257401D02*
X0059665Y0257401D01*
G75*
G02*
X0059114Y0257953I0000000J0000551D01*
G01*
X0059114Y0259055D01*
G75*
G02*
X0059665Y0259606I0000551J0000000D01*
G01*
X0061004Y0259606D01*
G75*
G02*
X0061555Y0259055I0000000J-000551D01*
G01*
X0061555Y0257953D01*
G75*
G02*
X0061004Y0257401I-000551J0000000D01*
G01*
G37*
G36*
G01*
X0084133Y0249764D02*
X0082795Y0249764D01*
G75*
G02*
X0082244Y0250315I0000000J0000551D01*
G01*
X0082244Y0251417D01*
G75*
G02*
X0082795Y0251968I0000551J0000000D01*
G01*
X0084133Y0251968D01*
G75*
G02*
X0084685Y0251417I0000000J-000551D01*
G01*
X0084685Y0250315D01*
G75*
G02*
X0084133Y0249764I-000551J0000000D01*
G01*
G37*
G36*
G01*
X0084133Y0253543D02*
X0082795Y0253543D01*
G75*
G02*
X0082244Y0254094I0000000J0000551D01*
G01*
X0082244Y0255197D01*
G75*
G02*
X0082795Y0255748I0000551J0000000D01*
G01*
X0084133Y0255748D01*
G75*
G02*
X0084685Y0255197I0000000J-000551D01*
G01*
X0084685Y0254094D01*
G75*
G02*
X0084133Y0253543I-000551J0000000D01*
G01*
G37*
G36*
G01*
X0078543Y0246516D02*
X0078543Y0247972D01*
G75*
G02*
X0079074Y0248504I0000531J0000000D01*
G01*
X0080137Y0248504D01*
G75*
G02*
X0080669Y0247972I0000000J-000531D01*
G01*
X0080669Y0246516D01*
G75*
G02*
X0080137Y0245984I-000531J0000000D01*
G01*
X0079074Y0245984D01*
G75*
G02*
X0078543Y0246516I0000000J0000531D01*
G01*
G37*
G36*
G01*
X0082559Y0246516D02*
X0082559Y0247972D01*
G75*
G02*
X0083090Y0248504I0000531J0000000D01*
G01*
X0084153Y0248504D01*
G75*
G02*
X0084685Y0247972I0000000J-000531D01*
G01*
X0084685Y0246516D01*
G75*
G02*
X0084153Y0245984I-000531J0000000D01*
G01*
X0083090Y0245984D01*
G75*
G02*
X0082559Y0246516I0000000J0000531D01*
G01*
G37*
G36*
G01*
X0101968Y0238804D02*
X0101968Y0236786D01*
G75*
G02*
X0101107Y0235925I-000861J0000000D01*
G01*
X0099384Y0235925D01*
G75*
G02*
X0098523Y0236786I0000000J0000861D01*
G01*
X0098523Y0238804D01*
G75*
G02*
X0099384Y0239665I0000861J0000000D01*
G01*
X0101107Y0239665D01*
G75*
G02*
X0101968Y0238804I0000000J-000861D01*
G01*
G37*
G36*
G01*
X0095767Y0238804D02*
X0095767Y0236786D01*
G75*
G02*
X0094906Y0235925I-000861J0000000D01*
G01*
X0093184Y0235925D01*
G75*
G02*
X0092322Y0236786I0000000J0000861D01*
G01*
X0092322Y0238804D01*
G75*
G02*
X0093184Y0239665I0000861J0000000D01*
G01*
X0094906Y0239665D01*
G75*
G02*
X0095767Y0238804I0000000J-000861D01*
G01*
G37*
G36*
G01*
X0095452Y0231949D02*
X0095452Y0233405D01*
G75*
G02*
X0095984Y0233937I0000531J0000000D01*
G01*
X0097047Y0233937D01*
G75*
G02*
X0097578Y0233405I0000000J-000531D01*
G01*
X0097578Y0231949D01*
G75*
G02*
X0097047Y0231417I-000531J0000000D01*
G01*
X0095984Y0231417D01*
G75*
G02*
X0095452Y0231949I0000000J0000531D01*
G01*
G37*
G36*
G01*
X0099468Y0231949D02*
X0099468Y0233405D01*
G75*
G02*
X0100000Y0233937I0000531J0000000D01*
G01*
X0101063Y0233937D01*
G75*
G02*
X0101594Y0233405I0000000J-000531D01*
G01*
X0101594Y0231949D01*
G75*
G02*
X0101063Y0231417I-000531J0000000D01*
G01*
X0100000Y0231417D01*
G75*
G02*
X0099468Y0231949I0000000J0000531D01*
G01*
G37*
G36*
G01*
X0084685Y0244035D02*
X0084685Y0242579D01*
G75*
G02*
X0084153Y0242047I-000531J0000000D01*
G01*
X0083090Y0242047D01*
G75*
G02*
X0082559Y0242579I0000000J0000531D01*
G01*
X0082559Y0244035D01*
G75*
G02*
X0083090Y0244567I0000531J0000000D01*
G01*
X0084153Y0244567D01*
G75*
G02*
X0084685Y0244035I0000000J-000531D01*
G01*
G37*
G36*
G01*
X0080669Y0244035D02*
X0080669Y0242579D01*
G75*
G02*
X0080137Y0242047I-000531J0000000D01*
G01*
X0079074Y0242047D01*
G75*
G02*
X0078543Y0242579I0000000J0000531D01*
G01*
X0078543Y0244035D01*
G75*
G02*
X0079074Y0244567I0000531J0000000D01*
G01*
X0080137Y0244567D01*
G75*
G02*
X0080669Y0244035I0000000J-000531D01*
G01*
G37*
G36*
G01*
X0079370Y0249826D02*
X0077913Y0249826D01*
G75*
G02*
X0077382Y0250357I0000000J0000531D01*
G01*
X0077382Y0251420D01*
G75*
G02*
X0077913Y0251952I0000531J0000000D01*
G01*
X0079370Y0251952D01*
G75*
G02*
X0079901Y0251420I0000000J-000531D01*
G01*
X0079901Y0250357D01*
G75*
G02*
X0079370Y0249826I-000531J0000000D01*
G01*
G37*
G36*
G01*
X0079370Y0253842D02*
X0077913Y0253842D01*
G75*
G02*
X0077382Y0254373I0000000J0000531D01*
G01*
X0077382Y0255436D01*
G75*
G02*
X0077913Y0255967I0000531J0000000D01*
G01*
X0079370Y0255967D01*
G75*
G02*
X0079901Y0255436I0000000J-000531D01*
G01*
X0079901Y0254373D01*
G75*
G02*
X0079370Y0253842I-000531J0000000D01*
G01*
G37*
G36*
G01*
X0096712Y0243228D02*
X0096712Y0244567D01*
G75*
G02*
X0097263Y0245118I0000551J0000000D01*
G01*
X0098366Y0245118D01*
G75*
G02*
X0098917Y0244567I0000000J-000551D01*
G01*
X0098917Y0243228D01*
G75*
G02*
X0098366Y0242677I-000551J0000000D01*
G01*
X0097263Y0242677D01*
G75*
G02*
X0096712Y0243228I0000000J0000551D01*
G01*
G37*
G36*
G01*
X0100492Y0243228D02*
X0100492Y0244567D01*
G75*
G02*
X0101043Y0245118I0000551J0000000D01*
G01*
X0102145Y0245118D01*
G75*
G02*
X0102696Y0244567I0000000J-000551D01*
G01*
X0102696Y0243228D01*
G75*
G02*
X0102145Y0242677I-000551J0000000D01*
G01*
X0101043Y0242677D01*
G75*
G02*
X0100492Y0243228I0000000J0000551D01*
G01*
G37*
G36*
G01*
X0059665Y0251765D02*
X0061004Y0251765D01*
G75*
G02*
X0061555Y0251214I0000000J-000551D01*
G01*
X0061555Y0250112D01*
G75*
G02*
X0061004Y0249560I-000551J0000000D01*
G01*
X0059665Y0249560D01*
G75*
G02*
X0059114Y0250112I0000000J0000551D01*
G01*
X0059114Y0251214D01*
G75*
G02*
X0059665Y0251765I0000551J0000000D01*
G01*
G37*
G36*
G01*
X0059665Y0247986D02*
X0061004Y0247986D01*
G75*
G02*
X0061555Y0247434I0000000J-000551D01*
G01*
X0061555Y0246332D01*
G75*
G02*
X0061004Y0245781I-000551J0000000D01*
G01*
X0059665Y0245781D01*
G75*
G02*
X0059114Y0246332I0000000J0000551D01*
G01*
X0059114Y0247434D01*
G75*
G02*
X0059665Y0247986I0000551J0000000D01*
G01*
G37*
G36*
G01*
X0084685Y0259291D02*
X0084685Y0257834D01*
G75*
G02*
X0084153Y0257303I-000531J0000000D01*
G01*
X0083090Y0257303D01*
G75*
G02*
X0082559Y0257834I0000000J0000531D01*
G01*
X0082559Y0259291D01*
G75*
G02*
X0083090Y0259823I0000531J0000000D01*
G01*
X0084153Y0259823D01*
G75*
G02*
X0084685Y0259291I0000000J-000531D01*
G01*
G37*
G36*
G01*
X0080669Y0259291D02*
X0080669Y0257834D01*
G75*
G02*
X0080137Y0257303I-000531J0000000D01*
G01*
X0079074Y0257303D01*
G75*
G02*
X0078543Y0257834I0000000J0000531D01*
G01*
X0078543Y0259291D01*
G75*
G02*
X0079074Y0259823I0000531J0000000D01*
G01*
X0080137Y0259823D01*
G75*
G02*
X0080669Y0259291I0000000J-000531D01*
G01*
G37*
D145*
X0055426Y0258071D03*
X0052867Y0258071D03*
X0050308Y0258071D03*
X0050308Y0250590D03*
X0052867Y0250590D03*
X0055426Y0250590D03*
G36*
G01*
X0101375Y0249285D02*
X0101375Y0248104D01*
G75*
G02*
X0100784Y0247513I-000591J0000000D01*
G01*
X0096749Y0247513D01*
G75*
G02*
X0096158Y0248104I0000000J0000591D01*
G01*
X0096158Y0249285D01*
G75*
G02*
X0096749Y0249875I0000591J0000000D01*
G01*
X0100784Y0249875D01*
G75*
G02*
X0101375Y0249285I0000000J-000591D01*
G01*
G37*
G36*
G01*
X0101375Y0253025D02*
X0101375Y0251844D01*
G75*
G02*
X0100784Y0251253I-000591J0000000D01*
G01*
X0096749Y0251253D01*
G75*
G02*
X0096158Y0251844I0000000J0000591D01*
G01*
X0096158Y0253025D01*
G75*
G02*
X0096749Y0253616I0000591J0000000D01*
G01*
X0100784Y0253616D01*
G75*
G02*
X0101375Y0253025I0000000J-000591D01*
G01*
G37*
G36*
G01*
X0101375Y0256765D02*
X0101375Y0255584D01*
G75*
G02*
X0100784Y0254994I-000591J0000000D01*
G01*
X0096749Y0254994D01*
G75*
G02*
X0096158Y0255584I0000000J0000591D01*
G01*
X0096158Y0256765D01*
G75*
G02*
X0096749Y0257356I0000591J0000000D01*
G01*
X0100784Y0257356D01*
G75*
G02*
X0101375Y0256765I0000000J-000591D01*
G01*
G37*
G36*
G01*
X0092418Y0256765D02*
X0092418Y0255584D01*
G75*
G02*
X0091828Y0254994I-000591J0000000D01*
G01*
X0087792Y0254994D01*
G75*
G02*
X0087202Y0255584I0000000J0000591D01*
G01*
X0087202Y0256765D01*
G75*
G02*
X0087792Y0257356I0000591J0000000D01*
G01*
X0091828Y0257356D01*
G75*
G02*
X0092418Y0256765I0000000J-000591D01*
G01*
G37*
G36*
G01*
X0092418Y0253025D02*
X0092418Y0251844D01*
G75*
G02*
X0091828Y0251253I-000591J0000000D01*
G01*
X0087792Y0251253D01*
G75*
G02*
X0087202Y0251844I0000000J0000591D01*
G01*
X0087202Y0253025D01*
G75*
G02*
X0087792Y0253616I0000591J0000000D01*
G01*
X0091828Y0253616D01*
G75*
G02*
X0092418Y0253025I0000000J-000591D01*
G01*
G37*
G36*
G01*
X0092418Y0249285D02*
X0092418Y0248104D01*
G75*
G02*
X0091828Y0247513I-000591J0000000D01*
G01*
X0087792Y0247513D01*
G75*
G02*
X0087202Y0248104I0000000J0000591D01*
G01*
X0087202Y0249285D01*
G75*
G02*
X0087792Y0249875I0000591J0000000D01*
G01*
X0091828Y0249875D01*
G75*
G02*
X0092418Y0249285I0000000J-000591D01*
G01*
G37*
G36*
G01*
X0090492Y0237401D02*
X0090492Y0236063D01*
G75*
G02*
X0089941Y0235512I-000551J0000000D01*
G01*
X0088838Y0235512D01*
G75*
G02*
X0088287Y0236063I0000000J0000551D01*
G01*
X0088287Y0237401D01*
G75*
G02*
X0088838Y0237953I0000551J0000000D01*
G01*
X0089941Y0237953D01*
G75*
G02*
X0090492Y0237401I0000000J-000551D01*
G01*
G37*
G36*
G01*
X0086712Y0237401D02*
X0086712Y0236063D01*
G75*
G02*
X0086161Y0235512I-000551J0000000D01*
G01*
X0085059Y0235512D01*
G75*
G02*
X0084507Y0236063I0000000J0000551D01*
G01*
X0084507Y0237401D01*
G75*
G02*
X0085059Y0237953I0000551J0000000D01*
G01*
X0086161Y0237953D01*
G75*
G02*
X0086712Y0237401I0000000J-000551D01*
G01*
G37*
G36*
G01*
X0068720Y0259606D02*
X0070059Y0259606D01*
G75*
G02*
X0070610Y0259055I0000000J-000551D01*
G01*
X0070610Y0257953D01*
G75*
G02*
X0070059Y0257401I-000551J0000000D01*
G01*
X0068720Y0257401D01*
G75*
G02*
X0068169Y0257953I0000000J0000551D01*
G01*
X0068169Y0259055D01*
G75*
G02*
X0068720Y0259606I0000551J0000000D01*
G01*
G37*
G36*
G01*
X0068720Y0255827D02*
X0070059Y0255827D01*
G75*
G02*
X0070610Y0255275I0000000J-000551D01*
G01*
X0070610Y0254173D01*
G75*
G02*
X0070059Y0253622I-000551J0000000D01*
G01*
X0068720Y0253622D01*
G75*
G02*
X0068169Y0254173I0000000J0000551D01*
G01*
X0068169Y0255275D01*
G75*
G02*
X0068720Y0255827I0000551J0000000D01*
G01*
G37*
G36*
G01*
X0064724Y0251844D02*
X0066181Y0251844D01*
G75*
G02*
X0066712Y0251312I0000000J-000531D01*
G01*
X0066712Y0250249D01*
G75*
G02*
X0066181Y0249718I-000531J0000000D01*
G01*
X0064724Y0249718D01*
G75*
G02*
X0064193Y0250249I0000000J0000531D01*
G01*
X0064193Y0251312D01*
G75*
G02*
X0064724Y0251844I0000531J0000000D01*
G01*
G37*
G36*
G01*
X0064724Y0247828D02*
X0066181Y0247828D01*
G75*
G02*
X0066712Y0247297I0000000J-000531D01*
G01*
X0066712Y0246234D01*
G75*
G02*
X0066181Y0245702I-000531J0000000D01*
G01*
X0064724Y0245702D01*
G75*
G02*
X0064193Y0246234I0000000J0000531D01*
G01*
X0064193Y0247297D01*
G75*
G02*
X0064724Y0247828I0000531J0000000D01*
G01*
G37*
X0341339Y0172441D02*
G01*
G75*
D174*
X0272934Y0021358D02*
D03*
X0270965Y0021358D02*
D03*
X0268997Y0021358D02*
D03*
X0267028Y0021358D02*
D03*
X0265060Y0021358D02*
D03*
X0263091Y0021358D02*
D03*
X0261123Y0021358D02*
D03*
X0259154Y0021358D02*
D03*
X0257186Y0021358D02*
D03*
X0255217Y0021358D02*
D03*
X0253249Y0021358D02*
D03*
X0251280Y0021358D02*
D03*
X0249311Y0021358D02*
D03*
X0247343Y0021358D02*
D03*
X0245374Y0021358D02*
D03*
X0243406Y0021358D02*
D03*
X0241437Y0021358D02*
D03*
X0239469Y0021358D02*
D03*
X0237500Y0021358D02*
D03*
X0235532Y0021358D02*
D03*
X0233563Y0021358D02*
D03*
X0231595Y0021358D02*
D03*
X0229626Y0021358D02*
D03*
X0227658Y0021358D02*
D03*
X0225689Y0021358D02*
D03*
X0223721Y0021358D02*
D03*
X0221752Y0021358D02*
D03*
X0219784Y0021358D02*
D03*
X0217815Y0021358D02*
D03*
X0215847Y0021358D02*
D03*
X0213878Y0021358D02*
D03*
X0211910Y0021358D02*
D03*
X0209941Y0021358D02*
D03*
X0207973Y0021358D02*
D03*
X0206004Y0021358D02*
D03*
X0204036Y0021358D02*
D03*
X0204036Y0105020D02*
D03*
X0206004Y0105020D02*
D03*
X0207973Y0105020D02*
D03*
X0209941Y0105020D02*
D03*
X0211910Y0105020D02*
D03*
X0213878Y0105020D02*
D03*
X0215847Y0105020D02*
D03*
X0217815Y0105020D02*
D03*
X0219784Y0105020D02*
D03*
X0221752Y0105020D02*
D03*
X0223721Y0105020D02*
D03*
X0225689Y0105020D02*
D03*
X0227658Y0105020D02*
D03*
X0229626Y0105020D02*
D03*
X0231595Y0105020D02*
D03*
X0233563Y0105020D02*
D03*
X0235532Y0105020D02*
D03*
X0237500Y0105020D02*
D03*
X0239469Y0105020D02*
D03*
X0241437Y0105020D02*
D03*
X0243406Y0105020D02*
D03*
X0245374Y0105020D02*
D03*
X0247343Y0105020D02*
D03*
X0249311Y0105020D02*
D03*
X0251280Y0105020D02*
D03*
X0253249Y0105020D02*
D03*
X0255217Y0105020D02*
D03*
X0257186Y0105020D02*
D03*
X0259154Y0105020D02*
D03*
X0261123Y0105020D02*
D03*
X0263091Y0105020D02*
D03*
X0265060Y0105020D02*
D03*
X0267028Y0105020D02*
D03*
X0268997Y0105020D02*
D03*
X0270965Y0105020D02*
D03*
X0272934Y0105020D02*
D03*
D175*
X0196654Y0028740D02*
D03*
X0196654Y0030709D02*
D03*
X0196654Y0032677D02*
D03*
X0196654Y0034646D02*
D03*
X0196654Y0036614D02*
D03*
X0196654Y0038583D02*
D03*
X0196654Y0040551D02*
D03*
X0196654Y0042520D02*
D03*
X0196654Y0044488D02*
D03*
X0196654Y0046457D02*
D03*
X0196654Y0048425D02*
D03*
X0196654Y0050394D02*
D03*
X0196654Y0052362D02*
D03*
X0196654Y0054331D02*
D03*
X0196654Y0056299D02*
D03*
X0196654Y0058268D02*
D03*
X0196654Y0060236D02*
D03*
X0196654Y0062205D02*
D03*
X0196654Y0064173D02*
D03*
X0196654Y0066142D02*
D03*
X0196654Y0068110D02*
D03*
X0196654Y0070079D02*
D03*
X0196654Y0072047D02*
D03*
X0196654Y0074016D02*
D03*
X0196654Y0075984D02*
D03*
X0196654Y0077953D02*
D03*
X0196654Y0079921D02*
D03*
X0196654Y0081890D02*
D03*
X0196654Y0083858D02*
D03*
X0196654Y0085827D02*
D03*
X0196654Y0087795D02*
D03*
X0196654Y0089764D02*
D03*
X0196654Y0091732D02*
D03*
X0196654Y0093701D02*
D03*
X0196654Y0095669D02*
D03*
X0196654Y0097638D02*
D03*
X0280315Y0097638D02*
D03*
X0280315Y0095669D02*
D03*
X0280315Y0093701D02*
D03*
X0280315Y0091732D02*
D03*
X0280315Y0089764D02*
D03*
X0280315Y0087795D02*
D03*
X0280315Y0085827D02*
D03*
X0280315Y0083858D02*
D03*
X0280315Y0081890D02*
D03*
X0280315Y0079921D02*
D03*
X0280315Y0077953D02*
D03*
X0280315Y0075984D02*
D03*
X0280315Y0074016D02*
D03*
X0280315Y0072047D02*
D03*
X0280315Y0070079D02*
D03*
X0280315Y0068110D02*
D03*
X0280315Y0066142D02*
D03*
X0280315Y0064173D02*
D03*
X0280315Y0062205D02*
D03*
X0280315Y0060236D02*
D03*
X0280315Y0058268D02*
D03*
X0280315Y0056299D02*
D03*
X0280315Y0054331D02*
D03*
X0280315Y0052362D02*
D03*
X0280315Y0050394D02*
D03*
X0280315Y0048425D02*
D03*
X0280315Y0046457D02*
D03*
X0280315Y0044488D02*
D03*
X0280315Y0042520D02*
D03*
X0280315Y0040551D02*
D03*
X0280315Y0038583D02*
D03*
X0280315Y0036614D02*
D03*
X0280315Y0034646D02*
D03*
X0280315Y0032677D02*
D03*
X0280315Y0030709D02*
D03*
X0280315Y0028740D02*
D03*
D453*
X0180309Y0044929D02*
D03*
X0189561Y0041189D02*
D03*
D453*
X0180309Y0037449D02*
D03*
D454*
X0333859Y0047244D02*
D03*
X0315748Y0047244D02*
D03*
D455*
X0324804Y0047244D02*
D03*
D456*
X0324804Y0022835D02*
D03*
D457*
X0303544Y0071260D02*
D03*
X0296851Y0071260D02*
D03*
X0296851Y0064173D02*
D03*
X0303544Y0064173D02*
D03*
X0303544Y0057087D02*
D03*
X0296851Y0057087D02*
D03*
X0296851Y0050000D02*
D03*
X0303544Y0050000D02*
D03*
X0313386Y0078740D02*
D03*
X0320079Y0078740D02*
D03*
X0296851Y0078740D02*
D03*
X0303544Y0078740D02*
D03*
X0313386Y0085827D02*
D03*
X0320079Y0085827D02*
D03*
X0296851Y0085827D02*
D03*
X0303544Y0085827D02*
D03*
X0313386Y0092913D02*
D03*
X0320079Y0092913D02*
D03*
X0296851Y0092913D02*
D03*
X0303544Y0092913D02*
D03*
X0320079Y0100000D02*
D03*
X0313386Y0100000D02*
D03*
X0296851Y0100000D02*
D03*
X0303544Y0100000D02*
D03*
D458*
X0180908Y0020302D02*
D03*
X0184648Y0020302D02*
D03*
X0188389Y0020302D02*
D03*
X0188389Y0029751D02*
D03*
X0184648Y0029751D02*
D03*
X0180908Y0029751D02*
D03*
D182*
X0290591Y0020000D02*
D03*
X0290591Y0025000D02*
D03*
X0295591Y0020000D02*
D03*
X0295591Y0025000D02*
D03*
X0300591Y0020000D02*
D03*
X0300591Y0025000D02*
D03*
D459*
X0336615Y0164961D02*
D03*
X0336615Y0161024D02*
D03*
X0190158Y0151969D02*
D03*
X0190158Y0155906D02*
D03*
X0293701Y0163386D02*
D03*
X0293701Y0167323D02*
D03*
X0279528Y0163386D02*
D03*
X0279528Y0167323D02*
D03*
X0260630Y0159449D02*
D03*
X0260630Y0163386D02*
D03*
X0260630Y0167323D02*
D03*
X0260630Y0163386D02*
D03*
X0251181Y0163386D02*
D03*
X0251181Y0159449D02*
D03*
X0251181Y0163386D02*
D03*
X0251181Y0167323D02*
D03*
X0227559Y0159449D02*
D03*
X0227559Y0163386D02*
D03*
X0203937Y0163386D02*
D03*
X0203937Y0159449D02*
D03*
X0203937Y0163386D02*
D03*
X0203937Y0167323D02*
D03*
X0287303Y0049606D02*
D03*
X0287303Y0045669D02*
D03*
X0199213Y0159843D02*
D03*
X0199213Y0155906D02*
D03*
X0336615Y0144291D02*
D03*
X0336615Y0148228D02*
D03*
X0325197Y0108268D02*
D03*
X0325197Y0104331D02*
D03*
X0180709Y0155906D02*
D03*
X0180709Y0151969D02*
D03*
X0185434Y0155906D02*
D03*
X0185434Y0151969D02*
D03*
X0194882Y0155906D02*
D03*
X0194882Y0151969D02*
D03*
X0331496Y0163386D02*
D03*
X0331496Y0159449D02*
D03*
X0326772Y0163386D02*
D03*
X0326772Y0159449D02*
D03*
X0322048Y0163386D02*
D03*
X0322048Y0159449D02*
D03*
X0317323Y0163386D02*
D03*
X0317323Y0159449D02*
D03*
X0331496Y0163386D02*
D03*
X0331496Y0167323D02*
D03*
X0326772Y0163386D02*
D03*
X0326772Y0167323D02*
D03*
X0322048Y0163386D02*
D03*
X0322048Y0167323D02*
D03*
X0317323Y0163386D02*
D03*
X0317323Y0167323D02*
D03*
X0312599Y0163386D02*
D03*
X0312599Y0159449D02*
D03*
X0307874Y0163386D02*
D03*
X0307874Y0159449D02*
D03*
X0303150Y0163386D02*
D03*
X0303150Y0159449D02*
D03*
X0298308Y0163386D02*
D03*
X0298308Y0159449D02*
D03*
X0312599Y0163386D02*
D03*
X0312599Y0167323D02*
D03*
X0307874Y0163386D02*
D03*
X0307874Y0167323D02*
D03*
X0303150Y0163386D02*
D03*
X0303150Y0167323D02*
D03*
X0298426Y0163386D02*
D03*
X0298426Y0167323D02*
D03*
X0293701Y0163386D02*
D03*
X0293701Y0159449D02*
D03*
X0288977Y0163386D02*
D03*
X0288977Y0159449D02*
D03*
X0284252Y0163386D02*
D03*
X0284252Y0159449D02*
D03*
X0279528Y0163386D02*
D03*
X0279528Y0159449D02*
D03*
X0288977Y0163386D02*
D03*
X0288977Y0167323D02*
D03*
X0284252Y0163386D02*
D03*
X0284252Y0167323D02*
D03*
X0274803Y0159449D02*
D03*
X0274803Y0163386D02*
D03*
X0270079Y0159449D02*
D03*
X0270079Y0163386D02*
D03*
X0265355Y0159449D02*
D03*
X0265355Y0163386D02*
D03*
X0274803Y0167323D02*
D03*
X0274803Y0163386D02*
D03*
X0270079Y0167323D02*
D03*
X0270079Y0163386D02*
D03*
X0265355Y0167323D02*
D03*
X0265355Y0163386D02*
D03*
X0255906Y0163386D02*
D03*
X0255906Y0159449D02*
D03*
X0246457Y0163386D02*
D03*
X0246457Y0159449D02*
D03*
X0241733Y0163386D02*
D03*
X0241733Y0159449D02*
D03*
X0255906Y0163386D02*
D03*
X0255906Y0167323D02*
D03*
X0246457Y0163386D02*
D03*
X0246457Y0167323D02*
D03*
X0241733Y0163386D02*
D03*
X0241733Y0167323D02*
D03*
X0237008Y0159449D02*
D03*
X0237008Y0163386D02*
D03*
X0232284Y0159449D02*
D03*
X0232284Y0163386D02*
D03*
X0222835Y0159449D02*
D03*
X0222835Y0163386D02*
D03*
X0237008Y0167323D02*
D03*
X0237008Y0163386D02*
D03*
X0232284Y0167323D02*
D03*
X0232284Y0163386D02*
D03*
X0227559Y0167323D02*
D03*
X0227559Y0163386D02*
D03*
X0222835Y0167323D02*
D03*
X0222835Y0163386D02*
D03*
X0218111Y0163386D02*
D03*
X0218111Y0159449D02*
D03*
X0213386Y0163386D02*
D03*
X0213386Y0159449D02*
D03*
X0208662Y0163386D02*
D03*
X0208662Y0159449D02*
D03*
X0218111Y0163386D02*
D03*
X0218111Y0167323D02*
D03*
X0213386Y0163386D02*
D03*
X0213386Y0167323D02*
D03*
X0208662Y0163386D02*
D03*
X0208662Y0167323D02*
D03*
X0194882Y0159449D02*
D03*
X0194882Y0163386D02*
D03*
X0190158Y0159449D02*
D03*
X0190158Y0163386D02*
D03*
X0185434Y0159449D02*
D03*
X0185434Y0163386D02*
D03*
X0180709Y0159449D02*
D03*
X0180709Y0163386D02*
D03*
X0194882Y0167323D02*
D03*
X0194882Y0163386D02*
D03*
X0190158Y0167323D02*
D03*
X0190158Y0163386D02*
D03*
X0185434Y0167323D02*
D03*
X0185434Y0163386D02*
D03*
X0180709Y0167323D02*
D03*
X0180709Y0163386D02*
D03*
X0336615Y0153347D02*
D03*
X0336615Y0157284D02*
D03*
X0301182Y0040551D02*
D03*
X0301182Y0036614D02*
D03*
D460*
X0281890Y0146654D02*
D03*
X0281890Y0150394D02*
D03*
X0281890Y0154134D02*
D03*
X0291339Y0154134D02*
D03*
X0291339Y0150394D02*
D03*
X0291339Y0146654D02*
D03*
X0319685Y0146654D02*
D03*
X0319685Y0150394D02*
D03*
X0319685Y0154134D02*
D03*
X0329134Y0154134D02*
D03*
X0329134Y0150394D02*
D03*
X0329134Y0146654D02*
D03*
X0300788Y0146654D02*
D03*
X0300788Y0150394D02*
D03*
X0300788Y0154134D02*
D03*
X0310237Y0154134D02*
D03*
X0310237Y0150394D02*
D03*
X0310237Y0146654D02*
D03*
X0262992Y0146654D02*
D03*
X0262992Y0150394D02*
D03*
X0262992Y0154134D02*
D03*
X0272441Y0154134D02*
D03*
X0272441Y0150394D02*
D03*
X0272441Y0146654D02*
D03*
X0244095Y0146654D02*
D03*
X0244095Y0150394D02*
D03*
X0244095Y0154134D02*
D03*
X0253544Y0154134D02*
D03*
X0253544Y0150394D02*
D03*
X0253544Y0146654D02*
D03*
X0225197Y0146654D02*
D03*
X0225197Y0150394D02*
D03*
X0225197Y0154134D02*
D03*
X0234646Y0154134D02*
D03*
X0234646Y0150394D02*
D03*
X0234646Y0146654D02*
D03*
X0206300Y0146654D02*
D03*
X0206300Y0150394D02*
D03*
X0206300Y0154134D02*
D03*
X0215748Y0154134D02*
D03*
X0215748Y0150394D02*
D03*
X0215748Y0146654D02*
D03*
D461*
X0184646Y0116536D02*
D03*
X0184646Y0098819D02*
D03*
D186*
X0198937Y0167323D02*
D03*
X0336615Y0169291D02*
D03*
D462*
X0330315Y0093799D02*
D03*
X0337402Y0093799D02*
D03*
X0337402Y0103839D02*
D03*
X0330315Y0103839D02*
D03*
X0330315Y0087697D02*
D03*
X0337402Y0087697D02*
D03*
X0337402Y0077657D02*
D03*
X0330315Y0077657D02*
D03*
D463*
X0337402Y0100394D02*
D03*
X0337402Y0097244D02*
D03*
X0330315Y0097244D02*
D03*
X0330315Y0100394D02*
D03*
X0330315Y0084252D02*
D03*
X0330315Y0081102D02*
D03*
X0337402Y0081102D02*
D03*
X0337402Y0084252D02*
D03*
D464*
X0182678Y0050788D02*
D03*
X0182678Y0067323D02*
D03*
X0182678Y0090157D02*
D03*
X0182678Y0073622D02*
D03*
D190*
X0195473Y0117323D02*
D03*
X0198032Y0117323D02*
D03*
X0200591Y0117323D02*
D03*
X0203150Y0117323D02*
D03*
X0205709Y0117323D02*
D03*
X0208268Y0117323D02*
D03*
X0210827Y0117323D02*
D03*
X0195473Y0139764D02*
D03*
X0198032Y0139764D02*
D03*
X0200591Y0139764D02*
D03*
X0203150Y0139764D02*
D03*
X0205709Y0139764D02*
D03*
X0208268Y0139764D02*
D03*
X0210827Y0139764D02*
D03*
X0263977Y0117323D02*
D03*
X0266536Y0117323D02*
D03*
X0269095Y0117323D02*
D03*
X0271654Y0117323D02*
D03*
X0274213Y0117323D02*
D03*
X0276772Y0117323D02*
D03*
X0279331Y0117323D02*
D03*
X0263977Y0139764D02*
D03*
X0266536Y0139764D02*
D03*
X0269095Y0139764D02*
D03*
X0271654Y0139764D02*
D03*
X0274213Y0139764D02*
D03*
X0276772Y0139764D02*
D03*
X0279331Y0139764D02*
D03*
X0241142Y0117323D02*
D03*
X0243701Y0117323D02*
D03*
X0246260Y0117323D02*
D03*
X0248819Y0117323D02*
D03*
X0251378Y0117323D02*
D03*
X0253937Y0117323D02*
D03*
X0256496Y0117323D02*
D03*
X0241142Y0139764D02*
D03*
X0243701Y0139764D02*
D03*
X0246260Y0139764D02*
D03*
X0248819Y0139764D02*
D03*
X0251378Y0139764D02*
D03*
X0253937Y0139764D02*
D03*
X0256496Y0139764D02*
D03*
X0218308Y0117323D02*
D03*
X0220867Y0117323D02*
D03*
X0223426Y0117323D02*
D03*
X0225985Y0117323D02*
D03*
X0228544Y0117323D02*
D03*
X0231103Y0117323D02*
D03*
X0233662Y0117323D02*
D03*
X0218308Y0139764D02*
D03*
X0220867Y0139764D02*
D03*
X0223426Y0139764D02*
D03*
X0225985Y0139764D02*
D03*
X0228544Y0139764D02*
D03*
X0231103Y0139764D02*
D03*
X0233662Y0139764D02*
D03*
D191*
X0285630Y0128740D02*
D03*
X0285630Y0126181D02*
D03*
X0285630Y0123622D02*
D03*
X0285630Y0121063D02*
D03*
X0285630Y0118504D02*
D03*
X0285630Y0115945D02*
D03*
X0285630Y0113386D02*
D03*
X0308071Y0128740D02*
D03*
X0308071Y0126181D02*
D03*
X0308071Y0123622D02*
D03*
X0308071Y0121063D02*
D03*
X0308071Y0118504D02*
D03*
X0308071Y0115945D02*
D03*
X0308071Y0113386D02*
D03*
X0313583Y0128740D02*
D03*
X0313583Y0126181D02*
D03*
X0313583Y0123622D02*
D03*
X0313583Y0121063D02*
D03*
X0313583Y0118504D02*
D03*
X0313583Y0115945D02*
D03*
X0313583Y0113386D02*
D03*
X0336024Y0128740D02*
D03*
X0336024Y0126181D02*
D03*
X0336024Y0123622D02*
D03*
X0336024Y0121063D02*
D03*
X0336024Y0118504D02*
D03*
X0336024Y0115945D02*
D03*
X0336024Y0113386D02*
D03*
D465*
X0302953Y0140354D02*
D03*
X0302953Y0137795D02*
D03*
X0302953Y0135236D02*
D03*
X0310433Y0140354D02*
D03*
X0310433Y0137795D02*
D03*
X0310433Y0135236D02*
D03*
X0323032Y0135236D02*
D03*
X0323032Y0137795D02*
D03*
X0323032Y0140354D02*
D03*
X0315552Y0135236D02*
D03*
X0315552Y0137795D02*
D03*
X0315552Y0140354D02*
D03*
X0327756Y0140354D02*
D03*
X0327756Y0137795D02*
D03*
X0327756Y0135236D02*
D03*
X0335237Y0140354D02*
D03*
X0335237Y0137795D02*
D03*
X0335237Y0135236D02*
D03*
X0298229Y0135236D02*
D03*
X0298229Y0137795D02*
D03*
X0298229Y0140354D02*
D03*
X0290748Y0135236D02*
D03*
X0290748Y0137795D02*
D03*
X0290748Y0140354D02*
D03*
D193*
X0334646Y0055884D02*
D03*
X0334646Y0060884D02*
D03*
X0334646Y0065884D02*
D03*
X0334646Y0070884D02*
D03*
X0315748Y0055884D02*
D03*
X0315748Y0060884D02*
D03*
X0315748Y0065884D02*
D03*
X0315748Y0070884D02*
D03*
D466*
X0181693Y0123425D02*
D03*
X0184252Y0123425D02*
D03*
X0186811Y0123425D02*
D03*
X0181693Y0130906D02*
D03*
X0184252Y0130906D02*
D03*
X0186811Y0130906D02*
D03*
X0181693Y0138780D02*
D03*
X0184252Y0138780D02*
D03*
X0186811Y0138780D02*
D03*
X0181693Y0146260D02*
D03*
X0184252Y0146260D02*
D03*
X0186811Y0146260D02*
D03*
D195*
X0295522Y0039764D02*
D03*
X0295522Y0037795D02*
D03*
X0295522Y0035827D02*
D03*
X0289518Y0035827D02*
D03*
X0289518Y0037795D02*
D03*
X0289518Y0039764D02*
D03*
D196*
X0293504Y0034793D02*
D03*
X0291536Y0034793D02*
D03*
X0291536Y0040797D02*
D03*
X0293504Y0040797D02*
D03*
D467*
X0306398Y0041732D02*
D03*
X0306398Y0035039D02*
D03*
D468*
X0297638Y0106693D02*
D03*
X0301575Y0106693D02*
D03*
D199*
X0285591Y0022500D02*
D03*
X0305591Y0026500D02*
D03*
X0305591Y0018500D02*
D03*
D64*
X0247244Y0111024D02*
D03*
X0200000Y0106693D02*
D03*
X0205118Y0111417D02*
D03*
X0216930Y0111417D02*
D03*
X0228347Y0111417D02*
D03*
X0264567Y0111417D02*
D03*
X0281497Y0110236D02*
D03*
D33*
X0337008Y0018898D02*
D03*
X0169488Y0117224D02*
G01*
G75*
D140*
X0166634Y0116140D02*
D03*
X0162008Y0116140D02*
D03*
X0138878Y0116140D02*
D03*
X0141870Y0116140D02*
D03*
X0146496Y0116140D02*
D03*
X0157382Y0116140D02*
D03*
X0151122Y0116140D02*
D03*
X0154429Y0116140D02*
D03*
D141*
X0142145Y0098523D02*
D03*
X0142145Y0095964D02*
D03*
X0142145Y0093405D02*
D03*
X0142145Y0090846D02*
D03*
X0142145Y0088287D02*
D03*
X0142145Y0085728D02*
D03*
X0142145Y0083169D02*
D03*
X0142145Y0080610D02*
D03*
X0142145Y0078051D02*
D03*
X0142145Y0075492D02*
D03*
X0142145Y0072933D02*
D03*
X0142145Y0070374D02*
D03*
X0165138Y0098523D02*
D03*
X0165138Y0095964D02*
D03*
X0165138Y0093405D02*
D03*
X0165138Y0090846D02*
D03*
X0165138Y0088287D02*
D03*
X0165138Y0085728D02*
D03*
X0165138Y0083169D02*
D03*
X0165138Y0080610D02*
D03*
X0165138Y0078051D02*
D03*
X0165138Y0075492D02*
D03*
X0165138Y0072933D02*
D03*
X0165138Y0070374D02*
D03*
D295*
X0165118Y0066437D02*
D03*
X0158897Y0066437D02*
D03*
X0148366Y0066437D02*
D03*
X0154587Y0066437D02*
D03*
D360*
X0146358Y0103641D02*
D03*
X0140059Y0103641D02*
D03*
X0159350Y0104035D02*
D03*
X0153051Y0104035D02*
D03*
D361*
X0151275Y0114665D02*
D03*
X0151275Y0108366D02*
D03*
X0157598Y0108366D02*
D03*
X0157598Y0114665D02*
D03*
X0162224Y0114665D02*
D03*
X0162224Y0108366D02*
D03*
X0142047Y0108464D02*
D03*
X0142047Y0114763D02*
D03*
X0166850Y0108366D02*
D03*
X0166850Y0114665D02*
D03*
X0146653Y0108366D02*
D03*
X0146653Y0114665D02*
D03*
D119*
X0162894Y0067716D02*
D03*
X0146850Y0068897D02*
D03*
X0139567Y0095964D02*
D03*
X0144724Y0093405D02*
D03*
X0146496Y0087007D02*
D03*
X0139567Y0088287D02*
D03*
X0146791Y0083661D02*
D03*
X0147638Y0080216D02*
D03*
X0139567Y0078051D02*
D03*
X0146791Y0076378D02*
D03*
X0116142Y0223179D02*
%LPD*%
G01*
G36*
G01*
X0170236Y0239006D02*
X0170236Y0237667D01*
G75*
G02*
X0169685Y0237116I-000551J0000000D01*
G01*
X0168583Y0237116D01*
G75*
G02*
X0168032Y0237667I0000000J0000551D01*
G01*
X0168032Y0239006D01*
G75*
G02*
X0168583Y0239557I0000551J0000000D01*
G01*
X0169685Y0239557D01*
G75*
G02*
X0170236Y0239006I0000000J-000551D01*
G01*
G37*
G36*
G01*
X0174016Y0239006D02*
X0174016Y0237667D01*
G75*
G02*
X0173465Y0237116I-000551J0000000D01*
G01*
X0172362Y0237116D01*
G75*
G02*
X0171811Y0237667I0000000J0000551D01*
G01*
X0171811Y0239006D01*
G75*
G02*
X0172362Y0239557I0000551J0000000D01*
G01*
X0173465Y0239557D01*
G75*
G02*
X0174016Y0239006I0000000J-000551D01*
G01*
G37*
G36*
G01*
X0143740Y0253770D02*
X0142402Y0253770D01*
G75*
G02*
X0141851Y0254321I0000000J0000551D01*
G01*
X0141851Y0255423D01*
G75*
G02*
X0142402Y0255974I0000551J0000000D01*
G01*
X0143740Y0255974D01*
G75*
G02*
X0144292Y0255423I0000000J-000551D01*
G01*
X0144292Y0254321D01*
G75*
G02*
X0143740Y0253770I-000551J0000000D01*
G01*
G37*
G36*
G01*
X0143740Y0249990D02*
X0142402Y0249990D01*
G75*
G02*
X0141851Y0250541I0000000J0000551D01*
G01*
X0141851Y0251644D01*
G75*
G02*
X0142402Y0252195I0000551J0000000D01*
G01*
X0143740Y0252195D01*
G75*
G02*
X0144292Y0251644I0000000J-000551D01*
G01*
X0144292Y0250541D01*
G75*
G02*
X0143740Y0249990I-000551J0000000D01*
G01*
G37*
G36*
G01*
X0156831Y0225108D02*
X0155374Y0225108D01*
G75*
G02*
X0154843Y0225640I0000000J0000531D01*
G01*
X0154843Y0226703D01*
G75*
G02*
X0155374Y0227234I0000531J0000000D01*
G01*
X0156831Y0227234D01*
G75*
G02*
X0157362Y0226703I0000000J-000531D01*
G01*
X0157362Y0225640D01*
G75*
G02*
X0156831Y0225108I-000531J0000000D01*
G01*
G37*
G36*
G01*
X0156831Y0229124D02*
X0155374Y0229124D01*
G75*
G02*
X0154843Y0229655I0000000J0000531D01*
G01*
X0154843Y0230718D01*
G75*
G02*
X0155374Y0231250I0000531J0000000D01*
G01*
X0156831Y0231250D01*
G75*
G02*
X0157362Y0230718I0000000J-000531D01*
G01*
X0157362Y0229655D01*
G75*
G02*
X0156831Y0229124I-000531J0000000D01*
G01*
G37*
G36*
G01*
X0145859Y0257451D02*
X0145859Y0258632D01*
G75*
G02*
X0146449Y0259222I0000591J0000000D01*
G01*
X0152945Y0259222D01*
G75*
G02*
X0153536Y0258632I0000000J-000591D01*
G01*
X0153536Y0257451D01*
G75*
G02*
X0152945Y0256860I-000591J0000000D01*
G01*
X0146449Y0256860D01*
G75*
G02*
X0145859Y0257451I0000000J0000591D01*
G01*
G37*
G36*
G01*
X0145859Y0252451D02*
X0145859Y0253632D01*
G75*
G02*
X0146449Y0254222I0000591J0000000D01*
G01*
X0152945Y0254222D01*
G75*
G02*
X0153536Y0253632I0000000J-000591D01*
G01*
X0153536Y0252451D01*
G75*
G02*
X0152945Y0251860I-000591J0000000D01*
G01*
X0146449Y0251860D01*
G75*
G02*
X0145859Y0252451I0000000J0000591D01*
G01*
G37*
G36*
G01*
X0145859Y0247451D02*
X0145859Y0248632D01*
G75*
G02*
X0146449Y0249222I0000591J0000000D01*
G01*
X0152945Y0249222D01*
G75*
G02*
X0153536Y0248632I0000000J-000591D01*
G01*
X0153536Y0247451D01*
G75*
G02*
X0152945Y0246860I-000591J0000000D01*
G01*
X0146449Y0246860D01*
G75*
G02*
X0145859Y0247451I0000000J0000591D01*
G01*
G37*
G36*
G01*
X0145859Y0242451D02*
X0145859Y0243632D01*
G75*
G02*
X0146449Y0244222I0000591J0000000D01*
G01*
X0152945Y0244222D01*
G75*
G02*
X0153536Y0243632I0000000J-000591D01*
G01*
X0153536Y0242451D01*
G75*
G02*
X0152945Y0241860I-000591J0000000D01*
G01*
X0146449Y0241860D01*
G75*
G02*
X0145859Y0242451I0000000J0000591D01*
G01*
G37*
G36*
G01*
X0165347Y0242451D02*
X0165347Y0243632D01*
G75*
G02*
X0165937Y0244222I0000591J0000000D01*
G01*
X0172433Y0244222D01*
G75*
G02*
X0173024Y0243632I0000000J-000591D01*
G01*
X0173024Y0242451D01*
G75*
G02*
X0172433Y0241860I-000591J0000000D01*
G01*
X0165937Y0241860D01*
G75*
G02*
X0165347Y0242451I0000000J0000591D01*
G01*
G37*
G36*
G01*
X0165347Y0247451D02*
X0165347Y0248632D01*
G75*
G02*
X0165937Y0249222I0000591J0000000D01*
G01*
X0172433Y0249222D01*
G75*
G02*
X0173024Y0248632I0000000J-000591D01*
G01*
X0173024Y0247451D01*
G75*
G02*
X0172433Y0246860I-000591J0000000D01*
G01*
X0165937Y0246860D01*
G75*
G02*
X0165347Y0247451I0000000J0000591D01*
G01*
G37*
G36*
G01*
X0165347Y0252451D02*
X0165347Y0253632D01*
G75*
G02*
X0165937Y0254222I0000591J0000000D01*
G01*
X0172433Y0254222D01*
G75*
G02*
X0173024Y0253632I0000000J-000591D01*
G01*
X0173024Y0252451D01*
G75*
G02*
X0172433Y0251860I-000591J0000000D01*
G01*
X0165937Y0251860D01*
G75*
G02*
X0165347Y0252451I0000000J0000591D01*
G01*
G37*
G36*
G01*
X0165347Y0257451D02*
X0165347Y0258632D01*
G75*
G02*
X0165937Y0259222I0000591J0000000D01*
G01*
X0172433Y0259222D01*
G75*
G02*
X0173024Y0258632I0000000J-000591D01*
G01*
X0173024Y0257451D01*
G75*
G02*
X0172433Y0256860I-000591J0000000D01*
G01*
X0165937Y0256860D01*
G75*
G02*
X0165347Y0257451I0000000J0000591D01*
G01*
G37*
D144*
X0131339Y0258179D03*
X0131339Y0255620D03*
X0131339Y0253061D03*
X0138819Y0253061D03*
X0138819Y0255620D03*
X0138819Y0258179D03*
D10*
X0174410Y0250344D03*
X0174410Y0245620D03*
X0174410Y0255069D03*
X0174410Y0259793D03*
X0117618Y0234360D03*
X0117618Y0230423D03*
G36*
G01*
X0147500Y0239091D02*
X0148957Y0239091D01*
G75*
G02*
X0149488Y0238559I0000000J-000531D01*
G01*
X0149488Y0237496D01*
G75*
G02*
X0148957Y0236965I-000531J0000000D01*
G01*
X0147500Y0236965D01*
G75*
G02*
X0146969Y0237496I0000000J0000531D01*
G01*
X0146969Y0238559D01*
G75*
G02*
X0147500Y0239091I0000531J0000000D01*
G01*
G37*
G36*
G01*
X0147500Y0235075D02*
X0148957Y0235075D01*
G75*
G02*
X0149488Y0234544I0000000J-000531D01*
G01*
X0149488Y0233481D01*
G75*
G02*
X0148957Y0232949I-000531J0000000D01*
G01*
X0147500Y0232949D01*
G75*
G02*
X0146969Y0233481I0000000J0000531D01*
G01*
X0146969Y0234544D01*
G75*
G02*
X0147500Y0235075I0000531J0000000D01*
G01*
G37*
G36*
G01*
X0152835Y0233028D02*
X0151496Y0233028D01*
G75*
G02*
X0150945Y0233579I0000000J0000551D01*
G01*
X0150945Y0234681D01*
G75*
G02*
X0151496Y0235233I0000551J0000000D01*
G01*
X0152835Y0235233D01*
G75*
G02*
X0153386Y0234681I0000000J-000551D01*
G01*
X0153386Y0233579D01*
G75*
G02*
X0152835Y0233028I-000551J0000000D01*
G01*
G37*
G36*
G01*
X0152835Y0236807D02*
X0151496Y0236807D01*
G75*
G02*
X0150945Y0237359I0000000J0000551D01*
G01*
X0150945Y0238461D01*
G75*
G02*
X0151496Y0239012I0000551J0000000D01*
G01*
X0152835Y0239012D01*
G75*
G02*
X0153386Y0238461I0000000J-000551D01*
G01*
X0153386Y0237359D01*
G75*
G02*
X0152835Y0236807I-000551J0000000D01*
G01*
G37*
G36*
G01*
X0148957Y0225108D02*
X0147500Y0225108D01*
G75*
G02*
X0146969Y0225640I0000000J0000531D01*
G01*
X0146969Y0226703D01*
G75*
G02*
X0147500Y0227234I0000531J0000000D01*
G01*
X0148957Y0227234D01*
G75*
G02*
X0149488Y0226703I0000000J-000531D01*
G01*
X0149488Y0225640D01*
G75*
G02*
X0148957Y0225108I-000531J0000000D01*
G01*
G37*
G36*
G01*
X0148957Y0229124D02*
X0147500Y0229124D01*
G75*
G02*
X0146969Y0229655I0000000J0000531D01*
G01*
X0146969Y0230718D01*
G75*
G02*
X0147500Y0231250I0000531J0000000D01*
G01*
X0148957Y0231250D01*
G75*
G02*
X0149488Y0230718I0000000J-000531D01*
G01*
X0149488Y0229655D01*
G75*
G02*
X0148957Y0229124I-000531J0000000D01*
G01*
G37*
G36*
G01*
X0160551Y0231171D02*
X0161890Y0231171D01*
G75*
G02*
X0162441Y0230620I0000000J-000551D01*
G01*
X0162441Y0229518D01*
G75*
G02*
X0161890Y0228966I-000551J0000000D01*
G01*
X0160551Y0228966D01*
G75*
G02*
X0160000Y0229518I0000000J0000551D01*
G01*
X0160000Y0230620D01*
G75*
G02*
X0160551Y0231171I0000551J0000000D01*
G01*
G37*
G36*
G01*
X0160551Y0227392D02*
X0161890Y0227392D01*
G75*
G02*
X0162441Y0226840I0000000J-000551D01*
G01*
X0162441Y0225738D01*
G75*
G02*
X0161890Y0225187I-000551J0000000D01*
G01*
X0160551Y0225187D01*
G75*
G02*
X0160000Y0225738I0000000J0000551D01*
G01*
X0160000Y0226840D01*
G75*
G02*
X0160551Y0227392I0000551J0000000D01*
G01*
G37*
G36*
G01*
X0137422Y0235029D02*
X0138760Y0235029D01*
G75*
G02*
X0139311Y0234478I0000000J-000551D01*
G01*
X0139311Y0233376D01*
G75*
G02*
X0138760Y0232825I-000551J0000000D01*
G01*
X0137422Y0232825D01*
G75*
G02*
X0136870Y0233376I0000000J0000551D01*
G01*
X0136870Y0234478D01*
G75*
G02*
X0137422Y0235029I0000551J0000000D01*
G01*
G37*
G36*
G01*
X0137422Y0231250D02*
X0138760Y0231250D01*
G75*
G02*
X0139311Y0230699I0000000J-000551D01*
G01*
X0139311Y0229596D01*
G75*
G02*
X0138760Y0229045I-000551J0000000D01*
G01*
X0137422Y0229045D01*
G75*
G02*
X0136870Y0229596I0000000J0000551D01*
G01*
X0136870Y0230699D01*
G75*
G02*
X0137422Y0231250I0000551J0000000D01*
G01*
G37*
G36*
G01*
X0143012Y0238277D02*
X0143012Y0236821D01*
G75*
G02*
X0142481Y0236289I-000531J0000000D01*
G01*
X0141418Y0236289D01*
G75*
G02*
X0140886Y0236821I0000000J0000531D01*
G01*
X0140886Y0238277D01*
G75*
G02*
X0141418Y0238809I0000531J0000000D01*
G01*
X0142481Y0238809D01*
G75*
G02*
X0143012Y0238277I0000000J-000531D01*
G01*
G37*
G36*
G01*
X0138996Y0238277D02*
X0138996Y0236821D01*
G75*
G02*
X0138465Y0236289I-000531J0000000D01*
G01*
X0137402Y0236289D01*
G75*
G02*
X0136870Y0236821I0000000J0000531D01*
G01*
X0136870Y0238277D01*
G75*
G02*
X0137402Y0238809I0000531J0000000D01*
G01*
X0138465Y0238809D01*
G75*
G02*
X0138996Y0238277I0000000J-000531D01*
G01*
G37*
G36*
G01*
X0119587Y0245989D02*
X0119587Y0248007D01*
G75*
G02*
X0120448Y0248868I0000861J0000000D01*
G01*
X0122171Y0248868D01*
G75*
G02*
X0123032Y0248007I0000000J-000861D01*
G01*
X0123032Y0245989D01*
G75*
G02*
X0122171Y0245128I-000861J0000000D01*
G01*
X0120448Y0245128D01*
G75*
G02*
X0119587Y0245989I0000000J0000861D01*
G01*
G37*
G36*
G01*
X0125788Y0245989D02*
X0125788Y0248007D01*
G75*
G02*
X0126649Y0248868I0000861J0000000D01*
G01*
X0128371Y0248868D01*
G75*
G02*
X0129233Y0248007I0000000J-000861D01*
G01*
X0129233Y0245989D01*
G75*
G02*
X0128371Y0245128I-000861J0000000D01*
G01*
X0126649Y0245128D01*
G75*
G02*
X0125788Y0245989I0000000J0000861D01*
G01*
G37*
G36*
G01*
X0126103Y0252844D02*
X0126103Y0251388D01*
G75*
G02*
X0125571Y0250856I-000531J0000000D01*
G01*
X0124508Y0250856D01*
G75*
G02*
X0123977Y0251388I0000000J0000531D01*
G01*
X0123977Y0252844D01*
G75*
G02*
X0124508Y0253376I0000531J0000000D01*
G01*
X0125571Y0253376D01*
G75*
G02*
X0126103Y0252844I0000000J-000531D01*
G01*
G37*
G36*
G01*
X0122087Y0252844D02*
X0122087Y0251388D01*
G75*
G02*
X0121555Y0250856I-000531J0000000D01*
G01*
X0120492Y0250856D01*
G75*
G02*
X0119961Y0251388I0000000J0000531D01*
G01*
X0119961Y0252844D01*
G75*
G02*
X0120492Y0253376I0000531J0000000D01*
G01*
X0121555Y0253376D01*
G75*
G02*
X0122087Y0252844I0000000J-000531D01*
G01*
G37*
G36*
G01*
X0136870Y0240758D02*
X0136870Y0242214D01*
G75*
G02*
X0137402Y0242746I0000531J0000000D01*
G01*
X0138465Y0242746D01*
G75*
G02*
X0138996Y0242214I0000000J-000531D01*
G01*
X0138996Y0240758D01*
G75*
G02*
X0138465Y0240226I-000531J0000000D01*
G01*
X0137402Y0240226D01*
G75*
G02*
X0136870Y0240758I0000000J0000531D01*
G01*
G37*
G36*
G01*
X0140886Y0240758D02*
X0140886Y0242214D01*
G75*
G02*
X0141418Y0242746I0000531J0000000D01*
G01*
X0142481Y0242746D01*
G75*
G02*
X0143012Y0242214I0000000J-000531D01*
G01*
X0143012Y0240758D01*
G75*
G02*
X0142481Y0240226I-000531J0000000D01*
G01*
X0141418Y0240226D01*
G75*
G02*
X0140886Y0240758I0000000J0000531D01*
G01*
G37*
G36*
G01*
X0142185Y0234967D02*
X0143642Y0234967D01*
G75*
G02*
X0144173Y0234436I0000000J-000531D01*
G01*
X0144173Y0233373D01*
G75*
G02*
X0143642Y0232841I-000531J0000000D01*
G01*
X0142185Y0232841D01*
G75*
G02*
X0141654Y0233373I0000000J0000531D01*
G01*
X0141654Y0234436D01*
G75*
G02*
X0142185Y0234967I0000531J0000000D01*
G01*
G37*
G36*
G01*
X0142185Y0230951D02*
X0143642Y0230951D01*
G75*
G02*
X0144173Y0230420I0000000J-000531D01*
G01*
X0144173Y0229357D01*
G75*
G02*
X0143642Y0228826I-000531J0000000D01*
G01*
X0142185Y0228826D01*
G75*
G02*
X0141654Y0229357I0000000J0000531D01*
G01*
X0141654Y0230420D01*
G75*
G02*
X0142185Y0230951I0000531J0000000D01*
G01*
G37*
G36*
G01*
X0124843Y0241565D02*
X0124843Y0240226D01*
G75*
G02*
X0124292Y0239675I-000551J0000000D01*
G01*
X0123189Y0239675D01*
G75*
G02*
X0122638Y0240226I0000000J0000551D01*
G01*
X0122638Y0241565D01*
G75*
G02*
X0123189Y0242116I0000551J0000000D01*
G01*
X0124292Y0242116D01*
G75*
G02*
X0124843Y0241565I0000000J-000551D01*
G01*
G37*
G36*
G01*
X0121063Y0241565D02*
X0121063Y0240226D01*
G75*
G02*
X0120512Y0239675I-000551J0000000D01*
G01*
X0119410Y0239675D01*
G75*
G02*
X0118859Y0240226I0000000J0000551D01*
G01*
X0118859Y0241565D01*
G75*
G02*
X0119410Y0242116I0000551J0000000D01*
G01*
X0120512Y0242116D01*
G75*
G02*
X0121063Y0241565I0000000J-000551D01*
G01*
G37*
G36*
G01*
X0161890Y0233028D02*
X0160551Y0233028D01*
G75*
G02*
X0160000Y0233579I0000000J0000551D01*
G01*
X0160000Y0234681D01*
G75*
G02*
X0160551Y0235233I0000551J0000000D01*
G01*
X0161890Y0235233D01*
G75*
G02*
X0162441Y0234681I0000000J-000551D01*
G01*
X0162441Y0233579D01*
G75*
G02*
X0161890Y0233028I-000551J0000000D01*
G01*
G37*
G36*
G01*
X0161890Y0236807D02*
X0160551Y0236807D01*
G75*
G02*
X0160000Y0237359I0000000J0000551D01*
G01*
X0160000Y0238461D01*
G75*
G02*
X0160551Y0239012I0000551J0000000D01*
G01*
X0161890Y0239012D01*
G75*
G02*
X0162441Y0238461I0000000J-000551D01*
G01*
X0162441Y0237359D01*
G75*
G02*
X0161890Y0236807I-000551J0000000D01*
G01*
G37*
G36*
G01*
X0136870Y0225502D02*
X0136870Y0226959D01*
G75*
G02*
X0137402Y0227490I0000531J0000000D01*
G01*
X0138465Y0227490D01*
G75*
G02*
X0138996Y0226959I0000000J-000531D01*
G01*
X0138996Y0225502D01*
G75*
G02*
X0138465Y0224970I-000531J0000000D01*
G01*
X0137402Y0224970D01*
G75*
G02*
X0136870Y0225502I0000000J0000531D01*
G01*
G37*
G36*
G01*
X0140886Y0225502D02*
X0140886Y0226959D01*
G75*
G02*
X0141418Y0227490I0000531J0000000D01*
G01*
X0142481Y0227490D01*
G75*
G02*
X0143012Y0226959I0000000J-000531D01*
G01*
X0143012Y0225502D01*
G75*
G02*
X0142481Y0224970I-000531J0000000D01*
G01*
X0141418Y0224970D01*
G75*
G02*
X0140886Y0225502I0000000J0000531D01*
G01*
G37*
D145*
X0166129Y0226722D03*
X0168688Y0226722D03*
X0171247Y0226722D03*
X0171247Y0234203D03*
X0168688Y0234203D03*
X0166129Y0234203D03*
G36*
G01*
X0120180Y0235508D02*
X0120180Y0236689D01*
G75*
G02*
X0120771Y0237280I0000591J0000000D01*
G01*
X0124806Y0237280D01*
G75*
G02*
X0125397Y0236689I0000000J-000591D01*
G01*
X0125397Y0235508D01*
G75*
G02*
X0124806Y0234918I-000591J0000000D01*
G01*
X0120771Y0234918D01*
G75*
G02*
X0120180Y0235508I0000000J0000591D01*
G01*
G37*
G36*
G01*
X0120180Y0231768D02*
X0120180Y0232949D01*
G75*
G02*
X0120771Y0233540I0000591J0000000D01*
G01*
X0124806Y0233540D01*
G75*
G02*
X0125397Y0232949I0000000J-000591D01*
G01*
X0125397Y0231768D01*
G75*
G02*
X0124806Y0231177I-000591J0000000D01*
G01*
X0120771Y0231177D01*
G75*
G02*
X0120180Y0231768I0000000J0000591D01*
G01*
G37*
G36*
G01*
X0120180Y0228028D02*
X0120180Y0229209D01*
G75*
G02*
X0120771Y0229799I0000591J0000000D01*
G01*
X0124806Y0229799D01*
G75*
G02*
X0125397Y0229209I0000000J-000591D01*
G01*
X0125397Y0228028D01*
G75*
G02*
X0124806Y0227437I-000591J0000000D01*
G01*
X0120771Y0227437D01*
G75*
G02*
X0120180Y0228028I0000000J0000591D01*
G01*
G37*
G36*
G01*
X0129137Y0228028D02*
X0129137Y0229209D01*
G75*
G02*
X0129727Y0229799I0000591J0000000D01*
G01*
X0133763Y0229799D01*
G75*
G02*
X0134353Y0229209I0000000J-000591D01*
G01*
X0134353Y0228028D01*
G75*
G02*
X0133763Y0227437I-000591J0000000D01*
G01*
X0129727Y0227437D01*
G75*
G02*
X0129137Y0228028I0000000J0000591D01*
G01*
G37*
G36*
G01*
X0129137Y0231768D02*
X0129137Y0232949D01*
G75*
G02*
X0129727Y0233540I0000591J0000000D01*
G01*
X0133763Y0233540D01*
G75*
G02*
X0134353Y0232949I0000000J-000591D01*
G01*
X0134353Y0231768D01*
G75*
G02*
X0133763Y0231177I-000591J0000000D01*
G01*
X0129727Y0231177D01*
G75*
G02*
X0129137Y0231768I0000000J0000591D01*
G01*
G37*
G36*
G01*
X0129137Y0235508D02*
X0129137Y0236689D01*
G75*
G02*
X0129727Y0237280I0000591J0000000D01*
G01*
X0133763Y0237280D01*
G75*
G02*
X0134353Y0236689I0000000J-000591D01*
G01*
X0134353Y0235508D01*
G75*
G02*
X0133763Y0234918I-000591J0000000D01*
G01*
X0129727Y0234918D01*
G75*
G02*
X0129137Y0235508I0000000J0000591D01*
G01*
G37*
G36*
G01*
X0131063Y0247392D02*
X0131063Y0248730D01*
G75*
G02*
X0131614Y0249281I0000551J0000000D01*
G01*
X0132717Y0249281D01*
G75*
G02*
X0133268Y0248730I0000000J-000551D01*
G01*
X0133268Y0247392D01*
G75*
G02*
X0132717Y0246840I-000551J0000000D01*
G01*
X0131614Y0246840D01*
G75*
G02*
X0131063Y0247392I0000000J0000551D01*
G01*
G37*
G36*
G01*
X0134843Y0247392D02*
X0134843Y0248730D01*
G75*
G02*
X0135394Y0249281I0000551J0000000D01*
G01*
X0136496Y0249281D01*
G75*
G02*
X0137048Y0248730I0000000J-000551D01*
G01*
X0137048Y0247392D01*
G75*
G02*
X0136496Y0246840I-000551J0000000D01*
G01*
X0135394Y0246840D01*
G75*
G02*
X0134843Y0247392I0000000J0000551D01*
G01*
G37*
G36*
G01*
X0152835Y0225187D02*
X0151496Y0225187D01*
G75*
G02*
X0150945Y0225738I0000000J0000551D01*
G01*
X0150945Y0226840D01*
G75*
G02*
X0151496Y0227392I0000551J0000000D01*
G01*
X0152835Y0227392D01*
G75*
G02*
X0153386Y0226840I0000000J-000551D01*
G01*
X0153386Y0225738D01*
G75*
G02*
X0152835Y0225187I-000551J0000000D01*
G01*
G37*
G36*
G01*
X0152835Y0228966D02*
X0151496Y0228966D01*
G75*
G02*
X0150945Y0229518I0000000J0000551D01*
G01*
X0150945Y0230620D01*
G75*
G02*
X0151496Y0231171I0000551J0000000D01*
G01*
X0152835Y0231171D01*
G75*
G02*
X0153386Y0230620I0000000J-000551D01*
G01*
X0153386Y0229518D01*
G75*
G02*
X0152835Y0228966I-000551J0000000D01*
G01*
G37*
G36*
G01*
X0156831Y0232949D02*
X0155374Y0232949D01*
G75*
G02*
X0154843Y0233481I0000000J0000531D01*
G01*
X0154843Y0234544D01*
G75*
G02*
X0155374Y0235075I0000531J0000000D01*
G01*
X0156831Y0235075D01*
G75*
G02*
X0157362Y0234544I0000000J-000531D01*
G01*
X0157362Y0233481D01*
G75*
G02*
X0156831Y0232949I-000531J0000000D01*
G01*
G37*
G36*
G01*
X0156831Y0236965D02*
X0155374Y0236965D01*
G75*
G02*
X0154843Y0237496I0000000J0000531D01*
G01*
X0154843Y0238559D01*
G75*
G02*
X0155374Y0239091I0000531J0000000D01*
G01*
X0156831Y0239091D01*
G75*
G02*
X0157362Y0238559I0000000J-000531D01*
G01*
X0157362Y0237496D01*
G75*
G02*
X0156831Y0236965I-000531J0000000D01*
G01*
G37*
X0361713Y0280413D02*
G01*
G75*
D327*
X0371937Y0265708D02*
D03*
X0364457Y0265708D02*
D03*
X0364457Y0274173D02*
D03*
X0368197Y0274173D02*
D03*
X0371937Y0250059D02*
D03*
X0364457Y0250059D02*
D03*
X0364457Y0258523D02*
D03*
X0368197Y0258523D02*
D03*
D327*
X0371937Y0274173D02*
D03*
X0371937Y0258523D02*
D03*
D119*
X0371949Y0244980D02*
D03*
X0368209Y0244980D02*
D03*
X0364469Y0244980D02*
D03*
X0368406Y0279232D02*
D03*
X0371949Y0279232D02*
D03*
M02*
