G04 #@! TF.GenerationSoftware,KiCad,Pcbnew,7.0.1-115-g2ece2719d0*
G04 #@! TF.CreationDate,2023-05-12T01:35:33+03:00*
G04 #@! TF.ProjectId,alphax_4ch,616c7068-6178-45f3-9463-682e6b696361,G*
G04 #@! TF.SameCoordinates,PX141f5e0PYa2cace0*
G04 #@! TF.FileFunction,Soldermask,Bot*
G04 #@! TF.FilePolarity,Negative*
%FSLAX46Y46*%
G04 Gerber Fmt 4.6, Leading zero omitted, Abs format (unit mm)*
G04 Created by KiCad (PCBNEW 7.0.1-115-g2ece2719d0) date 2023-05-12 01:35:33*
%MOMM*%
%LPD*%
G01*
G04 APERTURE LIST*
%ADD10C,0.120000*%
%ADD11C,1.524000*%
%ADD12C,1.700000*%
%ADD13C,6.000000*%
%ADD14O,1.700000X1.850000*%
%ADD15O,2.900000X5.900000*%
%ADD16O,2.400000X2.900000*%
%ADD17C,0.650000*%
%ADD18O,1.000000X2.100000*%
%ADD19O,1.000000X1.600000*%
%ADD20C,1.000000*%
%ADD21C,1.500000*%
%ADD22C,0.600000*%
%ADD23C,0.599999*%
%ADD24R,2.000000X0.650000*%
%ADD25R,4.500000X8.100000*%
%ADD26C,2.000000*%
G04 APERTURE END LIST*
G04 #@! TO.C,U4*
D10*
X22850000Y200000D02*
X9850000Y200000D01*
X9850000Y7200000D01*
X22850000Y7200000D01*
X22850000Y200000D01*
G36*
X22850000Y200000D02*
G01*
X9850000Y200000D01*
X9850000Y7200000D01*
X22850000Y7200000D01*
X22850000Y200000D01*
G37*
G04 #@! TD*
D11*
G04 #@! TO.C,R8*
X76750000Y93245000D03*
X76750000Y97055000D03*
G04 #@! TD*
D12*
G04 #@! TO.C,P18*
X89100000Y39700000D03*
G04 #@! TD*
D11*
G04 #@! TO.C,F10*
X20840000Y33250000D03*
X20840000Y38150000D03*
G04 #@! TD*
D12*
G04 #@! TO.C,P23*
X59900000Y1000000D03*
G04 #@! TD*
D13*
G04 #@! TO.C,J8*
X4803000Y8619000D03*
G04 #@! TD*
D11*
G04 #@! TO.C,R59*
X45200000Y97505000D03*
X45200000Y93695000D03*
G04 #@! TD*
G04 #@! TO.C,R9*
X74800000Y93245000D03*
X74800000Y97055000D03*
G04 #@! TD*
G04 #@! TO.C,R68*
X24200000Y93695000D03*
X24200000Y97505000D03*
G04 #@! TD*
G04 #@! TO.C,J5*
G36*
G01*
X26150000Y11225000D02*
X26150000Y12575000D01*
G75*
G02*
X26400000Y12825000I250000J0D01*
G01*
X27600000Y12825000D01*
G75*
G02*
X27850000Y12575000I0J-250000D01*
G01*
X27850000Y11225000D01*
G75*
G02*
X27600000Y10975000I-250000J0D01*
G01*
X26400000Y10975000D01*
G75*
G02*
X26150000Y11225000I0J250000D01*
G01*
G37*
D14*
X29500000Y11900000D03*
X32000000Y11900000D03*
X34500000Y11900000D03*
X37000000Y11900000D03*
G04 #@! TD*
D11*
G04 #@! TO.C,F4*
X63950000Y97000000D03*
X63950000Y92100000D03*
G04 #@! TD*
G04 #@! TO.C,R91*
X94400000Y72795000D03*
X94400000Y76605000D03*
G04 #@! TD*
D15*
G04 #@! TO.C,P2*
X2200000Y107100000D03*
X42000000Y107100000D03*
D16*
X9350000Y101100000D03*
X13350000Y101100000D03*
X16850000Y101100000D03*
X20350000Y101100000D03*
X23850000Y101100000D03*
X27350000Y101100000D03*
X30850000Y101100000D03*
X34850000Y101100000D03*
X9350000Y105100000D03*
X13350000Y105100000D03*
X16850000Y105100000D03*
X20350000Y105100000D03*
X23850000Y105100000D03*
X27350000Y105100000D03*
X30850000Y105100000D03*
X34850000Y105100000D03*
X9350000Y109100000D03*
X13350000Y109100000D03*
X16850000Y109100000D03*
X20350000Y109100000D03*
X23850000Y109100000D03*
X27350000Y109100000D03*
X30850000Y109100000D03*
X34850000Y109100000D03*
G04 #@! TD*
D12*
G04 #@! TO.C,P19*
X41900000Y11200000D03*
G04 #@! TD*
D11*
G04 #@! TO.C,R11*
X47350000Y104095000D03*
X47350000Y107905000D03*
G04 #@! TD*
D12*
G04 #@! TO.C,P26*
X64400000Y1000000D03*
G04 #@! TD*
D11*
G04 #@! TO.C,R60*
X43200000Y93695000D03*
X43200000Y97505000D03*
G04 #@! TD*
D17*
G04 #@! TO.C,J1*
X27010000Y6420000D03*
X32790000Y6420000D03*
D18*
X25580000Y6920000D03*
D19*
X25580000Y2740000D03*
D18*
X34220000Y6920000D03*
D19*
X34220000Y2740000D03*
G04 #@! TD*
D12*
G04 #@! TO.C,P16*
X89100000Y22800000D03*
G04 #@! TD*
G04 #@! TO.C,P21*
X50900000Y1000000D03*
G04 #@! TD*
D11*
G04 #@! TO.C,R17*
X68050000Y93145000D03*
X68050000Y96955000D03*
G04 #@! TD*
G04 #@! TO.C,R63*
X22200000Y93695000D03*
X22200000Y97505000D03*
G04 #@! TD*
D12*
G04 #@! TO.C,P24*
X46900000Y1000000D03*
G04 #@! TD*
G04 #@! TO.C,P28*
X77800000Y1000000D03*
G04 #@! TD*
D11*
G04 #@! TO.C,R16*
X72350000Y93195000D03*
X72350000Y97005000D03*
G04 #@! TD*
G04 #@! TO.C,R70*
X11950000Y93595000D03*
X11950000Y97405000D03*
G04 #@! TD*
D12*
G04 #@! TO.C,P3*
X74700000Y60700000D03*
G04 #@! TD*
D20*
G04 #@! TO.C,J6*
X17940000Y30300000D03*
X17940000Y48300000D03*
G36*
G01*
X14499999Y32550000D02*
X13500001Y32550000D01*
G75*
G02*
X13250000Y32800001I0J250001D01*
G01*
X13250000Y33799999D01*
G75*
G02*
X13500001Y34050000I250001J0D01*
G01*
X14499999Y34050000D01*
G75*
G02*
X14750000Y33799999I0J-250001D01*
G01*
X14750000Y32800001D01*
G75*
G02*
X14499999Y32550000I-250001J0D01*
G01*
G37*
D21*
X14000000Y36300000D03*
X14000000Y39300000D03*
X14000000Y42300000D03*
X14000000Y45300000D03*
X17000000Y33300000D03*
X17000000Y36300000D03*
X17000000Y39300000D03*
X17000000Y42300000D03*
X17000000Y45300000D03*
G04 #@! TD*
D12*
G04 #@! TO.C,P27*
X73400000Y1000000D03*
G04 #@! TD*
D21*
G04 #@! TO.C,M1*
X66300000Y58825005D03*
X59900003Y58825005D03*
X58000000Y58825005D03*
X53700000Y58825005D03*
D22*
X51300003Y58375006D03*
X50300002Y58375006D03*
D21*
X47450000Y58825005D03*
X66750002Y74325002D03*
X64900003Y74325002D03*
X59950000Y74325002D03*
X47900002Y74325002D03*
G04 #@! TD*
D22*
G04 #@! TO.C,M3*
X11975000Y59550000D03*
X11975000Y60750000D03*
X11975000Y58350000D03*
X11975000Y57150000D03*
X26400000Y63610000D03*
X26400000Y64610000D03*
G04 #@! TD*
D11*
G04 #@! TO.C,R10*
X66100000Y93145000D03*
X66100000Y96955000D03*
G04 #@! TD*
G04 #@! TO.C,R62*
X28500000Y93395000D03*
X28500000Y97205000D03*
G04 #@! TD*
G04 #@! TO.C,F7*
X32900000Y97399979D03*
X32900000Y92499979D03*
G04 #@! TD*
G04 #@! TO.C,R56*
X14000000Y93645000D03*
X14000000Y97455000D03*
G04 #@! TD*
G04 #@! TO.C,R19*
X53950000Y93145000D03*
X53950000Y96955000D03*
G04 #@! TD*
G04 #@! TO.C,R67*
X26250000Y93645000D03*
X26250000Y97455000D03*
G04 #@! TD*
G04 #@! TO.C,F1*
X81196000Y96995000D03*
X81196000Y92095000D03*
G04 #@! TD*
G04 #@! TO.C,R64*
X16050000Y93645000D03*
X16050000Y97455000D03*
G04 #@! TD*
G04 #@! TO.C,F3*
X70100000Y97000000D03*
X70100000Y92100000D03*
G04 #@! TD*
G04 #@! TO.C,R61*
X30700000Y93445000D03*
X30700000Y97255000D03*
G04 #@! TD*
D12*
G04 #@! TO.C,P22*
X55400000Y1000000D03*
G04 #@! TD*
D13*
G04 #@! TO.C,J7*
X91948000Y8873000D03*
G04 #@! TD*
D12*
G04 #@! TO.C,P20*
X89100000Y42700000D03*
G04 #@! TD*
D11*
G04 #@! TO.C,R69*
X18050000Y93645000D03*
X18050000Y97455000D03*
G04 #@! TD*
G04 #@! TO.C,R55*
X20200000Y93695000D03*
X20200000Y97505000D03*
G04 #@! TD*
G04 #@! TO.C,F8*
X39600000Y97299979D03*
X39600000Y92399979D03*
G04 #@! TD*
D12*
G04 #@! TO.C,P25*
X68900000Y1000000D03*
G04 #@! TD*
D11*
G04 #@! TO.C,R54*
X37450000Y93595000D03*
X37450000Y97405000D03*
G04 #@! TD*
G04 #@! TO.C,R52*
X47400000Y93695000D03*
X47400000Y97505000D03*
G04 #@! TD*
D22*
G04 #@! TO.C,M9*
X94474999Y62225000D03*
X93524999Y62225000D03*
X92575001Y62225000D03*
X93574999Y70925000D03*
X94474999Y70925000D03*
G04 #@! TD*
D23*
G04 #@! TO.C,M6*
X37285001Y19400014D03*
X35449991Y19825022D03*
X37499999Y20375019D03*
X37285004Y21249978D03*
X37209997Y22100001D03*
X35449991Y22425017D03*
X36759991Y23724984D03*
X35449991Y24375001D03*
X41375006Y17199998D03*
X37300000Y17500000D03*
G04 #@! TD*
D11*
G04 #@! TO.C,R15*
X83482000Y93190000D03*
X83482000Y97000000D03*
G04 #@! TD*
G04 #@! TO.C,R53*
X49400000Y93695000D03*
X49400000Y97505000D03*
G04 #@! TD*
D22*
G04 #@! TO.C,M8*
X44300000Y63587500D03*
X44300000Y62387500D03*
X44300000Y64787500D03*
X44300000Y65987500D03*
X29875000Y59527500D03*
X29875000Y58527500D03*
G04 #@! TD*
D11*
G04 #@! TO.C,F9*
X35350000Y97349979D03*
X35350000Y92449979D03*
G04 #@! TD*
D12*
G04 #@! TO.C,P17*
X89100000Y25800000D03*
G04 #@! TD*
D15*
G04 #@! TO.C,P1*
X54500000Y107100000D03*
X94300000Y107100000D03*
D16*
X61650000Y101100000D03*
X65650000Y101100000D03*
X69150000Y101100000D03*
X72650000Y101100000D03*
X76150000Y101100000D03*
X79650000Y101100000D03*
X83150000Y101100000D03*
X87150000Y101100000D03*
X61650000Y105100000D03*
X65650000Y105100000D03*
X69150000Y105100000D03*
X72650000Y105100000D03*
X76150000Y105100000D03*
X79650000Y105100000D03*
X83150000Y105100000D03*
X87150000Y105100000D03*
X61650000Y109100000D03*
X65650000Y109100000D03*
X69150000Y109100000D03*
X72650000Y109100000D03*
X76150000Y109100000D03*
X79650000Y109100000D03*
X83150000Y109100000D03*
X87150000Y109100000D03*
G04 #@! TD*
D11*
G04 #@! TO.C,F6*
X56300000Y96900000D03*
X56300000Y92000000D03*
G04 #@! TD*
D23*
G04 #@! TO.C,M2*
X28405111Y19436868D03*
X26570101Y19861876D03*
X28620109Y20411873D03*
X28405114Y21286832D03*
X28330107Y22136855D03*
X26570101Y22461871D03*
X27880101Y23761838D03*
X26570101Y24411855D03*
X32495116Y17236852D03*
X28420110Y17536854D03*
G04 #@! TD*
D11*
G04 #@! TO.C,R12*
X49850000Y104045000D03*
X49850000Y107855000D03*
G04 #@! TD*
G04 #@! TO.C,R18*
X61850000Y92695000D03*
X61850000Y96505000D03*
G04 #@! TD*
D12*
G04 #@! TO.C,P4*
X77600000Y58800000D03*
G04 #@! TD*
D11*
G04 #@! TO.C,F5*
X58650000Y96945000D03*
X58650000Y92045000D03*
G04 #@! TD*
G04 #@! TO.C,F11*
X20840000Y41550000D03*
X20840000Y46450000D03*
G04 #@! TD*
G04 #@! TO.C,F2*
X78800000Y97045000D03*
X78800000Y92145000D03*
G04 #@! TD*
G04 #@! TO.C,R1137*
G36*
G01*
X22550000Y74447500D02*
X22550000Y75227500D01*
G75*
G02*
X22620000Y75297500I70000J0D01*
G01*
X23180000Y75297500D01*
G75*
G02*
X23250000Y75227500I0J-70000D01*
G01*
X23250000Y74447500D01*
G75*
G02*
X23180000Y74377500I-70000J0D01*
G01*
X22620000Y74377500D01*
G75*
G02*
X22550000Y74447500I0J70000D01*
G01*
G37*
G36*
G01*
X24150000Y74447500D02*
X24150000Y75227500D01*
G75*
G02*
X24220000Y75297500I70000J0D01*
G01*
X24780000Y75297500D01*
G75*
G02*
X24850000Y75227500I0J-70000D01*
G01*
X24850000Y74447500D01*
G75*
G02*
X24780000Y74377500I-70000J0D01*
G01*
X24220000Y74377500D01*
G75*
G02*
X24150000Y74447500I0J70000D01*
G01*
G37*
G04 #@! TD*
G04 #@! TO.C,C18*
G36*
G01*
X28625000Y73140000D02*
X28625000Y72460000D01*
G75*
G02*
X28540000Y72375000I-85000J0D01*
G01*
X27860000Y72375000D01*
G75*
G02*
X27775000Y72460000I0J85000D01*
G01*
X27775000Y73140000D01*
G75*
G02*
X27860000Y73225000I85000J0D01*
G01*
X28540000Y73225000D01*
G75*
G02*
X28625000Y73140000I0J-85000D01*
G01*
G37*
G36*
G01*
X27044998Y73140000D02*
X27044998Y72460000D01*
G75*
G02*
X26959998Y72375000I-85000J0D01*
G01*
X26279998Y72375000D01*
G75*
G02*
X26194998Y72460000I0J85000D01*
G01*
X26194998Y73140000D01*
G75*
G02*
X26279998Y73225000I85000J0D01*
G01*
X26959998Y73225000D01*
G75*
G02*
X27044998Y73140000I0J-85000D01*
G01*
G37*
G04 #@! TD*
G04 #@! TO.C,R29*
G36*
G01*
X80150000Y70310000D02*
X80150000Y71090000D01*
G75*
G02*
X80220000Y71160000I70000J0D01*
G01*
X80780000Y71160000D01*
G75*
G02*
X80850000Y71090000I0J-70000D01*
G01*
X80850000Y70310000D01*
G75*
G02*
X80780000Y70240000I-70000J0D01*
G01*
X80220000Y70240000D01*
G75*
G02*
X80150000Y70310000I0J70000D01*
G01*
G37*
G36*
G01*
X81750000Y70310000D02*
X81750000Y71090000D01*
G75*
G02*
X81820000Y71160000I70000J0D01*
G01*
X82380000Y71160000D01*
G75*
G02*
X82450000Y71090000I0J-70000D01*
G01*
X82450000Y70310000D01*
G75*
G02*
X82380000Y70240000I-70000J0D01*
G01*
X81820000Y70240000D01*
G75*
G02*
X81750000Y70310000I0J70000D01*
G01*
G37*
G04 #@! TD*
G04 #@! TO.C,R90*
G36*
G01*
X38935290Y87190000D02*
X38155290Y87190000D01*
G75*
G02*
X38085290Y87260000I0J70000D01*
G01*
X38085290Y87820000D01*
G75*
G02*
X38155290Y87890000I70000J0D01*
G01*
X38935290Y87890000D01*
G75*
G02*
X39005290Y87820000I0J-70000D01*
G01*
X39005290Y87260000D01*
G75*
G02*
X38935290Y87190000I-70000J0D01*
G01*
G37*
G36*
G01*
X38935290Y88790000D02*
X38155290Y88790000D01*
G75*
G02*
X38085290Y88860000I0J70000D01*
G01*
X38085290Y89420000D01*
G75*
G02*
X38155290Y89490000I70000J0D01*
G01*
X38935290Y89490000D01*
G75*
G02*
X39005290Y89420000I0J-70000D01*
G01*
X39005290Y88860000D01*
G75*
G02*
X38935290Y88790000I-70000J0D01*
G01*
G37*
G04 #@! TD*
G04 #@! TO.C,D30*
G36*
G01*
X75700000Y48840000D02*
X75700000Y48360000D01*
G75*
G02*
X75640000Y48300000I-60000J0D01*
G01*
X75160000Y48300000D01*
G75*
G02*
X75100000Y48360000I0J60000D01*
G01*
X75100000Y48840000D01*
G75*
G02*
X75160000Y48900000I60000J0D01*
G01*
X75640000Y48900000D01*
G75*
G02*
X75700000Y48840000I0J-60000D01*
G01*
G37*
G36*
G01*
X75700000Y51040000D02*
X75700000Y50560000D01*
G75*
G02*
X75640000Y50500000I-60000J0D01*
G01*
X75160000Y50500000D01*
G75*
G02*
X75100000Y50560000I0J60000D01*
G01*
X75100000Y51040000D01*
G75*
G02*
X75160000Y51100000I60000J0D01*
G01*
X75640000Y51100000D01*
G75*
G02*
X75700000Y51040000I0J-60000D01*
G01*
G37*
G04 #@! TD*
G04 #@! TO.C,C3*
G36*
G01*
X38205290Y86055001D02*
X38885290Y86055001D01*
G75*
G02*
X38970290Y85970001I0J-85000D01*
G01*
X38970290Y85290001D01*
G75*
G02*
X38885290Y85205001I-85000J0D01*
G01*
X38205290Y85205001D01*
G75*
G02*
X38120290Y85290001I0J85000D01*
G01*
X38120290Y85970001D01*
G75*
G02*
X38205290Y86055001I85000J0D01*
G01*
G37*
G36*
G01*
X38205290Y84474999D02*
X38885290Y84474999D01*
G75*
G02*
X38970290Y84389999I0J-85000D01*
G01*
X38970290Y83709999D01*
G75*
G02*
X38885290Y83624999I-85000J0D01*
G01*
X38205290Y83624999D01*
G75*
G02*
X38120290Y83709999I0J85000D01*
G01*
X38120290Y84389999D01*
G75*
G02*
X38205290Y84474999I85000J0D01*
G01*
G37*
G04 #@! TD*
G04 #@! TO.C,D46*
G36*
G01*
X56800000Y48840000D02*
X56800000Y48360000D01*
G75*
G02*
X56740000Y48300000I-60000J0D01*
G01*
X56260000Y48300000D01*
G75*
G02*
X56200000Y48360000I0J60000D01*
G01*
X56200000Y48840000D01*
G75*
G02*
X56260000Y48900000I60000J0D01*
G01*
X56740000Y48900000D01*
G75*
G02*
X56800000Y48840000I0J-60000D01*
G01*
G37*
G36*
G01*
X56800000Y51040000D02*
X56800000Y50560000D01*
G75*
G02*
X56740000Y50500000I-60000J0D01*
G01*
X56260000Y50500000D01*
G75*
G02*
X56200000Y50560000I0J60000D01*
G01*
X56200000Y51040000D01*
G75*
G02*
X56260000Y51100000I60000J0D01*
G01*
X56740000Y51100000D01*
G75*
G02*
X56800000Y51040000I0J-60000D01*
G01*
G37*
G04 #@! TD*
G04 #@! TO.C,R87*
G36*
G01*
X11950000Y71910000D02*
X11950000Y72690000D01*
G75*
G02*
X12020000Y72760000I70000J0D01*
G01*
X12580000Y72760000D01*
G75*
G02*
X12650000Y72690000I0J-70000D01*
G01*
X12650000Y71910000D01*
G75*
G02*
X12580000Y71840000I-70000J0D01*
G01*
X12020000Y71840000D01*
G75*
G02*
X11950000Y71910000I0J70000D01*
G01*
G37*
G36*
G01*
X13550000Y71910000D02*
X13550000Y72690000D01*
G75*
G02*
X13620000Y72760000I70000J0D01*
G01*
X14180000Y72760000D01*
G75*
G02*
X14250000Y72690000I0J-70000D01*
G01*
X14250000Y71910000D01*
G75*
G02*
X14180000Y71840000I-70000J0D01*
G01*
X13620000Y71840000D01*
G75*
G02*
X13550000Y71910000I0J70000D01*
G01*
G37*
G04 #@! TD*
G04 #@! TO.C,R21*
G36*
G01*
X62550000Y80610000D02*
X62550000Y81390000D01*
G75*
G02*
X62620000Y81460000I70000J0D01*
G01*
X63180000Y81460000D01*
G75*
G02*
X63250000Y81390000I0J-70000D01*
G01*
X63250000Y80610000D01*
G75*
G02*
X63180000Y80540000I-70000J0D01*
G01*
X62620000Y80540000D01*
G75*
G02*
X62550000Y80610000I0J70000D01*
G01*
G37*
G36*
G01*
X64150000Y80610000D02*
X64150000Y81390000D01*
G75*
G02*
X64220000Y81460000I70000J0D01*
G01*
X64780000Y81460000D01*
G75*
G02*
X64850000Y81390000I0J-70000D01*
G01*
X64850000Y80610000D01*
G75*
G02*
X64780000Y80540000I-70000J0D01*
G01*
X64220000Y80540000D01*
G75*
G02*
X64150000Y80610000I0J70000D01*
G01*
G37*
G04 #@! TD*
G04 #@! TO.C,R82*
G36*
G01*
X11950000Y74710000D02*
X11950000Y75490000D01*
G75*
G02*
X12020000Y75560000I70000J0D01*
G01*
X12580000Y75560000D01*
G75*
G02*
X12650000Y75490000I0J-70000D01*
G01*
X12650000Y74710000D01*
G75*
G02*
X12580000Y74640000I-70000J0D01*
G01*
X12020000Y74640000D01*
G75*
G02*
X11950000Y74710000I0J70000D01*
G01*
G37*
G36*
G01*
X13550000Y74710000D02*
X13550000Y75490000D01*
G75*
G02*
X13620000Y75560000I70000J0D01*
G01*
X14180000Y75560000D01*
G75*
G02*
X14250000Y75490000I0J-70000D01*
G01*
X14250000Y74710000D01*
G75*
G02*
X14180000Y74640000I-70000J0D01*
G01*
X13620000Y74640000D01*
G75*
G02*
X13550000Y74710000I0J70000D01*
G01*
G37*
G04 #@! TD*
G04 #@! TO.C,D49*
G36*
G01*
X69900000Y79815000D02*
X69900000Y80835000D01*
G75*
G02*
X69990000Y80925000I90000J0D01*
G01*
X70710000Y80925000D01*
G75*
G02*
X70800000Y80835000I0J-90000D01*
G01*
X70800000Y79815000D01*
G75*
G02*
X70710000Y79725000I-90000J0D01*
G01*
X69990000Y79725000D01*
G75*
G02*
X69900000Y79815000I0J90000D01*
G01*
G37*
G36*
G01*
X73200000Y79815000D02*
X73200000Y80835000D01*
G75*
G02*
X73290000Y80925000I90000J0D01*
G01*
X74010000Y80925000D01*
G75*
G02*
X74100000Y80835000I0J-90000D01*
G01*
X74100000Y79815000D01*
G75*
G02*
X74010000Y79725000I-90000J0D01*
G01*
X73290000Y79725000D01*
G75*
G02*
X73200000Y79815000I0J90000D01*
G01*
G37*
G04 #@! TD*
G04 #@! TO.C,C20*
G36*
G01*
X48815001Y76340000D02*
X48815001Y75660000D01*
G75*
G02*
X48730001Y75575000I-85000J0D01*
G01*
X48050001Y75575000D01*
G75*
G02*
X47965001Y75660000I0J85000D01*
G01*
X47965001Y76340000D01*
G75*
G02*
X48050001Y76425000I85000J0D01*
G01*
X48730001Y76425000D01*
G75*
G02*
X48815001Y76340000I0J-85000D01*
G01*
G37*
G36*
G01*
X47234999Y76340000D02*
X47234999Y75660000D01*
G75*
G02*
X47149999Y75575000I-85000J0D01*
G01*
X46469999Y75575000D01*
G75*
G02*
X46384999Y75660000I0J85000D01*
G01*
X46384999Y76340000D01*
G75*
G02*
X46469999Y76425000I85000J0D01*
G01*
X47149999Y76425000D01*
G75*
G02*
X47234999Y76340000I0J-85000D01*
G01*
G37*
G04 #@! TD*
G04 #@! TO.C,D1*
G36*
G01*
X60000000Y48360000D02*
X60000000Y48840000D01*
G75*
G02*
X60060000Y48900000I60000J0D01*
G01*
X60540000Y48900000D01*
G75*
G02*
X60600000Y48840000I0J-60000D01*
G01*
X60600000Y48360000D01*
G75*
G02*
X60540000Y48300000I-60000J0D01*
G01*
X60060000Y48300000D01*
G75*
G02*
X60000000Y48360000I0J60000D01*
G01*
G37*
G36*
G01*
X60000000Y46160000D02*
X60000000Y46640000D01*
G75*
G02*
X60060000Y46700000I60000J0D01*
G01*
X60540000Y46700000D01*
G75*
G02*
X60600000Y46640000I0J-60000D01*
G01*
X60600000Y46160000D01*
G75*
G02*
X60540000Y46100000I-60000J0D01*
G01*
X60060000Y46100000D01*
G75*
G02*
X60000000Y46160000I0J60000D01*
G01*
G37*
G04 #@! TD*
G04 #@! TO.C,C1*
G36*
G01*
X54885290Y83624999D02*
X54205290Y83624999D01*
G75*
G02*
X54120290Y83709999I0J85000D01*
G01*
X54120290Y84389999D01*
G75*
G02*
X54205290Y84474999I85000J0D01*
G01*
X54885290Y84474999D01*
G75*
G02*
X54970290Y84389999I0J-85000D01*
G01*
X54970290Y83709999D01*
G75*
G02*
X54885290Y83624999I-85000J0D01*
G01*
G37*
G36*
G01*
X54885290Y85205001D02*
X54205290Y85205001D01*
G75*
G02*
X54120290Y85290001I0J85000D01*
G01*
X54120290Y85970001D01*
G75*
G02*
X54205290Y86055001I85000J0D01*
G01*
X54885290Y86055001D01*
G75*
G02*
X54970290Y85970001I0J-85000D01*
G01*
X54970290Y85290001D01*
G75*
G02*
X54885290Y85205001I-85000J0D01*
G01*
G37*
G04 #@! TD*
G04 #@! TO.C,D23*
G36*
G01*
X19200000Y86737500D02*
X19500000Y86737500D01*
G75*
G02*
X19650000Y86587500I0J-150000D01*
G01*
X19650000Y85412500D01*
G75*
G02*
X19500000Y85262500I-150000J0D01*
G01*
X19200000Y85262500D01*
G75*
G02*
X19050000Y85412500I0J150000D01*
G01*
X19050000Y86587500D01*
G75*
G02*
X19200000Y86737500I150000J0D01*
G01*
G37*
G36*
G01*
X21100000Y86737500D02*
X21400000Y86737500D01*
G75*
G02*
X21550000Y86587500I0J-150000D01*
G01*
X21550000Y85412500D01*
G75*
G02*
X21400000Y85262500I-150000J0D01*
G01*
X21100000Y85262500D01*
G75*
G02*
X20950000Y85412500I0J150000D01*
G01*
X20950000Y86587500D01*
G75*
G02*
X21100000Y86737500I150000J0D01*
G01*
G37*
G36*
G01*
X20150000Y84862500D02*
X20450000Y84862500D01*
G75*
G02*
X20600000Y84712500I0J-150000D01*
G01*
X20600000Y83537500D01*
G75*
G02*
X20450000Y83387500I-150000J0D01*
G01*
X20150000Y83387500D01*
G75*
G02*
X20000000Y83537500I0J150000D01*
G01*
X20000000Y84712500D01*
G75*
G02*
X20150000Y84862500I150000J0D01*
G01*
G37*
G04 #@! TD*
G04 #@! TO.C,D6*
G36*
G01*
X83187497Y48841498D02*
X83187497Y48361498D01*
G75*
G02*
X83127497Y48301498I-60000J0D01*
G01*
X82647497Y48301498D01*
G75*
G02*
X82587497Y48361498I0J60000D01*
G01*
X82587497Y48841498D01*
G75*
G02*
X82647497Y48901498I60000J0D01*
G01*
X83127497Y48901498D01*
G75*
G02*
X83187497Y48841498I0J-60000D01*
G01*
G37*
G36*
G01*
X83187497Y51041498D02*
X83187497Y50561498D01*
G75*
G02*
X83127497Y50501498I-60000J0D01*
G01*
X82647497Y50501498D01*
G75*
G02*
X82587497Y50561498I0J60000D01*
G01*
X82587497Y51041498D01*
G75*
G02*
X82647497Y51101498I60000J0D01*
G01*
X83127497Y51101498D01*
G75*
G02*
X83187497Y51041498I0J-60000D01*
G01*
G37*
G04 #@! TD*
G04 #@! TO.C,Q1*
G36*
G01*
X43975000Y75000000D02*
X43975000Y74700000D01*
G75*
G02*
X43825000Y74550000I-150000J0D01*
G01*
X42650000Y74550000D01*
G75*
G02*
X42500000Y74700000I0J150000D01*
G01*
X42500000Y75000000D01*
G75*
G02*
X42650000Y75150000I150000J0D01*
G01*
X43825000Y75150000D01*
G75*
G02*
X43975000Y75000000I0J-150000D01*
G01*
G37*
G36*
G01*
X42100000Y74050000D02*
X42100000Y73750000D01*
G75*
G02*
X41950000Y73600000I-150000J0D01*
G01*
X40775000Y73600000D01*
G75*
G02*
X40625000Y73750000I0J150000D01*
G01*
X40625000Y74050000D01*
G75*
G02*
X40775000Y74200000I150000J0D01*
G01*
X41950000Y74200000D01*
G75*
G02*
X42100000Y74050000I0J-150000D01*
G01*
G37*
G36*
G01*
X43975000Y73100000D02*
X43975000Y72800000D01*
G75*
G02*
X43825000Y72650000I-150000J0D01*
G01*
X42650000Y72650000D01*
G75*
G02*
X42500000Y72800000I0J150000D01*
G01*
X42500000Y73100000D01*
G75*
G02*
X42650000Y73250000I150000J0D01*
G01*
X43825000Y73250000D01*
G75*
G02*
X43975000Y73100000I0J-150000D01*
G01*
G37*
G04 #@! TD*
G04 #@! TO.C,R24*
G36*
G01*
X37000000Y67704990D02*
X37000000Y68394990D01*
G75*
G02*
X37230000Y68624990I230000J0D01*
G01*
X38570000Y68624990D01*
G75*
G02*
X38800000Y68394990I0J-230000D01*
G01*
X38800000Y67704990D01*
G75*
G02*
X38570000Y67474990I-230000J0D01*
G01*
X37230000Y67474990D01*
G75*
G02*
X37000000Y67704990I0J230000D01*
G01*
G37*
G36*
G01*
X37000000Y70605010D02*
X37000000Y71295010D01*
G75*
G02*
X37230000Y71525010I230000J0D01*
G01*
X38570000Y71525010D01*
G75*
G02*
X38800000Y71295010I0J-230000D01*
G01*
X38800000Y70605010D01*
G75*
G02*
X38570000Y70375010I-230000J0D01*
G01*
X37230000Y70375010D01*
G75*
G02*
X37000000Y70605010I0J230000D01*
G01*
G37*
G04 #@! TD*
G04 #@! TO.C,R38*
G36*
G01*
X23150000Y35067581D02*
X23150000Y35847581D01*
G75*
G02*
X23220000Y35917581I70000J0D01*
G01*
X23780000Y35917581D01*
G75*
G02*
X23850000Y35847581I0J-70000D01*
G01*
X23850000Y35067581D01*
G75*
G02*
X23780000Y34997581I-70000J0D01*
G01*
X23220000Y34997581D01*
G75*
G02*
X23150000Y35067581I0J70000D01*
G01*
G37*
G36*
G01*
X24750000Y35067581D02*
X24750000Y35847581D01*
G75*
G02*
X24820000Y35917581I70000J0D01*
G01*
X25380000Y35917581D01*
G75*
G02*
X25450000Y35847581I0J-70000D01*
G01*
X25450000Y35067581D01*
G75*
G02*
X25380000Y34997581I-70000J0D01*
G01*
X24820000Y34997581D01*
G75*
G02*
X24750000Y35067581I0J70000D01*
G01*
G37*
G04 #@! TD*
G04 #@! TO.C,D68*
G36*
G01*
X6730000Y19100000D02*
X5710000Y19100000D01*
G75*
G02*
X5620000Y19190000I0J90000D01*
G01*
X5620000Y19910000D01*
G75*
G02*
X5710000Y20000000I90000J0D01*
G01*
X6730000Y20000000D01*
G75*
G02*
X6820000Y19910000I0J-90000D01*
G01*
X6820000Y19190000D01*
G75*
G02*
X6730000Y19100000I-90000J0D01*
G01*
G37*
G36*
G01*
X6730000Y22400000D02*
X5710000Y22400000D01*
G75*
G02*
X5620000Y22490000I0J90000D01*
G01*
X5620000Y23210000D01*
G75*
G02*
X5710000Y23300000I90000J0D01*
G01*
X6730000Y23300000D01*
G75*
G02*
X6820000Y23210000I0J-90000D01*
G01*
X6820000Y22490000D01*
G75*
G02*
X6730000Y22400000I-90000J0D01*
G01*
G37*
G04 #@! TD*
G04 #@! TO.C,D22*
G36*
G01*
X58687498Y48841498D02*
X58687498Y48361498D01*
G75*
G02*
X58627498Y48301498I-60000J0D01*
G01*
X58147498Y48301498D01*
G75*
G02*
X58087498Y48361498I0J60000D01*
G01*
X58087498Y48841498D01*
G75*
G02*
X58147498Y48901498I60000J0D01*
G01*
X58627498Y48901498D01*
G75*
G02*
X58687498Y48841498I0J-60000D01*
G01*
G37*
G36*
G01*
X58687498Y51041498D02*
X58687498Y50561498D01*
G75*
G02*
X58627498Y50501498I-60000J0D01*
G01*
X58147498Y50501498D01*
G75*
G02*
X58087498Y50561498I0J60000D01*
G01*
X58087498Y51041498D01*
G75*
G02*
X58147498Y51101498I60000J0D01*
G01*
X58627498Y51101498D01*
G75*
G02*
X58687498Y51041498I0J-60000D01*
G01*
G37*
G04 #@! TD*
G04 #@! TO.C,R1112*
G36*
G01*
X70750000Y77835000D02*
X70750000Y78615000D01*
G75*
G02*
X70820000Y78685000I70000J0D01*
G01*
X71380000Y78685000D01*
G75*
G02*
X71450000Y78615000I0J-70000D01*
G01*
X71450000Y77835000D01*
G75*
G02*
X71380000Y77765000I-70000J0D01*
G01*
X70820000Y77765000D01*
G75*
G02*
X70750000Y77835000I0J70000D01*
G01*
G37*
G36*
G01*
X72350000Y77835000D02*
X72350000Y78615000D01*
G75*
G02*
X72420000Y78685000I70000J0D01*
G01*
X72980000Y78685000D01*
G75*
G02*
X73050000Y78615000I0J-70000D01*
G01*
X73050000Y77835000D01*
G75*
G02*
X72980000Y77765000I-70000J0D01*
G01*
X72420000Y77765000D01*
G75*
G02*
X72350000Y77835000I0J70000D01*
G01*
G37*
G04 #@! TD*
G04 #@! TO.C,R32*
G36*
G01*
X82450000Y72590000D02*
X82450000Y71810000D01*
G75*
G02*
X82380000Y71740000I-70000J0D01*
G01*
X81820000Y71740000D01*
G75*
G02*
X81750000Y71810000I0J70000D01*
G01*
X81750000Y72590000D01*
G75*
G02*
X81820000Y72660000I70000J0D01*
G01*
X82380000Y72660000D01*
G75*
G02*
X82450000Y72590000I0J-70000D01*
G01*
G37*
G36*
G01*
X80850000Y72590000D02*
X80850000Y71810000D01*
G75*
G02*
X80780000Y71740000I-70000J0D01*
G01*
X80220000Y71740000D01*
G75*
G02*
X80150000Y71810000I0J70000D01*
G01*
X80150000Y72590000D01*
G75*
G02*
X80220000Y72660000I70000J0D01*
G01*
X80780000Y72660000D01*
G75*
G02*
X80850000Y72590000I0J-70000D01*
G01*
G37*
G04 #@! TD*
G04 #@! TO.C,D65*
G36*
G01*
X89715000Y67075000D02*
X88695000Y67075000D01*
G75*
G02*
X88605000Y67165000I0J90000D01*
G01*
X88605000Y67885000D01*
G75*
G02*
X88695000Y67975000I90000J0D01*
G01*
X89715000Y67975000D01*
G75*
G02*
X89805000Y67885000I0J-90000D01*
G01*
X89805000Y67165000D01*
G75*
G02*
X89715000Y67075000I-90000J0D01*
G01*
G37*
G36*
G01*
X89715000Y70375000D02*
X88695000Y70375000D01*
G75*
G02*
X88605000Y70465000I0J90000D01*
G01*
X88605000Y71185000D01*
G75*
G02*
X88695000Y71275000I90000J0D01*
G01*
X89715000Y71275000D01*
G75*
G02*
X89805000Y71185000I0J-90000D01*
G01*
X89805000Y70465000D01*
G75*
G02*
X89715000Y70375000I-90000J0D01*
G01*
G37*
G04 #@! TD*
G04 #@! TO.C,D42*
G36*
G01*
X72000000Y48840000D02*
X72000000Y48360000D01*
G75*
G02*
X71940000Y48300000I-60000J0D01*
G01*
X71460000Y48300000D01*
G75*
G02*
X71400000Y48360000I0J60000D01*
G01*
X71400000Y48840000D01*
G75*
G02*
X71460000Y48900000I60000J0D01*
G01*
X71940000Y48900000D01*
G75*
G02*
X72000000Y48840000I0J-60000D01*
G01*
G37*
G36*
G01*
X72000000Y51040000D02*
X72000000Y50560000D01*
G75*
G02*
X71940000Y50500000I-60000J0D01*
G01*
X71460000Y50500000D01*
G75*
G02*
X71400000Y50560000I0J60000D01*
G01*
X71400000Y51040000D01*
G75*
G02*
X71460000Y51100000I60000J0D01*
G01*
X71940000Y51100000D01*
G75*
G02*
X72000000Y51040000I0J-60000D01*
G01*
G37*
G04 #@! TD*
G04 #@! TO.C,C7*
G36*
G01*
X54445290Y79715000D02*
X54445290Y80765000D01*
G75*
G02*
X54545290Y80865000I100000J0D01*
G01*
X55345290Y80865000D01*
G75*
G02*
X55445290Y80765000I0J-100000D01*
G01*
X55445290Y79715000D01*
G75*
G02*
X55345290Y79615000I-100000J0D01*
G01*
X54545290Y79615000D01*
G75*
G02*
X54445290Y79715000I0J100000D01*
G01*
G37*
G36*
G01*
X56445290Y79715000D02*
X56445290Y80765000D01*
G75*
G02*
X56545290Y80865000I100000J0D01*
G01*
X57345290Y80865000D01*
G75*
G02*
X57445290Y80765000I0J-100000D01*
G01*
X57445290Y79715000D01*
G75*
G02*
X57345290Y79615000I-100000J0D01*
G01*
X56545290Y79615000D01*
G75*
G02*
X56445290Y79715000I0J100000D01*
G01*
G37*
G04 #@! TD*
G04 #@! TO.C,R36*
G36*
G01*
X64850000Y79990000D02*
X64850000Y79210000D01*
G75*
G02*
X64780000Y79140000I-70000J0D01*
G01*
X64220000Y79140000D01*
G75*
G02*
X64150000Y79210000I0J70000D01*
G01*
X64150000Y79990000D01*
G75*
G02*
X64220000Y80060000I70000J0D01*
G01*
X64780000Y80060000D01*
G75*
G02*
X64850000Y79990000I0J-70000D01*
G01*
G37*
G36*
G01*
X63250000Y79990000D02*
X63250000Y79210000D01*
G75*
G02*
X63180000Y79140000I-70000J0D01*
G01*
X62620000Y79140000D01*
G75*
G02*
X62550000Y79210000I0J70000D01*
G01*
X62550000Y79990000D01*
G75*
G02*
X62620000Y80060000I70000J0D01*
G01*
X63180000Y80060000D01*
G75*
G02*
X63250000Y79990000I0J-70000D01*
G01*
G37*
G04 #@! TD*
G04 #@! TO.C,R88*
G36*
G01*
X15450000Y71910000D02*
X15450000Y72690000D01*
G75*
G02*
X15520000Y72760000I70000J0D01*
G01*
X16080000Y72760000D01*
G75*
G02*
X16150000Y72690000I0J-70000D01*
G01*
X16150000Y71910000D01*
G75*
G02*
X16080000Y71840000I-70000J0D01*
G01*
X15520000Y71840000D01*
G75*
G02*
X15450000Y71910000I0J70000D01*
G01*
G37*
G36*
G01*
X17050000Y71910000D02*
X17050000Y72690000D01*
G75*
G02*
X17120000Y72760000I70000J0D01*
G01*
X17680000Y72760000D01*
G75*
G02*
X17750000Y72690000I0J-70000D01*
G01*
X17750000Y71910000D01*
G75*
G02*
X17680000Y71840000I-70000J0D01*
G01*
X17120000Y71840000D01*
G75*
G02*
X17050000Y71910000I0J70000D01*
G01*
G37*
G04 #@! TD*
G04 #@! TO.C,Q3*
G36*
G01*
X35737500Y75000000D02*
X35737500Y74700000D01*
G75*
G02*
X35587500Y74550000I-150000J0D01*
G01*
X34412500Y74550000D01*
G75*
G02*
X34262500Y74700000I0J150000D01*
G01*
X34262500Y75000000D01*
G75*
G02*
X34412500Y75150000I150000J0D01*
G01*
X35587500Y75150000D01*
G75*
G02*
X35737500Y75000000I0J-150000D01*
G01*
G37*
G36*
G01*
X33862500Y74050000D02*
X33862500Y73750000D01*
G75*
G02*
X33712500Y73600000I-150000J0D01*
G01*
X32537500Y73600000D01*
G75*
G02*
X32387500Y73750000I0J150000D01*
G01*
X32387500Y74050000D01*
G75*
G02*
X32537500Y74200000I150000J0D01*
G01*
X33712500Y74200000D01*
G75*
G02*
X33862500Y74050000I0J-150000D01*
G01*
G37*
G36*
G01*
X35737500Y73100000D02*
X35737500Y72800000D01*
G75*
G02*
X35587500Y72650000I-150000J0D01*
G01*
X34412500Y72650000D01*
G75*
G02*
X34262500Y72800000I0J150000D01*
G01*
X34262500Y73100000D01*
G75*
G02*
X34412500Y73250000I150000J0D01*
G01*
X35587500Y73250000D01*
G75*
G02*
X35737500Y73100000I0J-150000D01*
G01*
G37*
G04 #@! TD*
G04 #@! TO.C,R1127*
G36*
G01*
X38590000Y72750000D02*
X37810000Y72750000D01*
G75*
G02*
X37740000Y72820000I0J70000D01*
G01*
X37740000Y73380000D01*
G75*
G02*
X37810000Y73450000I70000J0D01*
G01*
X38590000Y73450000D01*
G75*
G02*
X38660000Y73380000I0J-70000D01*
G01*
X38660000Y72820000D01*
G75*
G02*
X38590000Y72750000I-70000J0D01*
G01*
G37*
G36*
G01*
X38590000Y74350000D02*
X37810000Y74350000D01*
G75*
G02*
X37740000Y74420000I0J70000D01*
G01*
X37740000Y74980000D01*
G75*
G02*
X37810000Y75050000I70000J0D01*
G01*
X38590000Y75050000D01*
G75*
G02*
X38660000Y74980000I0J-70000D01*
G01*
X38660000Y74420000D01*
G75*
G02*
X38590000Y74350000I-70000J0D01*
G01*
G37*
G04 #@! TD*
G04 #@! TO.C,C16*
G36*
G01*
X57445290Y88465000D02*
X57445290Y87415000D01*
G75*
G02*
X57345290Y87315000I-100000J0D01*
G01*
X56545290Y87315000D01*
G75*
G02*
X56445290Y87415000I0J100000D01*
G01*
X56445290Y88465000D01*
G75*
G02*
X56545290Y88565000I100000J0D01*
G01*
X57345290Y88565000D01*
G75*
G02*
X57445290Y88465000I0J-100000D01*
G01*
G37*
G36*
G01*
X55445290Y88465000D02*
X55445290Y87415000D01*
G75*
G02*
X55345290Y87315000I-100000J0D01*
G01*
X54545290Y87315000D01*
G75*
G02*
X54445290Y87415000I0J100000D01*
G01*
X54445290Y88465000D01*
G75*
G02*
X54545290Y88565000I100000J0D01*
G01*
X55345290Y88565000D01*
G75*
G02*
X55445290Y88465000I0J-100000D01*
G01*
G37*
G04 #@! TD*
G04 #@! TO.C,R41*
G36*
G01*
X45290000Y72750000D02*
X44510000Y72750000D01*
G75*
G02*
X44440000Y72820000I0J70000D01*
G01*
X44440000Y73380000D01*
G75*
G02*
X44510000Y73450000I70000J0D01*
G01*
X45290000Y73450000D01*
G75*
G02*
X45360000Y73380000I0J-70000D01*
G01*
X45360000Y72820000D01*
G75*
G02*
X45290000Y72750000I-70000J0D01*
G01*
G37*
G36*
G01*
X45290000Y74350000D02*
X44510000Y74350000D01*
G75*
G02*
X44440000Y74420000I0J70000D01*
G01*
X44440000Y74980000D01*
G75*
G02*
X44510000Y75050000I70000J0D01*
G01*
X45290000Y75050000D01*
G75*
G02*
X45360000Y74980000I0J-70000D01*
G01*
X45360000Y74420000D01*
G75*
G02*
X45290000Y74350000I-70000J0D01*
G01*
G37*
G04 #@! TD*
G04 #@! TO.C,R79*
G36*
G01*
X21250000Y74090000D02*
X21250000Y73310000D01*
G75*
G02*
X21180000Y73240000I-70000J0D01*
G01*
X20620000Y73240000D01*
G75*
G02*
X20550000Y73310000I0J70000D01*
G01*
X20550000Y74090000D01*
G75*
G02*
X20620000Y74160000I70000J0D01*
G01*
X21180000Y74160000D01*
G75*
G02*
X21250000Y74090000I0J-70000D01*
G01*
G37*
G36*
G01*
X19650000Y74090000D02*
X19650000Y73310000D01*
G75*
G02*
X19580000Y73240000I-70000J0D01*
G01*
X19020000Y73240000D01*
G75*
G02*
X18950000Y73310000I0J70000D01*
G01*
X18950000Y74090000D01*
G75*
G02*
X19020000Y74160000I70000J0D01*
G01*
X19580000Y74160000D01*
G75*
G02*
X19650000Y74090000I0J-70000D01*
G01*
G37*
G04 #@! TD*
G04 #@! TO.C,R33*
G36*
G01*
X67925000Y84687501D02*
X69175000Y84687501D01*
G75*
G02*
X69275000Y84587501I0J-100000D01*
G01*
X69275000Y83787501D01*
G75*
G02*
X69175000Y83687501I-100000J0D01*
G01*
X67925000Y83687501D01*
G75*
G02*
X67825000Y83787501I0J100000D01*
G01*
X67825000Y84587501D01*
G75*
G02*
X67925000Y84687501I100000J0D01*
G01*
G37*
G36*
G01*
X67925000Y82787479D02*
X69175000Y82787479D01*
G75*
G02*
X69275000Y82687479I0J-100000D01*
G01*
X69275000Y81887479D01*
G75*
G02*
X69175000Y81787479I-100000J0D01*
G01*
X67925000Y81787479D01*
G75*
G02*
X67825000Y81887479I0J100000D01*
G01*
X67825000Y82687479D01*
G75*
G02*
X67925000Y82787479I100000J0D01*
G01*
G37*
G04 #@! TD*
G04 #@! TO.C,R81*
G36*
G01*
X17750000Y75490000D02*
X17750000Y74710000D01*
G75*
G02*
X17680000Y74640000I-70000J0D01*
G01*
X17120000Y74640000D01*
G75*
G02*
X17050000Y74710000I0J70000D01*
G01*
X17050000Y75490000D01*
G75*
G02*
X17120000Y75560000I70000J0D01*
G01*
X17680000Y75560000D01*
G75*
G02*
X17750000Y75490000I0J-70000D01*
G01*
G37*
G36*
G01*
X16150000Y75490000D02*
X16150000Y74710000D01*
G75*
G02*
X16080000Y74640000I-70000J0D01*
G01*
X15520000Y74640000D01*
G75*
G02*
X15450000Y74710000I0J70000D01*
G01*
X15450000Y75490000D01*
G75*
G02*
X15520000Y75560000I70000J0D01*
G01*
X16080000Y75560000D01*
G75*
G02*
X16150000Y75490000I0J-70000D01*
G01*
G37*
G04 #@! TD*
G04 #@! TO.C,R1128*
G36*
G01*
X39310000Y75050000D02*
X40090000Y75050000D01*
G75*
G02*
X40160000Y74980000I0J-70000D01*
G01*
X40160000Y74420000D01*
G75*
G02*
X40090000Y74350000I-70000J0D01*
G01*
X39310000Y74350000D01*
G75*
G02*
X39240000Y74420000I0J70000D01*
G01*
X39240000Y74980000D01*
G75*
G02*
X39310000Y75050000I70000J0D01*
G01*
G37*
G36*
G01*
X39310000Y73450000D02*
X40090000Y73450000D01*
G75*
G02*
X40160000Y73380000I0J-70000D01*
G01*
X40160000Y72820000D01*
G75*
G02*
X40090000Y72750000I-70000J0D01*
G01*
X39310000Y72750000D01*
G75*
G02*
X39240000Y72820000I0J70000D01*
G01*
X39240000Y73380000D01*
G75*
G02*
X39310000Y73450000I70000J0D01*
G01*
G37*
G04 #@! TD*
G04 #@! TO.C,D19*
G36*
G01*
X34200000Y86512500D02*
X34500000Y86512500D01*
G75*
G02*
X34650000Y86362500I0J-150000D01*
G01*
X34650000Y85187500D01*
G75*
G02*
X34500000Y85037500I-150000J0D01*
G01*
X34200000Y85037500D01*
G75*
G02*
X34050000Y85187500I0J150000D01*
G01*
X34050000Y86362500D01*
G75*
G02*
X34200000Y86512500I150000J0D01*
G01*
G37*
G36*
G01*
X36100000Y86512500D02*
X36400000Y86512500D01*
G75*
G02*
X36550000Y86362500I0J-150000D01*
G01*
X36550000Y85187500D01*
G75*
G02*
X36400000Y85037500I-150000J0D01*
G01*
X36100000Y85037500D01*
G75*
G02*
X35950000Y85187500I0J150000D01*
G01*
X35950000Y86362500D01*
G75*
G02*
X36100000Y86512500I150000J0D01*
G01*
G37*
G36*
G01*
X35150000Y84637500D02*
X35450000Y84637500D01*
G75*
G02*
X35600000Y84487500I0J-150000D01*
G01*
X35600000Y83312500D01*
G75*
G02*
X35450000Y83162500I-150000J0D01*
G01*
X35150000Y83162500D01*
G75*
G02*
X35000000Y83312500I0J150000D01*
G01*
X35000000Y84487500D01*
G75*
G02*
X35150000Y84637500I150000J0D01*
G01*
G37*
G04 #@! TD*
G04 #@! TO.C,R1140*
G36*
G01*
X24850000Y68527500D02*
X24850000Y67747500D01*
G75*
G02*
X24780000Y67677500I-70000J0D01*
G01*
X24220000Y67677500D01*
G75*
G02*
X24150000Y67747500I0J70000D01*
G01*
X24150000Y68527500D01*
G75*
G02*
X24220000Y68597500I70000J0D01*
G01*
X24780000Y68597500D01*
G75*
G02*
X24850000Y68527500I0J-70000D01*
G01*
G37*
G36*
G01*
X23250000Y68527500D02*
X23250000Y67747500D01*
G75*
G02*
X23180000Y67677500I-70000J0D01*
G01*
X22620000Y67677500D01*
G75*
G02*
X22550000Y67747500I0J70000D01*
G01*
X22550000Y68527500D01*
G75*
G02*
X22620000Y68597500I70000J0D01*
G01*
X23180000Y68597500D01*
G75*
G02*
X23250000Y68527500I0J-70000D01*
G01*
G37*
G04 #@! TD*
G04 #@! TO.C,R1135*
G36*
G01*
X43400000Y67704990D02*
X43400000Y68394990D01*
G75*
G02*
X43630000Y68624990I230000J0D01*
G01*
X44970000Y68624990D01*
G75*
G02*
X45200000Y68394990I0J-230000D01*
G01*
X45200000Y67704990D01*
G75*
G02*
X44970000Y67474990I-230000J0D01*
G01*
X43630000Y67474990D01*
G75*
G02*
X43400000Y67704990I0J230000D01*
G01*
G37*
G36*
G01*
X43400000Y70605010D02*
X43400000Y71295010D01*
G75*
G02*
X43630000Y71525010I230000J0D01*
G01*
X44970000Y71525010D01*
G75*
G02*
X45200000Y71295010I0J-230000D01*
G01*
X45200000Y70605010D01*
G75*
G02*
X44970000Y70375010I-230000J0D01*
G01*
X43630000Y70375010D01*
G75*
G02*
X43400000Y70605010I0J230000D01*
G01*
G37*
G04 #@! TD*
G04 #@! TO.C,D26*
G36*
G01*
X69260000Y85237500D02*
X68240000Y85237500D01*
G75*
G02*
X68150000Y85327500I0J90000D01*
G01*
X68150000Y86047500D01*
G75*
G02*
X68240000Y86137500I90000J0D01*
G01*
X69260000Y86137500D01*
G75*
G02*
X69350000Y86047500I0J-90000D01*
G01*
X69350000Y85327500D01*
G75*
G02*
X69260000Y85237500I-90000J0D01*
G01*
G37*
G36*
G01*
X69260000Y88537500D02*
X68240000Y88537500D01*
G75*
G02*
X68150000Y88627500I0J90000D01*
G01*
X68150000Y89347500D01*
G75*
G02*
X68240000Y89437500I90000J0D01*
G01*
X69260000Y89437500D01*
G75*
G02*
X69350000Y89347500I0J-90000D01*
G01*
X69350000Y88627500D01*
G75*
G02*
X69260000Y88537500I-90000J0D01*
G01*
G37*
G04 #@! TD*
G04 #@! TO.C,R1125*
G36*
G01*
X37052500Y72750000D02*
X36272500Y72750000D01*
G75*
G02*
X36202500Y72820000I0J70000D01*
G01*
X36202500Y73380000D01*
G75*
G02*
X36272500Y73450000I70000J0D01*
G01*
X37052500Y73450000D01*
G75*
G02*
X37122500Y73380000I0J-70000D01*
G01*
X37122500Y72820000D01*
G75*
G02*
X37052500Y72750000I-70000J0D01*
G01*
G37*
G36*
G01*
X37052500Y74350000D02*
X36272500Y74350000D01*
G75*
G02*
X36202500Y74420000I0J70000D01*
G01*
X36202500Y74980000D01*
G75*
G02*
X36272500Y75050000I70000J0D01*
G01*
X37052500Y75050000D01*
G75*
G02*
X37122500Y74980000I0J-70000D01*
G01*
X37122500Y74420000D01*
G75*
G02*
X37052500Y74350000I-70000J0D01*
G01*
G37*
G04 #@! TD*
G04 #@! TO.C,D8*
G36*
G01*
X68200000Y48840000D02*
X68200000Y48360000D01*
G75*
G02*
X68140000Y48300000I-60000J0D01*
G01*
X67660000Y48300000D01*
G75*
G02*
X67600000Y48360000I0J60000D01*
G01*
X67600000Y48840000D01*
G75*
G02*
X67660000Y48900000I60000J0D01*
G01*
X68140000Y48900000D01*
G75*
G02*
X68200000Y48840000I0J-60000D01*
G01*
G37*
G36*
G01*
X68200000Y51040000D02*
X68200000Y50560000D01*
G75*
G02*
X68140000Y50500000I-60000J0D01*
G01*
X67660000Y50500000D01*
G75*
G02*
X67600000Y50560000I0J60000D01*
G01*
X67600000Y51040000D01*
G75*
G02*
X67660000Y51100000I60000J0D01*
G01*
X68140000Y51100000D01*
G75*
G02*
X68200000Y51040000I0J-60000D01*
G01*
G37*
G04 #@! TD*
G04 #@! TO.C,R14*
G36*
G01*
X26650000Y35067581D02*
X26650000Y35847581D01*
G75*
G02*
X26720000Y35917581I70000J0D01*
G01*
X27280000Y35917581D01*
G75*
G02*
X27350000Y35847581I0J-70000D01*
G01*
X27350000Y35067581D01*
G75*
G02*
X27280000Y34997581I-70000J0D01*
G01*
X26720000Y34997581D01*
G75*
G02*
X26650000Y35067581I0J70000D01*
G01*
G37*
G36*
G01*
X28250000Y35067581D02*
X28250000Y35847581D01*
G75*
G02*
X28320000Y35917581I70000J0D01*
G01*
X28880000Y35917581D01*
G75*
G02*
X28950000Y35847581I0J-70000D01*
G01*
X28950000Y35067581D01*
G75*
G02*
X28880000Y34997581I-70000J0D01*
G01*
X28320000Y34997581D01*
G75*
G02*
X28250000Y35067581I0J70000D01*
G01*
G37*
G04 #@! TD*
G04 #@! TO.C,D72*
G36*
G01*
X65800000Y89310000D02*
X65800000Y88290000D01*
G75*
G02*
X65710000Y88200000I-90000J0D01*
G01*
X64990000Y88200000D01*
G75*
G02*
X64900000Y88290000I0J90000D01*
G01*
X64900000Y89310000D01*
G75*
G02*
X64990000Y89400000I90000J0D01*
G01*
X65710000Y89400000D01*
G75*
G02*
X65800000Y89310000I0J-90000D01*
G01*
G37*
G36*
G01*
X62500000Y89310000D02*
X62500000Y88290000D01*
G75*
G02*
X62410000Y88200000I-90000J0D01*
G01*
X61690000Y88200000D01*
G75*
G02*
X61600000Y88290000I0J90000D01*
G01*
X61600000Y89310000D01*
G75*
G02*
X61690000Y89400000I90000J0D01*
G01*
X62410000Y89400000D01*
G75*
G02*
X62500000Y89310000I0J-90000D01*
G01*
G37*
G04 #@! TD*
G04 #@! TO.C,R1126*
G36*
G01*
X33800000Y67704990D02*
X33800000Y68394990D01*
G75*
G02*
X34030000Y68624990I230000J0D01*
G01*
X35370000Y68624990D01*
G75*
G02*
X35600000Y68394990I0J-230000D01*
G01*
X35600000Y67704990D01*
G75*
G02*
X35370000Y67474990I-230000J0D01*
G01*
X34030000Y67474990D01*
G75*
G02*
X33800000Y67704990I0J230000D01*
G01*
G37*
G36*
G01*
X33800000Y70605010D02*
X33800000Y71295010D01*
G75*
G02*
X34030000Y71525010I230000J0D01*
G01*
X35370000Y71525010D01*
G75*
G02*
X35600000Y71295010I0J-230000D01*
G01*
X35600000Y70605010D01*
G75*
G02*
X35370000Y70375010I-230000J0D01*
G01*
X34030000Y70375010D01*
G75*
G02*
X33800000Y70605010I0J230000D01*
G01*
G37*
G04 #@! TD*
G04 #@! TO.C,R1132*
G36*
G01*
X31072500Y75050000D02*
X31852500Y75050000D01*
G75*
G02*
X31922500Y74980000I0J-70000D01*
G01*
X31922500Y74420000D01*
G75*
G02*
X31852500Y74350000I-70000J0D01*
G01*
X31072500Y74350000D01*
G75*
G02*
X31002500Y74420000I0J70000D01*
G01*
X31002500Y74980000D01*
G75*
G02*
X31072500Y75050000I70000J0D01*
G01*
G37*
G36*
G01*
X31072500Y73450000D02*
X31852500Y73450000D01*
G75*
G02*
X31922500Y73380000I0J-70000D01*
G01*
X31922500Y72820000D01*
G75*
G02*
X31852500Y72750000I-70000J0D01*
G01*
X31072500Y72750000D01*
G75*
G02*
X31002500Y72820000I0J70000D01*
G01*
X31002500Y73380000D01*
G75*
G02*
X31072500Y73450000I70000J0D01*
G01*
G37*
G04 #@! TD*
G04 #@! TO.C,D29*
G36*
G01*
X38800000Y81112500D02*
X39100000Y81112500D01*
G75*
G02*
X39250000Y80962500I0J-150000D01*
G01*
X39250000Y79787500D01*
G75*
G02*
X39100000Y79637500I-150000J0D01*
G01*
X38800000Y79637500D01*
G75*
G02*
X38650000Y79787500I0J150000D01*
G01*
X38650000Y80962500D01*
G75*
G02*
X38800000Y81112500I150000J0D01*
G01*
G37*
G36*
G01*
X39750000Y79237500D02*
X40050000Y79237500D01*
G75*
G02*
X40200000Y79087500I0J-150000D01*
G01*
X40200000Y77912500D01*
G75*
G02*
X40050000Y77762500I-150000J0D01*
G01*
X39750000Y77762500D01*
G75*
G02*
X39600000Y77912500I0J150000D01*
G01*
X39600000Y79087500D01*
G75*
G02*
X39750000Y79237500I150000J0D01*
G01*
G37*
G36*
G01*
X40700000Y81112500D02*
X41000000Y81112500D01*
G75*
G02*
X41150000Y80962500I0J-150000D01*
G01*
X41150000Y79787500D01*
G75*
G02*
X41000000Y79637500I-150000J0D01*
G01*
X40700000Y79637500D01*
G75*
G02*
X40550000Y79787500I0J150000D01*
G01*
X40550000Y80962500D01*
G75*
G02*
X40700000Y81112500I150000J0D01*
G01*
G37*
G04 #@! TD*
G04 #@! TO.C,D71*
G36*
G01*
X60530000Y81600000D02*
X59510000Y81600000D01*
G75*
G02*
X59420000Y81690000I0J90000D01*
G01*
X59420000Y82410000D01*
G75*
G02*
X59510000Y82500000I90000J0D01*
G01*
X60530000Y82500000D01*
G75*
G02*
X60620000Y82410000I0J-90000D01*
G01*
X60620000Y81690000D01*
G75*
G02*
X60530000Y81600000I-90000J0D01*
G01*
G37*
G36*
G01*
X60530000Y84900000D02*
X59510000Y84900000D01*
G75*
G02*
X59420000Y84990000I0J90000D01*
G01*
X59420000Y85710000D01*
G75*
G02*
X59510000Y85800000I90000J0D01*
G01*
X60530000Y85800000D01*
G75*
G02*
X60620000Y85710000I0J-90000D01*
G01*
X60620000Y84990000D01*
G75*
G02*
X60530000Y84900000I-90000J0D01*
G01*
G37*
G04 #@! TD*
G04 #@! TO.C,R47*
G36*
G01*
X62550000Y83410000D02*
X62550000Y84190000D01*
G75*
G02*
X62620000Y84260000I70000J0D01*
G01*
X63180000Y84260000D01*
G75*
G02*
X63250000Y84190000I0J-70000D01*
G01*
X63250000Y83410000D01*
G75*
G02*
X63180000Y83340000I-70000J0D01*
G01*
X62620000Y83340000D01*
G75*
G02*
X62550000Y83410000I0J70000D01*
G01*
G37*
G36*
G01*
X64150000Y83410000D02*
X64150000Y84190000D01*
G75*
G02*
X64220000Y84260000I70000J0D01*
G01*
X64780000Y84260000D01*
G75*
G02*
X64850000Y84190000I0J-70000D01*
G01*
X64850000Y83410000D01*
G75*
G02*
X64780000Y83340000I-70000J0D01*
G01*
X64220000Y83340000D01*
G75*
G02*
X64150000Y83410000I0J70000D01*
G01*
G37*
G04 #@! TD*
G04 #@! TO.C,C9*
G36*
G01*
X47625000Y77900000D02*
X46575000Y77900000D01*
G75*
G02*
X46475000Y78000000I0J100000D01*
G01*
X46475000Y78800000D01*
G75*
G02*
X46575000Y78900000I100000J0D01*
G01*
X47625000Y78900000D01*
G75*
G02*
X47725000Y78800000I0J-100000D01*
G01*
X47725000Y78000000D01*
G75*
G02*
X47625000Y77900000I-100000J0D01*
G01*
G37*
G36*
G01*
X47625000Y79900000D02*
X46575000Y79900000D01*
G75*
G02*
X46475000Y80000000I0J100000D01*
G01*
X46475000Y80800000D01*
G75*
G02*
X46575000Y80900000I100000J0D01*
G01*
X47625000Y80900000D01*
G75*
G02*
X47725000Y80800000I0J-100000D01*
G01*
X47725000Y80000000D01*
G75*
G02*
X47625000Y79900000I-100000J0D01*
G01*
G37*
G04 #@! TD*
G04 #@! TO.C,C5*
G36*
G01*
X73465001Y86840000D02*
X73465001Y86160000D01*
G75*
G02*
X73380001Y86075000I-85000J0D01*
G01*
X72700001Y86075000D01*
G75*
G02*
X72615001Y86160000I0J85000D01*
G01*
X72615001Y86840000D01*
G75*
G02*
X72700001Y86925000I85000J0D01*
G01*
X73380001Y86925000D01*
G75*
G02*
X73465001Y86840000I0J-85000D01*
G01*
G37*
G36*
G01*
X71884999Y86840000D02*
X71884999Y86160000D01*
G75*
G02*
X71799999Y86075000I-85000J0D01*
G01*
X71119999Y86075000D01*
G75*
G02*
X71034999Y86160000I0J85000D01*
G01*
X71034999Y86840000D01*
G75*
G02*
X71119999Y86925000I85000J0D01*
G01*
X71799999Y86925000D01*
G75*
G02*
X71884999Y86840000I0J-85000D01*
G01*
G37*
G04 #@! TD*
G04 #@! TO.C,R3*
G36*
G01*
X29190000Y2750000D02*
X28410000Y2750000D01*
G75*
G02*
X28340000Y2820000I0J70000D01*
G01*
X28340000Y3380000D01*
G75*
G02*
X28410000Y3450000I70000J0D01*
G01*
X29190000Y3450000D01*
G75*
G02*
X29260000Y3380000I0J-70000D01*
G01*
X29260000Y2820000D01*
G75*
G02*
X29190000Y2750000I-70000J0D01*
G01*
G37*
G36*
G01*
X29190000Y4350000D02*
X28410000Y4350000D01*
G75*
G02*
X28340000Y4420000I0J70000D01*
G01*
X28340000Y4980000D01*
G75*
G02*
X28410000Y5050000I70000J0D01*
G01*
X29190000Y5050000D01*
G75*
G02*
X29260000Y4980000I0J-70000D01*
G01*
X29260000Y4420000D01*
G75*
G02*
X29190000Y4350000I-70000J0D01*
G01*
G37*
G04 #@! TD*
G04 #@! TO.C,R23*
G36*
G01*
X64850000Y85590000D02*
X64850000Y84810000D01*
G75*
G02*
X64780000Y84740000I-70000J0D01*
G01*
X64220000Y84740000D01*
G75*
G02*
X64150000Y84810000I0J70000D01*
G01*
X64150000Y85590000D01*
G75*
G02*
X64220000Y85660000I70000J0D01*
G01*
X64780000Y85660000D01*
G75*
G02*
X64850000Y85590000I0J-70000D01*
G01*
G37*
G36*
G01*
X63250000Y85590000D02*
X63250000Y84810000D01*
G75*
G02*
X63180000Y84740000I-70000J0D01*
G01*
X62620000Y84740000D01*
G75*
G02*
X62550000Y84810000I0J70000D01*
G01*
X62550000Y85590000D01*
G75*
G02*
X62620000Y85660000I70000J0D01*
G01*
X63180000Y85660000D01*
G75*
G02*
X63250000Y85590000I0J-70000D01*
G01*
G37*
G04 #@! TD*
G04 #@! TO.C,D21*
G36*
G01*
X54887497Y48841498D02*
X54887497Y48361498D01*
G75*
G02*
X54827497Y48301498I-60000J0D01*
G01*
X54347497Y48301498D01*
G75*
G02*
X54287497Y48361498I0J60000D01*
G01*
X54287497Y48841498D01*
G75*
G02*
X54347497Y48901498I60000J0D01*
G01*
X54827497Y48901498D01*
G75*
G02*
X54887497Y48841498I0J-60000D01*
G01*
G37*
G36*
G01*
X54887497Y51041498D02*
X54887497Y50561498D01*
G75*
G02*
X54827497Y50501498I-60000J0D01*
G01*
X54347497Y50501498D01*
G75*
G02*
X54287497Y50561498I0J60000D01*
G01*
X54287497Y51041498D01*
G75*
G02*
X54347497Y51101498I60000J0D01*
G01*
X54827497Y51101498D01*
G75*
G02*
X54887497Y51041498I0J-60000D01*
G01*
G37*
G04 #@! TD*
G04 #@! TO.C,R73*
G36*
G01*
X29300000Y67704990D02*
X29300000Y68394990D01*
G75*
G02*
X29530000Y68624990I230000J0D01*
G01*
X30870000Y68624990D01*
G75*
G02*
X31100000Y68394990I0J-230000D01*
G01*
X31100000Y67704990D01*
G75*
G02*
X30870000Y67474990I-230000J0D01*
G01*
X29530000Y67474990D01*
G75*
G02*
X29300000Y67704990I0J230000D01*
G01*
G37*
G36*
G01*
X29300000Y70605010D02*
X29300000Y71295010D01*
G75*
G02*
X29530000Y71525010I230000J0D01*
G01*
X30870000Y71525010D01*
G75*
G02*
X31100000Y71295010I0J-230000D01*
G01*
X31100000Y70605010D01*
G75*
G02*
X30870000Y70375010I-230000J0D01*
G01*
X29530000Y70375010D01*
G75*
G02*
X29300000Y70605010I0J230000D01*
G01*
G37*
G04 #@! TD*
G04 #@! TO.C,R92*
G36*
G01*
X62550000Y77810000D02*
X62550000Y78590000D01*
G75*
G02*
X62620000Y78660000I70000J0D01*
G01*
X63180000Y78660000D01*
G75*
G02*
X63250000Y78590000I0J-70000D01*
G01*
X63250000Y77810000D01*
G75*
G02*
X63180000Y77740000I-70000J0D01*
G01*
X62620000Y77740000D01*
G75*
G02*
X62550000Y77810000I0J70000D01*
G01*
G37*
G36*
G01*
X64150000Y77810000D02*
X64150000Y78590000D01*
G75*
G02*
X64220000Y78660000I70000J0D01*
G01*
X64780000Y78660000D01*
G75*
G02*
X64850000Y78590000I0J-70000D01*
G01*
X64850000Y77810000D01*
G75*
G02*
X64780000Y77740000I-70000J0D01*
G01*
X64220000Y77740000D01*
G75*
G02*
X64150000Y77810000I0J70000D01*
G01*
G37*
G04 #@! TD*
G04 #@! TO.C,D41*
G36*
G01*
X70100000Y48840000D02*
X70100000Y48360000D01*
G75*
G02*
X70040000Y48300000I-60000J0D01*
G01*
X69560000Y48300000D01*
G75*
G02*
X69500000Y48360000I0J60000D01*
G01*
X69500000Y48840000D01*
G75*
G02*
X69560000Y48900000I60000J0D01*
G01*
X70040000Y48900000D01*
G75*
G02*
X70100000Y48840000I0J-60000D01*
G01*
G37*
G36*
G01*
X70100000Y51040000D02*
X70100000Y50560000D01*
G75*
G02*
X70040000Y50500000I-60000J0D01*
G01*
X69560000Y50500000D01*
G75*
G02*
X69500000Y50560000I0J60000D01*
G01*
X69500000Y51040000D01*
G75*
G02*
X69560000Y51100000I60000J0D01*
G01*
X70040000Y51100000D01*
G75*
G02*
X70100000Y51040000I0J-60000D01*
G01*
G37*
G04 #@! TD*
G04 #@! TO.C,R31*
G36*
G01*
X82450000Y74290000D02*
X82450000Y73510000D01*
G75*
G02*
X82380000Y73440000I-70000J0D01*
G01*
X81820000Y73440000D01*
G75*
G02*
X81750000Y73510000I0J70000D01*
G01*
X81750000Y74290000D01*
G75*
G02*
X81820000Y74360000I70000J0D01*
G01*
X82380000Y74360000D01*
G75*
G02*
X82450000Y74290000I0J-70000D01*
G01*
G37*
G36*
G01*
X80850000Y74290000D02*
X80850000Y73510000D01*
G75*
G02*
X80780000Y73440000I-70000J0D01*
G01*
X80220000Y73440000D01*
G75*
G02*
X80150000Y73510000I0J70000D01*
G01*
X80150000Y74290000D01*
G75*
G02*
X80220000Y74360000I70000J0D01*
G01*
X80780000Y74360000D01*
G75*
G02*
X80850000Y74290000I0J-70000D01*
G01*
G37*
G04 #@! TD*
G04 #@! TO.C,R4*
G36*
G01*
X61450000Y79090000D02*
X61450000Y78310000D01*
G75*
G02*
X61380000Y78240000I-70000J0D01*
G01*
X60820000Y78240000D01*
G75*
G02*
X60750000Y78310000I0J70000D01*
G01*
X60750000Y79090000D01*
G75*
G02*
X60820000Y79160000I70000J0D01*
G01*
X61380000Y79160000D01*
G75*
G02*
X61450000Y79090000I0J-70000D01*
G01*
G37*
G36*
G01*
X59850000Y79090000D02*
X59850000Y78310000D01*
G75*
G02*
X59780000Y78240000I-70000J0D01*
G01*
X59220000Y78240000D01*
G75*
G02*
X59150000Y78310000I0J70000D01*
G01*
X59150000Y79090000D01*
G75*
G02*
X59220000Y79160000I70000J0D01*
G01*
X59780000Y79160000D01*
G75*
G02*
X59850000Y79090000I0J-70000D01*
G01*
G37*
G04 #@! TD*
D24*
G04 #@! TO.C,U1*
X51345290Y89340000D03*
X51345290Y88340000D03*
X51345290Y87340000D03*
X51345290Y86340000D03*
X51345290Y85340000D03*
X51345290Y84340000D03*
X41745290Y84340000D03*
X41745290Y85340000D03*
X41745290Y86340000D03*
X41745290Y87340000D03*
X41745290Y88340000D03*
X41745290Y89340000D03*
D25*
X46545290Y86840000D03*
G04 #@! TD*
G04 #@! TO.C,D2*
G36*
G01*
X85200000Y48840000D02*
X85200000Y48360000D01*
G75*
G02*
X85140000Y48300000I-60000J0D01*
G01*
X84660000Y48300000D01*
G75*
G02*
X84600000Y48360000I0J60000D01*
G01*
X84600000Y48840000D01*
G75*
G02*
X84660000Y48900000I60000J0D01*
G01*
X85140000Y48900000D01*
G75*
G02*
X85200000Y48840000I0J-60000D01*
G01*
G37*
G36*
G01*
X85200000Y51040000D02*
X85200000Y50560000D01*
G75*
G02*
X85140000Y50500000I-60000J0D01*
G01*
X84660000Y50500000D01*
G75*
G02*
X84600000Y50560000I0J60000D01*
G01*
X84600000Y51040000D01*
G75*
G02*
X84660000Y51100000I60000J0D01*
G01*
X85140000Y51100000D01*
G75*
G02*
X85200000Y51040000I0J-60000D01*
G01*
G37*
G04 #@! TD*
G04 #@! TO.C,R43*
G36*
G01*
X71100000Y83247500D02*
X71100000Y84027500D01*
G75*
G02*
X71170000Y84097500I70000J0D01*
G01*
X71730000Y84097500D01*
G75*
G02*
X71800000Y84027500I0J-70000D01*
G01*
X71800000Y83247500D01*
G75*
G02*
X71730000Y83177500I-70000J0D01*
G01*
X71170000Y83177500D01*
G75*
G02*
X71100000Y83247500I0J70000D01*
G01*
G37*
G36*
G01*
X72700000Y83247500D02*
X72700000Y84027500D01*
G75*
G02*
X72770000Y84097500I70000J0D01*
G01*
X73330000Y84097500D01*
G75*
G02*
X73400000Y84027500I0J-70000D01*
G01*
X73400000Y83247500D01*
G75*
G02*
X73330000Y83177500I-70000J0D01*
G01*
X72770000Y83177500D01*
G75*
G02*
X72700000Y83247500I0J70000D01*
G01*
G37*
G04 #@! TD*
G04 #@! TO.C,R1129*
G36*
G01*
X30352500Y72750000D02*
X29572500Y72750000D01*
G75*
G02*
X29502500Y72820000I0J70000D01*
G01*
X29502500Y73380000D01*
G75*
G02*
X29572500Y73450000I70000J0D01*
G01*
X30352500Y73450000D01*
G75*
G02*
X30422500Y73380000I0J-70000D01*
G01*
X30422500Y72820000D01*
G75*
G02*
X30352500Y72750000I-70000J0D01*
G01*
G37*
G36*
G01*
X30352500Y74350000D02*
X29572500Y74350000D01*
G75*
G02*
X29502500Y74420000I0J70000D01*
G01*
X29502500Y74980000D01*
G75*
G02*
X29572500Y75050000I70000J0D01*
G01*
X30352500Y75050000D01*
G75*
G02*
X30422500Y74980000I0J-70000D01*
G01*
X30422500Y74420000D01*
G75*
G02*
X30352500Y74350000I-70000J0D01*
G01*
G37*
G04 #@! TD*
G04 #@! TO.C,C8*
G36*
G01*
X45925000Y77900000D02*
X44875000Y77900000D01*
G75*
G02*
X44775000Y78000000I0J100000D01*
G01*
X44775000Y78800000D01*
G75*
G02*
X44875000Y78900000I100000J0D01*
G01*
X45925000Y78900000D01*
G75*
G02*
X46025000Y78800000I0J-100000D01*
G01*
X46025000Y78000000D01*
G75*
G02*
X45925000Y77900000I-100000J0D01*
G01*
G37*
G36*
G01*
X45925000Y79900000D02*
X44875000Y79900000D01*
G75*
G02*
X44775000Y80000000I0J100000D01*
G01*
X44775000Y80800000D01*
G75*
G02*
X44875000Y80900000I100000J0D01*
G01*
X45925000Y80900000D01*
G75*
G02*
X46025000Y80800000I0J-100000D01*
G01*
X46025000Y80000000D01*
G75*
G02*
X45925000Y79900000I-100000J0D01*
G01*
G37*
G04 #@! TD*
G04 #@! TO.C,Q12*
G36*
G01*
X80200000Y69675000D02*
X80500000Y69675000D01*
G75*
G02*
X80650000Y69525000I0J-150000D01*
G01*
X80650000Y68350000D01*
G75*
G02*
X80500000Y68200000I-150000J0D01*
G01*
X80200000Y68200000D01*
G75*
G02*
X80050000Y68350000I0J150000D01*
G01*
X80050000Y69525000D01*
G75*
G02*
X80200000Y69675000I150000J0D01*
G01*
G37*
G36*
G01*
X81150000Y67800000D02*
X81450000Y67800000D01*
G75*
G02*
X81600000Y67650000I0J-150000D01*
G01*
X81600000Y66475000D01*
G75*
G02*
X81450000Y66325000I-150000J0D01*
G01*
X81150000Y66325000D01*
G75*
G02*
X81000000Y66475000I0J150000D01*
G01*
X81000000Y67650000D01*
G75*
G02*
X81150000Y67800000I150000J0D01*
G01*
G37*
G36*
G01*
X82100000Y69675000D02*
X82400000Y69675000D01*
G75*
G02*
X82550000Y69525000I0J-150000D01*
G01*
X82550000Y68350000D01*
G75*
G02*
X82400000Y68200000I-150000J0D01*
G01*
X82100000Y68200000D01*
G75*
G02*
X81950000Y68350000I0J150000D01*
G01*
X81950000Y69525000D01*
G75*
G02*
X82100000Y69675000I150000J0D01*
G01*
G37*
G04 #@! TD*
G04 #@! TO.C,R77*
G36*
G01*
X62550000Y82010000D02*
X62550000Y82790000D01*
G75*
G02*
X62620000Y82860000I70000J0D01*
G01*
X63180000Y82860000D01*
G75*
G02*
X63250000Y82790000I0J-70000D01*
G01*
X63250000Y82010000D01*
G75*
G02*
X63180000Y81940000I-70000J0D01*
G01*
X62620000Y81940000D01*
G75*
G02*
X62550000Y82010000I0J70000D01*
G01*
G37*
G36*
G01*
X64150000Y82010000D02*
X64150000Y82790000D01*
G75*
G02*
X64220000Y82860000I70000J0D01*
G01*
X64780000Y82860000D01*
G75*
G02*
X64850000Y82790000I0J-70000D01*
G01*
X64850000Y82010000D01*
G75*
G02*
X64780000Y81940000I-70000J0D01*
G01*
X64220000Y81940000D01*
G75*
G02*
X64150000Y82010000I0J70000D01*
G01*
G37*
G04 #@! TD*
G04 #@! TO.C,C11*
G36*
G01*
X54445290Y78015000D02*
X54445290Y79065000D01*
G75*
G02*
X54545290Y79165000I100000J0D01*
G01*
X55345290Y79165000D01*
G75*
G02*
X55445290Y79065000I0J-100000D01*
G01*
X55445290Y78015000D01*
G75*
G02*
X55345290Y77915000I-100000J0D01*
G01*
X54545290Y77915000D01*
G75*
G02*
X54445290Y78015000I0J100000D01*
G01*
G37*
G36*
G01*
X56445290Y78015000D02*
X56445290Y79065000D01*
G75*
G02*
X56545290Y79165000I100000J0D01*
G01*
X57345290Y79165000D01*
G75*
G02*
X57445290Y79065000I0J-100000D01*
G01*
X57445290Y78015000D01*
G75*
G02*
X57345290Y77915000I-100000J0D01*
G01*
X56545290Y77915000D01*
G75*
G02*
X56445290Y78015000I0J100000D01*
G01*
G37*
G04 #@! TD*
G04 #@! TO.C,R6*
G36*
G01*
X31990000Y2750000D02*
X31210000Y2750000D01*
G75*
G02*
X31140000Y2820000I0J70000D01*
G01*
X31140000Y3380000D01*
G75*
G02*
X31210000Y3450000I70000J0D01*
G01*
X31990000Y3450000D01*
G75*
G02*
X32060000Y3380000I0J-70000D01*
G01*
X32060000Y2820000D01*
G75*
G02*
X31990000Y2750000I-70000J0D01*
G01*
G37*
G36*
G01*
X31990000Y4350000D02*
X31210000Y4350000D01*
G75*
G02*
X31140000Y4420000I0J70000D01*
G01*
X31140000Y4980000D01*
G75*
G02*
X31210000Y5050000I70000J0D01*
G01*
X31990000Y5050000D01*
G75*
G02*
X32060000Y4980000I0J-70000D01*
G01*
X32060000Y4420000D01*
G75*
G02*
X31990000Y4350000I-70000J0D01*
G01*
G37*
G04 #@! TD*
G04 #@! TO.C,Q2*
G36*
G01*
X28900000Y36482581D02*
X28600000Y36482581D01*
G75*
G02*
X28450000Y36632581I0J150000D01*
G01*
X28450000Y37807581D01*
G75*
G02*
X28600000Y37957581I150000J0D01*
G01*
X28900000Y37957581D01*
G75*
G02*
X29050000Y37807581I0J-150000D01*
G01*
X29050000Y36632581D01*
G75*
G02*
X28900000Y36482581I-150000J0D01*
G01*
G37*
G36*
G01*
X27000000Y36482581D02*
X26700000Y36482581D01*
G75*
G02*
X26550000Y36632581I0J150000D01*
G01*
X26550000Y37807581D01*
G75*
G02*
X26700000Y37957581I150000J0D01*
G01*
X27000000Y37957581D01*
G75*
G02*
X27150000Y37807581I0J-150000D01*
G01*
X27150000Y36632581D01*
G75*
G02*
X27000000Y36482581I-150000J0D01*
G01*
G37*
G36*
G01*
X27950000Y38357581D02*
X27650000Y38357581D01*
G75*
G02*
X27500000Y38507581I0J150000D01*
G01*
X27500000Y39682581D01*
G75*
G02*
X27650000Y39832581I150000J0D01*
G01*
X27950000Y39832581D01*
G75*
G02*
X28100000Y39682581I0J-150000D01*
G01*
X28100000Y38507581D01*
G75*
G02*
X27950000Y38357581I-150000J0D01*
G01*
G37*
G04 #@! TD*
G04 #@! TO.C,D38*
G36*
G01*
X63712502Y48358501D02*
X63712502Y48838501D01*
G75*
G02*
X63772502Y48898501I60000J0D01*
G01*
X64252502Y48898501D01*
G75*
G02*
X64312502Y48838501I0J-60000D01*
G01*
X64312502Y48358501D01*
G75*
G02*
X64252502Y48298501I-60000J0D01*
G01*
X63772502Y48298501D01*
G75*
G02*
X63712502Y48358501I0J60000D01*
G01*
G37*
G36*
G01*
X63712502Y46158501D02*
X63712502Y46638501D01*
G75*
G02*
X63772502Y46698501I60000J0D01*
G01*
X64252502Y46698501D01*
G75*
G02*
X64312502Y46638501I0J-60000D01*
G01*
X64312502Y46158501D01*
G75*
G02*
X64252502Y46098501I-60000J0D01*
G01*
X63772502Y46098501D01*
G75*
G02*
X63712502Y46158501I0J60000D01*
G01*
G37*
G04 #@! TD*
G04 #@! TO.C,D3*
G36*
G01*
X87087497Y48841498D02*
X87087497Y48361498D01*
G75*
G02*
X87027497Y48301498I-60000J0D01*
G01*
X86547497Y48301498D01*
G75*
G02*
X86487497Y48361498I0J60000D01*
G01*
X86487497Y48841498D01*
G75*
G02*
X86547497Y48901498I60000J0D01*
G01*
X87027497Y48901498D01*
G75*
G02*
X87087497Y48841498I0J-60000D01*
G01*
G37*
G36*
G01*
X87087497Y51041498D02*
X87087497Y50561498D01*
G75*
G02*
X87027497Y50501498I-60000J0D01*
G01*
X86547497Y50501498D01*
G75*
G02*
X86487497Y50561498I0J60000D01*
G01*
X86487497Y51041498D01*
G75*
G02*
X86547497Y51101498I60000J0D01*
G01*
X87027497Y51101498D01*
G75*
G02*
X87087497Y51041498I0J-60000D01*
G01*
G37*
G04 #@! TD*
G04 #@! TO.C,D64*
G36*
G01*
X94715000Y81575000D02*
X93695000Y81575000D01*
G75*
G02*
X93605000Y81665000I0J90000D01*
G01*
X93605000Y82385000D01*
G75*
G02*
X93695000Y82475000I90000J0D01*
G01*
X94715000Y82475000D01*
G75*
G02*
X94805000Y82385000I0J-90000D01*
G01*
X94805000Y81665000D01*
G75*
G02*
X94715000Y81575000I-90000J0D01*
G01*
G37*
G36*
G01*
X94715000Y84875000D02*
X93695000Y84875000D01*
G75*
G02*
X93605000Y84965000I0J90000D01*
G01*
X93605000Y85685000D01*
G75*
G02*
X93695000Y85775000I90000J0D01*
G01*
X94715000Y85775000D01*
G75*
G02*
X94805000Y85685000I0J-90000D01*
G01*
X94805000Y84965000D01*
G75*
G02*
X94715000Y84875000I-90000J0D01*
G01*
G37*
G04 #@! TD*
G04 #@! TO.C,Q16*
G36*
G01*
X25400000Y36482581D02*
X25100000Y36482581D01*
G75*
G02*
X24950000Y36632581I0J150000D01*
G01*
X24950000Y37807581D01*
G75*
G02*
X25100000Y37957581I150000J0D01*
G01*
X25400000Y37957581D01*
G75*
G02*
X25550000Y37807581I0J-150000D01*
G01*
X25550000Y36632581D01*
G75*
G02*
X25400000Y36482581I-150000J0D01*
G01*
G37*
G36*
G01*
X23500000Y36482581D02*
X23200000Y36482581D01*
G75*
G02*
X23050000Y36632581I0J150000D01*
G01*
X23050000Y37807581D01*
G75*
G02*
X23200000Y37957581I150000J0D01*
G01*
X23500000Y37957581D01*
G75*
G02*
X23650000Y37807581I0J-150000D01*
G01*
X23650000Y36632581D01*
G75*
G02*
X23500000Y36482581I-150000J0D01*
G01*
G37*
G36*
G01*
X24450000Y38357581D02*
X24150000Y38357581D01*
G75*
G02*
X24000000Y38507581I0J150000D01*
G01*
X24000000Y39682581D01*
G75*
G02*
X24150000Y39832581I150000J0D01*
G01*
X24450000Y39832581D01*
G75*
G02*
X24600000Y39682581I0J-150000D01*
G01*
X24600000Y38507581D01*
G75*
G02*
X24450000Y38357581I-150000J0D01*
G01*
G37*
G04 #@! TD*
G04 #@! TO.C,D51*
G36*
G01*
X22750000Y40747581D02*
X22750000Y41767581D01*
G75*
G02*
X22840000Y41857581I90000J0D01*
G01*
X23560000Y41857581D01*
G75*
G02*
X23650000Y41767581I0J-90000D01*
G01*
X23650000Y40747581D01*
G75*
G02*
X23560000Y40657581I-90000J0D01*
G01*
X22840000Y40657581D01*
G75*
G02*
X22750000Y40747581I0J90000D01*
G01*
G37*
G36*
G01*
X26050000Y40747581D02*
X26050000Y41767581D01*
G75*
G02*
X26140000Y41857581I90000J0D01*
G01*
X26860000Y41857581D01*
G75*
G02*
X26950000Y41767581I0J-90000D01*
G01*
X26950000Y40747581D01*
G75*
G02*
X26860000Y40657581I-90000J0D01*
G01*
X26140000Y40657581D01*
G75*
G02*
X26050000Y40747581I0J90000D01*
G01*
G37*
G04 #@! TD*
G04 #@! TO.C,D5*
G36*
G01*
X81400000Y48840000D02*
X81400000Y48360000D01*
G75*
G02*
X81340000Y48300000I-60000J0D01*
G01*
X80860000Y48300000D01*
G75*
G02*
X80800000Y48360000I0J60000D01*
G01*
X80800000Y48840000D01*
G75*
G02*
X80860000Y48900000I60000J0D01*
G01*
X81340000Y48900000D01*
G75*
G02*
X81400000Y48840000I0J-60000D01*
G01*
G37*
G36*
G01*
X81400000Y51040000D02*
X81400000Y50560000D01*
G75*
G02*
X81340000Y50500000I-60000J0D01*
G01*
X80860000Y50500000D01*
G75*
G02*
X80800000Y50560000I0J60000D01*
G01*
X80800000Y51040000D01*
G75*
G02*
X80860000Y51100000I60000J0D01*
G01*
X81340000Y51100000D01*
G75*
G02*
X81400000Y51040000I0J-60000D01*
G01*
G37*
G04 #@! TD*
G04 #@! TO.C,Q21*
G36*
G01*
X72950000Y87325000D02*
X72650000Y87325000D01*
G75*
G02*
X72500000Y87475000I0J150000D01*
G01*
X72500000Y88650000D01*
G75*
G02*
X72650000Y88800000I150000J0D01*
G01*
X72950000Y88800000D01*
G75*
G02*
X73100000Y88650000I0J-150000D01*
G01*
X73100000Y87475000D01*
G75*
G02*
X72950000Y87325000I-150000J0D01*
G01*
G37*
G36*
G01*
X72000000Y89200000D02*
X71700000Y89200000D01*
G75*
G02*
X71550000Y89350000I0J150000D01*
G01*
X71550000Y90525000D01*
G75*
G02*
X71700000Y90675000I150000J0D01*
G01*
X72000000Y90675000D01*
G75*
G02*
X72150000Y90525000I0J-150000D01*
G01*
X72150000Y89350000D01*
G75*
G02*
X72000000Y89200000I-150000J0D01*
G01*
G37*
G36*
G01*
X71050000Y87325000D02*
X70750000Y87325000D01*
G75*
G02*
X70600000Y87475000I0J150000D01*
G01*
X70600000Y88650000D01*
G75*
G02*
X70750000Y88800000I150000J0D01*
G01*
X71050000Y88800000D01*
G75*
G02*
X71200000Y88650000I0J-150000D01*
G01*
X71200000Y87475000D01*
G75*
G02*
X71050000Y87325000I-150000J0D01*
G01*
G37*
G04 #@! TD*
G04 #@! TO.C,D18*
G36*
G01*
X26700000Y86512500D02*
X27000000Y86512500D01*
G75*
G02*
X27150000Y86362500I0J-150000D01*
G01*
X27150000Y85187500D01*
G75*
G02*
X27000000Y85037500I-150000J0D01*
G01*
X26700000Y85037500D01*
G75*
G02*
X26550000Y85187500I0J150000D01*
G01*
X26550000Y86362500D01*
G75*
G02*
X26700000Y86512500I150000J0D01*
G01*
G37*
G36*
G01*
X28600000Y86512500D02*
X28900000Y86512500D01*
G75*
G02*
X29050000Y86362500I0J-150000D01*
G01*
X29050000Y85187500D01*
G75*
G02*
X28900000Y85037500I-150000J0D01*
G01*
X28600000Y85037500D01*
G75*
G02*
X28450000Y85187500I0J150000D01*
G01*
X28450000Y86362500D01*
G75*
G02*
X28600000Y86512500I150000J0D01*
G01*
G37*
G36*
G01*
X27650000Y84637500D02*
X27950000Y84637500D01*
G75*
G02*
X28100000Y84487500I0J-150000D01*
G01*
X28100000Y83312500D01*
G75*
G02*
X27950000Y83162500I-150000J0D01*
G01*
X27650000Y83162500D01*
G75*
G02*
X27500000Y83312500I0J150000D01*
G01*
X27500000Y84487500D01*
G75*
G02*
X27650000Y84637500I150000J0D01*
G01*
G37*
G04 #@! TD*
G04 #@! TO.C,R1111*
G36*
G01*
X69000000Y80552500D02*
X69000000Y79772500D01*
G75*
G02*
X68930000Y79702500I-70000J0D01*
G01*
X68370000Y79702500D01*
G75*
G02*
X68300000Y79772500I0J70000D01*
G01*
X68300000Y80552500D01*
G75*
G02*
X68370000Y80622500I70000J0D01*
G01*
X68930000Y80622500D01*
G75*
G02*
X69000000Y80552500I0J-70000D01*
G01*
G37*
G36*
G01*
X67400000Y80552500D02*
X67400000Y79772500D01*
G75*
G02*
X67330000Y79702500I-70000J0D01*
G01*
X66770000Y79702500D01*
G75*
G02*
X66700000Y79772500I0J70000D01*
G01*
X66700000Y80552500D01*
G75*
G02*
X66770000Y80622500I70000J0D01*
G01*
X67330000Y80622500D01*
G75*
G02*
X67400000Y80552500I0J-70000D01*
G01*
G37*
G04 #@! TD*
G04 #@! TO.C,C14*
G36*
G01*
X54445290Y89115000D02*
X54445290Y90165000D01*
G75*
G02*
X54545290Y90265000I100000J0D01*
G01*
X55345290Y90265000D01*
G75*
G02*
X55445290Y90165000I0J-100000D01*
G01*
X55445290Y89115000D01*
G75*
G02*
X55345290Y89015000I-100000J0D01*
G01*
X54545290Y89015000D01*
G75*
G02*
X54445290Y89115000I0J100000D01*
G01*
G37*
G36*
G01*
X56445290Y89115000D02*
X56445290Y90165000D01*
G75*
G02*
X56545290Y90265000I100000J0D01*
G01*
X57345290Y90265000D01*
G75*
G02*
X57445290Y90165000I0J-100000D01*
G01*
X57445290Y89115000D01*
G75*
G02*
X57345290Y89015000I-100000J0D01*
G01*
X56545290Y89015000D01*
G75*
G02*
X56445290Y89115000I0J100000D01*
G01*
G37*
G04 #@! TD*
G04 #@! TO.C,R28*
G36*
G01*
X15450000Y73310000D02*
X15450000Y74090000D01*
G75*
G02*
X15520000Y74160000I70000J0D01*
G01*
X16080000Y74160000D01*
G75*
G02*
X16150000Y74090000I0J-70000D01*
G01*
X16150000Y73310000D01*
G75*
G02*
X16080000Y73240000I-70000J0D01*
G01*
X15520000Y73240000D01*
G75*
G02*
X15450000Y73310000I0J70000D01*
G01*
G37*
G36*
G01*
X17050000Y73310000D02*
X17050000Y74090000D01*
G75*
G02*
X17120000Y74160000I70000J0D01*
G01*
X17680000Y74160000D01*
G75*
G02*
X17750000Y74090000I0J-70000D01*
G01*
X17750000Y73310000D01*
G75*
G02*
X17680000Y73240000I-70000J0D01*
G01*
X17120000Y73240000D01*
G75*
G02*
X17050000Y73310000I0J70000D01*
G01*
G37*
G04 #@! TD*
G04 #@! TO.C,R25*
G36*
G01*
X25959998Y73975000D02*
X25959998Y75225000D01*
G75*
G02*
X26059998Y75325000I100000J0D01*
G01*
X26859998Y75325000D01*
G75*
G02*
X26959998Y75225000I0J-100000D01*
G01*
X26959998Y73975000D01*
G75*
G02*
X26859998Y73875000I-100000J0D01*
G01*
X26059998Y73875000D01*
G75*
G02*
X25959998Y73975000I0J100000D01*
G01*
G37*
G36*
G01*
X27860020Y73975000D02*
X27860020Y75225000D01*
G75*
G02*
X27960020Y75325000I100000J0D01*
G01*
X28760020Y75325000D01*
G75*
G02*
X28860020Y75225000I0J-100000D01*
G01*
X28860020Y73975000D01*
G75*
G02*
X28760020Y73875000I-100000J0D01*
G01*
X27960020Y73875000D01*
G75*
G02*
X27860020Y73975000I0J100000D01*
G01*
G37*
G04 #@! TD*
G04 #@! TO.C,R37*
G36*
G01*
X40200000Y67704990D02*
X40200000Y68394990D01*
G75*
G02*
X40430000Y68624990I230000J0D01*
G01*
X41770000Y68624990D01*
G75*
G02*
X42000000Y68394990I0J-230000D01*
G01*
X42000000Y67704990D01*
G75*
G02*
X41770000Y67474990I-230000J0D01*
G01*
X40430000Y67474990D01*
G75*
G02*
X40200000Y67704990I0J230000D01*
G01*
G37*
G36*
G01*
X40200000Y70605010D02*
X40200000Y71295010D01*
G75*
G02*
X40430000Y71525010I230000J0D01*
G01*
X41770000Y71525010D01*
G75*
G02*
X42000000Y71295010I0J-230000D01*
G01*
X42000000Y70605010D01*
G75*
G02*
X41770000Y70375010I-230000J0D01*
G01*
X40430000Y70375010D01*
G75*
G02*
X40200000Y70605010I0J230000D01*
G01*
G37*
G04 #@! TD*
G04 #@! TO.C,R27*
G36*
G01*
X8450000Y71910000D02*
X8450000Y72690000D01*
G75*
G02*
X8520000Y72760000I70000J0D01*
G01*
X9080000Y72760000D01*
G75*
G02*
X9150000Y72690000I0J-70000D01*
G01*
X9150000Y71910000D01*
G75*
G02*
X9080000Y71840000I-70000J0D01*
G01*
X8520000Y71840000D01*
G75*
G02*
X8450000Y71910000I0J70000D01*
G01*
G37*
G36*
G01*
X10050000Y71910000D02*
X10050000Y72690000D01*
G75*
G02*
X10120000Y72760000I70000J0D01*
G01*
X10680000Y72760000D01*
G75*
G02*
X10750000Y72690000I0J-70000D01*
G01*
X10750000Y71910000D01*
G75*
G02*
X10680000Y71840000I-70000J0D01*
G01*
X10120000Y71840000D01*
G75*
G02*
X10050000Y71910000I0J70000D01*
G01*
G37*
G04 #@! TD*
D26*
G04 #@! TO.C,J4*
X94800000Y1700000D03*
G04 #@! TD*
G04 #@! TO.C,R84*
G36*
G01*
X10750000Y75490000D02*
X10750000Y74710000D01*
G75*
G02*
X10680000Y74640000I-70000J0D01*
G01*
X10120000Y74640000D01*
G75*
G02*
X10050000Y74710000I0J70000D01*
G01*
X10050000Y75490000D01*
G75*
G02*
X10120000Y75560000I70000J0D01*
G01*
X10680000Y75560000D01*
G75*
G02*
X10750000Y75490000I0J-70000D01*
G01*
G37*
G36*
G01*
X9150000Y75490000D02*
X9150000Y74710000D01*
G75*
G02*
X9080000Y74640000I-70000J0D01*
G01*
X8520000Y74640000D01*
G75*
G02*
X8450000Y74710000I0J70000D01*
G01*
X8450000Y75490000D01*
G75*
G02*
X8520000Y75560000I70000J0D01*
G01*
X9080000Y75560000D01*
G75*
G02*
X9150000Y75490000I0J-70000D01*
G01*
G37*
G04 #@! TD*
G04 #@! TO.C,R1110*
G36*
G01*
X62550000Y86310000D02*
X62550000Y87090000D01*
G75*
G02*
X62620000Y87160000I70000J0D01*
G01*
X63180000Y87160000D01*
G75*
G02*
X63250000Y87090000I0J-70000D01*
G01*
X63250000Y86310000D01*
G75*
G02*
X63180000Y86240000I-70000J0D01*
G01*
X62620000Y86240000D01*
G75*
G02*
X62550000Y86310000I0J70000D01*
G01*
G37*
G36*
G01*
X64150000Y86310000D02*
X64150000Y87090000D01*
G75*
G02*
X64220000Y87160000I70000J0D01*
G01*
X64780000Y87160000D01*
G75*
G02*
X64850000Y87090000I0J-70000D01*
G01*
X64850000Y86310000D01*
G75*
G02*
X64780000Y86240000I-70000J0D01*
G01*
X64220000Y86240000D01*
G75*
G02*
X64150000Y86310000I0J70000D01*
G01*
G37*
G04 #@! TD*
G04 #@! TO.C,C6*
G36*
G01*
X54445290Y81515000D02*
X54445290Y82565000D01*
G75*
G02*
X54545290Y82665000I100000J0D01*
G01*
X55345290Y82665000D01*
G75*
G02*
X55445290Y82565000I0J-100000D01*
G01*
X55445290Y81515000D01*
G75*
G02*
X55345290Y81415000I-100000J0D01*
G01*
X54545290Y81415000D01*
G75*
G02*
X54445290Y81515000I0J100000D01*
G01*
G37*
G36*
G01*
X56445290Y81515000D02*
X56445290Y82565000D01*
G75*
G02*
X56545290Y82665000I100000J0D01*
G01*
X57345290Y82665000D01*
G75*
G02*
X57445290Y82565000I0J-100000D01*
G01*
X57445290Y81515000D01*
G75*
G02*
X57345290Y81415000I-100000J0D01*
G01*
X56545290Y81415000D01*
G75*
G02*
X56445290Y81515000I0J100000D01*
G01*
G37*
G04 #@! TD*
G04 #@! TO.C,D70*
G36*
G01*
X25005000Y81425000D02*
X23985000Y81425000D01*
G75*
G02*
X23895000Y81515000I0J90000D01*
G01*
X23895000Y82235000D01*
G75*
G02*
X23985000Y82325000I90000J0D01*
G01*
X25005000Y82325000D01*
G75*
G02*
X25095000Y82235000I0J-90000D01*
G01*
X25095000Y81515000D01*
G75*
G02*
X25005000Y81425000I-90000J0D01*
G01*
G37*
G36*
G01*
X25005000Y84725000D02*
X23985000Y84725000D01*
G75*
G02*
X23895000Y84815000I0J90000D01*
G01*
X23895000Y85535000D01*
G75*
G02*
X23985000Y85625000I90000J0D01*
G01*
X25005000Y85625000D01*
G75*
G02*
X25095000Y85535000I0J-90000D01*
G01*
X25095000Y84815000D01*
G75*
G02*
X25005000Y84725000I-90000J0D01*
G01*
G37*
G04 #@! TD*
G04 #@! TO.C,R83*
G36*
G01*
X18950000Y74610000D02*
X18950000Y75390000D01*
G75*
G02*
X19020000Y75460000I70000J0D01*
G01*
X19580000Y75460000D01*
G75*
G02*
X19650000Y75390000I0J-70000D01*
G01*
X19650000Y74610000D01*
G75*
G02*
X19580000Y74540000I-70000J0D01*
G01*
X19020000Y74540000D01*
G75*
G02*
X18950000Y74610000I0J70000D01*
G01*
G37*
G36*
G01*
X20550000Y74610000D02*
X20550000Y75390000D01*
G75*
G02*
X20620000Y75460000I70000J0D01*
G01*
X21180000Y75460000D01*
G75*
G02*
X21250000Y75390000I0J-70000D01*
G01*
X21250000Y74610000D01*
G75*
G02*
X21180000Y74540000I-70000J0D01*
G01*
X20620000Y74540000D01*
G75*
G02*
X20550000Y74610000I0J70000D01*
G01*
G37*
G04 #@! TD*
G04 #@! TO.C,D4*
G36*
G01*
X73787498Y48841499D02*
X73787498Y48361499D01*
G75*
G02*
X73727498Y48301499I-60000J0D01*
G01*
X73247498Y48301499D01*
G75*
G02*
X73187498Y48361499I0J60000D01*
G01*
X73187498Y48841499D01*
G75*
G02*
X73247498Y48901499I60000J0D01*
G01*
X73727498Y48901499D01*
G75*
G02*
X73787498Y48841499I0J-60000D01*
G01*
G37*
G36*
G01*
X73787498Y51041499D02*
X73787498Y50561499D01*
G75*
G02*
X73727498Y50501499I-60000J0D01*
G01*
X73247498Y50501499D01*
G75*
G02*
X73187498Y50561499I0J60000D01*
G01*
X73187498Y51041499D01*
G75*
G02*
X73247498Y51101499I60000J0D01*
G01*
X73727498Y51101499D01*
G75*
G02*
X73787498Y51041499I0J-60000D01*
G01*
G37*
G04 #@! TD*
G04 #@! TO.C,R80*
G36*
G01*
X8450000Y73310000D02*
X8450000Y74090000D01*
G75*
G02*
X8520000Y74160000I70000J0D01*
G01*
X9080000Y74160000D01*
G75*
G02*
X9150000Y74090000I0J-70000D01*
G01*
X9150000Y73310000D01*
G75*
G02*
X9080000Y73240000I-70000J0D01*
G01*
X8520000Y73240000D01*
G75*
G02*
X8450000Y73310000I0J70000D01*
G01*
G37*
G36*
G01*
X10050000Y73310000D02*
X10050000Y74090000D01*
G75*
G02*
X10120000Y74160000I70000J0D01*
G01*
X10680000Y74160000D01*
G75*
G02*
X10750000Y74090000I0J-70000D01*
G01*
X10750000Y73310000D01*
G75*
G02*
X10680000Y73240000I-70000J0D01*
G01*
X10120000Y73240000D01*
G75*
G02*
X10050000Y73310000I0J70000D01*
G01*
G37*
G04 #@! TD*
G04 #@! TO.C,R1139*
G36*
G01*
X26100000Y67704990D02*
X26100000Y68394990D01*
G75*
G02*
X26330000Y68624990I230000J0D01*
G01*
X27670000Y68624990D01*
G75*
G02*
X27900000Y68394990I0J-230000D01*
G01*
X27900000Y67704990D01*
G75*
G02*
X27670000Y67474990I-230000J0D01*
G01*
X26330000Y67474990D01*
G75*
G02*
X26100000Y67704990I0J230000D01*
G01*
G37*
G36*
G01*
X26100000Y70605010D02*
X26100000Y71295010D01*
G75*
G02*
X26330000Y71525010I230000J0D01*
G01*
X27670000Y71525010D01*
G75*
G02*
X27900000Y71295010I0J-230000D01*
G01*
X27900000Y70605010D01*
G75*
G02*
X27670000Y70375010I-230000J0D01*
G01*
X26330000Y70375010D01*
G75*
G02*
X26100000Y70605010I0J230000D01*
G01*
G37*
G04 #@! TD*
G04 #@! TO.C,D45*
G36*
G01*
X53000000Y48840000D02*
X53000000Y48360000D01*
G75*
G02*
X52940000Y48300000I-60000J0D01*
G01*
X52460000Y48300000D01*
G75*
G02*
X52400000Y48360000I0J60000D01*
G01*
X52400000Y48840000D01*
G75*
G02*
X52460000Y48900000I60000J0D01*
G01*
X52940000Y48900000D01*
G75*
G02*
X53000000Y48840000I0J-60000D01*
G01*
G37*
G36*
G01*
X53000000Y51040000D02*
X53000000Y50560000D01*
G75*
G02*
X52940000Y50500000I-60000J0D01*
G01*
X52460000Y50500000D01*
G75*
G02*
X52400000Y50560000I0J60000D01*
G01*
X52400000Y51040000D01*
G75*
G02*
X52460000Y51100000I60000J0D01*
G01*
X52940000Y51100000D01*
G75*
G02*
X53000000Y51040000I0J-60000D01*
G01*
G37*
G04 #@! TD*
G04 #@! TO.C,R42*
G36*
G01*
X73400000Y85327500D02*
X73400000Y84547500D01*
G75*
G02*
X73330000Y84477500I-70000J0D01*
G01*
X72770000Y84477500D01*
G75*
G02*
X72700000Y84547500I0J70000D01*
G01*
X72700000Y85327500D01*
G75*
G02*
X72770000Y85397500I70000J0D01*
G01*
X73330000Y85397500D01*
G75*
G02*
X73400000Y85327500I0J-70000D01*
G01*
G37*
G36*
G01*
X71800000Y85327500D02*
X71800000Y84547500D01*
G75*
G02*
X71730000Y84477500I-70000J0D01*
G01*
X71170000Y84477500D01*
G75*
G02*
X71100000Y84547500I0J70000D01*
G01*
X71100000Y85327500D01*
G75*
G02*
X71170000Y85397500I70000J0D01*
G01*
X71730000Y85397500D01*
G75*
G02*
X71800000Y85327500I0J-70000D01*
G01*
G37*
G04 #@! TD*
G04 #@! TO.C,C13*
G36*
G01*
X51025000Y77900000D02*
X49975000Y77900000D01*
G75*
G02*
X49875000Y78000000I0J100000D01*
G01*
X49875000Y78800000D01*
G75*
G02*
X49975000Y78900000I100000J0D01*
G01*
X51025000Y78900000D01*
G75*
G02*
X51125000Y78800000I0J-100000D01*
G01*
X51125000Y78000000D01*
G75*
G02*
X51025000Y77900000I-100000J0D01*
G01*
G37*
G36*
G01*
X51025000Y79900000D02*
X49975000Y79900000D01*
G75*
G02*
X49875000Y80000000I0J100000D01*
G01*
X49875000Y80800000D01*
G75*
G02*
X49975000Y80900000I100000J0D01*
G01*
X51025000Y80900000D01*
G75*
G02*
X51125000Y80800000I0J-100000D01*
G01*
X51125000Y80000000D01*
G75*
G02*
X51025000Y79900000I-100000J0D01*
G01*
G37*
G04 #@! TD*
G04 #@! TO.C,D7*
G36*
G01*
X66300000Y48840000D02*
X66300000Y48360000D01*
G75*
G02*
X66240000Y48300000I-60000J0D01*
G01*
X65760000Y48300000D01*
G75*
G02*
X65700000Y48360000I0J60000D01*
G01*
X65700000Y48840000D01*
G75*
G02*
X65760000Y48900000I60000J0D01*
G01*
X66240000Y48900000D01*
G75*
G02*
X66300000Y48840000I0J-60000D01*
G01*
G37*
G36*
G01*
X66300000Y51040000D02*
X66300000Y50560000D01*
G75*
G02*
X66240000Y50500000I-60000J0D01*
G01*
X65760000Y50500000D01*
G75*
G02*
X65700000Y50560000I0J60000D01*
G01*
X65700000Y51040000D01*
G75*
G02*
X65760000Y51100000I60000J0D01*
G01*
X66240000Y51100000D01*
G75*
G02*
X66300000Y51040000I0J-60000D01*
G01*
G37*
G04 #@! TD*
G04 #@! TO.C,D67*
G36*
G01*
X32310000Y81400000D02*
X31290000Y81400000D01*
G75*
G02*
X31200000Y81490000I0J90000D01*
G01*
X31200000Y82210000D01*
G75*
G02*
X31290000Y82300000I90000J0D01*
G01*
X32310000Y82300000D01*
G75*
G02*
X32400000Y82210000I0J-90000D01*
G01*
X32400000Y81490000D01*
G75*
G02*
X32310000Y81400000I-90000J0D01*
G01*
G37*
G36*
G01*
X32310000Y84700000D02*
X31290000Y84700000D01*
G75*
G02*
X31200000Y84790000I0J90000D01*
G01*
X31200000Y85510000D01*
G75*
G02*
X31290000Y85600000I90000J0D01*
G01*
X32310000Y85600000D01*
G75*
G02*
X32400000Y85510000I0J-90000D01*
G01*
X32400000Y84790000D01*
G75*
G02*
X32310000Y84700000I-90000J0D01*
G01*
G37*
G04 #@! TD*
G04 #@! TO.C,R86*
G36*
G01*
X18950000Y71910000D02*
X18950000Y72690000D01*
G75*
G02*
X19020000Y72760000I70000J0D01*
G01*
X19580000Y72760000D01*
G75*
G02*
X19650000Y72690000I0J-70000D01*
G01*
X19650000Y71910000D01*
G75*
G02*
X19580000Y71840000I-70000J0D01*
G01*
X19020000Y71840000D01*
G75*
G02*
X18950000Y71910000I0J70000D01*
G01*
G37*
G36*
G01*
X20550000Y71910000D02*
X20550000Y72690000D01*
G75*
G02*
X20620000Y72760000I70000J0D01*
G01*
X21180000Y72760000D01*
G75*
G02*
X21250000Y72690000I0J-70000D01*
G01*
X21250000Y71910000D01*
G75*
G02*
X21180000Y71840000I-70000J0D01*
G01*
X20620000Y71840000D01*
G75*
G02*
X20550000Y71910000I0J70000D01*
G01*
G37*
G04 #@! TD*
G04 #@! TO.C,C12*
G36*
G01*
X48275000Y80900000D02*
X49325000Y80900000D01*
G75*
G02*
X49425000Y80800000I0J-100000D01*
G01*
X49425000Y80000000D01*
G75*
G02*
X49325000Y79900000I-100000J0D01*
G01*
X48275000Y79900000D01*
G75*
G02*
X48175000Y80000000I0J100000D01*
G01*
X48175000Y80800000D01*
G75*
G02*
X48275000Y80900000I100000J0D01*
G01*
G37*
G36*
G01*
X48275000Y78900000D02*
X49325000Y78900000D01*
G75*
G02*
X49425000Y78800000I0J-100000D01*
G01*
X49425000Y78000000D01*
G75*
G02*
X49325000Y77900000I-100000J0D01*
G01*
X48275000Y77900000D01*
G75*
G02*
X48175000Y78000000I0J100000D01*
G01*
X48175000Y78800000D01*
G75*
G02*
X48275000Y78900000I100000J0D01*
G01*
G37*
G04 #@! TD*
G04 #@! TO.C,C17*
G36*
G01*
X32160000Y70515001D02*
X32840000Y70515001D01*
G75*
G02*
X32925000Y70430001I0J-85000D01*
G01*
X32925000Y69750001D01*
G75*
G02*
X32840000Y69665001I-85000J0D01*
G01*
X32160000Y69665001D01*
G75*
G02*
X32075000Y69750001I0J85000D01*
G01*
X32075000Y70430001D01*
G75*
G02*
X32160000Y70515001I85000J0D01*
G01*
G37*
G36*
G01*
X32160000Y68934999D02*
X32840000Y68934999D01*
G75*
G02*
X32925000Y68849999I0J-85000D01*
G01*
X32925000Y68169999D01*
G75*
G02*
X32840000Y68084999I-85000J0D01*
G01*
X32160000Y68084999D01*
G75*
G02*
X32075000Y68169999I0J85000D01*
G01*
X32075000Y68849999D01*
G75*
G02*
X32160000Y68934999I85000J0D01*
G01*
G37*
G04 #@! TD*
G04 #@! TO.C,D52*
G36*
G01*
X69850000Y78572500D02*
X69850000Y77552500D01*
G75*
G02*
X69760000Y77462500I-90000J0D01*
G01*
X69040000Y77462500D01*
G75*
G02*
X68950000Y77552500I0J90000D01*
G01*
X68950000Y78572500D01*
G75*
G02*
X69040000Y78662500I90000J0D01*
G01*
X69760000Y78662500D01*
G75*
G02*
X69850000Y78572500I0J-90000D01*
G01*
G37*
G36*
G01*
X66550000Y78572500D02*
X66550000Y77552500D01*
G75*
G02*
X66460000Y77462500I-90000J0D01*
G01*
X65740000Y77462500D01*
G75*
G02*
X65650000Y77552500I0J90000D01*
G01*
X65650000Y78572500D01*
G75*
G02*
X65740000Y78662500I90000J0D01*
G01*
X66460000Y78662500D01*
G75*
G02*
X66550000Y78572500I0J-90000D01*
G01*
G37*
G04 #@! TD*
G04 #@! TO.C,D66*
G36*
G01*
X2310000Y81400000D02*
X1290000Y81400000D01*
G75*
G02*
X1200000Y81490000I0J90000D01*
G01*
X1200000Y82210000D01*
G75*
G02*
X1290000Y82300000I90000J0D01*
G01*
X2310000Y82300000D01*
G75*
G02*
X2400000Y82210000I0J-90000D01*
G01*
X2400000Y81490000D01*
G75*
G02*
X2310000Y81400000I-90000J0D01*
G01*
G37*
G36*
G01*
X2310000Y84700000D02*
X1290000Y84700000D01*
G75*
G02*
X1200000Y84790000I0J90000D01*
G01*
X1200000Y85510000D01*
G75*
G02*
X1290000Y85600000I90000J0D01*
G01*
X2310000Y85600000D01*
G75*
G02*
X2400000Y85510000I0J-90000D01*
G01*
X2400000Y84790000D01*
G75*
G02*
X2310000Y84700000I-90000J0D01*
G01*
G37*
G04 #@! TD*
G04 #@! TO.C,R44*
G36*
G01*
X73400000Y82727500D02*
X73400000Y81947500D01*
G75*
G02*
X73330000Y81877500I-70000J0D01*
G01*
X72770000Y81877500D01*
G75*
G02*
X72700000Y81947500I0J70000D01*
G01*
X72700000Y82727500D01*
G75*
G02*
X72770000Y82797500I70000J0D01*
G01*
X73330000Y82797500D01*
G75*
G02*
X73400000Y82727500I0J-70000D01*
G01*
G37*
G36*
G01*
X71800000Y82727500D02*
X71800000Y81947500D01*
G75*
G02*
X71730000Y81877500I-70000J0D01*
G01*
X71170000Y81877500D01*
G75*
G02*
X71100000Y81947500I0J70000D01*
G01*
X71100000Y82727500D01*
G75*
G02*
X71170000Y82797500I70000J0D01*
G01*
X71730000Y82797500D01*
G75*
G02*
X71800000Y82727500I0J-70000D01*
G01*
G37*
G04 #@! TD*
G04 #@! TO.C,C15*
G36*
G01*
X51775000Y80900000D02*
X52825000Y80900000D01*
G75*
G02*
X52925000Y80800000I0J-100000D01*
G01*
X52925000Y80000000D01*
G75*
G02*
X52825000Y79900000I-100000J0D01*
G01*
X51775000Y79900000D01*
G75*
G02*
X51675000Y80000000I0J100000D01*
G01*
X51675000Y80800000D01*
G75*
G02*
X51775000Y80900000I100000J0D01*
G01*
G37*
G36*
G01*
X51775000Y78900000D02*
X52825000Y78900000D01*
G75*
G02*
X52925000Y78800000I0J-100000D01*
G01*
X52925000Y78000000D01*
G75*
G02*
X52825000Y77900000I-100000J0D01*
G01*
X51775000Y77900000D01*
G75*
G02*
X51675000Y78000000I0J100000D01*
G01*
X51675000Y78800000D01*
G75*
G02*
X51775000Y78900000I100000J0D01*
G01*
G37*
G04 #@! TD*
G04 #@! TO.C,D37*
G36*
G01*
X62487498Y48841499D02*
X62487498Y48361499D01*
G75*
G02*
X62427498Y48301499I-60000J0D01*
G01*
X61947498Y48301499D01*
G75*
G02*
X61887498Y48361499I0J60000D01*
G01*
X61887498Y48841499D01*
G75*
G02*
X61947498Y48901499I60000J0D01*
G01*
X62427498Y48901499D01*
G75*
G02*
X62487498Y48841499I0J-60000D01*
G01*
G37*
G36*
G01*
X62487498Y51041499D02*
X62487498Y50561499D01*
G75*
G02*
X62427498Y50501499I-60000J0D01*
G01*
X61947498Y50501499D01*
G75*
G02*
X61887498Y50561499I0J60000D01*
G01*
X61887498Y51041499D01*
G75*
G02*
X61947498Y51101499I60000J0D01*
G01*
X62427498Y51101499D01*
G75*
G02*
X62487498Y51041499I0J-60000D01*
G01*
G37*
G04 #@! TD*
G04 #@! TO.C,R78*
G36*
G01*
X14250000Y74090000D02*
X14250000Y73310000D01*
G75*
G02*
X14180000Y73240000I-70000J0D01*
G01*
X13620000Y73240000D01*
G75*
G02*
X13550000Y73310000I0J70000D01*
G01*
X13550000Y74090000D01*
G75*
G02*
X13620000Y74160000I70000J0D01*
G01*
X14180000Y74160000D01*
G75*
G02*
X14250000Y74090000I0J-70000D01*
G01*
G37*
G36*
G01*
X12650000Y74090000D02*
X12650000Y73310000D01*
G75*
G02*
X12580000Y73240000I-70000J0D01*
G01*
X12020000Y73240000D01*
G75*
G02*
X11950000Y73310000I0J70000D01*
G01*
X11950000Y74090000D01*
G75*
G02*
X12020000Y74160000I70000J0D01*
G01*
X12580000Y74160000D01*
G75*
G02*
X12650000Y74090000I0J-70000D01*
G01*
G37*
G04 #@! TD*
G04 #@! TO.C,R1138*
G36*
G01*
X22550000Y69247500D02*
X22550000Y70027500D01*
G75*
G02*
X22620000Y70097500I70000J0D01*
G01*
X23180000Y70097500D01*
G75*
G02*
X23250000Y70027500I0J-70000D01*
G01*
X23250000Y69247500D01*
G75*
G02*
X23180000Y69177500I-70000J0D01*
G01*
X22620000Y69177500D01*
G75*
G02*
X22550000Y69247500I0J70000D01*
G01*
G37*
G36*
G01*
X24150000Y69247500D02*
X24150000Y70027500D01*
G75*
G02*
X24220000Y70097500I70000J0D01*
G01*
X24780000Y70097500D01*
G75*
G02*
X24850000Y70027500I0J-70000D01*
G01*
X24850000Y69247500D01*
G75*
G02*
X24780000Y69177500I-70000J0D01*
G01*
X24220000Y69177500D01*
G75*
G02*
X24150000Y69247500I0J70000D01*
G01*
G37*
G04 #@! TD*
G04 #@! TO.C,D69*
G36*
G01*
X8010000Y32900000D02*
X6990000Y32900000D01*
G75*
G02*
X6900000Y32990000I0J90000D01*
G01*
X6900000Y33710000D01*
G75*
G02*
X6990000Y33800000I90000J0D01*
G01*
X8010000Y33800000D01*
G75*
G02*
X8100000Y33710000I0J-90000D01*
G01*
X8100000Y32990000D01*
G75*
G02*
X8010000Y32900000I-90000J0D01*
G01*
G37*
G36*
G01*
X8010000Y36200000D02*
X6990000Y36200000D01*
G75*
G02*
X6900000Y36290000I0J90000D01*
G01*
X6900000Y37010000D01*
G75*
G02*
X6990000Y37100000I90000J0D01*
G01*
X8010000Y37100000D01*
G75*
G02*
X8100000Y37010000I0J-90000D01*
G01*
X8100000Y36290000D01*
G75*
G02*
X8010000Y36200000I-90000J0D01*
G01*
G37*
G04 #@! TD*
G04 #@! TO.C,Q51*
G36*
G01*
X22600000Y73912500D02*
X22900000Y73912500D01*
G75*
G02*
X23050000Y73762500I0J-150000D01*
G01*
X23050000Y72587500D01*
G75*
G02*
X22900000Y72437500I-150000J0D01*
G01*
X22600000Y72437500D01*
G75*
G02*
X22450000Y72587500I0J150000D01*
G01*
X22450000Y73762500D01*
G75*
G02*
X22600000Y73912500I150000J0D01*
G01*
G37*
G36*
G01*
X23550000Y72037500D02*
X23850000Y72037500D01*
G75*
G02*
X24000000Y71887500I0J-150000D01*
G01*
X24000000Y70712500D01*
G75*
G02*
X23850000Y70562500I-150000J0D01*
G01*
X23550000Y70562500D01*
G75*
G02*
X23400000Y70712500I0J150000D01*
G01*
X23400000Y71887500D01*
G75*
G02*
X23550000Y72037500I150000J0D01*
G01*
G37*
G36*
G01*
X24500000Y73912500D02*
X24800000Y73912500D01*
G75*
G02*
X24950000Y73762500I0J-150000D01*
G01*
X24950000Y72587500D01*
G75*
G02*
X24800000Y72437500I-150000J0D01*
G01*
X24500000Y72437500D01*
G75*
G02*
X24350000Y72587500I0J150000D01*
G01*
X24350000Y73762500D01*
G75*
G02*
X24500000Y73912500I150000J0D01*
G01*
G37*
G04 #@! TD*
M02*
